<?xml version="1.0" encoding="UTF-8" standalone="no"?>
<svg width="137px" height="53px" viewBox="0 0 137 53" version="1.1" xmlns="http://www.w3.org/2000/svg" xmlns:xlink="http://www.w3.org/1999/xlink" xmlns:sketch="http://www.bohemiancoding.com/sketch/ns">
    <!-- Generator: Sketch 3.2.1 (9977) - http://www.bohemiancoding.com/sketch -->
    <title>logo-helix</title>
    <desc>Created with Sketch.</desc>
    <defs></defs>
    <g id="Page-1" stroke="none" stroke-width="1" fill="none" fill-rule="evenodd" sketch:type="MSPage">
        <g id="Desktop-HD" sketch:type="MSArtboardGroup" transform="translate(-529.000000, -6813.000000)" fill="#999999">
            <g id="logo-helix" sketch:type="MSLayerGroup" transform="translate(529.000000, 6813.000000)">
                <path d="M0.419267241,1.59706667 C0.419267241,1.06942222 0.850344828,0.639533333 1.37826724,0.639533333 L7.07793966,0.639533333 C7.60586207,0.639533333 8.04048276,1.06942222 8.04048276,1.59706667 L8.04048276,19.1683333 C8.04048276,19.6948 8.47156034,20.1258667 8.99948276,20.1258667 L25.7973362,20.1258667 C26.3240776,20.1258667 26.7563362,19.6948 26.7563362,19.1683333 L26.7563362,1.59706667 C26.7563362,1.06942222 27.1885948,0.639533333 27.7165172,0.639533333 L33.4185517,0.639533333 C33.9452931,0.639533333 34.3775517,1.06942222 34.3775517,1.59706667 L34.3775517,41.9712889 C34.3775517,42.4965778 33.9452931,42.9276444 33.4185517,42.9276444 L27.7165172,42.9276444 C27.1885948,42.9276444 26.7563362,42.4965778 26.7563362,41.9712889 L26.7563362,27.0076222 C26.7563362,26.4799778 26.3240776,26.0500889 25.7973362,26.0500889 L8.99948276,26.0500889 C8.47156034,26.0500889 8.04048276,26.4799778 8.04048276,27.0076222 L8.04048276,41.9712889 C8.04048276,42.4965778 7.60586207,42.9276444 7.07793966,42.9276444 L1.37826724,42.9276444 C0.850344828,42.9276444 0.419267241,42.4965778 0.419267241,41.9712889 L0.419267241,1.59706667" id="Fill-1" sketch:type="MSShapeGroup"></path>
                <path d="M53.0166379,11.6882667 C44.386819,11.6882667 38.0552931,15.7115556 38.0552931,28.1736222 C38.0552931,40.1316 44.1624224,43.5989778 53.8008448,43.5989778 C57.6805431,43.5989778 61.4480431,42.9771111 63.9919914,42.2669111 C64.2341034,42.1361778 64.4714914,41.8829556 64.4762155,41.3988889 L63.5998879,37.1164889 C63.4699741,36.8090889 63.1133017,36.2826222 62.2039052,36.5817778 L62.2039052,36.5770667 C59.8300259,37.0422889 56.9494828,37.5628667 55.1448621,37.5628667 C49.7109224,37.5628667 45.5076207,36.4439778 45.5076207,29.7377111 L64.6120345,29.7377111 C64.9332759,29.6929556 65.3926983,29.4892 65.4552931,28.7519111 L65.4552931,27.0559111 C65.4552931,17.4982444 61.8696724,11.6882667 53.0166379,11.6882667 L53.0166379,11.6882667 Z M45.6741466,24.7651333 C46.0107414,19.7348444 48.53225,16.9965111 52.2867586,16.9965111 C55.9869397,16.9965111 57.8352586,20.1824 57.77975,24.7651333 L45.6741466,24.7651333 L45.6741466,24.7651333 Z" id="Fill-2" sketch:type="MSShapeGroup"></path>
                <path d="M69.3609741,1.74782222 C69.3609741,1.22135556 69.7932328,0.790288889 70.3211552,0.790288889 L75.8543017,0.790288889 C76.3810431,0.790288889 76.8133017,1.22135556 76.8133017,1.74782222 L76.8133017,41.9712889 C76.8133017,42.4965778 76.3810431,42.9276444 75.8543017,42.9276444 L70.3211552,42.9276444 C69.7932328,42.9276444 69.3609741,42.4965778 69.3609741,41.9712889 L69.3609741,1.74782222" id="Fill-3" sketch:type="MSShapeGroup"></path>
                <path d="M81.2138362,13.7387778 C81.2138362,13.2123111 81.6449138,12.7812444 82.1728362,12.7812444 L87.7059828,12.7812444 C88.2327241,12.7812444 88.6661638,13.2123111 88.6661638,13.7387778 L88.6661638,41.9712889 C88.6661638,42.4965778 88.2327241,42.9276444 87.7059828,42.9276444 L82.1728362,42.9276444 C81.6449138,42.9276444 81.2138362,42.4965778 81.2138362,41.9712889 L81.2138362,13.7387778" id="Fill-4" sketch:type="MSShapeGroup"></path>
                <path d="M112.789974,23.5060889 L115.554776,26.5624222 C122.526422,22.8076667 123.559828,16.3051556 123.908233,13.78 C123.888155,13.4631778 123.723991,12.8566222 122.821681,12.8224667 L115.540603,12.8224667 C115.540603,12.8224667 117.652293,19.5581778 112.789974,23.5060889" id="Fill-5" sketch:type="MSShapeGroup"></path>
                <path d="M100.302897,12.8224667 L91.68725,12.8224667 L104.730595,27.9368889 C93.8284655,31.9401556 91.8585,39.1858444 91.2916034,41.8817778 C91.2916034,42.1526667 91.4002586,42.8063333 92.2730431,42.8911333 L99.9296897,42.8911333 C99.9296897,42.8911333 99.8777241,34.4182 107.443431,31.0721333 L125.878198,52.5041556 L136.287836,52.5041556 L100.302897,12.8224667" id="Fill-6" sketch:type="MSShapeGroup"></path>
                <path d="M0.436982759,47.1264222 L2.16483621,47.1264222 C3.44035345,47.1264222 4.06393966,47.6293333 4.06393966,48.5456444 C4.06393966,49.1745778 3.62459483,49.4713778 3.44980172,49.5844444 L3.44980172,49.5997556 C3.68482759,49.6833778 4.4525,49.9943111 4.4525,50.8788222 C4.4525,51.8304667 3.89741379,52.4888444 2.39041379,52.4888444 L0.436982759,52.4888444 L0.436982759,47.1264222 L0.436982759,47.1264222 Z M2.07271552,49.3877556 C2.74118103,49.3877556 3.03053448,49.2134444 3.03053448,48.6728444 C3.03053448,48.1216444 2.67268103,47.9249556 1.98177586,47.9249556 L1.47983621,47.9249556 L1.47983621,49.3877556 L2.07271552,49.3877556 L2.07271552,49.3877556 Z M2.23806034,51.6714667 C2.95612931,51.6714667 3.41082759,51.4877333 3.41082759,50.9129778 C3.41082759,50.2816889 2.93959483,50.1226889 2.09515517,50.1226889 L1.47983621,50.1226889 L1.47983621,51.6714667 L2.23806034,51.6714667 L2.23806034,51.6714667 Z" id="Fill-7" sketch:type="MSShapeGroup"></path>
                <path d="M6.37168103,50.4277333 L6.37168103,47.1264222 L7.4287069,47.1264222 L7.4287069,50.3806222 C7.4287069,51.3275556 7.94481897,51.7232889 8.74319828,51.7232889 C9.56756034,51.7232889 10.0671379,51.2910444 10.0671379,50.2157333 L10.0671379,47.1264222 L11.0863707,47.1264222 L11.0863707,50.2392889 C11.0863707,52.0495333 9.85573276,52.5877778 8.74319828,52.5877778 C7.58106034,52.5877778 6.37168103,52.0942889 6.37168103,50.4277333" id="Fill-8" sketch:type="MSShapeGroup"></path>
                <path d="M12.9299655,52.2179556 L13.2346724,51.4524 C13.6834655,51.6243556 14.041319,51.7068 14.5964052,51.7068 C15.2282586,51.7068 15.6758707,51.5112889 15.6758707,51.0401778 C15.6758707,49.9943111 13.0905862,50.2593111 13.0905862,48.4632 C13.0905862,47.4927111 13.9799052,47.0522222 14.8928448,47.0522222 C15.653431,47.0522222 16.0490776,47.2112222 16.4281897,47.3784667 L16.13175,48.1157556 C15.7679914,48.0003333 15.447931,47.8943333 14.9235517,47.8943333 C14.3672845,47.8943333 14.1015517,48.1075111 14.1015517,48.4478889 C14.1015517,49.3500667 16.7175431,49.2888222 16.7175431,50.9966 C16.7175431,52.1178444 15.6983103,52.5736444 14.6117586,52.5736444 C13.767319,52.5736444 13.2972672,52.4134667 12.9299655,52.2179556" id="Fill-9" sketch:type="MSShapeGroup"></path>
                <path d="M18.6686121,47.1264222 L19.7008362,47.1264222 L19.7008362,52.4900222 L18.6686121,52.4900222 L18.6686121,47.1264222 Z" id="Fill-10" sketch:type="MSShapeGroup"></path>
                <path d="M21.9991293,47.1264222 L23.2699224,47.1264222 L25.620181,51.2462889 L25.5894741,50.6161778 L25.5894741,47.1264222 L26.6323276,47.1264222 L26.6323276,52.4888444 L25.3013017,52.4888444 L23.0041897,48.4561333 L23.0337155,49.1050889 L23.0337155,52.4888444 L21.9991293,52.4888444 L21.9991293,47.1264222" id="Fill-11" sketch:type="MSShapeGroup"></path>
                <path d="M28.9318017,47.1264222 L32.262319,47.1264222 L32.262319,47.9461556 L29.9652069,47.9461556 L29.9652069,49.4101333 L32.0946121,49.4101333 L32.0946121,50.1851111 L29.9652069,50.1851111 L29.9652069,51.6714667 L32.4371121,51.6714667 L32.4371121,52.4888444 L28.9318017,52.4888444 L28.9318017,47.1264222" id="Fill-12" sketch:type="MSShapeGroup"></path>
                <path d="M34.0067069,52.2179556 L34.3114138,51.4524 C34.7602069,51.6243556 35.1180603,51.7068 35.6696034,51.7068 C36.303819,51.7068 36.751431,51.5112889 36.751431,51.0401778 C36.751431,49.9943111 34.1661466,50.2593111 34.1661466,48.4632 C34.1661466,47.4927111 35.0566466,47.0522222 35.9684052,47.0522222 C36.7289914,47.0522222 37.1246379,47.2112222 37.504931,47.3784667 L37.2061293,48.1157556 C36.8435517,48.0003333 36.5234914,47.8943333 35.997931,47.8943333 C35.4452069,47.8943333 35.1782931,48.1075111 35.1782931,48.4478889 C35.1782931,49.3500667 37.7942845,49.2888222 37.7942845,50.9966 C37.7942845,52.1178444 36.7738707,52.5736444 35.687319,52.5736444 C34.8440603,52.5736444 34.3704655,52.4134667 34.0067069,52.2179556" id="Fill-13" sketch:type="MSShapeGroup"></path>
                <path d="M39.2800259,52.2179556 L39.5847328,51.4524 C40.0311638,51.6243556 40.3890172,51.7068 40.9429224,51.7068 C41.5747759,51.7068 42.023569,51.5112889 42.023569,51.0401778 C42.023569,49.9943111 39.4382845,50.2593111 39.4382845,48.4632 C39.4382845,47.4927111 40.3287845,47.0522222 41.2405431,47.0522222 C42.0023103,47.0522222 42.3967759,47.2112222 42.777069,47.3784667 L42.4806293,48.1157556 C42.1133276,48.0003333 41.7979914,47.8943333 41.27125,47.8943333 C40.7161638,47.8943333 40.44925,48.1075111 40.44925,48.4478889 C40.44925,49.3500667 43.0664224,49.2888222 43.0664224,50.9966 C43.0664224,52.1178444 42.0471897,52.5736444 40.9594569,52.5736444 C40.1150172,52.5736444 39.6437845,52.4134667 39.2800259,52.2179556" id="Fill-14" sketch:type="MSShapeGroup"></path>
                <path d="M48.5168966,52.2179556 L48.8216034,51.4524 C49.2703966,51.6243556 49.629431,51.7068 50.1833362,51.7068 C50.8116466,51.7068 51.2628017,51.5112889 51.2628017,51.0401778 C51.2628017,49.9943111 48.6751552,50.2593111 48.6751552,48.4632 C48.6751552,47.4927111 49.5656552,47.0522222 50.4797759,47.0522222 C51.2403621,47.0522222 51.6348276,47.2112222 52.0151207,47.3784667 L51.7198621,48.1157556 C51.3525603,48.0003333 51.033681,47.8943333 50.5093017,47.8943333 C49.9553966,47.8943333 49.6873017,48.1075111 49.6873017,48.4478889 C49.6873017,49.3500667 52.3044741,49.2888222 52.3044741,50.9966 C52.3044741,52.1178444 51.2852414,52.5736444 50.1998707,52.5736444 C49.3507069,52.5736444 48.8830172,52.4134667 48.5168966,52.2179556" id="Fill-15" sketch:type="MSShapeGroup"></path>
                <path d="M53.9272155,49.7952667 C53.9272155,48.1157556 55.0515603,47.0439778 56.8172069,47.0439778 C58.6856034,47.0439778 59.5465776,48.2264667 59.5465776,49.8129333 C59.5465776,51.4948 58.5131724,52.5795333 56.6719397,52.5795333 C54.8685,52.5795333 53.9272155,51.4877333 53.9272155,49.7952667 L53.9272155,49.7952667 Z M58.4883707,49.8046889 C58.4883707,48.6987556 57.9297414,47.8707778 56.7487069,47.8707778 C55.5157069,47.8707778 54.9747931,48.6987556 54.9747931,49.7893778 C54.9747931,50.8588 55.5003534,51.7527333 56.6943793,51.7527333 C57.9722586,51.7527333 58.4883707,50.9059111 58.4883707,49.8046889 L58.4883707,49.8046889 Z" id="Fill-16" sketch:type="MSShapeGroup"></path>
                <path d="M61.5200862,47.1264222 L62.5558534,47.1264222 L62.5558534,51.6538 L64.8860345,51.6538 L64.8860345,52.4888444 L61.5200862,52.4888444 L61.5200862,47.1264222" id="Fill-17" sketch:type="MSShapeGroup"></path>
                <path d="M66.5430259,50.4277333 L66.5430259,47.1264222 L67.5965086,47.1264222 L67.5965086,50.3806222 C67.5965086,51.3275556 68.1149828,51.7232889 68.9145431,51.7232889 C69.7353621,51.7232889 70.2384828,51.2910444 70.2384828,50.2157333 L70.2384828,47.1264222 L71.2553534,47.1264222 L71.2553534,50.2392889 C71.2553534,52.0495333 70.0235345,52.5877778 68.9145431,52.5877778 C67.7512241,52.5877778 66.5430259,52.0942889 66.5430259,50.4277333" id="Fill-18" sketch:type="MSShapeGroup"></path>
                <path d="M74.597681,47.9544 L72.8568362,47.9544 L72.8568362,47.1264222 L77.3813793,47.1264222 L77.3813793,47.9544 L75.6393534,47.9544 L75.6393534,52.4888444 L74.597681,52.4888444 L74.597681,47.9544" id="Fill-19" sketch:type="MSShapeGroup"></path>
                <path d="M79.0383707,47.1264222 L80.0705948,47.1264222 L80.0705948,52.4900222 L79.0383707,52.4900222 L79.0383707,47.1264222 Z" id="Fill-20" sketch:type="MSShapeGroup"></path>
                <path d="M82.0393793,49.7952667 C82.0393793,48.1157556 83.1660862,47.0439778 84.9281897,47.0439778 C86.8001293,47.0439778 87.6611034,48.2264667 87.6611034,49.8129333 C87.6611034,51.4948 86.6253362,52.5795333 84.7852845,52.5795333 C82.9842069,52.5795333 82.0393793,51.4877333 82.0393793,49.7952667 L82.0393793,49.7952667 Z M86.6028966,49.8046889 C86.6028966,48.6987556 86.0395431,47.8707778 84.8620517,47.8707778 C83.6290517,47.8707778 83.0881379,48.6987556 83.0881379,49.7893778 C83.0881379,50.8588 83.6136983,51.7527333 84.8100862,51.7527333 C86.0879655,51.7527333 86.6028966,50.9059111 86.6028966,49.8046889 L86.6028966,49.8046889 Z" id="Fill-21" sketch:type="MSShapeGroup"></path>
                <path d="M89.6346121,47.1264222 L90.9018621,47.1264222 L93.2544828,51.2462889 L93.2237759,50.6161778 L93.2237759,47.1264222 L94.2654483,47.1264222 L94.2654483,52.4888444 L92.9344224,52.4888444 L90.6361293,48.4561333 L90.6680172,49.1050889 L90.6680172,52.4888444 L89.6346121,52.4888444 L89.6346121,47.1264222" id="Fill-22" sketch:type="MSShapeGroup"></path>
                <path d="M96.1621897,52.2179556 L96.4680776,51.4524 C96.9133276,51.6243556 97.27,51.7068 97.8262672,51.7068 C98.4557586,51.7068 98.9080948,51.5112889 98.9080948,51.0401778 C98.9080948,49.9943111 96.3228103,50.2593111 96.3228103,48.4632 C96.3228103,47.4927111 97.2109483,47.0522222 98.1238879,47.0522222 C98.8832931,47.0522222 99.2777586,47.2112222 99.6580517,47.3784667 L99.3627931,48.1157556 C98.9978534,48.0003333 98.6777931,47.8943333 98.1534138,47.8943333 C97.5983276,47.8943333 97.3302328,48.1075111 97.3302328,48.4478889 C97.3302328,49.3500667 99.9474052,49.2888222 99.9474052,50.9966 C99.9474052,52.1178444 98.9317155,52.5736444 97.8428017,52.5736444 C96.997181,52.5736444 96.5271293,52.4134667 96.1621897,52.2179556" id="Fill-23" sketch:type="MSShapeGroup"></path>
            </g>
        </g>
    </g>
</svg>