<?xml version="1.0" encoding="UTF-8" standalone="no"?>
<svg width="496px" height="82px" viewBox="0 0 496 82" version="1.1" xmlns="http://www.w3.org/2000/svg" xmlns:xlink="http://www.w3.org/1999/xlink" xmlns:sketch="http://www.bohemiancoding.com/sketch/ns">
    <!-- Generator: Sketch 3.2.1 (9977) - http://www.bohemiancoding.com/sketch -->
    <title>brand</title>
    <desc>Created with Sketch.</desc>
    <defs></defs>
    <g id="Page-1" stroke="none" stroke-width="1" fill="none" fill-rule="evenodd" sketch:type="MSPage">
        <g id="Desktop-HD" sketch:type="MSArtboardGroup" transform="translate(-472.000000, -291.000000)">
            <g id="brand" sketch:type="MSLayerGroup" transform="translate(472.000000, 292.000000)">
                <path d="M232.787751,49.0455072 C232.787751,51.6730725 230.658986,53.8074493 228.03422,53.8074493 L187.745493,53.8074493 C185.119541,53.8074493 182.990775,51.6730725 182.990775,49.0455072 C182.990775,46.4143768 185.119541,44.2835652 187.745493,44.2835652 L228.03422,44.2835652 C230.658986,44.2835652 232.787751,46.4143768 232.787751,49.0455072" id="Fill-1" fill="#337683" sketch:type="MSShapeGroup"></path>
                <path d="M218.548517,27.2964928 C218.548517,29.9252464 216.419751,32.0596232 213.794986,32.0596232 L187.745493,32.0596232 C185.119541,32.0596232 182.990775,29.9252464 182.990775,27.2964928 C182.990775,24.6653623 185.119541,22.5345507 187.745493,22.5345507 L213.794986,22.5345507 C216.419751,22.5345507 218.548517,24.6653623 218.548517,27.2964928" id="Fill-2" fill="#337683" sketch:type="MSShapeGroup"></path>
                <path d="M204.309282,5.54747826 C204.309282,8.17623188 202.180517,10.3106087 199.555751,10.3106087 L187.745493,10.3106087 C185.119541,10.3106087 182.990775,8.17623188 182.990775,5.54747826 C182.990775,2.91634783 185.119541,0.785536232 187.745493,0.785536232 L199.555751,0.785536232 C202.180517,0.785536232 204.309282,2.91634783 204.309282,5.54747826" id="Fill-3" fill="#337683" sketch:type="MSShapeGroup"></path>
                <path d="M22.0055502,33.8362899 L7.8517512,33.8362899 L7.8517512,50.5963768 C7.8517512,52.7093623 6.13117703,54.4313623 3.94070813,54.4313623 C1.82974163,54.4313623 0.109167464,52.7093623 0.109167464,50.5963768 L0.109167464,6.81075362 C0.109167464,3.99542029 2.37557895,1.72556522 5.19020096,1.72556522 L22.0055502,1.72556522 C32.7193876,1.72556522 38.6630813,9.08773913 38.6630813,17.7797391 C38.6630813,26.4705507 32.562756,33.8362899 22.0055502,33.8362899 M20.9886316,8.61594203 L7.8517512,8.61594203 L7.8517512,26.9423478 L20.9886316,26.9423478 C26.6985646,26.9423478 30.6855502,23.1846087 30.6855502,17.7797391 C30.6855502,12.2976232 26.6985646,8.61594203 20.9886316,8.61594203" id="Fill-4" fill="#FFFFFF" sketch:type="MSShapeGroup"></path>
                <path d="M71.764555,33.051942 L81.8506794,48.7115652 C82.2410718,49.4174783 82.3977033,50.0461449 82.3977033,50.676 C82.3977033,52.5536812 80.8337608,54.4313623 78.5673493,54.4313623 C77.3154833,54.4313623 76.1431196,53.8038841 75.4382775,52.6297391 L63.7087081,33.8362899 L53.9334737,33.8362899 L53.9334737,50.5963768 C53.9334737,52.7093623 52.2140861,54.4313623 50.0248038,54.4313623 C47.9126507,54.4313623 46.1932632,52.7093623 46.1932632,50.5963768 L46.1932632,6.81075362 C46.1932632,3.99542029 48.4596746,1.72556522 51.2754833,1.72556522 L68.0884593,1.72556522 C77.940823,1.72556522 84.7436172,8.06927536 84.7436172,17.7797391 C84.7436172,27.1004058 78.4878469,32.1891594 71.764555,33.051942 M53.9334737,8.61594203 L53.9334737,27.0231594 L67.0691675,27.0231594 C72.7802871,27.0231594 76.7684593,23.2606667 76.7684593,17.7797391 C76.7684593,12.2976232 72.7802871,8.61594203 67.0691675,8.61594203 L53.9334737,8.61594203" id="Fill-5" fill="#FFFFFF" sketch:type="MSShapeGroup"></path>
                <path d="M117.471311,54.9031594 C101.911388,54.9031594 91.1963636,43.3898841 91.1963636,27.8823768 C91.1963636,12.3772464 101.911388,0.866347826 117.471311,0.866347826 C132.957665,0.866347826 143.746258,12.3772464 143.746258,27.8823768 C143.746258,43.3898841 132.957665,54.9031594 117.471311,54.9031594 M117.471311,7.75672464 C106.288766,7.75672464 99.2510239,16.2954203 99.2510239,27.8823768 C99.2510239,39.3944638 106.288766,48.0127826 117.471311,48.0127826 C128.574354,48.0127826 135.7711,39.3944638 135.7711,27.8823768 C135.7711,16.2954203 128.574354,7.75672464 117.471311,7.75672464" id="Fill-6" fill="#FFFFFF" sketch:type="MSShapeGroup"></path>
                <path d="M156.726507,54.9031594 C152.269627,54.9031594 147.654928,53.7242609 144.605359,50.435942 C143.980019,49.8904638 143.746258,49.1084928 143.746258,48.3229565 C143.746258,46.4452754 145.309014,44.8005217 147.18622,44.8005217 C147.732057,44.8005217 148.357397,44.8765797 148.829665,45.2735072 C150.781627,46.7590145 153.129914,48.0127826 156.179483,48.0127826 C162.200306,48.0127826 166.031847,43.8616812 166.031847,37.7544638 L166.031847,5.01031884 C166.031847,2.97695652 167.752421,1.25733333 170.021206,1.25733333 C172.05267,1.25733333 173.774431,2.97695652 173.774431,5.01031884 L173.774431,37.8305217 C173.774431,49.4971014 166.423426,54.9031594 156.726507,54.9031594" id="Fill-7" fill="#FFFFFF" sketch:type="MSShapeGroup"></path>
                <path d="M278.93355,7.67710145 C279.557703,8.37944928 279.872153,9.24817391 279.872153,10.1798841 C279.872153,12.1443188 278.232268,13.7878841 276.199617,13.7878841 C275.258641,13.7878841 274.163407,13.3933333 273.539254,12.5341159 C270.488498,9.00811594 265.640038,6.81788406 261.104842,6.81788406 C250.153684,6.81788406 242.021895,15.1925797 242.021895,26.9435362 C242.021895,38.616058 250.153684,47.073942 261.104842,47.073942 C265.719541,47.073942 270.330679,45.0370145 273.539254,41.4313913 C274.163407,40.6494203 275.258641,40.18 276.27556,40.18 C278.308211,40.18 279.872153,41.9055652 279.872153,43.782058 C279.872153,44.7244638 279.557703,45.5824928 278.93355,46.2123478 C274.869435,50.5951884 269.237818,53.9643188 261.104842,53.9643188 C245.932938,53.9643188 233.967234,43.000087 233.967234,26.9435362 C233.967234,10.8857971 245.932938,-0.0713043478 261.104842,-0.0713043478 C269.237818,-0.0713043478 274.945378,3.21701449 278.93355,7.67710145" id="Fill-8" fill="#FFFFFF" sketch:type="MSShapeGroup"></path>
                <path d="M323.971062,7.67710145 L310.675177,7.67710145 L310.675177,49.6575362 C310.675177,51.7728986 308.955789,53.4925217 306.762947,53.4925217 C304.656727,53.4925217 302.93378,51.7728986 302.93378,49.6575362 L302.93378,7.67710145 L289.639081,7.67710145 C287.761876,7.67710145 286.276249,6.11315942 286.276249,4.15466667 C286.276249,2.27104348 287.761876,0.786724638 289.639081,0.786724638 L323.971062,0.786724638 C325.847081,0.786724638 327.329148,2.27104348 327.329148,4.31153623 C327.329148,6.11315942 325.847081,7.67710145 323.971062,7.67710145" id="Fill-9" fill="#FFFFFF" sketch:type="MSShapeGroup"></path>
                <path d="M380.267062,53.9643188 L356.882679,53.9643188 C354.071617,53.9643188 351.800459,51.6944638 351.800459,48.8755652 L351.800459,5.01031884 C351.800459,2.97695652 353.52222,1.25733333 355.786258,1.25733333 C357.823656,1.25733333 359.545416,2.97695652 359.545416,5.01031884 L359.545416,47.073942 L380.267062,47.073942 C382.141895,47.073942 383.627522,48.6355072 383.627522,50.435942 C383.627522,52.4764348 382.141895,53.9643188 380.267062,53.9643188" id="Fill-10" fill="#FFFFFF" sketch:type="MSShapeGroup"></path>
                <path d="M396.357397,54.4313623 C394.251177,54.4313623 392.534163,52.7093623 392.534163,50.5963768 L392.534163,5.01031884 C392.534163,2.97695652 394.251177,1.25733333 396.522335,1.25733333 C398.552612,1.25733333 400.269627,2.97695652 400.269627,5.01031884 L400.269627,50.5963768 C400.269627,52.7093623 398.552612,54.4313623 396.357397,54.4313623" id="Fill-11" fill="#FFFFFF" sketch:type="MSShapeGroup"></path>
                <path d="M430.612249,54.9031594 C422.946794,54.9031594 415.987368,52.3195652 411.926813,48.3229565 C411.2991,47.6158551 410.982278,46.7590145 410.982278,45.8962319 C410.982278,43.9389275 412.466718,42.0624348 414.581244,42.0624348 C415.283713,42.0624348 416.14756,42.2941739 416.76934,42.7671594 C420.365933,45.8166087 425.216766,48.090029 430.926699,48.090029 C439.371751,48.090029 442.343005,43.6263768 442.343005,39.9446957 C442.343005,27.5686377 411.685933,34.6943188 411.685933,15.8212464 C411.685933,7.20768116 419.350201,0.943594203 430.145914,0.943594203 C436.637818,0.943594203 443.279234,2.97695652 447.189091,6.5813913 C447.893933,7.20768116 448.207196,8.14533333 448.207196,9.00930435 C448.207196,10.9666087 446.486622,12.6089855 444.533474,12.6089855 C443.828632,12.6089855 443.04666,12.3772464 442.420134,11.9078261 C438.588593,9.08773913 434.058144,7.75672464 429.518201,7.75672464 C423.651636,7.75672464 419.658718,10.8097391 419.658718,15.2733913 C419.658718,26.0807536 450.314603,19.6562319 450.314603,39.1651014 C450.314603,47.308058 444.686545,54.9031594 430.612249,54.9031594" id="Fill-12" fill="#FFFFFF" sketch:type="MSShapeGroup"></path>
                <path d="M492.544612,8.61594203 L479.2511,8.61594203 L479.2511,50.5963768 C479.2511,52.7093623 477.52934,54.4313623 475.343617,54.4313623 C473.229091,54.4313623 471.50733,52.7093623 471.50733,50.5963768 L471.50733,8.61594203 L458.216191,8.61594203 C456.341359,8.61594203 454.855732,7.052 454.855732,5.09350725 C454.855732,3.20988406 456.341359,1.72556522 458.216191,1.72556522 L492.544612,1.72556522 C494.424191,1.72556522 495.909818,3.20988406 495.909818,5.25037681 C495.909818,7.052 494.424191,8.61594203 492.544612,8.61594203" id="Fill-13" fill="#FFFFFF" sketch:type="MSShapeGroup"></path>
                <path d="M437.411483,80.6666087 C436.574928,80.6666087 435.862967,79.9571304 435.862967,79.0955362 C435.862967,78.2541449 436.574928,77.5197101 437.411483,77.5197101 C438.27177,77.5197101 438.980172,78.2541449 438.980172,79.0955362 C438.980172,79.9571304 438.27177,80.6666087 437.411483,80.6666087" id="Fill-14" fill-opacity="0.351902174" fill="#FFFFFF" sketch:type="MSShapeGroup"></path>
                <path d="M456.153876,65.7117101 C456.355598,65.9470145 456.460019,66.2227246 456.460019,66.5269565 C456.460019,67.1651304 455.928421,67.6963478 455.273416,67.6963478 C454.967273,67.6963478 454.610105,67.573942 454.40601,67.2934783 C453.423502,66.1454783 451.850067,65.436 450.378679,65.436 C446.83311,65.436 444.192919,68.1515072 444.192919,71.9615362 C444.192919,75.7406667 446.83311,78.4835072 450.378679,78.4835072 C451.876172,78.4835072 453.370105,77.8191884 454.40601,76.6545507 C454.610105,76.4014203 454.967273,76.2481159 455.298335,76.2481159 C455.954526,76.2481159 456.460019,76.8078551 456.460019,77.4163188 C456.460019,77.7253043 456.355598,77.9974493 456.153876,78.2018551 C454.83912,79.6231884 453.017684,80.7153333 450.378679,80.7153333 C445.46733,80.7153333 441.588325,77.1667536 441.588325,71.9615362 C441.588325,66.7575072 445.46733,63.2017971 450.378679,63.2017971 C453.017684,63.2017971 454.862852,64.2689855 456.153876,65.7117101" id="Fill-15" fill-opacity="0.351902174" fill="#FFFFFF" sketch:type="MSShapeGroup"></path>
                <path d="M467.29489,80.7153333 C462.249455,80.7153333 458.775081,76.9849275 458.775081,71.9615362 C458.775081,66.9345797 462.249455,63.2017971 467.29489,63.2017971 C472.309474,63.2017971 475.806392,66.9345797 475.806392,71.9615362 C475.806392,76.9849275 472.309474,80.7153333 467.29489,80.7153333 M467.29489,65.436 C463.669818,65.436 461.389167,68.2037971 461.389167,71.9615362 C461.389167,75.6955072 463.669818,78.4835072 467.29489,78.4835072 C470.88911,78.4835072 473.223158,75.6955072 473.223158,71.9615362 C473.223158,68.2037971 470.88911,65.436 467.29489,65.436" id="Fill-16" fill-opacity="0.351902174" fill="#FFFFFF" sketch:type="MSShapeGroup"></path>
                <path d="M494.640153,80.562029 C493.928191,80.562029 493.374048,80.0022899 493.374048,79.3213333 L493.374048,67.0391594 L487.99755,80.1591594 C487.900249,80.3849565 487.667675,80.562029 487.341359,80.562029 C487.088612,80.562029 486.835866,80.3849565 486.733818,80.1591594 L481.385799,67.0391594 L481.385799,79.3213333 C481.385799,80.0022899 480.831656,80.562029 480.119694,80.562029 C479.435024,80.562029 478.879694,80.0022899 478.879694,79.3213333 L478.879694,65.1864348 C478.879694,64.2166957 479.688957,63.3824348 480.701129,63.3824348 C481.639732,63.3337101 482.553416,63.7365797 482.910584,64.6266957 L487.369837,75.5386377 L491.85401,64.6266957 C492.153033,63.8613623 492.917206,63.3824348 493.725282,63.3824348 C494.866794,63.3337101 495.909818,64.0633913 495.909818,65.1864348 L495.909818,79.3213333 C495.909818,80.0022899 495.350928,80.562029 494.640153,80.562029" id="Fill-17" fill-opacity="0.351902174" fill="#FFFFFF" sketch:type="MSShapeGroup"></path>
            </g>
        </g>
    </g>
</svg>