<?xml version="1.0" encoding="UTF-8" standalone="no"?>
<svg width="278px" height="116px" viewBox="0 0 278 116" version="1.1" xmlns="http://www.w3.org/2000/svg" xmlns:xlink="http://www.w3.org/1999/xlink" xmlns:sketch="http://www.bohemiancoding.com/sketch/ns">
    <!-- Generator: Sketch 3.2.1 (9977) - http://www.bohemiancoding.com/sketch -->
    <title>brand</title>
    <desc>Created with Sketch.</desc>
    <defs>
        <path id="path-1" d="M0.0851020408,-0.0766666667 L277.609949,-0.0766666667 L277.609949,115 L0.0851020408,115 L0.0851020408,-0.0766666667 Z"></path>
    </defs>
    <g id="Page-1" stroke="none" stroke-width="1" fill="none" fill-rule="evenodd" sketch:type="MSPage">
        <g id="Desktop-HD" sketch:type="MSArtboardGroup" transform="translate(-582.000000, -240.000000)">
            <g id="brand" sketch:type="MSLayerGroup" transform="translate(582.000000, 240.000000)">
                <g id="Group-3" transform="translate(0.000000, 1.000000)">
                    <mask id="mask-2" sketch:name="Clip 2" fill="white">
                        <use xlink:href="#path-1"></use>
                    </mask>
                    <g id="Clip-2"></g>
                    <path d="M52.5292347,57.6575926 L52.5292347,57.4091358 C52.5292347,44.7307407 43.9608776,36.4024691 33.777,36.4024691 C23.5959592,36.4024691 14.6545714,44.8528395 14.6545714,57.4091358 L14.6545714,57.6575926 C14.6545714,70.3345679 23.5959592,78.665679 33.777,78.665679 C44.0856939,78.665679 52.5292347,70.5844444 52.5292347,57.6575926 L52.5292347,57.6575926 Z M0,24.7164815 L15.027602,24.7164815 L15.027602,35.6542593 C19.8699082,28.8195679 26.6993469,23.3464198 37.2548367,23.3464198 C52.7760306,23.3464198 67.805051,35.6542593 67.805051,57.4091358 L67.805051,57.6575926 C67.805051,79.4124691 52.9022653,91.7160494 37.2548367,91.7160494 C26.4497143,91.7160494 19.6216939,86.2471605 15.027602,80.1564198 L15.027602,114.906296 L0,114.906296 L0,24.7164815 L0,24.7164815 Z" id="Fill-1" fill="#FFFFFF" sketch:type="MSShapeGroup" mask="url(#mask-2)"></path>
                </g>
                <path d="M65.5966531,67.481358 L65.5966531,25.7164815 L80.6256735,25.7164815 L80.6256735,63.0062963 C80.6256735,73.1987037 85.7161939,79.0452469 94.6561633,79.0452469 C103.349337,79.0452469 109.435551,72.9516667 109.435551,62.7578395 L109.435551,25.7164815 L124.460316,25.7164815 L124.460316,91.3488272 L109.435551,91.3488272 L109.435551,81.1564198 C105.213071,87.3720988 99.1282755,92.7160494 88.944398,92.7160494 C74.1678469,92.7160494 65.5966531,82.7720988 65.5966531,67.481358" id="Fill-4" fill="#FFFFFF" sketch:type="MSShapeGroup"></path>
                <path d="M198.974245,52.5654321 C191.27251,50.0808642 184.196276,48.0903704 184.196276,43.3668519 L184.196276,43.1155556 C184.196276,39.2666049 187.549296,36.5279012 193.385878,36.5279012 C198.849429,36.5279012 205.556888,38.8917901 211.889898,42.7435802 L217.851296,32.0542593 C210.895622,27.4528395 201.954235,24.597716 193.758908,24.597716 C180.71702,24.597716 170.411163,32.1791975 170.411163,44.6105556 L170.411163,44.8604321 C170.411163,57.4153086 181.216286,61.3934568 190.903735,64.123642 C198.601214,66.4861111 205.556888,68.2281481 205.556888,73.323642 L205.556888,73.5735185 C205.556888,77.9264815 201.829418,80.6580864 195.37301,80.6580864 C193.672388,80.6580864 191.90652,80.4791975 190.103776,80.1299383 L190.103776,92.2588889 C191.753337,92.4562346 193.394388,92.5939506 194.998561,92.5939506 C208.661694,92.5939506 219.340582,85.7564198 219.340582,71.955 L219.340582,71.7093827 C219.340582,59.9012963 208.535459,55.5497531 198.974245,52.5654321" id="Fill-5" fill="#FFFFFF" sketch:type="MSShapeGroup"></path>
                <path d="M262.71,53.9326543 C261.718561,44.2371605 256.003959,36.6542593 246.069714,36.6542593 C236.880112,36.6542593 230.420867,43.7430864 229.05498,53.9326543 L262.71,53.9326543 L262.71,53.9326543 Z M214.153612,58.7796914 L214.153612,58.5298148 C214.153612,39.7649383 227.440878,24.3464198 246.191694,24.3464198 C267.055878,24.3464198 277.609949,40.7587654 277.609949,59.6514198 C277.609949,61.0172222 277.486551,62.387284 277.364571,63.8766049 L229.179796,63.8766049 C230.793898,74.5687654 238.370816,80.5331481 248.056847,80.5331481 C255.385551,80.5331481 260.596633,77.8001235 265.814806,72.7032099 L274.629959,80.5331481 C268.421765,87.9925309 259.854827,92.8409877 247.805796,92.8409877 C228.806765,92.8409877 214.153612,79.0452469 214.153612,58.7796914 L214.153612,58.7796914 Z" id="Fill-6" fill="#FFFFFF" sketch:type="MSShapeGroup"></path>
                <path d="M129.90401,91.4325926 L144.798286,91.4325926 L144.798286,0.923333333 L129.90401,0.923333333 L129.90401,91.4325926 Z" id="Fill-7" fill="#FFFFFF" sketch:type="MSShapeGroup"></path>
                <path d="M149.820724,91.4325926 L165.424184,91.4325926 L165.424184,58.2458642 L149.820724,58.2458642 L149.820724,91.4325926 Z" id="Fill-9" fill="#FFFFFF" sketch:type="MSShapeGroup"></path>
                <path d="M170.446622,91.4325926 L185.342316,91.4325926 L185.342316,70.6417284 L170.446622,70.6417284 L170.446622,91.4325926 Z" id="Fill-11" fill="#FFFFFF" sketch:type="MSShapeGroup"></path>
            </g>
        </g>
    </g>
</svg>