<?xml version="1.0" encoding="utf-8"?>
<!-- Generator: Adobe Illustrator 18.1.0, SVG Export Plug-In . SVG Version: 6.00 Build 0)  -->
<!DOCTYPE svg PUBLIC "-//W3C//DTD SVG 1.1//EN" "http://www.w3.org/Graphics/SVG/1.1/DTD/svg11.dtd">
<svg version="1.1" id="Layer_1" xmlns="http://www.w3.org/2000/svg" xmlns:xlink="http://www.w3.org/1999/xlink" x="0px" y="0px"
	 viewBox="0 0 147 366.5" enable-background="new 0 0 147 366.5" xml:space="preserve">
<g>
	<g>
		<g>
			<path fill="#332D2B" d="M30.4,247.8c-0.6-0.7-0.9-1.7-0.9-2.7l0,0v-11.8c0-2.3-1.4-3.9-3.1-3.9l0,0h-0.6v15.3
				c0,0.6,0.1,1,0.4,1.3l0,0l1.7,1.6c0,0.1,0.4,0.2,0.4,0.7l0,0c0,0.3-0.2,0.7-0.7,0.7l0,0h-8.6c-0.4,0-0.7-0.4-0.7-0.7l0,0
				c0.1-0.5,0.4-0.6,0.5-0.7l0,0l1.6-1.6c0.3-0.3,0.4-0.7,0.4-1.3l0,0v-33.3c0-0.6-0.1-1-0.4-1.3l0,0l-1.7-1.6
				c0-0.1-0.4-0.2-0.4-0.7l0,0c0-0.3,0.2-0.7,0.7-0.7l0,0H26c2.9,0,5.2,0.8,6.7,2.5l0,0c1.5,1.7,2.3,4.4,2.3,8l0,0
				c0,5.7-1.9,8.4-3.8,9.8l0,0c1.8,1.1,3.2,3.3,3.2,6.2l0,0V245c0,0.3,0.1,0.5,0.4,0.8l0,0l1.8,1.9c0.2,0.2,0.5,0.4,0.5,0.8l0,0
				c0,0.3-0.3,0.5-0.4,0.5l0,0c-0.2,0-0.3,0-0.4,0l0,0h-2.9c0,0,0,0,0,0l0,0C32.1,248.9,31.1,248.5,30.4,247.8L30.4,247.8z
				 M36.6,248.3C36.6,248.3,36.6,248.3,36.6,248.3L36.6,248.3L36.6,248.3L36.6,248.3z M26.4,226c1.3,0,2-0.4,2.6-1.7l0,0
				c0.6-1.3,0.9-3.4,0.9-6.7l0,0c-0.1-5.6-1-7.1-3.5-7.1l0,0h-0.5V226H26.4L26.4,226z"/>
		</g>
		<g>
			<path fill="#332D2B" d="M49.7,248.9h-8.5c-0.2,0-0.4-0.1-0.5-0.2l0,0c-0.1-0.2-0.1-0.3-0.1-0.4l0,0c0.1-0.4,0.4-0.6,0.5-0.7l0,0
				l1.6-1.6c0.3-0.3,0.3-0.7,0.3-1.3l0,0v-34.3h-1.5c-0.1,0-0.2,0.1-0.3,0.4l0,0l-2.7,10.9c-0.1,0.4-0.4,0.6-0.8,0.6l0,0
				c-0.2,0-0.4-0.1-0.5-0.2l0,0c-0.1-0.2-0.1-0.3-0.1-0.5l0,0v-13.9c0-0.3,0.3-0.5,0.6-0.5l0,0h15.7c0.3,0,0.2,0.2,0.2,0.5l0,0v13.9
				c0,0.2,0,0.3-0.1,0.5l0,0c-0.1,0.2-0.3,0.2-0.5,0.2l0,0c-0.3,0-0.7-0.2-0.8-0.6l0,0l-2.7-10.9c-0.1-0.3-0.2-0.4-0.3-0.4l0,0h-1.5
				v34.3c0,0.7,0.1,1,0.3,1.3l0,0l1.7,1.6c0.1,0.2,0.4,0.3,0.5,0.7l0,0c0,0.1,0,0.3-0.1,0.4l0,0C50.1,248.9,49.9,248.9,49.7,248.9
				L49.7,248.9C49.7,248.9,49.7,248.9,49.7,248.9L49.7,248.9z"/>
		</g>
		<g>
			<path fill="#332D2B" d="M65.2,248.9c-0.4,0-0.7-0.4-0.7-0.7l0,0c0.1-0.5,0.4-0.6,0.5-0.7l0,0l1.3-1.6c0.3-0.3,0.4-0.7,0.4-1.3
				l0,0v-15.2h-5v15.2c0,0.6,0.1,1,0.4,1.3l0,0l1.3,1.6c0,0.1,0.4,0.2,0.4,0.7l0,0c0,0.3-0.2,0.7-0.7,0.7l0,0H55
				c-0.4,0-0.7-0.4-0.7-0.7l0,0c0.1-0.5,0.4-0.6,0.5-0.7l0,0l1.6-1.6c0.3-0.3,0.4-0.7,0.4-1.3l0,0v-33.3c0-0.6-0.1-1-0.4-1.3l0,0
				l-1.7-1.6c0-0.1-0.4-0.2-0.4-0.7l0,0c0-0.3,0.2-0.7,0.7-0.7l0,0h8.3c0.4,0,0.7,0.4,0.7,0.7l0,0c-0.1,0.5-0.4,0.6-0.5,0.7l0,0
				l-1.3,1.6c-0.3,0.3-0.4,0.7-0.4,1.3l0,0v14.5h5v-14.5c0-0.6-0.1-1-0.4-1.3l0,0l-1.3-1.6c0-0.1-0.4-0.2-0.4-0.7l0,0
				c0-0.3,0.2-0.7,0.7-0.7l0,0h8.3c0.4,0,0.7,0.4,0.7,0.7l0,0c-0.1,0.5-0.4,0.6-0.5,0.7l0,0L72,210c-0.3,0.3-0.4,0.7-0.4,1.3l0,0
				v33.3c0,0.6,0.1,1,0.4,1.3l0,0l1.7,1.6c0,0.1,0.4,0.2,0.4,0.7l0,0c0,0.3-0.2,0.7-0.7,0.7l0,0H65.2L65.2,248.9z M73.5,207.7
				C73.5,207.7,73.5,207.7,73.5,207.7L73.5,207.7L73.5,207.7L73.5,207.7z"/>
		</g>
		<g>
			<path fill="#332D2B" d="M100.2,248.9h-7.3c-0.4,0-0.7-0.4-0.7-0.7l0,0c0.1-0.5,0.4-0.5,0.4-0.6l0,0l0,0l1.7-1.6
				c0.3-0.3,0.4-0.7,0.4-1.3l0,0v-33.3c0-0.6-0.1-1-0.4-1.3l0,0l-1.7-1.6c0-0.1-0.4-0.2-0.4-0.7l0,0c0-0.3,0.2-0.7,0.7-0.7l0,0h7.3
				c2.9,0,5.2,1.4,6.8,4.6l0,0c1.6,3.2,2.4,8.1,2.4,15.3l0,0c0,9-0.8,14.4-2.4,17.7l0,0C105.4,247.9,103,248.9,100.2,248.9
				L100.2,248.9C100.2,248.9,100.2,248.9,100.2,248.9L100.2,248.9z M100.3,245.5c0.9,0,1.8-0.3,2.6-2.9l0,0
				c0.8-2.6,1.3-7.3,1.3-15.7l0,0c0-7.3-0.5-11.5-1.3-13.8l0,0c-0.8-2.3-1.6-2.6-2.6-2.7l0,0h-0.7v35.1H100.3L100.3,245.5z"/>
		</g>
		<g>
			<path fill="#332D2B" d="M113.7,241.9c-1-4.2-1.2-9.7-1.2-15l0,0c0-4,0.2-9,1.2-13l0,0c1-4,2.9-7.1,6.4-7.1l0,0
				c3.6,0,5.5,3.2,6.5,7.1l0,0c1,4,1.2,9,1.2,13l0,0c0,5.3-0.2,10.8-1.2,15l0,0c-1,4.2-2.9,7.3-6.5,7.3l0,0
				C116.6,249.2,114.7,246.1,113.7,241.9L113.7,241.9z M121.9,241.9c0.5-2.9,0.8-7.7,0.8-14.9l0,0c0-6.2-0.3-10.4-0.8-13.1l0,0
				c-0.5-2.7-1.3-3.7-1.7-3.6l0,0c-0.4-0.1-1.2,0.9-1.7,3.6l0,0c-0.5,2.7-0.8,6.9-0.8,13.1l0,0c0,7.2,0.3,12,0.8,14.9l0,0
				c0.5,3,1.3,3.9,1.7,3.9l0,0C120.6,245.9,121.4,244.9,121.9,241.9L121.9,241.9z"/>
		</g>
		<g>
			<path fill="#332D2B" d="M76.8,241.9c-1-4.2-1.2-9.7-1.2-15l0,0c0-4,0.2-9,1.2-13l0,0c1-4,2.9-7.1,6.4-7.1l0,0
				c3.6,0,5.5,3.2,6.5,7.1l0,0c1,4,1.2,9,1.2,13l0,0c0,5.3-0.2,10.8-1.2,15l0,0c-1,4.2-2.9,7.3-6.5,7.3l0,0
				C79.8,249.2,77.8,246.1,76.8,241.9L76.8,241.9z M85,241.9c0.5-2.9,0.8-7.7,0.8-14.9l0,0c0-6.2-0.3-10.4-0.8-13.1l0,0
				c-0.5-2.7-1.3-3.7-1.7-3.6l0,0c-0.4-0.1-1.2,0.9-1.7,3.6l0,0c-0.5,2.7-0.8,6.9-0.8,13.1l0,0c0,7.2,0.3,12,0.8,14.9l0,0
				c0.5,3,1.3,3.9,1.7,3.9l0,0C83.7,245.9,84.5,244.9,85,241.9L85,241.9z"/>
		</g>
		<g>
			<path fill="#332D2B" d="M2.7,241.9c-1-4.2-1.2-9.7-1.2-15l0,0c0-4,0.2-9,1.2-13l0,0c1-4,2.9-7.1,6.4-7.1l0,0
				c3.6,0,5.5,3.2,6.5,7.1l0,0c1,4,1.2,9,1.2,13l0,0c0,5.3-0.2,10.8-1.2,15l0,0c-1,4.2-2.9,7.3-6.5,7.3l0,0
				C5.7,249.2,3.7,246.1,2.7,241.9L2.7,241.9z M10.9,241.9c0.5-2.9,0.8-7.7,0.8-14.9l0,0c0-6.2-0.3-10.4-0.8-13.1l0,0
				c-0.5-2.7-1.3-3.7-1.7-3.6l0,0c-0.4-0.1-1.2,0.9-1.7,3.6l0,0c-0.5,2.7-0.8,6.9-0.8,13.1l0,0c0,7.2,0.3,12,0.8,14.9l0,0
				c0.5,3,1.3,3.9,1.7,3.9l0,0C9.6,245.9,10.4,244.9,10.9,241.9L10.9,241.9z"/>
		</g>
		<g>
			<path fill="#332D2B" d="M129.6,211.4c-0.1-0.4-0.4-0.8-0.6-1.1l0,0l-1.8-1.9c-0.1-0.2-0.4-0.4-0.4-0.8l0,0c0-0.2,0.1-0.4,0.3-0.5
				l0,0c0.2-0.1,0.3-0.1,0.5-0.1l0,0h8.3c0.2,0,0.7,0.1,0.7,0.5l0,0c0,0.3-0.2,0.6-0.4,0.8l0,0l-1.4,1.5c-0.3,0.3-0.5,0.6-0.5,0.8
				l0,0c0,0,0,0.1,0,0.1l0,0l2.5,9.4l2.8-9.4c0,0,0-0.1,0-0.1l0,0c0-0.2-0.2-0.5-0.6-0.8l0,0l-1.4-1.4c-0.3-0.2-0.5-0.5-0.5-0.8l0,0
				c0.1-0.6,0.6-0.5,0.8-0.5l0,0h7.6c0.2,0,0.7,0,0.8,0.5l0,0c0,0.4-0.2,0.6-0.4,0.8l0,0l-1.9,1.9c-0.2,0.2-0.4,0.7-0.5,1.1l0,0
				l-4.8,15.9l4.5,16.6c0.1,0.5,0.5,1.1,0.7,1.4l0,0l1.9,2c0.3,0.3,0.6,0.6,0.6,1.1l0,0c-0.1,0.5-0.5,0.5-0.8,0.5l0,0h-8.4l0,0
				c-0.3,0-0.7-0.2-0.7-0.6l0,0c0-0.4,0.3-0.7,0.6-1l0,0l1.3-1.8c0.1-0.1,0.1-0.3,0.1-0.5l0,0c0-0.1,0-0.2,0-0.3l0,0l-2.4-8.9
				l-2.4,8.7c-0.1,0.2-0.1,0.3-0.1,0.5l0,0c0,0.2,0.1,0.4,0.2,0.5l0,0l1.4,1.8c0.3,0.3,0.6,0.6,0.6,1l0,0c0,0.4-0.4,0.6-0.7,0.6l0,0
				h-7.8c-0.2,0-0.3,0-0.5-0.1l0,0c-0.2-0.1-0.3-0.3-0.3-0.5l0,0c0-0.4,0.3-0.7,0.6-1.1l0,0l1.8-1.9c0.3-0.4,0.7-0.9,0.8-1.5l0,0
				l4.4-15.2L129.6,211.4"/>
		</g>
		<g>
			<path fill="#332D2B" d="M28.4,297.2c-0.4,0-0.7-0.4-0.7-0.7l0,0c0.1-0.5,0.4-0.6,0.5-0.7l0,0l1.3-1.6c0.3-0.3,0.4-0.7,0.4-1.3
				l0,0v-15.2h-5v15.2c0,0.6,0.1,1,0.4,1.3l0,0l1.3,1.6c0,0.1,0.4,0.2,0.4,0.7l0,0c0,0.3-0.2,0.7-0.7,0.7l0,0h-8.3
				c-0.4,0-0.7-0.4-0.7-0.7l0,0c0.1-0.5,0.4-0.6,0.5-0.7l0,0l1.6-1.6c0.3-0.3,0.4-0.7,0.4-1.3l0,0v-33.3c0-0.6-0.1-1-0.4-1.3l0,0
				l-1.7-1.6c0-0.1-0.4-0.2-0.4-0.7l0,0c0-0.3,0.2-0.7,0.7-0.7l0,0h8.3c0.4,0,0.7,0.4,0.7,0.7l0,0c-0.1,0.5-0.4,0.6-0.5,0.7l0,0
				l-1.3,1.6c-0.3,0.3-0.4,0.7-0.4,1.3l0,0v14.5h5v-14.5c0-0.6-0.1-1-0.4-1.3l0,0l-1.3-1.6c0-0.1-0.4-0.2-0.4-0.7l0,0
				c0-0.3,0.2-0.7,0.7-0.7l0,0h8.3c0.4,0,0.7,0.4,0.7,0.7l0,0c-0.1,0.5-0.4,0.6-0.5,0.7l0,0l-1.6,1.6c-0.3,0.3-0.4,0.7-0.4,1.3l0,0
				v33.3c0,0.6,0.1,1,0.4,1.3l0,0l1.7,1.6c0,0.1,0.4,0.2,0.4,0.7l0,0c0,0.3-0.2,0.7-0.7,0.7l0,0H28.4L28.4,297.2z M18.2,255.9
				L18.2,255.9L18.2,255.9L18.2,255.9z"/>
		</g>
		<g>
			<path fill="#332D2B" d="M42.6,295.4c-1.2-1.1-1.8-2.7-1.8-4.5l0,0v-31.3c0-0.6-0.1-1.1-0.3-1.3l0,0l-1.7-1.6
				c-0.2-0.2-0.4-0.4-0.4-0.7l0,0c0-0.3,0.2-0.7,0.7-0.7l0,0h8c0.4,0,0.7,0.4,0.7,0.7l0,0c0,0.3-0.2,0.5-0.3,0.7l0,0l-1.3,1.6
				c-0.2,0.2-0.4,0.7-0.4,1.3l0,0v29.9c0,1.2,0.1,2.3,0.4,3.1l0,0c0.4,0.8,0.9,1.2,2.1,1.2l0,0c0.9,0,1.4-0.4,1.8-1.2l0,0
				c0.4-0.8,0.5-1.9,0.5-3.1l0,0v-29.9c0-0.6-0.1-1.1-0.4-1.3l0,0l-1.3-1.6c-0.2-0.2-0.4-0.4-0.4-0.7l0,0c0-0.3,0.3-0.7,0.7-0.7l0,0
				h7.2c0.4,0,0.7,0.4,0.7,0.7l0,0c0,0.3-0.2,0.5-0.4,0.7l0,0l-1.7,1.6c-0.2,0.2-0.4,0.7-0.4,1.3l0,0v31.3c0,3.6-2.8,6.3-6.7,6.3
				l0,0C45.5,297.2,43.8,296.5,42.6,295.4L42.6,295.4z"/>
		</g>
		<g>
			<path fill="#332D2B" d="M70,296c-0.6-0.7-0.9-1.7-0.9-2.7l0,0v-11.8c0-2.3-1.4-3.9-3.1-3.9l0,0l-0.6,0v15.3c0,0.6,0.1,1,0.4,1.3
				l0,0l1.3,1.6c0,0.1,0.4,0.2,0.4,0.7l0,0c0,0.3-0.2,0.7-0.7,0.7l0,0h-8.3c-0.4,0-0.7-0.4-0.7-0.7l0,0c0.1-0.5,0.4-0.6,0.5-0.7l0,0
				l1.6-1.6c0.3-0.3,0.4-0.7,0.4-1.3l0,0v-33.3c0-0.6-0.1-1-0.4-1.3l0,0l-1.7-1.6c0-0.1-0.4-0.2-0.4-0.7l0,0c0-0.3,0.2-0.7,0.7-0.7
				l0,0h6.9c2.9,0,5.2,0.8,6.7,2.5l0,0c1.5,1.7,2.3,4.4,2.3,8l0,0c0,5.7-1.9,8.4-3.8,9.8l0,0c1.8,1.1,3.2,3.3,3.2,6.2l0,0v11.5
				c0,0.3,0.2,0.5,0.4,0.8l0,0l1.8,1.9c0.2,0.2,0.5,0.4,0.5,0.8l0,0c0,0.3-0.3,0.5-0.4,0.5l0,0c-0.2,0-0.3,0-0.4,0l0,0h-2.9
				c0,0,0,0,0,0l0,0C71.6,297.2,70.6,296.7,70,296L70,296z M76.1,296.5C76.1,296.5,76.1,296.5,76.1,296.5L76.1,296.5L76.1,296.5
				L76.1,296.5z M65.9,274.2c1.3,0,2-0.4,2.6-1.7l0,0c0.6-1.3,0.9-3.4,0.9-6.7l0,0c-0.1-5.6-1-7.1-3.5-7.1l0,0l-0.5,0v15.5H65.9
				L65.9,274.2z"/>
		</g>
		<g>
			<path fill="#332D2B" d="M85.4,297.5c-3.5,0-5.3-3.4-6.3-7.8l0,0c-1-4.4-1.2-9.9-1.2-14.6l0,0c0-3.4,0.1-8.4,1-12.5l0,0
				c0.9-4.1,2.8-7.6,6.5-7.6l0,0c1,0,2,0.6,2.8,1.2l0,0c0.2,0.2,0.6,0.3,0.9,0.3l0,0c0.2,0,0.6-0.1,0.6-0.2l0,0
				c0.4-0.4,0.7-0.9,1.3-1l0,0c0.3,0,0.6,0.3,0.6,0.5l0,0c0.1,0.2,0.1,0.5,0.1,0.8l0,0v12.9c0,0.5-0.4,0.8-0.8,0.8l0,0
				c-0.6,0-0.9-0.5-0.9-0.9l0,0c-0.3-2.3-0.8-5.1-1.5-7.4l0,0c-0.7-2.2-1.7-3.7-2.9-3.7l0,0c-0.9,0-1.6,1-2,3.8l0,0
				c-0.4,2.8-0.5,7-0.5,12.9l0,0c0,8.3,0.3,13.1,0.9,15.8l0,0c0.6,2.7,1.4,3,2.5,3.1l0,0c1.1,0.1,2.2-2.2,2.8-4.8l0,0
				c0.6-2.6,0.8-5.2,0.9-5.6l0,0c0.1-0.6,0.6-0.8,1-0.8l0,0c0.4,0,0.9,0.4,0.9,0.9l0,0c0,4.1-0.4,7.5-1.4,10l0,0
				C89.7,296,88,297.5,85.4,297.5L85.4,297.5C85.5,297.5,85.4,297.5,85.4,297.5L85.4,297.5z"/>
		</g>
		<g>
			<path fill="#332D2B" d="M9,297.5c-3.5,0-5.3-3.4-6.3-7.8l0,0c-1-4.4-1.2-9.9-1.2-14.6l0,0c0-3.4,0.1-8.4,1-12.5l0,0
				c0.9-4.1,2.8-7.6,6.5-7.6l0,0c1,0,2,0.6,2.8,1.2l0,0c0.2,0.2,0.6,0.3,0.9,0.3l0,0c0.2,0,0.6-0.1,0.6-0.2l0,0
				c0.4-0.4,0.7-0.9,1.3-1l0,0c0.3,0,0.6,0.3,0.6,0.5l0,0c0.1,0.2,0.1,0.5,0.1,0.8l0,0v12.9c0,0.5-0.4,0.8-0.8,0.8l0,0
				c-0.6,0-0.9-0.5-0.9-0.9l0,0c-0.3-2.3-0.8-5.1-1.5-7.4l0,0c-0.7-2.2-1.7-3.7-2.8-3.7l0,0c-0.9,0-1.6,1-2,3.8l0,0
				c-0.4,2.8-0.5,7-0.5,12.9l0,0c0,8.3,0.3,13.1,0.9,15.8l0,0c0.6,2.7,1.4,3,2.5,3.1l0,0c1.1,0.1,2.2-2.2,2.8-4.8l0,0
				c0.6-2.6,0.8-5.2,0.9-5.6l0,0c0.1-0.6,0.6-0.8,1-0.8l0,0c0.4,0,0.9,0.4,0.9,0.9l0,0c0,4.1-0.4,7.5-1.4,10l0,0
				C13.3,296,11.6,297.5,9,297.5L9,297.5C9,297.5,9,297.5,9,297.5L9,297.5z"/>
		</g>
		<g>
			<path fill="#332D2B" d="M104.8,297.2c-0.4,0-0.7-0.4-0.7-0.7l0,0c0.1-0.5,0.4-0.6,0.5-0.7l0,0l1.3-1.6c0.3-0.3,0.4-0.7,0.4-1.3
				l0,0v-15.2h-5v15.2c0,0.6,0.1,1,0.4,1.3l0,0l1.3,1.6c0,0.1,0.4,0.2,0.4,0.7l0,0c0,0.3-0.2,0.7-0.7,0.7l0,0h-8.3
				c-0.4,0-0.7-0.4-0.7-0.7l0,0c0.1-0.5,0.4-0.6,0.5-0.7l0,0l1.6-1.6c0.3-0.3,0.4-0.7,0.4-1.3l0,0v-33.3c0-0.6-0.1-1-0.4-1.3l0,0
				l-1.7-1.6c0-0.1-0.4-0.2-0.4-0.7l0,0c0-0.3,0.2-0.7,0.7-0.7l0,0h8.3c0.4,0,0.7,0.4,0.7,0.7l0,0c-0.1,0.5-0.4,0.6-0.5,0.7l0,0
				l-1.3,1.6c-0.3,0.3-0.4,0.7-0.4,1.3l0,0v14.5h5v-14.5c0-0.6-0.1-1-0.4-1.3l0,0l-1.3-1.6c0-0.1-0.4-0.2-0.4-0.7l0,0
				c0-0.3,0.2-0.7,0.7-0.7l0,0h8.3c0.4,0,0.7,0.4,0.7,0.7l0,0c-0.1,0.5-0.4,0.6-0.5,0.7l0,0l-1.6,1.6c-0.3,0.3-0.4,0.7-0.4,1.3l0,0
				v33.3c0,0.6,0.1,1,0.4,1.3l0,0l1.7,1.6c0,0.1,0.4,0.2,0.4,0.7l0,0c0,0.3-0.2,0.7-0.7,0.7l0,0H104.8L104.8,297.2z M94.6,255.9
				L94.6,255.9L94.6,255.9L94.6,255.9z"/>
		</g>
		<g>
			<path fill="#332D2B" d="M119.7,297.2c-0.2,0-0.6-0.1-0.7-0.5l0,0c0-0.3,0.2-0.5,0.3-0.6l0,0l1.7-1.9c0,0,0,0,0-0.3l0,0V269
				c0-0.2,0-0.1-0.1-0.2l0,0l-1.7-1.6c-0.1-0.2-0.2-0.3-0.3-0.6l0,0c0-0.5,0.5-0.5,0.7-0.5l0,0h5.3c0.2,0,0.3,0.1,0.4,0.2l0,0
				c0.1,0.1,0.2,0.3,0.2,0.5l0,0v27.2c0,0.1,0,0.2,0,0.2l0,0c0,0,0,0,0,0l0,0l1.7,1.9c0.1,0.2,0.3,0.3,0.3,0.6l0,0
				c0,0.1-0.1,0.4-0.2,0.4l0,0c-0.1,0.1-0.3,0.1-0.4,0.1l0,0H119.7L119.7,297.2z M120.9,259.9c0-1.4,1-2.7,2.4-2.8l0,0
				c1.4,0,2.3,1.4,2.3,2.8l0,0c0,1.3-0.9,2.7-2.3,2.8l0,0C121.9,262.6,120.9,261.2,120.9,259.9L120.9,259.9z"/>
		</g>
		<g>
			<path fill="#332D2B" d="M138.4,297.2c-0.1,0-0.3,0-0.4-0.1l0,0c-0.2-0.1-0.2-0.3-0.2-0.4l0,0c0-0.3,0.2-0.5,0.3-0.6l0,0l1.4-2
				c0,0,0,0,0-0.3l0,0v-22c0-2.1-0.5-2.9-1.5-2.9l0,0c-0.5,0-1.1,0.4-1.6,1.1l0,0c-0.5,0.8-0.8,1.9-0.8,3.3l0,0v20.4
				c0,0.2,0,0.3,0,0.3l0,0l1.3,1.9c0.2,0.2,0.3,0.3,0.4,0.6l0,0c0,0.5-0.5,0.5-0.7,0.5l0,0h-6.9c-0.1,0-0.3,0-0.4-0.1l0,0
				c-0.2-0.1-0.2-0.3-0.2-0.4l0,0c0-0.2,0.1-0.4,0.3-0.6l0,0l1.7-1.9c0,0,0,0,0-0.3l0,0V269c0-0.2,0-0.1-0.1-0.2l0,0l-1.7-1.6
				c-0.1-0.2-0.2-0.3-0.3-0.6l0,0c0-0.5,0.5-0.5,0.7-0.5l0,0h5.3c0.2,0,0.4,0,0.5,0.2l0,0c0.1,0.2,0.1,0.3,0.1,0.4l0,0v0.9
				c0.9-0.9,1.9-1.6,3.6-1.6l0,0c1.4,0,2.7,0.5,3.6,1.5l0,0c0.9,1,1.3,2.5,1.3,4.4l0,0v21.9c0,0.1,0,0.2,0,0.2l0,0c0,0,0,0,0,0l0,0
				l1.7,1.9c0.1,0.2,0.3,0.3,0.3,0.6l0,0c0,0.5-0.5,0.5-0.7,0.5l0,0H138.4L138.4,297.2z"/>
		</g>
		<path fill="#332D2B" d="M13.9,341.2c-0.1-0.3-0.3-0.6-0.6-0.6H7.5c-0.2,0-0.3,0.2-0.4,0.5l-0.9,7.1c-0.1,0.5,0,0.8,0.3,1.2
			l1.4,1.5c0.3,0.3,0.6,0.6,0.6,0.8c0,0.2-0.1,0.4-0.5,0.4H0.4c-0.3,0-0.4-0.2-0.4-0.4c0-0.2,0.3-0.5,0.5-0.6l1.9-1.8
			c0.4-0.4,0.5-1,0.6-1.6l6.6-43.3c0.1-0.3,0.2-0.6,0.5-0.6h2.4c0.3,0,0.5,0.3,0.6,0.7l6.7,43.3c0.1,0.6,0.3,1.4,0.7,1.7L22,351
			c0.2,0.2,0.4,0.4,0.4,0.6c0,0.2-0.1,0.4-0.4,0.4h-9c-0.3,0-0.5-0.2-0.5-0.4c0-0.2,0.2-0.4,0.4-0.6l1.7-1.7
			c0.3-0.3,0.4-0.7,0.3-1.3L13.9,341.2z M12.9,337.2c0.2,0,0.3-0.2,0.2-0.5l-2.6-17.2h-0.1l-2.6,17.2c-0.1,0.3,0.1,0.4,0.2,0.4H12.9
			z"/>
		<path fill="#332D2B" d="M138.2,341.2c-0.1-0.3-0.3-0.6-0.6-0.6h-5.8c-0.2,0-0.3,0.2-0.4,0.5l-0.9,7.1c-0.1,0.5,0,0.8,0.3,1.2
			l1.4,1.5c0.2,0.3,0.6,0.6,0.6,0.8c0,0.2-0.1,0.4-0.5,0.4h-7.7c-0.3,0-0.4-0.2-0.4-0.4c0-0.2,0.3-0.5,0.5-0.6l1.9-1.8
			c0.4-0.4,0.5-1,0.6-1.6l6.6-43.3c0.1-0.3,0.2-0.6,0.5-0.6h2.4c0.3,0,0.5,0.3,0.6,0.7l6.7,43.3c0.1,0.6,0.3,1.4,0.7,1.7l1.5,1.7
			c0.2,0.2,0.4,0.4,0.4,0.6c0,0.2-0.1,0.4-0.4,0.4h-9c-0.3,0-0.5-0.2-0.5-0.4c0-0.2,0.2-0.4,0.4-0.6l1.7-1.7
			c0.3-0.3,0.4-0.7,0.3-1.3L138.2,341.2z M137.2,337.2c0.2,0,0.3-0.2,0.2-0.5l-2.6-17.2h-0.1l-2.6,17.2c-0.1,0.3,0.1,0.4,0.2,0.4
			H137.2z"/>
		<path fill="#332D2B" d="M30.4,303.6c0.6,0,0.8,0.5,0.9,1.1l5.3,30.3h0.1l5.2-30.3c0.1-0.6,0.3-1.1,0.7-1.1h8
			c0.3,0,0.4,0.2,0.4,0.3c0,0.3-0.3,0.4-0.5,0.6l-1.6,1.9c-0.4,0.5-0.5,1-0.5,1.8v39.1c0,0.8,0.1,1.3,0.5,1.8l1.6,1.9
			c0.2,0.2,0.5,0.4,0.5,0.6c0,0.1-0.1,0.3-0.4,0.3h-9c-0.3,0-0.4-0.2-0.4-0.3c0-0.3,0.3-0.5,0.5-0.7l1.4-1.7
			c0.4-0.5,0.5-1.1,0.5-1.9v-31.2h-0.1L37,351.4c-0.1,0.3-0.2,0.5-0.5,0.5h-1.4c-0.2,0-0.3-0.3-0.3-0.6l-6.6-35.3h-0.1v31.2
			c0,0.8,0.1,1.4,0.5,1.9l1.4,1.7c0.2,0.3,0.5,0.5,0.5,0.7c0,0.1-0.1,0.3-0.4,0.3h-7.2c-0.3,0-0.4-0.2-0.4-0.3
			c0-0.3,0.3-0.5,0.5-0.6l1.2-1.9c0.4-0.5,0.6-1,0.6-1.8v-39.1c0-0.8-0.2-1.3-0.6-1.8l-1.6-1.9c-0.1-0.2-0.5-0.4-0.5-0.6
			c0-0.1,0.1-0.3,0.4-0.3H30.4z"/>
		<path fill="#332D2B" d="M60.8,325.7h1.8c0.3,0,0.6-0.1,0.7-0.5l2.3-6c0.1-0.3,0.2-0.4,0.4-0.4c0.2,0,0.3,0.1,0.3,0.4v16.7
			c0,0.2-0.1,0.3-0.3,0.3c-0.3,0-0.3-0.2-0.5-0.5l-2.2-6.2c-0.1-0.3-0.4-0.5-0.7-0.5h-1.8v19.6h3.7c0.8,0,1.5-0.4,1.7-1.2l3.5-12.4
			c0.1-0.3,0.3-0.4,0.5-0.4c0.2,0,0.3,0.2,0.3,0.4v16.2c0,0.3-0.2,0.6-0.5,0.6H53.2c-0.3,0-0.4-0.2-0.4-0.4c0-0.2,0.3-0.3,0.5-0.6
			l1.9-1.9c0.5-0.5,0.6-1,0.6-1.8v-39.1c0-0.8-0.1-1.4-0.6-1.8l-1.9-1.9c-0.1-0.2-0.5-0.4-0.5-0.6c0-0.2,0.1-0.4,0.4-0.4h16.7
			c0.3,0,0.5,0.3,0.5,0.6v16c0,0.3-0.1,0.4-0.3,0.4c-0.3,0-0.5-0.2-0.5-0.5l-3.5-12.1c-0.3-0.8-0.8-1.2-1.7-1.2h-3.7V325.7z"/>
		<path fill="#332D2B" d="M81.1,347.3c0,0.8,0.1,1.4,0.6,1.8l1.9,1.9c0.1,0.2,0.5,0.4,0.5,0.6c0,0.2-0.1,0.4-0.4,0.4H73.5
			c-0.3,0-0.4-0.2-0.4-0.4c0-0.2,0.3-0.4,0.5-0.6l1.9-1.9c0.4-0.5,0.6-1,0.6-1.8v-39.1c0-0.8-0.1-1.4-0.6-1.8l-1.9-1.9
			c-0.1-0.2-0.5-0.4-0.5-0.6c0-0.2,0.1-0.4,0.4-0.4h8.1c6.7,0,10.2,3.5,10.2,11.9c0,7.2-2.5,10.1-4.8,11.5c2.2,1.2,4.1,3.7,4.1,7.2
			v13.5c0,0.5,0.3,0.8,0.6,1.2l1.8,2.2c0.3,0.3,0.5,0.5,0.5,0.7c0,0.2-0.3,0.2-0.6,0.2h-3.1c-3,0-4.1-1.9-4.1-4.1V334
			c0-2.8-1.7-5-4-5h-1.1V347.3z M81.1,325.8h1c3.2,0,4.4-2.5,4.4-10.2c0-6.6-1.3-8.7-4.4-8.7h-1V325.8z"/>
		<path fill="#332D2B" d="M98,308.3c0-0.8-0.1-1.4-0.6-1.8l-1.9-1.9c-0.1-0.2-0.4-0.4-0.4-0.6c0-0.2,0.1-0.4,0.4-0.4h10.1
			c0.3,0,0.4,0.2,0.4,0.4c0,0.2-0.3,0.4-0.5,0.6l-1.9,1.9c-0.5,0.5-0.6,1-0.6,1.8v39.1c0,0.8,0.1,1.4,0.6,1.8l1.9,1.9
			c0.1,0.2,0.5,0.4,0.5,0.6c0,0.2-0.1,0.4-0.4,0.4h-9.8c-0.3,0-0.4-0.2-0.4-0.4c0-0.2,0.3-0.4,0.5-0.6l1.6-1.9
			c0.5-0.5,0.6-1,0.6-1.8V308.3z"/>
		<path fill="#332D2B" d="M124.8,319.9c0,0.3-0.5,0.6-0.8,0.6c-0.3,0-0.8-0.3-0.9-0.7c-0.8-5.5-2.3-13.3-5.6-13.3
			c-2.8,0-3.4,6.2-3.4,20c0,19.6,1.4,22.5,4.3,22.5c3.5,0,4.5-12,4.5-12.6c0-0.3,0.6-0.5,0.9-0.5c0.3,0,0.8,0.2,0.8,0.6
			c0,9.7-1.8,15.8-7.5,15.8c-7.5,0-8.4-14.9-8.4-25.8c0-8,0.3-23.2,8.4-23.2c1,0,2.1,0.6,3.1,1.4c0.4,0.3,0.8,0.4,1.1,0.4
			c0.3,0,0.8-0.3,1.2-0.8c0.4-0.5,1.3-1,1.6-1c0.4,0,0.5,0.5,0.5,1.1V319.9z"/>
	</g>
	<g>
		<path fill="#6092B6" d="M147,359.7c0,0.8,0,4.3,0,5.3c0,1-0.5,1.5-1.6,1.5c-15.3,0-142.9,0-143.9,0c-1.1,0-1.2-0.6-1.2-1.5
			c0-0.9,0-4.7,0-5.3c0-0.7,0.2-1.3,1.3-1.3c1,0,129.6,0,144.1,0C146.5,358.4,147,359,147,359.7z"/>
		<g>
			<path fill="#6092B6" d="M145,196.1c0-0.7-0.1-1.5-0.1-2.1c-0.1-0.5-0.4-1-1-1.1c-0.4,0-0.7,0-1.1,0c-0.5-0.1-0.6-0.2-0.6-1
				c0-0.8-0.1-1.7,0-2.1c0-0.9-0.6-2-1.6-2c-0.7,0-1.5,0-1.9-0.3c-0.5-0.3-0.9-1.3-1.3-2c-0.2-0.3-0.5-0.6-0.7-0.9
				c-0.6-0.7-0.9-1.3-1.4-2c-0.5-0.7-1-1.3-1.5-1.9c-0.3-0.3-1.2-1.4-1.4-1.6c-0.2-0.2-1-1.1-1.2-1.4c-0.6-0.6-1.1-1.5-1.7-2
				c-0.1-0.1-0.9-0.9-1.2-1.2c-0.3-0.3-0.3-0.4-0.7-0.7c-0.9-0.8-1.7-1.5-1.8-2.4c-0.1-1.2,0.1-2.8,0.1-4.1c0-0.4,0-2.2,0-2.6
				c0-1.3,0.1-2.8,0-4c0-1.2,0.1-2.5,0-3.8c0-1.3-0.1-2.9-0.1-4.4c0-1.4,0.2-3.4-0.1-4.5c-0.2-0.7-0.8-1.1-1.5-1.6
				c-0.5-0.3-1-0.7-1.3-0.9c-1-0.7-1.9-1.2-2.8-1.8c-1.9-1.2-3.8-2.4-5.6-3.6c-0.6-0.7-0.6-1.2-0.5-2.2c0-0.9-0.1-1.9-0.1-2.7
				c0-1,0.1-2,0.1-3c0-2.5,0.1-4.7,0-7.3c0.2-0.4,0.8-0.5,1-0.9c0.1-0.3,0.2-1.2,0.2-1.7c0-0.9,0.1-2.5-0.3-2.8
				c-0.5-0.4-1.9-0.1-2.8-0.2c-0.7,0-1.3,0-1.9,0c-0.8-0.1-0.9-0.2-0.9-0.9c-0.1-1.7-0.1-3.5,0-5.2c0-1.2-0.1-2.2,0.2-2.9
				c0-0.3-0.3-0.4-0.3-0.7c0.6-0.7-0.1-2.5-0.7-2.5c-0.3,0-0.3,0.3-0.5,0.6c-0.2,0.3-0.4,0.5-0.4,0.8c-0.1,0.5,0.2,0.8,0.1,1.2
				c-0.4,0.3-1.5,0.3-2.1,0.1c-0.3-0.1-0.4-0.3-0.4-0.6c-0.1-2-0.1-4.3-0.1-6.4c0-0.7,0.1-4.9,0-6.1c-0.1-1.4,0-2.6,0-3.8
				c0-0.4-0.1-0.9,0-1.3c0.2-0.6,0.8-0.3,1.2-0.5c0.5-0.1,0.4-1.1,0.4-1.9c0-0.7-2.1,0-2.7-0.8c-0.4-1-1.1-1.8-1.7-2.6
				c-0.1-0.1-0.1-0.2-0.1-0.3c-0.8-0.9-1.5-1.6-2.4-2.3c-0.5-0.4-0.8-0.7-1.3-0.9c-0.5-0.3-0.7-0.6-1.1-0.9
				c-0.1-0.1-0.5-0.4-0.7-0.5c-0.3-0.2-0.6-0.3-1.2-0.6c-1-0.4-1.5-0.8-2-1c-0.3-0.1-2.4-1-3.1-1.4c-0.3-0.9-0.2-2-0.1-3
				c0.2-0.8,1.4-1.3,2.1-1.8c0.3-0.3,0.7-0.6,1-0.9c0.3-0.3,0.8-0.7,0.9-1c0.9-1.6,0.6-3.5,0.5-4.4c0-0.4-0.2-1.6-0.3-1.8
				c-0.1-0.3,0-0.7-0.1-1.1c-0.1-0.4-0.5-2.6-0.6-3.5c0-0.2-0.2-0.4-0.2-0.7c-0.1-0.6-0.2-1-0.3-1.5c-0.2-0.8-0.2-1.5-0.4-2.2
				c-0.3-1.3-0.4-2.9-0.6-4c-0.1-0.4-0.3-2-0.4-2.4c0-0.3-0.3-1.8-0.4-2.4c0-0.3-0.2-1.8-0.3-2.2c-0.1-0.4-0.1-0.9-0.1-1.3
				c-0.1-0.5-0.6-3.3-0.6-3.6c0-0.3-0.4-1.8-0.4-2.3c0-0.3-1.4-7.8-1.5-9.2c0-0.3-0.3-2.6-0.2-3.9c0-0.3,0.3-0.5,0.4-0.6
				c0.4-0.1,0.6-0.1,0.7-0.5c0-0.4,0-0.5,0-0.9c0-0.3-0.6-0.2-0.7-0.5c0.2-1.2,0.3-1.9-0.1-2.7c-0.2-0.4-0.7-0.7-0.8-1.1
				c0-0.1-0.1-1.6-0.1-2.5c0-0.3,0.3-0.4,0.5-0.3c0.2,0.1,0.4,0.3,0.7,0.4c0.3,0.1,0.5,0.1,0.5-0.7c0-0.3,0-0.7-0.1-0.9
				c-0.2-0.5-1.2-0.7-1.5-1.4c-0.4-0.8-0.2-2.2-0.2-3.2c0-0.6,0-1.1,0-1.7c0-0.4-0.1-0.8,0-1.2c0.1-0.3,0.3-0.4,0.5-0.4
				c0.4,0,0.8,0,1.2,0c0.3,0,0.4,0.1,0.4,0.4c0,0.3,0,0.7,0.1,0.8c0.2,0.1,0.8,0.2,1,0c0.2-0.2,0.2-0.6,0.2-0.9
				c0-0.2,0.2-0.3,0.4-0.3c0.3,0,0.6,0,0.8,0c0.3,0,0.5-0.8,0.4-1.3c-0.1-0.3-0.6-0.2-1-0.2c-0.4,0-0.5-0.1-0.5-0.3
				c0-0.2,0-0.6,0-0.8c0-0.1-0.2-0.3-0.3-0.4c-0.2,0-0.4,0-0.6,0c-0.3,0-0.5,0.1-0.5,0.6c-0.1,0.4-0.1,0.8-0.4,0.8
				c-0.5,0-1.1,0.1-1.5-0.1C87.9,5,87.9,5,87.8,4.8c-0.1-0.3-0.1-0.7,0-1.1c0-0.2,0.1-0.4,0.4-0.5c0.3,0,0.7,0.1,0.9-0.1
				C89.3,3,89.4,2.4,89.3,2c-0.2-0.5-1.1-0.2-1.4-0.5c-0.1-0.2-0.1-0.5-0.1-0.8c0-0.3-0.2-0.5-0.5-0.6c-0.3-0.1-0.5-0.1-0.8,0
				c-0.2,0.1-0.3,0.1-0.3,0.4c-0.1,0.3,0.1,0.7-0.1,1.1c-0.2,0.2-0.5,0.2-0.8,0.2c-0.2,0-0.5,0.1-0.5,0.5c0,0.3,0,0.7,0.1,0.9
				c0.2,0.2,0.5,0.2,0.8,0.2c0.4,0.1,0.5,0,0.5,0.6c0,0.4,0,0.6-0.1,0.9c-0.1,0.4-0.6,0.5-0.7,0.5c-0.4,0-0.7,0-1,0
				c-0.3,0-0.3-0.1-0.3-0.3c0-0.3,0-0.9-0.2-1c-0.2-0.1-0.6-0.1-1,0c-0.3,0-0.2,0.7-0.3,1.1c-0.1,0.2-0.2,0.3-0.4,0.2
				c-0.3,0-0.6,0-0.8,0.1c-0.2,0.2-0.2,1.1,0,1.3c0.2,0.2,0.8,0.1,1.1,0.2c0.3,0.1,0.3,0.2,0.3,0.4c0,0.3,0,0.6,0.2,0.7
				c0.2,0.1,0.8,0.1,1.1,0c0.2-0.1,0.1-0.5,0.1-0.8c0-0.4,0.1-0.3,0.3-0.4c0.3-0.1,0.9-0.1,1.2,0c0.2,0,0.3,0.2,0.3,0.4
				c0.1,0.6,0.1,1.4,0.1,2.2c0,0.9,0.1,2.3-0.4,2.4c-0.3,0-0.5-0.2-0.7-0.3c-0.7-0.4-0.7,0.2-0.7,0.6c0,0.4,0.1,0.8,0.4,1.1
				c0.4,0.3,0.9,0.6,1.1,0.9c0.3,0.5,0.2,1.3,0.3,1.8c0,0.7,0.2,1.6,0,2.3c-0.1,0.5-0.9,0.9-1.1,1.5c-0.3,1,0,1.6,0.1,2.6
				c-0.3,0.2-0.5,0.1-0.7,0.5c-0.1,0.3-0.1,0.7,0,1c0.1,0.1,0.2,0.2,0.4,0.2c0.1,0,0.3,0.1,0.4,0.1c0.3,0.1,0.3,0.6,0.2,0.9
				c-0.3,2.1-0.6,4.3-0.9,6.1c-0.1,0.7-0.3,2.2-0.4,2.5c-0.1,0.6-1,5.5-1.2,7.3c0,0.4-0.1,0.8-0.1,1.1c0,0.4-0.1,0.9-0.2,1.4
				c0,0.5-0.3,1.9-0.3,2.2c0,0.4-0.2,1.5-0.2,1.8C82,48.7,82,49.8,81.8,51c-0.1,0.7-0.2,1.5-0.3,2.2c-0.2,1.5-0.5,3-0.7,4.4
				c-0.1,0.7-0.3,1.4-0.4,2.2c-0.3,1.5-0.4,3.1-0.6,4.6c-0.2,1.8-0.6,3.6-0.3,5.3c0.1,0.3,0.3,1,0.4,1.1c0.4,1.1,1.4,2.1,2.5,2.8
				c0.7,0.4,1.3,0.4,1.7,1.2c0.4,0.8,0.2,3-0.4,3.5c-0.4,0.3-1.2,0.4-1.8,0.6c-1.3,0.4-2.2,1-3.4,1.5c-1.4,0.6-2.8,1.3-4,2.1
				c-0.3,0.2-0.4,0.4-0.7,0.5c-0.9,0.7-1.9,1.4-2.7,2.1c-0.6,0.6-1,1.3-1.4,1.9c-0.4,0.7-0.7,1.3-1.4,1.8c-0.5,0-0.8,0-1.1,0.2
				c-0.2,0.7-0.4,1.7,0.1,2.2c0.4,0.3,0.7,0.1,1.2,0.2c0.6,0.6,0.4,1.3,0.4,2c0,0.5,0.1,1,0.1,1.5c0,0.7-0.1,1.4,0,2
				c0.1,2.4,0,4.9,0,7.5c0,0.4,0,0.8,0,1.1c0,1.1-0.1,1.8,0,3c-0.1,0.7-0.3,0.8-0.8,0.9c-0.5,0-0.9,0.1-1.3,0.1
				c-0.2,0-0.4-0.1-0.6-0.2c-0.2-0.3,0.2-0.5,0.2-0.9c-0.4-0.4-0.2-1.2-0.8-1.3c-0.3,0.1-0.4,0.5-0.5,0.7c-0.1,0.3-0.3,0.5-0.3,0.8
				c0,0.2,0.1,0.5,0.1,0.8c0,0.4-0.3,0.6-0.3,0.9c0,0.3,0.2,0.5,0.3,0.7c0.2,1.5,0,3.5,0.1,5.2c0,0.6,0.2,1.1,0,1.6
				c-0.1,0.4-0.3,0.5-0.5,0.2c-0.2-0.3-0.2-0.6-0.3-0.9c-0.1-0.4-0.4-0.8-0.5-1.2c-0.3-0.8-0.6-1.7-0.9-2.6
				c-0.2-0.4-0.2-0.9-0.4-1.3c-0.1-0.4-0.5-0.8-0.6-1.2c-0.2-0.7-0.4-1.5-0.6-2.2c-0.2-0.7-0.5-1.4-0.7-2.1c-0.5-1.4-1-2.8-1.4-4.2
				c-0.8-2.7-1.8-5.3-2.6-8c-0.1-0.3-0.1-0.4,0.1-0.5c0.2-0.1,0.5-0.2,0.7-0.3c0-0.5,0.2-0.9,0-1.4c-0.2-0.1-0.6-0.1-0.8-0.1
				c-0.3,0-0.4-0.2-0.5-0.4c-0.4-0.9-0.3-2-0.4-3c0-0.5,0-1-0.1-1.5c-0.1-0.8-0.2-1.6-0.1-2.4c0.2-0.7,1-1.2,1.3-1.7
				c0.9-1.6,0.3-3.8-0.3-5c-0.4-0.8-0.9-1.4-1.4-2c-0.3-0.4-1-1.1-1.1-1.6c0,0,0-0.1-0.1-0.1c-0.3-0.7,0.1-0.8,0.3-1.2
				c0.2-0.2,0.3-0.6,0.3-0.8c0.1-1.2-1.1-1.9-0.8-3c0.1-0.4,0.3-0.4,0.6-0.2c0.3,0.2,0.7,0.4,1,0.6c0.2,0.1,0.4,0,0.5-0.3
				c0.1-0.3,0.1-0.7-0.1-1.1c-0.1-0.2-0.3-0.3-0.4-0.4c-0.2-0.1-0.8-0.7-1-0.8c-0.3-0.2-0.6-0.5-0.7-0.8c-0.1-0.2-0.1-0.9-0.1-1.5
				c0-0.5-0.1-1.1-0.1-1.6c0-0.8,0-1.5,0.1-2.1c0.1-0.4,0.3-0.5,0.5-0.6c0.7,0,1.7,0,2.3,0c0.6,0,1-0.1,1-0.9c0-0.4-0.2-0.6-0.6-0.6
				c-0.8-0.1-2-0.1-2.7-0.1c-0.2-0.1-0.5-0.2-0.5-0.8c0-0.7,0.2-0.7,0.4-0.8c0.3-0.1,0.6-0.1,0.9-0.1c0.3,0,0.5-0.2,0.5-0.7
				c0-0.5-0.1-0.6-0.5-0.6c-0.3,0-0.6,0-0.8,0c-0.3-0.1-0.4-0.1-0.4-0.4c0-0.2,0-0.4,0-0.5c0-0.4-0.2-0.6-0.7-0.6
				c-0.4,0-0.7,0.1-0.8,0.6c0,0.2,0,0.3,0,0.5c0,0.4-0.1,0.4-0.5,0.5c-0.2,0.1-0.4,0.1-0.7,0.1c-0.3,0-0.5,0.2-0.5,0.7
				c0,0.4,0.2,0.6,0.5,0.6c0.2,0,0.4,0,0.6,0c0.2,0,0.4,0.1,0.5,0.7c0,0.5-0.1,0.8-0.6,0.9c-0.7,0-2.1,0-2.5,0
				c-0.4,0-0.7,0.3-0.7,0.8c0,0.5,0.1,0.8,0.5,0.8c0.3,0,2.1,0,2.6,0c0.5,0,0.6,0.3,0.6,0.6s0,1.9,0,2.7c0,0.4,0,1.5-0.2,1.4
				c-0.4,0-0.8-0.4-1.2-0.6c-0.4-0.3-0.6-0.1-0.6,0.7c0,0.4,0.1,0.8,0.4,1.1c0.5,0.3,1.4,0.8,1.7,1.4c0.3,0.8,0.3,1.9,0.1,2.6
				c-0.1,0.3-0.4,0.5-0.6,0.9c-0.1,0.2-0.3,0.5-0.3,0.9c0,0.7,0.7,1.2,0.8,1.8c-0.5,1-1.3,1.7-1.9,2.5c-0.3,0.4-0.6,0.8-0.9,1.2
				c-0.5,0.8-1.1,2.1-1.2,3.2c-0.1,1.6,0.7,2.8,1.6,3.7c0.1,1.3,0,2.6,0,3.7c0,0.2,0,0.4,0,0.5c0,0.9,0.3,2.1-0.1,3
				c-0.1,0.3-0.3,0.4-0.6,0.4c-0.3,0-0.6,0.1-0.9,0.2c-0.3,0.5-0.1,1.1,0.1,1.5c0.2,0.2,0.7,0.1,0.9,0.4c-0.5,2.3-1.4,4.5-2.1,6.7
				c-0.5,1.7-1,3.5-1.5,5.2c-0.2,0.6-0.4,1.3-0.5,1.7c-0.1,0.3-0.1,0.6-0.2,0.9c-0.1,0.4-0.2,0.7-0.3,1.1c-0.4,1.3-0.8,2.5-1.2,3.8
				c-0.5,1.7-0.8,3.3-1.5,4.8c0,0.1-0.3,0.4-0.3,0.5c-0.1,0.1-0.2,0.2-0.3,0.3c-0.2,0.2-0.6,0.2-0.9,0.1c-0.7-0.1-1.6-0.1-2.2,0
				c-0.6,0-0.9,1.3-1.2,1.9c-0.4,0.8-0.8,1.3-1.1,1.9c-0.4,0.7-0.5,1.3-0.9,2.1c-0.5,1-1.3,2.1-0.4,2.8c0.4,0.2,1.1,0,1.4,0.3
				c0,3.8,0,7.3-0.1,10.8c-1.1,0.9-2.2,1.9-3.2,2.9c-1.1,1-2.4,1.8-3.2,3c0,0.4-0.1,1.2,0.2,1.3c0.5,0.2,1.1,0,1.7,0.1
				c0.2,0.1,0.4,0.4,0.4,0.7c0,2.4,0.1,4.4,0,6.5c-0.1,0.7-0.1,3.2-0.1,4.1c0,0.5-0.4,0.6-0.6,0.1c-0.3-0.9-0.6-1.5-0.8-2.3
				c-0.1-0.5-0.4-1-0.5-1.5c-0.1-0.3-0.8-2.6-0.9-2.8c-0.4-1.5-1.1-3.1-1.5-4.7c-0.1-0.2-0.7-2.4-1-3.2c-0.6-2.2-1.3-4.5-2-6.5
				c-0.2-0.5-0.2-0.9-0.4-1.3c-0.1-0.4-0.3-0.5-0.3-0.9c0-0.7,0.8-1.1,0.8-1.7c0-0.5-0.6-0.6-0.7-1.1c-0.1-0.6,0-1.4,0-2
				c0-0.7-0.1-1.4,0.2-1.8c0.3-0.1,0.5-0.1,0.7-0.1c0.3,0.1,0.2,0.3,0.4,0.5c0.5,0.5,1.3,0.4,1.4-0.5c0.9-0.1,0.8-1.3-0.1-1.4
				c-0.2-0.4-0.5-0.6-0.9-0.6c-0.5,0-0.5,0.6-0.9,0.7c-0.2,0.1-0.4,0-0.7-0.1c-0.1-0.4,0-1-0.1-1.5c0.4-0.3,0.9-0.5,0.9-1.1
				c0-0.4-0.4-0.6-0.8-0.8c0-0.3-0.1-0.6-0.2-0.8c-0.7-0.5-1.5,0-1.4,0.9c-0.5,0.2-0.9,0.7-0.7,1.3c0.1,0.4,0.5,0.3,0.8,0.6
				c0,0.5,0.1,1.1-0.1,1.5c-0.2,0.1-0.6,0.1-0.9,0.1c-0.3-0.3-0.3-0.8-0.7-0.8c-0.5-0.1-0.7,0.3-0.9,0.7c-1,0.1-1.1,1.5,0,1.5
				c0.2,0.4,0.3,0.6,0.7,0.7c0.8,0.1,0.7-0.7,1.2-0.9c0.2,0,0.4,0,0.7,0.1c0.1,1.2,0,2.6,0,3.9c-0.5,0.4-1,0.9-0.8,1.7
				c0.1,0.2,0.4,0.4,0.5,0.5c0.1,0.1,0,0.1,0.1,0.3c0.2,0.4-0.2,0.8-0.4,1.5c-0.2,0.5-0.3,1-0.4,1.4c-0.3,1.1-0.6,1.9-0.9,2.7
				c-0.6,1.9-1.2,3.7-1.8,5.4c-0.6,1.7-1.3,3.4-2,5.2c-0.8,2.2-1.5,4.6-2.2,6.8c-0.4,1.5-1,2.8-1.4,4.2c-0.3,0.9-0.7,1.8-1,2.8
				c-0.5,1.6-0.8,2.9-1.8,3.8c-1.9,1.5-4.3,3.4-6.5,5c-0.3,0.2-0.7,0.5-1.1,0.9c-0.1,0.1-0.2,0.2-0.3,0.2c-0.3,0.2-0.8,1.1-0.9,1.2
				c-0.1,0.3-0.1,0.6,0,0.8c0,0.5,0.2,0.6,0.7,0.6c0.9,0,1.9,0,2.5,0c0.9,0,0.8,0.7,0.9,1.7c0.1,1.8,0,3.7,0.1,5.5
				c0,0.8,0.2,1.6-0.3,2.1c-0.4,0.1-1,0.1-1.2,0.5c-0.2,0.6-0.2,1.3-0.1,2c0,0.7-0.1,1.5,0.2,2c0.4,0.3,1,0,1.4,0.2
				c0.3,0.1,0.4,0.4,0.4,0.8c0,0.2,0,0.4,0,0.7c0,0.3-0.3,0.6-0.7,0.7c-0.3,0.1-0.7,0-1.1,0c-0.3,0-1,0.2-1.1,1.2
				c-0.1,0.7-0.1,1.7-0.1,2.4c0,0.7,0,2.6,0.1,3.3c0.1,0.7,0.4,0.7,1,0.8c1.7,0,135.5,0,140.5,0c1.2,0,1.1-0.3,1.2-0.7
				C145,199.2,145,197,145,196.1z M114.5,173.7c1.4,1.4,2.8,2.9,4.2,4.3c1.4,1.4,2.2,3,3.4,4.5c0.3,0.4,0.5,0.8,0.8,1.2
				c0.2,0.4,1.2,1.7,1.5,2.2c0.2,0.5,0.4,1,0.2,1.4c-0.3,0.4-1.2,0.3-1.9,0.3c-1.3,0-82.2,0-82.9,0c-0.6,0-0.2-0.4-0.5-1
				c-0.3-0.5-1.1-0.1-1.2-1.2c0-1.3,0-2.7,0-4c0-1.3,0.4-1.8,1.1-2.7c0.4-0.5,1.7-1.8,2-2c0.2-0.2,0.5-0.4,0.7-0.6
				c0.2-0.2,0.4-0.5,0.6-0.7c0.2-0.2,0.5-0.3,0.7-0.5c1-0.9,1.9-1.7,2.9-2.4c0.5-0.4,0.9-0.8,1.5-1.2c0.3-0.2,0.6-0.3,0.8-0.5
				c0.2-0.2,0.4-0.4,0.7-0.6c0.4-0.2,0.8-0.4,1.2-0.7c0.3-0.2,0.6-0.3,0.9-0.5c0.1-0.1,0.1-0.2,0.2-0.3c0.4-0.3,0.8-0.4,1.2-0.7
				c0.8-0.5,1.5-0.9,2.4-1.4c0.3-0.2,0.5-0.4,0.9-0.5c0.8-0.4,1.7-1.1,2.6-1.5c0.4-0.2,0.9-0.4,1.3-0.5c0.4-0.2,0.8-0.4,1.3-0.6
				c0.9-0.4,1.9-0.7,2.8-0.9c1.4-0.4,2.9-0.8,4.4-1.3c0.5-0.1,0.9-0.4,1.3-0.5c0.3-0.1,0.6-0.1,0.9-0.1c0.8-0.2,1.6-0.4,2.4-0.6
				c0.8-0.2,1.7-0.3,2.6-0.4c1.7-0.2,3.5-0.3,5.2-0.4c0.6,0,1.2,0.1,1.7,0c0.5,0,1.2,0.1,1.9,0.1c1.3,0.1,2.4,0.1,3.6,0.2
				c0.6,0.1,1.7,0.2,2.3,0.3c2.4,0.4,5,1.3,6.9,2.1c3,1.3,5.2,2.3,7.8,4c1.3,0.9,2.5,1.7,3.8,2.6c0.4,0.3,0.9,0.6,1.3,0.9
				c0.8,0.6,1.4,1.4,2.1,2.1C113,172.4,113.9,173,114.5,173.7z M33.4,183.6c0-0.3,0-1,0-1.3c0-1,0-1.7,0.1-2.6
				c0-0.5,0.1-0.7,0.5-0.7c0.3,0,0.7,0,0.8,0c0.6,0,0.7,0.5,0.8,0.8c0.1,0.7,0.1,1.5,0,2.3c-0.1,1.4-0.1,2.8-0.2,4.1
				c-0.1,0.3-1.7,0.3-1.9-0.1c-0.2-0.5-0.1-0.9-0.1-1.4C33.4,184.3,33.4,183.9,33.4,183.6z M33.9,167.9c-0.4-0.3-0.5-0.7-0.7-1.4
				c-0.2-0.7-0.5-1.2-0.6-1.8c-0.1-0.5,0-1.2,0-1.7c0-0.7,0-1.4,0-2c0.1-1.2-0.1-2.5,0-3.7c0-0.4,0.1-1.3,0.1-1.7
				c0-2.8-0.1-5.3,0-8.1c0-0.7,0.4-0.9,0.8-0.9c0.8-0.2,1.7,0,2.5,0c1.2,0,2.5-0.1,3.7,0c0.8,0,1.9,0.1,2.6,0.1
				c0.6,0,1.2-0.1,1.8-0.1c3.1-0.1,7.2,0.1,11-0.1c2.1-0.1,3.7,0.1,5.7,0c0.8,0,1.5,0,1.7,0.3c0.2,0.3,0.2,1.5,0.3,2.4
				c0,1-0.1,2.2-0.1,2.8c0,0.3,0.1,0.5,0.1,0.8c0,0.8,0,1.8,0,2.8c0,0.8,0,1.8,0,2.8c0,1,0.1,2.3-0.1,2.8c-0.2,0.4-0.8,0.5-1.3,0.7
				c-0.5,0.2-1,0.6-1.5,0.4c-0.4-0.6-0.2-1.4-0.2-2.1c0-1.4-0.1-3.1-0.1-4.7c0-0.7-0.1-1.5-0.1-2.2c0-0.8,0.1-1.6-0.1-2.1
				c-0.3-0.7-1-1-1.5-1.5c-0.1-0.1-0.6-0.5-0.7-0.7c-0.5-0.7-0.4-0.9-1.7-0.9c-0.5,0-1.6,0-2,0c-1.3,0-2.1,0-3,0
				c-0.9,0-1.3,0.3-1.7,0.7c-0.7,0.5-1.5,1.1-2.1,1.7c-0.1,0.1-0.3,0.9-0.3,1.1c0,2.5-0.2,5.5-0.2,8.2c0,0.3,0.2,0.7,0.2,0.9
				c0.1,1.5-0.4,3.6,0.4,4.2c0.5,0.3,1.4,0.4,1.9,0.4c0.9,0.1,1.8,0,2.7,0c0.9,0,1.9-0.1,2.6,0.1c0.1,0.3-0.4,0.3-0.5,0.4
				c-0.6,0.3-1.1,0.7-1.8,1.1c-0.8,0.4-1.1,0.8-2.1,1.1c-0.9,0.3-1.9,0.1-3,0.1c-0.4,0-1.1,0-1.5,0c-1.1,0-2.2,0.1-3.4,0.1
				c-0.4,0-0.6,0-1,0c-0.3,0-0.7,0-1.2,0c-0.7,0-1.5,0-2.5-0.1C35.9,168.1,34.6,168.4,33.9,167.9z M45,142.7
				c0.4-0.8,0.7-1.6,1.3-1.9c0.5-0.2,1.6-0.1,2.1-0.1c0.5,0,1.1,0,1.7,0c1.1,0,2.9-0.1,4.4,0c0.9,0,1.7,0.1,2.6,0.1
				c1.3,0,3.1-0.4,4.2,0.1c0.9,0.4,1.5,1.5,2,2.4c0.2,0.3,0.5,0.7,0.4,1.1c-0.2,0.6-1.4,0.4-2.2,0.5c-2.2,0-4.9,0.2-7.4,0.2
				c-2.6-0.1-4.9,0-7.6,0.1c-1,0-2.1,0.1-2.4-0.3C44,144.3,44.8,143.2,45,142.7z M64.2,137.3c0,0.4,0,0.8-0.1,1.1
				c-0.1,0.4-0.2,0.6-0.6,0.6c-0.4,0.1-0.9,0.1-1.2-0.2c-0.3-0.6-0.2-1.2-0.2-1.9c0-2,0.1-5.3,0-7.4c0.2-0.5,1.1-0.6,1.8-0.4
				c0.4,0.8,0.2,1.9,0.3,3C64.1,133.5,64.2,136,64.2,137.3z M51.8,151.2c0.3,0,0.6,0.1,1,0.1c0.3,0,0.6-0.1,0.8-0.1
				c0.5,0.1,0.8,0.3,1.1,0.6c0.1,0.1,0.4,0.5,0.5,0.7c0.5,1.7,1.2,3.6,1.7,4.9c0.1,0.4,0.6,0.9,0.5,1.3c-0.2,0.7-2.2,0.2-2.8,0.6
				c-0.3,0.2-0.3,0.6-0.5,0.9c-0.4,0.4-0.9,0.6-1.8,0.5c-0.3,0-0.5-0.2-0.7-0.4c-0.2-0.3-0.4-0.7-0.5-1c-0.8-0.4-1.9-0.2-2.8-0.3
				c-0.1,0-0.4-0.4-0.4-0.5c0.1-1,0.8-2,1.2-3.2c0.4-1.3,0.7-2.7,1.4-3.5C50.9,151.6,51.4,151.3,51.8,151.2z M51.3,149.7
				c0-0.9,1.7-0.8,2.7-0.6c0.1,0,0.3,0.3,0.3,0.5c-0.1,0.4-0.2,0.7-0.6,0.8C52.9,150.6,51.3,150.4,51.3,149.7z M67.7,135.8
				c0,0.3,0,0.8,0,1c0,0.8,0.2,1.6-0.1,2c-0.2,0.2-0.5,0.4-0.8,0.4c-0.7,0-0.9-0.1-1.1-0.6c0.1-1.8,0-4.9-0.1-6.8
				c0-0.7-0.1-1.5,0.1-1.9c0.2-0.6,1-0.7,1.6-0.4c0.3,0.4,0.3,1.4,0.3,2.2C67.5,132.5,67.8,134.9,67.7,135.8z M66.4,151.2
				c0.6,1.1,0.4,2.4,0.8,3.6c0.4,1,1.1,1.8,1.3,2.8c0,0.2,0,0.4-0.3,0.4c-0.4,0.1-0.9-0.1-1.2,0.1c-0.4,0.1-0.4,0.6-0.7,0.9
				c-0.4,0.3-0.7,0.3-1.3,0.4c-0.1-3.1-0.1-5.6-0.2-8.7c0-0.2,0.2-0.2,0.3-0.3C65.8,150.4,66.1,150.8,66.4,151.2z M64.8,149.3
				c-0.7,0-0.8-1.1-0.2-1.3C65.5,147.6,65.5,149.3,64.8,149.3z M69.3,128.9c0.3-0.3,1.1-0.3,1.9-0.3c1,0,37.6,0,38.4,0
				c1,0,1.4-0.1,1.9,0.8c0.2,0.5,0,6.3,0,7.7c0,0.9-0.1,3.4-0.1,3.8c0,0.6-0.1,2.6-0.1,2.9c0,0.4,0,2.1,0,2.6c0,1.3,0.1,2.4,0.1,4
				c0,0.2,0,2.4,0,2.7c0,0.7-0.1,3.3-0.1,4.1c0.1,1.3,0.1,2.8,0.1,4.3c0,0.6,0.2,1.5-0.2,1.8c-0.3,0.2-1.3-0.6-1.7-0.7
				c-0.6-0.3-1.3-0.4-2-0.7c-1.3-0.5-2.6-0.9-3.9-1.4c-0.6-0.2-3.5-1-4.4-1.2c-0.4-0.1-0.8-0.2-1.2-0.3c-1.4-0.3-3.2-0.6-4.8-0.8
				c-0.5-0.1-2.7-0.4-3.2-0.4c-0.5,0-1,0.1-1.4-0.1c-0.6-0.8-0.2-2.8-0.2-3.9c0.4-0.5,1.7-0.3,1.3-1.5c-0.1-0.4-0.9-0.2-1.2-0.3
				c-0.4-0.6-0.5-1.3-0.7-2c-0.2-0.7-0.4-1.4-0.6-2.1c-0.2-0.7-0.5-1.4-0.7-2.1c-0.2-0.7-0.5-1.5-0.5-2.2c0-0.7,0.4-1.2,0.5-1.7
				c0.1-0.7-0.1-1.3-0.4-1.8c-0.2-0.2-0.4-0.4-0.5-0.7c-0.2-0.5-0.1-1.1-0.1-1.7c0-0.6-0.1-1.2,0.1-1.6c0.8-0.5,2.3,0.2,3-0.3
				c0.3-0.2,0.3-0.6,0.2-1c-0.1-0.4-0.1-0.6-0.8-0.7c-0.8,0-1.9,0.2-2.4-0.2c-0.3-0.6-0.1-1.8-0.1-2.6c0-0.4-0.2-0.8-0.9-0.8
				c-0.6,0-0.8,0.3-0.8,0.9c0,0.9,0.1,1.8-0.1,2.5c-0.6,0.3-1.6,0-2.3,0.2c-0.3,0.1-0.6,0.2-0.7,0.5c0,0.2,0,0.4,0,0.6
				c0.1,0.7,0.1,0.7,0.7,0.7c0.8,0,1.8-0.2,2.3,0.2c0.2,0.4,0.1,1,0.1,1.5c0,0.5,0.1,1.1,0,1.5c-0.2,0.7-1.2,1.2-1.4,1.9
				c-0.3,1.1,0.1,1.9,0.7,2.9c-0.6,1.4-1,3.2-1.6,4.8c-0.4,1.2-0.5,2.4-1.2,3.4c-0.4,0.1-0.8,0.2-1.1,0.3c-0.2,0.2-0.2,0.8,0,1.1
				c0.2,0.3,0.8,0.1,1.1,0.3c0.2,0.3,0.1,0.8,0.1,1.3c0,1,0.3,2.1-0.3,2.7c-1,0.1-2,0.2-3,0.3c-0.5,0.1-1,0.2-1.5,0.3
				c-0.5,0.1-1.1,0.1-1.5-0.1c-0.3-0.5-0.1-1-0.1-1.4c-0.1-1.3-0.1-2.5-0.2-4c-0.1-1.3-0.1-2.5,0-4.1c0-0.8-0.1-1.6,0.2-1.9
				c0.4-0.4,1.5,0,2.1-0.3c0.2-0.1,0.5-0.3,0.5-0.8c0-0.4-0.5-0.6-0.8-0.9c-0.2-0.2-0.3-0.3-0.4-0.5c-0.7-0.7-1.6-1.3-2.3-1.9
				c-1-0.8-2.1-1.9-3.1-2.9c-0.2-0.2-0.3-0.2-0.4-0.4c-0.3-0.6-0.2-1.4-0.2-2.2c0-0.2-0.1-0.6-0.1-0.8c0-0.7,0.1-1.4,0-2.5
				c0-0.6-0.1-1.1-0.1-1.5c0-0.5,0-1.2,0-1.6C69.1,129.6,69,129.1,69.3,128.9z M70.3,124.8c0.4-0.4,1.2-0.4,2.1-0.4
				c1.8,0,35.2,0,36.7,0c1.7,0,2.3,0,2.3,1.2c0,0.5,0.1,0.7-0.1,1.1c-0.1,0.2-0.5,0.3-1.7,0.3c-2.5,0-35.2,0.1-37.1,0
				c-1.1,0-1.4-0.2-1.8-0.6C70.2,125.8,69.9,125.1,70.3,124.8z M84,144.8c0-0.1,0.1-0.2,0.2-0.2c0.4-0.1,0.5,0.4,0.5,1
				c0.1,1,0.1,1.8,0.3,2.7c0.2,0.8,0.3,1,0.3,2c0.1,0.8,0.2,1.4-0.3,1.7c-1,0.1-1.9,0.1-2.8,0.1c-0.3-0.5,0-1,0.1-1.5
				c0.1-0.5,0.2-1.1,0.3-1.6c0.1-0.2,0.5-1.8,0.7-2.4C83.6,145.9,83.8,145.2,84,144.8z M84.6,140c0.4,0.2,0.5,1.1,0.5,1.6
				c-0.1,0.4-0.3,0.9-0.6,1.1C83,142.4,83.5,140.2,84.6,140z M85.4,153.5c0.5,0.2,0.4,1.3,0.4,2.2c0,0.8,0.2,1.4-0.4,1.7
				c-0.9,0.1-2.4,0.3-3.3,0c-0.1-0.9-0.3-2.7-0.1-3.7C82.9,153.4,84.4,153.4,85.4,153.5z M71.4,149.2c-0.7,0.1-1.1-1-0.3-1.3
				C72,147.6,72.1,149.1,71.4,149.2z M107.1,111.1c0.4,0.4,0.3,1.1,0.3,1.7c0,0.6,0,1.2,0.1,1.8c0,0.7,0.2,1.3-0.2,1.7
				c-0.4,0-1,0.1-1.1-0.2c0.1-1.4-0.2-3.3-0.2-4.8C106.2,111.1,106.6,110.9,107.1,111.1z M107.6,117.9c0.1,0.3,0.1,1.1-0.2,1.3
				c-0.6,0.1-2,0.1-2.1-0.1c-0.1-0.3-0.1-0.7-0.1-1C105.3,117.7,107.2,117.5,107.6,117.9z M111.4,120.6c0.7,0,2.1,0,2.2,0.1
				c0.3,0.3,0.1,1.3,0,1.6c-0.2,0.3-0.9,0.2-1.4,0.2c-0.8,0-40.2,0-41.9,0c-0.5,0-0.9,0.1-1.1-0.3c-0.2-0.4-0.3-0.9-0.3-1.2
				c0-0.4,0.8-0.5,1.9-0.5C71.4,120.6,110.4,120.6,111.4,120.6z M71.9,111.4c0.2-0.3,0.5-0.5,1-0.4c0.5,0.6,0.3,1.7,0.3,2.8
				c0,0.9,0.2,1.9-0.1,2.6c-0.5,0.2-1.1,0-1.3-0.4C71.9,114.6,71.9,113.2,71.9,111.4z M75.2,97.5C75.3,97.5,75.3,97.5,75.2,97.5
				c0.5,0,0.4,1.2,0.4,1.9c0,1.8,0.2,3.7,0,5.4c0,0.4-0.1,0.7-0.4,0.6c-0.4-0.1-0.6-0.6-0.7-1c-0.6,0-1.5,0.1-1.6-0.5
				c0-0.3,0.2-0.6,0.3-1c0.3-0.7,0.3-1.3,0.6-2.2C74,99.7,74.5,97.5,75.2,97.5z M73.7,94.3c0.1-0.6,0.1-1.3,0.6-1.2
				c0.2,0,0.6,0.6,0.5,1c0,0.2-0.1,0.5-0.2,0.7c-0.3,0.2-0.6,0.1-0.8,0C73.8,94.7,73.7,94.4,73.7,94.3z M74.7,113.5
				c0-0.9-0.2-1.8,0.1-2.4c0.3-0.1,0.5-0.1,0.8-0.1c0.3,0.6,0.2,1.3,0.3,2c0.1,1.1,0.1,2.3,0,3.2c-0.2,0.1-0.6,0.2-0.9,0.1
				C74.5,115.7,74.7,114.5,74.7,113.5z M74.8,117.7c0.6,0,1.4,0,2,0c0.6,0,1.2,0,1.7,0.3c0.1,0.3,0.1,0.8-0.1,1
				c-0.3,0.3-1.1,0.2-1.6,0.2c-0.8,0-1.8,0-2.7,0c-1.4,0-2.1,0.1-3.2,0c-0.4,0-0.3-1-0.1-1.2C71.7,117.5,73.3,117.7,74.8,117.7z
				 M78.4,116.4c-0.2,0.2-0.8,0.2-1,0c-0.2-0.4-0.1-0.9-0.1-1.4c0-1.4-0.2-2.7,0.1-3.8c0.2-0.2,0.7-0.2,0.9-0.1
				c0.4,0.7,0.3,1.7,0.3,2.6C78.6,114.6,78.7,115.6,78.4,116.4z M79.5,94.2c-0.1-1.2-0.1-2.3,0.8-2.8c0.9-0.4,2.6-0.2,3.9-0.2
				c3.3,0,4.2,0,7-0.1c0.9,0,2.5,0,2.9,0.4c0.7,0.6,0.4,3,0.4,4.5c0,1,0.1,1.7,0.1,2.4c0,0.6-0.1,1.2-0.1,2c0,2.4,0.1,4.4,0.2,7
				c0,0.8,0,1.8-0.2,2.1c-0.3,0.3-1.1,0.4-1.7,0.3c-0.4-0.1-0.6-0.4-0.7-1.1c-0.1-0.7,0-1.3-0.1-2c0-0.6,0-1.4,0-2
				c0-0.7,0-1.2-0.1-1.8c0-0.4,0-1.3-0.1-1.7c0-1.4-0.1-2.6-0.6-3.8c-0.2-0.5-0.6-1.2-0.9-1.6c-0.3-0.3-1-0.3-1.3-0.7
				c-0.3-0.3-0.2-0.9-0.4-1.4c-0.2-0.5-0.4-0.7-0.7-1c-0.2-0.1-0.9-0.2-1.3-0.1c-0.4,0.1-1,0.5-1.2,0.9c-0.2,0.5-0.1,1.1-0.4,1.5
				c-0.3,0.4-0.8,0.5-1.3,0.9c-1.1,0.8-1.7,2-1.8,3.9c0,0.5,0,1,0,1.5c0,0.5-0.1,0.9-0.1,1.3c0,0.4,0.1,0.7,0.1,1.1
				c0,0.4-0.1,0.7-0.1,1.1c0,1.3,0.2,2.7,0.1,3.9c-0.1,0.6-0.2,0.9-0.7,0.9c-0.3,0-0.6,0-0.8,0c-0.5-0.1-0.8-0.2-0.8-0.9
				c0-0.3,0-0.7,0-1c0-1.7-0.2-3.9-0.1-6.1C79.4,99.1,79.6,96.7,79.5,94.2z M79.9,112.7c0-0.4-0.2-0.9,0.1-1.3
				c0.3-0.2,1-0.2,1.1,0.1c0,0.7,0,1.7,0,2.8c0,0.8,0.2,2.2-0.5,2.4C79.5,116.7,80,113.7,79.9,112.7z M80.2,117.8
				c0.1-0.2,1.7-0.1,2.7-0.1c0.3,0,1.3,0,1.6,0c3,0.1,6.1-0.1,8.8,0c0.9,0,2.1-0.1,1.6,1.2c-0.2,0.3-1.2,0.3-1.8,0.3c-1,0-2.1,0-3,0
				c-2.6,0.1-5.1,0-7.9,0c-0.6,0-1.9,0.2-2.1-0.2C79.9,118.6,80,118.1,80.2,117.8z M87.9,95.7c0.3,0.1,0.5,0.5,0.4,1
				c-0.3,0.6-1.3,0.4-2.2,0.4c-0.2,0-0.4-0.4-0.4-0.7C85.7,95.5,87,95.7,87.9,95.7z M87.3,93.1c0.2,0,0.5,0.7,0.5,1.3
				c-0.3,0.4-0.8,0.5-1.5,0.4C86.1,94.1,86.4,93.1,87.3,93.1z M86.1,98c0.9-0.4,2.2-0.2,2.6,0.6c0.1,0.2,0.3,0.8,0.3,1.1
				c0.1,0.3,0.1,0.8,0.2,1.1c0.1,0.5,0.4,0.9,0.5,1.4c0.3,0.9,0.5,2,1,2.8c0.2,0.4,0.8,0.8,0.4,1.2c-0.1,0.2-0.8,0.3-1.1,0.3
				c-0.4,0-0.8-0.2-1.2,0c-0.5,0.4-0.7,1.1-1.3,1.3c-0.7-0.1-1,0.1-1.5-0.2c-0.5-0.3-0.6-1-1-1.2c-0.7-0.3-1.7,0.4-2.3-0.3
				c-0.1-1,0.7-1.5,1-2.3c0.2-0.5,0.3-1.1,0.5-1.6c0.2-0.5,0.3-1.1,0.5-1.5C85.1,99.6,85.4,98.3,86.1,98z M90.5,116.3
				c-0.5-0.2-0.4-1.4-0.4-2c0-1,0.1-1.6,0-2.6c0.2-0.3,0.6-0.7,1-0.3c0.2,0.8,0.2,1.7,0.2,2.8C91.3,114.9,91.5,116.6,90.5,116.3z
				 M87.5,111.4c0.2-0.1,0.6-0.3,0.9-0.1c0.2,0.6,0.3,1.5,0.3,2.4c0,1,0.1,2.1-0.3,2.7c-0.2,0.1-0.6,0.1-0.8,0
				c-0.4-0.7-0.1-1.7-0.2-2.7C87.5,112.8,87.3,111.9,87.5,111.4z M86.1,116.2c-0.2,0.2-0.7,0.4-1,0.2c-0.3-0.3-0.1-0.7-0.1-1.1
				c0-1.1-0.1-2.6-0.1-3.7c0.4-0.7,1.2-0.4,1.3,0.3c0.1,0.6-0.1,1.8-0.1,2.7C86.1,115.3,86.3,115.8,86.1,116.2z M83.6,111.4
				c0.1,1.4,0.1,3.3,0,4.8c-0.2,0.2-0.6,0.4-0.9,0.2c-0.2-0.5-0.2-1.1-0.3-1.8c-0.1-1,0.2-2.3,0.2-3.2
				C82.8,111.1,83.3,111.1,83.6,111.4z M93.8,116.3c-1.2,0.3-1.1-0.9-1.1-2.6c0-0.9-0.1-2.1,0.1-2.4c0.4-0.3,0.6-0.1,1,0.1
				c0.2,0.5,0,1,0,1.5C93.8,114.1,94.2,115.3,93.8,116.3z M100.6,111.7c0-0.2,0.1-0.5,0.2-0.6c0.4-0.1,0.8,0,1,0.1
				c0.2,1.7,0.3,3.5,0.1,5c-0.3,0.1-0.6,0.2-0.9,0.1C100.4,115.1,100.7,112.8,100.6,111.7z M104.6,111.4c-0.1,1.9,0.4,3.4,0,4.8
				c-0.2,0.2-0.6,0.1-0.9,0.1c-0.3-0.3-0.1-0.7-0.1-1.1c0-1.3-0.2-2.7-0.2-3.9C103.6,111,104.4,111,104.6,111.4z M101.5,93.9
				c0-0.5,0.3-1,0.8-1c0.3,0,0.4,0.5,0.4,0.9c0,0.3-0.3,0.9-0.6,0.9C101.8,94.7,101.5,94.3,101.5,93.9z M98.4,97.6
				c0-0.1,0.1-0.2,0.2-0.2c0.8,0.1,1,0.5,1.3,1.2c0.2,0.5,0.3,0.9,0.5,1.6c0.2,0.7,0.5,1.4,0.7,2c0.3,0.6,0.8,1.2,0.7,1.8
				c-0.3,0.5-0.9,0.2-1.3,0.4c-0.7,0.3-0.7,1.5-1.6,1.2c-0.3-0.2-0.2-0.6-0.3-0.9C98.2,102.4,98.4,100.3,98.4,97.6z M97.9,111.3
				c0.2-0.4,0.9-0.3,1.2-0.1c0.2,1.6,0.5,3.3,0.2,4.9c-0.3,0.1-0.6,0.3-1,0.1c-0.4-0.6-0.2-1.5-0.2-2.2
				C98.1,113.2,97.8,112.3,97.9,111.3z M96.5,93.4c0.1-0.7,0.9-0.7,1.2-0.2c0.3,0.6-0.3,1.9-1,1.3C96.5,94.1,96.4,93.8,96.5,93.4z
				 M96.5,116.2c-1.4,1-1.1-1.2-1.1-2.6c-0.1-1.2-0.2-1.8,0-2.3c0.2-0.2,0.8-0.2,1,0.1C96.5,112.9,96.7,114.6,96.5,116.2z
				 M87.1,19.4c0.6,0.5,0.4,2.5-0.4,2.5C85.9,21.8,85.9,19.1,87.1,19.4z M85.4,53.5c0-1.4,0.2-3.3,0.3-5c0.1-0.8,0.1-1.6,0.1-2.4
				c0.1-0.7,0.1-1.3,0.1-2c0.1-0.7,0.2-1.4,0.2-2.1c0.1-1.4,0.1-2.7,0.2-4c0-0.3,0-0.8,0.1-1.1c0-0.4,0.1-1,0.1-1.3
				c0-0.5,0-1.1,0.2-1.6c0.2-0.7,0.6-0.5,0.7,0c0.2,1,0.2,2.1,0.3,3.6c0,0.3,0.2,1.3,0.2,1.6c0,1.5,0.3,3.1,0.4,4.8
				c0.1,0.9,0.1,3.4,0.1,3.7c0,0.4,0.2,1.8,0.3,2.2c0,0.3,0.1,1.9,0.1,2.4c0.1,0.7,0.2,1.4,0.3,2.3c0.2,1.8,0.5,3.8,0.6,5.9
				c0.1,1,0.1,1.9,0.3,2.8c0.1,0.7,0.2,1.4,0.3,2.1c0.1,1.1,0.2,3.2-0.4,3.8c-0.5,0.6-2.3,0.8-3.4,0.6c-1.3-0.2-1.6-0.6-1.8-1.8
				c0-0.2,0-1.3,0-1.5c0-0.6,0.1-1,0.1-1.6c0-3.2,0.4-6.6,0.5-10.2C85.5,54.1,85.4,53.8,85.4,53.5z M88,75.8c0.1,0.4,0.1,0.9,0,1.3
				c-0.1,0.5-0.3,0.8-0.7,0.8c-0.5,0-0.7,0.1-1.2,0c-0.4,0-0.5-0.1-0.6-0.6c-0.1-0.7-0.1-1.5,0.1-2.1c0.1-0.2,0.2-0.4,0.6-0.5
				c0.3,0,0.6-0.1,0.9,0C87.7,75,87.8,75.2,88,75.8z M83.9,57.3c0,0.9,0,1.8-0.1,2.6c0,0.9-0.1,1.6-0.2,2.4
				c-0.1,1.8-0.1,3.6-0.3,5.3c-0.1,0.8-0.3,1.5-1.1,1.8c-2.1,0.3-1.5-2.6-1.3-4.3c0.1-0.6,0.1-1.2,0.2-1.7c0.1-1,0.2-1.9,0.3-2.8
				c0.1-0.5,0.2-1.1,0.3-1.5c0.1-0.4,0.3-1.8,0.3-2.1c0.1-0.4,0.4-2.2,0.4-2.6c0.2-1.8,0.6-3.5,0.8-5.4c0-0.5,1-7.4,1.1-8.1
				c0.1-0.7,0.2-1.3,0.3-2c0.1-0.7,0.2-1.3,0.2-1.8c0.2-1.2,0.6-1.2,0.6,0.1c0,0.7-0.1,1.7-0.2,2.8c-0.1,1-0.1,1.6-0.2,2.4
				c-0.1,1-0.3,4.4-0.4,5.9c0,0.6-0.2,2-0.2,2.6C84.4,51.3,84,55.5,83.9,57.3z M84.4,81.3c1-0.7,2.7-1.5,4.3-0.8
				c0.8,0.4,1.9,1.1,2.9,1.8c1.2,0.9,2.3,1.7,3.1,2.8c0.2,0.2,0.4,0.4,0.5,0.6c0.3,0.4,0.7,1.3,0.8,1.6c0.2,0.5,0,0.9-0.2,1.1
				c-0.3,0.3-1.8,0.4-2.8,0.4c-0.9,0-1.3,0-2.1,0c-0.3,0-1,0-1.2,0c-1,0-1.6,0-2.6,0.1c-0.2,0-1.1,0-1.2,0c-1.4,0.1-2.9-0.1-4.2-0.1
				c-0.5,0-0.9,0-1.4,0c-0.6,0-1.7,0.1-2.2-0.3c-0.3-0.8,0-1.2,0.3-1.9c0.6-0.9,1.1-1.7,2-2.5c1-1,2-1.8,3.4-2.5
				C84.1,81.4,84.2,81.4,84.4,81.3z M71.1,87.9c0.2-1,1-1.9,1.7-2.5c0.2-0.2,1.8-1.6,2.4-1.9c0.6-0.4,1.2-0.7,1.8-1.1
				c0.6-0.4,1.2-0.8,1.9-1.1c0.4-0.2,1.7-0.8,2-0.9c0.7-0.3,1.8-0.5,2.4-0.8c0.1-0.1,0.5,0,0.5,0.2c0.1,0.5-1,0.9-1.4,1.2
				c-1.2,0.7-1.9,1.3-3,2.2c-0.5,0.6-0.9,1-1.3,1.4c-0.1,0.2-1.3,2.3-1.4,2.5c-0.3,0.7-0.5,1.5-1.2,1.6c-1,0.1-2.5,0.1-3.5,0.1
				C71.1,88.9,71,88.3,71.1,87.9z M70.4,92.1c0.1-0.2,0.2-0.9,0.7-1c0.7-0.2,2.1,0,3.2,0c1,0,1.7,0,2.5,0c0.6,0,1.4,0.3,1.4,1.1
				c0.2,4.4-0.2,8.8,0,12.6c0,0.7,0.1,2.7,0.1,3.4c0,1,0,1.3-0.6,1.3c-0.8,0-0.7-0.5-0.7-1.7c0-1.3-0.1-3.1,0-4c0-1.1,0-2.3,0-3.2
				c0-1.7,0-4-0.6-5.3c-0.1-0.2-0.4-0.5-0.5-0.7c-0.2-0.5-0.1-1-0.3-1.3c-0.1-0.4-0.4-0.8-0.7-0.9c-0.7-0.3-1.4,0.1-1.6,0.4
				c-0.3,0.7-0.3,1.5-0.5,2.3c-0.1,0.5-0.5,0.8-0.5,1.2c-0.1,0.5-0.1,1.1-0.1,1.7c-0.1,2.9-0.1,6.8-0.1,10.1c0,0.5,0.1,1.1-0.1,1.3
				c-0.3,0.3-0.9,0.2-1.2,0.1c-0.6-0.4-0.3-2.5-0.3-3.8c0-0.4,0-1,0-1.3c0-0.6,0-1.3,0-2c0-0.6,0-1.3,0-2c0-1.8,0.1-3.6,0.1-5
				C70.4,94.2,70.1,93.1,70.4,92.1z M69.2,111.2c0.2-0.3,0.9-0.4,1.1-0.1c0.1,1.2,0.1,2.9,0.1,4.1c0,0.6,0.1,1.1-0.3,1.2
				c-0.3,0.1-0.6-0.1-0.8-0.3C69.2,114.6,69.1,112.8,69.2,111.2z M68.9,117.8c0.3,0.2,0.3,1,0.1,1.3c-0.5,0.1-2.5,0.2-2.5-0.2
				c-0.1-0.4,0-0.8,0.1-1.1C67.2,117.6,68.1,117.7,68.9,117.8z M66.3,111.7c0.1-0.5,0.8-0.8,1.3-0.3c0.1,1.9,0.3,3,0,4.9
				c-0.2,0.1-0.6,0-0.9,0.1c-0.6-0.6-0.3-2.4-0.3-3.6C66.4,112.4,66.3,112,66.3,111.7z M59.3,125.9c0.2-0.7,0.6-1.5,0.9-2.4
				c0.3-0.7,0.6-1.5,0.9-2.2c0.1-0.3,0.2-0.6,0.4-0.7c0.4-0.2,1.8-0.1,2.8-0.1c0.9,0,1.9-0.1,2.2,0.4c-0.3,1.2-0.9,2.1-1.4,3.2
				c-0.3,0.5-0.5,1.1-0.8,1.7c-0.2,0.5-0.6,0.7-1,0.7c-0.9,0.1-2,0.1-2.8,0.1c-0.3,0-0.5,0-0.7-0.1
				C59.4,126.5,59.2,126.3,59.3,125.9z M55.4,106.8c0.4,1.9,0.6,3.7,1,5.7c0.1,0.6,0.3,1.2,0.4,1.8c0.1,0.7,0.1,1.5,0.3,2.2
				c0.3,1.5,0.5,2.9,0.8,4.4c0.1,0.5,0.3,1,0.3,1.5c0,0.7-0.3,0.7-0.6,0.4c0,0-0.1-0.1-0.1-0.1c-1-0.9-1.6-2.5-2.7-3.4
				c-0.1-0.1-0.5-0.2-0.7-0.2c-0.3,0-0.7,0-1,0c-0.3,0-0.7,0-1,0.1c-0.5,0.1-0.6,0.4-0.9,0.6c-0.1,0-0.3,0.2-0.3,0.3
				c-0.6,0.9-1.3,1.8-1.9,2.7c-0.2,0.3-0.4,0.7-0.8,0.7c-0.4,0,0.3-2,0.4-3c0.2-1.1,0.3-2.2,0.4-3.4c0.2-1,0.3-2.1,0.5-3.2
				c0.1-0.5,0.2-1,0.3-1.5c0.2-1.4,0.4-2.6,0.6-4c0.1-0.4,0.1-0.9,0.1-1.3c0-0.2,0.1-0.6,0.2-0.8c0.1-0.7,0.2-1.2,0.2-1.7
				c0.1-0.5,0.2-0.8,0.2-1.3c0.2-1.2,0.2-2.5,0.4-3.8c0.1-0.4,0.2-0.7,0.2-1c0-0.2,0.1-0.6,0.1-0.8c0.1-0.4,0.2-0.8,0.3-1.3
				c0.1-0.7,0.1-1.3,0.3-1.8c0.3-0.7,0.7-0.5,0.8-0.1c0.2,0.5,0.5,2.6,0.6,2.9c0.1,0.4,0.1,0.6,0.1,1c0,0.2,0.6,4.1,0.7,4.7
				C54.9,104.3,55.2,105.5,55.4,106.8z M55.9,126.7c-0.2,0-0.4,0-0.6,0c-1.2,0.1-2.9-0.1-4.4,0c-0.7,0-1.5,0.1-2.1,0
				c-0.3,0-0.5-0.2-0.4-0.6c0.4-1,1.2-1.7,1.8-2.6c0.1-0.1,0.5-0.6,0.5-0.7c0.1-0.2,0.2-0.5,0.4-0.7c0.2-0.2,0.4-0.4,0.6-0.7
				c0.6-0.8,1-0.6,1.3-0.3c0.8,0.8,1.1,1.5,1.8,2.4c0.4,0.4,0.8,0.9,1.1,1.4c0.2,0.3,0.5,0.7,0.6,1.1
				C56.5,126.3,56.3,126.7,55.9,126.7z M53.2,88.3c0,1,0.2,2,0.1,3c0,0.4,0,0.8-0.5,0.9c-0.3,0.1-0.9,0-1.4,0
				c-0.1,0-0.4-0.3-0.4-0.5c-0.2-1.6-0.3-3.3-0.2-5.5c0-0.4-0.1-0.8,0.2-1.1c0.5-0.1,1.3-0.2,1.8-0.1C53.5,85.8,53.2,87.1,53.2,88.3
				z M49.5,82.5c-0.4-1-0.1-2.5,0.4-3.5c0.3-0.7,0.6-1,1-1.5c0.4-0.5,1-1.6,1.9-0.9c0.1,0.1,0.3,0.4,0.5,0.7
				c0.1,0.3,0.3,0.7,0.5,1.3c0.2,0.5,0.4,1,0.5,1.7c0.1,0.7,0.3,1.1,0,1.8c-0.1,0.3-0.2,0.5-0.4,0.8c-0.5,0.6-1.8,0.8-2.8,0.6
				C50.3,83.4,49.8,83.1,49.5,82.5z M43.6,117.1c0.8-2.5,1.4-5.1,2.3-7.6c0.5-1.5,0.9-3.1,1.4-4.7c0.8-2.7,1.7-5.5,2.5-8.2
				c0.1-0.4,0.3-0.8,0.3-1.3c0-0.2,0.1-0.5,0.2-0.8c0.1-0.3,0.5-0.4,0.5,0c0,0.5-0.1,1-0.1,1.5c-0.1,0.6-0.1,1.1-0.3,1.8
				c-0.2,1.4-0.3,2.5-0.5,3.9c-0.1,0.4-0.1,1-0.2,1.4c-0.1,0.4-0.1,0.8-0.1,1.2c-0.1,0.5-1,6-1,6.3c-0.2,0.7-0.6,3.8-0.6,4.5
				c-0.1,0.8-0.3,1.5-0.4,2.3c-0.1,0.8-0.2,1.6-0.4,2.4c-0.1,0.7-0.3,1.5-0.4,2.3c-0.1,0.4-0.1,0.8-0.3,1.2
				c-0.3,0.7-0.6,0.5-1.1,0.1c-0.4-0.4-0.8-1-1.1-1.5c-0.4-0.7-1-1.3-1.4-2C42.8,118.8,43.3,118,43.6,117.1z M41.4,128.4
				c1.7,0,3.7-0.2,6-0.1c1.1,0,2.2,0.1,3.3,0c1.4-0.1,2.1-0.2,3.4,0c0.8,0.1,1.7,0,2.6-0.1c1.4,0,2.6-0.3,3.6,0.2
				c0.4,0.9,0.3,1.9,0.3,3c0,1.1,0,2.3,0,3.5c0,0.4,0.1,0.8,0.1,1.1c0,0.4-0.1,0.7-0.1,1.1c0,0.4,0,0.8,0,1.2c0,0.4-0.3,0.7-0.6,0.8
				c-0.3,0.1-0.6,0.1-1,0.1c-0.5,0-0.7-0.4-0.6-1.1c0.2-1.8,0.1-4.9,0.1-5.9c0-0.9,0-2-0.3-2.4c-0.1-0.1-0.3-0.3-0.5-0.3
				c-1.4,0-3.1-0.1-4.2,0.2c-0.4,0.3-0.3,0.6-0.3,1c0,0.1,0,0.5,0,0.6c0,1.7,0.2,4.7,0.3,6.8c0,0.7-0.1,1.1-0.6,1.1
				c-0.4,0-0.7,0-1.1,0c-0.4,0-0.5-0.5-0.4-1.3c0.1-1,0.1-2.2,0.1-2.7c0-1.6,0-3.3-0.2-4.8c0-0.4-0.2-0.7-0.9-0.7
				c-1-0.1-2.6-0.2-3.4-0.1c-1.2,0.1-0.8,1.4-0.8,2.5c0,1.6,0,4.2,0.1,6.1c0.1,0.8-0.1,1.2-0.4,1.2c-0.3,0-0.7,0-1,0
				c-0.4,0-0.5-0.5-0.5-1.1c0-2.7-0.3-6.1-0.1-8.2c0-0.2-0.2-0.4-0.3-0.5c-0.4-0.1-1-0.1-1.4,0c-0.2,0.1-0.4,0.2-0.4,0.4
				c0,1.7,0.1,5.7,0,7.9c0,0.2,0,0.3,0,0.5c0,0.7-0.1,1-0.3,1c-0.3,0-0.5,0-0.8,0c-0.3,0-0.4-0.3-0.4-1c0.1-1.8-0.1-4.2-0.1-5.5
				c0-0.8,0.2-1.7,0-2.4c-0.1-0.4-0.2-0.7-0.7-0.8c-0.3-0.1-0.6-0.1-0.8,0c-0.3,0.1-0.5,0.2-0.6,1c-0.1,0.8,0,2.4,0,3.9
				c0,0.8-0.1,2.6,0,3.8c0,0.7-0.2,0.9-0.3,0.8c-0.5,0-0.8,0-0.9-0.2c-0.4-0.4-0.1-1.8-0.1-2.5c0-1.4-0.1-2.5,0-4.2c0-0.5,0-1.3,0-2
				c0-0.9,0-1.4,0.4-1.8c0.2-0.2,0.6-0.2,0.9-0.2C39.1,128.2,40.4,128.4,41.4,128.4z M36.7,124.1c0.3-0.8,0.6-1.5,1.1-2.1
				c0.6-0.5,1.1,0.6,1.4,1.1c0.3,0.5,0.5,1.1,0.8,1.5c0.1,0.2,0.3,0.5,0.6,0.9c0.2,0.3,0.5,0.8,0.5,1c-0.1,0.4-0.9,0.4-1.4,0.4
				c-0.6,0-1,0-1.5,0c-0.6,0-1.4,0-2,0c-0.2,0-0.4-0.4-0.3-0.8C36.1,125.3,36.4,124.7,36.7,124.1z M32.1,144
				c0.5-0.5,1.1-0.7,1.5-1.3c0.4-0.3,0.7-0.7,1.1-1c0.5-0.5,1.1-1,2.1-1.1c1.4-0.1,3.4,0.2,5.1,0.2c0.5,0,1-0.1,1.5-0.1
				c0.5,0,1,0.2,0.8,0.8c-0.1,0.4-0.4,0.8-0.6,1.2c-0.1,0.3-0.3,0.6-0.4,0.9c-0.3,0.5-0.6,1.3-1.2,1.5c-0.2,0.1-0.6,0-0.9,0
				c-0.2,0-0.5,0.1-0.7,0.1c-0.3,0-0.6,0-1-0.1c-0.9,0-1.6,0-2.5,0c-0.3,0-0.8,0-1.1,0c-1.1,0-2.2,0-3.4-0.1
				C32.2,145,31.5,144.6,32.1,144z M31.3,177.1c0.2,1.5,0.1,3.3,0.1,4.8c0,0.7-0.1,1.5-0.1,2.2c0,0.5,0.1,1.1,0,1.7
				c-0.1,0.5-0.1,0.5-0.6,0.6c-0.4,0.1-0.9,0.1-1.3,0c-0.4-0.1-0.4-0.1-0.5-0.7c-0.1-0.9,0-1.9,0-2.8c0-0.9,0-1.6,0-2.4
				c0-0.3,0-0.8,0-1.1c0-0.2-0.2-0.5-0.7-0.6c-1.2-0.1-2.5-0.1-3.8,0c-0.4,0-0.9,0.1-1,0.7c-0.2,0.8-0.1,2.9-0.1,3c0,0.2,0,1.4,0,2
				c0,0.4,0,0.8,0,1.1c0,0.5-0.1,0.7-0.5,0.8c-0.3,0.1-0.8,0.1-1.1,0c-0.2,0-0.3-0.2-0.4-0.9c-0.1-2.2,0.2-3.9,0-6
				c0-0.6-0.6-0.6-1.6-0.6c-0.5,0-2.2,0-2.9,0c-0.8,0-1.3,0.4-1.3,0.8c0,0.4,0,0.8,0,1.3c0,1.4,0,2.7,0,4.1c0,0.7-0.1,1.4-0.7,1.4
				c-0.5,0-0.7,0-1.1,0c-0.3,0-0.6-0.1-0.6-0.6c0-0.5,0-0.7,0-1.2c0-0.3,0-0.8,0-1c0-1.2,0.1-2.6,0-4.2c0-0.5-1.1-0.6-1.9-0.6
				c-0.6,0-1.3,0-1.8,0.1c-0.3,0.1-0.6,0.2-0.7,0.9c-0.2,1.8,0.1,3.6,0,5.7c0,0.5-0.2,0.8-0.6,0.8c-0.4,0.1-0.9,0-1.3-0.1
				c-0.2-0.1-0.4-0.1-0.4-0.6c-0.1-0.9,0.1-2.1,0-3.3c-0.1-0.9-0.1-2.2-0.1-3.2c0-0.4,0-0.9,0-1.4c0-0.9,0.6-0.9,1.1-0.9
				c1.4-0.1,2.8,0,4.5,0c0.8,0,1.7,0,2.4,0c0.3,0,1.6,0,2.2,0c0.9,0,2.1,0,3,0c2.7,0,5.6,0,8.2,0C28.9,176.9,31.2,176.7,31.3,177.1z
				 M22.1,137.7c0.1,0,0.1,0.1,0.1,0.1c0.3,0.5,0.2,1.1,0.3,1.8c0.1,0.8,0.4,1.6,0.3,2.3c0,0.2-0.1,0.3-0.4,0.3
				c-0.4,0-0.9,0.1-1.3,0c-0.2-0.1-0.3-0.1-0.3-0.3C20.9,140.4,21.6,139,22.1,137.7z M12.3,166.2c0.2-0.6,0.7-1.9,0.9-2.4
				c0.3-0.5,0.5-1.2,0.7-1.8c0.2-0.6,0.8-2.6,0.9-3c0.1-0.3,0.4-0.5,0.5-0.9c0.1-0.4,0.2-0.9,0.3-1.3c0.4-1.1,0.7-2.4,1.1-3.6
				c0.1-0.3,0.5-1.5,0.5-1.8c0.2-0.7,0.5-1.4,0.8-2.1c0.2-0.7,0.4-1.5,0.7-2.1c0.5-1.3,0.8-2.6,1.5-3.7c0.1-0.2,0.3-0.4,0.5-0.4
				c0.9-0.1,1.5-0.1,2.1,0c0.2,0,0.3,0.3,0.4,0.5c0.8,3.8,1.4,7.8,2,11.7c0.1,0.6,0.1,1.2,0.2,1.8c0.1,0.8,0.4,1.6,0.5,2.4
				c0.1,0.8,0.2,1.7,0.3,2.6c0.2,1.4,0.6,2.9,0.5,4.4c0,0.5,0,0.9-1.5,0.9c-1.5,0-10.3,0-12.3,0C11.9,167.4,12.1,166.8,12.3,166.2z
				 M4,175.2c-0.5,0-0.7-0.5,0-1c0.4-0.2,1.1-0.9,1.4-1.1c0.7-0.5,1.3-1.1,2-1.5c0.4-0.3,0.7-0.5,1-0.8c0.3-0.3,0.6-0.6,0.9-0.8
				c0.3-0.2,0.7-0.4,1.1-0.7c0.9-0.5,1.8-0.5,3.4-0.5c1.1,0,2.5,0,3.8,0c2.3,0,5.4,0,7.5,0c2,0,2.3,0.2,3.1,0.8
				c0.9,1.1,1.5,2.4,2.3,3.7c0.3,0.4,0.9,1.2,0.7,1.6c-0.2,0.3-1.7,0.2-2.7,0.2c-5.2,0-9.1,0-13.8,0C10.4,175.2,7.7,175.1,4,175.2z
				 M37.9,188.7c0,0.3-0.2,0.4-0.4,0.4c-0.6,0-2.7,0-3.2,0c-0.9,0-1.9,0-2.9,0c-1,0-2.2,0.1-3.2,0c-0.3,0-1.2,0-1.6-0.1
				c-1.3,0-2,0-3.3,0c-2.7,0-5.6,0-8.4,0c-3.5,0-6.8,0.3-10.1,0.1c-0.1-0.4-0.1-1.1,0.1-1.5c3,0,5.8,0.3,8.7,0.1
				c2.8-0.2,5.5,0,8.1-0.1c0.8,0,1.4,0,2.2-0.1c1.6,0,4,0,5.9,0c2.2,0,4.2,0.1,6.3,0.1c0.7,0,1.2-0.2,1.9,0
				C38,188.1,37.9,188.4,37.9,188.7z M129.6,191.2c0,0.3,0,0.7-0.1,1c0,0.2-0.3,0.7-1.3,0.7c-2,0-86.5,0.1-88.5,0.1
				c-0.6,0-1.7,0-1.7-0.3c-0.1-0.6-0.1-1.4,0-2c0.2-0.2,0.7-0.1,1-0.3c0.4-0.2,0.3-1,0.9-1c0.9,0,86,0,87.5,0c0.7,0,1.6-0.1,1.9,0.2
				C129.7,190.1,129.6,190.6,129.6,191.2z"/>
			<path fill="#6092B6" d="M91.3,94.6c1.5,0.5,1.6-2.2,0.1-1.7C90.8,93,90.6,94.3,91.3,94.6z"/>
			<path fill="#6092B6" d="M76.9,94.6c0.4,0,0.4-0.6,0.5-1.1c0-0.1-0.1-0.4-0.1-0.5C76.3,92.2,76,94.7,76.9,94.6z"/>
			<path fill="#6092B6" d="M71.5,94.8c0.5,0.1,0.6-0.7,0.6-1.4c0-0.1-0.1-0.3-0.2-0.4c-0.1-0.1-0.2-0.1-0.5-0.1
				C71.1,93.1,71.2,94.8,71.5,94.8z"/>
			<path fill="#6092B6" d="M59.9,148.5c-0.2-0.8-1.8-0.6-1.5,0.6C58.9,149.9,60.1,149.3,59.9,148.5z"/>
			<path fill="#6092B6" d="M34.4,148c-0.9,0.1-0.9,1.4-0.2,1.6C35.2,149.9,35.6,147.8,34.4,148z"/>
			<path fill="#6092B6" d="M46.3,149.5c0.7-0.1,0.9-1.2,0.3-1.5c-0.1-0.1-0.3,0-0.5,0C45.2,148.2,45.4,149.6,46.3,149.5z"/>
			<path fill="#6092B6" d="M40.9,165.3c0.7-0.1,1.8-0.1,2-0.7c0.1-3.7-0.1-8.1,0-12.1c0-0.5,0.1-1.2,0-1.5c0-0.1-0.1-0.2-0.3-0.3
				c-0.3-0.4-0.7-0.7-0.9-1c-0.2-0.2-0.4-0.6-0.7-0.9c-0.2-0.2-0.5-0.7-1-0.7c-0.9,0-1.4,0-2,0c-0.6,0.1-0.8,0-1.3,0.5
				c-0.4,0.4-0.9,1-1.2,1.5c-0.3,0.4-0.8,0.9-0.9,1.3c-0.2,0.6-0.1,1.5-0.1,2.4c0,0.7-0.1,1.5-0.2,2.2c0,0.3,0,0.6,0,1
				c0,0.2-0.1,0.5-0.1,0.7c0,0.3,0,0.9,0,1.3c0,1.8-0.2,3.8,0.1,5.2c0.1,0.4,0.3,0.9,0.4,0.9c0.3,0.3,0.7,0.4,1.3,0.3
				C37.4,165.3,39.6,165.4,40.9,165.3z M37.3,156.8c0-0.1,0.2-0.1,0.2-0.2c0.2-0.4,0.7-0.9,0.9-1.1c0.5-0.7,0.6-2,1-2.9
				c0.2-0.3,0.9-1.3,1.2-1.5c0.2-0.1,0.4-0.1,0.5,0c0.1,0,0.4,0.2,0.4,0.4c0.1,0.4-0.1,0.9-0.1,1.4c-0.1,1.9,0,4.1-0.1,6
				c0,0.2-0.1,0.4-0.3,0.4c-0.9,0.1-1.4-0.6-1.5-1.3C38.8,157.6,36.5,158.2,37.3,156.8z"/>
			<path fill="#6092B6" d="M43.4,149.5c0.6-0.4,0.3-1.9-0.7-1.4c-0.2,0.4-0.2,0.7-0.1,1.1C42.7,149.4,42.9,149.6,43.4,149.5z"/>
			<path fill="#6092B6" d="M82,94.7c1,0.1,1.5-2.2-0.1-1.9C81.4,93.2,81.2,94.6,82,94.7z"/>
		</g>
	</g>
</g>
</svg>
