<?xml version="1.0" encoding="UTF-8" standalone="no"?>
<svg width="484px" height="352px" viewBox="0 0 484 352" version="1.1" xmlns="http://www.w3.org/2000/svg" xmlns:xlink="http://www.w3.org/1999/xlink" xmlns:sketch="http://www.bohemiancoding.com/sketch/ns">
    <!-- Generator: Sketch 3.2.1 (9977) - http://www.bohemiancoding.com/sketch -->
    <title>USAF Logo</title>
    <desc>Created with Sketch.</desc>
    <defs></defs>
    <g id="Page-1" stroke="none" stroke-width="1" fill="none" fill-rule="evenodd" sketch:type="MSPage">
        <g id="Desktop-HD" sketch:type="MSArtboardGroup" transform="translate(-478.000000, -250.000000)" fill="#FFFFFF">
            <g id="Hero" sketch:type="MSLayerGroup">
                <g id="USAF-Logo" transform="translate(478.000000, 250.000000)" sketch:type="MSShapeGroup">
                    <path d="M481.360687,336.396936 L458.930312,336.396936 L458.930312,341.956596 L483.723969,341.956596 L483.723969,349.996894 L446.531594,349.996894 L446.531594,314.88166 L483.368531,314.88166 L483.368531,322.80834 L458.930312,322.80834 L458.930312,328.481617 L481.360687,328.481617 L481.360687,336.396936 L481.360687,336.396936 L481.360687,336.396936 Z M333.199969,315.703489 C329.891375,314.283277 325.52025,313.692468 320.211375,313.692468 C311.00025,313.927277 304.507844,316.529106 300.730375,321.853957 C298.605312,324.811787 297.546562,328.474043 297.546562,332.848298 C297.546562,336.983957 298.726312,340.301574 300.968594,343.255617 C304.625062,348.576681 311.12125,351.182298 320.563031,351.182298 C327.887312,351.182298 333.547844,349.640894 337.332875,346.448255 L341.465781,341.718 C343.239187,339.002553 344.059719,335.80234 344.059719,332.265064 C344.055937,324.217191 340.520469,318.661319 333.199969,315.703489 L333.199969,315.703489 L333.199969,315.703489 Z M331.192125,332.492298 C331.192125,337.339957 329.418719,340.532596 325.879469,342.308809 C324.578719,343.138213 322.930094,343.490426 321.039469,343.490426 C317.496437,343.490426 314.6605,342.308809 312.898437,339.941787 C311.125031,337.813362 310.421719,335.44634 310.421719,332.492298 C310.421719,329.538255 311.128812,327.171234 312.781219,325.160213 C314.664281,322.558383 317.500219,321.380553 321.04325,321.380553 C324.699719,321.615362 327.539437,323.031787 329.309062,325.512426 C330.60225,327.527234 331.192125,329.894255 331.192125,332.492298 L331.192125,332.492298 L331.192125,332.492298 Z M291.054156,337.343745 L271.2215,337.343745 L271.2215,349.993106 L258.826562,349.993106 L258.826562,314.877872 L292.823781,314.877872 L292.823781,322.804553 L271.2215,322.804553 L271.2215,329.542043 L291.054156,329.542043 L291.054156,337.343745 L291.054156,337.343745 Z M412.534375,324.217191 C410.292094,326.107021 409.346781,328.94366 409.346781,332.496085 C409.346781,335.44634 410.174875,337.817149 411.710062,339.710766 C413.479687,342.074 416.190844,343.259404 419.620437,343.259404 C422.097156,343.259404 424.456656,342.547404 426.702719,340.892383 C427.882469,339.945574 428.593344,338.767745 429.179437,337.347532 L440.9845,338.525362 L439.097656,342.899617 C435.675625,348.459277 429.062219,351.186085 419.378437,351.186085 L409.346781,349.762085 C400.729312,347.042851 396.358187,341.362 396.358187,332.496085 C396.358187,327.769617 397.776156,323.747574 400.487312,320.433745 C404.382,315.938298 410.76475,313.571277 419.620437,313.571277 C430.835625,313.571277 437.917906,317.237319 440.398406,324.565617 L428.824,326.694043 C428.234125,325.160213 427.288812,323.978596 425.874625,323.028 C424.105,321.971362 422.100937,321.376766 419.972094,321.376766 C417.018937,321.38434 414.425,322.444766 412.534375,324.217191 L412.534375,324.217191 L412.534375,324.217191 Z M390.459437,326.107021 C390.459437,322.209957 389.041469,319.24834 386.326531,317.237319 C384.201469,315.703489 381.013875,314.874085 376.525531,314.874085 L350.907562,314.874085 L350.907562,349.989319 L363.3025,349.989319 L363.3025,337.218766 L370.154125,337.218766 L377.236406,349.989319 L391.045531,349.989319 L382.431844,336.040936 C384.904781,335.207745 386.916406,334.029915 388.096156,332.609702 C389.631344,330.841064 390.459437,328.708851 390.459437,326.107021 L390.459437,326.107021 L390.459437,326.107021 Z M377.826281,326.107021 C377.826281,328.356638 376.052875,329.303447 372.748062,329.303447 L363.306281,329.303447 L363.306281,323.031787 L373.935375,323.031787 C375.345781,323.031787 376.291094,323.149191 377.119187,323.743787 L377.826281,326.107021 L377.826281,326.107021 Z M96.2592812,330.250255 C100.388406,331.662894 102.400031,334.389702 102.400031,338.521574 C102.400031,340.888596 101.810156,342.89583 100.630406,344.67583 C97.91925,348.815277 91.7747187,350.947489 82.3329375,350.947489 C75.4850937,350.947489 70.7623125,349.637106 67.9301562,347.042851 C66.0395312,345.266638 64.8597812,342.903404 64.2699062,339.593362 L76.6648437,339.119957 C77.0240625,341.718 79.6142187,343.142 84.337,343.142 L88.5909062,342.312596 C89.7706562,341.486979 90.3605312,340.774979 90.3605312,339.706979 C90.3605312,338.411745 89.6496562,337.578553 87.8838125,336.987745 L72.8911562,333.681489 C68.4065937,331.901489 66.0433125,328.947447 66.0433125,324.811787 C66.0433125,322.209957 66.988625,320.081532 68.7620312,317.831915 C71.7114062,314.877872 76.668625,313.575064 83.5164687,313.575064 L94.1417812,314.877872 C98.2784687,316.294298 100.872406,319.24834 101.813937,323.747574 L89.6534375,324.338383 C89.0673437,322.209957 87.0595,321.263149 83.5164687,321.263149 C79.739,321.263149 77.969375,322.209957 77.969375,323.982383 L78.4420312,325.164 C79.0319062,325.989617 80.91875,326.701617 84.7,327.527234 L96.2592812,330.250255 L96.2592812,330.250255 Z M104.759531,340.888596 L116.212937,340.888596 L116.212937,349.993106 L104.759531,349.993106 L104.759531,340.888596 L104.759531,340.888596 Z M41.5975312,333.204298 C41.5975312,338.521574 40.7694375,342.547404 39.4724687,344.672043 C36.6403125,349.046298 30.6205625,351.182298 20.9405625,351.182298 C14.0927187,351.182298 9.1355,350.231702 6.186125,348.455489 C2.28765625,346.444468 0.2798125,342.664809 0.2798125,337.339957 L0.2798125,314.870298 L12.6785312,314.870298 L12.6785312,334.851745 C12.6785312,337.214979 13.0301875,338.994979 13.6200625,339.938 C15.0380312,342.305021 17.63575,343.486638 20.9405625,343.486638 C23.5382812,343.486638 25.4289062,342.661021 26.846875,341.358213 C28.2648437,339.941787 28.9681562,337.813362 28.9681562,334.620723 L28.9681562,314.874085 L41.5975312,314.874085 L41.5975312,333.204298 L41.5975312,333.204298 Z M43.7225937,340.888596 L54.9377812,340.888596 L54.9377812,349.993106 L43.7225937,349.993106 L43.7225937,340.888596 L43.7225937,340.888596 Z M224.939,314.874085 L199.43825,314.874085 L199.43825,349.989319 L211.954187,349.989319 L211.954187,337.218766 L218.446594,337.218766 L225.763312,349.989319 L239.572437,349.989319 L230.724312,336.040936 C233.201031,335.442553 235.205094,334.260936 236.626844,332.609702 C237.923812,330.837277 238.751906,328.708851 238.751906,326.103234 C238.751906,322.20617 237.333937,319.244553 234.853437,317.233532 C232.614937,315.703489 229.544562,314.874085 224.939,314.874085 L224.939,314.874085 L224.939,314.874085 Z M221.39975,329.303447 L211.954187,329.303447 L211.954187,323.031787 L222.224062,323.031787 C223.75925,323.031787 224.821781,323.149191 225.415437,323.743787 C226.005312,324.330809 226.356969,325.160213 226.356969,326.103234 C226.356969,328.356638 224.821781,329.303447 221.39975,329.303447 L221.39975,329.303447 L221.39975,329.303447 Z M177.59775,314.874085 L190.113687,314.874085 L190.113687,349.989319 L177.59775,349.989319 L177.59775,314.874085 L177.59775,314.874085 Z M150.79625,324.569404 L154.929156,336.396936 L146.901562,336.396936 L150.79625,324.569404 L150.79625,324.569404 Z M143.71775,314.874085 L128.607875,349.989319 L142.299781,349.989319 L144.073187,344.316043 L157.534437,344.316043 L159.425062,349.989319 L172.99975,349.989319 L157.889875,314.874085 L143.71775,314.874085 L143.71775,314.874085 Z" id="Shape"></path>
                    <path d="M380.775656,0.821489362 L341.465781,82.7658723 L399.901219,40.4359574 L380.775656,0.821489362 L380.775656,0.821489362 Z M403.678688,46.7000426 L242.646594,163.998255 L252.334156,193.322809 L376.64275,102.872298 L403.678688,46.7000426 L403.678688,46.7000426 Z M370.029344,116.816894 L254.689875,200.768511 L304.863281,200.768511 L343.000969,172.981574 L370.029344,116.816894 L370.029344,116.816894 Z M256.697719,222.291362 C256.697719,227.01783 254.928094,231.157277 251.506063,234.471106 C248.197469,237.894766 244.068344,239.674766 239.111125,239.674766 C234.267344,239.674766 230.138219,237.898553 226.712406,234.471106 C223.407594,231.157277 221.634188,227.01783 221.634188,222.291362 C221.634188,217.326298 223.403813,213.183064 226.712406,209.880596 C230.142,206.562979 234.267344,204.79434 239.111125,204.79434 C244.068344,204.79434 248.197469,206.562979 251.506063,209.880596 C254.928094,213.179277 256.697719,217.326298 256.697719,222.291362 L256.697719,222.291362 L256.697719,222.291362 Z M264.366094,230.33166 L276.292156,267.465489 L314.543281,239.674766 L283.022781,216.735489 L264.366094,230.33166 L264.366094,230.33166 Z M78.5516875,40.4321702 L136.869906,82.7658723 L97.6734688,0.821489362 L78.5516875,40.4321702 L78.5516875,40.4321702 Z M101.568156,102.868511 L226.11875,193.319021 L235.79875,163.994468 L74.6532188,46.7000426 L101.568156,102.868511 L101.568156,102.868511 Z M135.213719,172.981574 L173.461063,200.768511 L223.63825,200.768511 L108.302563,116.816894 L135.213719,172.981574 L135.213719,172.981574 Z M195.305344,216.735489 L163.784844,239.674766 L202.153188,267.465489 L214.196469,230.33166 L195.305344,216.735489 L195.305344,216.735489 Z M239.107344,294.419234 L270.631625,271.604936 L239.107344,248.661872 L207.700281,271.604936 L239.107344,294.419234 L239.107344,294.419234 Z" id="Shape"></path>
                </g>
            </g>
        </g>
    </g>
</svg>