<?xml version="1.0" encoding="UTF-8" standalone="no"?>
<svg width="400px" height="280px" viewBox="0 0 400 280" version="1.1" xmlns="http://www.w3.org/2000/svg" xmlns:xlink="http://www.w3.org/1999/xlink" xmlns:sketch="http://www.bohemiancoding.com/sketch/ns">
    <!-- Generator: Sketch 3.2.1 (9977) - http://www.bohemiancoding.com/sketch -->
    <title>graph</title>
    <desc>Created with Sketch.</desc>
    <defs></defs>
    <g id="Page-1" stroke="none" stroke-width="1" fill="none" fill-rule="evenodd" sketch:type="MSPage">
        <g id="Desktop-HD" sketch:type="MSArtboardGroup" transform="translate(-761.000000, -4780.000000)">
            <g id="Collaborators" sketch:type="MSLayerGroup" transform="translate(0.000000, 4048.000000)">
                <g id="Results">
                    <g id="Traffic" transform="translate(213.000000, 732.000000)">
                        <g id="graph" transform="translate(548.000000, 0.000000)">
                            <path d="M9.01074487,255.303564 L29.3945346,248.927923 L45.9355484,250.843329 L55.2197292,253.084099 L68.450198,254.592798 L75.3369167,250.843324 L86.262698,252.39463 L91.7998073,255.303571 L102.161135,249.789753 L107.33301,253.558594 L118.540042,237.333984 L133.037112,237.333984 L143.994136,225.5625 L149.717768,214.083008 L158.449219,209.883204 L170.765625,185.589096 L191.108393,176.4375 L197.675781,160.905709 L210.164063,151.278316 L218.571284,138.666992 L233.8623,132.712997 L243.396484,124.119812 L251.347656,113.864925 L260.978511,112.461914 L272.828125,101.115553 L287.576172,73.9357448 L301.545909,71.8662109 L313.728516,54.4872886 L322.266612,54.4872894 L332.082031,40.5526498 L346.234385,42.2124119 L356.822266,34.0898438 L375.121104,35.1943359 L391.527354,23.7617188 L391.527344,270.078989 L7.44340017,270.078989 L9.01074487,255.303564 Z" id="Line" stroke="#FFFFFF" stroke-width="2" stroke-linecap="square" fill="#95C4DB" sketch:type="MSShapeGroup"></path>
                            <path d="M0,0 L400,0 L400,280 L0,280 L0,0 Z M15,15 L385,15 L385,266 L15,266 L15,15 Z" id="Rectangle-15" fill="#FFFFFF" sketch:type="MSShapeGroup"></path>
                            <text id="11×" sketch:type="MSTextLayer" font-family="DIN Condensed" font-size="64" font-weight="bold" fill="#FFFFFF">
                                <tspan x="274" y="239">11×</tspan>
                            </text>
                        </g>
                    </g>
                </g>
            </g>
        </g>
    </g>
</svg>