<?xml version="1.0" encoding="UTF-8" standalone="no"?>
<svg width="31px" height="36px" viewBox="0 0 31 36" version="1.1" xmlns="http://www.w3.org/2000/svg" xmlns:xlink="http://www.w3.org/1999/xlink" xmlns:sketch="http://www.bohemiancoding.com/sketch/ns">
    <!-- Generator: Sketch 3.2.1 (9977) - http://www.bohemiancoding.com/sketch -->
    <title>Hourglass 2</title>
    <desc>Created with Sketch.</desc>
    <defs></defs>
    <g id="Page-1" stroke="none" stroke-width="1" fill="none" fill-rule="evenodd" sketch:type="MSPage">
        <g id="Artboard-2" sketch:type="MSArtboardGroup" transform="translate(-2587.000000, -623.000000)" fill="#FFFFFF">
            <g id="Hourglass-2" sketch:type="MSLayerGroup" transform="translate(2602.500000, 640.500000) rotate(-180.000000) translate(-2602.500000, -640.500000) translate(2587.000000, 622.000000)">
                <path d="M22.7396499,8.31481692 C22.7396499,10.7500006 14.8754701,16.9714286 14.8754701,16.9714286 C14.8754701,16.9714286 7.23534315,11.2126926 7.23534315,8.31481692 L7.23534315,6.68578512 L22.7396499,6.68578512 C22.7396499,6.68614104 22.7396499,6.64058367 22.7396499,8.31481692 L22.7396499,8.31481692 Z" id="Shape" sketch:type="MSShapeGroup"></path>
                <path d="M23.2564601,30.8571429 L7.23534315,30.8571429 L7.23534315,29.0550663 C7.23534315,27.8894095 15.1833515,25.2 15.1833515,25.2 C15.1833515,25.2 23.2564601,27.7467334 23.2564601,29.0550663 L23.2564601,30.8571429 L23.2564601,30.8571429 Z" id="Shape" sketch:type="MSShapeGroup"></path>
                <path d="M28.7544953,32.76 L27.3205211,32.76 L27.3205211,27.55224 C27.3205211,23.43528 23.5191537,19.755 21.3991112,18.0216 C23.5001268,16.2072 27.3205211,12.375 27.3205211,8.51364 L27.3205211,3.24 L28.7544953,3.24 C29.7138933,3.24 30.4918033,2.5506 30.4918033,1.62 C30.4918033,0.6894 29.7138933,0 28.7544953,0 L1.73694203,0 C0.777544094,0 1.77635684e-15,0.6894 1.77635684e-15,1.62 C1.77635684e-15,2.5506 0.777544094,3.24 1.73694203,3.24 L2.80501319,3.24 L2.80501319,8.51364 C2.80501319,12.46716 6.72529903,16.28568 8.83363271,18.06912 C8.19257048,18.62244 7.36343404,19.36728 6.55186096,20.23776 C4.07945369,22.89132 2.80501319,25.35228 2.80501319,27.55224 L2.80501319,32.76 L1.73694203,32.76 C0.777544094,32.76 1.77635684e-15,33.44976 1.77635684e-15,34.38 C1.77635684e-15,35.31024 0.777544094,36 1.73694203,36 L28.7544953,36 C29.7138933,36 30.4918033,35.31024 30.4918033,34.38 C30.4918033,33.44976 29.7138933,32.76 28.7544953,32.76 L28.7544953,32.76 Z M5.68491248,27.228531 C5.68491248,24.1022697 10.1285661,20.1065895 11.8675629,18.8317756 C12.2073457,18.5840341 12.3695148,18.1965136 12.3658375,17.7868286 C12.3621602,17.3771436 12.2113908,16.9931979 11.8675629,16.7501038 C10.1329788,15.5249812 5.68491248,11.6229638 5.68491248,8.32260418 L5.68491248,3.08571429 L24.8068908,3.08571429 L24.8068908,8.32260418 C24.8068908,11.5436007 20.3919202,15.5053192 18.6639553,16.7593986 C18.3171855,17.010715 18.1528101,17.4061003 18.1612679,17.8225777 C18.1693579,18.2386976 18.331527,18.6272906 18.6882255,18.8653798 C20.404423,20.0136418 24.8068908,23.7540732 24.8068908,27.228531 L24.8068908,32.4 L5.68491248,32.4 L5.68491248,27.228531 L5.68491248,27.228531 Z" id="Shape" sketch:type="MSShapeGroup"></path>
            </g>
        </g>
    </g>
</svg>