<?xml version="1.0" encoding="UTF-8" standalone="no"?>
<svg width="207px" height="114px" viewBox="0 0 207 114" version="1.1" xmlns="http://www.w3.org/2000/svg" xmlns:xlink="http://www.w3.org/1999/xlink" xmlns:sketch="http://www.bohemiancoding.com/sketch/ns">
    <!-- Generator: Sketch 3.2.1 (9977) - http://www.bohemiancoding.com/sketch -->
    <title>logo-rightnow</title>
    <desc>Created with Sketch.</desc>
    <defs></defs>
    <g id="Page-1" stroke="none" stroke-width="1" fill="none" fill-rule="evenodd" sketch:type="MSPage">
        <g id="Desktop-HD" sketch:type="MSArtboardGroup" transform="translate(-907.000000, -6823.000000)" fill="#999999">
            <g id="logo-rightnow" sketch:type="MSLayerGroup" transform="translate(907.000000, 6823.000000)">
                <path d="M136.467842,89.2876635 L121.394478,63.8613412 L115.640684,63.8613412 L115.640684,103.223758 L122.552871,103.223758 L122.552871,77.7977062 L137.636719,103.223758 L143.382179,103.223758 L143.382179,63.8613412 L136.467842,63.8613412 L136.467842,89.2876635" id="Fill-1" sketch:type="MSShapeGroup"></path>
                <path d="M158.643456,103.867507 C164.692157,103.867507 170.878769,99.9180284 170.878769,91.8161943 L170.878769,86.7304976 C170.878769,78.6316351 164.692157,74.683237 158.643456,74.683237 C152.602819,74.683237 146.412175,78.6316351 146.412175,86.7304976 L146.412175,91.8161943 C146.412175,99.9180284 152.602819,103.867507 158.643456,103.867507 M158.643456,97.5810284 C154.937081,97.5810284 153.098813,95.2148531 153.098813,90.7947867 L153.098813,87.7473128 C153.098813,83.3334597 154.937081,80.9608009 158.643456,80.9608009 C162.357627,80.9608009 164.191862,83.3334597 164.191862,87.7473128 L164.191862,90.7947867 C164.191862,95.2148531 162.357627,97.5810284 158.643456,97.5810284" id="Fill-2" sketch:type="MSShapeGroup"></path>
                <path d="M200.129213,75.3237441 L196.276594,93.0102227 L191.087614,75.3237441 L186.425813,75.3237441 L181.245168,93.0102227 L177.396581,75.3237441 L170.768817,75.3237441 L178.066239,103.190531 L183.727286,103.190531 L188.759805,86.5200569 L193.808455,103.190531 L199.449608,103.190531 L206.755095,75.3237441 L200.129213,75.3237441" id="Fill-3" sketch:type="MSShapeGroup"></path>
                <path d="M31.6986896,75.3410332 L38.2616649,75.3410332 L38.2616649,103.224028 L31.6986896,103.224028 L31.6986896,75.3410332 Z" id="Fill-4" sketch:type="MSShapeGroup"></path>
                <path d="M111.427025,103.087877 C111.054694,103.316687 109.164004,103.867507 106.438862,103.867507 C101.12864,103.867507 99.4594675,100.109559 99.4594675,97.084237 L99.4594675,81.0742607 L95.1382753,81.0742607 L95.1382753,75.3237441 L99.4594675,75.3237441 L99.4594675,63.8613412 L105.991527,63.8613412 L105.991527,75.3237441 L111.359817,75.3237441 L111.359817,81.0742607 L105.991527,81.0742607 L105.991527,95.3531659 C105.991527,97.2425403 106.77974,97.79309 108.768553,97.79309 C109.975605,97.79309 111.102545,97.6164171 111.427025,97.4659479 L111.427025,103.087877" id="Fill-5" sketch:type="MSShapeGroup"></path>
                <path d="M27.8173052,75.5279716 C27.8173052,65.3684645 19.2187403,63.853237 14.7892091,63.853237 L0.0607558442,63.853237 L0.0607558442,103.223758 L6.98772857,103.223758 L6.98772857,87.7130047 L12.2355818,87.7130047 L20.2709455,103.190531 L28.7251481,103.190531 L20.0997,86.7988436 C23.3254052,85.3114408 27.8173052,82.665128 27.8173052,75.5279716 M20.3085818,75.5849716 C20.2249753,79.931019 17.6576377,80.9270332 14.548874,81.0194218 L7.45872078,81.0194218 L7.45872078,70.2591185 L14.5590896,70.2591185 C17.6966182,70.3701469 20.2249753,71.2508104 20.3085818,75.5849716" id="Fill-6" sketch:type="MSShapeGroup"></path>
                <path d="M59.2641,75.3410332 L65.6042143,75.3410332 L65.6042143,104.176009 C65.6042143,107.530365 62.8766532,113.950294 52.4938558,113.950294 C47.6696805,113.950294 43.2632688,111.668403 42.2629481,110.531915 L44.5563468,105.304393 C45.2832662,106.002441 48.4248273,107.994739 52.5029961,107.994739 C58.4102922,107.994739 59.2804987,104.996161 59.2920584,103.002782 L59.2920584,101.324659 C57.3637325,103.146227 54.9149494,103.722441 52.7812364,103.722441 C49.4095558,103.728114 46.9685688,102.957398 44.8480286,101.010213 C42.6930779,99.0460095 41.522587,95.1594739 41.522587,91.4169242 L41.522587,87.0055024 C41.522587,83.2661943 42.6930779,79.3593981 44.8480286,77.3941137 C46.9685688,75.4650284 49.2783662,74.6786445 52.6642948,74.683237 C55.1913078,74.7161943 58.0038195,75.7694787 59.2641,77.339545 L59.2641,75.3410332 L59.2641,75.3410332 Z M59.3068442,90.0989005 L59.3068442,88.5688152 C59.3068442,84.2268199 58.4869091,80.8700332 53.7423078,80.8700332 C48.995287,80.8700332 48.1777714,84.1233555 48.1777714,88.5477441 L48.1777714,90.0989005 C48.1777714,94.4387346 48.995287,97.7884976 53.7423078,97.7884976 C58.4869091,97.7884976 59.3068442,94.4387346 59.3068442,90.0989005 L59.3068442,90.0989005 Z" id="Fill-7" sketch:type="MSShapeGroup"></path>
                <path d="M83.0013545,74.6216445 C80.8552753,74.6216445 78.0949169,75.3237441 76.3190182,77.1420711 L76.3190182,63.8216303 L69.8813182,63.8216303 L69.8813182,103.190531 L76.3539662,103.190531 L76.3539662,86.0929621 C76.3539662,82.7807488 78.9183468,80.7276682 81.9136636,80.7276682 C85.9649494,80.7276682 86.7459039,83.1151848 86.7459039,85.3046872 L86.7459039,103.160815 L93.1491935,103.160815 L93.1491935,83.8083697 C93.1491935,77.0010569 88.5790636,74.6216445 83.0013545,74.6216445" id="Fill-8" sketch:type="MSShapeGroup"></path>
                <path d="M204.588584,103.325602 C203.286097,103.325602 202.390621,102.358223 202.390621,101.063972 C202.390621,99.6978626 203.419169,98.8080142 204.588584,98.8080142 C205.776012,98.8080142 206.800258,99.6978626 206.800258,101.063972 C206.800258,102.421166 205.776012,103.325602 204.588584,103.325602 L204.588584,103.325602 Z M204.588584,99.2021517 C203.623749,99.2021517 202.859194,99.9655735 202.859194,101.063972 C202.859194,102.088351 203.519174,102.92309 204.588584,102.92309 C205.539978,102.92309 206.299426,102.157237 206.299426,101.063972 C206.299426,99.9655735 205.539978,99.2021517 204.588584,99.2021517 L204.588584,99.2021517 Z M204.148777,102.358223 L203.751444,102.358223 L203.751444,99.8661611 L204.676223,99.8661611 C205.280556,99.8661611 205.566323,100.066336 205.566323,100.597976 C205.566323,101.033716 205.310665,101.198232 204.948281,101.260095 L205.639714,102.358223 L205.173023,102.358223 L204.542883,101.297915 L204.148777,101.297915 L204.148777,102.358223 L204.148777,102.358223 Z M204.607671,100.935384 C204.916021,100.935384 205.173023,100.935384 205.173023,100.562047 C205.173023,100.223289 204.885912,100.197626 204.644232,100.197626 L204.148777,100.197626 L204.148777,100.935384 L204.607671,100.935384 L204.607671,100.935384 Z" id="Fill-9" sketch:type="MSShapeGroup"></path>
                <path d="M130.868626,15.3343507 C123.877134,8.30876303 112.53891,8.30876303 105.546612,15.3343507 C112.53891,22.361019 112.53891,33.7526445 105.546612,40.7806635 C108.387351,43.6357962 111.947213,45.3098673 115.640684,45.8436682 L115.640684,56.0850284 L130.868626,40.7806635 C137.862806,33.7542654 137.862806,22.361019 130.868626,15.3343507" id="Fill-10" sketch:type="MSShapeGroup"></path>
                <path d="M105.546612,15.3343507 C102.708023,12.4789479 99.1465481,10.8062275 95.4552273,10.2716161 L95.4552273,0.0302559242 L80.2248662,15.3343507 C73.2328364,22.361019 73.2328364,33.7542654 80.2248662,40.7806635 C87.2163584,47.8073318 98.5553883,47.8073318 105.546612,40.7806635 C98.5553883,33.7542654 98.5553883,22.361019 105.546612,15.3343507" id="Fill-11" sketch:type="MSShapeGroup"></path>
                <path d="M105.546612,15.3343507 C98.5553883,22.361019 98.5553883,33.7542654 105.546612,40.7806635 C112.53891,33.7526445 112.53891,22.361019 105.546612,15.3343507" id="Fill-12" sketch:type="MSShapeGroup"></path>
            </g>
        </g>
    </g>
</svg>