<?xml version="1.0" encoding="UTF-8" standalone="no"?>
<svg width="400px" height="100px" viewBox="0 0 400 100" version="1.1" xmlns="http://www.w3.org/2000/svg" xmlns:xlink="http://www.w3.org/1999/xlink" xmlns:sketch="http://www.bohemiancoding.com/sketch/ns">
    <!-- Generator: Sketch 3.2.1 (9977) - http://www.bohemiancoding.com/sketch -->
    <title>A Rating</title>
    <desc>Created with Sketch.</desc>
    <defs>
        <rect id="path-1" x="0" y="0" width="283" height="74"></rect>
        <rect id="path-3" x="0" y="0" width="81" height="74"></rect>
    </defs>
    <g id="Page-1" stroke="none" stroke-width="1" fill="none" fill-rule="evenodd" sketch:type="MSPage">
        <g id="Desktop-HD" sketch:type="MSArtboardGroup" transform="translate(-244.000000, -5231.000000)">
            <g id="Collaborators" sketch:type="MSLayerGroup" transform="translate(0.000000, 4048.000000)">
                <g id="Results">
                    <g id="Satisfaction" transform="translate(244.000000, 1111.000000)">
                        <g id="A-Rating" transform="translate(0.000000, 72.000000)">
                            <rect id="Rectangle-18" fill="#FFFFFF" sketch:type="MSShapeGroup" x="0" y="0" width="400" height="100" rx="10"></rect>
                            <g id="stars" transform="translate(96.000000, 12.000000)">
                                <mask id="mask-2" sketch:name="Mask" fill="white">
                                    <use xlink:href="#path-1"></use>
                                </mask>
                                <use id="Mask" sketch:type="MSShapeGroup" xlink:href="#path-1"></use>
                                <path d="M-4.43681735,30.29593 C-4.10344828,29.9905233 -4.04788676,29.4630026 -4.15900979,28.9910103 C-4.35347508,28.5190181 -4.82574794,28.2691398 -5.2980208,28.2691398 L-23.4666355,28.2691398 L-31.4397125,7.72359507 C-31.6341778,7.27936707 -32.0786699,6.94619608 -32.5509428,6.94619608 C-33.0232156,6.94619608 -33.4677077,7.27936707 -33.662173,7.72359507 L-41.6352501,28.2691398 L-59.8038648,28.2691398 C-60.2761376,28.2691398 -60.7484105,28.5190181 -60.9428758,28.9910103 C-61.0539988,29.4630026 -60.9984373,29.9905233 -60.6650682,30.29593 L-46.8302515,44.0669979 L-50.3306268,62.4191669 C-50.3861884,62.8911591 -50.1917231,63.3353871 -49.8027925,63.6130296 C-49.4138619,63.8629079 -48.8860275,63.8629079 -48.4970969,63.6130296 L-32.5509428,53.3402573 L-16.6047886,63.6130296 C-16.4103233,63.7518509 -16.1602965,63.8073794 -15.9658312,63.8073794 C-15.7713659,63.8073794 -15.4935584,63.7518509 -15.2990931,63.6130296 C-14.9101625,63.3353871 -14.7156972,62.8911591 -14.7712587,62.4191669 L-18.271634,44.0669979 L-4.43681735,30.29593 Z M63.8390447,30.29593 C64.1724138,29.9905233 64.2279753,29.4630026 64.1168523,28.9910103 C63.922387,28.5190181 63.4501141,28.2691398 62.9778413,28.2691398 L44.8092266,28.2691398 L36.8361495,7.72359507 C36.6416842,7.27936707 36.1971921,6.94619608 35.7249193,6.94619608 C35.2526464,6.94619608 34.8081543,7.27936707 34.613689,7.72359507 L26.640612,28.2691398 L8.47199731,28.2691398 C7.99972445,28.2691398 7.52745159,28.5190181 7.3329863,28.9910103 C7.22186327,29.4630026 7.27742479,29.9905233 7.61079386,30.29593 L21.4456105,44.0669979 L17.9452352,62.4191669 C17.8896737,62.8911591 18.084139,63.3353871 18.4730696,63.6130296 C18.8620002,63.8629079 19.3898346,63.8629079 19.7787651,63.6130296 L35.7249193,53.3402573 L51.6710734,63.6130296 C51.8655387,63.7518509 52.1155655,63.8073794 52.3100308,63.8073794 C52.5044961,63.8073794 52.7823037,63.7518509 52.976769,63.6130296 C53.3656996,63.3353871 53.5601649,62.8911591 53.5046034,62.4191669 L50.0042281,44.0669979 L63.8390447,30.29593 Z M132.114907,30.29593 C132.448276,29.9905233 132.503837,29.4630026 132.392714,28.9910103 C132.198249,28.5190181 131.725976,28.2691398 131.253703,28.2691398 L113.085089,28.2691398 L105.112012,7.72359507 C104.917546,7.27936707 104.473054,6.94619608 104.000781,6.94619608 C103.528509,6.94619608 103.084016,7.27936707 102.889551,7.72359507 L94.916474,28.2691398 L76.7478594,28.2691398 C76.2755865,28.2691398 75.8033137,28.5190181 75.6088484,28.9910103 C75.4977253,29.4630026 75.5532869,29.9905233 75.8866559,30.29593 L89.7214726,44.0669979 L86.2210973,62.4191669 C86.1655358,62.8911591 86.3600011,63.3353871 86.7489317,63.6130296 C87.1378623,63.8629079 87.6656966,63.8629079 88.0546272,63.6130296 L104.000781,53.3402573 L119.946936,63.6130296 C120.141401,63.7518509 120.391428,63.8073794 120.585893,63.8073794 C120.780358,63.8073794 121.058166,63.7518509 121.252631,63.6130296 C121.641562,63.3353871 121.836027,62.8911591 121.780465,62.4191669 L118.28009,44.0669979 L132.114907,30.29593 Z M200.390769,30.29593 C200.724138,29.9905233 200.779699,29.4630026 200.668576,28.9910103 C200.474111,28.5190181 200.001838,28.2691398 199.529565,28.2691398 L181.360951,28.2691398 L173.387874,7.72359507 C173.193408,7.27936707 172.748916,6.94619608 172.276643,6.94619608 C171.804371,6.94619608 171.359878,7.27936707 171.165413,7.72359507 L163.192336,28.2691398 L145.023721,28.2691398 C144.551449,28.2691398 144.079176,28.5190181 143.88471,28.9910103 C143.773587,29.4630026 143.829149,29.9905233 144.162518,30.29593 L157.997335,44.0669979 L154.496959,62.4191669 C154.441398,62.8911591 154.635863,63.3353871 155.024794,63.6130296 C155.413724,63.8629079 155.941559,63.8629079 156.330489,63.6130296 L172.276643,53.3402573 L188.222798,63.6130296 C188.417263,63.7518509 188.66729,63.8073794 188.861755,63.8073794 C189.05622,63.8073794 189.334028,63.7518509 189.528493,63.6130296 C189.917424,63.3353871 190.111889,62.8911591 190.056327,62.4191669 L186.555952,44.0669979 L200.390769,30.29593 Z M268.666631,30.29593 C269,29.9905233 269.055562,29.4630026 268.944438,28.9910103 C268.749973,28.5190181 268.2777,28.2691398 267.805427,28.2691398 L249.636813,28.2691398 L241.663736,7.72359507 C241.46927,7.27936707 241.024778,6.94619608 240.552505,6.94619608 C240.080233,6.94619608 239.635741,7.27936707 239.441275,7.72359507 L231.468198,28.2691398 L213.299584,28.2691398 C212.827311,28.2691398 212.355038,28.5190181 212.160573,28.9910103 C212.049449,29.4630026 212.105011,29.9905233 212.43838,30.29593 L226.273197,44.0669979 L222.772821,62.4191669 C222.71726,62.8911591 222.911725,63.3353871 223.300656,63.6130296 C223.689586,63.8629079 224.217421,63.8629079 224.606351,63.6130296 L240.552505,53.3402573 L256.49866,63.6130296 C256.693125,63.7518509 256.943152,63.8073794 257.137617,63.8073794 C257.332082,63.8073794 257.60989,63.7518509 257.804355,63.6130296 C258.193286,63.3353871 258.387751,62.8911591 258.33219,62.4191669 L254.831814,44.0669979 L268.666631,30.29593 Z" id="star" fill="#101330" sketch:type="MSShapeGroup" mask="url(#mask-2)"></path>
                            </g>
                            <g id="stars-2" transform="translate(17.000000, 12.000000)">
                                <mask id="mask-4" sketch:name="Mask" fill="white">
                                    <use xlink:href="#path-3"></use>
                                </mask>
                                <use id="Mask" sketch:type="MSShapeGroup" xlink:href="#path-3"></use>
                                <path d="M74.5631826,30.29593 C74.8965517,29.9905233 74.9521132,29.4630026 74.8409902,28.9910103 C74.6465249,28.5190181 74.1742521,28.2691398 73.7019792,28.2691398 L55.5333645,28.2691398 L47.5602875,7.72359507 C47.3658222,7.27936707 46.9213301,6.94619608 46.4490572,6.94619608 C45.9767844,6.94619608 45.5322923,7.27936707 45.337827,7.72359507 L37.3647499,28.2691398 L19.1961352,28.2691398 C18.7238624,28.2691398 18.2515895,28.5190181 18.0571242,28.9910103 C17.9460012,29.4630026 18.0015627,29.9905233 18.3349318,30.29593 L32.1697485,44.0669979 L28.6693732,62.4191669 C28.6138116,62.8911591 28.8082769,63.3353871 29.1972075,63.6130296 C29.5861381,63.8629079 30.1139725,63.8629079 30.5029031,63.6130296 L46.4490572,53.3402573 L62.3952114,63.6130296 C62.5896767,63.7518509 62.8397035,63.8073794 63.0341688,63.8073794 C63.2286341,63.8073794 63.5064416,63.7518509 63.7009069,63.6130296 C64.0898375,63.3353871 64.2843028,62.8911591 64.2287413,62.4191669 L60.728366,44.0669979 L74.5631826,30.29593 Z M142.839045,30.29593 C143.172414,29.9905233 143.227975,29.4630026 143.116852,28.9910103 C142.922387,28.5190181 142.450114,28.2691398 141.977841,28.2691398 L123.809227,28.2691398 L115.83615,7.72359507 C115.641684,7.27936707 115.197192,6.94619608 114.724919,6.94619608 C114.252646,6.94619608 113.808154,7.27936707 113.613689,7.72359507 L105.640612,28.2691398 L87.4719973,28.2691398 C86.9997245,28.2691398 86.5274516,28.5190181 86.3329863,28.9910103 C86.2218633,29.4630026 86.2774248,29.9905233 86.6107939,30.29593 L100.445611,44.0669979 L96.9452352,62.4191669 C96.8896737,62.8911591 97.084139,63.3353871 97.4730696,63.6130296 C97.8620002,63.8629079 98.3898346,63.8629079 98.7787651,63.6130296 L114.724919,53.3402573 L130.671073,63.6130296 C130.865539,63.7518509 131.115566,63.8073794 131.310031,63.8073794 C131.504496,63.8073794 131.782304,63.7518509 131.976769,63.6130296 C132.3657,63.3353871 132.560165,62.8911591 132.504603,62.4191669 L129.004228,44.0669979 L142.839045,30.29593 Z M211.114907,30.29593 C211.448276,29.9905233 211.503837,29.4630026 211.392714,28.9910103 C211.198249,28.5190181 210.725976,28.2691398 210.253703,28.2691398 L192.085089,28.2691398 L184.112012,7.72359507 C183.917546,7.27936707 183.473054,6.94619608 183.000781,6.94619608 C182.528509,6.94619608 182.084016,7.27936707 181.889551,7.72359507 L173.916474,28.2691398 L155.747859,28.2691398 C155.275587,28.2691398 154.803314,28.5190181 154.608848,28.9910103 C154.497725,29.4630026 154.553287,29.9905233 154.886656,30.29593 L168.721473,44.0669979 L165.221097,62.4191669 C165.165536,62.8911591 165.360001,63.3353871 165.748932,63.6130296 C166.137862,63.8629079 166.665697,63.8629079 167.054627,63.6130296 L183.000781,53.3402573 L198.946936,63.6130296 C199.141401,63.7518509 199.391428,63.8073794 199.585893,63.8073794 C199.780358,63.8073794 200.058166,63.7518509 200.252631,63.6130296 C200.641562,63.3353871 200.836027,62.8911591 200.780465,62.4191669 L197.28009,44.0669979 L211.114907,30.29593 Z M279.390769,30.29593 C279.724138,29.9905233 279.779699,29.4630026 279.668576,28.9910103 C279.474111,28.5190181 279.001838,28.2691398 278.529565,28.2691398 L260.360951,28.2691398 L252.387874,7.72359507 C252.193408,7.27936707 251.748916,6.94619608 251.276643,6.94619608 C250.804371,6.94619608 250.359878,7.27936707 250.165413,7.72359507 L242.192336,28.2691398 L224.023721,28.2691398 C223.551449,28.2691398 223.079176,28.5190181 222.88471,28.9910103 C222.773587,29.4630026 222.829149,29.9905233 223.162518,30.29593 L236.997335,44.0669979 L233.496959,62.4191669 C233.441398,62.8911591 233.635863,63.3353871 234.024794,63.6130296 C234.413724,63.8629079 234.941559,63.8629079 235.330489,63.6130296 L251.276643,53.3402573 L267.222798,63.6130296 C267.417263,63.7518509 267.66729,63.8073794 267.861755,63.8073794 C268.05622,63.8073794 268.334028,63.7518509 268.528493,63.6130296 C268.917424,63.3353871 269.111889,62.8911591 269.056327,62.4191669 L265.555952,44.0669979 L279.390769,30.29593 Z M347.666631,30.29593 C348,29.9905233 348.055562,29.4630026 347.944438,28.9910103 C347.749973,28.5190181 347.2777,28.2691398 346.805427,28.2691398 L328.636813,28.2691398 L320.663736,7.72359507 C320.46927,7.27936707 320.024778,6.94619608 319.552505,6.94619608 C319.080233,6.94619608 318.635741,7.27936707 318.441275,7.72359507 L310.468198,28.2691398 L292.299584,28.2691398 C291.827311,28.2691398 291.355038,28.5190181 291.160573,28.9910103 C291.049449,29.4630026 291.105011,29.9905233 291.43838,30.29593 L305.273197,44.0669979 L301.772821,62.4191669 C301.71726,62.8911591 301.911725,63.3353871 302.300656,63.6130296 C302.689586,63.8629079 303.217421,63.8629079 303.606351,63.6130296 L319.552505,53.3402573 L335.49866,63.6130296 C335.693125,63.7518509 335.943152,63.8073794 336.137617,63.8073794 C336.332082,63.8073794 336.60989,63.7518509 336.804355,63.6130296 C337.193286,63.3353871 337.387751,62.8911591 337.33219,62.4191669 L333.831814,44.0669979 L347.666631,30.29593 Z" id="star" fill="#95C4DB" sketch:type="MSShapeGroup" mask="url(#mask-4)"></path>
                            </g>
                        </g>
                    </g>
                </g>
            </g>
        </g>
    </g>
</svg>