<?xml version="1.0" encoding="UTF-8" standalone="no"?>
<svg width="280px" height="317px" viewBox="0 0 280 317" version="1.1" xmlns="http://www.w3.org/2000/svg" xmlns:xlink="http://www.w3.org/1999/xlink" xmlns:sketch="http://www.bohemiancoding.com/sketch/ns">
    <!-- Generator: Sketch 3.2.1 (9977) - http://www.bohemiancoding.com/sketch -->
    <title>stopwatch</title>
    <desc>Created with Sketch.</desc>
    <defs></defs>
    <g id="Page-1" stroke="none" stroke-width="1" fill="none" fill-rule="evenodd" sketch:type="MSPage">
        <g id="Desktop-HD" sketch:type="MSArtboardGroup" transform="translate(-363.000000, -4361.000000)">
            <g id="Collaborators" sketch:type="MSLayerGroup" transform="translate(0.000000, 4048.000000)">
                <g id="Results" sketch:type="MSShapeGroup">
                    <g id="Time" transform="translate(363.000000, 313.000000)">
                        <g id="stopwatch">
                            <path d="M140,317 C217.319865,317 280,254.319865 280,177 C280,99.680135 217.319865,37 140,37 C62.680135,37 0,99.680135 0,177 C0,254.319865 62.680135,317 140,317 Z M140,302 C209.035594,302 265,246.035594 265,177 C265,107.964406 209.035594,52 140,52 C70.9644063,52 15,107.964406 15,177 C15,246.035594 70.9644063,302 140,302 Z" id="Oval-1" fill="#FFFFFF"></path>
                            <path d="M215.381366,270.226708 C242.564136,248.187882 260,214.549326 260,177 C260,109.949688 206.050312,56 140,56 L140,176 L215.381366,270.226708 Z" id="Oval-4" fill-opacity="0.2" fill="#95C4DB"></path>
                            <path d="M177.940118,62.1796459 C166.005079,58.1697009 153.245866,56 140,56 L140,176 L177.940118,62.1796459 Z" id="Oval-5" fill="#95C4DB"></path>
                            <path d="M141,187 C145.746705,187 150,182.746705 150,178 C150,172.253295 145.746705,168 141,168 C135.253295,168 131,172.253295 131,178 C131,182.746705 135.253295,187 141,187 Z" id="Oval-3" fill="#FFFFFF"></path>
                            <rect id="Rectangle-10" fill="#FFFFFF" x="130" y="9" width="20" height="20" rx="4"></rect>
                            <path d="M120,7.99582624 C120,5.78899235 121.638094,3.26633835 123.7099,2.5048594 C123.7099,2.5048594 127.54248,6.10242457e-16 140,0 C152.45752,0 156.307098,2.51054764 156.307098,2.51054764 C158.346632,3.33314946 160,5.79652125 160,7.99582624 L160,12.0041738 C160,14.2110077 158.203575,16 155.999974,16 L124.000026,16 C121.790872,16 120,14.2034788 120,12.0041738 L120,7.99582624 Z" id="Rectangle-10" fill="#FFFFFF"></path>
                            <path d="M137.908947,72.0031567 C137.959234,70.8968438 138.88773,70 140,70 L140,70 C141.104569,70 142.048297,70.8854388 142.109263,72.0031567 L147.890737,177.996843 C147.951081,179.103156 147.106603,180 146.008116,180 L134.991884,180 C133.891797,180 133.040247,179.114561 133.091053,177.996843 L137.908947,72.0031567 Z" id="Rectangle-12" fill="#FFFFFF"></path>
                        </g>
                    </g>
                </g>
            </g>
        </g>
    </g>
</svg>