<?xml version="1.0" encoding="UTF-8" standalone="no"?>
<svg width="1208px" height="611px" viewBox="0 0 1208 611" version="1.1" xmlns="http://www.w3.org/2000/svg" xmlns:xlink="http://www.w3.org/1999/xlink" xmlns:sketch="http://www.bohemiancoding.com/sketch/ns">
    <!-- Generator: Sketch 3.2.1 (9977) - http://www.bohemiancoding.com/sketch -->
    <title>1963</title>
    <desc>Created with Sketch.</desc>
    <defs></defs>
    <g id="Page-1" stroke="none" stroke-width="1" fill="none" fill-rule="evenodd" sketch:type="MSPage">
        <g id="Stax-Case-Study" sketch:type="MSArtboardGroup" transform="translate(-100.000000, -6594.000000)" fill="#000000" opacity="0.05">
            <g id="Story" sketch:type="MSLayerGroup" transform="translate(100.000000, 6594.000000)">
                <path d="M0,7.342821 L136.017451,7.342821 L136.017451,604.043643 L59.1212216,604.043643 L59.1212216,75.7469956 L0,75.7469956 L0,7.342821 Z M425.440947,604.043643 L339.657214,604.043643 L397.232783,488.104364 C407.537187,466.977546 417.777034,445.271353 427.952633,422.985136 C438.128232,400.698919 448.110474,377.446885 457.899657,353.228336 C438.06368,369.202273 417.583984,377.189121 396.459956,377.189121 C361.167373,377.189121 335.149144,362.954496 318.404487,334.48482 C301.659831,306.015143 293.287629,261.765428 293.287629,201.734345 C293.287629,129.593989 303.076665,77.9371156 322.655033,46.7621758 C342.2334,15.5872361 374.820588,0 420.417576,0 C466.529783,0 499.503381,15.7160562 519.339358,47.1486401 C539.175335,78.581224 549.093175,130.882198 549.093175,204.053131 C549.093175,258.158398 542.910626,308.14061 530.545341,354.001265 C524.620309,376.673948 516.119303,401.987105 505.042069,429.941493 C493.964835,457.895881 480.182902,489.263583 463.695855,524.045541 L432.396385,589.358001 L425.440947,604.043643 Z M470.651293,191.29981 C470.651293,112.718351 453.778085,73.42821 420.031162,73.42821 C386.54185,73.42821 369.797445,112.20307 369.797445,189.753953 C369.797445,230.461726 373.72594,259.961536 381.583048,278.254269 C389.440156,296.547003 402.256066,305.693232 420.031162,305.693232 C437.806259,305.693232 450.686571,296.611413 458.672484,278.447502 C466.658397,260.28359 470.651293,231.23465 470.651293,191.29981 L470.651293,191.29981 Z M741.140542,7.342821 L826.537862,7.342821 L770.507946,122.122707 C760.718763,142.991882 750.865324,165.148945 740.947336,188.59456 C731.029347,212.040176 720.660696,237.031282 709.841072,263.568627 C732.25315,245.791182 753.763271,236.902593 774.372079,236.902593 C807.603781,236.902593 833.235601,251.330448 851.268308,280.186591 C868.270574,307.239224 876.77158,355.675594 876.77158,425.497154 C876.77158,491.454051 866.85374,538.98868 847.017763,568.102467 C827.181785,596.700965 794.852203,611 750.028046,611 C704.173449,611 671.071048,595.155124 650.71985,563.464896 C630.368653,531.517023 620.193207,479.47369 620.193207,407.333333 C620.193207,346.786963 628.179,289.075543 644.150826,234.197343 C652.394349,206.887066 664.566243,174.682032 680.666874,137.581278 C696.767505,100.480523 716.925193,57.0681381 741.140542,7.342821 L741.140542,7.342821 Z M799.875351,425.110689 C799.875351,404.499159 798.973729,386.915211 797.170458,372.358318 C795.367187,357.801424 792.404716,345.949972 788.282954,336.803605 C784.161193,327.657239 778.944666,320.958592 772.633219,316.707464 C766.321772,312.456335 758.657986,310.330803 749.641633,310.330803 C740.62528,310.330803 732.961494,312.456335 726.650047,316.707464 C720.338599,320.958592 715.122073,327.592829 711.000312,336.610373 C706.87855,345.627918 703.916078,357.41496 702.112808,371.971853 C700.309537,386.528747 699.407915,403.983875 699.407915,424.337761 C699.407915,502.403932 716.15232,541.436433 749.641633,541.436433 C783.130945,541.436433 799.875351,502.661573 799.875351,425.110689 L799.875351,425.110689 Z M1032.10969,167.339026 L955.599875,167.339026 L955.599875,151.493991 C955.599875,124.956646 957.85393,102.155482 962.362107,83.0898166 C966.870283,64.0241509 973.954455,48.3080947 983.614833,35.9411765 C993.275212,23.5742582 1005.57591,14.4924389 1020.5173,8.69544592 C1035.45868,2.89845299 1053.36231,0 1074.22873,0 C1118.02245,0 1149.96562,12.3667328 1170.05921,37.1005693 C1190.1528,61.8344058 1200.19944,101.124546 1200.19944,154.97217 C1200.19944,199.28696 1195.56253,231.234353 1186.28856,250.815307 C1177.27221,270.653905 1159.88379,285.72586 1134.12278,296.031626 C1161.94467,305.564458 1181.13633,320.378774 1191.69835,340.475016 C1202.26036,360.313614 1207.54129,392.132187 1207.54129,435.931689 C1207.54129,495.962771 1196.20662,540.148077 1173.53693,568.488931 C1150.86724,596.829785 1115.57519,611 1067.65971,611 C985.739696,611 944.780305,563.980652 944.780305,469.940544 L944.780305,463.757116 L944.780305,459.506009 C944.780305,456.671923 944.909109,454.868442 945.166719,454.095509 L1020.5173,454.095509 C1020.25969,458.475459 1020.06648,462.275653 1019.93768,465.496205 C1019.80887,468.716757 1019.74447,471.357569 1019.74447,473.418722 C1019.74447,493.772609 1024.18818,510.003945 1033.07572,522.113219 C1041.96327,534.222494 1054.13517,540.27704 1069.59177,540.27704 C1079.63857,540.27704 1088.20397,538.280328 1095.28825,534.286844 C1102.37253,530.29336 1108.16867,523.852353 1112.67685,514.963631 C1117.18502,506.074908 1120.4695,494.545506 1122.53038,480.375079 C1124.59126,466.204652 1125.62169,449.071574 1125.62169,428.975332 C1125.62169,392.64751 1120.14756,366.497023 1109.19913,350.523087 C1098.2507,334.549151 1080.02506,326.562302 1054.52166,326.562302 C1051.68795,326.562302 1048.59667,326.755533 1045.24774,327.141999 C1041.89881,327.528465 1038.03472,327.979335 1033.65534,328.494624 L1033.65534,258.931056 L1044.86133,258.931056 C1076.03215,258.931056 1097.15586,252.232409 1108.23309,238.834915 C1119.31033,225.43742 1124.84886,200.059854 1124.84886,162.701455 C1124.84886,100.866864 1109.26369,69.9500316 1078.09286,69.9500316 C1047.17965,69.9500316 1031.72328,96.3581589 1031.72328,149.175206 L1032.10969,167.339026 Z" id="1963" sketch:type="MSShapeGroup"></path>
            </g>
        </g>
    </g>
</svg>