<?xml version="1.0" encoding="UTF-8" standalone="no"?>
<svg width="327px" height="41px" viewBox="0 0 327 41" version="1.1" xmlns="http://www.w3.org/2000/svg" xmlns:xlink="http://www.w3.org/1999/xlink" xmlns:sketch="http://www.bohemiancoding.com/sketch/ns">
    <!-- Generator: Sketch 3.0.4 (8054) - http://www.bohemiancoding.com/sketch -->
    <title>Imported Layers</title>
    <desc>Created with Sketch.</desc>
    <defs></defs>
    <g id="Page-1" stroke="none" stroke-width="1" fill="none" fill-rule="evenodd" sketch:type="MSPage">
        <g id="Desktop-HD" sketch:type="MSArtboardGroup" transform="translate(-557.000000, -1303.000000)" fill="#FFFFFF">
            <g id="Bitmap-2" sketch:type="MSLayerGroup" transform="translate(480.000000, 1143.000000)">
                <g id="Imported-Layers" transform="translate(77.000000, 160.000000)" sketch:type="MSShapeGroup">
                    <path d="M187.454249,19.6077041 C188.722184,18.2302012 189.743489,16.9878284 190.902744,15.8948994 C192.348453,14.5317101 194.141315,13.831071 196.109793,13.6772604 C198.964745,13.4538225 201.311564,14.3461183 202.792781,17.0681302 C205.712509,14.3271953 209.322704,13.8752249 212.971285,13.6731361 C215.931799,13.5091361 218.887034,13.7114675 221.749664,14.596 C225.592814,15.7833018 227.285393,17.9398047 227.437497,22.0036568 C227.543058,24.829503 227.491477,27.6611716 227.523385,30.489929 C227.53802,31.7820355 227.569928,33.0746272 227.621509,34.3655207 C227.671171,35.5945503 228.194179,36.283787 229.108004,36.3944142 C230.09764,36.5142604 230.792905,35.9693728 231.102872,34.7320947 C231.238182,34.1925444 231.279927,33.6170888 231.284245,33.0571598 C231.303678,30.6813432 231.223547,28.3026154 231.307037,25.9294675 C231.549828,19.0256982 236.99343,13.7163195 243.646668,13.8509645 C246.568316,13.9101598 249.102026,14.948503 251.185662,17.0496923 C251.440448,17.3066095 251.694995,17.5637692 251.955299,17.8146213 C252.010719,17.8679941 252.09037,17.8956509 252.260467,17.9936627 C252.301012,17.7025385 252.369627,17.4536272 252.364589,17.2061716 C252.325963,15.2279822 252.372026,13.2415444 252.200969,11.2745148 C251.978091,8.7123787 250.900886,7.79849112 248.388048,7.74633136 C247.031586,7.71818935 247.031586,7.71818935 247.025588,6.37659172 C247.015752,4.1067929 247.015752,4.1065503 249.30979,4.1067929 C252.428166,4.1067929 255.546541,4.10436686 258.664917,4.10824852 C259.899744,4.10970414 259.907661,4.11576923 259.907901,5.36639053 C259.90982,13.5331538 259.904782,21.6996746 259.913659,29.8661953 C259.914858,30.7533964 259.96524,31.6430237 260.039613,32.5273136 C260.229623,34.7900769 261.168158,35.7408402 263.420932,36.0006686 C265.326792,36.2202249 265.334949,36.2202249 265.322954,38.209574 C265.312638,39.9027041 265.525439,39.7144438 263.876764,39.7202663 C260.638433,39.7311834 257.399621,39.6940651 254.16177,39.7428284 C253.301205,39.755929 253.045699,39.4718402 253.110236,38.6411657 C253.174292,37.8143728 253.12415,36.9786036 253.020269,36.0756331 C250.466166,38.8146272 247.477343,40.4626331 243.736156,40.5002367 C240.078938,40.5375976 236.942809,39.3393787 234.48587,36.5098935 C230.967081,42.4524675 223.651206,42.0582367 220.137696,35.7277396 C219.530958,36.2379349 218.95469,36.7663254 218.334757,37.2357633 C214.705369,39.9832485 210.655175,41.260071 206.17458,40.2365266 C202.817252,39.4694142 200.446921,37.4080118 199.815713,33.7922485 C199.277831,30.7121538 200.508819,28.2354142 203.244775,26.7055562 C205.370155,25.5167988 207.703299,24.9592959 210.063792,24.5250355 C212.027472,24.1640414 214.008905,23.9044556 215.973064,23.5451598 C216.712712,23.409787 217.458599,23.1967811 218.143067,22.8864911 C220.208709,21.9507692 220.596887,19.6118284 218.805944,18.216858 C217.899797,17.5113669 216.694239,17.029071 215.558016,16.8313491 C213.228231,16.425716 210.947628,16.8808402 208.779544,17.8534379 C208.392086,18.0273846 208.090037,18.1154497 208.400723,18.7074024 C209.373326,20.5606509 209.202029,21.961929 207.997191,22.9660651 C206.712222,24.0366746 204.373561,24.1443905 203.09339,23.0048817 C202.417318,22.4032249 202.103753,22.6201124 201.423363,22.9510237 C200.496823,23.4020237 199.376914,23.7234734 198.366405,23.6611243 C196.447589,23.5429763 195.313525,22.0800769 195.593263,20.1586568 C195.753284,19.0623314 195.307288,19.1244379 194.588271,19.2437988 C191.65055,19.7321598 189.581789,21.3736154 188.616623,24.201645 C187.591959,27.2033787 187.642101,30.3324793 188.131761,33.4310118 C188.398303,35.1185621 189.38626,35.7915444 191.418315,36.0125562 C193.06627,36.1920828 193.077546,36.1920828 193.063631,37.8922485 C193.046597,39.9759704 193.317938,39.7146864 191.305076,39.7197811 C186.387601,39.7316686 181.469886,39.6957633 176.55265,39.7467101 C175.584125,39.7568994 175.282796,39.457284 175.38044,38.5218047 C175.455293,37.8017574 175.156842,36.8767101 175.503995,36.4009645 C175.806764,35.986355 176.776008,36.0453077 177.457598,35.941716 C178.828935,35.7335621 179.723087,34.997503 180.049607,33.6185444 C180.151569,33.1893787 180.25929,32.746142 180.26001,32.3094556 C180.268167,28.7953432 180.358853,25.2766213 180.206269,21.768574 C180.09519,19.212503 178.969283,18.2942485 176.448768,18.1836213 C175.154443,18.1266095 175.154443,18.1266095 175.153004,16.7731243 C175.152524,16.4092189 175.185152,16.0419172 175.146286,15.6821361 C175.063277,14.9145385 175.212022,14.4288462 176.14264,14.5642189 C177.027196,14.6930414 176.830708,14.0251538 176.807916,13.5292722 C176.560327,8.0973787 172.844091,4.41514201 167.293968,4.13347929 C166.057461,4.07064497 164.813278,4.15968047 163.577252,4.09053846 C162.768508,4.0454142 162.577539,4.34988166 162.582577,5.12281657 C162.613045,9.85261538 162.591933,14.5828994 162.599371,19.3129408 C162.604888,22.7084201 162.60153,26.104142 162.649992,29.4988935 C162.705891,33.4205799 164.293869,35.1025503 168.21331,35.4945976 C168.959437,35.5693195 170.083184,35.4011953 170.359083,35.8099822 C170.759256,36.4029053 170.547894,37.4186864 170.593237,38.2546982 C170.602354,38.415787 170.577163,38.5800296 170.596596,38.7394201 C170.680565,39.4325385 170.36748,39.6397219 169.704363,39.6382663 C161.988315,39.6220118 154.272026,39.618858 146.555978,39.6419053 C145.797616,39.6443314 145.584335,39.3726154 145.632077,38.6511124 C145.693494,37.7258225 145.332187,36.5261479 145.783222,35.9460828 C146.190592,35.4230296 147.444372,35.5557337 148.329647,35.434432 C151.515198,34.997503 153.247123,32.8730237 153.277591,29.2191716 C153.312858,25.0148521 153.286228,20.8100473 153.286228,16.6054852 C153.286468,12.8456154 153.261997,9.08550296 153.304222,5.32611834 C153.314298,4.42533136 153.147559,4.00562722 152.13705,4.08423077 C150.905102,4.17981657 149.659959,4.09660355 148.420574,4.10873373 C143.510536,4.15701183 140.089871,7.03889941 139.153974,11.9074675 C139.085599,12.2640947 139.020583,12.6214497 138.961325,12.9797751 C138.623529,15.0239527 138.624489,15.0239527 136.536775,15.0239527 C134.173162,15.0239527 134.173402,15.0239527 134.173402,12.6158698 C134.173642,8.77521302 134.196434,4.93431361 134.155409,1.09389941 C134.146532,0.259343195 134.359094,-0.0024260355 135.2151,-0.000970414201 C150.287569,0.0247455621 165.360037,0.0252307692 180.432506,-0.00169822485 C181.32258,-0.0033964497 181.477563,0.330183432 181.471325,1.12373964 C181.440616,5.2067574 181.483081,9.29050296 181.438937,13.3732781 C181.428861,14.3063314 181.661095,14.6612604 182.633459,14.5950296 C183.907151,14.5079349 185.193079,14.6224438 186.469171,14.556213 C187.28823,14.5135148 187.495994,14.8342367 187.467205,15.5986805 C187.419222,16.8762308 187.454249,18.1566923 187.454249,19.6077041 L187.454249,19.6077041 Z M252.625613,27.718426 C252.539245,25.5638639 252.326443,23.4364734 251.385988,21.4653195 C250.412905,19.4259941 248.867153,18.1098698 246.568556,17.9895385 C244.327778,17.8723609 242.65991,18.9604379 241.479304,20.8318817 C239.304982,24.2778225 239.434534,30.4147219 241.729772,33.7798757 C244.369523,37.649645 249.328263,37.3061183 251.453404,33.1100473 C252.313008,31.4132781 252.556039,29.585503 252.625613,27.718426 L252.625613,27.718426 Z M219.709453,25.8807041 C217.056986,26.7089527 214.37573,27.4787337 211.748454,28.4054793 C210.881652,28.7111598 210.04244,29.3096627 209.391079,29.9748817 C208.436949,30.9489349 208.358258,32.2145976 208.887264,33.468858 C209.49688,34.9147751 211.156831,35.7289527 212.998875,35.5389941 C218.073253,35.015213 220.820245,30.9986686 219.709453,25.8807041 L219.709453,25.8807041 Z M46.8883933,31.9297811 C44.7786075,37.2675444 40.6655569,39.3619408 35.47962,39.7765503 C33.6502913,39.9228402 31.8082472,39.9546213 29.9719611,39.9580178 C20.4553734,39.975 10.9390257,39.9669941 1.42267792,39.9650533 C0.169137931,39.9648107 0.15306383,39.958503 0.160741012,38.7127337 C0.166258988,37.8291716 -0.0789310345,36.720716 0.350511372,36.1333728 C0.698623624,35.6573846 1.88234923,35.7900888 2.69924945,35.6835858 C5.59090829,35.3065799 7.30987748,33.5270828 7.66086867,30.4942959 C7.73044314,29.8938521 7.73668085,29.2837041 7.73716067,28.6781657 C7.74243874,22.8556805 7.74027953,17.0331953 7.74003962,11.2107101 C7.74003962,11.0086213 7.7436383,10.8062899 7.73788041,10.6042012 C7.61744461,6.32394675 5.69215114,4.34308876 1.45890462,4.14197041 C0.162660308,4.08034911 0.162660308,4.08034911 0.154503302,2.80110059 C0.136989729,0.0174674556 0.136989729,0.0174674556 2.88014307,0.0174674556 C12.3964908,0.0174674556 21.9130785,-0.00703550296 31.4294263,0.031295858 C34.5571585,0.0439112426 37.6592201,0.33552071 40.4956992,1.88697041 C44.2954248,3.96535503 46.289573,8.5687574 45.0974505,12.5981598 C44.3210954,15.221432 42.5428679,16.9279053 40.0950462,17.9584852 C39.3256486,18.2823609 38.5094681,18.4929408 37.4958401,18.8274911 C40.8989912,19.9934438 44.0492751,21.293071 45.97073,24.2227515 C46.8567249,22.5936686 47.5627858,20.8745799 48.6265554,19.4238107 C51.1916941,15.9247396 54.9091299,14.4009467 59.0461717,13.8943905 C62.5757564,13.4623136 66.0883074,13.6595503 69.3978929,15.1464675 C74.71938,17.5373254 77.8327175,21.5157811 77.9308415,27.5896036 C77.9327608,27.7092071 77.9507542,27.8292959 77.9701871,27.9476864 C77.9747454,27.9763136 78.0148107,27.9993609 78.0851049,28.0752959 C81.4035671,25.1938935 85.5593221,24.7276095 89.6390249,24.028426 C91.0943309,23.7790296 92.565471,23.5776686 93.9903081,23.2028462 C95.710237,22.7503905 96.5352942,21.8207337 96.5911937,20.5786036 C96.6511717,19.243071 95.7970851,18.0649882 94.2410161,17.3922485 C91.955135,16.4041243 89.6323074,16.6120355 87.3087601,17.2323728 C86.8090235,17.3660473 86.3320785,17.5848757 85.8371401,17.740142 C85.0905341,17.9737692 84.8431849,18.2595562 85.3669127,19.0582071 C86.0597784,20.1142604 86.0588188,21.3168462 85.3028562,22.3619822 C84.3448877,23.6865976 82.9320462,23.9595266 81.433796,23.6885385 C79.0581878,23.258645 77.918606,20.9568225 78.83435,18.5535917 C79.3839883,17.1115562 80.4729486,16.1923314 81.7867065,15.5101302 C84.1114534,14.3031775 86.6240514,13.8793491 89.1980668,13.7803669 C92.4414365,13.655426 95.6725708,13.6961834 98.7981438,14.7813491 C102.299899,15.9972781 103.966087,18.1166627 104.083644,21.8692544 C104.2036,25.7060296 104.167134,29.5478994 104.211277,33.3875858 C104.217275,33.9099112 104.250383,34.4402426 104.349467,34.9514083 C104.505649,35.7546686 105.018581,36.2408462 105.83908,36.2823314 C106.633428,36.3223609 107.287668,35.9853846 107.514865,35.1891598 C107.733665,34.4222899 107.865136,33.6173314 107.927514,32.8206213 C107.996608,31.9368166 107.976696,31.0413669 107.933751,30.1539231 C107.902563,29.5076272 108.15543,29.3453254 108.765766,29.3237337 C111.09723,29.2417337 111.09699,29.2194142 111.096511,31.5413728 C111.096271,32.6733609 111.104668,33.8058343 111.090033,34.9378225 C111.061244,37.147213 109.997474,38.7323846 108.052988,39.6229822 C105.614522,40.739929 103.092328,40.7731657 100.595084,39.7729112 C98.7237711,39.0237515 97.6890308,37.4490118 96.8483793,35.5637396 C96.3414453,36.0035799 95.9079244,36.3970828 95.45665,36.7692367 C92.1465847,39.4980414 88.3614938,40.8420651 84.107135,40.3151302 C79.8323837,39.7855266 77.4095128,37.3706509 76.4395488,32.9174201 C72.9325158,38.6947811 67.5812795,40.6043136 61.3855532,40.4133846 C55.1886273,40.2229408 50.0437153,37.8898225 46.8883933,31.9297811 L46.8883933,31.9297811 Z M17.3600293,28.565355 C17.3600293,30.7046331 17.3744241,32.8436686 17.3513925,34.9822189 C17.3441952,35.641858 17.551719,35.9058107 18.2445847,35.9002308 C21.9161974,35.8718462 25.5902091,35.9611243 29.2596625,35.864568 C33.3232913,35.7575799 36.3356258,32.9826805 36.6954938,29.2087396 C37.1067029,24.8967041 34.1709002,21.5310651 29.653358,21.3646391 C25.8665877,21.2248994 22.0719002,21.3221834 18.2812913,21.2717219 C17.5130932,21.2615325 17.3374776,21.5669704 17.3480337,22.2693077 C17.3797021,24.3675858 17.3593096,26.4665917 17.3600293,28.565355 L17.3600293,28.565355 Z M54.7030455,26.8865385 C54.7224784,29.3521183 55.1264901,31.6313787 56.399223,33.6830769 C58.3415503,36.8143609 61.9999677,37.8730828 65.1497718,36.0986805 C66.0211321,35.6076509 66.9217616,34.8677101 67.3963074,34.0086509 C69.8681203,29.5350414 70.0905187,24.8826331 67.5620866,20.3998047 C64.9578423,15.7828166 59.173325,15.8526864 56.40738,20.3813669 C55.1763918,22.3971598 54.7529472,24.6376036 54.7030455,26.8865385 L54.7030455,26.8865385 Z M23.8700404,17.0450828 C23.8700404,17.025432 23.8702803,17.0060237 23.8702803,16.9866154 C25.7883764,16.9866154 27.7148694,17.1042781 29.6228892,16.9630828 C34.2683045,16.6195562 36.8159296,11.9123195 34.6660785,7.72668047 C33.419496,5.29967456 31.3032326,4.21232544 28.691551,4.15337278 C25.2154666,4.07476923 21.7365033,4.14051479 18.2594593,4.08932544 C17.4593529,4.07743787 17.3458745,4.42339053 17.3494732,5.0978284 C17.3693859,8.73566864 17.3734644,12.3739941 17.3465943,16.0118343 C17.3410763,16.7706982 17.5310866,17.0902071 18.3542245,17.0635207 C20.1912304,17.0043254 22.0313551,17.0450828 23.8700404,17.0450828 L23.8700404,17.0450828 Z M96.6235818,27.7024142 C96.5943125,27.3006627 96.5374534,26.8986686 96.5415319,26.4971598 C96.5487293,25.7572189 96.3239318,25.6548402 95.6224292,25.9275266 C93.9543213,26.5762485 92.2406302,27.1056095 90.5473316,27.689071 C89.5308247,28.0396331 88.4732927,28.3084379 87.513405,28.7788462 C85.8121893,29.6126746 85.0550271,31.227929 85.4516016,32.8567692 C85.8160279,34.3529053 87.2989237,35.4019231 89.0997029,35.4371006 C93.560146,35.5244379 96.6075077,32.3822367 96.6235818,27.7024142 L96.6235818,27.7024142 Z M291.199138,31.6027515 C289.837877,35.2806213 287.578387,37.8514911 284.188671,39.2503432 C279.487116,41.1904438 274.703991,41.2013609 270.127671,38.9657692 C265.413161,36.6624911 262.895764,32.6129527 262.737663,27.3603432 C262.58076,22.1598935 264.70662,17.892497 269.384183,15.4924201 C274.798037,12.7146095 280.37623,12.8625976 285.66149,15.9625858 C289.676897,18.3177811 291.516062,22.1043373 291.709431,26.7443728 C291.798678,28.8870473 291.797958,28.8870473 289.72224,28.8870473 C284.125814,28.8872899 278.529147,28.8863195 272.932721,28.8877751 C271.552988,28.8882604 271.552988,28.8916568 271.817131,30.2975444 C272.603802,34.481 276.818335,37.2653609 281.250469,36.5477396 C283.881583,36.1219704 285.864216,34.8121538 286.964932,32.3041183 C287.189969,31.791497 287.475704,31.5666036 288.044296,31.5908639 C289.038011,31.6333195 290.034365,31.6027515 291.199138,31.6027515 L291.199138,31.6027515 Z M277.223307,25.1431893 C278.897412,25.1431893 280.571998,25.1194142 282.245384,25.1548343 C282.922175,25.1689053 283.152011,24.9306686 283.122742,24.2477396 C283.041652,22.3394201 282.557509,20.5885503 281.293653,19.1249231 C279.016649,16.4875799 274.903838,16.6886982 272.887138,19.5334675 C271.907337,20.9155799 271.520839,22.5051183 271.312836,24.164284 C271.21951,24.9064083 271.443108,25.1769112 272.20075,25.157503 C273.874136,25.1140769 275.548961,25.1439172 277.223307,25.1431893 Z M302.601674,19.4849467 C303.219927,18.7141953 303.804832,17.9131183 304.462191,17.177787 C306.910012,14.4392781 309.896676,13.1068994 313.573567,13.8424734 C316.847646,14.497503 318.837955,17.8129231 317.876388,20.8825858 C317.116827,23.3069231 314.240522,24.505142 312.022776,23.3129882 C310.774514,22.6419467 310.257264,21.5211183 310.490698,20.1766095 C310.671352,19.1348698 310.255105,19.1326864 309.485947,19.2306982 C306.28936,19.6382722 303.678878,22.0953609 303.117964,25.7125799 C302.77489,27.9246391 302.753058,30.227432 302.902043,32.4678757 C303.077659,35.1040059 304.048583,35.9356509 306.657625,36.0319645 C308.262636,36.0911598 307.973542,36.286213 307.981459,37.4902544 C307.995854,39.7234201 307.989136,39.7234201 305.784106,39.7234201 C300.988745,39.7234201 296.193385,39.7003728 291.398265,39.7437988 C290.502194,39.7518047 290.124812,39.5031361 290.275717,38.5924024 C290.282194,38.5531006 290.275237,38.511858 290.276676,38.4715858 C290.298269,37.7474142 290.060756,36.8146036 290.418225,36.3606923 C290.743065,35.9480237 291.713029,36.0474911 292.400857,35.9346805 C293.708377,35.7204615 294.614285,35.0355917 294.921612,33.6932663 C295.065079,33.0671065 295.216704,32.4225089 295.216944,31.7864024 C295.219343,28.4343491 295.258928,25.0786568 295.11882,21.7314556 C295.016377,19.2847988 293.89143,18.3255444 291.441689,18.1938107 C290.071792,18.1203018 290.071792,18.1203018 290.070592,16.729213 C290.068913,14.5739231 290.068913,14.5736805 292.183497,14.5736805 C295.220542,14.5736805 298.257828,14.6003669 301.294393,14.556213 C302.110814,14.544568 302.434695,14.7524793 302.389351,15.6248817 C302.323376,16.893213 302.372558,18.1678521 302.372558,19.4398225 C302.44885,19.4548639 302.525142,19.4699053 302.601674,19.4849467 Z M111.473652,26.6594615 L111.473652,20.962645 C111.473652,18.2141893 111.473652,18.2141893 108.814708,18.2127337 C108.535211,18.2127337 108.253074,18.1879882 107.976216,18.2158876 C107.343328,18.2804201 107.123089,17.9897811 107.151398,17.3740533 C107.188345,16.5678817 106.90141,15.5797574 107.268236,15.0064852 C107.584439,14.5118166 108.6187,14.4807633 109.339395,14.2580533 C112.844029,13.1755562 115.182211,11.0340947 115.659156,7.18324852 C115.685307,6.97242604 115.81318,6.60221302 115.905786,6.59833136 C116.861115,6.55805917 117.820523,6.55247929 118.772974,6.61968047 C118.871817,6.62671598 118.99945,7.16505325 119.002329,7.45787574 C119.022722,9.4777929 119.05391,11.4994083 118.994652,13.5176272 C118.968982,14.3846923 119.257836,14.620503 120.081933,14.5909053 C121.718133,14.5324379 123.358171,14.5991538 124.99557,14.5615503 C125.64981,14.5465089 125.888762,14.7253077 125.908435,15.4327396 C125.985447,18.2134615 126.011357,18.2127337 123.283318,18.2129763 C122.164609,18.2129763 121.04494,18.2394201 119.92743,18.2032722 C119.279908,18.1821657 118.998731,18.3701834 119.002329,19.0831953 C119.025841,23.9313846 118.998491,28.7798166 119.037596,33.6280059 C119.042635,34.2483432 119.175306,35.0021124 119.541891,35.4480178 C119.920712,35.9082367 120.641168,36.259284 121.240708,36.3099882 C121.965962,36.3711243 122.522558,35.7859645 122.589973,35.0203077 C122.716886,33.5768166 122.800855,32.1245917 122.797257,30.6762485 C122.795098,29.8705621 122.962556,29.5495976 123.842553,29.5576036 C126.176177,29.5789527 126.176657,29.5345562 126.176417,31.8865976 C126.176417,32.3715621 126.179296,32.856284 126.175697,33.3410059 C126.145468,37.6620178 123.763862,40.2258521 119.503026,40.428426 C118.516988,40.4754911 117.497602,40.3840296 116.531476,40.1766036 C113.526099,39.5305503 111.711165,37.3609467 111.586411,34.1697396 C111.488527,31.6699527 111.566738,29.1631302 111.566738,26.6594615 L111.473652,26.6594615 Z M326.806391,10.8249704 C326.806391,13.2005444 324.897652,15.1061953 322.475021,15.1061953 C320.05215,15.1061953 318.118939,13.2005444 318.118939,10.8249704 C318.118939,8.47389941 320.05215,6.56849112 322.475021,6.56849112 C324.897652,6.56849112 326.806391,8.47389941 326.806391,10.8249704 Z M319.416143,10.849716 C319.416143,12.6313964 320.713107,14.0418935 322.475021,14.0418935 C324.236934,14.0418935 325.534138,12.6313964 325.534138,10.8249704 C325.534138,9.0677929 324.236934,7.6325503 322.45055,7.6325503 C320.713107,7.6325503 319.416143,9.0677929 319.416143,10.849716 L319.416143,10.849716 Z M321.936658,12.8541065 L320.737338,12.8541065 L320.737338,8.91956213 C321.006759,8.8698284 321.643006,8.79559172 322.45055,8.79559172 C323.331506,8.79559172 323.723043,8.91956213 324.016695,9.09253846 C324.261405,9.2657574 324.432702,9.56270414 324.432702,9.95887574 C324.432702,10.3548047 324.065877,10.701 323.527274,10.849716 L323.527274,10.8992071 C323.967753,11.0476805 324.212463,11.3446272 324.335058,11.9135325 C324.457173,12.4829231 324.530586,12.7056331 324.604239,12.8541065 L323.258093,12.8541065 C323.135738,12.7056331 323.062325,12.3591953 322.988912,12.0127574 C322.915499,11.6168284 322.719731,11.4186213 322.327955,11.4186213 L321.936658,11.4186213 L321.936658,12.8541065 L321.936658,12.8541065 Z M321.9856,10.6020178 L322.327955,10.6020178 C322.768673,10.6020178 323.062325,10.4287988 323.062325,10.1320947 C323.062325,9.81040237 322.793144,9.63718343 322.376897,9.63718343 C322.23031,9.63718343 322.083484,9.66168639 321.9856,9.66168639 L321.9856,10.6020178 L321.9856,10.6020178 Z" id="Fill-1"></path>
                </g>
            </g>
        </g>
    </g>
</svg>