<?xml version="1.0" encoding="UTF-8" standalone="no"?>
<svg width="337px" height="70px" viewBox="0 0 337 70" version="1.1" xmlns="http://www.w3.org/2000/svg" xmlns:xlink="http://www.w3.org/1999/xlink" xmlns:sketch="http://www.bohemiancoding.com/sketch/ns">
    <!-- Generator: Sketch 3.2.1 (9977) - http://www.bohemiancoding.com/sketch -->
    <title>methodist</title>
    <desc>Created with Sketch.</desc>
    <defs></defs>
    <g id="Page-1" stroke="none" stroke-width="1" fill="none" fill-rule="evenodd" sketch:type="MSPage">
        <g id="1c" sketch:type="MSLayerGroup" transform="translate(-425.000000, -546.000000)" fill="#7F8C8D">
            <g id="methodist" transform="translate(426.000000, 547.000000)" sketch:type="MSShapeGroup">
                <path d="M116.459744,14.5690625 L116.36812,14.5690625 L106.744744,38.125375 L94.8322009,38.125375 L95.1815171,14.5690625 L95.0913248,14.5690625 L90.1049786,38.125375 L79.1015171,38.125375 L86.0792521,5.1649375 L104.129167,5.1649375 L103.565107,24.7954375 L103.655299,24.7954375 L111.403248,5.1649375 L129.453162,5.1649375 L122.475427,38.125375 L111.473397,38.125375 L116.459744,14.5690625" id="Fill-41"></path>
                <path d="M322.073868,36.0481875 C321.727415,37.5173125 322.597842,38.096625 323.962179,38.096625 C325.280705,38.096625 326.718056,37.5719375 327.033013,36.084125 C327.382329,34.433875 325.747415,34.433875 324.629316,34.0443125 C324.098184,33.8631875 323.584231,33.8171875 323.741709,33.074 C323.906346,32.294875 324.831175,32.059125 325.472543,32.059125 C326.1225,32.059125 326.683697,32.312125 326.56344,33.0466875 L327.512607,33.0466875 C327.780321,31.777375 326.793932,31.2785625 325.682991,31.2785625 C324.463248,31.2785625 323.061688,31.8046875 322.761047,33.2278125 C322.450385,34.6969375 324.186944,34.9413125 325.210556,35.1770625 C325.730235,35.2863125 326.198376,35.549375 326.063803,36.1833125 C325.870534,37.1004375 324.921368,37.3175 324.181218,37.3175 C323.305064,37.3175 322.845513,36.9725 323.021603,36.0481875 L322.073868,36.0481875" id="Fill-42"></path>
                <path d="M332.802457,37.9615 L333.70438,37.9615 L335.088761,31.415125 L333.581261,31.415125 L330.597756,36.8100625 L330.580577,36.8100625 L329.841859,31.415125 L328.225556,31.415125 L326.842607,37.9615 L327.74453,37.9615 L328.990043,32.06775 L329.008654,32.06775 L329.849017,37.9615 L330.69797,37.9615 L334.029359,32.06775 L334.04797,32.06775 L332.802457,37.9615" id="Fill-43"></path>
                <path d="M90.9782692,63.5935625 L91.6282265,60.527375 L84.4973077,60.527375 L87.1973504,47.7839375 L82.8366239,47.7839375 L79.4866239,63.5935625 L90.9782692,63.5935625" id="Fill-44"></path>
                <path d="M97.4220085,56.6964375 C97.7956624,55.44725 98.3625855,54.4194375 99.8156838,54.3533125 C100.457051,54.30875 100.876517,54.593375 101.105577,55.053375 C101.336068,55.513375 101.384744,56.1041875 101.260192,56.6964375 L97.4220085,56.6964375 M104.711838,58.928875 C105.579402,54.834875 104.704679,52.27325 100.256624,52.27325 C96.9638889,52.27325 93.9517521,54.2440625 93.2130342,57.72425 C92.2996581,62.0381875 93.6453846,63.9213125 98.0275855,63.9213125 C99.3146154,63.9213125 100.587329,63.6798125 101.675363,63.0674375 C102.852158,62.4550625 103.96453,61.4258125 104.39688,60.0026875 L100.558697,60.0026875 C100.187906,61.0305 99.3532692,61.5781875 98.1979487,61.5781875 C96.6489316,61.5781875 96.5386966,60.352 96.8622436,58.928875 L104.711838,58.928875" id="Fill-45"></path>
                <path d="M116.67735,50.850125 L119.055278,50.850125 C120.080321,50.850125 120.708803,51.4855 120.518397,52.3825 C120.263568,53.587125 119.401731,54.047125 118.224936,54.047125 L115.995897,54.0686875 L116.67735,50.850125 L116.67735,50.850125 Z M114.627265,60.527375 L115.351667,57.111875 L118.207756,57.111875 C119.175534,57.178 119.609316,58.0103125 119.423205,58.88575 C119.21562,59.8704375 118.269316,60.527375 117.178419,60.527375 L114.627265,60.527375 L114.627265,60.527375 Z M117.009487,63.5935625 C117.161239,63.5935625 122.940705,63.89975 123.914209,59.3011875 C124.392372,57.04575 122.975064,55.7103125 120.942158,55.4256875 L120.950748,55.3825625 C122.787521,55.053375 124.67297,53.87175 125.085278,51.9225 C125.675107,49.142375 123.471838,47.8069375 120.511239,47.7839375 L112.966581,47.7839375 L109.616581,63.5935625 L117.009487,63.5935625 L117.009487,63.5935625 Z" id="Fill-46"></path>
                <path d="M133.415897,52.27325 C129.992885,52.27325 126.672949,54.047125 125.815406,58.0965625 C124.956432,62.1474375 127.524765,63.9213125 130.949209,63.9213125 C134.372222,63.9213125 137.692158,62.1474375 138.549701,58.0965625 C139.408675,54.047125 136.840342,52.27325 133.415897,52.27325 M130.067329,58.0965625 C130.396603,56.542625 131.162521,54.6810625 132.906239,54.6810625 C134.651389,54.6810625 134.627051,56.542625 134.297778,58.0965625 C133.968504,59.6519375 133.204017,61.5135 131.458868,61.5135 C129.71515,61.5135 129.738056,59.6519375 130.067329,58.0965625" id="Fill-47"></path>
                <path d="M146.011325,52.601 L141.80235,52.601 C141.66062,53.7840625 141.544658,54.441 141.335641,55.4256875 L139.604808,63.5935625 L143.747927,63.5935625 L145.083632,57.28725 C145.112265,57.155 145.32844,54.901 147.378526,54.901 C148.664124,54.901 148.679872,56.0610625 148.496624,57.1334375 L147.127991,63.5935625 L151.271111,63.5935625 L152.83015,56.2364375 C153.344103,53.805625 151.925363,52.27325 149.570342,52.27325 C148.174509,52.27325 146.990556,52.7116875 145.820919,53.805625 L146.011325,52.601" id="Fill-48"></path>
                <path d="M158.178697,63.5935625 L159.514402,57.28725 C159.543034,57.155 159.759209,54.901 161.807863,54.901 C163.094893,54.901 163.110641,56.0610625 162.927393,57.1334375 L161.558761,63.5935625 L165.70188,63.5935625 L167.260919,56.2364375 C167.774872,53.805625 166.356132,52.27325 163.999679,52.27325 C162.605278,52.27325 161.421325,52.7116875 160.251688,53.805625 L161.527265,47.7839375 L157.385577,47.7839375 L154.035577,63.5935625 L158.178697,63.5935625" id="Fill-49"></path>
                <path d="M173.219338,56.6964375 C173.592991,55.44725 174.159915,54.4194375 175.613013,54.3533125 C176.255812,54.30875 176.673846,54.593375 176.904338,55.053375 C177.133397,55.513375 177.183504,56.1041875 177.057521,56.6964375 L173.219338,56.6964375 M180.509167,58.928875 C181.376731,54.834875 180.502009,52.27325 176.053953,52.27325 C172.761218,52.27325 169.749081,54.2440625 169.011795,57.72425 C168.096987,62.0381875 169.442714,63.9213125 173.826346,63.9213125 C175.111944,63.9213125 176.384658,63.6798125 177.474124,63.0674375 C178.650919,62.4550625 179.763291,61.4258125 180.195641,60.0026875 L176.357457,60.0026875 C175.986667,61.0305 175.150598,61.5781875 173.995278,61.5781875 C172.447692,61.5781875 172.336026,60.352 172.659573,58.928875 L180.509167,58.928875" id="Fill-50"></path>
                <path d="M189.257821,63.5935625 L193.465363,63.5935625 C193.607094,62.4105 193.724487,61.7535625 193.933504,60.768875 L195.664338,52.601 L191.521218,52.601 L190.184081,58.9073125 C190.15688,59.038125 189.940705,61.2935625 187.89062,61.2935625 C186.605021,61.2935625 186.589274,60.1335 186.772521,59.061125 L188.141154,52.601 L183.998034,52.601 L182.438996,59.958125 C181.923611,62.3889375 183.343782,63.9213125 185.698803,63.9213125 C187.094637,63.9213125 188.277158,63.482875 189.446795,62.3889375 L189.257821,63.5935625" id="Fill-51"></path>
                <path d="M202.506068,52.601 L198.297094,52.601 C198.155363,53.7840625 198.03797,54.441 197.830385,55.4256875 L196.099551,63.5935625 L200.242671,63.5935625 L201.174658,59.1919375 C201.55547,57.0903125 202.570491,55.798 204.733675,55.7764375 C205.017137,55.7764375 205.300598,55.7764375 205.601239,55.798 L206.348547,52.27325 C204.52609,52.2286875 203.044359,52.8425 202.178226,54.6595 L202.135278,54.6595 L202.506068,52.601" id="Fill-52"></path>
                <path d="M159.691923,22.2453125 L156.717009,22.2453125 L158.155791,15.441625 L161.132137,15.441625 L161.920962,11.7185 L173.817756,7.8559375 L172.211474,15.441625 L177.202115,15.441625 L175.761902,22.2453125 L170.771261,22.2453125 L169.27235,29.325 C168.902991,31.0715625 169.326752,31.6695625 170.653868,31.6695625 C171.432671,31.6695625 172.347479,31.6695625 173.414038,31.3935625 L171.973825,38.19725 C169.338205,38.74925 166.585192,39.20925 164.38765,39.20925 C160.084188,39.20925 156.38344,37.8766875 157.472906,32.7275625 L159.691923,22.2453125" id="Fill-53"></path>
                <path d="M181.12047,5.327375 L192.199808,5.327375 L189.396688,18.5681875 L189.488312,18.5681875 C191.617137,16.085625 193.776026,14.751625 197.531175,14.751625 C202.153889,14.751625 205.009979,17.0501875 203.715791,23.1653125 L200.466004,38.51925 L189.385235,38.51925 L192.41312,24.221875 C192.772457,22.5213125 192.29,21.55675 190.962885,21.55675 C189.725962,21.55675 188.609295,22.2913125 188.219893,24.129875 L185.173397,38.51925 L174.09406,38.51925 L181.12047,5.327375" id="Fill-54"></path>
                <path d="M252.448269,23.3953125 C252.455427,22.0613125 251.751068,21.28075 250.514145,21.28075 C248.224979,21.28075 247.476239,23.3033125 246.698868,26.9804375 C246.036026,30.107 245.765449,32.6815625 248.146239,32.6815625 C249.383162,32.6815625 250.003056,32.1295625 250.469765,31.4395625 C250.936474,30.7495625 251.365962,29.371 251.871325,26.9804375 C252.29938,24.957875 252.426795,24.359875 252.448269,23.3953125 M250.451154,35.8526875 C247.974444,38.47325 245.116923,39.20925 242.598697,39.20925 C237.0125,39.20925 233.94453,34.888125 235.676795,26.7044375 C237.526453,17.9701875 242.648803,14.751625 247.638013,14.751625 C250.202051,14.751625 252.474038,15.487625 253.867009,17.5561875 L256.455385,5.327375 L267.534722,5.327375 L260.508312,38.51925 L250.070342,38.51925 L250.451154,35.8526875" id="Fill-55"></path>
                <path d="M271.052222,5.327375 L282.13156,5.327375 L280.63265,12.4070625 L269.553312,12.4070625 L271.052222,5.327375 M268.910513,15.441625 L279.991282,15.441625 L275.10515,38.51925 L264.025812,38.51925 L268.910513,15.441625" id="Fill-56"></path>
                <path d="M205.213269,29.569375 C205.213269,35.882875 209.357821,39.2193125 217.619722,39.2193125 C222.457179,39.2193125 226.210897,38.0146875 229.066987,35.5335625 C231.691154,33.2536875 233.596645,29.345125 233.596645,24.4015625 C233.596645,18.1311875 228.898056,14.929875 221.138654,14.929875 C215.897479,14.929875 212.043547,16.453625 209.443718,18.9016875 C206.523205,21.64875 205.213269,25.7945 205.213269,29.569375 M222.418526,23.342125 C222.418526,24.7206875 222.059188,26.7188125 221.633996,28.612 C220.836581,32.15975 219.642607,32.9460625 218.255363,32.9460625 C217.037051,32.9460625 216.391389,32.42425 216.391389,30.403125 C216.391389,29.3666875 216.631902,27.7538125 217.178782,25.46675 C217.874551,22.563 218.939679,21.1959375 220.524487,21.1959375 C221.692692,21.1959375 222.418526,21.781 222.418526,23.342125" id="Fill-57"></path>
                <path d="M139.063654,29.0935625 L154.731346,29.0935625 C155.251026,27.3196875 155.349808,25.5875 155.349808,24.27075 C155.349808,18.4330625 151.805107,14.7961875 143.660598,14.7961875 C138.814551,14.7961875 134.808868,16.3141875 132.282051,18.837 C129.778141,21.335375 128.221966,25.93825 128.221966,29.6168125 C128.221966,32.66 129.304274,35.440125 131.208333,36.8675625 C133.344316,38.4689375 135.875427,39.212125 140.665641,39.212125 C143.32703,39.212125 146.991987,38.556625 148.940427,37.6294375 C151.976902,36.18475 153.790769,33.7136875 154.195919,31.06725 L143.969829,31.06725 C143.495962,32.6873125 142.745791,33.465 141.203932,33.465 C139.649188,33.465 138.763013,32.4918125 138.763013,30.920625 C138.763013,30.426125 138.854637,29.6225625 139.063654,29.0935625 M140.019979,24.1715625 C140.081538,23.5635 140.350684,22.703875 140.614103,22.1835 C141.203932,21.0176875 141.988462,20.616625 143.269765,20.616625 C144.529594,20.616625 145.299808,21.162875 145.34562,22.4350625 C145.358504,22.801625 145.233953,23.416875 145.044979,24.1715625 L140.019979,24.1715625" id="Fill-58"></path>
                <path d="M318.824081,22.66075 L323.814722,22.66075 L325.342265,15.441625 L320.353056,15.441625 L321.957906,7.8559375 L310.061111,11.7185 L309.272286,15.441625 L306.297372,15.441625 L304.997457,21.5811875 L304.997457,21.1700625 C304.997457,16.376 300.396218,14.927 294.117115,14.927 C289.636132,14.927 286.625427,15.723375 284.390662,17.2140625 C282.028483,18.788125 280.83594,21.7393125 280.83594,23.51175 C280.83594,27.01925 282.851667,28.7255625 287.936795,29.6340625 L289.684808,29.946 C292.864444,30.5138125 293.676175,30.897625 293.676175,32.0203125 C293.676175,33.410375 292.625363,34.0443125 291.16797,34.0443125 C289.603205,34.0443125 288.864487,33.364375 288.864487,32.085 C288.864487,31.5085625 288.944658,31.22825 289.029124,30.79125 L279.361368,30.79125 C279.159509,31.294375 278.999167,32.2043125 278.999167,32.8339375 C278.999167,36.71375 282.539573,39.23225 290.413504,39.23225 C294.195855,39.23225 297.951004,38.4056875 300.243034,36.9480625 C302.579444,35.463125 304.008205,32.9661875 304.008205,30.0739375 C304.008205,26.349375 301.467073,24.794 296.366197,23.9501875 L295.846517,23.8639375 C291.753504,23.186875 291.149359,22.997125 291.149359,21.7925 C291.149359,21.07375 291.845128,20.110625 293.482906,20.110625 C295.006154,20.110625 295.779231,20.6094375 295.528697,22.66075 L307.744744,22.66075 L305.613056,32.7275625 C304.52359,37.8766875 308.224338,39.20925 312.527799,39.20925 C314.725342,39.20925 317.478355,38.74925 320.113974,38.19725 L321.554188,31.3935625 C320.48906,31.6695625 319.572821,31.6695625 318.794017,31.6695625 C317.466902,31.6695625 317.043141,31.0715625 317.413932,29.325 L318.824081,22.66075" id="Fill-59"></path>
                <path d="M68.1524573,33.0208125 C67.9334188,27.232 66.2598504,21.56825 63.292094,16.5930625 L43.0460684,31.5718125 L68.1524573,33.0208125" id="Fill-60"></path>
                <path d="M63.0930983,16.263875 C60.1611325,11.4726875 56.0151496,7.3384375 50.8026068,4.37575 L40.5307051,27.4174375 L63.0930983,16.263875" id="Fill-61"></path>
                <path d="M64.3343162,50.1040625 C67.0858974,44.7766875 68.3142308,39.0381875 68.1639103,33.4060625 L43.1978205,36.4334375 L64.3343162,50.1040625" id="Fill-62"></path>
                <path d="M50.4661752,4.1874375 C45.2207051,1.2808125 39.5428846,-0.09775 33.9423718,-0.094875 L36.3031197,25.0455625 L50.4661752,4.1874375" id="Fill-63"></path>
                <path d="M57.3966667,59.342875 C59.8848291,56.9896875 62.0637607,54.2210625 63.8189316,51.06575 C63.9348932,50.8601875 64.0465598,50.6531875 64.1553632,50.4461875 L48.1369231,43.7445625 C52.1741026,48.3848125 55.2878846,53.6834375 57.3966667,59.342875" id="Fill-64"></path>
                <path d="M4.3907906,16.9064375 C4.27196581,17.109125 4.15457265,17.31325 4.04004274,17.5188125 C2.28344017,20.674125 1.0765812,23.9875625 0.386538462,27.3484375 C6.29055556,26.1869375 12.4164744,26.073375 18.4679487,27.0954375 L4.3907906,16.9064375" id="Fill-65"></path>
                <path d="M32.4248504,36.9969375 C22.1644017,31.23975 10.9347436,28.867875 0.0114529915,29.517625 C-1.88831197,43.1551875 4.53395299,57.1823125 17.2252991,64.305125 C29.9152137,71.4265 45.1806197,69.56925 55.7517308,60.7990625 C50.5792735,51.1160625 42.6838675,42.754125 32.4248504,36.9969375" id="Fill-66"></path>
                <path d="M33.5586966,-0.092 C27.782094,-0.0244375 22.1014103,1.51225 17.0764103,4.3585 L31.4599359,25.07 L33.5586966,-0.092" id="Fill-67"></path>
                <path d="M16.7442735,4.5496875 C11.8882051,7.3729375 7.66348291,11.4295625 4.58549145,16.574375 L27.2581197,27.487875 L16.7442735,4.5496875" id="Fill-68"></path>
                <path d="M214.458697,63.5935625 L215.971923,56.4549375 L223.450726,56.4549375 L221.938932,63.5935625 L224.119295,63.5935625 L227.467863,47.7839375 L225.2875,47.7839375 L223.85015,54.5718125 L216.369915,54.5718125 L217.808697,47.7839375 L215.628333,47.7839375 L212.278333,63.5935625 L214.458697,63.5935625" id="Fill-69"></path>
                <path d="M230.618868,57.04575 C230.998248,55.2503125 232.333953,53.7840625 234.057628,53.7840625 C236.063333,53.7840625 236.590171,55.2071875 236.156389,57.04575 L230.618868,57.04575 M238.031816,58.491875 L238.249423,57.462625 C238.893654,54.4194375 237.787009,52.339375 234.530064,52.27325 C231.062671,52.27325 228.878013,54.9656875 228.19656,58.18425 C227.50938,61.4258125 228.376944,63.9213125 231.887286,63.9213125 C234.504295,63.9213125 236.687521,62.6735625 237.543632,60.176625 L235.363269,60.176625 C234.784893,61.775125 233.842885,62.4105 232.229444,62.4105 C230.113504,62.4105 229.751303,60.418125 230.3125,58.491875 L238.031816,58.491875" id="Fill-70"></path>
                <path d="M245.638034,56.8056875 C243.043932,56.8056875 240.127714,57.7026875 239.473462,60.7904375 C239.019637,62.936625 240.728996,63.9213125 242.625897,63.9213125 C244.130534,63.9213125 245.477692,63.3305 246.44547,61.9505 L246.48985,61.9505 C246.403953,62.4550625 246.346688,62.936625 246.283697,63.43975 C246.249338,63.7028125 246.643034,63.5935625 246.839167,63.5935625 L248.235,63.5935625 C248.363846,62.6735625 248.537073,61.7535625 248.638718,61.272 L249.752521,56.0165 C250.402479,52.95175 248.322329,52.27325 246.076111,52.27325 C243.917222,52.27325 241.86141,53.127125 241.241517,55.5349375 L243.42188,55.5349375 C243.685299,54.3964375 244.796239,53.7840625 245.842756,53.7840625 C248.044594,53.7840625 247.917179,54.901 247.513462,56.8056875 L245.638034,56.8056875 M247.208526,58.250375 C246.820556,60.2873125 245.912906,62.4105 243.470556,62.4105 C242.24938,62.4105 241.454829,61.732 241.742585,60.3735625 C242.080449,58.7765 243.857094,58.3165 245.136966,58.250375 L247.208526,58.250375" id="Fill-71"></path>
                <path d="M253.805449,63.5935625 L257.155449,47.7839375 L255.083889,47.7839375 L251.733889,63.5935625 L253.805449,63.5935625" id="Fill-72"></path>
                <path d="M258.210556,52.5363125 L257.881282,54.09025 L259.761004,54.0686875 L258.282137,61.0535 C257.971474,62.51975 258.070256,62.5643125 258.32938,63.089 C258.577051,63.5705625 259.085278,63.7459375 259.397372,63.8120625 C259.881261,63.89975 260.269231,63.9213125 260.770299,63.9213125 C261.249893,63.9213125 261.730919,63.8120625 262.214808,63.7905 L262.554103,62.192 C262.209081,62.2796875 261.763846,62.3228125 261.436004,62.3228125 C260.694423,62.3228125 260.163291,61.9505 260.329359,61.16275 L261.832564,54.0686875 L264.357949,54.09025 L264.687222,52.5363125 L262.143226,52.601 L262.778868,49.602375 L260.56844,50.2593125 L260.073098,52.601 L258.210556,52.5363125" id="Fill-73"></path>
                <path d="M266.848974,63.5935625 L268.045812,57.9441875 C268.17609,57.330375 268.21188,56.542625 268.933419,55.404125 C269.520385,54.484125 270.919081,53.84875 271.743697,53.87175 C273.674957,53.914875 273.912607,55.162625 273.504594,57.0903125 L272.12594,63.5935625 L274.1975,63.5935625 L275.77515,56.14875 C276.193184,54.1779375 275.702137,52.27325 272.846047,52.27325 C271.254081,52.27325 269.955598,52.8425 268.910513,54.0686875 L268.867564,54.0686875 L270.198974,47.7839375 L268.127415,47.7839375 L264.777415,63.5935625 L266.848974,63.5935625" id="Fill-74"></path>
                <path d="M287.696282,56.12575 C288.092842,53.7395 286.658355,52.27325 284.347714,52.27325 C280.880321,52.27325 278.695662,54.9656875 278.014209,58.18425 C277.32703,61.4258125 278.194594,63.9213125 281.704936,63.9213125 C284.125812,63.9213125 286.277543,62.4105 286.976175,59.9365625 L284.904615,59.9365625 C284.460812,61.5135 283.420021,62.4105 282.047094,62.4105 C280.062863,62.4105 279.666303,60.6811875 280.213184,58.0965625 C280.760064,55.513375 281.891047,53.7840625 283.875278,53.7840625 C285.357009,53.7840625 285.80797,54.7471875 285.624722,56.12575 L287.696282,56.12575" id="Fill-75"></path>
                <path d="M294.722692,56.8056875 C292.12859,56.8056875 289.212372,57.7026875 288.55812,60.7904375 C288.102863,62.936625 289.813654,63.9213125 291.710556,63.9213125 C293.215192,63.9213125 294.560919,63.3305 295.530128,61.9505 L295.573077,61.9505 C295.488611,62.4550625 295.429915,62.936625 295.366923,63.43975 C295.332564,63.7028125 295.726261,63.5935625 295.923825,63.5935625 L297.318226,63.5935625 C297.448504,62.6735625 297.621731,61.7535625 297.723376,61.272 L298.837179,56.0165 C299.485705,52.95175 297.405556,52.27325 295.159338,52.27325 C293.000449,52.27325 290.944637,53.127125 290.324744,55.5349375 L292.506538,55.5349375 C292.768526,54.3964375 293.880897,53.7840625 294.927415,53.7840625 C297.129252,53.7840625 297.001838,54.901 296.59812,56.8056875 L294.722692,56.8056875 M296.291752,58.250375 C295.903782,60.2873125 294.996132,62.4105 292.553782,62.4105 C291.332607,62.4105 290.539487,61.732 290.827244,60.3735625 C291.165107,58.7765 292.941752,58.3165 294.220192,58.250375 L296.291752,58.250375" id="Fill-76"></path>
                <path d="M304.066902,58.141125 C304.557949,55.8195625 305.313846,54.4194375 307.948034,54.33175 C308.231496,54.33175 308.559338,54.33175 308.819893,54.441 L309.236496,52.4701875 C308.997415,52.4701875 308.784103,52.448625 308.522115,52.448625 C307.017479,52.448625 305.459872,53.2148125 304.834252,54.725625 L304.789872,54.725625 L305.240833,52.601 L303.169274,52.601 L300.840021,63.5935625 L302.911581,63.5935625 L304.066902,58.141125" id="Fill-77"></path>
                <path d="M311.200684,57.04575 C311.581496,55.2503125 312.917201,53.7840625 314.640876,53.7840625 C316.646581,53.7840625 317.173419,55.2071875 316.739637,57.04575 L311.200684,57.04575 M318.615064,58.491875 L318.832671,57.462625 C319.476902,54.4194375 318.370256,52.339375 315.113312,52.27325 C311.645919,52.27325 309.461261,54.9656875 308.779808,58.18425 C308.092628,61.4258125 308.960192,63.9213125 312.470534,63.9213125 C315.087543,63.9213125 317.270769,62.6735625 318.12688,60.176625 L315.946517,60.176625 C315.366709,61.775125 314.426132,62.4105 312.812692,62.4105 C310.696752,62.4105 310.334551,60.418125 310.895748,58.491875 L318.615064,58.491875" id="Fill-78"></path>
            </g>
        </g>
    </g>
</svg>