<?xml version="1.0" encoding="UTF-8" standalone="no"?>
<svg width="329px" height="39px" viewBox="0 0 329 39" version="1.1" xmlns="http://www.w3.org/2000/svg" xmlns:xlink="http://www.w3.org/1999/xlink" xmlns:sketch="http://www.bohemiancoding.com/sketch/ns">
    <!-- Generator: Sketch 3.2.1 (9977) - http://www.bohemiancoding.com/sketch -->
    <title>pwc</title>
    <desc>Created with Sketch.</desc>
    <defs></defs>
    <g id="Page-1" stroke="none" stroke-width="1" fill="none" fill-rule="evenodd" sketch:type="MSPage">
        <g id="1c" sketch:type="MSLayerGroup" transform="translate(0.000000, -807.000000)" fill="#7F8C8D">
            <g id="pwc" transform="translate(0.000000, 807.000000)" sketch:type="MSShapeGroup">
                <path d="M40.4808128,9.165 C39.026738,15.9208636 38.0023957,22.893 37.3007914,29.757 C37.3007914,29.757 36.0624599,29.7020455 35.5765989,29.7020455 C35.2257968,29.7020455 34.5768128,29.7250909 34.1681283,29.7410455 C34.1698824,29.7463636 34.1733904,29.7516818 34.1751444,29.757 C34.1751444,29.757 34.0979679,29.7534545 33.9769412,29.7499091 C33.8664385,29.7534545 33.7980321,29.757 33.7980321,29.757 C33.7997861,29.7516818 33.7997861,29.7481364 33.8015401,29.7428182 C33.3507594,29.7268636 32.6140749,29.7020455 32.2895829,29.7020455 C31.7511016,29.7020455 30.511016,29.757 30.511016,29.757 C29.1621818,26.598 27.222246,22.5118636 25.9839144,19.8970909 L25.1209412,19.8970909 C24.6350802,23.1110455 24.2035936,26.4880909 23.773861,29.757 C23.773861,29.757 22.5881497,29.7020455 22.1022888,29.7020455 C21.5638075,29.7020455 20.3780963,29.757 20.3780963,29.757 C21.5655615,24.2385 22.4986952,18.5781818 23.124877,12.948 C21.4006845,17.8549091 16.6034652,21.4216364 9.92068449,21.4216364 C8.35786096,21.4216364 7.1177754,21.3684545 6.7406631,21.3135 C5.87944385,27.2503636 5.12346524,32.2618636 4.31662032,38.2005 C4.31662032,38.2005 3.18352941,38.0374091 2.26793583,38.0374091 C1.29796791,38.0374091 1.0822246,38.0374091 0.164877005,38.1455455 C2.80641711,25.9438636 4.63935829,13.3060909 5.87944385,0.939545455 C5.87944385,0.939545455 7.54926203,1.04945455 8.52098396,1.04945455 L13.4795722,0.939545455 C17.7365561,0.831409091 23.8264813,1.5405 23.8264813,8.78386364 C23.8264813,8.91504545 23.8212193,9.04445455 23.8177112,9.17386364 C24.4193369,9.18804545 25.7225668,9.21995455 26.2522781,9.21995455 C29.2165561,9.165 34.768,8.51263636 34.768,13.3060909 C34.768,17.5553182 31.3722353,19.3528636 29.2709305,19.734 C30.5408342,22.4569091 32.3878075,26.3409545 33.9050267,29.2429091 C35.3012193,22.6483636 36.2957433,15.8552727 36.9780535,9.165 C36.9780535,9.165 38.218139,9.21995455 38.704,9.21995455 C39.2424813,9.21995455 40.4808128,9.165 40.4808128,9.165 L40.4808128,9.165 Z M19.676492,9.21995455 C19.676492,4.97072727 17.0893262,3.28309091 13.5321925,3.28309091 C12.3464813,3.28309091 10.1364278,3.39122727 9.65232086,3.44618182 C8.52098396,9.60109091 8.03512299,12.6519545 7.1177754,18.9717273 C7.49664171,19.0249091 8.52098396,19.1348182 9.86806417,19.1348182 C15.742246,19.1348182 19.676492,14.7225 19.676492,9.21995455 L19.676492,9.21995455 Z M26.0909091,18.1545 C29.3253048,18.1545 31.3722353,16.4101364 31.4266096,13.6322727 C31.4266096,12.0527727 30.2952727,10.9643182 28.1922139,10.9643182 C27.546738,10.9643182 26.8451337,10.9643182 26.5767701,11.0175 C25.9839144,14.1233182 25.9295401,14.9405455 25.4436791,18.0995455 C25.5524278,18.0995455 25.8207914,18.1545 26.0909091,18.1545 L26.0909091,18.1545 Z" id="Fill-2"></path>
                <path d="M43.5468235,22.2938182 C43.5468235,25.9988182 44.4097968,28.6118182 47.1039572,28.6118182 C49.9068663,28.6118182 51.9555508,26.325 51.9555508,26.325 L52.3870374,26.325 L51.7941818,28.8316364 C51.7398075,28.8848182 49.6367487,30.5192727 46.6724706,30.5192727 C43.4398289,30.5192727 40.1510588,28.1775 40.1510588,22.0225909 C40.1510588,15.4847727 44.3010481,9.05686364 50.176984,9.05686364 C52.7641497,9.05686364 54.8128342,10.4732727 54.8128342,10.4732727 C54.5427166,11.2905 54.1112299,12.597 54.0042353,13.4142273 L53.625369,13.4142273 C53.625369,13.3592727 52.3870374,10.9643182 50.015615,10.9643182 C46.0269947,10.9643182 43.5468235,17.7184091 43.5468235,22.2938182" id="Fill-3"></path>
                <path d="M93.4554439,6.76827273 C89.4142032,15.1036364 86.8252834,20.9323636 81.4895829,32.3717727 C80.7353583,32.2086818 79.8197647,32.2618636 78.9567914,32.3717727 C78.6340535,23.8201364 78.5253048,17.8265455 78.0411979,11.7265909 L69.7412193,32.3717727 C68.9326203,32.2086818 68.0152727,32.2618636 67.1540535,32.3717727 C66.5331337,24.5912727 66.0595508,18.2059091 65.2842781,11.3472273 C63.8670374,11.2444091 62.5988877,11.1805909 60.9571337,11.1805909 C60.4712727,11.1274091 59.7170481,11.1274091 59.4469305,11.1274091 C58.8540749,14.4495 58.7470802,14.7774545 58.2612193,18.0995455 C58.6383316,18.0995455 59.6082995,18.1545 60.2555294,18.1545 C61.9271016,18.1545 63.1128128,18.0445909 64.6756364,17.9364545 C64.5142674,18.6437727 64.3511444,19.4060455 64.459893,20.0601818 C62.8970695,19.8970909 61.334246,19.8421364 59.9327914,19.8421364 C58.9628235,19.7889545 58.8540749,19.8970909 57.9928556,19.8970909 C57.5069947,22.9479545 57.2912513,24.7455 56.8053904,28.0144091 C56.914139,27.9045 57.1298824,27.8495455 57.559615,27.8495455 C58.1542246,27.8495455 60.4168984,27.7963636 61.2798717,27.7414091 C62.7883209,27.6315 64.1897754,27.4134545 64.1897754,27.4134545 C63.9214118,28.1225455 63.8670374,29.1578182 63.9214118,29.757 L61.6026096,29.7020455 C60.4168984,29.6470909 58.6927059,29.6470909 57.4526203,29.6470909 C56.3756578,29.6470909 55.3513155,29.6470909 54.5953369,29.7020455 L53.6797433,29.7020455 L53.3570053,29.7020455 L53.3570053,29.5939091 C54.6497112,22.9479545 55.6740535,16.029 56.3756578,9.21995455 C56.3756578,9.21995455 58.3699679,9.27490909 59.0698182,9.27490909 L63.8126631,9.32986364 C64.2178396,9.32986364 64.6265241,9.31922727 65.0439786,9.30504545 C64.944,8.47009091 64.8387594,7.62627273 64.7282567,6.76827273 C64.7282567,6.76827273 65.9683422,6.82322727 66.4524492,6.82322727 C66.9383102,6.82322727 68.0696471,6.76827273 68.0696471,6.76827273 C68.5011337,14.0134091 69.0939893,20.5512273 69.7412193,27.5233636 C71.1426738,23.9832273 75.8855187,11.8896818 77.7167059,6.76827273 C78.5253048,6.93313636 79.9267594,6.87818182 80.7897326,6.76827273 C81.1142246,13.6322727 81.3825882,20.4413182 81.7053262,27.5233636 C83.2699037,23.9832273 88.8195936,11.6166818 90.6525348,6.76827273 C90.6525348,6.76827273 91.5698824,6.82322727 92.0539893,6.82322727 C92.5398503,6.82322727 93.4554439,6.76827273 93.4554439,6.76827273" id="Fill-4"></path>
                <path d="M97.6598075,9.21995455 C98.6841497,17.1192273 99.1156364,21.3684545 100.517091,29.757 C100.517091,29.757 99.2770053,29.6470909 98.7911444,29.6470909 C98.2526631,29.6470909 97.2283209,29.757 97.2283209,29.757 C97.0125775,26.9241818 96.4740963,22.8380455 96.4197219,22.1307273 C95.9882353,22.0757727 94.5867807,22.0225909 93.6168128,22.0225909 C92.6468449,22.0225909 91.1927701,22.1307273 90.8682781,22.1307273 C89.5755722,24.6905455 88.2811123,27.0340909 87.0954011,29.757 C87.0954011,29.757 86.2341818,29.7020455 85.7483209,29.7020455 C85.2098396,29.7020455 84.3468663,29.757 84.3468663,29.757 C87.4725134,24.5274545 90.4911658,18.5888182 95.449754,9.21995455 L97.6598075,9.21995455 L97.6598075,9.21995455 Z M96.2039786,20.4413182 L95.3427594,13.1961818 L91.676877,20.4413182 C92.1083636,20.4962727 93.1870802,20.4962727 93.9413048,20.4962727 C94.6955294,20.4962727 95.8268663,20.4962727 96.2039786,20.4413182 L96.2039786,20.4413182 Z" id="Fill-5"></path>
                <path d="M107.031487,6.93313636 C105.684406,13.5241364 104.982802,18.6437727 104.282952,25.5077727 C104.282952,25.5077727 103.097241,25.3978636 102.61138,25.3978636 C102.072898,25.3978636 100.887187,25.5077727 100.887187,25.5077727 C102.341262,18.7536818 103.042866,13.4691818 103.851465,6.93313636 C101.641412,6.98631818 98.2456471,7.14940909 98.2456471,7.14940909 C98.5157647,6.49704545 98.6771337,5.73477273 98.6771337,4.91754545 C98.6771337,4.91754545 103.042866,4.97072727 105.737027,4.97072727 C108.378567,4.97072727 112.798674,4.91754545 112.798674,4.91754545 C112.528556,5.51672727 112.312813,6.33395455 112.367187,7.14940909 C112.367187,7.14940909 109.295914,6.98631818 107.031487,6.93313636" id="Fill-6"></path>
                <path d="M116.355807,22.1856818 C116.194439,22.893 116.031316,23.6552727 116.140064,24.3094091 C114.577241,24.1463182 113.014417,24.0913636 111.612963,24.0913636 C110.642995,24.0913636 110.534246,24.1463182 109.671273,24.1463182 C109.187166,27.2503636 108.971422,28.9947273 108.487316,32.3168182 C108.59431,32.2086818 108.810053,32.0987727 109.24154,32.0987727 C109.834396,32.0987727 112.09707,32.0455909 112.960043,31.9906364 C114.468492,31.9356818 115.869947,31.7176364 115.869947,31.7176364 C115.601583,32.4267273 115.547209,33.4602273 115.601583,34.0611818 L113.282781,33.9512727 L109.132791,33.9512727 C108.055829,33.9512727 107.031487,33.9512727 106.277262,34.0062273 L105.359914,34.0062273 L105.037176,34.0062273 L105.037176,33.8963182 C106.331636,27.2503636 107.354225,20.2782273 108.055829,13.4691818 C108.055829,13.4691818 110.050139,13.4691818 110.749989,13.5241364 L115.492834,13.5773182 C116.517176,13.5773182 117.541519,13.5241364 118.781604,13.4142273 C118.511487,14.0683636 118.350118,14.8306364 118.350118,15.6478636 C116.301433,15.5397273 114.792984,15.4298182 112.637305,15.3748636 L111.127102,15.3748636 C110.534246,18.6987273 110.427251,18.9717273 109.94139,22.3487727 C110.318503,22.3487727 111.290225,22.4019545 111.935701,22.4019545 C113.607273,22.4019545 114.792984,22.2938182 116.355807,22.1856818" id="Fill-7"></path>
                <path d="M146.637048,11.4535909 C145.181219,18.2076818 144.156877,25.1815909 143.457027,31.9906364 C143.457027,31.9906364 142.271316,31.9356818 141.785455,31.9356818 C141.246973,31.9356818 140.061262,31.9906364 140.061262,31.9906364 C140.869861,28.2856364 141.299594,25.4528182 141.892449,21.8577273 C141.299594,21.8577273 139.252663,21.8045455 137.851209,21.8045455 C136.611123,21.8045455 134.832556,21.8577273 134.346695,21.8577273 C133.862588,25.3446818 133.431102,28.2856364 133.053989,31.9906364 C133.053989,31.9906364 131.868278,31.9356818 131.382417,31.9356818 C130.843936,31.9356818 129.658225,31.9906364 129.658225,31.9906364 C129.819594,31.2425455 129.973947,30.4926818 130.123037,29.7410455 C129.670503,29.7250909 128.995209,29.7020455 128.688257,29.7020455 C128.149775,29.7020455 126.90969,29.757 126.90969,29.757 C125.56261,26.5430455 123.62092,22.5118636 122.382588,19.9520455 C122.221219,19.9520455 122.003722,19.8970909 121.842353,19.8970909 C121.358246,23.1110455 120.926759,26.4331364 120.495273,29.757 C120.495273,29.757 119.309561,29.6470909 118.823701,29.6470909 C118.285219,29.6470909 117.099508,29.757 117.099508,29.757 C118.555337,23.0029091 119.579679,16.029 120.279529,9.21995455 C120.279529,9.21995455 122.27384,9.27490909 122.975444,9.27490909 L125.61523,9.21995455 C127.986652,9.165 131.166674,9.87409091 131.166674,13.3592727 C131.166674,17.5553182 127.770909,19.3528636 125.669604,19.734 C126.923722,22.4214545 128.740877,26.1973636 130.245818,29.1223636 C131.392941,23.2847727 132.23662,17.3496818 132.838246,11.4535909 C132.838246,11.4535909 134.023957,11.5635 134.509818,11.5635 C135.048299,11.5635 136.234011,11.4535909 136.234011,11.4535909 C135.53416,14.6125909 135.155294,17.0093182 134.671187,20.0601818 C135.155294,20.0601818 136.718118,20.1151364 137.796834,20.1700909 C139.305283,20.1700909 141.624086,20.0601818 142.162567,20.0601818 C142.539679,17.0093182 142.916791,14.6125909 143.241283,11.4535909 C143.241283,11.4535909 144.426995,11.5635 144.911102,11.5635 C145.451337,11.5635 146.637048,11.4535909 146.637048,11.4535909 L146.637048,11.4535909 Z M122.489583,18.1545 C125.723979,18.2076818 127.770909,16.4650909 127.825283,13.6322727 C127.825283,12.1077273 126.693947,11.0175 124.590888,11.0175 L123.298182,11.0175 C122.705326,14.1233182 122.650952,14.9405455 122.166845,18.1545 L122.489583,18.1545 L122.489583,18.1545 Z" id="Fill-8"></path>
                <path d="M163.829861,17.5553182 C163.829861,23.2191818 160.218353,30.5192727 153.481198,30.5192727 C149.16984,30.5192727 146.421305,27.3053182 146.421305,22.0757727 C146.421305,16.3569545 150.085433,9.05686364 156.822588,9.05686364 C161.133947,9.05686364 163.829861,12.2708182 163.829861,17.5553182 L163.829861,17.5553182 Z M160.542845,17.2823182 C160.542845,14.2314545 159.841241,10.9643182 156.554225,10.9643182 C151.972749,10.9643182 149.762695,18.1545 149.762695,22.3487727 C149.762695,25.3446818 150.51692,28.6667727 153.751316,28.6667727 C158.332791,28.6667727 160.488471,21.4765909 160.542845,17.2823182 L160.542845,17.2823182 Z" id="Fill-9"></path>
                <path d="M191.748449,14.2864091 C191.425711,15.1036364 191.048599,16.2470455 190.93985,17.0642727 L190.508364,17.0642727 C190.508364,16.9561364 189.754139,14.6125909 187.275722,14.6125909 C185.065668,14.6125909 183.557219,16.2470455 183.557219,18.0445909 C183.557219,20.2232727 185.388406,21.0405 186.95123,21.9676364 C187.814203,22.4019545 188.677176,22.893 189.322652,23.6552727 C189.969882,24.4175455 190.455743,25.4528182 190.455743,27.1422273 C190.455743,30.4643182 187.59846,34.2774545 182.694246,34.2774545 C180.159701,34.2774545 177.951401,32.5348636 177.951401,32.5348636 C178.274139,31.7176364 178.705626,30.4643182 178.81262,29.7020455 L179.244107,29.7020455 C179.244107,29.757 180.375444,32.3717727 182.96261,32.3717727 C185.60415,32.3717727 187.328342,30.03 187.328342,27.9594545 C187.328342,26.5430455 186.467123,25.8889091 185.388406,25.2347727 C183.123979,23.8201364 180.75431,22.893 180.75431,19.5709091 C180.75431,15.5946818 183.448471,12.7618636 187.544086,12.7618636 C190.185626,12.7618636 191.694075,14.2314545 191.748449,14.2864091" id="Fill-10"></path>
                <path d="M178.435508,22.3487727 C177.574289,26.7061364 175.793968,30.5742273 170.512642,30.5742273 C165.931166,30.5742273 164.368342,28.0144091 164.368342,24.5274545 C164.368342,23.9282727 164.529711,22.9479545 164.69108,21.8045455 C164.852449,20.6044091 165.122567,19.2429545 165.33831,17.7733636 C165.876791,14.8855909 166.417027,11.7265909 166.631016,9.165 C166.631016,9.165 167.816727,9.21995455 168.302588,9.21995455 C168.84107,9.21995455 170.026781,9.165 170.026781,9.165 C169.649668,11.2355455 169.056813,14.3413636 168.572706,17.3372727 C168.032471,20.3331818 167.602738,23.166 167.602738,24.5824091 C167.602738,27.3602727 169.004193,28.3955455 170.889754,28.3955455 C174.394267,28.3955455 175.632599,25.6708636 176.441198,21.5315455 C177.142802,17.9364545 178.11277,11.5085455 178.328513,9.165 C178.328513,9.165 179.189733,9.21995455 179.675594,9.21995455 C180.214075,9.21995455 180.968299,9.165 180.968299,9.165 C180.052706,13.6322727 179.028364,19.4060455 178.435508,22.3487727" id="Fill-11"></path>
                <path d="M222.519059,32.3168182 L223.059294,32.3168182 L222.087572,35.8037727 C222.034952,35.8569545 218.262075,38.7996818 212.978995,38.7996818 C207.345112,38.7996818 202.347936,34.6727727 201.556877,26.0927727 L199.564321,25.9988182 C198.37861,25.9438636 196.654417,25.9438636 195.414332,25.9438636 C194.335615,25.9438636 193.311273,25.9988182 192.557048,25.9988182 L191.641455,25.9988182 L191.316963,25.9988182 L191.316963,25.8889091 C192.611422,19.2429545 193.635765,12.3257727 194.335615,5.46177273 C194.335615,5.46177273 196.329925,5.51672727 197.029775,5.51672727 L201.774374,5.57168182 C202.798717,5.57168182 203.821305,5.51672727 205.06139,5.46177273 C204.793027,6.06095455 204.629904,6.87818182 204.629904,7.69540909 C202.582973,7.53231818 201.07277,7.42240909 198.917091,7.42240909 L197.408642,7.42240909 C196.815786,10.6913182 196.707037,11.0175 196.22293,14.3945455 L197.73138,14.3945455 C198.810096,14.3945455 199.941433,14.2864091 201.504257,14.1765 C201.342888,14.8855909 201.181519,15.7028182 201.288513,16.302 C199.72569,16.1389091 198.432984,16.0839545 197.408642,16.0839545 C196.922781,16.0839545 196.761412,16.0839545 196.600043,16.1389091 L195.952813,16.1389091 C195.466952,19.2429545 195.251209,20.9873182 194.767102,24.3094091 C194.874096,24.2012727 195.08984,24.1463182 195.521326,24.1463182 C196.114182,24.1463182 198.37861,24.0913636 199.239829,24.0364091 C200.085262,23.9761364 200.897369,23.8804091 201.448128,23.8095 C201.446374,23.7580909 201.44462,23.7084545 201.44462,23.6552727 C201.44462,11.3986364 209.099123,0.395318182 219.232043,0.395318182 C223.866139,0.395318182 227.316278,2.847 227.423273,2.90195455 C226.777797,4.31836364 226.184941,5.95104545 225.914824,7.14940909 L225.430717,7.14940909 C225.376342,7.09622727 223.166289,2.73709091 218.800556,2.73709091 C212.063401,2.73709091 205.59461,12.3789545 205.59461,25.0716818 C205.59461,31.9356818 209.099123,36.4579091 213.896342,36.4579091 C218.746182,36.4579091 222.519059,32.3168182 222.519059,32.3168182" id="Fill-12"></path>
                <path d="M246.396406,17.5003636 C246.396406,23.166 242.730524,30.4643182 236.102118,30.4643182 C231.682011,30.4643182 230.389305,27.1422273 230.064813,25.9988182 C229.471957,27.0872727 227.209283,30.5742273 222.573433,30.5742273 C218.262075,30.5742273 215.511786,27.3602727 215.511786,22.0757727 C215.511786,16.3569545 219.177668,9.00190909 225.914824,9.00190909 C230.441925,9.00190909 231.682011,12.3789545 232.004749,13.5241364 C232.597604,12.4339091 234.807658,9.11181818 239.443508,9.11181818 C243.702246,9.11181818 246.396406,12.2708182 246.396406,17.5003636 L246.396406,17.5003636 Z M229.633326,17.2273636 C229.633326,14.1765 228.933476,10.9093636 225.644706,10.9093636 C221.064984,10.9093636 218.85493,18.1545 218.85493,22.3487727 C218.85493,25.3978636 219.609155,28.6667727 222.841797,28.6667727 C227.423273,28.6667727 229.633326,21.4765909 229.633326,17.2273636 L229.633326,17.2273636 Z M242.839273,17.2273636 C242.839273,14.2314545 242.300791,11.0175 239.012021,11.0175 C234.430545,11.0175 232.329241,18.1545 232.329241,22.2938182 C232.329241,25.2897273 232.974717,28.5586364 236.209112,28.5586364 C240.736214,28.5586364 242.839273,21.4216364 242.839273,17.2273636 L242.839273,17.2273636 Z" id="Fill-13"></path>
                <path d="M271.233198,17.9364545 C271.071829,18.6437727 270.91046,19.4060455 271.017455,20.0601818 C269.454631,19.8970909 267.891807,19.7889545 266.490353,19.7889545 C265.520385,19.7889545 265.411636,19.8970909 264.550417,19.8421364 C264.064556,22.9479545 263.848813,24.6905455 263.364706,28.0144091 C263.471701,27.9045 263.687444,27.7963636 264.11893,27.7963636 C264.711786,27.8495455 266.97446,27.7414091 267.837433,27.7414091 C269.345882,27.6315 270.749091,27.4134545 270.749091,27.4134545 C270.478973,28.1225455 270.424599,29.1578182 270.478973,29.757 L268.160171,29.6470909 L264.010182,29.6470909 C262.933219,29.6470909 261.908877,29.6470909 261.154652,29.7020455 L260.237305,29.7020455 L259.914567,29.7020455 L259.914567,29.5939091 C261.207273,22.9479545 262.231615,16.029 262.933219,9.21995455 C262.933219,9.21995455 264.927529,9.27490909 265.62738,9.27490909 L270.370225,9.32986364 C271.394567,9.32986364 272.418909,9.27490909 273.658995,9.21995455 C273.388877,9.81913636 273.227508,10.6363636 273.227508,11.4535909 C271.178824,11.2905 269.670374,11.1805909 267.514695,11.1805909 C267.028834,11.1274091 266.27461,11.1805909 266.004492,11.1805909 C265.411636,14.4495 265.304642,14.7774545 264.818781,18.0995455 C265.195893,18.0995455 266.165861,18.1545 266.813091,18.1545 C268.484663,18.1545 269.670374,18.0445909 271.233198,17.9364545" id="Fill-14"></path>
                <path d="M261.045904,13.3060909 C261.045904,17.8815 256.680171,20.4962727 253.231786,20.4962727 C251.882952,20.4962727 251.128727,20.4962727 250.860364,20.4413182 C250.374503,23.6552727 249.99739,26.4331364 249.565904,29.7020455 C249.565904,29.7020455 248.380193,29.6470909 247.894332,29.6470909 C247.35585,29.6470909 246.170139,29.7020455 246.170139,29.7020455 C247.625968,22.9479545 248.65031,16.029 249.35016,9.21995455 C249.35016,9.21995455 251.344471,9.27490909 252.044321,9.27490909 L255.49446,9.21995455 C257.920257,9.165 261.045904,9.92904545 261.045904,13.3060909 L261.045904,13.3060909 Z M257.704513,13.7971364 C257.704513,12.1077273 256.680171,11.0175 254.363123,11.0175 L252.423187,11.0175 C251.830332,14.3413636 251.668963,15.2117727 251.183102,18.5888182 C251.398845,18.5888182 251.830332,18.6437727 252.207444,18.6437727 C255.548834,18.6437727 257.704513,16.7930455 257.704513,13.7971364 L257.704513,13.7971364 Z" id="Fill-15"></path>
                <path d="M298.657155,10.5814091 C298.334417,11.3986364 297.957305,12.5438182 297.848556,13.3592727 L297.41707,13.3592727 C297.41707,13.2511364 296.662845,10.9643182 294.184428,10.9643182 C291.974374,10.9643182 290.464171,12.5438182 290.464171,14.3413636 C290.464171,16.5200455 292.297112,17.3372727 293.859936,18.2076818 C294.722909,18.6987273 295.585882,19.1897727 296.231358,19.8970909 C296.878588,20.6593636 297.364449,21.7495909 297.364449,23.3840455 C297.364449,26.7610909 294.507166,30.5192727 289.387209,30.5192727 C284.589989,30.5192727 282.48693,28.3405909 280.224257,24.3094091 C280.224257,24.3094091 278.391316,21.0405 277.74584,19.9520455 C277.314353,19.8970909 276.989861,19.8970909 276.828492,19.8970909 C276.342631,23.1110455 275.912898,26.4331364 275.481412,29.7020455 C275.481412,29.7020455 274.295701,29.6470909 273.80984,29.6470909 C273.271358,29.6470909 272.085647,29.7020455 272.085647,29.7020455 C273.541476,22.9479545 274.564064,16.029 275.265668,9.21995455 C275.265668,9.21995455 277.259979,9.27490909 277.959829,9.27490909 C280.925861,9.21995455 286.314182,8.62077273 286.314182,13.3060909 C286.314182,17.3372727 283.13416,19.2979091 280.978481,19.734 L283.404278,23.8201364 C285.344214,27.0340909 286.638674,28.6118182 289.655572,28.6118182 C292.61985,28.6118182 294.237048,26.2700455 294.237048,24.2012727 C294.237048,22.8380455 293.375829,22.1307273 292.297112,21.5315455 C290.034439,20.1151364 287.663016,19.1897727 287.663016,15.8659091 C287.663016,11.8896818 290.357176,9.05686364 294.452791,9.05686364 C297.094332,9.05686364 298.602781,10.5282273 298.657155,10.5814091 L298.657155,10.5814091 Z M282.972791,13.6322727 C282.972791,12.0527727 281.841455,11.0175 279.738396,11.0175 L278.284321,11.0175 C277.691465,14.1233182 277.637091,14.9405455 277.15123,18.0995455 C277.259979,18.1545 277.528342,18.1545 277.79846,18.1545 C281.032856,18.1545 282.972791,16.2470455 282.972791,13.6322727 L282.972791,13.6322727 Z" id="Fill-16"></path>
                <path d="M328.317476,11.4713182 C328.317476,9.35822727 328.40693,7.72731818 326.907251,6.25772727 C325.430374,4.81118182 323.862289,4.92640909 321.817112,4.92640909 L315.409711,4.92640909 C313.364535,4.92640909 311.796449,4.81118182 310.317818,6.25772727 C308.818139,7.72731818 308.909348,9.35822727 308.909348,11.4713182 L308.909348,25.4350909 C308.909348,27.5481818 308.818139,29.1790909 310.317818,30.6486818 C311.796449,32.0952273 313.364535,31.9817727 315.409711,31.9817727 L321.817112,31.9817727 C323.862289,31.9817727 325.453176,32.0952273 326.907251,30.6486818 C328.40693,29.1790909 328.317476,27.5481818 328.317476,25.4350909 L328.317476,11.4713182 L328.317476,11.4713182 Z M323.77108,25.5964091 C322.47662,26.2399091 321.18216,26.5377273 319.81754,26.5377273 C316.498952,26.5377273 314.49938,24.3324545 314.49938,20.6575909 C314.49938,20.3828182 314.49938,20.2675909 314.522182,19.9467273 C315.272898,19.9236818 315.727187,19.9006364 316.295487,19.8084545 C316.272684,20.1754091 316.272684,20.3367273 316.272684,20.5441364 C316.272684,23.6446364 317.726759,25.5733636 320.068364,25.5733636 C321.43123,25.5733636 322.657283,25.0911818 324.044706,24.0115909 L323.77108,25.5964091 L323.77108,25.5964091 Z M322.837947,23.7031364 L322.245091,23.7031364 L321.478588,17.9258182 L319.247487,23.7031364 L318.645861,23.7031364 L318.172278,19.1738182 C318.55816,19.0142727 318.633583,18.9593182 319.087872,18.6366818 L319.433412,21.8577273 L321.564535,16.2860455 L322.241583,16.2860455 L323.030888,21.8577273 L325.190075,16.2860455 L325.923251,16.2860455 L322.837947,23.7031364 L322.837947,23.7031364 Z M325.544385,13.4461364 C324.635807,12.1378636 323.636021,11.5865455 322.225797,11.5865455 C319.477262,11.5865455 317.135658,14.2509545 316.498952,18.0853636 C318.181048,17.6262273 319.180834,16.2949091 319.180834,14.5487727 C319.180834,14.2509545 319.158032,14.0665909 319.068578,13.6996364 C319.589519,13.2174545 319.954353,12.9178636 320.477048,12.6430909 C320.726118,13.0330909 320.840128,13.4922273 320.840128,14.0896364 C320.840128,17.4205909 318.386267,19.3262727 314.090695,19.3262727 C313.93108,19.3262727 313.796021,19.3262727 313.568,19.3032273 L312.454203,26.3090455 L310.819465,26.3090455 L313.273326,10.7817273 L316.54631,10.7817273 C317.909176,10.7817273 318.749348,10.9430455 319.45446,11.3330455 C320.703316,10.7586818 321.362824,10.5991364 322.47662,10.5991364 C323.793882,10.5991364 324.816471,10.92 326.158289,11.7691364 L325.544385,13.4461364 L325.544385,13.4461364 Z" id="Fill-17"></path>
                <path d="M314.795807,11.7 L313.727615,18.408 L314.136299,18.408 C314.273112,18.408 314.227508,18.408 314.636193,18.3849545 C315.136086,15.6514091 316.204278,13.7900455 318.158246,12.1378636 C317.475936,11.7691364 317.021647,11.7 315.455316,11.7 L314.795807,11.7" id="Fill-18"></path>
            </g>
        </g>
    </g>
</svg>