<?xml version="1.0" encoding="utf-8"?>
<!-- Generator: Adobe Illustrator 18.1.0, SVG Export Plug-In . SVG Version: 6.00 Build 0)  -->
<!DOCTYPE svg PUBLIC "-//W3C//DTD SVG 1.1//EN" "http://www.w3.org/Graphics/SVG/1.1/DTD/svg11.dtd">
<svg version="1.1" id="Layer_1" xmlns="http://www.w3.org/2000/svg" xmlns:xlink="http://www.w3.org/1999/xlink" x="0px" y="0px"
	 viewBox="0 0 439.8 575" enable-background="new 0 0 439.8 575" xml:space="preserve">
<g>
	<path fill="#ABBFCE" d="M220.1,0c-5.4,0-10.7,0.7-15.8,2.1c-5.1,1.4-10,3.4-14.7,6.1c-0.3,0.2-0.6,0.4-0.8,0.6
		c-1.7,1.2-3,2.1-4.2,2.9c-3.8,2.5-7.1,4.7-9.9,11.1c-4.7,10.5-10.6,26.8-14.3,37.7c-7,3.3-13.8,7.1-20.3,11.4l-3.3,0.9
		c-1.7,0.4-3.2,1.3-4.9,2.8c-1.7,1.5-2.8,2.8-3.5,4.4c0,0,0,0,0,0l-0.5,1.1c-7.7,6.5-14.8,13.8-21.1,21.7
		c-6.8,8.6-12.7,17.9-17.5,27.8c-4.9,10.1-8.6,20.7-11.1,31.6c-2.6,11.2-3.9,22.9-3.9,34.6v9.2v51.6v1.1v8.1v1.1v34.6h-65
		c-2.8,0-5.5,1.3-7.3,3.5c-1.7,2.2-2.4,5.1-1.7,7.9c0.2,0.9,0.7,3.4,1.3,10c1.2,12.5,2.1,35.7,2.8,52.6c0.3,6.3,0.5,11.8,0.7,15.5
		c0.2,3.7,2.6,6.9,6.1,8.2c2.8,1,5.3,2.9,7,5.3c1.8,2.5,2.7,5.5,2.7,8.6c0,6.3-4,11.9-10,14c-3.6,1.2-6.1,4.5-6.3,8.3
		c-0.2,4.8-0.5,12.2-0.8,20.8c-0.6,15.3-1.3,34.3-2.1,44.8c-0.6,7.4-1,9.5-1.1,9.9c-0.6,2.7,0,5.6,1.7,7.8c1.7,2.2,4.4,3.5,7.2,3.5
		h100.1c6,7,12.6,13.5,19.8,19.3c8.4,6.8,17.5,12.6,27.1,17.4c9.8,4.9,20.1,8.6,30.6,11.2c10.8,2.6,22,4,33.3,4.1h0.1
		c11.2-0.1,22.4-1.5,33.2-4.1c10.5-2.6,20.8-6.3,30.5-11.2c9.5-4.8,18.5-10.6,26.8-17.4c7.1-5.8,13.6-12.3,19.5-19.3h99.4
		c2.8,0,5.5-1.3,7.2-3.5c1.7-2.2,2.4-5.1,1.7-7.8c-0.1-0.5-0.5-2.6-1.1-9.9c-0.8-10.6-1.5-29.7-2.1-45c-0.3-8.5-0.6-15.8-0.8-20.6
		c-0.2-3.8-2.7-7.1-6.3-8.3c-6-2-10-7.6-10-14c0-3.1,0.9-6,2.7-8.6c1.8-2.5,4.2-4.3,7-5.3c3.5-1.3,5.9-4.5,6.1-8.2
		c0.2-3.7,0.4-9.1,0.7-15.5c0.7-16.9,1.7-40.1,2.9-52.7c0.6-6.6,1.1-9.1,1.3-10c0.7-2.8,0.1-5.7-1.7-7.9c-1.7-2.2-4.4-3.5-7.3-3.5
		h-64.6v-34.6v-1.1v-8.1v-1.1v-51.6v-9.2c0-12.6-1.5-25.1-4.4-37.1c-2.9-11.7-7.1-23-12.6-33.7c-5.4-10.5-12.1-20.2-19.8-29.1
		c-6.2-7.1-13.1-13.6-20.5-19.4l6.4-21.4c0,0,0,0,0,0c0.4-1.4,0.5-2.8,0.3-4.8c-0.1-0.8-0.2-1.9-0.5-3c-0.2-0.8-0.5-1.6-0.9-2.3
		c-5.5-9.7-10.4-15.3-19.5-22.3c-9.8-7.6-19.3-10.9-28.1-13.7c-0.2-0.1-0.4-0.1-0.6-0.2l-1.9-0.5c-10.6-3.6-21.5-6.4-32.6-8.3
		c0,0,0,0-0.1,0C227.5,0.3,223.8,0,220.1,0z"/>
</g>
<g>
	<path fill="#E32E33" d="M356.7,377.3v-58v-51.6v-1.1v-8.1v-1.1v-51.6v-9.2c0-78.1-60.3-140-136-140.6c-19.6,0.2-31,5-47.9,12.6
		c-2.6,1.2-7.7,3.4-10.2,4.8c-2.6,1.4-9.8,1.3-12.3,2.8c-40,24.5-66.8,69-66.8,120.5v9.2v51.6v1.1v8.1v1.1v51.6v58
		c0,18.4,3.4,35.9,9.6,51.9h254.2C353.4,413.2,356.7,395.7,356.7,377.3z"/>
</g>
<g>
	<g>
		<path fill="#D6DEE7" d="M267.1,50.8c0.2,0.7,17.2,29.5,30,32.8l-2,6.6l1.2,0.3c1.3,1.8,0.8,4.4-0.9,5.7l-0.2,0.2
			c-0.5,0.3-1,0.5-1.7,0.6l-1,3.2l-0.3,1.1c0.2,0.1,0.8,0.2,1,0.4c0,0,1.4,1.3,1.1,3.3c-0.3,2.1-1.2,3.3-3.3,3.6l-1,4.6
			c2.4,2.1,1.1,6.5-2.1,7l-1.8,4.8c1.7,2.2,0.4,5.9-2.4,6.5l-1.1,7.2c0.4,1.4,1.2,2.3,2.5,3.3c7.8,2.5,8.5,2.3,12.4,11
			c3.2,7.2,6.5,6.8,7.6,16.9c1.3,12.5,12.5,10.8,10.2,29.8c-1.1,8.9-6.8,10.9-9.9,17.6c-3.5,7.5-4.7,15.7-7.7,23.3
			c-3,7.4-4.9,11.7-8.4,18.3c1,2.6,2,5.5,3.2,8.5l2.1,6.3l13.6,42.4l0.1,0.6l2.2,6.5l-39.1,0l-2.5-11.2c3.8-1.8,6.4-3.9,7.3-8.1
			c1.9-9.2-4.3-14.9-12.8-19.4c-8.4-4.4-18.3-4.3-27.6-1.9l-6.2-5.4c2.2-2.1,3.4-3.3,5.3-5.6c2-2.3,3-3.7,4.7-6.2
			c5.8,3.5,10.7,4.2,17.3,2.5c7.5-1.9,12.1-5.8,15.2-12.9l17.8-31.5l-6.3-3.5c-0.7-2.1-0.7-3.7,0.2-5.7c1.3-3.1,3.9-4.8,7.3-4.9
			l-13-13.3c-0.1,11.5-10.4,20.8-21.9,19.8c-4.8-0.4-7.8-1.7-11.4-4.9l-11.1,7.3c6.6,5.7,8.8,13.1,6.4,21.4
			c-2.2,7.7-7,12.2-14.7,14.2c0.4,5.2-0.8,8.8-4.2,12.7c-2.7,3.1-5.2,4.4-9.2,5.5c-4.6,1.3-7.7,1.1-12.2-0.5
			c0.3,3.3-0.1,5.4-1.5,8.3c-1,1.9-1.8,2.9-3.4,4.4c4.8,2.8,7.9,3.9,13.3,5c4.9,0.9,7.9,1,12.8,0.4l-0.9,9c-2,1.8-3.4,2.7-6,3.7
			c-3.3,1.2-5.5,1.5-9,0.9c0,0,0.2,10.3,0.5,19.9h-12.2c-0.7-8.8-1.5-17.7-3-24.5c-1.7-7.5-3.7-6.6-5.5-13.4l-6.4-5.7l-1.3,43.6h-7
			l1.4-47.4c0.1-1.9,1.7-3.4,3.6-3.4l8.3,0.3l-0.3-9.4l-7-0.2l-1.3-19.4c-3.5-3.5-6-5.1-10.6-6.8c-2.8-1-4.8-1.5-7.2-1.6
			c-6.1,1.1-16.2,2.7-24.3,15.2c-5.8,8.9-7,16.3-4.4,26.6c0.6,2.5-0.9,4.4-3.5,4.3l-2.3-0.1l-0.3,7.9l27.9,1
			c11.5,0.4,8.5,3.6,7.2,33H150l1-26l-32.5-1.1c-1.8-0.1-3.4-1.7-3.4-3.6l0.5-14.8c0.1-1.8,1.7-3.4,3.6-3.4l1.3,0
			c-3.3-20.3,11.2-41.4,31.5-45.3c-5.9-7.1-17.5-17.8-18.5-26.7c-0.7-7,1.1-16.2,4.6-22c-1.5-2.4-6.6-8.5-5-11.5l11.6-20.7
			c0.8-1.4,3.6-2.3,4.7-2.7l3-10.4c-11.3-4.3-20.8-12.9-26.8-23.3c-0.3-0.5-0.4-2.6-0.2-3.1l11.1-25.3c0.2-0.5,1.8-1.8,2.3-2
			l26.1-6.9c0,0,22.9-6.1,23.6-7.6C193.4,58,262.1,42.2,267.1,50.8z"/>
	</g>
	<g>
		<path fill="#D6DEE7" d="M310.5,327.1L310.5,327.1l-39.1,0c-1.7,0-3.1-1.2-3.5-2.8l-2.5-11.2c-0.4-1.6,0.5-3.3,2-4
			c3.4-1.6,4.8-3,5.3-5.6c0.9-4.3,0.3-9.5-10.9-15.4c-4-2.1-8.6-3.2-13.7-3.2c-3.6,0-7.4,0.5-11.2,1.5c-1.2,0.3-2.4,0-3.3-0.8
			l-6.2-5.4c-0.8-0.7-1.2-1.6-1.2-2.6c0-1,0.4-2,1.1-2.7c2.1-2,3.2-3.1,5-5.3c1.9-2.2,2.8-3.5,4.5-5.9c1.1-1.6,3.2-2.1,4.8-1.1
			c3.4,2,6.1,2.9,9.1,2.9c1.6,0,3.4-0.2,5.4-0.8c6.4-1.6,10.1-4.8,12.8-10.9c0.1-0.1,0.1-0.2,0.2-0.3l16-28.3l-3.1-1.7
			c-0.8-0.4-1.4-1.1-1.7-2c-1-3-0.9-5.5,0.3-8.3c0.9-2.1,2.3-3.8,4-5l-4.2-4.3c-3.3,9.2-12.3,16-22.4,16c-0.7,0-1.4,0-2.1-0.1
			c-4.6-0.4-7.9-1.6-11.3-4l-5.3,3.4c5,6.1,6.5,13.7,4.2,21.8c-2.3,8-7.1,13.2-14.5,15.9c-0.2,4.8-1.8,8.5-5.2,12.4
			c-3.5,4-6.6,5.4-10.9,6.6c-3.7,1-6.6,1.2-9.7,0.7c-0.3,1.7-0.9,3.4-1.8,5.2c-0.3,0.6-0.6,1.2-0.9,1.7c2.5,1.2,4.9,1.9,8.3,2.5
			c2.8,0.5,4.8,0.8,6.8,0.8c1.4,0,2.9-0.1,4.9-0.3c1.1-0.1,2.2,0.2,3,1s1.2,1.9,1.1,2.9l-0.9,9c-0.1,0.9-0.5,1.7-1.1,2.3
			c-2.3,2.2-4.2,3.3-7.1,4.4c-2.5,0.9-4.5,1.4-6.6,1.4c0.1,3.9,0.2,10.1,0.4,16c0,1-0.3,1.9-1,2.6c-0.7,0.7-1.6,1.1-2.6,1.1h-12.2
			c-1.9,0-3.4-1.4-3.6-3.3c-0.6-7.6-1.4-17.2-2.9-24c-0.7-3.3-1.5-4.6-2.4-6.1c-0.8-1.4-1.7-2.9-2.6-5.6l-1,35.6
			c-0.1,1.9-1.7,3.5-3.6,3.5h-7c-1,0-1.9-0.4-2.6-1.1c-0.7-0.7-1-1.6-1-2.6L168,276c0.1-3.8,3.3-6.9,7.1-6.9l0.2,0l4.5,0.2l-0.1-2.2
			l-3.6-0.1c-1.8-0.1-3.3-1.5-3.5-3.4l-1.2-18c-2.6-2.5-4.7-3.7-8.4-5c-2.3-0.8-4-1.2-5.8-1.4c-5.8,1-14.4,2.6-21.5,13.5
			c-5.3,8.1-6.3,14.4-4,23.8c0.6,2.3,0.1,4.5-1.2,6.2c-1.1,1.4-2.7,2.3-4.6,2.5l0,0.8l24.3,0.9c3.5,0.1,7.2,0.5,9.6,3.1
			c3,3.3,2.7,8.3,1.9,19.3c-0.3,3.8-0.6,8.6-0.8,14.4c-0.1,1.9-1.7,3.4-3.6,3.4H150c-1,0-1.9-0.4-2.6-1.1c-0.7-0.7-1-1.7-1-2.6
			l0.9-22.4l-28.9-1c-1.8-0.1-3.6-0.9-4.9-2.3c-1.3-1.4-2-3.2-1.9-5.1l0.5-14.8c0.1-2.9,2-5.3,4.5-6.3c-1.3-19.2,11-37.8,29-44.1
			c-0.3-0.3-0.5-0.6-0.8-0.8c-6.5-7.2-14-15.4-14.8-23.5c-0.8-7.2,0.9-15.9,4-22.2c-2.7-3.9-6.3-9.1-3.9-13.5l11.6-20.7
			c1.1-1.9,3.2-3,4.9-3.7l1.6-5.6c-10.5-4.8-19.5-13-25.6-23.5c-0.9-1.5-1.1-4.8-0.4-6.4l11.1-25.3c0.6-1.5,3.1-3.6,4.7-4l26.1-6.9
			c8.9-2.3,19.3-5.4,21.9-6.6c3.1-4.2,13.1-8.6,29.6-13c15.6-4.2,31.5-6.8,41.4-6.8c7.2,0,11.2,1.3,12.9,4.3
			c0.1,0.1,0.1,0.3,0.2,0.4c2.1,4.1,17.6,28.2,27.6,30.7c1,0.2,1.8,0.9,2.3,1.7c0.5,0.9,0.6,1.9,0.3,2.8l-1.2,4
			c2.3,3.3,1.5,8.1-1.7,10.5c0,0-0.1,0.1-0.1,0.1l-0.2,0.2c0,0-0.1,0.1-0.1,0.1c-0.2,0.2-0.5,0.3-0.7,0.4l0,0.1
			c1,1.3,1.9,3.4,1.5,5.7c-0.5,3.3-2.2,5-3.8,5.9l-0.2,1c1,1.8,1.2,3.9,0.6,6c-0.6,2.1-2,3.7-3.8,4.7L290,125
			c0.6,1.7,0.6,3.7-0.1,5.5c-0.6,1.6-1.7,2.9-3,3.8l-0.6,4.2c0.1,0.1,0.3,0.3,0.5,0.5l0.5,0.1c7.9,2.5,9.4,3.5,13.5,12.7
			c1,2.2,2,3.6,3,5c2,2.7,4.1,5.5,4.9,13c0.4,4.1,2.1,6.2,4.3,8.8c3.3,4.1,7.5,9.1,6,21.8c-0.8,6.5-3.8,10.1-6.4,13.2
			c-1.5,1.7-2.8,3.4-3.8,5.5c-1.8,3.9-3,8-4.2,12.3c-1,3.6-2,7.2-3.5,10.8c-2.8,7.1-4.7,11.3-7.8,17.2c0.7,1.8,1.4,3.7,2.1,5.7
			l0.5,1.3c0,0,0,0.1,0,0.1l2.1,6.3l13.7,42.4c0,0.1,0.1,0.3,0.1,0.4l0.1,0.4l2.1,6.3c0.4,1.1,0.2,2.3-0.5,3.2
			C312.7,326.5,311.6,327.1,310.5,327.1z M274.3,319.9l31.2,0l-0.6-1.8c0-0.1-0.1-0.3-0.1-0.5l-0.1-0.4L291.1,275l-2.6-7.4
			c-1-2.6-1.9-5-2.7-7.2c-0.3-1-0.3-2,0.2-2.9c3.4-6.5,5.3-10.7,8.2-18c1.3-3.2,2.2-6.6,3.2-10.1c1.2-4.4,2.5-9,4.6-13.4
			c1.4-3,3.2-5.2,4.9-7.1c2.4-2.8,4.2-5,4.7-9.4c1.1-9.6-1.4-12.8-4.4-16.4c-2.4-3-5.2-6.4-5.8-12.6c-0.6-5.5-1.8-7.1-3.5-9.5
			c-1.1-1.5-2.5-3.4-3.8-6.4c-3-6.8-3-6.8-9-8.7l-1.1-0.3c-0.4-0.1-0.8-0.3-1.1-0.6c-1.5-1.2-3-2.6-3.8-5.1
			c-0.2-0.5-0.2-1.1-0.1-1.6l1.1-7.2c0.2-1.5,1.4-2.7,2.9-3c0,0,0.2-0.1,0.2-0.3c0.1-0.2,0-0.4,0-0.4c-0.8-1-1-2.3-0.5-3.5l1.8-4.8
			c0.5-1.2,1.5-2.1,2.8-2.3c0,0,0.2-0.1,0.2-0.3c0.1-0.2,0-0.4,0-0.4c-1-0.9-1.4-2.2-1.1-3.5l1-4.6c0.3-1.5,1.5-2.6,3.1-2.8
			c0,0,0.1,0,0.1,0c0-0.1,0.1-0.3,0.1-0.5c-0.1-0.1-0.3-0.2-0.5-0.2c-1.4-0.9-2-2.6-1.5-4.1l1.3-4.4c0.4-1.4,1.7-2.4,3.1-2.6l0,0
			l0.1,0c0,0,0,0,0-0.1c-0.6-0.3-1-0.8-1.3-1.4c-0.5-0.9-0.6-1.9-0.3-2.8l1-3.5c-12.5-6.3-26.1-28.4-28.7-33.1l-0.1,0
			c0.1,0.2,0.2,0.3,0.2,0.3c0,0-1.3-1-6.9-1c-21.7,0-62.1,11.9-65.2,16.8c-0.8,1.5-1.5,2.9-25.9,9.4l-25.7,6.8
			c-0.2,0.1-0.4,0.3-0.6,0.5l-10.8,24.5c0,0.2,0,0.5,0,0.7c5.8,9.8,14.8,17.5,24.8,21.3c1.8,0.7,2.7,2.6,2.2,4.4l-3,10.4
			c-0.3,1.1-1.1,1.9-2.1,2.3c-0.2,0.1-0.4,0.2-0.7,0.3c-0.5,0.2-1.9,0.7-2.3,1.1l-11.4,20.3c0.1,1.4,2.5,4.9,3.5,6.2
			c0.5,0.7,1,1.4,1.3,1.9c0.7,1.2,0.7,2.6,0,3.8c-3,4.9-4.8,13.3-4.1,19.7c0.6,5.8,7.5,13.4,13,19.4c1.7,1.9,3.3,3.7,4.7,5.3
			c0.8,1,1,2.3,0.6,3.5c-0.4,1-1.2,1.8-2.2,2.2c1-0.2,1.9-0.4,2.8-0.5l0.3,0c0.3,0,0.6-0.1,0.9,0c2.7,0.2,5,0.7,8.2,1.8
			c5.1,1.8,8.1,3.8,12,7.6c0.6,0.6,1,1.4,1,2.3l1.1,16.1l3.8,0.1c1.9,0.1,3.4,1.6,3.5,3.5l0.3,9.4c0,1-0.4,2-1.1,2.7s-1.7,1.1-2.7,1
			l-3.5-0.1c0.3,0.1,0.7,0.4,1,0.6l6.4,5.7c0.5,0.5,0.9,1.1,1.1,1.8c0.7,2.8,1.4,3.9,2.2,5.3c1.1,1.8,2.3,3.8,3.3,8.2
			c1.3,6,2.1,13.4,2.8,21.7h5.1c-0.2-8.4-0.4-16.2-0.4-16.3c0-1.1,0.4-2.1,1.2-2.8s1.9-1,2.9-0.9c1,0.2,1.8,0.2,2.6,0.2
			c1.5,0,2.8-0.3,4.7-1c1.7-0.6,2.6-1.1,3.8-2.1l0.3-3.2c-3,0.1-5.6-0.1-9.5-0.9c-5.8-1.1-9.3-2.4-14.4-5.4c-1-0.6-1.7-1.6-1.8-2.8
			c-0.1-1.1,0.3-2.3,1.2-3.1c1.3-1.1,1.8-1.8,2.6-3.3c1.2-2.3,1.4-3.7,1.2-6.3c-0.1-1.2,0.4-2.4,1.4-3.2c1-0.8,2.3-1,3.5-0.5
			c2.2,0.8,3.8,1.1,5.4,1.1c1.3,0,2.8-0.2,4.6-0.7c3.7-1,5.3-2,7.4-4.4c2.8-3.2,3.7-5.8,3.4-10.1c-0.1-1.7,1-3.3,2.7-3.8
			c6.5-1.7,10.2-5.3,12.1-11.7c2-7,0.3-12.9-5.2-17.7c-0.9-0.7-1.3-1.8-1.2-3c0.1-1.1,0.7-2.2,1.6-2.8l11.1-7.3
			c1.4-0.9,3.1-0.8,4.3,0.3c3.1,2.7,5.3,3.7,9.4,4c0.5,0,1,0.1,1.4,0.1c8.9,0,16.5-7.5,16.5-16.3c0-1.5,0.9-2.8,2.3-3.3
			c1.4-0.5,2.9-0.2,3.9,0.8l13,13.3c1,1,1.3,2.6,0.8,3.9c-0.6,1.3-1.8,2.2-3.3,2.2c-2,0-3.2,0.9-4,2.7c-0.3,0.8-0.5,1.3-0.4,1.9
			l5,2.7c0.8,0.5,1.5,1.2,1.7,2.2c0.3,0.9,0.1,1.9-0.3,2.8l-17.7,31.3c-3.5,8.1-9,12.6-17.5,14.8c-2.6,0.7-4.9,1-7.2,1
			c-3.3,0-6.5-0.7-9.8-2.3c-0.9,1.3-1.8,2.4-3.1,3.9c-1,1.2-1.9,2.2-2.8,3.1l1.9,1.6c3.8-0.9,7.6-1.3,11.2-1.3c6.3,0,12,1.3,17.1,4
			c4.4,2.3,17.6,9.2,14.6,23.3c-1,4.7-3.7,7.4-6.7,9.2L274.3,319.9z M153.7,319.8h0.2c0.2-4.3,0.5-8,0.7-11.1
			c0.5-6.9,0.9-12.9-0.1-14c-0.1-0.1-0.5-0.4-1.8-0.5c0.4,0.2,0.7,0.4,1,0.7c0.7,0.7,1,1.6,1,2.6L153.7,319.8z M118.8,292.7l2,0.1
			c-0.9-0.4-1.6-1.2-2-2.1L118.8,292.7z M119.3,278.2l-0.1,2c0.2-0.5,0.5-0.9,0.9-1.2c0.7-0.7,1.6-1,2.6-1l2.1,0.1
			c-0.2-1-0.4-1.9-0.6-2.8c-0.1,0.6-0.4,1.2-0.8,1.7c-0.7,0.8-1.8,1.2-2.8,1.2L119.3,278.2z M175.2,276.3l-0.1,2.1
			c0.4-0.8,1-1.5,1.9-1.9c0.1,0,0.2-0.1,0.2-0.1L175.2,276.3z"/>
	</g>
</g>
<g>
	<path fill="#D6DEE7" d="M220.6,565.8c57.8-0.4,106.7-36.8,126.5-88.7H93C113.2,529.1,162.8,565.4,220.6,565.8z"/>
</g>
<g>
	<path fill="#D6DEE7" d="M9.6,513.8h304.2h116.2c-0.5-1.9-0.9-6-1.3-11.4H10.9C10.5,507.8,10.1,511.9,9.6,513.8z"/>
</g>
<g>
	<path d="M327.4,489.7c-23.1,38.8-60.8,63.1-106.8,63.5c-46.1-0.4-84.3-24.8-107.8-63.5H327.4z"/>
</g>
<g>
	<path d="M425.4,390.8c0.7-13.3,1.9-51.2,3.6-68.9H10.8c1.6,17.6,2.9,55.3,3.5,68.9c9.2,3.3,15.9,12.2,15.9,22.7
		c0,10.6-6.8,19.6-16.3,22.8c-0.7,13.4-1.7,49.5-2.9,66.2h417.9c-1.2-16.6-2.2-52.5-2.9-66.2c-9.5-3.2-16.3-12.2-16.3-22.8
		C409.6,403,416.2,394.2,425.4,390.8z"/>
</g>
<g>
	<polygon fill="#05BDCD" points="191.9,263.8 209.3,261.2 226.3,239.8 225.9,221.8 236.3,196 278,189.5 303.9,201.4 281.5,258 
		302,323.5 196.5,323.4 194.4,288.8 	"/>
</g>
<g>
	<polygon fill="#E6E7E8" points="205.7,183.8 246.8,35 253.5,27.4 249.2,19.4 222.1,14.3 201.2,17.3 181.5,32.3 161,96.7 
		165.2,108.3 164.1,155.1 	"/>
</g>
<g>
	<path fill="#D6DEE7" d="M261.4,22.5l19.5,8.6l18.4,12.7l3,6.4l-10.7,34.2l-8.5,3.5l-15.9,50.4l-7,4.4l-2.9,5.3l-0.8,7.3l-0.6,7.3
		l2.3,23l-13.8,4.9l-25-8.8l-1.3,7.3l-53.9-34l0.6-16.8l14.8-2.5l4.2-11.5l-2.3-11.6c-2.5-2-4-3.1-6.6-4.9
		c-4.1-2.8-6.5-4.3-10.9-6.7l-4.3-9.7l27.6-65.1c5.7-5.1,9.7-7.3,17-9.6c9.2-2.9,15.1-1.4,24.8-0.7
		C241.8,16.9,249.2,18.3,261.4,22.5z"/>
</g>
<g>
	<path fill="#ABBFCE" d="M158.6,232l17.3,8.7l11.4,19.2l-1.6,16.3l-10.6,0l-1.6,47.2h-19.9l1-29.4l-35.9-1.3l0.5-14.8l5.7,0.2
		c-3.3-13.7-0.3-24.7,9.4-34.9C141.6,235.8,148.2,232.7,158.6,232z"/>
</g>
<g>
	<circle fill="#D6DEE7" cx="139" cy="278.7" r="5.5"/>
</g>
<g>
	<path fill="#D6DEE7" d="M141.4,267.5l-4.5-0.2c-0.6,0-1-0.5-1-1.1c0.8-6,2.5-9.7,6.6-14.1c4.3-4.6,8.1-6.6,14.3-7.7
		c2.2-0.4,3.3,8.6,3.4,8.9c0.2,0.8-0.3,1.3-1.1,1.3c-8-0.8-15,4.2-16.8,12.1C142.4,267.1,141.8,267.5,141.4,267.5z"/>
</g>
<g>
	<path fill="#D6DEE7" d="M177.1,275.7l-5.6,47.8h-7.3l1.7-47.7C166,271.3,177.2,271.2,177.1,275.7z"/>
</g>
<g>
	<path d="M237.4,135.1l20.5,6.5c5.1,1.6,2.7,9.3-2.5,7.7l-20.5-6.5C229.8,141.2,232.3,133.5,237.4,135.1z"/>
</g>
<g>
	<path d="M167.2,87.9l45.1,13.7c5.2,1.6,2.8,9.3-2.4,7.7l-45.1-13.7C159.7,94,162,86.3,167.2,87.9z"/>
</g>
<g>
	<path fill="#AAC0D1" d="M299.4,43.6L281,30.9l-19.5-8.6c-11.1-3.8-18.2-5.3-29.1-6.3l16.9,3.2l4.2,8l-6.7,7.6l-40.5,146.6l11.8,7.4
		l1.3-7.3l25,8.8l13.8-4.9l-2.3-23l0.6-7.3l0.8-7.3l2.9-5.3l7-4.4l15.9-50.4l8.6-3.5l10.7-34.2L299.4,43.6z"/>
</g>
<g>
	<path fill="#ABBFCE" d="M220.1,520.1c0,0-33.8-10.1-56.4-16.9c21.7,11.6,54.9,29.2,56.4,30c1.5-0.8,34.7-18.5,56.4-30
		C253.9,509.9,220.1,520.1,220.1,520.1z"/>
</g>
<g>
	<path d="M261.3,18.2l2.3,0.6c8.2,2.6,16.6,5.5,25.2,12.1c8,6.2,12.2,10.9,17.1,19.6c0.2,0.7,0.4,2.5,0.2,2.9l-11,36.9l1.2,0.3
		c1.3,1.8,0.8,4.4-0.9,5.7l-0.2,0.2c-0.5,0.3-1,0.5-1.7,0.6l-1,3.2l-0.3,1.1c0.2,0.1,0.8,0.2,1,0.4c0,0,1.4,1.3,1.1,3.3
		c-0.3,2.1-1.2,3.3-3.3,3.6l-1,4.6c2.4,2.1,1.1,6.5-2.1,7l-1.8,4.8c1.7,2.2,0.4,5.9-2.4,6.5l-1.1,7.2c0.4,1.4,1.2,2.3,2.5,3.3
		c7.8,2.5,8.5,2.3,12.4,11c3.2,7.2,6.5,6.8,7.6,16.9c1.3,12.5,12.5,10.8,10.2,29.8c-1.1,8.9-6.8,10.9-9.9,17.6
		c-3.5,7.5-4.7,15.7-7.7,23.3c-3,7.4-4.9,11.7-8.4,18.3c1,2.6,2,5.5,3.2,8.5l2.1,6.3l13.6,42.4l0.1,0.6l2.2,6.5l-39.1,0l-2.5-11.2
		c3.8-1.8,6.4-3.9,7.3-8.1c1.9-9.2-4.3-14.9-12.8-19.4c-8.4-4.4-18.3-4.3-27.6-1.9l-6.2-5.4c2.2-2.1,3.4-3.3,5.3-5.6
		c2-2.3,3-3.7,4.7-6.2c5.8,3.5,10.7,4.2,17.3,2.5c7.5-1.9,12.1-5.8,15.2-12.9l17.8-31.5l-6.3-3.5c-0.7-2.1-0.7-3.7,0.2-5.7
		c1.3-3.1,3.9-4.8,7.3-4.9l-13-13.3c-0.1,11.5-10.4,20.8-21.9,19.8c-4.8-0.4-7.8-1.7-11.4-4.9l-11.1,7.3c6.6,5.7,8.8,13.1,6.4,21.4
		c-2.2,7.7-7,12.2-14.7,14.2c0.4,5.2-0.8,8.8-4.2,12.7c-2.7,3.1-5.2,4.4-9.2,5.5c-4.6,1.3-7.7,1.1-12.2-0.5c0.3,3.3-0.1,5.4-1.5,8.3
		c-1,1.9-1.8,2.9-3.4,4.4c4.8,2.8,7.9,3.9,13.3,5c4.9,0.9,7.9,1,12.8,0.4l-0.9,9c-2,1.8-3.4,2.7-6,3.7c-3.3,1.2-5.5,1.5-9,0.9
		c0,0,0.2,10.3,0.5,19.9h-12.2c-0.7-8.8-1.5-17.7-3-24.5c-1.7-7.5-3.7-6.6-5.5-13.4l-6.4-5.7l-1.3,43.6h-7l1.4-47.4
		c0.1-1.9,1.7-3.4,3.6-3.4l8.3,0.3l-0.3-9.4l-7-0.2l-1.3-19.4c-3.5-3.5-6-5.1-10.6-6.8c-2.8-1-4.8-1.5-7.2-1.6
		c-6.1,1.1-16.2,2.7-24.3,15.2c-5.8,8.9-7,16.3-4.4,26.6c0.6,2.5-0.9,4.4-3.5,4.3l-2.3-0.1l-0.3,7.9l27.9,1c11.5,0.4,8.5,3.6,7.2,33
		H150l1-26l-32.5-1.1c-1.8-0.1-3.4-1.7-3.4-3.6l0.5-14.8c0.1-1.8,1.7-3.4,3.6-3.4l1.3,0c-3.3-20.3,11.2-41.4,31.5-45.3
		c-5.9-7.1-17.5-17.8-18.5-26.7c-0.7-7,1.1-16.2,4.6-22c-1.5-2.4-6.6-8.5-5-11.5l11.6-20.7c0.8-1.4,3.6-2.3,4.7-2.7l3-10.4
		c-11.3-4.3-20.8-12.9-26.8-23.3c-0.3-0.5-0.4-2.6-0.2-3.1l11.1-25.3c0.2-0.5,1.8-1.8,2.3-2l26.1-6.9c0,0,10.5-31.7,17.9-48.2
		c2.4-5.4,4.3-5.2,11.2-10.3c10.6-6.1,22.7-8.3,35.4-6.1C240.4,11.9,250.9,14.6,261.3,18.2z M275.5,143.7c-0.5-1.4-0.7-2.9-0.7-4.5
		c-1.2-0.5-2.8-1-4.9-1.3c-1.4-0.2-2.2,0-3.1,0.2c-0.4,1-1.3,1.5-2.9,1l-25.9-8.1c-5.1-1.6-2.7-9.3,2.4-7.7l21.8,6.8
		c0.3,0.1,0.5,0.2,0.8,0.3l1.2-4.2l-23.1-6.9c-5.2-1.5-2.9-9.3,2.3-7.7l23,6.8l1.1-3.8l-23.4-6.9c-5.2-1.5-2.9-9.3,2.3-7.7l23.4,6.9
		l1.1-3.8l-23.7-7c-5.2-1.5-2.9-9.3,2.3-7.7l23.7,7l1.1-3.8l-24.1-7.1c-5.2-1.5-2.9-9.3,2.3-7.7l11.8,3.5c0.9-0.6,1.5-1.5,1.6-2.7
		c0-0.6-0.1-1.2-0.1-2c-0.1-2.5-0.5-3.9-1.6-6.1c-1.4-2.5,10.3-4.7,11.3-3.2l8,11.2c0.8,1.2,2,1.7,3.4,1.4c1.8-0.4,2.3-1.7,2.5-3
		c-8.6-11-19.2-19.7-31.6-26.1c-4.8-2.5-1.1-9.6,3.7-7.2c12.4,6.4,23.1,14.9,32,25.5l1.1-3.8c-4.8-5.9-8-9.1-14.2-13.9
		c-5.8-4.5-9.2-6.7-15.8-9.9c-4.8-2.4-1.3-9.6,3.6-7.3c7.1,3.5,11,5.9,17.2,10.8c5.1,4,8.4,7,12,11l0.7-2.3
		c-8.2-14.4-20.1-20.3-34.9-25.3c-2.9,3.7-7.5,8-10.8,11.7c-3.6,4-9.6-1.3-6.1-5.4l4.4-5c-0.2-1.2-0.6-2.4-1.3-3.7
		c-0.5-1-1-1.9-1.6-2.6c-6.6-1.9-11.6-3-19.3-4.4c-14.4-2.5-27.7,1.5-38.4,11.3c-0.2,0.2-0.5,0.4-0.7,0.5l-8.8,23.8l40.9,12.9
		c5.1,1.6,2.7,9.3-2.4,7.7l-41.3-13l-1.5,4.2l42.2,12.8c5.2,1.6,2.8,9.3-2.4,7.7l-42.7-13l-1.4,3.7l43.4,13.2
		c5.2,1.6,2.8,9.3-2.4,7.7l-39.3-12c-0.4,0.4-0.7,0.7-1,1.1c-4,5.2-2.8,10.2-0.6,16.1c2,5.5-11.1,1.3-12.3-0.6l-3.2-5.3l-7.6-4.8
		c-2.3-1.5-0.9-4.4,1.7-3.6c2.2,0.7,3.7,0.5,5.7-0.7c1.8-1.1,2.7-2.2,3.2-4.3l0.1-0.3l-17.2,4.6l-9.7,22.1c2.9,4.8,6.8,9,11.2,12.4
		c0.2-1.2,0.5-2.3,0.6-2.6c0.2-0.9,1.2-1.7,2.1-1.7l2.8,0.1c2.7,0.1,1.6,3.6,2.2,5.3c0.9,2.6,3.1,4.2,5.8,4.2c0.9-2,5-6.2,7.5-5.1
		c6.2,2.7,5.7,2.2,2.5,8.2l4.6,2.9c8.8-3.8,11.5-14.7,5.8-22.4c-1-1.3-0.6-2.7,0.4-3.1c0.4-2.1,2.4-3.9,5.2-3.1l25.9,8.3
		c5.1,1.6,2.7,9.3-2.5,7.7l-16.9-5.4c-0.1,1-0.3,2.4-0.5,4.1l16.8,5.3c5.1,1.6,2.7,9.3-2.4,7.7l-15.7-5l-1.4,3.3l16.6,5.6
		c5.1,1.7,2.5,9.4-2.6,7.6l-18.5-6.3c-3.8,2.8-8.6,4.3-13.3,3.6l-1.6,5.4c0.3,2.3,0.7,4.5,1.2,6.8c14.1,10.5,28.6,20.4,43.5,29.6
		l4.7-6.9l3.5,0.5c5.7,4.8,10.3,6.6,17.7,7.1c5.9,0.4,9.5-0.3,14.8-2.7c-2.1-4.3-2.9-7-3.5-11.7c-0.5-3.7-0.5-6.2,0-9.5l-17.5-5.6
		c-5.1-1.7-2.7-9.3,2.5-7.7l21.7,7c3.6,1.2,3.5,5.3,1.3,7.1c3.3,7.8,4,10.9,6.5,13.7l17.3,4.5c0.9-2.6,1.2-4.2,1.5-7
		c0.2-1.8,0.2-2.8,0.1-4.6l-7.6,4.5l-7.5-5.4c3.6-4.3,5.1-7.3,6.6-12.7C275.4,150,275.8,147.1,275.5,143.7z"/>
</g>
<g>
	<path fill="#E29432" d="M142.5,87.8l17.2-4.6l-0.1,0.3c-0.5,2.1-1.4,3.2-3.2,4.3c-2,1.2-3.5,1.4-5.7,0.7c-2.6-0.8-4,2.2-1.7,3.6
		l7.6,4.8l3.2,5.3c1,1.6,10.4,4.8,12.2,2.5l5.6,3.9c-0.4,0.6-0.4,1.6,0.3,2.5c5.6,7.7,2.9,18.6-5.8,22.4l-4.6-2.9
		c3.2-6,3.7-5.5-2.5-8.2c-2.5-1.1-6.5,3.1-7.5,5.1c-2.6,0-4.8-1.5-5.8-4.2c-0.6-1.7,0.5-5.2-2.2-5.3l-2.8-0.1
		c-0.9,0-1.9,0.8-2.1,1.7c-0.1,0.3-0.4,1.4-0.6,2.6c-4.4-3.4-8.3-7.5-11.2-12.4L142.5,87.8z"/>
</g>
<g>
	<path fill="#E29432" d="M276.2,304.4c1.9-9.2-4.3-14.9-12.8-19.4c-8.4-4.4-18.4-4.3-27.6-1.9l-6.2-5.4c2.2-2,3.4-3.3,5.3-5.6
		c2-2.3,3-3.7,4.7-6.2c5.8,3.5,10.7,4.2,17.3,2.5c7.5-1.9,12.1-5.8,15.2-12.9l17.8-31.5l-6.3-3.5c-0.7-2.1-0.7-3.7,0.2-5.7
		c1.3-3.1,3.9-4.8,7.3-4.9l-13-13.3c-0.1,11.5-10.4,20.9-21.9,19.8c-4.8-0.4-7.8-1.7-11.4-4.9l-11.1,7.3c6.6,5.7,8.8,13.1,6.4,21.4
		c-2.2,7.7-7,12.2-14.7,14.2c0.4,5.2-0.8,8.8-4.2,12.7c-2.7,3.1-5.2,4.4-9.2,5.5c-4.6,1.3-7.7,1.1-12.2-0.5c0.3,3.3-0.1,5.4-1.5,8.3
		c-1,1.9-1.8,2.9-3.4,4.4c4.8,2.8,7.9,3.9,13.3,5c4.9,0.9,7.9,1,12.8,0.5l-0.9,9c-2,1.8-3.4,2.7-6,3.7c-3.3,1.2-5.5,1.5-9,0.9
		c0,0,0.2,10.3,0.5,20h-3.7l69.6,0l-2.5-11.2C272.7,310.7,275.3,308.6,276.2,304.4z"/>
</g>
<g>
	<path fill="#E29432" d="M213.4,223.7c-23.9-13.8-46.7-29.2-68.5-46.2c-0.3-0.2-0.5-0.4-0.8-0.5c-0.8-1.5-2-3.6-3.7-6.3l10-17.9
		l2.6-1c0.2,0.3,0.5,0.6,0.9,0.9c22,17.1,45.1,32.7,69.2,46.7c0.7,4,0.4,7.6-0.9,12.3c-0.6,2.3-1.1,3.6-2.1,5.7L213.4,223.7z
		 M160.6,229c-1.4-2.2-3.8-5.1-7.4-9.3c-8.4-9.7-13.7-12-12.3-25.4c0.4-4,1.2-6.5,2-8.2c22.2,17.1,45.4,32.5,69.7,46.4l0.4,6.4
		c-1.7,2-3.3,2.8-5.9,3c-4.8,0.4-9-3.3-9.3-8.1l-3.2,0.5l-1.4,2.6c-2.7,0.1-4.4-0.1-7-0.9c-2.9-0.9-4.5-1.7-7-3.5
		c-2,1.2-3.5,1.7-5.8,1.7c-3.2,0-4.7-1.5-7.6-2.8C163.7,230.7,162.1,229.9,160.6,229z"/>
</g>
<g>
	<path fill="#E29432" d="M283.9,165.3l1.3,2.1l-0.5,4.2l-2.4,9.1c0,0-11.7-0.8-17.2-5.1c-3.9-3-5.8-5.5-7.7-10.1
		c-2.2-5.5-0.8-15.3-0.8-15.3c0.6-6.4,3.8-11.3,9.9-12.4c2.8-0.5,8.3,0.2,8.5,1.4c1.2,6.7,3.2,9.2,1.4,15.5
		c-1.3,4.4-5.5,10.7-5.6,11.1c-0.5,1.3-0.2,2.2,0.6,3.1c1.3,1.5,2.6,1.2,4.3,0.7L283.9,165.3z"/>
</g>
<g>
	<path d="M242.9,64.5L215.7,163c-1.4,5.2-9.2,3-7.8-2.1l27.2-98.5C236.5,57.1,244.3,59.3,242.9,64.5z"/>
</g>
<g>
	<path fill="#D6DEE7" d="M430.6,312.5H9.2c0.5,2.2,1.1,6.2,1.5,11.4H429C429.5,318.8,430,314.7,430.6,312.5z"/>
</g>
<g>
	<path fill="#E32E33" d="M85.3,482.5V403H72.9v34.4h-6.8V403H53.6v79.6h12.4v-32.7h6.8v32.7H85.3z M80,407.9v69.9h-1.9v-33.2H60.8
		v33.2h-1.9v-69.9h1.9v34.8h17.3v-34.8H80z"/>
</g>
<g>
	<path fill="#E32E33" d="M169.3,471.1h-29.7V403h-12.4v79.6h42.1V471.1z M164.4,475.8v1.9h-31.9v-69.9h1.9v68H164.4z"/>
</g>
<g>
	<path fill="#E32E33" d="M268.1,414.2V403h-25v79.6h12.4v-32.7h10.3v-12.4h-10.3v-23.2H268.1z M248.4,477.5v-69.8h14.9v1.8h-13v33.2
		h10.5v1.8h-10.5v33H248.4z"/>
</g>
<g>
	<path fill="#E29432" d="M287.6,417.4v14.2c-11.6,6.8-18.6,14.5-18.6,27.5v8.1c0,11.3,5.7,16.5,13.4,16.5c3.5,0,6.3-1.7,8-4.3
		c0.1,1.1,0.5,2.3,0.8,3.1h10.4c-1.2-3.6-1.6-6.5-1.6-11v-53.4c0-9.7-6.5-16.4-15.3-16.4c-9.1,0-14.8,6.6-14.8,16V429h11.7v-11.6
		c0-2.2,0.6-3.7,3-3.7C287.1,413.7,287.6,415.3,287.6,417.4z M294.8,469.3c0,2.7,0.2,5.7,0.7,8.5h-1.8c-0.4-1.9-0.6-3.9-0.7-6
		c-2,4.1-5.6,6.9-9.7,6.9c-6,0-8.8-4.2-8.8-11.3v-9.4c0-9.8,4.3-16.2,18.4-24v-16.1c0-5.3-3.3-9.1-8.1-9.1c-5.3,0-7.9,3.5-7.9,9v6.6
		h-1.9v-6.6c0-6.5,3.7-10.8,9.8-10.8c6.2,0,10,4.4,10,10.9V469.3z M292.9,468.7c0-5.4,0-32.7,0-32.7c-14.5,8.2-16.5,14.3-16.5,22
		v9.4c0,5.5,1.8,9.6,6.9,9.6C287.6,476.9,291.8,471.6,292.9,468.7z M287.6,464.2c-0.2,4.2-1.2,7.3-3.2,7.3c-2,0-2.9-1.3-2.9-4.1
		v-10.8c0-5,2-8.8,6.1-11.9V464.2z"/>
</g>
<g>
	<path fill="#E32E33" d="M335.6,407.3c-1.7-3.5-4.8-5.5-9-5.5c-3,0-6.6,1.7-8.8,4.4V403H306v79.6h12.4v-65.1c1.3-2,2.7-3.2,4.2-3.2
		c1.6,0,2.3,1,2.3,2.6v65.7h12.3v-65.1c1.3-2,2.9-3.2,4.3-3.2c1.6,0,2.3,1,2.3,2.6v65.7H356v-68c0-7.9-3.9-12.8-10.5-12.8
		C342.2,401.8,338.5,403.6,335.6,407.3z M332,417.9v59.9h-1.9V416c0-4.4-1.9-7.3-5.4-7.3c-4.1,0-8,3.5-11.6,9.2v59.9h-1.9v-69.9h1.9
		v7.2c3.5-5.3,7.4-8.1,11.8-8.1c4.5,0,6.9,3.7,7,8.1c3.5-5.3,7.4-8.1,11.8-8.1c4.5,0,7,3.5,7,9.1v61.8H349V416
		c0-4.4-1.9-7.3-5.4-7.3C339.6,408.7,335.6,412.2,332,417.9z"/>
</g>
<g>
	<path fill="#E29432" d="M391.6,446.2v-28.4c0-9.4-5.7-16-14.8-16c-8.8,0-15.4,6.7-15.4,16.4v49.2c0,9.8,6.6,16.4,15.4,16.4
		c9.1,0,14.8-6.5,14.8-16v-14.3h-11.7v14.5c0,2.2-0.5,3.9-3,3.9c-2.5,0-3-1.8-3-3.9v-21.6H391.6z M386.6,417.6v24.3h-17.9v25.8
		c0,5.3,2.9,9.1,8.1,9.1c5,0,7.9-3.3,7.9-8.8v-9.7h1.9v9.7c0,6.3-3.7,10.8-9.8,10.8c-5.9,0-10-4.7-10-11v-49.9
		c0-6.4,3.8-10.9,10-10.9C382.9,406.9,386.6,411.2,386.6,417.6z M384.7,440.1v-22.5c0-5.5-2.6-9-7.9-9c-4.8,0-8.1,3.8-8.1,9.1v22.3
		H384.7z M379.9,417.6v17.9h-6v-17.9c0-2.2,0.6-3.9,3-3.9C379.3,413.7,379.9,415.5,379.9,417.6z"/>
</g>
<g>
	<path fill="#ABBFCE" d="M202,482.8h4.4c10.2,0,14.1-5.7,15.3-16.7l2.2-21h10v-10.9h-9l1.6-14.8c0.5-3.9,2.1-5.6,5.3-5.6h3.3v-11
		h-3.7c-10.2,0-14.9,6.7-16.1,17.1l-1.4,14.3H204V445h8.8l-2.2,21.5c-0.4,3.7-1.8,5.3-5,5.3H202V482.8z M221.9,419.7l-1.9,19h9.8
		v1.8h-10l-2.6,25.9c-0.8,7.8-4.1,11.7-10.3,11.7v-1.8c5.1,0,7.8-3.3,8.5-10.2l2.6-25.7h-9.8v-1.8h9.9l2-19.2
		c0.8-7.9,4.4-12.1,10.3-12.1v1.8C224.3,409.2,222.3,414.9,221.9,419.7z"/>
</g>
<g>
	<path fill="#ABBFCE" d="M196.6,471.6v10.9h-12.8v-10.9H196.6z M192.4,475.7h-4.5v2.6h4.5V475.7z"/>
</g>
<g>
	<path fill="#E29432" d="M101.6,482.5h-3.3h-1.9h-3.4h-2v-64.4c0-9.7,6.6-16.4,15.4-16.4c9.1,0,14.8,6.6,14.8,16v28.4l-0.1,3.6
		l0,32.7h-12.4v-32.7h-5.2v32.7H101.6z M96.3,477.7h1.9v-33.2h16v33.2h1.9l0-35.8v-24.3c0-6.5-3.7-10.8-9.8-10.8
		c-6.2,0-10,4.4-10,10.9V477.7z M114.3,442.7h-16v-25c0-5.3,3.3-9.1,8.1-9.1c5.3,0,7.9,3.5,7.9,9V442.7z M109.5,417.6
		c0-2.2-0.6-3.9-3-3.9c-2.4,0-3,1.8-3,3.9v19.7h6V417.6z"/>
</g>
<g>
	<path fill="#D6DEE7" d="M220.1,520.1c0,0-1.5,12.3,0,13.1c1.5-0.8,34.7-18.5,56.4-30C253.9,509.9,220.1,520.1,220.1,520.1z"/>
</g>
<g>
	<path fill="#ABBFCE" d="M189.8,415.4c-8.6,0-15.5,6.5-15.5,16v18.2c0,9.6,6.9,16,15.5,16c8.6,0,15.5-6.5,15.5-16v-18.2
		C205.3,421.8,198.4,415.4,189.8,415.4z M189.8,420.5c5.6,0,10.2,4.7,10.2,10.5v19c0,5.9-4.5,10.5-10.2,10.5
		c-5.6,0-10.2-4.7-10.2-10.5v-19C179.7,425.2,184.2,420.5,189.8,420.5z M189.8,422.3c-4.7,0-8.2,3.8-8.2,8.7v19
		c0,4.9,3.6,8.6,8.2,8.6c4.7,0,8.2-3.7,8.2-8.6v-19C198,426.1,194.5,422.3,189.8,422.3z M189.8,427.3c1.8,0,3,1.2,3,3.2v19.8
		c0,2-1.2,3.2-3,3.2c-1.8,0-3-1.2-3-3.2v-19.8C186.8,428.5,188,427.3,189.8,427.3z"/>
</g>
<g>
	<path fill="#E29432" d="M169.4,455.2h-12.8V403h-12.4v63.7h25.2V455.2z M164.5,460v1.9h-15.1v-54h1.9V460H164.5z"/>
</g>
<g>
	<path fill="#D6DEE7" d="M93.1,360.3c0.4-1.2,0.7-2.1,0.7-2.3c-1.1-0.2-15.7,18.4-19,26.1c-1,2.3-3.2,3.8-5.1,3.8
		c-0.9,0-1.6-0.5-1.6-1.5c0-0.3,0.1-0.7,0.2-1.2l10-29.2c0.4-1.1,0.7-2,0.7-2.3c-1.6-0.2-15.8,20.6-20.5,30.3
		c-1.2,2.5-3.4,3.8-5.1,3.8c-0.9,0-1.6-0.5-1.6-1.5c0-0.3,0.1-0.7,0.2-1.2l10.8-31.3c0.8-2.4,1.2-4.6,1.2-6.6c0-5.3-2.7-8.8-6.9-8.8
		c-5.8,0-9.6,7.9-9.6,12.6c0,4.2,1.5,5.5,3,5.5c1.9,0,2.6-1.9,3.6-1.9c0.6,0,1.1,0.5,1.1,1.9c0,3-3.7,6.7-7.7,6.7
		c-2.5,0-5.5-1.8-5.5-8.1c0-12.1,10.6-20.1,17.7-20.1c5.8,0,10.4,4.1,10.4,11.4c0,2.3-0.5,4.9-1.5,7.7L64,368.3
		c5.3-8.3,13.9-19.8,17.2-23.3c1.9-1.9,3.8-2.8,5.2-2.8c1.2,0,2,0.6,2,1.8c0,0.6-0.2,1.5-0.4,1.9l-8.5,24.7
		c4.9-7.2,12.3-16.4,16-20.9c1.9-2.3,4-3.2,5.7-3.2c1.5,0,2.4,0.7,2.4,2c0,0.5-0.2,1.2-0.4,1.7L93,379.7c-0.4,1.1-0.6,2.3-0.6,3.8
		c0,3.1,1,6.6,3.4,8.3c0.5,0.4,0.6,0.7,0.6,1.1c0,0.4-0.4,0.7-1,0.7c-0.1,0-0.2,0-0.4-0.1c-5.6-1.4-8.7-6.7-8.7-11.7
		c0-1.1,0.2-2.2,0.5-3.2L93.1,360.3z M172.2,381.4c-1.8,0-2.7,1.2-2.7,2.4c0,0.8,0.5,1.5,1.5,1.5c1.3,0,2.9-1.1,4.2-3.2
		C174.2,381.8,173.2,381.4,172.2,381.4z M196.4,361.5l-0.9,4.1c4.5-6.8,7.9-14.6,7.9-19.9c0-1.5-0.2-2.1-0.6-2.1
		C201.4,343.6,198.6,351.3,196.4,361.5z M233.1,385.4c1.4,0,2.8-0.9,3.8-2c-1.3-0.3-2.5-0.6-3.8-0.6c-1.5,0-2,0.6-2,1.2
		C231.1,384.6,231.8,385.4,233.1,385.4z M235,363.7c0,0.9,0.2,1.4,0.7,2.4c1.1-1.6,2-3.2,2.1-4.4c0-0.6-0.2-0.9-0.6-0.9
		C236.5,360.9,235,362.3,235,363.7z M305.8,360.3c0.4-1.2,0.7-2.1,0.7-2.3c-1.1-0.2-15.7,18.4-19,26.1c-1,2.3-3.2,3.8-5.1,3.8
		c-0.9,0-1.6-0.5-1.6-1.5c0-0.3,0.1-0.7,0.2-1.2l10-29.2c0.4-1.1,0.7-2,0.7-2.3c-1.6-0.2-15.8,20.6-20.5,30.3
		c-1.2,2.5-3.4,3.8-5.1,3.8c-0.9,0-1.6-0.5-1.6-1.5c0-0.3,0.1-0.7,0.2-1.2l10.8-31.3c0.8-2.4,1.2-4.6,1.2-6.6c0-5.3-2.7-8.8-6.9-8.8
		c-5.8,0-9.6,7.9-9.6,12.6c0,4.2,1.5,5.5,3,5.5c1.9,0,2.6-1.9,3.6-1.9c0.6,0,1.1,0.5,1.1,1.9c0,3-3.7,6.7-7.7,6.7
		c-2.5,0-5.5-1.8-5.5-8.1c0-12.1,10.6-20.1,17.7-20.1c5.8,0,10.4,4.1,10.4,11.4c0,2.3-0.5,4.9-1.5,7.7l-4.9,14.1
		c5.3-8.3,13.9-19.8,17.2-23.3c1.9-1.9,3.8-2.8,5.2-2.8c1.2,0,2,0.6,2,1.8c0,0.6-0.2,1.5-0.4,1.9l-8.5,24.7
		c4.9-7.2,12.3-16.4,16-20.9c1.9-2.3,4-3.2,5.7-3.2c1.5,0,2.4,0.7,2.4,2c0,0.5-0.2,1.2-0.4,1.7l-10.2,29.6c-0.4,1.1-0.6,2.3-0.6,3.8
		c0,3.1,1,6.6,3.4,8.3c0.5,0.4,0.6,0.7,0.6,1.1c0,0.4-0.4,0.7-1,0.7c-0.1,0-0.2,0-0.4-0.1c-5.6-1.4-8.7-6.7-8.7-11.7
		c0-1.1,0.2-2.2,0.5-3.2L305.8,360.3z M346.6,385.4c1.4,0,2.8-0.9,3.8-2c-1.3-0.3-2.5-0.6-3.8-0.6c-1.5,0-2,0.6-2,1.2
		C344.6,384.6,345.3,385.4,346.6,385.4z M348.5,363.7c0,0.9,0.2,1.4,0.7,2.4c1.1-1.6,2-3.2,2.1-4.4c0-0.6-0.2-0.9-0.6-0.9
		C350,360.9,348.5,362.3,348.5,363.7z M371.1,369.5c-1.5,3.3-3.5,7.6-4.8,12c-0.2,0.6-0.3,1.2-0.3,1.6c0,0.6,0.2,1.1,0.8,1.1
		c1,0,3.2-1.4,6.1-4.3c0-0.2,0-0.4,0-0.6c0-7.8,6.5-15.7,15.1-15.7c3.6,0,6.2,2.1,6.2,5c0,3.3-2.9,6.4-6.1,6.4
		c-1.9,0-3.1-1.2-3.1-2.3c0-0.6,0.5-1.3,1.3-1.3h0.4c0.4,0,1.9-0.2,1.9-2.5c0-1.1-0.5-2.4-2.1-2.4c-4.1,0-7.7,6.6-7.7,11.7
		c0,3.7,2.4,5.8,5.9,5.8c3.4,0,7.7-1.9,11.5-6.4c0.3-0.4,0.9-0.6,1.4-0.6c0.5,0,0.9,0.2,0.9,0.8c0,0.6-0.3,1.3-1.1,2.3
		c-4,4.7-9.8,7.9-15.2,7.9c-4,0-7.2-2-8.6-5.1c-3.5,3.4-6.8,5.1-9.1,5.1c-3,0-4.4-1.8-4.4-4.5c0-0.3,0-0.6,0-0.9
		c-1.9,1.5-3.5,1.9-5.1,1.9c-0.2,0-0.7-0.1-0.7-0.1c-2.2,2.6-5.5,3.6-8.7,3.6c-2.9,0-5.6-1.6-5.6-3.6c0-2.2,3-4.2,8.5-4.2
		c0.9,0,2,0.1,2.8,0.2c-0.2-2.5-2.2-4.7-4.1-7l-5.5,6.7c-4.6,5.4-9.1,8.1-11.9,8.1c-2.8,0-3.9-1.5-3.9-3.9c0-1,0.2-1.9,0.5-3.1
		c-3.4,4.7-7,7-9.6,7c-2.3,0-4-1.8-4-5.2c0-3.7,2.3-8.7,4.1-12.5c0.2-0.3,0.4-0.8,0.4-1.1c0-0.2-0.2-0.3-0.4-0.3
		c-0.2,0-0.5,0.1-0.7,0.1c-0.6,0-1.1-0.2-1.1-0.8c0-1.5,4-4.5,8-4.5c1.1,0,1.9,0.5,1.9,1.4c0,0.4-0.1,0.8-0.3,1.2
		c-2.3,5-6.3,11-6.3,15.6c0,1.5,0.4,2.1,1.1,2.1c2.3,0,7.7-7.3,11.7-15.9c1.4-2.8,4-4.4,5.6-4.4c0.9,0,1.5,0.4,1.5,1.4
		c0,0.2-0.1,0.7-0.4,1.5c-1.6,3.7-6.4,14.3-6.4,16.6c0,0.6,0.2,1.1,0.8,1.1c1.2,0,4.3-2.1,8.3-6.6c1.5-1.8,3.5-4.3,5.2-6.5
		c-0.9-1.3-1.6-2.9-1.6-4.6c0-4.8,5.4-8.9,8.9-8.9c1.5,0,2.5,0.7,2.5,2.5c0,2.5-2.7,6.1-4.5,8.4c2.3,2.9,5.4,6.3,5.4,10.1
		c0,0.4-0.1,1.5-0.2,2c2.1-0.1,3.4-0.7,5.4-3c1.1-3.1,2.5-5.7,3.2-7.2c0.2-0.6,0.4-0.9,0.4-1.1c0-0.2-0.2-0.3-0.4-0.3
		c-0.2,0-0.5,0.1-0.7,0.1c-0.6,0-1.1-0.2-1.1-0.8c0-1.6,4.3-4.6,8.4-4.6c1.1,0,1.6,0.5,1.6,1.2C372.9,365.8,372,367.5,371.1,369.5z
		 M227,377.5c1.5-1.7,3.5-4.3,5.2-6.5c-0.9-1.3-1.6-2.9-1.6-4.6c0-4.8,5.4-8.9,8.9-8.9c1.5,0,2.5,0.7,2.5,2.5c0,2.5-2.7,6.1-4.5,8.4
		c2.3,2.9,5.4,6.3,5.4,10.1c0,0.4-0.1,1.5-0.2,2c2.1-0.1,3.4-0.7,5.4-3.1c0.3-0.4,0.9-0.6,1.4-0.6s0.9,0.2,0.9,0.8
		c0,0.6-0.3,1.3-1.1,2.3c-3,3.6-5.3,4.5-7.6,4.5c-0.2,0-0.7-0.1-0.7-0.1c-2.2,2.6-5.5,3.6-8.7,3.6c-2.9,0-5.6-1.6-5.6-3.6
		c0-2.2,3-4.2,8.5-4.2c0.9,0,2,0.1,2.8,0.2c-0.2-2.5-2.2-4.7-4.1-7l-5.1,6.2c-0.1,0.2-0.3,0.4-0.5,0.6c-4.5,5.3-8.9,7.9-11.7,7.9
		c-3,0-4.4-1.8-4.4-4.5c0-0.2,0-0.4,0-0.6c-3.5,3.4-6.9,5.1-9.2,5.1c-3,0-4.4-1.8-4.4-4.5c0-0.9,0.2-1.9,0.5-3
		c1.8-6,4.5-9.7,4.5-10.9c0-0.3-0.2-0.5-0.5-0.5c-1.9,0-9.6,7.1-10.8,11.4l-0.9,3.3c-0.6,2.5-3.3,4.1-4.9,4.1
		c-0.9,0-1.5-0.4-1.5-1.5c0-0.3,0.1-0.8,0.2-1.1l0.9-3.1c-1.5,1.1-3,1.4-4.4,1.4c-1.1,0-2-0.2-3-0.6c-3,3.8-7,4.7-9.2,4.7
		c-2.3,0-4-1.1-4-3.2c0-1.7,1.1-5.6,7-5.6c1.2,0,2.6,0.2,4.3,0.5c0.9-2.2,1.4-4.9,1.4-6.9c0-2.8-0.9-4.9-3.2-4.9
		c-3.2,0-7.8,6.1-9.6,11.6l-8,23.1c-0.9,2.5-3.5,4.1-5.2,4.1c-0.8,0-1.4-0.4-1.4-1.3c0-0.3,0.1-0.7,0.2-1.2l7.1-20.8
		c-3.3,3-6.4,4.6-8.5,4.6c-2.9,0-4.3-1.8-4.3-4.5c-0.1-0.9,0.2-1.9,0.5-3.1c1.7-6.1,4.4-9.7,4.4-10.9c0-0.2-0.1-0.4-0.3-0.4
		c-1.6,0-8.4,6.7-10,11.2l-1.2,3.6c-0.8,2.5-3.5,4.1-5.2,4.1c-0.8,0-1.4-0.4-1.4-1.3c0-0.3,0.1-0.7,0.2-1.2l5.3-15.3
		c0.1-0.2,0.2-0.5,0.2-0.6c0-0.2-0.2-0.4-0.4-0.4c-1.6,0-8.3,6.7-9.8,11l-1.3,3.7c-0.9,2.5-3.5,4.1-5.2,4.1c-0.8,0-1.4-0.4-1.4-1.3
		c0-0.3,0.1-0.7,0.2-1.2l0.9-2.5c-3.7,3.1-8.1,5-12.3,5c-5.3,0-9.2-3.5-9.2-8.6c0-7.4,6.1-15.7,15.1-15.7c4,0,6,2.4,6,4.9
		c0,4.4-6.1,9.9-11.7,12.5c-0.3,0.2-0.6,0.2-0.9,0.2c-0.6,0-1.1-0.4-1.1-1c0-0.5,0.3-1.1,1.1-1.7c5.1-4,6.8-7.7,6.8-9.9
		c0-1.5-0.7-2.3-1.9-2.3c-3.5,0-7.5,6.2-7.5,11.7c0,3.7,2.4,5.8,5.9,5.8c3.4,0,7.7-1.9,11.5-6.4l2.5-7.3c0.2-0.5,0.3-0.9,0.3-1.1
		c0-0.2-0.1-0.3-0.3-0.3c-0.2,0-0.5,0.2-0.8,0.2c-0.5,0-1.1-0.2-1.1-0.8c0-1.2,3.6-4.5,7.9-4.5c0.8,0,1.5,0.5,1.5,1.4
		c0,0.3-0.1,0.7-0.2,1.2l-1.6,4.7c3.6-4.2,8.3-7.3,11.2-7.3c1.4,0,2.3,0.8,2.3,2.6c0,0.9-0.2,1.9-0.6,3.3l-0.6,1.9
		c3.9-4.5,9.3-7.8,12.3-7.8c1.4,0,2.2,0.6,2.2,2.1c0,0.9-0.4,2.3-1.1,3.8c-1.5,3.2-3.6,7.8-4.8,12c-0.2,0.6-0.2,1.1-0.2,1.5
		c0,0.6,0.2,1.1,0.7,1.1c1.3,0,4.3-2.1,8.1-6.5l2.6-7.4c0.2-0.5,0.3-0.9,0.3-1.1c0-0.2-0.1-0.3-0.3-0.3c-0.2,0-0.5,0.2-0.9,0.2
		s-1-0.2-1-0.8c0-1.4,3.7-4.5,7.9-4.5c0.8,0,1.5,0.5,1.5,1.4c0,0.3-0.1,0.7-0.2,1.2l-1,2.8c3-3.6,6.2-5.3,9.1-5.3
		c4.2,0,6.2,4,6.2,7.3c0,3.2-1.5,6.8-3.2,9.4c0,0,0.6,0.1,1.1,0.1c2.8,0,3.8-1.1,5.3-2.7l4.5-16c4-14.3,12.2-26.6,15.7-26.6
		c1.1,0,1.9,1.2,1.9,3.9c0,11.1-7.5,24.1-15.1,33l-0.2,1.1c4-5.3,10.8-9.6,14.4-9.6c1.4,0,2.3,0.6,2.3,2.2c0,0.8-0.3,2.2-1.1,3.7
		c-1.5,3.2-3.6,7.8-4.8,12c-0.2,0.6-0.3,1.1-0.3,1.5c0,0.6,0.2,1.1,0.8,1.1c1.2,0,4.3-2.1,8.2-6.6c1.1-3.1,2.5-5.7,3.2-7.2
		c0.2-0.6,0.4-0.9,0.4-1.1c0-0.2-0.2-0.3-0.4-0.3c-0.2,0-0.5,0.1-0.7,0.1c-0.6,0-1.1-0.2-1.1-0.8c0-1.6,4.3-4.6,8.4-4.6
		c1.1,0,1.6,0.5,1.6,1.2c0,1.1-0.9,2.8-1.8,4.7c-1.5,3.3-3.5,7.6-4.8,12c-0.2,0.6-0.3,1.2-0.3,1.6c0,0.6,0.2,1.1,0.8,1.1
		C220,384.1,223.1,382,227,377.5z"/>
</g>
<g>
	<path fill="#D6DEE7" d="M220.2,355.2L220.2,355.2c-0.3,1.2-0.1,2.3,0.4,3c0.5,0.7,1.2,1.1,2.2,1.1c2,0,4.2-2,4.7-4.4
		c0.3-1.1,0.1-2.2-0.4-2.9c-0.5-0.7-1.2-1.1-2.1-1.1C222.9,350.8,220.7,352.8,220.2,355.2z"/>
</g>
<g>
	<path fill="#D6DEE7" d="M367.5,355.2L367.5,355.2c-0.3,1.2-0.1,2.3,0.4,3c0.5,0.7,1.2,1.1,2.2,1.1c2,0,4.2-2,4.7-4.4
		c0.3-1.1,0.1-2.2-0.4-2.9c-0.5-0.7-1.2-1.1-2.1-1.1C370.1,350.8,368,352.8,367.5,355.2z"/>
</g>
</svg>
