<?xml version="1.0" standalone="no"?>
<!DOCTYPE svg PUBLIC "-//W3C//DTD SVG 1.1//EN" "http://www.w3.org/Graphics/SVG/1.1/DTD/svg11.dtd">
<svg width="470px" height="164px" version="1.1" xmlns="http://www.w3.org/2000/svg" xmlns:xlink="http://www.w3.org/1999/xlink" xml:space="preserve" style="fill-rule:evenodd;clip-rule:evenodd;stroke-linejoin:round;stroke-miterlimit:1.41421;">
    <g>
        <path d="M369.88,160.33C369.88,162.26 368.32,163.85 366.363,163.85C364.41,163.85 362.843,162.26 362.843,160.33C362.843,158.38 364.41,156.813 366.363,156.813C368.32,156.813 369.88,158.38 369.88,160.33Z" style="fill:white;fill-rule:nonzero;"/>
        <path d="M391.023,148.183C389.823,146.56 387.867,145.687 385.857,145.687C382.247,145.687 379.81,148.45 379.81,151.973C379.81,155.55 382.277,158.137 385.947,158.137C387.867,158.137 389.79,157.207 391.023,155.73L391.023,162.8C389.077,163.403 387.657,163.85 385.823,163.85C382.667,163.85 379.66,162.653 377.313,160.513C374.813,158.257 373.673,155.31 373.673,151.94C373.673,148.843 374.843,145.867 377.013,143.643C379.24,141.36 382.453,139.973 385.643,139.973C387.54,139.973 389.28,140.397 391.023,141.117L391.023,148.183Z" style="fill:white;fill-rule:nonzero;"/>
        <path d="M400.953,151.523C400.953,155.433 403.84,158.29 407.36,158.29C410.88,158.29 413.763,155.433 413.763,151.523C413.763,148.393 410.88,145.537 407.36,145.537C403.84,145.537 400.953,148.393 400.953,151.523ZM419.9,151.49C419.9,158.83 414.633,164 407.36,164C400.08,164 394.82,158.83 394.82,151.49C394.82,144.63 400.827,139.823 407.36,139.823C413.883,139.823 419.9,144.63 419.9,151.49Z" style="fill:white;fill-rule:nonzero;"/>
        <path d="M445.1,163.25L443.443,150.197L443.387,150.197L437.943,162.123C437.943,162.123 437.637,162.923 436.803,162.923C435.97,162.923 435.597,162.123 435.597,162.123L430.39,150.197L430.33,150.197L428.44,163.25L422.31,163.25L425.827,142.51C425.827,142.51 426.213,140.577 428.167,140.577C428.943,140.577 429.897,140.577 430.913,140.577C432.5,140.577 432.863,142.07 432.863,142.07L436.83,152.693L440.707,142.143C440.707,142.143 441.067,140.647 442.663,140.647C443.67,140.647 444.63,140.647 445.403,140.647C447.36,140.647 447.74,142.58 447.74,142.58L451.24,163.25L445.1,163.25Z" style="fill:white;fill-rule:nonzero;"/>
        <path d="M47.8867,54.4767L75.4867,54.4767C75.4867,54.4767 79.8967,54.35 78.0733,60.33L68.5667,95.5033C65.9067,103.467 60.3967,102.903 57.01,102.903L34.8233,102.903L47.8867,54.4767ZM92.59,107.913C92.8333,107.183 93.0633,106.43 93.28,105.643L107.45,52.5167C113.38,30.01 91.18,30.93 91.18,30.93L54.0467,30.93L62.4533,0.139999L34.8233,0.139999L5.47333,107.913L92.59,107.913Z" style="fill:white;fill-rule:nonzero;"/>
        <path d="M4.39333,111.887L2.86,117.513L87.6967,117.513C88.92,115.9 90.0367,114.03 91.0267,111.887L4.39333,111.887Z" style="fill:white;fill-rule:nonzero;"/>
        <path d="M1.78,121.487L0,128.027L61.8,128.027C66.5667,128.027 76.23,128.117 83.9667,121.487L1.78,121.487Z" style="fill:white;fill-rule:nonzero;"/>
        <path d="M132.663,98.2933C132.663,98.2933 142.09,62.9133 143.307,58.3533C144.523,53.79 148.783,54.2467 148.783,54.2467L170.68,54.2467C170.68,54.2467 174.937,53.6367 173.263,59.2633C173.263,59.2633 163.837,94.9467 162.62,99.2067C161.403,103.463 157.757,103.007 157.757,103.007C157.757,103.007 139.203,103.007 135.25,103.007C131.297,103.007 132.663,98.2933 132.663,98.2933ZM187.847,107.913L203.373,49.53C205.96,30.98 188.777,31.13 188.777,31.13L142.397,31.13C123.843,32.6533 118.37,49.6833 118.37,49.6833L102.557,107.913L187.847,107.913Z" style="fill:white;fill-rule:nonzero;"/>
        <path d="M101.92,111.887C101.837,114.04 102.03,115.9 102.44,117.513L182.843,117.513C184.457,115.437 185.597,113.43 186.35,111.887L101.92,111.887Z" style="fill:white;fill-rule:nonzero;"/>
        <path d="M104.12,121.487C108.32,128.07 117,127.85 117,127.85L164.447,127.85C170.837,127.193 175.613,124.57 179.117,121.487L104.12,121.487Z" style="fill:white;fill-rule:nonzero;"/>
        <path d="M368.957,102.903L367.567,107.913L452.093,107.913C452.17,107.63 452.257,107.36 452.327,107.067L458.287,85.2633C458.287,85.2633 462.843,68.2333 443.28,68.2333C423.713,68.2333 403.553,68.2333 403.553,68.2333L407.32,54.2433L463.09,54.2433L469.433,30.93L407.66,30.93C407.66,30.93 387.28,30.5267 381.2,48.57L374.837,71.7833C374.837,71.7833 368.757,90.8433 391.157,90.8433C413.563,90.8433 429.37,90.8433 429.37,90.8433L426.25,102.903L368.957,102.903Z" style="fill:white;fill-rule:nonzero;"/>
        <path d="M363.803,121.487L362.04,127.85L426.477,127.85C426.477,127.85 436.127,128.18 443.907,121.487L363.803,121.487Z" style="fill:white;fill-rule:nonzero;"/>
        <path d="M366.467,111.887L364.903,117.513L447.577,117.513C448.767,115.9 449.84,114.04 450.74,111.887L366.467,111.887Z" style="fill:white;fill-rule:nonzero;"/>
        <path d="M352.613,111.887L304.127,111.887C304.073,113.48 304.197,115.47 304.82,117.513L351.07,117.513L352.613,111.887Z" style="fill:white;fill-rule:nonzero;"/>
        <path d="M304.717,107.913L353.7,107.913L355.073,102.903L334.29,102.903L347.257,54.3467L368.11,54.3467L374.44,30.93L353.617,30.93L362.03,0.110001L333.92,0.110001L325.56,30.8267L312.88,30.8267L306.527,54.2433L319.25,54.2433L304.717,107.913Z" style="fill:white;fill-rule:nonzero;"/>
        <path d="M306.8,121.487C309.39,124.993 314.327,127.85 323.557,127.85L348.24,127.85L349.983,121.487L306.8,121.487Z" style="fill:white;fill-rule:nonzero;"/>
        <path d="M279.46,117.513L280.977,111.887L198.833,111.887C199.093,113.743 199.573,115.663 200.373,117.513L279.46,117.513Z" style="fill:white;fill-rule:nonzero;"/>
        <path d="M229.63,96.42L237.653,66.0933C237.653,66.0933 240.603,49.6833 269.573,55.9933L259.283,94.14C259.283,94.14 244.913,103.717 234.8,103.11C227.73,102.73 229.63,96.42 229.63,96.42ZM282.047,107.913L302.827,30.93L260.25,30.93C260.25,30.93 219.037,30.93 209.913,62.46L199.42,100.477C199.42,100.477 198.57,103.68 198.57,107.913L282.047,107.913Z" style="fill:white;fill-rule:nonzero;"/>
        <path d="M251.783,121.487L250.057,127.85L276.67,127.85L278.387,121.487L251.783,121.487Z" style="fill:white;fill-rule:nonzero;"/>
        <path d="M202.777,121.487C206.12,125.593 211.94,128.623 221.927,128.457C221.927,128.457 235.06,129.443 250.303,121.487L202.777,121.487Z" style="fill:white;fill-rule:nonzero;"/>
    </g>
</svg>
