<?xml version="1.0" standalone="no"?>
<!DOCTYPE svg PUBLIC "-//W3C//DTD SVG 1.1//EN" "http://www.w3.org/Graphics/SVG/1.1/DTD/svg11.dtd">
<svg width="211px" height="20px" version="1.1" xmlns="http://www.w3.org/2000/svg" xmlns:xlink="http://www.w3.org/1999/xlink" xml:space="preserve" style="fill-rule:evenodd;clip-rule:evenodd;stroke-linejoin:round;stroke-miterlimit:1.41421;">
    <g>
        <path d="M62.11,0.0733337L59.4167,0.0733337C59.4167,0.0733337 55.1367,4.96667 54.9567,5.17333C54.7733,4.97 50.2733,0.0733337 50.2733,0.0733337L47.21,0.0733337C47.21,0.0733337 53.5033,6.88 53.57,6.95333C53.57,7.05 53.57,12.2233 53.57,12.2233L56.0667,12.2233C56.0667,12.2233 56.0667,7.05 56.0667,6.95333C56.1333,6.88 62.4,0.0733337 62.4,0.0733337L62.11,0.0733337Z" style="fill:white;fill-rule:nonzero;"/>
        <path d="M67.96,2.20333C68.16,2.56333 70.72,7.13667 70.91,7.47667C70.52,7.47667 65.4233,7.47667 65.0333,7.47667C65.2233,7.13667 67.76,2.56333 67.96,2.20333ZM69.0233,0.0733337L66.9033,0.0733337L59.8867,12.2233L62.4267,12.2233C62.4267,12.2233 63.87,9.57 63.94,9.44333C64.0867,9.44333 71.86,9.44333 72.0067,9.44333C72.0767,9.57 73.55,12.2233 73.55,12.2233L76.2867,12.2233L69.0967,0.0733337L69.0233,0.0733337Z" style="fill:white;fill-rule:nonzero;"/>
        <path d="M80.8933,0.0733337C78.5833,0.0733337 77.8767,0.763332 77.8767,3.03333L77.8767,9.28667C77.8767,11.5633 78.5533,12.2233 80.8933,12.2233L87.8767,12.2233C90.21,12.2233 90.92,11.5367 90.92,9.28667L90.92,7.78L88.4233,7.31333C88.4233,7.31333 88.4233,9.93667 88.4233,10.17C88.18,10.17 80.62,10.17 80.3767,10.17C80.3767,9.92667 80.3767,2.34 80.3767,2.09667C80.62,2.09667 88.18,2.09667 88.4233,2.09667C88.4233,2.32667 88.4233,4.67 88.4233,4.67L90.92,4.26333L90.92,3.03333C90.92,0.793333 90.18,0.0733337 87.8767,0.0733337L80.8933,0.0733337Z" style="fill:white;fill-rule:nonzero;"/>
        <path d="M108.827,0.103333L106.457,0.103333C106.457,0.103333 106.457,4.62667 106.457,4.87C106.21,4.87 97.4767,4.87 97.23,4.87C97.23,4.62667 97.23,0.103333 97.23,0.103333L94.7333,0.103333L94.7333,12.2233L97.23,12.2233C97.23,12.2233 97.23,7.16333 97.23,6.92C97.4767,6.92 106.21,6.92 106.457,6.92C106.457,7.16333 106.457,12.2233 106.457,12.2233L108.953,12.2233L108.953,0.103333L108.827,0.103333Z" style="fill:white;fill-rule:nonzero;"/>
        <path d="M123.207,0.0733337L111.16,0.0733337L111.16,2.09667C111.16,2.09667 115.723,2.09667 115.97,2.09667C115.97,2.34667 115.97,12.2233 115.97,12.2233L118.467,12.2233C118.467,12.2233 118.467,2.34667 118.467,2.09667C118.71,2.09667 123.33,2.09667 123.33,2.09667L123.33,0.0733337L123.207,0.0733337Z" style="fill:white;fill-rule:nonzero;"/>
        <path d="M144.243,0.0733337L142.133,0.0733337C142.133,0.0733337 139.16,8.31667 138.94,8.92C138.713,8.31667 135.61,0.0733337 135.61,0.0733337L133.95,0.0733337C133.95,0.0733337 130.76,8.33 130.537,8.92667C130.32,8.32667 127.337,0.0733337 127.337,0.0733337L124.733,0.0733337L129.43,12.2233L131.29,12.2233C131.29,12.2233 134.48,4.15667 134.707,3.58667C134.92,4.16 137.957,12.2233 137.957,12.2233L139.79,12.2233L144.427,0.0733337L144.243,0.0733337Z" style="fill:white;fill-rule:nonzero;"/>
        <path d="M158.727,2.09667C158.727,2.34 158.727,9.92667 158.727,10.17C158.483,10.17 149.297,10.17 149.057,10.17C149.057,9.92667 149.057,2.34 149.057,2.09667C149.297,2.09667 158.483,2.09667 158.727,2.09667ZM149.597,0.0733337C147.297,0.0733337 146.557,0.793333 146.557,3.03333L146.557,9.28667C146.557,11.5633 147.24,12.2233 149.597,12.2233L158.18,12.2233C160.513,12.2233 161.223,11.5367 161.223,9.28667L161.223,3.03333C161.223,0.793333 160.483,0.0733337 158.18,0.0733337L149.597,0.0733337Z" style="fill:white;fill-rule:nonzero;"/>
        <path d="M174.193,2.07C174.963,2.07 175.33,2.23 175.33,3.14667L175.33,4.57667C175.33,5.45333 175.117,5.65667 174.193,5.65667C174.193,5.65667 168.23,5.65667 167.98,5.65667C167.98,5.42667 167.98,2.3 167.98,2.07C168.23,2.07 174.193,2.07 174.193,2.07ZM165.613,0.0733337L165.487,0.0733337L165.487,12.2233L167.98,12.2233C167.98,12.2233 167.98,7.80667 167.98,7.56333C168.217,7.56333 170.96,7.56333 171.057,7.56333C171.13,7.63667 175.797,12.2233 175.797,12.2233L179.187,12.2233C179.187,12.2233 174.397,7.97 173.94,7.56333C174.357,7.56333 175.173,7.56333 175.173,7.56333C177.013,7.56333 177.8,6.84667 177.8,5.16667L177.8,2.50333C177.8,0.799999 177.013,0.0733337 175.173,0.0733337L165.613,0.0733337Z" style="fill:white;fill-rule:nonzero;"/>
        <path d="M184.347,0.0733337L181.973,0.0733337L181.973,12.2233L192.53,12.2233L192.53,10.17C192.53,10.17 184.723,10.17 184.473,10.17C184.473,9.92333 184.473,0.0733337 184.473,0.0733337L184.347,0.0733337Z" style="fill:white;fill-rule:nonzero;"/>
        <path d="M201,2.09667C204.713,2.09667 206.23,3.25333 206.23,6.09C206.23,9.02667 204.76,10.17 201,10.17C201,10.17 197.02,10.17 196.78,10.17C196.78,9.92667 196.78,2.34 196.78,2.09667C197.02,2.09667 201,2.09667 201,2.09667ZM194.41,0.0733337L194.283,0.0733337L194.283,12.2233L201.25,12.2233C206.283,12.2233 208.727,10.2233 208.727,6.12C208.727,3.97 207.74,2.06333 206.087,1.02C205.067,0.373333 203.53,0.0733337 201.25,0.0733337L194.41,0.0733337Z" style="fill:white;fill-rule:nonzero;"/>
        <path d="M181.57,18.2333C181.237,18.2333 181,18.27 181,18.7667L181,19.4833C181,19.69 181,20 181.443,20L182.2,20C182.553,20 182.77,19.97 182.77,19.4833L182.77,18.7667C182.77,18.27 182.533,18.2333 182.2,18.2333L181.57,18.2333Z" style="fill:white;fill-rule:nonzero;"/>
        <path d="M186.1,14.2767C184.99,14.2767 184.61,14.6467 184.61,15.7433L184.61,18.55C184.61,19.6467 184.97,20 186.1,20L189.237,20C190.36,20 190.74,19.6367 190.74,18.55L190.74,18.0167L189.347,17.7567C189.347,17.7567 189.347,18.5367 189.347,18.8133C189.02,18.8133 186.327,18.8133 186,18.8133C186,18.4867 186,15.78 186,15.4533C186.327,15.4533 189.02,15.4533 189.347,15.4533C189.347,15.72 189.347,16.38 189.347,16.38L190.74,16.1533L190.74,15.7433C190.74,14.66 190.343,14.2767 189.237,14.2767L186.1,14.2767Z" style="fill:white;fill-rule:nonzero;"/>
        <path d="M197.757,15.4533C197.757,15.78 197.757,18.4867 197.757,18.8133C197.423,18.8133 194.013,18.8133 193.677,18.8133C193.677,18.4867 193.677,15.78 193.677,15.4533C194.013,15.4533 197.423,15.4533 197.757,15.4533ZM193.79,14.2767C192.683,14.2767 192.29,14.66 192.29,15.7433L192.29,18.55C192.29,19.6467 192.657,20 193.79,20L197.647,20C198.77,20 199.147,19.6367 199.147,18.55L199.147,15.7433C199.147,14.66 198.753,14.2767 197.647,14.2767L193.79,14.2767Z" style="fill:white;fill-rule:nonzero;"/>
        <path d="M206.82,14.2767C206.82,14.2767 204.733,17.2367 204.467,17.6133C204.19,17.2433 201.91,14.2767 201.91,14.2767L200.793,14.2767L200.793,20L202.01,20C202.01,20 202.01,16.51 202.01,16.3133C202.02,16.3233 202.023,16.3433 202.033,16.3533L204.217,19.1567L204.67,19.1567C204.67,19.1567 206.62,16.5367 206.727,16.3967C206.727,16.7333 206.727,20 206.727,20L208.04,20L208.04,14.2767L206.82,14.2767Z" style="fill:white;fill-rule:nonzero;"/>
        <path d="M45.0633,12.0667L45.0633,11.7867C28.2067,10.38 25.7433,4.39667 37.0233,1.61333C39.31,1.02667 42.05,0.596666 45.0633,0.359999L45.0633,0.0833321L25.2667,0.0833321C21.7533,1.30333 19.7033,2.78 19.7033,4.36333C19.7033,7.35667 27,9.95 37.6367,11.2067C22.71,10.03 11.9933,6.80333 11.9933,3.00667C11.9933,1.98 12.7767,0.996666 14.2133,0.0833321L0.4,0.0833321C0.136667,0.529999 0,0.986666 0,1.45C0,7.04333 19.8433,11.63 45.0633,12.0667Z" style="fill:white;fill-rule:nonzero;"/>
        <path d="M209.15,13.9067L209.257,13.9067C209.383,13.9067 209.443,13.9533 209.46,14.0633C209.49,14.1767 209.51,14.2667 209.54,14.3033L209.787,14.3033C209.76,14.2667 209.743,14.2067 209.713,14.0567C209.683,13.9233 209.63,13.8533 209.533,13.8167L209.533,13.8033C209.653,13.7667 209.737,13.6833 209.737,13.5767C209.737,13.48 209.697,13.4033 209.64,13.36C209.57,13.3167 209.487,13.2867 209.3,13.2867C209.137,13.2867 209.01,13.3 208.92,13.3167L208.92,14.3033L209.15,14.3033L209.15,13.9067ZM209.157,13.4633C209.18,13.4567 209.22,13.45 209.28,13.45C209.427,13.45 209.49,13.51 209.49,13.6C209.49,13.7033 209.39,13.7433 209.263,13.7433L209.157,13.7433L209.157,13.4633ZM209.307,12.8033C208.74,12.8033 208.29,13.24 208.29,13.7867C208.29,14.3433 208.74,14.7833 209.307,14.7833C209.877,14.7833 210.313,14.3433 210.313,13.7867C210.313,13.24 209.877,12.8033 209.307,12.8033ZM209.307,13C209.743,13 210.06,13.3533 210.06,13.7933C210.06,14.2233 209.743,14.5733 209.31,14.5733C208.867,14.5733 208.543,14.2233 208.543,13.7867C208.543,13.3533 208.867,13 209.307,13Z" style="fill:white;fill-rule:nonzero;"/>
    </g>
</svg>
