<?xml version="1.0" encoding="UTF-8" standalone="no"?>
<svg width="302px" height="282px" viewBox="0 0 302 282" version="1.1" xmlns="http://www.w3.org/2000/svg" xmlns:xlink="http://www.w3.org/1999/xlink" xmlns:sketch="http://www.bohemiancoding.com/sketch/ns">
    <!-- Generator: Sketch 3.2.1 (9977) - http://www.bohemiancoding.com/sketch -->
    <title>bella-vita</title>
    <desc>Created with Sketch.</desc>
    <defs></defs>
    <g id="Page-1" stroke="none" stroke-width="1" fill="none" fill-rule="evenodd" sketch:type="MSPage">
        <g id="Desktop-HD" sketch:type="MSArtboardGroup" transform="translate(-569.000000, -222.000000)" fill="#4A3728">
            <g id="bella-vita" sketch:type="MSLayerGroup" transform="translate(569.000000, 222.000000)">
                <path d="M118.827961,95.3393478 C118.708964,95.6932609 118.944941,95.8098913 119.063939,95.9285326 L120.00785,95.9285326 L174.901947,1.30103261 C175.254905,28.8419022 163.804937,54.3819565 147.3954,76.3909239 C137.716274,90.8671739 121.661712,102.284891 110.564702,115.936685 C124.612444,113.700598 138.541188,109.582337 152.58893,106.403152 C157.074526,102.401522 159.791297,96.8696196 164.393873,93.6924457 C175.962839,80.9817391 189.8936,70.7423913 203.824361,62.0313043 C222.47468,51.0861413 246.203564,43.2015217 266.9797,46.7326087 C254.230845,51.2047826 241.477956,59.678587 227.904187,64.2673913 C223.773566,67.4465761 218.816015,68.5063043 214.919355,71.91875 C204.413298,77.3320109 193.907241,82.2747283 183.992137,88.8663587 L168.173553,98.7538043 C167.69958,99.4596196 167.69958,100.635978 168.173553,101.341793 C180.450452,93.4571739 193.199307,86.5136413 205.476206,78.7456522 C226.607318,68.387663 247.502451,57.4425 268.98652,47.9089674 L267.806631,50.1450543 C243.369813,73.5656522 216.809194,92.7513587 186.232918,101.812337 C177.852679,103.57788 169.58942,105.343424 160.735208,105.813967 C159.319341,106.638424 158.020454,107.579511 156.840565,108.874511 L157.074526,110.05288 C160.49923,111.581141 162.978006,114.995598 166.991647,115.112228 C168.409531,117.231685 170.061376,114.760326 171.832218,115.112228 C193.316288,114.406413 213.975443,115.466141 232.3918,121.93913 C243.016855,127.11712 254.58582,130.296304 263.909971,138.534837 L266.9797,140.30038 C272.88318,145.948913 278.903641,151.245543 283.744213,157.483261 C262.496121,150.069185 240.419081,144.537283 219.640929,135.709565 C207.835985,131.707935 196.267019,127.000489 184.581073,122.528315 C183.282186,126.059402 188.00376,125.351576 189.657622,127.000489 C196.97697,128.882663 203.233408,133.473478 210.669736,134.885109 C213.503487,137.004565 217.045172,137.358478 220.231882,138.534837 C240.77204,146.89 262.375107,152.659185 283.389237,159.719348 L283.978174,159.719348 C280.555486,162.54462 274.18005,159.95462 270.168427,162.074076 C249.745249,162.779891 230.149002,160.779076 212.559576,153.011087 C196.857972,145.597011 181.630341,135.357663 169.58942,121.114674 C162.270073,115.936685 153.770836,111.935054 144.561649,115.701413 C135.709454,116.996413 127.09122,118.643315 118.591983,120.762772 C122.960599,123.350761 126.147308,128.060217 128.979043,132.061848 C136.536385,130.766848 143.853715,134.533207 148.575289,140.30038 C155.658659,149.950543 159.319341,164.545435 152.58893,175.255326 C150.465129,179.140326 145.860535,180.433315 142.318851,182.671413 C134.646545,182.906685 127.09122,181.493043 122.841601,174.784783 C118.356005,172.430054 118.708964,167.135435 115.758232,163.720978 C113.398453,155.482446 114.106387,145.597011 118.00103,138.299565 L123.668532,133.473478 C122.486626,129.70712 119.771872,127.471033 116.585163,124.999674 C106.551062,122.293043 94.8630986,123.939946 85.0649752,125.82413 C80.1074233,125.82413 74.3229405,126.881848 69.2463912,128.176848 C72.6710955,131.826576 73.4960095,137.475109 71.8441645,142.301196 C67.239571,147.243913 76.8017164,150.656359 76.3297607,156.07163 C78.6915562,165.605163 74.0869626,174.43288 69.2463912,182.082228 C67.830524,182.552772 66.5316374,184.083043 65.8237038,185.494674 C59.0953095,191.026576 48.4702552,193.968478 40.3259938,189.379674 C34.3055331,185.02413 32.887649,177.845326 32.1797155,171.370326 C32.4156933,165.015978 35.7214002,160.073261 38.0811788,154.657989 C41.1509079,153.246359 42.4497945,149.950543 44.5735952,147.597826 C50.7130533,142.771739 59.3312874,141.360109 66.178679,143.358913 C67.0035931,141.360109 67.830524,138.534837 67.830524,135.709565 C67.0035931,132.767663 65.2327507,129.590489 62.7539748,127.824946 L7.50691952,131.237391 L11.7565379,128.41212 L0.42355,124.999674 C20.4917524,125.234946 48.4702552,123.704674 72.6710955,122.174402 C84.5930195,121.114674 96.0450048,118.878587 106.315084,113.700598 C112.099567,111.229239 108.91084,104.991522 110.564702,100.75462 C116.940138,61.4441304 132.28475,18.3672826 172.659149,0.476576087 L118.827961,95.3393478" id="Fill-1" sketch:type="MSShapeGroup"></path>
                <path d="M229.558049,227.511793 C230.149002,229.160707 229.913025,231.044891 228.731118,232.33788 C227.551229,233.868152 225.072453,233.395598 223.656586,233.51625 C222.121721,232.927065 220.703837,231.396793 220.586857,229.864511 C220.350879,227.511793 222.002724,225.983533 223.892564,225.042446 C226.37134,224.569891 228.731118,225.394348 229.558049,227.511793" id="Fill-2" sketch:type="MSShapeGroup"></path>
                <path d="M8.09787262,228.690163 C9.39675929,232.573152 8.92480357,237.161957 9.51373976,241.40087 C11.6395574,241.871413 13.2914024,239.518696 15.41722,239.164783 C22.0266169,237.280598 29.7009395,238.340326 34.4225136,243.636957 C39.263085,249.758043 39.6160433,260.349293 36.4293338,267.411467 C33.9505579,273.767826 27.339144,277.06163 21.0827055,277.888098 C16.7161067,278.24 12.8194467,277.415543 9.51373976,275.296087 C8.68680881,277.180272 9.04178405,280.005543 6.32703024,280.711359 C4.79216571,280.592717 3.02132333,280.359457 2.43037024,278.710543 C2.90232595,262.114837 3.96523476,243.047772 1.48645881,227.043261 C3.25730119,224.33462 7.6259169,225.74625 8.09787262,228.690163 Z M27.5751219,246.816141 C32.296696,250.69913 31.5887624,258.113207 30.4088731,263.409837 C29.4649617,266.351739 26.7502079,269.410272 23.9164567,270.825924 C19.3118631,272.002283 14.590289,272.591467 11.1676017,268.471196 L9.74971762,266.235109 L9.74971762,249.285489 C11.52056,246.816141 14.4712917,244.461413 17.6600181,244.226141 C21.4376807,243.99087 24.8603681,244.342772 27.5751219,246.816141 Z" id="Fill-3" sketch:type="MSShapeGroup"></path>
                <path d="M93.0922562,232.33788 C91.7933695,248.10913 92.8562783,265.410652 93.330251,280.122174 C92.7392979,281.769076 90.4964998,281.769076 89.0786157,281.181902 L87.0717955,277.534185 C85.6559283,262.820652 86.3638619,247.9925 86.4828593,232.927065 C87.0717955,231.750707 87.6627486,229.864511 89.3166105,229.864511 C90.9684555,229.864511 92.9752757,230.455707 93.0922562,232.33788" id="Fill-4" sketch:type="MSShapeGroup"></path>
                <path d="M111.744591,232.102609 C110.681683,247.519946 111.272636,263.76375 112.335545,278.945815 C112.099567,280.005543 111.744591,281.181902 110.564702,281.535815 C108.79386,281.887717 107.139998,281.181902 106.315084,279.535 C103.836308,264.117663 105.135195,248.344402 105.252175,232.927065 C105.60715,231.632065 106.432064,229.864511 108.085926,229.864511 C109.501793,229.985163 111.508614,230.337065 111.744591,232.102609" id="Fill-5" sketch:type="MSShapeGroup"></path>
                <path d="M185.643982,237.751141 C190.601534,246.578859 193.199307,256.466304 196.740992,265.999837 C202.1705,256.701576 204.651292,245.51913 206.656096,234.573967 C207.247049,232.573152 210.0808,232.573152 211.496667,233.51625 C213.622485,235.987609 212.08762,239.755978 212.08762,242.8125 C208.898894,254.580109 205.357209,265.999837 197.567923,275.885272 C196.857972,277.06163 195.442105,277.06163 194.143219,276.945 C190.484553,271.296467 190.129578,264.234293 187.414824,258.113207 C184.817051,250.463859 181.275366,243.401685 176.908767,236.574783 C176.67279,235.046522 177.144745,233.63288 178.324635,232.927065 C181.747322,231.750707 183.756159,235.398424 185.643982,237.751141" id="Fill-6" sketch:type="MSShapeGroup"></path>
                <path d="M76.9207138,242.8125 C78.2196005,246.462228 79.2825093,250.5825 77.1566917,254.113587 C69.1294107,257.996576 59.4482679,258.46712 50.0051198,258.113207 C49.533164,261.292391 50.4770755,264.704837 52.2479179,267.411467 C54.2547381,269.530924 56.9694919,270.118098 59.9202236,270.236739 C65.9406843,271.64837 69.1294107,259.408207 74.0869626,267.059565 C72.788076,272.591467 66.8866126,275.062826 61.9270438,275.885272 C56.733514,276.355815 51.4209869,275.53337 47.4073464,272.237554 C42.0968362,266.351739 41.9778388,256.582935 44.3396343,249.285489 C47.0543881,242.343967 53.9017798,235.046522 61.9270438,234.92788 C67.9495214,234.92788 73.8509848,237.280598 76.9207138,242.8125 Z M68.4214771,242.8125 C70.5452779,244.813315 71.2532114,247.403315 71.4891893,250.109946 C64.9967729,251.640217 58.0324007,252.816576 50.8320507,251.875489 C52.01194,246.932772 56.733514,241.871413 61.9270438,241.165598 C64.4078367,240.811685 66.5316374,241.40087 68.4214771,242.8125 Z" id="Fill-7" sketch:type="MSShapeGroup"></path>
                <path d="M255.410735,236.928696 C255.76571,239.046141 254.702801,240.580435 253.994867,242.225326 C258.597444,242.931141 263.909971,242.8125 266.9797,246.462228 C267.098698,248.10913 266.9797,249.758043 265.327855,250.463859 C260.723262,249.758043 256.356663,246.932772 251.752069,248.463043 C250.217205,255.406576 248.918318,264.586196 255.646712,269.06038 C259.660353,271.415109 263.909971,265.294022 266.390764,270.236739 C266.9797,272.824728 264.619922,274.119728 262.730082,275.062826 C257.536552,276.239185 251.871067,275.414728 247.974407,271.883641 C243.016855,265.999837 243.250816,256.820217 244.6687,249.285489 C241.010035,248.816957 236.286444,251.758859 233.807668,247.873859 C235.697507,243.047772 241.834949,243.636957 246.320545,242.8125 C247.502451,239.99125 248.446362,236.574783 251.752069,235.163152 C253.284917,234.92788 254.821798,235.398424 255.410735,236.928696" id="Fill-8" sketch:type="MSShapeGroup"></path>
                <path d="M149.40222,245.050598 C153.415861,255.523207 151.880996,269.882826 147.3954,280.122174 C146.570486,281.535815 144.561649,281.419185 143.145782,280.94663 C142.20187,280.122174 142.20187,278.593913 142.082873,277.888098 C136.536385,280.005543 128.626084,279.770272 123.90451,275.296087 C120.362825,271.296467 120.00785,264.469565 121.89769,259.524837 C124.257469,254.465489 129.805974,252.229402 135.237498,252.110761 C139.013144,251.875489 142.082873,253.28913 144.916624,255.289946 C145.860535,252.816576 144.561649,249.874674 143.500757,247.638587 C142.318851,245.28587 139.840075,243.753587 137.480296,243.047772 C132.28475,240.811685 127.682173,248.933587 124.493446,242.8125 C124.612444,238.694239 129.217037,238.105054 132.167769,237.161957 C139.251139,236.458152 146.332491,238.458967 149.40222,245.050598 Z M142.318851,259.524837 C144.561649,261.644293 145.035621,264.940109 144.325671,268.000652 C143.500757,270.472011 141.729915,272.94337 138.896163,273.297283 C135.945432,274.23837 133.11168,272.94337 130.396927,272.237554 C127.09122,269.766196 127.2082,265.17538 128.154129,261.762935 C129.217037,259.291576 131.812794,258.231848 134.174589,257.761304 C137.125321,257.761304 140.19505,257.526033 142.318851,259.524837 Z" id="Fill-9" sketch:type="MSShapeGroup"></path>
                <path d="M299.324802,245.050598 C303.45744,255.641848 301.331622,269.295652 297.908935,279.535 C297.082004,281.181902 295.430159,281.887717 293.659316,281.535815 C292.715405,280.83 291.888474,279.653641 292.241432,278.121359 C287.638856,279.884891 280.202528,279.884891 275.833912,276.945 C270.87636,273.649185 270.521385,267.646739 271.227302,261.998207 C272.17323,257.407391 276.660843,253.641033 281.146439,252.699946 C285.749016,251.875489 291.297521,252.464674 295.075184,255.523207 C295.549156,252.699946 294.36725,249.168859 292.832385,246.462228 C290.825565,244.226141 288.346789,243.520326 285.749016,243.047772 C281.618395,242.343967 277.721735,248.344402 274.654023,243.401685 C274.06307,240.459783 277.485757,238.929511 279.492577,237.988424 C286.928905,235.748315 295.783117,237.751141 299.324802,245.050598 Z M292.47741,259.76212 C294.722225,262.114837 294.722225,265.645924 294.248253,268.823098 C293.187361,271.296467 291.059526,273.062011 288.582767,273.649185 C285.27706,273.767826 282.090351,273.649185 279.728555,271.64837 C276.894804,268.823098 277.370794,264.586196 278.665646,261.17375 C281.382417,256.820217 288.699748,257.28875 292.47741,259.76212 Z" id="Fill-10" sketch:type="MSShapeGroup"></path>
                <path d="M228.142182,239.99125 C228.023185,252.229402 229.086094,264.940109 225.072453,275.53337 C223.773566,277.180272 221.766746,276.474457 220.231882,275.885272 L219.406968,274.473641 C223.418591,262.46875 219.878923,250.5825 222.47468,239.164783 C223.773566,237.634511 227.904187,237.047337 228.142182,239.99125" id="Fill-11" sketch:type="MSShapeGroup"></path>
            </g>
        </g>
    </g>
</svg>