<?xml version="1.0" encoding="UTF-8" standalone="no"?>
<svg width="306px" height="60px" viewBox="0 0 306 60" version="1.1" xmlns="http://www.w3.org/2000/svg" xmlns:xlink="http://www.w3.org/1999/xlink" xmlns:sketch="http://www.bohemiancoding.com/sketch/ns">
    <!-- Generator: Sketch 3.2.1 (9977) - http://www.bohemiancoding.com/sketch -->
    <title>active</title>
    <desc>Created with Sketch.</desc>
    <defs></defs>
    <g id="Page-1" stroke="none" stroke-width="1" fill="none" fill-rule="evenodd" sketch:type="MSPage">
        <g id="1c" sketch:type="MSLayerGroup" transform="translate(-890.000000, -276.000000)" fill="#7F8C8D">
            <g id="active" transform="translate(890.000000, 276.000000)" sketch:type="MSShapeGroup">
                <path d="M112.875833,50.1692787 C108.490152,50.1692787 104.559242,48.6574754 102.09197,46.0179016 C99.8790909,43.6563607 98.992197,40.5858361 99.5933333,37.3623934 L100.591742,31.8747213 C101.855,24.6875738 109.948561,18.8367213 118.631061,18.8367213 L119.91,18.8297705 C121.896364,18.8228197 125.738409,18.8106557 128.644773,18.8106557 C130.944773,18.8106557 132.180152,18.8193443 132.415379,18.8367213 L132.899773,18.8367213 L134.495833,9.46701639 L134.136894,9.46701639 C133.959167,9.45832787 132.607045,9.45659016 130.099697,9.45659016 C126.869242,9.45659016 122.61947,9.46180328 120.885758,9.46354098 L120.113864,9.46701639 C105.280606,9.46701639 91.4544697,19.4466557 89.2903788,31.7165902 L88.297197,37.206 C87.3040152,42.8187869 88.9157576,48.1969836 92.8431818,52.3483607 C97.1591667,56.9167869 103.916288,59.5407213 111.391288,59.5407213 L136.579773,59.5407213 L138.24553,50.1692787 L112.875833,50.1692787" id="Fill-1"></path>
                <path d="M186.848712,18.9375082 L188.549318,9.46701639 L138.078258,9.46701639 L136.393333,18.9409836 L155.55303,18.9409836 L155.511212,19.168623 L148.443939,59.5407213 L159.889924,59.5407213 L167.049545,18.9375082 L186.848712,18.9375082" id="Fill-2"></path>
                <path d="M191.978409,9.46701639 L183.05197,59.5407213 L194.497955,59.5407213 L203.339015,9.46701639 L191.978409,9.46701639" id="Fill-3"></path>
                <path d="M263.266212,9.46701639 L250.955985,9.46701639 L226.919242,49.866918 L217.311515,9.46701639 L205.224318,9.46701639 L216.074394,54.1851148 C216.839318,57.4398361 220.862576,59.9925246 225.211667,59.9925246 C229.679242,59.9925246 234.474394,57.558 236.364924,54.331082 L263.266212,9.46701639" id="Fill-4"></path>
                <path d="M277.878182,9.46701639 C269.655682,9.46701639 262.006439,14.9564262 260.828561,21.7108852 L256.286061,47.1369836 C255.733712,50.2300984 256.636288,53.2033115 258.828258,55.514459 C261.243258,58.0723607 265.005152,59.5407213 269.146894,59.5407213 L296.745152,59.5407213 L298.430076,50.0702295 L270.638409,50.0702295 C269.669621,50.0702295 268.808864,49.7452787 268.272197,49.1822623 C267.780833,48.6783279 267.587424,48.0110492 267.700682,47.3090164 L269.167803,39.2877705 L294.926061,39.2877705 L296.644091,29.8085902 L270.880606,29.8085902 L272.253636,21.8672787 C272.518485,20.2546885 274.372424,18.9375082 276.381439,18.9375082 L303.821136,18.9375082 L305.506061,9.46701639 L277.878182,9.46701639" id="Fill-5"></path>
                <path d="M82.1917424,43.1819672 C79.3341667,43.1819672 74.8003788,43.371377 69.4040909,44.2576066 L66.5935606,59.5772131 L80.5085606,59.5772131 L83.3957576,43.1906557 C83.0455303,43.188918 82.6343182,43.1819672 82.1917424,43.1819672" id="Fill-6"></path>
                <path d="M72.1414394,14.4003607 L72.1327273,14.4003607 C71.5873485,14.4003607 70.1289394,14.5845574 68.3237879,16.2875082 L49.5247727,35.0078033 C47.9339394,35.2667213 33.1965152,37.3102623 23.6236364,41.0359016 L56.0222727,10.405377 C65.7362879,1.2355082 73.5893939,0.248491803 76.5201515,0.248491803 L76.5706818,0.248491803 L76.5706818,0.271081967 C79.0048485,0.271081967 83.4968182,0.769803279 86.3160606,4.12009836 C88.6439394,6.89347541 89.3374242,11.0604918 88.3773485,16.4977705 L84.4621212,37.4544918 L70.5157576,37.63 L74.3351515,17.4187541 C74.5128788,16.4091475 74.3839394,15.6341311 73.9518182,15.1180328 C73.4273485,14.4976721 72.5944697,14.4038361 72.1414394,14.4038361 L72.1414394,14.4003607" id="Fill-7"></path>
                <path d="M82.7789394,36.9262295 C67.5588636,36.9262295 22.2209848,36.9366557 0.139242424,59.5389836 L20.2868939,59.5389836 C43.964697,39.4962951 81.5174242,39.2547541 83.155303,39.2547541 C83.4933333,39.2547541 83.8069697,39.2582295 84.1275758,39.2756066 L84.559697,36.9279672 C83.9620455,36.9262295 83.3783333,36.9262295 82.7789394,36.9262295" id="Fill-8"></path>
            </g>
        </g>
    </g>
</svg>