<?xml version="1.0" encoding="UTF-8" standalone="no"?>
<svg width="218px" height="218px" viewBox="0 0 218 218" version="1.1" xmlns="http://www.w3.org/2000/svg" xmlns:xlink="http://www.w3.org/1999/xlink" xmlns:sketch="http://www.bohemiancoding.com/sketch/ns">
    <!-- Generator: Sketch 3.2.1 (9977) - http://www.bohemiancoding.com/sketch -->
    <title>dohs</title>
    <desc>Created with Sketch.</desc>
    <defs></defs>
    <g id="Page-1" stroke="none" stroke-width="1" fill="none" fill-rule="evenodd" sketch:type="MSPage">
        <g id="1c" sketch:type="MSLayerGroup" transform="translate(-54.000000, -435.000000)" fill="#7F8C8D">
            <g id="dohs" transform="translate(54.000000, 435.000000)" sketch:type="MSShapeGroup">
                <path d="M147.686905,136.80548 C147.698304,136.811947 147.709359,136.818276 147.720061,136.824457 C148.28352,137.154985 148.423111,137.803103 148.39978,138.347405 L148.39978,138.347405 C148.404355,138.253361 148.403715,138.157745 148.397136,138.062624 C148.420819,138.051086 148.45361,138.051086 148.474256,138.04805 L148.918758,137.68917 L148.915721,137.68917 L167.782134,122.789872 L166.530607,122.4401 L171.636908,120.195125 L168.271571,124.651677 L168.227242,123.349749 L149.505961,138.115454 C150.013008,138.21322 150.463582,138.388713 150.597175,138.604891 C150.914763,139.114975 150.828535,139.373053 150.532201,140.256591 C150.248011,141.101265 150.04337,141.400635 149.476813,141.463181 C149.316501,141.486864 149.031705,141.522691 148.705616,141.386061 C148.874429,141.492936 148.989805,141.593738 149.072997,141.819025 C149.156189,142.044312 149.292819,142.438412 148.604813,143.230256 C147.993928,143.920691 147.418869,144.175733 146.929432,143.903081 C146.659816,143.74034 146.576624,143.570919 146.446067,143.428825 C146.517114,143.62132 146.591198,143.820496 146.623989,144.036674 C146.742401,144.739861 146.20317,144.994295 145.532774,145.234763 C144.272747,145.673799 143.655788,145.483733 143.359454,145.033159 C142.712741,144.072501 143.068585,142.836156 143.501549,142.625443 C143.394674,143.001933 143.39771,143.411214 143.471794,143.867861 C143.531304,144.232813 143.712262,144.849164 144.394195,144.784189 C144.764613,144.748362 145.44351,144.585621 145.858864,144.330579 C146.146089,144.14112 146.155198,143.640145 146.007031,143.224791 C145.939019,143.017114 145.858864,142.714708 145.603822,142.498529 C146.025248,142.611476 146.277253,142.839799 146.600306,143.106379 C146.923359,143.379031 147.418262,143.440969 147.703058,143.144635 C148.071047,142.765109 148.293298,142.480312 148.414747,142.213733 C148.737799,141.546373 147.869443,141.027788 147.380006,140.749064 C148.257471,140.784284 148.397136,141.116446 149.102752,141.021716 C149.819905,140.917877 150.030618,139.782334 150.030618,139.402808 C150.042763,139.130156 149.713638,138.86054 149.304357,138.747593 C148.991195,138.665373 148.628679,138.66501 148.364817,138.67939 C148.349762,138.768388 148.331037,138.850716 148.310301,138.923694 C148.215571,139.249783 148.075905,139.641454 147.483237,139.946897 C147.575538,139.597125 147.857298,138.221114 147.14561,137.681883 C146.623989,137.302357 145.888618,136.987805 145.022691,137.032741 C144.062033,137.07707 142.594329,137.157226 141.882641,137.092251 C141.233499,137.018167 140.824217,137.874986 140.731916,138.236903 C140.500557,139.093721 140.233978,140.152145 138.997632,139.627487 C137.47649,138.755487 135.315315,138.830178 132.830479,137.824585 C133.180251,138.586674 133.032084,139.250997 133.41161,140.10478 C131.196997,139.559476 130.636513,138.432435 128.525131,137.690992 C128.877939,138.459153 128.7741,139.06093 129.251393,139.784156 C127.475209,139.475677 125.818045,137.874379 123.347783,137.216128 C122.227421,137.556791 121.399749,137.811833 120.649805,138.052301 C122.39927,140.033125 123.846329,142.464524 124.522189,145.405398 C124.522189,145.405398 123.28888,145.441226 121.465331,144.806657 C121.986953,146.413421 122.307577,148.136167 122.337331,149.980969 C122.337331,149.980969 120.952819,149.725928 119.05215,148.546056 C119.227036,150.292485 119.165097,152.109961 118.800145,153.974802 C118.800145,153.974802 117.198847,153.313515 115.307287,151.392201 C115.088072,153.195103 114.639928,155.012579 113.866301,156.827019 C113.866301,156.827019 112.398596,155.833571 110.901136,153.518156 C110.284178,155.324095 109.415822,157.097242 108.226841,158.790234 C108.226841,158.790234 106.631616,157.111816 105.54951,153.731905 C104.108524,155.899153 102.735549,156.827627 102.735549,156.827627 C101.961922,155.013187 101.508312,153.19571 101.28849,151.383699 C99.3999666,153.314123 97.7986685,153.975409 97.7986685,153.975409 C97.4282507,152.110568 97.3687409,150.293092 97.5375543,148.546663 C95.6429582,149.726535 94.2463008,149.981577 94.2463008,149.981577 C94.2790919,148.137382 94.5991086,146.414635 95.1328747,144.807265 C93.2977883,145.441833 92.0669081,145.406006 92.0669081,145.406006 C92.763415,142.405621 94.7296657,139.319008 96.0522396,137.933889 C95.4030975,137.726212 94.7090195,137.518535 93.9530028,137.287783 C91.2604903,137.874986 89.6093983,139.476284 87.8241058,139.784763 C88.2953259,139.061538 88.2036323,138.459153 88.5503677,137.691599 C86.4480947,138.433042 85.8791086,139.559476 83.6760334,140.105387 C84.043415,139.251604 83.8952479,138.587281 84.2571643,137.825192 C82.2022563,138.830178 79.3943677,139.527292 78.1519499,139.793872 C76.7729025,140.078669 76.6933538,138.029833 76.2421727,137.576223 C76.0496769,137.380691 74.9402451,137.300535 74.4781337,137.371582 C73.7931643,137.486958 72.4675543,137.428056 71.4777493,137.409838 C70.4812646,137.389192 69.7962953,137.68249 69.2837827,138.080234 C68.5514485,138.607928 68.8981838,140.040412 69.2127354,140.274201 C68.4148189,140.093242 68.2636156,139.696106 68.1688858,139.370017 C68.1570683,139.32606 68.1458387,139.278447 68.1356116,139.227822 C67.8772967,139.204139 67.4062423,139.168534 67.0126964,139.254641 C66.6070585,139.355443 66.2657883,139.62263 66.2657883,139.898318 C66.2633593,140.274808 66.4437103,141.413387 67.1614708,141.531799 C67.858585,141.650819 68.0097883,141.318657 68.8872535,141.309549 C68.3802061,141.573699 67.5112423,142.07771 67.7990752,142.750535 C67.9180947,143.008613 68.1403454,143.304947 68.490117,143.696618 C68.7749136,143.999025 69.2667799,143.948624 69.5989415,143.690546 C69.9341393,143.429432 70.1891811,143.210217 70.6130362,143.109415 C70.3579944,143.320128 70.2663008,143.622535 70.1891811,143.821103 C70.0258329,144.244958 70.0258329,144.740468 70.3106295,144.939036 C70.7108022,145.208652 71.3903064,145.38961 71.757688,145.433939 C72.4456936,145.513487 72.6357604,144.905638 72.7037716,144.538256 C72.7930362,144.08161 72.8106462,143.681437 72.7159164,143.298875 C73.1367354,143.512624 73.4573593,144.769616 72.7930362,145.706591 C72.4730195,146.151699 71.8475599,146.335086 70.6021058,145.840184 C69.9408189,145.588178 69.4191978,145.314919 69.5479331,144.622056 C69.5892256,144.417415 69.6693816,144.207309 69.7465014,144.023315 C69.6189805,144.156908 69.5151421,144.325721 69.239454,144.479961 C68.7591253,144.743504 68.1810306,144.473889 67.5968635,143.765237 C66.9149304,142.94971 67.0691699,142.567148 67.1669359,142.341861 C67.2525571,142.116574 67.3685404,142.018808 67.5434262,141.908897 C67.2112646,142.033382 66.9118942,141.994518 66.7606908,141.973872 C66.2062786,141.89068 66.0046741,141.585237 65.7435599,140.728418 C65.4800167,139.838808 65.3937883,139.58073 65.7229136,139.076719 C65.9840279,138.685047 67.3685404,138.447616 68.0771922,138.610964 C68.0743388,138.822688 68.0929384,139.029584 68.1294629,139.196372 L68.1294629,139.196372 C68.0209198,138.622272 68.0457857,137.694768 68.7676267,137.28839 C69.2716379,136.976875 70.6027131,136.342306 71.8900669,136.541482 C72.7912145,136.68054 74.220663,136.541482 74.6536267,136.491081 C75.0896267,136.44068 78.3007242,135.862585 80.4206072,134.216958 C79.3087465,134.341443 79.091961,133.67712 78.1671309,133.567816 C79.3591476,132.361226 81.2658886,132.123794 82.1998273,131.062334 C81.3636546,130.964568 80.6222117,130.294173 80.0088969,130.199443 C81.8798106,129.161666 83.1191922,128.556852 84.4387298,127.145621 C84.4533036,127.121939 84.9457772,126.567526 85.1413092,126.339203 C84.5456045,124.764624 84.1776156,123.027304 84.0500947,121.194646 C84.0203398,120.747109 83.990585,120.287426 83.9584011,119.815599 C83.5017549,120.322646 82.5587075,120.83273 81.0290641,121.384106 C80.3143398,119.646786 80.65561,116.405933 81.5689025,113.894379 C80.2615097,116.450262 78.793805,118.113499 76.2883231,118.861014 C75.6774373,116.987064 76.0454262,113.716457 76.9198552,111.261376 C75.2596546,114.03951 73.4834708,115.450741 70.5243788,116.494591 C70.2754095,114.22654 70.512234,111.225549 71.6064847,108.474134 C69.3232535,110.662635 67.3812925,111.385861 64.8223733,111.869226 C64.6650975,109.171248 65.3172758,106.727705 66.6726407,103.715175 C65.0361226,105.725755 61.6288858,107.101159 59.0523565,107.376847 C59.2509248,105.037142 60.8904791,101.838189 61.8456713,99.9642396 C59.4233816,101.70156 56.8438162,102.947014 54.0535376,103.095181 C54.4033092,100.441532 55.5892535,97.5710975 57.6350529,95.2526462 C55.2303733,97.0349025 51.5626295,97.9955599 48.7990696,97.6184624 C49.466429,94.7067354 51.2602228,91.8690919 53.6764401,90.3449136 C52.2737103,90.6236379 49.7330084,91.2017326 46.8067075,90.932117 C45.083961,96.7021337 44.1409136,102.807348 44.1172312,109.125705 C42.6555989,107.978017 41.6354318,107.687755 40.6365181,106.697343 C40.8205125,108.067281 41.0014708,108.814189 41.1496379,110.504752 C41.4192535,113.553109 42.5790864,115.296501 44.4912925,116.390145 C44.5775209,117.256072 44.6898607,118.112891 44.8173816,118.972747 C43.4031142,118.068563 41.5024457,117.505042 39,117.534797 C40.5211421,122.495359 42.7005348,122.865777 45.617727,123.331532 C45.7185292,123.788178 45.8284401,124.238752 45.9347075,124.689326 C44.3807744,124.283081 42.5098607,124.277008 40.3869415,124.864212 C41.8546462,127.144407 43.891337,128.517382 47.1412981,129.006212 C45.166546,128.902373 43.0023343,129.199315 41.2704791,130.07678 C43.7377047,132.199699 46.1630306,133.009153 48.4723733,132.76322 C48.5907855,133.071699 48.709805,133.374106 48.8342897,133.676513 C47.0077047,134.159877 45.3948691,135.105961 44.4937214,135.989499 C46.4180724,136.597348 48.3928245,136.920401 50.1775097,136.736407 C49.1870975,137.667309 48.2798774,138.960128 47.7108914,140.979209 C49.0838663,140.637939 50.4920613,140.543209 51.8947911,140.143036 C52.1735153,140.667694 52.4613482,141.177777 52.7607187,141.684825 C52.0192758,143.093019 51.7611978,144.860095 52.1941616,146.823309 C53.3740334,146.544585 54.3437994,146.087939 55.1502173,145.497699 C55.4259053,145.906981 55.7046295,146.307153 55.9954986,146.716435 C55.6991643,148.963838 56.2177493,151.223387 57.5518607,152.729348 C58.1773203,152.026769 58.6782953,151.350301 59.0790752,150.704195 L59.0799778,150.705276 C61.7423541,146.401762 60.0451414,143.279165 60.1119944,140.458195 C60.1265682,140.398685 60.1532869,140.339783 60.1769694,140.283309 C60.4235097,143.70512 63.3880669,147.082602 59.9018886,151.220958 C59.8345223,151.30096 59.7700515,151.376135 59.7083623,151.446703 C71.5180711,165.170688 89.0142988,173.858345 108.535928,173.858345 C136.262006,173.858345 159.893448,156.340618 168.981437,131.781309 L171.907738,130.512173 L171.685487,131.792847 L175.907643,128.139677 L170.440033,129.272184 L171.590758,129.86546 L169.340318,130.793326 C169.513935,130.295747 169.683074,129.792865 169.846645,129.287067 L167.284195,131.529304 L167.503409,130.251666 L151.308256,138.352279 C151.284574,138.30795 151.263928,138.260585 151.231136,138.21322 C151.157053,138.103916 151.071432,138.00615 150.961521,137.919922 C151.097543,137.810618 151.320401,137.635125 151.590017,137.418947 L167.188858,129.609203 L166.024167,129.017749 L170.210515,128.126363 L170.210515,128.126363 C170.288921,127.868043 170.365677,127.609441 170.440641,127.350869 L173.645666,125.574685 L173.532719,126.876613 L177.411175,122.849989 L172.071086,124.465861 L173.274641,124.969872 L170.706613,126.378067 C170.847766,125.863084 170.98349,125.344004 171.112735,124.822552 L171.112735,124.822552 L168.35112,127.877955 L168.419131,126.579064 L158.047432,133.345565 C156.796513,133.977097 155.563203,134.599521 154.489599,135.139359 C155.186106,134.584947 155.945159,133.985599 156.749148,133.354674 L168.021994,125.980323 L166.809331,125.523677 L171.309561,124.004798 C171.421162,123.526732 171.526902,123.047437 171.625978,122.568228 L174.066485,121.020368 L173.962646,122.31015 L177.812563,118.273811 L172.478546,119.916401 L173.685136,120.408875 L171.817259,121.591783 C172.015827,120.503604 172.20893,119.41239 172.360134,118.309638 L175.283398,115.866702 L175.351409,117.153448 L178.642663,112.655604 L173.572189,114.983164 L174.82068,115.309253 L172.490084,117.260323 C172.655861,115.914067 172.771844,114.559309 172.860501,113.195443 L175.739437,110.008028 L175.982334,111.277164 L178.642056,106.379148 L173.918925,109.361922 L175.217816,109.507053 L172.920011,111.98278 C172.940657,111.125961 172.967376,110.277643 172.967376,109.420825 C172.967376,102.995593 172.021292,96.7926128 170.269398,90.9309025 C167.354635,91.2005181 164.43137,90.2696156 163.028641,90 C166.761359,92.1885014 168.054178,94.5543175 168.608591,97.2735487 C165.62278,97.9409081 161.628947,96.9620334 159.440446,95.2514318 C161.580975,97.1193092 162.930267,100.060791 163.024997,103.093967 C159.944457,103.248206 157.100741,101.80722 155.010613,99.7079833 C156.350797,101.205443 158.046825,104.991599 157.649688,107.687148 C155.073159,107.41146 152.054557,105.72454 150.402858,103.713961 C151.76976,106.72649 152.418903,109.169426 152.253125,111.868011 C149.700279,111.384646 147.761354,110.661421 145.47205,108.472919 C146.574802,111.224334 146.981047,113.993967 146.732078,116.265053 C143.782095,115.221203 141.81888,114.038295 140.155643,111.260162 C141.042217,113.715242 141.617276,116.932412 141.00639,118.814864 C138.506981,118.064919 136.852245,116.558351 135.55639,114.005504 C136.8401,116.715627 136.677359,119.864178 136.250468,121.495231 C135.200546,121.290591 133.831214,120.564329 133.11649,119.760947 C133.072162,120.25585 133.036334,120.730713 133.015688,121.192825 C132.882095,123.025482 132.523214,124.742156 131.924474,126.316735 C132.13215,126.542022 132.627053,127.120117 132.642234,127.143799 C133.955699,128.555031 135.755565,129.898251 137.172869,130.348825 C136.558947,130.437482 135.719738,130.962747 134.875064,131.060513 C135.812039,132.121972 137.721816,132.359404 138.901688,133.565994 C137.985359,133.675905 137.769181,134.339621 136.651248,134.215136 C138.78024,135.860763 140.731309,135.914201 141.819487,136.044758 C142.26156,136.092123 143.693437,136.228752 144.600657,136.08605 C145.732428,135.913661 146.894407,136.388861 147.505251,136.706839 C147.49691,136.702155 147.488553,136.697433 147.480201,136.692685 L159.127109,113.090997 L157.8519,113.316284 L161.502033,109.100808 L160.369526,114.562345 L159.767749,113.411621 L148.067404,137.114111 C147.972674,137.004201 147.857298,136.903398 147.720669,136.823242 C147.710129,136.817717 147.698831,136.811778 147.686905,136.80548 L147.686905,136.80548 Z M128.688615,150.755811 L131.459933,149.02517 L132.076891,148.636535 L133.132279,148.849677 L141.600273,143.257582 C141.303939,143.586708 140.446513,144.503036 139.672886,145.356819 L132.891811,150.133387 L132.115755,150.096345 L127.739359,153.882501 L127.552329,152.731777 L126.02815,152.417226 L128.688615,150.755811 L127.27907,150.755811 L129.995265,149.062819 L132.524429,147.340072 L133.390357,147.503421 C133.390357,147.503421 139.566618,143.696011 141.067114,142.714708 C141.14727,142.658234 141.191599,142.628479 141.191599,142.628479 C141.209209,142.622407 141.221354,142.610869 141.238964,142.60176 L133.138351,146.639922 L132.10361,146.319905 L125.654696,149.385872 L127.107827,149.919638 L127.27907,150.755811 L128.688615,150.755811 L128.688615,150.755811 Z M48.4092201,117.532975 C48.2877716,116.931198 47.697532,116.542563 47.0927187,116.670084 C47.0720724,116.67312 47.0453538,116.676156 47.0186351,116.69073 C46.2863008,113.841549 45.5867577,111.629365 42.3604791,109.411716 C43.9702786,111.48727 45.8411922,114.502836 46.8911142,116.729593 C46.4107855,116.928162 46.1144513,117.444318 46.2207187,117.978084 C46.3391309,118.582897 46.9293705,118.971532 47.5372201,118.852513 C48.135961,118.727421 48.5276323,118.140217 48.4092201,117.532975 Z M49.5799833,105.640134 C48.251337,106.188474 46.3749582,108.03024 45.5296769,110.458602 C46.9232981,112.068401 47.5135376,114.046189 47.4509916,115.843019 C49.9862284,113.520925 50.8667298,109.514947 49.5799833,105.640134 Z M49.8502061,124.171348 C51.7921671,121.410825 55.445337,120.81512 53.7966741,113.402513 C49.6540669,115.213916 47.7242507,120.37912 49.8502061,124.171348 Z M53.2361894,144.974256 C53.5240223,143.106379 54.7634039,140.879621 56.5839164,139.379125 C57.8500167,138.329203 58.5677772,137.944212 57.5063175,139.059109 C55.8959109,140.739955 54.0249972,143.470724 53.2361894,144.974256 Z M57.2148412,150.065376 C56.5183343,148.309838 57.1261838,145.490412 57.8791643,143.640145 C58.4068579,142.371008 59.7057493,140.438156 60.1180669,140.257198 C58.6770808,142.474847 57.1383287,148.363276 57.2148412,150.065376 Z M51.3768134,125.574078 C51.2462563,124.909755 50.6001504,124.473755 49.9388635,124.613421 C49.2715042,124.747014 48.8415766,125.390084 48.9782061,126.054407 C49.1117994,126.721766 49.7639777,127.148657 50.4191922,127.021136 C51.0835153,126.887543 51.5195153,126.24083 51.3768134,125.574078 Z M62.0630641,127.251889 C62.1073928,125.419231 61.8256323,123.527671 62.0363454,121.387142 C58.3862117,124.055972 57.1383287,128.731738 58.6533983,131.996273 C58.4961226,131.972591 58.341883,131.963482 58.1791421,132.005382 C57.4911365,132.14444 57.0496713,132.811799 57.1856936,133.505877 C57.3223231,134.184774 57.9951476,134.632312 58.6892256,134.493253 C59.374195,134.356624 59.8247688,133.683799 59.6826741,132.99883 C59.6025181,132.649058 59.4039499,132.358189 59.1252256,132.183304 C58.5204123,129.292223 59.018351,125.677916 60.5334206,124.156774 C60.0652368,125.965749 59.2023454,129.757978 59.7567577,133.253265 C60.3554986,132.571331 60.8036435,131.916117 61.135805,131.257866 C61.2068524,131.815315 61.3343733,132.381872 61.5657326,132.980613 C61.6489248,130.196407 62.5767911,127.444992 65.4678719,125.523677 C63.3510251,128.207081 62.1407911,131.341058 61.8887855,133.704446 C63.4245014,131.75034 66.9173593,131.169209 67.1693649,123.519777 C65.3986462,124.055972 63.2787632,125.342719 62.0630641,127.251889 Z M64.4762451,135.121142 C64.3250418,134.391844 63.634,133.926089 62.9138106,134.074256 C62.1875487,134.222423 61.7248301,134.916501 61.869961,135.648836 C62.0150919,136.366596 62.7237437,136.823242 63.4415042,136.677504 C64.1623008,136.526908 64.6250195,135.835866 64.4762451,135.121142 Z M64.0141337,139.147766 C63.8659666,138.42454 63.1633872,137.958786 62.4425905,138.097844 C61.7309025,138.246011 61.2596825,138.943125 61.4078496,139.663315 C61.5499443,140.38654 62.2500947,140.849259 62.9793928,140.710201 C63.696546,140.568106 64.1623008,139.853382 64.0141337,139.147766 Z M56.3167298,119.519265 C53.6126797,121.775777 52.856663,124.607348 53.149961,127.097649 C53.0370139,127.085504 52.9337827,127.085504 52.8329805,127.103721 C52.2633872,127.222134 51.9051142,127.761972 52.017454,128.319421 C52.1328301,128.876869 52.6787409,129.244251 53.230117,129.125838 C53.3606741,129.102156 53.4730139,129.048719 53.5738162,128.989209 C53.8258217,129.710006 54.1695209,130.370685 54.558156,130.940279 C54.3207242,130.104106 54.1458384,129.181705 54.0511086,128.236228 C54.0571811,128.129354 54.0656825,128.017014 54.0389638,127.916212 C54.0389638,127.886457 54.02439,127.868847 54.0183175,127.845164 C53.8762228,125.731354 54.2083844,123.539816 55.3761114,121.959772 C55.014195,124.275187 54.4688914,128.731738 54.9874763,131.507443 C55.7799276,128.553816 60.0348747,127.251889 56.3167298,119.519265 Z M67.1213928,136.917972 C66.9999443,136.369632 66.4631421,136.001643 65.894156,136.114591 C65.3397437,136.227538 64.9747911,136.772841 65.0816657,137.327253 C65.2091866,137.890774 65.7459889,138.252084 66.3064735,138.139744 C66.8693872,138.021331 67.2282674,137.472384 67.1213928,136.917972 Z M61.4017772,136.728513 C61.2949025,136.212357 60.8,135.877766 60.2808078,135.981604 C59.7646518,136.085443 59.4330975,136.586418 59.5338997,137.102574 C59.6347019,137.615694 60.1417493,137.950284 60.6548691,137.849482 C61.1679889,137.74868 61.4995432,137.238596 61.4017772,136.728513 Z M48.3673203,123.616936 C48.296273,123.196117 47.9197827,122.89371 47.5135376,122.89371 C46.1733538,121.07927 44.2459666,119.139738 41.0348691,118.813649 C42.7958719,119.637677 45.4410195,121.265694 47.2730696,122.917393 C46.8370696,123.032769 46.552273,123.460267 46.6269638,123.916914 C46.7131922,124.394206 47.1668022,124.714223 47.6556323,124.63771 C48.1244234,124.550875 48.4535487,124.097265 48.3673203,123.616936 Z M51.6822563,128.708056 C51.6021003,128.236836 51.1545627,127.910747 50.6651253,127.990295 C50.4307298,128.031588 50.2291253,128.159109 50.1046407,128.340067 C47.2524234,125.813939 45.2861727,125.798758 43.7802117,125.730747 C44.6874318,126.053799 47.9519666,126.993811 50.0305571,128.464552 C49.9443287,128.621827 49.9121448,128.808251 49.9443287,129.00439 C50.0214485,129.490791 50.4896323,129.81688 50.9614596,129.736724 C51.4423955,129.648067 51.7715209,129.196886 51.6822563,128.708056 Z M54.0808635,132.28107 C53.9472702,131.593064 53.2714095,131.148563 52.5834039,131.281549 C51.9014708,131.420607 51.4539331,132.091003 51.5899554,132.782045 C51.7290139,133.473086 52.3994095,133.917588 53.0904513,133.772457 C53.7784568,133.638864 54.217493,132.95693 54.0808635,132.28107 Z M55.9311309,134.468964 C55.8509749,133.985599 55.3973649,133.668618 54.9200724,133.748167 C54.6115933,133.795532 54.3686964,133.991064 54.2587855,134.252178 C51.7709136,133.926089 49.0668635,134.269788 46.7897047,135.535889 C49.3395153,134.945649 52.0083454,134.397309 54.1907744,134.391237 L54.2053482,134.391237 C54.1725571,134.509649 54.1670919,134.634134 54.1786295,134.761655 C54.2733593,135.235911 54.7300056,135.571109 55.2072981,135.48488 C55.6967354,135.408975 56.0143231,134.946256 55.9311309,134.468964 Z M58.4900501,135.957315 C58.3686017,135.331855 57.7577159,134.931682 57.1322563,135.061632 C56.5183343,135.174579 56.1090529,135.782429 56.2311086,136.401816 C56.2074262,136.401816 56.1898162,136.392708 56.1509526,136.387242 C54.3128301,136.324696 51.2468635,136.808061 49.3668412,139.037855 C51.2942284,137.902312 54.3632312,136.733978 56.2074262,136.481972 C56.219571,136.488045 56.2402173,136.481972 56.2578273,136.481972 C56.4120669,137.060067 56.9931978,137.428056 57.5889025,137.312072 C58.2082897,137.185159 58.6084624,136.580345 58.4900501,135.957315 Z M74.6111198,141.739476 C79.8595153,145.692017 82.8392535,151.177237 83.5983064,155.58946 C82.9400557,155.106095 81.7006741,154.60512 80.9416212,154.747214 C80.259688,150.089058 77.8313259,146.320513 74.0184513,143.263655 C74.1751198,142.557432 74.3973705,142.071638 74.6111198,141.739476 Z M69.6888134,140.387148 C70.0416212,139.93961 70.9075487,139.883136 71.3969861,140.194652 C71.0648245,140.823148 71.0320334,141.866997 71.2160279,142.380117 C69.9827187,142.19005 69.760468,141.007142 69.6888134,140.387148 Z M71.6253092,140.3161 C72.351571,140.262663 72.6248301,139.898318 72.7517437,139.542474 C72.8823008,139.198774 73.2703287,138.981989 73.2824735,139.512719 C73.2855097,140.046485 73.288546,140.286345 72.9891755,140.429047 C72.6837326,140.58268 72.1438942,140.624579 71.6253092,140.3161 Z M71.995727,141.463788 C71.9277159,141.852423 71.7880501,142.225877 71.542117,142.581721 C71.3550864,142.848301 71.0915432,143.005577 70.8984401,143.180462 C71.2336379,143.429432 71.7078942,143.574563 72.1050306,143.556953 C72.4936657,143.53327 72.5173482,143.482869 72.4936657,143.32863 C72.4050084,142.664306 72.1438942,141.724295 71.995727,141.463788 Z M156.470423,127.021136 L169.762958,110.188379 L170.115766,111.442334 L172.34556,106.330568 L167.89751,109.701978 L169.204903,109.752379 L157.160858,125.010557 C156.226919,126.436969 155.221933,127.958111 154.278886,129.38088 L154.296496,129.39849 C155.01122,128.621827 155.735053,127.830591 156.470423,127.021136 Z M154.886735,132.026028 C156.001632,131.139454 157.160858,130.223125 158.302474,129.315905 L169.373716,119.071727 L169.537064,120.364546 L172.519838,115.649916 L167.618786,118.303565 L168.890958,118.549499 L157.777816,128.841042 C156.787404,129.941365 155.809136,131.011933 154.886735,132.026028 Z M143.625426,146.124373 C143.387994,146.047253 143.183354,145.931877 143.008468,145.774602 L140.218189,151.559192 L140.232763,151.568301 L139.215632,151.906535 L135.909805,158.237036 L137.514139,157.753671 L138.089198,159.322178 L141.217103,152.903019 L140.849721,151.871315 L143.625426,146.124373 Z M142.353861,144.580156 C142.270669,144.268641 142.246986,143.948624 142.270669,143.631036 L138.570134,147.672234 L137.475883,147.760891 L137.381153,147.852585 L137.381153,147.858657 L132.231131,153.00868 L132.474028,152.994106 L132.450345,153.00868 L132.518357,152.994106 L133.784457,152.934596 L134.009744,154.194624 L138.279265,148.581883 L139.103292,148.403961 L142.353861,144.580156 Z M149.179265,136.526908 C149.629838,136.1741 150.285053,135.654908 151.067788,135.035521 L169.270485,115.145905 L169.519454,116.418078 L172.125738,111.48727 L167.446936,114.517409 L168.736719,114.659504 L149.686312,135.500669 C149.505354,135.87473 149.338969,136.218429 149.179265,136.526908 Z M159.242485,117.292507 L160.544412,117.224496 L153.235643,128.334602 C152.375788,130.071922 151.542652,131.762485 150.807281,133.238691 C150.845538,133.197398 150.881365,133.158535 150.914156,133.114206 L161.149226,117.627705 L161.593727,118.843404 L163.393593,113.556752 L159.242485,117.292507 Z M52.0381003,131.281549 C52.2069136,131.305231 52.1656212,131.287621 51.9785905,131.228111 C50.0305571,130.142969 48.654546,129.766479 45.9802507,130.127788 C48.4887688,130.311783 50.2473426,130.662162 52.0381003,131.281549 Z M145.111348,139.744078 C145.449582,140.369538 145.473265,141.425532 145.28927,141.929543 C146.534724,141.734011 146.747866,140.556568 146.824986,139.940217 C146.46307,139.489036 145.603214,139.438635 145.111348,139.744078 Z M144.885454,139.868563 C144.162228,139.812089 143.888969,139.453209 143.759019,139.106474 C143.625426,138.753666 143.237398,138.531415 143.234362,139.070646 C143.22829,139.601376 143.222217,139.835772 143.522195,139.977866 C143.823994,140.132106 144.360797,140.170969 144.885454,139.868563 Z M144.962574,142.122039 C144.722106,141.775304 144.583047,141.401242 144.512,141.013214 C144.360797,141.277365 144.108791,142.21434 144.014061,142.878056 C143.993415,143.032295 144.001916,143.091805 144.402696,143.106379 C144.802869,143.123989 145.277125,142.987967 145.606251,142.735961 C145.410719,142.56654 145.152641,142.403799 144.962574,142.122039 Z" id="Shape"></path>
                <path d="M175.05415,69.7646462 C173.832379,70.182429 172.613643,70.5176267 171.430735,70.7787409 C178.214847,81.8858106 182.116986,94.9348412 182.116986,108.903237 C182.116986,149.355292 149.320435,182.148808 108.877487,182.148808 C68.4193593,182.148808 35.6319164,149.355292 35.6319164,108.903237 C35.6319164,94.3209192 39.8868635,80.7381226 47.2284234,69.3225738 C46.0661616,68.9904123 44.9215097,68.5459109 43.7798942,68 C36.319922,79.8454763 32,93.8727744 32,108.90263 C32,151.35312 66.423961,185.777688 108.878095,185.777688 C151.325549,185.777688 185.747081,151.353727 185.747081,108.90263 C185.745866,94.6087521 181.849799,81.2275599 175.05415,69.7646462" id="Shape"></path>
                <path d="M65.9999053,49.2711866 C78.0056936,40.6811365 92.7058162,35.6203788 108.593097,35.6203788 C126.327003,35.6203788 142.599276,41.9332702 155.274852,52.429454 C156.701265,52.0232089 158.094886,51.6527911 159.520691,51.2908747 C145.955504,39.2881226 128.123833,32 108.593097,32 C91.0753705,32 74.9251532,37.8617103 62,47.7263621 C62.6108858,47.9486128 63.2272368,48.1708635 63.8533036,48.4113315 C64.5886741,48.6955209 65.3118997,48.9803175 65.9999053,49.2711866" id="Shape"></path>
                <path d="M108.944741,211.153343 C52.5082451,211.153343 6.75132033,165.387916 6.75132033,108.950813 C6.75132033,52.5082451 52.5082451,6.75435655 108.944741,6.75435655 C165.387309,6.75435655 211.144234,52.5082451 211.144234,108.950813 C211.144234,165.387309 165.387309,211.153343 108.944741,211.153343 L108.944741,211.153343 Z M108.944741,0 C48.7779554,0 0,48.7840279 0,108.950813 C0,169.120635 48.7779554,217.898591 108.944741,217.898591 C169.117599,217.898591 217.895554,169.120635 217.895554,108.950813 C217.895554,48.7840279 169.117599,0 108.944741,0 L108.944741,0 Z" id="Shape"></path>
                <path d="M82.1758886,87.0955097 C80.6310641,86.3006295 79.2763064,85.3788357 77.8171031,84.0501894 C73.1443733,79.7867409 72.0355487,75.3119721 73.4230975,70.1710585 C74.2416602,67.0990195 75.4925794,65.5633036 75.065688,62.364351 C74.8197549,60.537766 73.5208635,59.0615599 72.2280446,57.8191421 C69.1031755,54.8187577 65.3965682,52.965454 59.9228858,51.1151866 C56.5369025,49.9796435 46.7044345,46.9258217 42.3699387,43 C41.3795265,45.8880446 43.475727,49.7246017 45.9842451,50.2346852 C43.7665961,50.4599721 41.8805014,51.6137326 41,52.867688 C42.6723454,54.8035766 46.0048914,56.8171922 48.7563064,56.8736657 C47.4871699,57.721376 45.9277716,59.5273148 45.4146518,60.5414095 C47.795649,61.810546 51.5969861,62.8750418 54.5172145,62.6643287 C53.2869415,63.6486685 52.2224457,64.900195 51.5314039,66.0442396 C53.5000836,66.9453872 57.3457493,68.2473148 61.0019554,68.5199666 C59.652663,69.1842897 57.7313482,71.4851309 56.738507,72.9024345 C58.7964513,73.8187632 63.2499666,74.3731755 66.0129192,74.6549359 C64.0351309,75.6927131 61.965649,77.7652312 60.8270696,79.6422173 C62.8315766,80.6028747 66.6001226,81.6764791 69.6776267,81.5726407 C68.1564847,83.034273 67.157571,84.8013482 66.5849415,86.5095209 C68.9125014,86.9898496 71.3584735,86.9989582 74.2021894,86.6163955 C72.4794429,88.8018607 71.7884011,91.6892981 71.5485404,93.7442061 C73.855454,93.6846964 76.9183844,93.1539666 79.0795599,91.8611476 C78.611376,93.6251866 78.7121783,96.0152925 79.4766964,97.6991755 C80.3839164,97.4914986 81.4368747,97.1150084 82.5839554,96.4980501 C82.4248579,93.2122618 82.2766908,89.8590696 82.1758886,87.0955097" id="Shape"></path>
                <path d="M176.709655,48 C172.36605,51.9318942 165.424663,52.9842451 158.139577,55.391961 C152.65132,57.1978997 149.244691,58.2593593 144.331493,62.1760724 C142.928763,63.2940056 141.591616,64.9365961 141.742819,67.7590585 C141.908596,70.8930362 142.415643,72.2453649 142.504908,76.6272256 C142.561382,79.7551309 141.481705,82.2757939 140.165203,83.7550362 C138.780691,85.3296156 136.980825,86.6934819 135.361916,87.538156 C135.270223,90.2009136 135.148167,92.8843175 135,95.997649 C136.141616,96.6200724 137.600212,97.1957382 138.510468,97.4028078 C139.263448,95.7189248 139.370323,93.3288189 138.899103,91.5647799 C141.063315,92.8575989 144.132318,93.3883287 146.436195,93.4478384 C146.190262,91.3929304 145.502256,88.5048858 143.77951,86.3200279 C146.614117,86.7025905 149.066162,86.6934819 151.396758,86.2131532 C150.815627,84.5049805 149.813677,82.7379053 148.295571,81.276273 C151.382184,81.3801114 155.141621,80.306507 157.149164,79.3458496 C156.010585,77.4688635 153.947175,75.3963454 151.969387,74.3585682 C154.729911,74.0768078 159.307911,73.5400056 161.362819,72.6212479 C160.36937,71.2100167 158.314462,68.8885292 156.980351,68.2242061 C160.633521,67.9515543 164.470078,66.6496267 166.453939,65.7484791 C165.757432,64.6038273 164.6899,63.3529081 163.474201,62.3685682 C166.899047,62.1463175 170.184228,61.5147855 172.562189,60.245649 C172.046033,59.2315543 170.495744,57.4256156 169.226607,56.5779053 C176.573632,54.5290696 176.695081,50.8637549 176.709655,48" id="Shape"></path>
                <path d="M145.609532,56.4774875 C135.19654,49.2488747 122.544646,45 108.896267,45 C96.466624,45 84.8440056,48.5371866 75,54.6363287 C77.5528468,56.6226184 79.0679164,58.7248914 79.4444067,60.9042841 C79.7613872,62.8110251 79.9812089,65.1149025 78.8808858,68.4741671 C77.7125515,72.0380724 77.0694819,75.6997437 79.7049136,79.4178886 C82.3203064,83.1214596 85.7238997,84.7166852 88.5378607,85.2559164 C92.2323231,84.6098106 96.3184568,84.0815097 100.397911,83.7554206 C100.922568,82.0266017 102.491075,80.5291421 104.074763,79.3079777 C106.361031,77.5232925 105.859448,75.9693593 105.320217,74.7597326 C104.89029,73.8106128 104.074763,73.0460947 102.894891,72.4352089 C101.866223,71.9044791 98.0916045,71.5043064 98.1984791,73.9235599 C97.5784847,73.0460947 97.080546,71.8656156 97.4454986,70.3566184 C97.9495097,68.248273 101.391967,67.7175432 102.248786,67.7770529 C101.584462,67.2165682 101.993744,66.3154206 103.500312,65.8939944 C105.332969,65.3869471 107.064217,65.3098273 108.745671,65.354156 C112.194201,65.4373482 112.733432,66.2850585 114.485933,67.8359554 C116.594279,69.7129415 119.390022,70.3651198 120.487309,69.2326128 C119.695465,71.0294429 117.189983,71.9840279 115.580184,71.7083398 C116.365955,74.1931755 116.647716,76.3513148 116.92644,78.9636713 C117.056997,80.1496156 117.305967,82.1419777 117.625983,83.7699944 C122.242847,84.1525571 126.891894,84.7871253 130.936128,85.5637883 C132.61151,85.0773872 134.351866,84.0960836 135.902763,82.2931811 C137.388078,80.5850084 138.749515,78.411688 138.185994,72.9531866 C138.025682,71.4144345 137.261164,67.4855766 137.367432,65.6413816 C137.606685,61.4441226 140.720017,58.7103175 145.609532,56.4774875 L90.5267218,58.3860188" id="Shape"></path>
                <path d="M103,67.2835969 C103.634568,67.7669618 104.008022,67.8319368 104.218735,67.7815356 C104.239382,67.9029841 104.459203,68.048115 104.500496,68.0985161 C104.637125,68.2169284 104.714245,68.3298755 104.746429,68.4604326 C105.034262,68.3389841 105.804852,68.0244326 106.510468,67.7815356 C107.216084,67.5149563 108.197387,67.2331958 108.197387,67.2331958 C105.152674,66.5864827 104.689955,67.5149563 103,67.2835969" id="Shape"></path>
                <path d="M194.29977,79.8038598 C198.098071,78.140623 199.814745,73.8972135 198.210411,70.2385784 C196.609113,66.5769071 192.33352,64.9962553 188.538255,66.6625283 C184.739954,68.3227288 182.990489,72.547921 184.594823,76.2132358 C186.193085,79.8688347 190.504506,81.4670965 194.29977,79.8038598 L194.29977,79.8038598 Z M189.772172,69.4649517 C192.772556,68.1454141 196.209548,68.7502274 197.077904,70.7371244 C197.961442,72.7477038 196.078383,75.6831132 193.06889,76.9965784 C190.053325,78.3191522 186.602367,77.7228403 185.721258,75.7128681 C184.858974,73.7284001 186.738996,70.7899545 189.772172,69.4649517 L189.772172,69.4649517 Z" id="Shape"></path>
                <path d="M188.447058,90.253766 L187,84.5250418 L187.880501,84.2936825 L188.289783,85.8980167 L200.410947,82.8235487 L199.995593,81.2222507 L200.885203,81 L203.085242,89.6726351 L203.675482,89.5183955 L203.959671,90.6600111 L200.609515,91.5077214 L200.327755,90.3928245 L201.845861,90.0078329 L200.734,85.6338663 L195.767365,86.8969304 L196.630256,90.2622674 L198.059705,89.897922 L198.362111,91.0273928 L194.22254,92.0773148 L193.914061,90.9448078 L195.384802,90.5737827 L194.531019,87.2084457 L188.977788,88.6196769 L189.330596,90.0224067 L188.447058,90.253766" id="Shape"></path>
                <path d="M19.1913148,74.255649 L18.6696936,76.0051142 L26.4915822,78.3357103 C28.8488969,79.0413259 30.0822061,80.2983175 30.387649,82.3088969 C30.5297437,83.3436379 30.450195,84.4378886 30.1386797,85.5169582 C29.1276212,88.8822953 26.6251755,90.5133482 23.7517047,89.6650306 L15.3547577,87.1565125 L14.8774652,88.7371643 L14,88.4730139 L15.7403565,82.6556323 L16.6093203,82.9137103 L16.1496379,84.4761448 L23.9059443,86.7915599 C26.0112535,87.4139833 27.0757493,87.3253259 27.9592869,86.4326797 C28.3509582,86.0057883 28.6825125,85.4422674 28.8634708,84.8168078 C29.613415,82.3234708 28.5726017,80.4313036 26.0258273,79.6692145 L18.2871309,77.3562284 L17.7740111,79.0880836 L16.8758997,78.8269694 L18.319922,74 L19.1913148,74.255649" id="Shape"></path>
                <path d="M32.8023591,78.027511 C32.4823424,78.7598452 31.6370611,79.1065806 30.890153,78.8041739 C30.1547825,78.4926586 29.8019747,77.6358397 30.11349,76.897433 C30.4250054,76.1559901 31.2848605,75.8031823 32.0171948,76.1116614 C32.7610667,76.423784 33.107802,77.2745305 32.8023591,78.027511" id="Shape"></path>
                <path d="M36.081282,72.0812145 L35.5031873,73.1189916 L32.0965578,71.2007131 L32.6837612,70.1659721 L34.0804185,70.9547799 C35.236608,70.4805237 35.8444575,69.9819777 36.3721511,69.0541114 C37.0273656,67.8797047 36.8020787,66.6348579 35.8268475,66.0804457 C34.9669924,65.600117 34.0658447,65.8138663 31.9368531,66.9342284 C29.7161678,68.1262451 29.4016163,68.2476936 28.5569422,68.4225794 C27.7414158,68.5828914 26.8487695,68.4080056 26.0132041,67.9392145 C23.9285411,66.7593426 23.4069199,64.452429 24.7112765,62.1485515 C25.1290592,61.4071086 25.5711316,60.8824513 26.2706748,60.3371476 L25.7101901,60.0171309 L26.2822124,59 L29.5169924,60.8144401 L28.9419339,61.8376435 L27.6315049,61.102273 C26.6823851,61.6153928 26.2050926,62.0155655 25.8170648,62.7181448 C25.2626525,63.6994485 25.5322681,64.8471365 26.4158057,65.3481114 C27.1809311,65.778039 27.8895829,65.6061894 30.0744408,64.4378552 C31.129828,63.8834429 31.7765411,63.5306351 32.0461567,63.4122228 C32.5975327,63.139571 33.2290648,62.9822953 33.9231428,62.946468 C34.7149868,62.9136769 35.4291038,63.1007075 36.1675105,63.5069526 C38.326257,64.7196156 38.957789,67.1449415 37.7153712,69.3601616 C37.0953768,70.4544123 36.4225522,71.1272368 35.4175662,71.7083677 L36.081282,72.0812145" id="Shape"></path>
                <path d="M41.8376435,62.4173036 C41.8376435,63.2121838 41.2061114,63.8437159 40.4142674,63.8437159 C39.6224234,63.8437159 39,63.2121838 39,62.4173036 C39,61.631532 39.6224234,61 40.4142674,61 C41.2061114,61 41.8376435,61.631532 41.8376435,62.4173036" id="Shape"></path>
                <path d="M74.7445794,34.1741226 L65.5527521,38.9093983 L65.1434708,38.0908357 L66.6087465,37.3408914 L60.8800223,26.2277493 L59.4153538,26.9807298 L59,26.1682396 L66.9524457,22.0736045 L66.6737214,21.5368022 L67.7084624,21 L69.2945794,24.0629304 L68.2719833,24.588195 L67.5572591,23.2030752 L63.5427799,25.2670919 L65.8849136,29.8244457 L68.9775989,28.2322563 L68.2926295,26.9212201 L69.3334429,26.3668078 L71.2899777,30.1742173 L70.258273,30.7225571 L69.5648022,29.3732646 L66.472117,30.9630251 L68.930234,35.7304847 L73.1195989,33.5717382 L72.3872646,32.1459331 L73.4159331,31.6152033 L74.7445794,34.1741226" id="Shape"></path>
                <path d="M84.4870752,30.9858678 L78.515454,32.9721575 L78.222156,32.1031937 L79.790663,31.5846087 L75.8502674,19.7154499 L74.2878329,20.2340349 L74,19.3650711 L80.2473092,17.3016616 C82.7971198,16.4478789 84.982585,17.4437563 85.7653203,19.8162522 C86.5183008,22.0606198 85.1483621,24.5721742 82.7351811,25.3670544 C82.3854095,25.4885029 82.1510139,25.5419402 81.5820279,25.6220962 L81.2498663,24.6049653 C81.534663,24.5782466 81.6439666,24.5399903 81.8249248,24.4895892 C83.2276546,24.0238343 83.6782284,22.7461964 83.0643064,20.9165753 C82.4297382,18.9776505 81.3269861,18.2155614 79.8410641,18.7135001 L78.6047187,19.1258176 L82.4503844,30.7071435 L84.1937772,30.1260126 L84.4870752,30.9858678" id="Shape"></path>
                <path d="M101.360067,25.5923844 L100.455883,25.7435877 L92.7791253,13 L91.480234,13.2283231 L88.3310752,27.8549694 L87,28.0832925 L87.160312,28.9789749 L91.5871086,28.2108134 L91.4298329,27.3127019 L89.7192312,27.6120724 L90.5110752,23.9085014 L95.7090696,23.0073538 L97.639493,26.2390975 L96.133532,26.4941393 L96.2908078,27.3952869 L101.512485,26.4911031 L101.360067,25.5923844 L101.360067,25.5923844 Z M90.7989081,22.511844 L92.0291811,16.786156 L94.988273,21.7849749 L90.7989081,22.511844 L90.7989081,22.511844 Z" id="Shape"></path>
                <path d="M116.303465,26.4261281 L115.402318,26.4261281 C114.97239,26.4261281 114.711276,26.2305961 114.204228,25.468507 L111.144334,20.7241226 C113.184061,20.0956267 114.183582,18.8501727 114.189655,16.8906017 C114.189655,15.7374485 113.851421,14.8059387 113.137304,14.0796769 C112.360641,13.3030139 111.310719,13.0151811 109.45195,13.0060724 L103.044329,13 L103.044329,13.9072201 L104.689955,13.9163287 L104.669309,26.4170195 L103.009109,26.4139833 L103,27.3181671 L109.090033,27.3327409 L109.090033,26.4255209 L107.456552,26.4255209 L107.471125,20.9488022 L108.061365,20.963376 L111.305253,26.0660334 C112.04366,27.2137214 112.256802,27.3436713 113.538084,27.3467075 L116.292535,27.3558162 L116.303465,26.4261281 L116.303465,26.4261281 Z M107.494808,14.227844 L108.849565,14.227844 C110.397426,14.2308802 111.295538,15.2273649 111.290072,16.9731866 C111.290072,18.6783231 110.252295,19.875805 108.754836,19.875805 L107.477198,19.8612312 L107.494808,14.227844 L107.494808,14.227844 Z" id="Shape"></path>
                <path d="M126.83039,28.3639666 L119.930903,27.1986685 L120.088178,26.3066295 L122.15766,26.6472925 L124.182813,14.6864401 L120.485315,14.0640167 L120.179872,15.8395933 L119,15.6379889 L119.616351,12 L120.799866,12.195532 L120.699064,12.7979164 L130.833331,14.5115543 L130.946279,13.9152423 L132.117042,14.1083454 L131.503727,17.7463343 L130.317783,17.5538384 L130.628691,15.7806908 L126.943337,15.152195 L124.92122,27.1160836 L126.976128,27.4628189 L126.83039,28.3639666" id="Shape"></path>
                <path d="M146.625081,35.8070306 L140.603058,33.4703621 L140.932184,32.6220446 L142.636713,33.2954763 L146.028769,24.5426852 L137.779989,32.610507 L136.632301,21.1063008 L133.305827,29.6720613 L135.013393,30.3242396 L134.681838,31.1810585 L130,29.3696546 L130.332162,28.5158719 L132.027582,29.1710864 L136.555788,17.5150696 L134.856724,16.8568189 L135.182813,16 L138.764329,17.3966574 L139.912017,28.664039 L147.801916,20.8955877 L151.792713,22.4434485 L151.46966,23.3033036 L149.76756,22.6450529 L145.252106,34.3004624 L146.959671,34.9556769 L146.625081,35.8070306" id="Shape"></path>
                <path d="M157.708462,42.6422117 L149,37.0768357 L149.49551,36.3086741 L150.876986,37.1982841 L157.613733,26.6516992 L156.226184,25.7772702 L156.706513,25 L164.24907,29.8154318 L164.569694,29.302312 L165.560106,29.931415 L163.709838,32.8486072 L162.737036,32.2261838 L163.579281,30.9127187 L159.774908,28.4752479 L157.017421,32.7951699 L159.944329,34.6691198 L160.735565,33.4236657 L161.738123,34.0315153 L159.431209,37.6403565 L158.43776,37.0264345 L159.247214,35.739688 L156.326986,33.877883 L153.441978,38.393337 L157.403019,40.9285738 L158.271983,39.5792813 L159.267861,40.2077772 L157.708462,42.6422117" id="Shape"></path>
                <path d="M57.779415,43.3988181 L56.3621114,44.4305229 L49.3114206,34.8330577 L50.7912702,33.7357708 C52.8431421,32.235275 56.2054429,33.1516037 58.0939666,35.7250967 C60.1191198,38.4740828 59.9855265,41.7799101 57.779415,43.3988181 L57.779415,43.3988181 Z M60.5636212,33.9106566 C58.1856602,30.6758766 53.7679721,30.0473808 50.4585014,32.4787791 L45,36.4847569 L45.5368022,37.2231635 L46.8678774,36.2418599 L54.2568022,46.3020438 C54.6065738,46.4411023 54.9593816,46.5661942 55.303688,46.696144 L58.9179944,44.0364226 C60.6316323,42.779431 61.5333872,41.3943112 61.8594763,39.5294699 C62.2031755,37.5103892 61.743493,35.5210633 60.5636212,33.9106566 L60.5636212,33.9106566 Z" id="Shape"></path>
                <path d="M175.441694,39.4932423 L174.830808,40.1721393 L176.099944,41.3167911 L169.964975,48.0505014 L171.512836,35.9147632 L168.325421,33 L167.708462,33.6758607 L168.867688,34.7282117 L168.62722,36.011922 L160.948033,44.4325515 L159.622423,43.2168524 L159,43.8896769 L162.626451,47.1985404 L163.243409,46.5226797 L161.980345,45.3664903 L168.369749,38.3570919 L166.996774,49.4939164 C168.325421,49.1441448 169.748189,48.7731198 171.269331,48.3462284 C171.405961,48.3079721 171.515265,48.2691086 171.642786,48.24239 L177.101287,42.2440501 L178.459081,43.4688579 L179.073003,42.8014986 L175.441694,39.4932423" id="Shape"></path>
                <path d="M190.450195,55.1347465 L189.969866,55.4996992 L183.722557,47.3250028 L184.205922,46.9515487 L183.482696,46 L180.547287,48.2474039 L181.270513,49.1989526 L182.705426,48.1016657 L184.982585,51.0874763 L175.340184,58.4618273 L174.845281,57.8035766 C174.563521,57.9578162 174.287833,58.0968747 174,58.2128579 L177.579086,62.888624 L178.308384,62.3342117 L177.04532,60.6855487 L186.684685,53.3057326 L188.952735,56.2824345 L187.520858,57.3766852 L188.241655,58.3197326 L191.174028,56.0808301 L190.450195,55.1347465" id="Shape"></path>
                <path d="M126.719173,204.025733 L125.553875,204.280774 L124.714666,200.4679 L125.883001,200.209822 L126.221235,201.778329 C127.34524,202.323632 128.124939,202.448724 129.174254,202.220401 C130.484683,201.932568 131.264382,200.942763 131.021485,199.839404 C130.813808,198.887855 130.048683,198.335872 127.798243,197.491198 C125.432427,196.640451 125.129413,196.483175 124.438978,195.963983 C123.771619,195.466045 123.309508,194.686345 123.104867,193.74937 C122.594783,191.415738 123.976867,189.488351 126.56797,188.919365 C127.389569,188.738407 128.080003,188.729298 128.960505,188.883538 L128.81841,188.245933 L129.963062,188 L130.757942,191.629487 L129.61329,191.881493 L129.290237,190.425933 C128.27007,190.037298 127.659185,189.951677 126.87402,190.12049 C125.773697,190.366423 125.089335,191.342262 125.305513,192.332674 C125.498009,193.177955 126.100393,193.601811 128.418845,194.461666 C129.539814,194.870947 130.233285,195.11688 130.503508,195.235292 C131.067029,195.472724 131.615368,195.83707 132.095697,196.332579 C132.650109,196.907638 132.99138,197.559816 133.174767,198.39356 C133.699424,200.809777 132.311875,202.888368 129.824003,203.434279 C128.599196,203.698429 127.650683,203.638919 126.556432,203.280039 L126.719173,204.025733" id="Shape"></path>
                <path d="M148.851933,197.826301 L139.233214,201.606384 L138.901053,200.755638 L140.43434,200.147788 L135.864841,188.509989 L134.326089,189.120875 L134,188.272557 L142.328936,184.996485 L142.100613,184.426891 L143.191827,184 L144.454891,187.214134 L143.381287,187.63556 L142.817766,186.182429 L138.59561,187.834128 L140.478669,192.604624 L143.710412,191.330022 L143.176646,189.960084 L144.270897,189.50951 L145.821794,193.488162 L144.742117,193.947844 L144.176167,192.527504 L140.949889,193.790568 L142.910067,198.783922 L147.289499,197.061175 L146.705331,195.572825 L147.802011,195.145933 L148.851933,197.826301" id="Shape"></path>
                <path d="M163.166858,189.076228 C161.94205,190.608908 161.082195,191.412897 159.670964,192.263643 C155.760323,194.635532 151.368747,193.695521 149.130451,190.004095 C146.909766,186.34546 148.048346,181.930201 151.778028,179.66215 C152.976117,178.929816 153.90702,178.588546 155.273922,178.39605 L154.799666,177.622423 L155.822869,177 L157.833449,180.327081 L156.816318,180.947075 L156.093092,179.755058 C154.581059,179.663365 153.860262,179.817604 152.885031,180.407237 C150.305465,181.975744 149.807527,185.219632 151.681476,188.303209 C153.505025,191.30663 156.903153,192.448245 159.467538,190.894919 C160.392368,190.325326 160.941315,189.720513 161.486619,188.650552 L160.626763,187.245393 L161.667577,186.616897 L163.166858,189.076228" id="Shape"></path>
                <path d="M169.773822,166.676468 L168.421493,167.903705 L173.921894,173.934836 C175.579058,175.749276 175.98834,177.454412 175.211677,179.334435 C174.802396,180.301164 174.1739,181.199276 173.343799,181.952864 C170.746624,184.333861 167.760813,184.431627 165.738696,182.231588 L159.826585,175.749883 L158.60785,176.855671 L158,176.185276 L162.48327,172.090641 L163.100228,172.763465 L161.896674,173.85468 L167.358212,179.843911 C168.831989,181.459783 169.795682,181.934039 171.005309,181.626167 C171.571866,181.46039 172.137816,181.157983 172.618145,180.709838 C174.545532,178.960373 174.625688,176.790089 172.834323,174.832947 L167.393432,168.870435 L166.064786,170.086134 L165.439326,169.392056 L169.148362,166 L169.773822,166.676468" id="Shape"></path>
                <path d="M194.483465,153.82844 L191.592992,159.171565 L190.785967,158.735565 L191.574774,157.280006 L180.577616,151.329031 L179.782735,152.781554 L179,152.343125 L181.885008,147 L182.685961,147.439036 L181.902618,148.861805 L192.908886,154.818852 L193.680084,153.39244 L194.483465,153.82844" id="Shape"></path>
                <path d="M200.44668,140.928763 L197.979454,147.472407 L197.131744,147.146318 L197.87015,145.177638 L186.514111,140.902045 L185.182429,144.412513 L186.878457,145.047081 L186.451565,146.170479 L183,144.866123 L183.412318,143.751226 L183.993448,143.961939 L187.616864,134.337148 L187.04727,134.124006 L187.468696,133 L190.922691,134.304357 L190.501872,135.425326 L188.814953,134.784685 L187.498451,138.277543 L198.857526,142.556173 L199.589861,140.608139 L200.44668,140.928763" id="Shape"></path>
                <path d="M204.005086,124.226663 L202.839788,130.192212 L201.938641,130.017326 L202.255621,128.4221 L196.381766,127.268947 L189.156189,130.239577 L188.895075,131.585833 L188,131.398802 L189.167727,125.43629 L190.060373,125.617248 L189.748858,127.194864 L195.003326,125.089554 L190.899582,121.332546 L190.540702,123.141521 L189.651092,122.969671 L190.620858,118 L191.507432,118.177922 L191.214134,119.713638 L196.358084,124.407621 L202.792423,125.670685 L203.109404,124.054813 L204.005086,124.226663" id="Shape"></path>
                <path d="M174.628273,161.666245 L175.440763,160.565922 C176.357092,159.320468 177.697276,159.211164 179.087861,160.245905 C180.460836,161.271537 180.819716,162.795716 179.920997,163.999877 L179.161944,165.02551 L174.628273,161.666245 L174.628273,161.666245 Z M189.682418,161.826557 L189.145616,162.547354 C188.884501,162.894089 188.573593,162.994891 187.660301,162.935989 L182.020841,162.586217 C182.738602,160.578674 182.317175,159.019276 180.754741,157.853978 C179.826875,157.172044 178.869253,156.890284 177.866696,157.038451 C176.769409,157.201799 175.930808,157.868551 174.812875,159.37512 L171,164.51664 L171.723226,165.056479 L172.716674,163.733905 L182.753175,171.185376 L181.771872,172.50795 L182.50117,173.053253 L186.127621,168.16981 L185.392251,167.629972 L184.422485,168.943437 L180.033944,165.669794 L180.377643,165.204039 L186.41424,165.633966 C187.77507,165.72566 188.012501,165.624858 188.780056,164.599225 L190.41961,162.381576 L189.682418,161.826557 L189.682418,161.826557 Z" id="Shape"></path>
                <path d="M16.786156,137.896167 L15.3330251,131.987092 L16.2226351,131.773343 L16.6173426,133.357031 L22.156,132.001666 L20.4775822,125.152579 L14.9358886,126.501872 L15.3245237,128.084953 L14.4440223,128.295666 L13,122.398128 L13.8774652,122.181343 L14.2776379,123.785677 L26.4255209,120.817476 L26.0368858,119.210713 L26.9149582,119 L28.3529081,124.900574 L27.4663343,125.113716 L27.0807354,123.536708 L21.7291086,124.841064 L23.4099554,131.696223 L28.7652256,130.385794 L28.3674819,128.802713 L29.2662006,128.592 L30.7041504,134.492574 L29.8206128,134.711788 L29.4265125,133.113526 L17.2786295,136.075655 L17.6788022,137.685454 L16.786156,137.896167" id="Shape"></path>
                <path d="M30.3923916,151.762843 C34.1730824,150.046169 35.8272106,145.788185 34.1730824,142.150197 C32.5098457,138.512208 28.2136061,136.984993 24.442024,138.70774 C20.6765142,140.430486 18.9774501,144.676325 20.6346145,148.314314 C22.2857064,151.952302 26.6208095,153.484982 30.3923916,151.762843 L30.3923916,151.762843 Z M25.7135894,141.48891 C28.6994,140.12808 32.1418568,140.679456 33.0399682,142.66028 C33.9502245,144.652642 32.1060295,147.617807 29.1262914,148.981673 C26.1167983,150.345539 22.6652329,149.794163 21.761049,147.801801 C20.8599014,145.81794 22.7040964,142.861277 25.7135894,141.48891 L25.7135894,141.48891 Z" id="Shape"></path>
                <path d="M35.4725014,171.839599 L31.6893816,166.618529 L32.4217159,166.084763 L33.4947131,167.560969 L41.0852423,162.052067 L29.7796045,164.349872 L35.0486462,154.070474 L27.6123565,159.457928 L28.6914262,160.93717 L27.9499833,161.473972 L25,157.417593 L25.7384067,156.880791 L26.8144401,158.354568 L36.9286685,151.001471 L35.8581003,149.53073 L36.5995432,149 L38.8499833,152.101187 L33.7114986,162.20327 L44.5459164,159.938256 L47.0775097,163.418969 L46.3336379,163.952735 L45.2630696,162.478958 L35.1403398,169.826591 L36.2169805,171.302797 L35.4725014,171.839599" id="Shape"></path>
                <path d="M46.6057103,183.537766 L39,176.53444 L39.6230306,175.870117 L40.8387298,176.976513 L49.3127967,167.787721 L48.1001337,166.663716 L48.7134485,166 L55.3020279,172.060279 L55.6991643,171.609705 L56.5772368,172.407014 L54.2344958,174.942251 L53.3837493,174.165588 L54.4391365,173.023972 L51.1211643,169.954969 L47.6489526,173.720479 L50.2017994,176.071721 L51.2073928,174.986579 L52.0787855,175.769315 L49.1792033,178.915437 L48.3102396,178.138774 L49.3304067,177.014769 L46.7805961,174.666563 L43.1426072,178.603922 L46.6087465,181.800446 L47.6969248,180.620574 L48.5567799,181.411811 L46.6057103,183.537766" id="Shape"></path>
                <path d="M59.5068579,192.609421 L51,186.886769 L51.516156,186.133788 L52.8854875,187.059226 L59.8627019,176.675382 L58.4957994,175.759053 L59.005883,175 L64.0490306,178.389019 L63.5365181,179.151109 L62.1932981,178.240852 L55.4152591,188.313181 L59.2518162,190.901855 L60.1468914,189.5641 L61.1196936,190.222351 L59.5068579,192.609421" id="Shape"></path>
                <path d="M75.6331978,198.779799 L74.8030975,198.403309 L75.6508078,183.54834 L74.4472535,183 L63.6012981,193.306724 L62.3764903,192.749276 L62,193.57634 L66.0861337,195.438145 L66.4717326,194.611081 L64.8825794,193.890284 L67.6309582,191.271855 L72.4281727,193.454284 L72.1937772,197.216758 L70.817766,196.591298 L70.4321671,197.415326 L75.2530641,199.609292 L75.6331978,198.779799 L75.6331978,198.779799 Z M68.6450529,190.28205 L72.8939276,186.25239 L72.5204735,192.046089 L68.6450529,190.28205 L68.6450529,190.28205 Z" id="Shape"></path>
                <path d="M90.8691588,204.138201 L89.3923454,203.782357 L84.5210474,191.669694 L82.3149359,200.897348 L83.9812089,201.300557 L83.7704958,202.184095 L79,201.048552 L79.2101058,200.152869 L80.959571,200.573688 L83.6192925,189.490301 L83.1954373,188.253955 L81.6742953,187.892646 L81.8850084,187 L86.0950195,188.008022 L90.5989359,199.379242 L92.7218552,190.53415 L91.052546,190.130942 L91.2632591,189.244368 L96.0428635,190.385983 L95.8206128,191.275593 L94.0413928,190.848702 L90.8691588,204.138201" id="Shape"></path>
                <path d="M103.742819,204.564708 C105.868774,204.641827 107.428173,204.11717 108.84244,202.862607 C110.369655,201.478095 111.244084,199.648474 111.318167,197.650039 C111.460262,193.63556 108.382758,190.40078 104.279014,190.252006 L97.5100836,190 L97.4833649,190.919365 L99.1320279,190.972802 L98.6784178,203.467421 L97.0297549,203.410947 L97,204.32424 L103.742819,204.564708 L103.742819,204.564708 Z M102.085047,191.871521 L103.920134,191.945604 C106.463872,192.040334 108.533961,194.851259 108.427086,198.035638 C108.296529,201.442267 106.137783,203.947749 103.416123,203.853019 L101.652084,203.788045 L102.085047,191.871521 L102.085047,191.871521 Z" id="Shape"></path>
                <path d="M106.961526,118.240568 L105.677816,117.596891 L104.850752,115.435109 L102.973766,114.61351 L100.856919,112.724986 L99.5999276,114.109499 L97.7229415,114.551571 L96.7234206,116.132223 L95.2144234,117.736557 L93.1595153,118.830808 L91.7391755,121.235487 L90.9327577,122.299983 L89.5482451,123.382089 L88.7800836,122.569599 L87.9584847,123.352334 L86.9328524,125.253003 C86.3930139,123.832663 86.0669248,122.732947 85.9041838,120.461253 C85.6017772,116.250635 85.2963343,110.967019 85,105.555883 C91.9444234,104.058423 100.782836,103.068011 107.958618,103 L107.958618,119.399794 C107.628886,119.201226 107.29976,119.04395 106.961526,118.240568" id="Shape"></path>
                <path d="M107.651705,126 L87,126 C87.3054429,126.640641 87.6521783,127.233309 88.0553872,127.79683 C89.5407019,129.884529 91.658156,131.426318 94.3439889,132.250345 C97.9880501,133.368279 100.31561,134.100613 102.008602,134.640451 L104.030719,135.271983 C105.682418,135.782067 106.838607,136.528975 107.651097,137.347538 L107.651097,126" id="Shape"></path>
                <path d="M130.215705,118.442362 C130.782262,117.991788 131.431404,117.467131 132.288223,117.155616 C132.409671,115.225192 132.534156,113.164819 132.664713,111.029755 C132.43639,111.183994 132.198958,111.379526 131.90566,111.610886 C130.92132,112.408195 129.691047,113.410752 127.523192,113.410752 C125.495003,113.410752 124.178501,112.598262 123.123114,111.946084 C122.266295,111.415354 121.575253,111 120.564195,111 C119.449298,111 118.491677,111.569593 117.47151,112.182908 C116.371187,112.835086 115.129376,113.579565 113.608234,113.579565 C112.048836,113.579565 110.921794,113.099237 110,112.598262 L110,118.394997 C110.207677,118.513409 110.412318,118.637894 110.610886,118.75995 C111.535716,119.329543 112.336669,119.821409 113.608841,119.821409 C114.394613,119.821409 115.174312,119.353226 116.093677,118.798206 C117.318485,118.068908 118.712106,117.238808 120.564802,117.238808 C122.325805,117.238808 123.491103,117.94746 124.531916,118.582028 C125.451281,119.157086 126.254663,119.640451 127.523799,119.640451 C128.735855,119.640451 129.397142,119.115794 130.215705,118.442362" id="Shape"></path>
                <path d="M113.608234,131.583209 C112.048836,131.583209 110.921794,131.108953 110,130.595833 L110,137.693889 C110.809454,136.878362 111.962607,136.131454 113.623415,135.62137 L115.636423,134.989838 C117.332451,134.45 119.647866,133.717666 123.304072,132.599733 C124.368568,132.270607 125.346836,131.834607 126.233409,131.286267 C124.904763,131.04337 123.938641,130.450095 123.123114,129.94912 C122.266295,129.41839 121.575253,129 120.564195,129 C119.449298,129 118.491677,129.578095 117.47151,130.185944 C116.371794,130.836301 115.129376,131.583209 113.608234,131.583209" id="Shape"></path>
                <path d="M130.215705,109.241844 C130.891565,108.698969 131.710128,108.046791 132.834134,107.788713 C132.878462,107.050306 132.920362,106.303398 132.961655,105.555883 C126.017231,104.058423 117.18732,103.068011 110,103 L110,109.193872 C110.207677,109.318357 110.412318,109.43434 110.610886,109.561253 C111.535716,110.124774 112.336669,110.625749 113.608841,110.625749 C114.394613,110.625749 115.174312,110.145421 116.093677,109.600117 C117.318485,108.858674 118.712106,108.03161 120.564802,108.03161 C122.325805,108.03161 123.491103,108.757872 124.531916,109.380903 C125.451281,109.952925 126.254663,110.442362 127.523799,110.442362 C128.735855,110.442362 129.397142,109.914669 130.215705,109.241844" id="Shape"></path>
                <path d="M110,121.604334 L110,127.643967 C110.207677,127.759343 110.412318,127.8899 110.610886,128.008919 C111.535716,128.578513 112.336669,129.073415 113.608841,129.073415 C114.394613,129.073415 115.174312,128.599159 116.093677,128.053248 C117.318485,127.320914 118.712106,126.487777 120.564802,126.487777 C122.325805,126.487777 123.491103,127.202501 124.531916,127.830997 C125.451281,128.406056 126.254663,128.895493 127.523799,128.895493 C128.511175,128.895493 129.128134,128.542685 129.771203,128.056284 C131.096813,126.093677 131.867404,123.662279 132.054435,120.836173 C132.057471,120.711688 132.069008,120.595705 132.078117,120.483365 C132.021643,120.521621 131.96517,120.572022 131.906267,120.616958 C130.921928,121.414267 129.691655,122.40468 127.523799,122.40468 C125.49561,122.40468 124.179109,121.604334 123.123721,120.957621 C122.266903,120.417783 121.575861,120 120.564802,120 C119.449905,120 118.492284,120.572022 117.472117,121.192017 C116.371794,121.844195 115.129983,122.585638 113.608841,122.585638 C112.048836,122.585638 110.921794,122.111382 110,121.604334" id="Shape"></path>
                <path d="M84.7973092,104.658256 C84.4681838,98.6271253 84.180351,92.5516657 84,87.7635599 C91.3263788,86.0972869 101.022217,85 108.642501,85 C116.262786,85 125.973198,86.0972869 133.281967,87.7635599 C133.116189,92.552273 132.822284,98.6277326 132.487086,104.658256 C125.590635,103.202696 116.469855,102.114518 108.641894,102.114518 C100.820006,102.113911 91.6967967,103.202089 84.7973092,104.658256 Z M89.6066685,91.7452479 L89.8732479,90.4469638 L88.6696936,89.8980167 L89.9831588,89.7589582 L90.1161448,88.4424568 L90.6559833,89.6551198 L91.9372646,89.3879331 L90.9644624,90.274507 L91.6287855,91.4282674 L90.4841337,90.7548357 L89.6066685,91.7452479 Z M97.6416992,90.6807521 L96.5298384,89.9575265 L95.6019721,90.9121114 L95.9341337,89.6253649 L94.7627632,89.026624 L96.0671198,88.9403955 L96.2687242,87.6299666 L96.7460167,88.8632758 L98.0479443,88.6525627 L97.0338496,89.5008802 L97.6416992,90.6807521 Z M103.669794,90.2125682 L102.599226,89.4359053 L101.62946,90.3370529 L102.027203,89.0709526 L100.882552,88.4127019 L102.192981,88.3981281 L102.463203,87.0931643 L102.87795,88.3562284 L104.182914,88.2110975 L103.121454,88.9968691 L103.669794,90.2125682 Z M109.694852,90.0820111 L108.671649,89.2488747 L107.654518,90.0820111 L108.120273,88.8426295 L107.011448,88.1102953 L108.330986,88.1813426 L108.671649,86.8976323 L109.006847,88.1813426 L110.323348,88.1102953 L109.229097,88.8426295 L109.694852,90.0820111 Z M126.856128,90.7700167 L125.717549,91.4367688 L126.37337,90.2836156 L125.397532,89.3970418 L126.684279,89.6696936 L127.227153,88.445493 L127.354674,89.7674596 L128.671175,89.9101616 L127.461549,90.4615376 L127.739666,91.7573928 L126.856128,90.7700167 Z M120.300947,89.5008802 L119.277744,88.6555989 L120.573599,88.8723844 L121.062429,87.6299666 L121.258568,88.9403955 L122.57507,89.0205515 L121.397627,89.6253649 L121.735861,90.9121114 L120.798886,89.9575265 L119.693097,90.6868245 L120.300947,89.5008802 Z M114.219415,89.0029415 L113.166457,88.2110975 L114.474457,88.3623008 L114.886774,87.0962006 L115.15639,88.4066295 L116.469855,88.4127019 L115.319131,89.0770251 L115.719911,90.3461616 L114.750145,89.4359053 L113.679577,90.2125682 L114.219415,89.0029415 Z M90.4841337,101.503632 L90.7537493,100.207777 L89.5617326,99.6503287 L90.8666964,99.525844 L91.0209359,98.2063064 L91.5486295,99.4250418 L92.8293036,99.1669638 L91.8540724,100.044429 L92.4947131,101.198189 L91.3585627,100.519292 L90.4841337,101.503632 Z M98.2999499,100.519292 L97.1941616,99.786351 L96.2602228,100.726362 L96.5978496,99.4487242 L95.4325515,98.8348022 L96.7435877,98.7637549 L96.9506574,97.4533259 L97.4285571,98.7012089 L98.723805,98.4941393 L97.6981727,99.330312 L98.2999499,100.519292 Z M104.096685,100.097866 L103.020045,99.3151309 L102.053922,100.216279 L102.454095,98.9447131 L101.315515,98.2834262 L102.628981,98.28039 L102.893131,96.9760334 L103.301805,98.2360613 L104.618306,98.0878942 L103.553811,98.8821671 L104.096685,100.097866 Z M109.896457,99.9909916 L108.870217,99.15239 L107.850657,99.9909916 L108.324914,98.7400724 L107.219125,98.0138106 L108.526518,98.0848579 L108.870217,96.8005404 L109.208451,98.0848579 L110.521916,98.0138106 L109.421593,98.7400724 L109.896457,99.9909916 Z M126.378836,100.593376 L125.240256,101.269237 L125.898507,100.113047 L124.92024,99.2264735 L126.20395,99.4839443 L126.737716,98.28039 L126.874345,99.5938552 L128.187811,99.7274485 L126.986685,100.278825 L127.265409,101.580752 L126.378836,100.593376 Z M120.048334,99.3776769 L119.025738,98.538468 L120.327058,98.7400724 L120.798886,97.503727 L121.00049,98.8202284 L122.320028,98.8882396 L121.142585,99.4930529 L121.474747,100.776763 L120.549916,99.8343231 L119.441092,100.563621 L120.048334,99.3776769 Z M114.183588,98.9028134 L113.137309,98.1146128 L114.444702,98.2597437 L114.857019,97.0021448 L115.123599,98.298 L116.446173,98.3247187 L115.289983,98.9683955 L115.684084,100.237532 L114.717354,99.3388134 L113.649822,100.115476 L114.183588,98.9028134 Z M93.3569972,95.7451532 L93.6654763,94.4523343 L92.4825682,93.8681671 L93.7990696,93.7704011 L93.9739554,92.4508635 L94.466429,93.6787075 L95.7562117,93.4534206 L94.7627632,94.3102396 L95.3882228,95.484039 L94.2672535,94.7844958 L93.3569972,95.7451532 Z M87.5930529,96.6614819 L87.8602396,95.3540891 L86.6475766,94.8172869 L87.9519331,94.6691198 L88.0824903,93.3495822 L88.6277939,94.5531365 L89.9175766,94.2895933 L88.9423454,95.1761671 L89.6066685,96.3323565 L88.4650529,95.661961 L87.5930529,96.6614819 Z M101.15824,94.932663 L100.076134,94.1705738 L99.1154763,95.0990474 L99.4950028,93.8147298 L98.3297047,93.1831978 L99.6522786,93.1510139 L99.8806017,91.8375487 L100.325103,93.0915042 L101.62946,92.9135822 L100.589253,93.7291086 L101.15824,94.932663 Z M106.934329,94.6539387 L105.884407,93.8414485 L104.891565,94.7164847 L105.323922,93.461922 L104.197487,92.7684513 L105.50488,92.7951699 L105.810323,91.502351 L106.18985,92.7684513 L107.500279,92.6706852 L106.418173,93.4327744 L106.934329,94.6539387 Z M112.712847,94.7310585 L111.713933,93.8535933 L110.670084,94.6569749 L111.180167,93.4327744 L110.106563,92.6706852 L111.414563,92.7745237 L111.794089,91.5053872 L112.09346,92.8036713 L113.409961,92.7745237 L112.282919,93.4679944 L112.712847,94.7310585 Z M129.148468,95.7038607 L127.986206,96.3499666 L128.671175,95.2204958 L127.722056,94.3072033 L128.997265,94.6035376 L129.554713,93.3939109 L129.661588,94.7164847 L130.972017,94.8883343 L129.753281,95.4044903 L130.002251,96.7179554 L129.148468,95.7038607 Z M122.844685,94.3484958 L121.833627,93.4916769 L123.129482,93.72 L123.639565,92.4927632 L123.808379,93.8147298 L125.115772,93.9131031 L123.938936,94.4881616 L124.244379,95.7809805 L123.342624,94.8172869 L122.213153,95.5320111 L122.844685,94.3484958 Z M117.012123,93.7558273 L115.974345,92.9372646 L117.282345,93.1121504 L117.720774,91.8642674 L117.95517,93.1655877 L119.274708,93.2220613 L118.112446,93.8414485 L118.474362,95.1227298 L117.525242,94.2033649 L116.446173,94.9533092 L117.012123,93.7558273 Z" id="Shape"></path>
            </g>
        </g>
    </g>
</svg>