<?xml version="1.0" encoding="UTF-8" standalone="no"?>
<svg width="310px" height="61px" viewBox="0 0 310 61" version="1.1" xmlns="http://www.w3.org/2000/svg" xmlns:xlink="http://www.w3.org/1999/xlink" xmlns:sketch="http://www.bohemiancoding.com/sketch/ns">
    <!-- Generator: Sketch 3.2.1 (9977) - http://www.bohemiancoding.com/sketch -->
    <title>equifax</title>
    <desc>Created with Sketch.</desc>
    <defs></defs>
    <g id="Page-1" stroke="none" stroke-width="1" fill="none" fill-rule="evenodd" sketch:type="MSPage">
        <g id="1c" sketch:type="MSLayerGroup" transform="translate(-1.000000, -276.000000)" fill="#7F8C8D">
            <g id="equifax" transform="translate(2.000000, 277.000000)" sketch:type="MSShapeGroup">
                <path d="M48.2830214,8.68910811 L50.241123,-0.48727027 L9.59853476,-0.48727027 L4.21168984,24.7518919 L-0.35886631,45.0764324 L41.4271872,45.0764324 L43.548877,35.4071081 L20.3722246,35.4071081 L22.4939144,25.5712703 L42.0798877,25.5712703 L44.2015775,16.3932432 L24.6139519,16.3932432 L26.2465294,8.68910811 L48.2830214,8.68910811 L48.2830214,8.68910811 Z" id="Shape"></path>
                <path d="M82.3952995,25.5712703 L96.5960802,25.5712703 C97.0984118,22.6086486 98.0320214,18.1886216 98.2286578,14.5896216 C98.4550374,10.3773243 96.7993262,7.27621622 93.1689893,5.24672973 C87.9672139,2.3517027 80.3033529,2.50667568 74.5612406,2.2972973 C66.6891765,2.01043243 57.3216845,3.0292973 52.3628128,9.99978378 C49.8048877,13.5954865 48.3656417,19.1662703 47.8005187,23.522 C47.1015508,28.8372432 44.4296096,37.7564324 49.261246,42.1220541 C52.8535775,45.3748378 60.8908824,46.4563514 65.5638877,46.3920541 C70.3228182,46.3244595 74.9429465,46.0128649 79.6209091,45.0747838 L91.8619358,59.9868108 L110.958797,59.9868108 L82.3952995,25.5712703 L82.3952995,25.5712703 Z M80.2736096,25.8993514 C78.7120856,32.9654595 76.5854385,38.9104865 68.358107,38.8461892 C60.0977273,38.7851892 62.8390695,29.9187568 63.625615,24.7535405 C64.7376845,17.4137568 67.5632995,9.71621622 76.0302299,10.3295135 C84.601262,10.9527027 81.5757059,20.0235676 80.2736096,25.8993514 L80.2736096,25.8993514 L80.2736096,25.8993514 Z" id="Shape"></path>
                <path d="M158.620807,4.59221622 L154.21384,24.7518919 L149.806872,45.0764324 L166.454866,45.0764324 L175.43239,4.59221622 L158.620807,4.59221622 L158.620807,4.59221622 Z" id="Shape"></path>
                <path d="M216.238567,12.6227838 L218.196668,4.59221622 L181.79746,4.59221622 L172.983524,45.0764324 L189.796759,45.0764324 L193.549374,27.7013243 L210.035433,27.7013243 L210.688134,24.7518919 L211.668011,20.1620541 L195.34554,20.1620541 L196.978118,12.6227838 L216.238567,12.6227838 L216.238567,12.6227838 Z" id="Shape"></path>
                <path d="M105.08284,4.59221622 L122.058011,4.59221622 L115.692941,33.2754054 C114.914658,36.7820811 118.193032,38.6104324 121.003775,38.8527838 C124.619241,39.1676757 127.862914,36.9007838 128.750257,33.1121892 L135.442503,4.59386486 L152.254086,4.59386486 L145.56184,34.9158108 C142.696567,42.8210811 136.05885,45.9254865 128.730428,46.7003514 C124.18631,47.1834054 119.376155,46.7745405 115.038588,46.059027 L100.023171,28.0294054 L105.08284,4.59221622 L105.08284,4.59221622 Z" id="Shape"></path>
                <path d="M253.941524,4.59221622 L275.323663,4.59221622 L281.852321,15.0825676 L292.46077,4.59221622 L308.783241,4.59221622 L287.402754,23.4395676 L301.439947,45.0764324 L280.54692,45.0764324 L273.691086,32.7824595 L261.940824,45.0764324 L236.968005,45.0764324 L235.988128,36.2248378 L218.685781,36.2248378 L212.647888,45.0764324 L200.895973,45.0764324 L229.295882,4.59221622 L249.698144,4.59221622 L253.616,37.3706486 L267.162428,24.9151081 L253.941524,4.59221622 L253.941524,4.59221622 Z M224.236214,27.5381081 L233.375674,13.7702432 L235.008251,27.5381081 L224.236214,27.5381081 L224.236214,27.5381081 Z" id="Shape"></path>
            </g>
        </g>
    </g>
</svg>