<?xml version="1.0" encoding="UTF-8" standalone="no"?>
<svg width="327px" height="60px" viewBox="0 0 327 60" version="1.1" xmlns="http://www.w3.org/2000/svg" xmlns:xlink="http://www.w3.org/1999/xlink" xmlns:sketch="http://www.bohemiancoding.com/sketch/ns">
    <!-- Generator: Sketch 3.2.1 (9977) - http://www.bohemiancoding.com/sketch -->
    <title>forrent</title>
    <desc>Created with Sketch.</desc>
    <defs></defs>
    <g id="Page-1" stroke="none" stroke-width="1" fill="none" fill-rule="evenodd" sketch:type="MSPage">
        <g id="1c" sketch:type="MSLayerGroup" transform="translate(0.000000, -28.000000)" fill="#7F8C8D">
            <g id="forrent" transform="translate(1.000000, 28.000000)" sketch:type="MSShapeGroup">
                <path d="M35.9002688,59.3664706 C32.741129,59.3664706 30.8802419,56.9064706 30.8802419,53.79 C30.8802419,50.6735294 32.741129,48.2135294 35.9002688,48.2135294 C39.0454301,48.2135294 40.9045699,50.6735294 40.9045699,53.79 C40.9045699,56.9064706 39.0454301,59.3664706 35.9002688,59.3664706 M35.9002688,58.8 C38.647043,58.8 40.2563172,56.5182353 40.2563172,53.79 C40.2563172,51.0617647 38.647043,48.78 35.9002688,48.78 C33.1395161,48.78 31.5302419,51.0617647 31.5302419,53.79 C31.5302419,56.5182353 33.1395161,58.8 35.9002688,58.8" id="Fill-1"></path>
                <path d="M43.1778226,48.4658824 L43.9903226,48.4658824 L50.649328,58.2335294 L50.6790323,58.2335294 L50.6790323,48.4658824 L51.3272849,48.4658824 L51.3272849,59.1123529 L50.5602151,59.1123529 L43.8575269,49.2705882 L43.8278226,49.2705882 L43.8278226,59.1123529 L43.1778226,59.1123529 L43.1778226,48.4658824" id="Fill-2"></path>
                <path d="M54.9879032,50.0029412 C54.9879032,50.7935294 54.7659946,51.6141176 54.0426075,51.8823529 L54.0426075,51.39 C54.4706989,51.1958824 54.5458333,50.4052941 54.5458333,50.0029412 L54.2348118,50.0029412 L54.2348118,48.4676471 L54.9879032,48.4676471 L54.9879032,50.0029412" id="Fill-3"></path>
                <path d="M64.8514785,51.5082353 C64.7780914,49.6888235 63.4186828,48.78 61.4704301,48.78 C60.2735215,48.78 58.5768817,49.2864706 58.5768817,51.0458824 C58.5768817,52.7611765 60.3766129,53.0435294 62.1641129,53.4176471 C63.9655914,53.79 65.7670699,54.2523529 65.7670699,56.37 C65.7670699,58.5758824 63.6702957,59.3664706 62.0610215,59.3664706 C59.5955645,59.3664706 57.5879032,58.3376471 57.6176075,55.5935294 L58.2658602,55.5935294 C58.1330645,57.9211765 59.9799731,58.8 62.0610215,58.8 C63.3313172,58.8 65.1170699,58.2176471 65.1170699,56.37 C65.1170699,54.5647059 63.3155914,54.2523529 61.5141129,53.88 C59.7283602,53.5058824 57.9268817,53.0735294 57.9268817,51.0458824 C57.9268817,49.0041176 59.8017473,48.2135294 61.4704301,48.2135294 C63.6702957,48.2135294 65.3983871,49.1664706 65.5014785,51.5082353 L64.8514785,51.5082353" id="Fill-4"></path>
                <path d="M73.1459677,48.4658824 L73.7977151,48.4658824 L73.7977151,58.5458824 L79.7752688,58.5458824 L79.7752688,59.1123529 L73.1459677,59.1123529 L73.1459677,48.4658824" id="Fill-5"></path>
                <path d="M88.5747312,58.5458824 L88.5747312,59.1123529 L81.4142473,59.1123529 L81.4142473,48.4676471 L88.5013441,48.4676471 L88.5013441,49.0323529 L82.0625,49.0323529 L82.0625,53.2976471 L88.1169355,53.2976471 L88.1169355,53.8641176 L82.0625,53.8641176 L82.0625,58.5458824 L88.5747312,58.5458824" id="Fill-6"></path>
                <path d="M94.4055108,48.4658824 L98.5693548,59.1123529 L97.875672,59.1123529 L96.5459677,55.6976471 L91.4962366,55.6976471 L90.1543011,59.1123529 L89.458871,59.1123529 L93.6961022,48.4658824 L94.4055108,48.4658824 L94.4055108,48.4658824 Z M96.3397849,55.1311765 L94.0805108,49.1064706 L94.0508065,49.1064706 L91.7024194,55.1311765 L96.3397849,55.1311765 L96.3397849,55.1311765 Z" id="Fill-7"></path>
                <path d="M100.206586,48.4676471 L103.662769,48.4676471 C107.426478,48.4676471 108.534274,51.0758824 108.534274,53.7741176 C108.534274,56.7864706 107.014113,59.1123529 103.633065,59.1123529 L100.206586,59.1123529 L100.206586,48.4676471 L100.206586,48.4676471 Z M100.856586,58.5458824 L103.690726,58.5458824 C105.656452,58.5458824 107.884274,57.4570588 107.884274,53.7741176 C107.884274,49.4205882 105.123522,49.0323529 103.559677,49.0323529 L100.856586,49.0323529 L100.856586,58.5458824 L100.856586,58.5458824 Z" id="Fill-8"></path>
                <path d="M110.940323,48.4676471 L111.588575,48.4676471 L111.588575,59.1141176 L110.940323,59.1141176 L110.940323,48.4676471 Z" id="Fill-9"></path>
                <path d="M114.335349,48.4658824 L115.147849,48.4658824 L121.806855,58.2335294 L121.836559,58.2335294 L121.836559,48.4658824 L122.484812,48.4658824 L122.484812,59.1123529 L121.717742,59.1123529 L115.015054,49.2705882 L114.985349,49.2705882 L114.985349,59.1123529 L114.335349,59.1123529 L114.335349,48.4658824" id="Fill-10"></path>
                <path d="M134.384005,53.8941176 L134.384005,59.1123529 L133.823118,59.1123529 L133.823118,56.8464706 L133.793414,56.8464706 C133.27621,58.3976471 131.666935,59.3664706 129.807796,59.3664706 C126.617204,59.3664706 124.84543,56.9064706 124.84543,53.85 C124.84543,50.8376471 126.646909,48.2135294 129.821774,48.2135294 C131.991935,48.2135294 133.838844,49.5405882 134.207527,51.7623529 L133.587231,51.7623529 C133.099731,49.9270588 131.756048,48.78 129.835753,48.78 C126.987634,48.78 125.49543,51.1941176 125.49543,53.85 C125.49543,56.5641176 126.942204,58.8 129.835753,58.8 C132.34664,58.8 133.92621,57.0705882 133.823118,54.4605882 L129.940591,54.4605882 L129.940591,53.8941176 L134.384005,53.8941176" id="Fill-11"></path>
                <path d="M145.883065,48.4658824 L150.046909,59.1123529 L149.353226,59.1123529 L148.023522,55.6976471 L142.97379,55.6976471 L141.631855,59.1123529 L140.936425,59.1123529 L145.173656,48.4658824 L145.883065,48.4658824 L145.883065,48.4658824 Z M147.817339,55.1311765 L145.558065,49.1064706 L145.52836,49.1064706 L143.179973,55.1311765 L147.817339,55.1311765 L147.817339,55.1311765 Z" id="Fill-12"></path>
                <path d="M151.68414,48.4658824 L156.172984,48.4658824 C157.368145,48.4658824 159.244758,48.8982353 159.244758,51.4482353 C159.244758,53.3117647 158.033871,54.3705882 155.937097,54.3705882 L152.33414,54.3705882 L152.33414,59.1123529 L151.68414,59.1123529 L151.68414,48.4658824 L151.68414,48.4658824 Z M152.33414,53.8041176 L156.040188,53.8041176 C157.944758,53.8041176 158.594758,52.5370588 158.594758,51.4323529 C158.594758,50.6417647 158.240054,49.0323529 156.129301,49.0323529 L152.33414,49.0323529 L152.33414,53.8041176 L152.33414,53.8041176 Z" id="Fill-13"></path>
                <path d="M164.322446,48.4658824 L168.48629,59.1123529 L167.792608,59.1123529 L166.462903,55.6976471 L161.413172,55.6976471 L160.071237,59.1123529 L159.375806,59.1123529 L163.613038,48.4658824 L164.322446,48.4658824 L164.322446,48.4658824 Z M166.25672,55.1311765 L163.997446,49.1064706 L163.967742,49.1064706 L161.619355,55.1311765 L166.25672,55.1311765 L166.25672,55.1311765 Z" id="Fill-14"></path>
                <path d="M170.123522,48.4658824 L174.523253,48.4658824 C176.368414,48.4658824 177.858871,49.1523529 177.858871,51.21 C177.858871,52.6411765 177.004435,53.7 175.601344,53.9382353 L175.601344,53.9682353 C177.165188,54.1464706 177.549597,55.1470588 177.652688,56.25 C177.75578,57.3529412 177.579301,58.5458824 178.007392,59.1123529 L177.284005,59.1123529 C176.885618,58.3817647 177.121505,57.1588235 177.004435,56.13 C176.869892,55.1011765 176.368414,54.2664706 174.523253,54.2664706 L170.771774,54.2664706 L170.771774,59.1123529 L170.123522,59.1123529 L170.123522,48.4658824 L170.123522,48.4658824 Z M174.523253,53.7 C176.05914,53.7 177.210618,52.9694118 177.210618,51.2541176 C177.210618,49.6447059 175.940323,49.0323529 174.523253,49.0323529 L170.771774,49.0323529 L170.771774,53.7 L174.523253,53.7 L174.523253,53.7 Z" id="Fill-15"></path>
                <path d="M179.172849,49.0323529 L179.172849,48.4658824 L187.248925,48.4658824 L187.248925,49.0323529 L183.528898,49.0323529 L183.528898,59.1123529 L182.878898,59.1123529 L182.878898,49.0323529 L179.172849,49.0323529" id="Fill-16"></path>
                <path d="M188.858199,48.4658824 L189.786022,48.4658824 L193.90793,58.3817647 L193.935887,58.3817647 L198.010618,48.4658824 L198.943683,48.4658824 L198.943683,59.1123529 L198.290188,59.1123529 L198.290188,49.2705882 L198.263978,49.2705882 L194.246909,59.1123529 L193.596909,59.1123529 L189.537903,49.2705882 L189.508199,49.2705882 L189.508199,59.1123529 L188.858199,59.1123529 L188.858199,48.4658824" id="Fill-17"></path>
                <path d="M208.847446,58.5458824 L208.847446,59.1123529 L201.686962,59.1123529 L201.686962,48.4676471 L208.774059,48.4676471 L208.774059,49.0323529 L202.335215,49.0323529 L202.335215,53.2976471 L208.389651,53.2976471 L208.389651,53.8641176 L202.335215,53.8641176 L202.335215,58.5458824 L208.847446,58.5458824" id="Fill-18"></path>
                <path d="M210.839382,48.4658824 L211.650134,48.4658824 L218.30914,58.2335294 L218.340591,58.2335294 L218.340591,48.4658824 L218.988844,48.4658824 L218.988844,59.1123529 L218.221774,59.1123529 L211.519086,49.2705882 L211.487634,49.2705882 L211.487634,59.1123529 L210.839382,59.1123529 L210.839382,48.4658824" id="Fill-19"></path>
                <path d="M220.598118,49.0323529 L220.598118,48.4658824 L228.674194,48.4658824 L228.674194,49.0323529 L224.954167,49.0323529 L224.954167,59.1123529 L224.304167,59.1123529 L224.304167,49.0323529 L220.598118,49.0323529" id="Fill-20"></path>
                <path d="M235.272043,48.4658824 L239.671774,48.4658824 C241.516935,48.4658824 243.007392,49.1523529 243.007392,51.21 C243.007392,52.6411765 242.152957,53.7 240.749866,53.9382353 L240.749866,53.9682353 C242.315457,54.1464706 242.698118,55.1470588 242.80121,56.25 C242.904301,57.3529412 242.727823,58.5458824 243.155914,59.1123529 L242.432527,59.1123529 C242.03414,58.3817647 242.270027,57.1588235 242.152957,56.13 C242.018414,55.1011765 241.516935,54.2664706 239.671774,54.2664706 L235.922043,54.2664706 L235.922043,59.1123529 L235.272043,59.1123529 L235.272043,48.4658824 L235.272043,48.4658824 Z M239.671774,53.7 C241.207661,53.7 242.35914,52.9694118 242.35914,51.2541176 C242.35914,49.6447059 241.088844,49.0323529 239.671774,49.0323529 L235.922043,49.0323529 L235.922043,53.7 L239.671774,53.7 L239.671774,53.7 Z" id="Fill-21"></path>
                <path d="M252.619355,58.5458824 L252.619355,59.1123529 L245.458871,59.1123529 L245.458871,48.4676471 L252.545968,48.4676471 L252.545968,49.0323529 L246.107124,49.0323529 L246.107124,53.2976471 L252.161559,53.2976471 L252.161559,53.8641176 L246.107124,53.8641176 L246.107124,58.5458824 L252.619355,58.5458824" id="Fill-22"></path>
                <path d="M261.492204,51.5082353 C261.41707,49.6888235 260.057661,48.78 258.111156,48.78 C256.914247,48.78 255.214113,49.2864706 255.214113,51.0458824 C255.214113,52.7611765 257.019086,53.0435294 258.804839,53.4176471 C260.606317,53.79 262.406048,54.2523529 262.406048,56.37 C262.406048,58.5758824 260.311022,59.3664706 258.7,59.3664706 C256.23629,59.3664706 254.226882,58.3376471 254.256586,55.5935294 L254.904839,55.5935294 C254.77379,57.9211765 256.618952,58.8 258.7,58.8 C259.972043,58.8 261.757796,58.2176471 261.757796,56.37 C261.757796,54.5647059 259.956317,54.2523529 258.154839,53.88 C256.367339,53.5058824 254.567608,53.0735294 254.567608,51.0458824 C254.567608,49.0041176 256.442473,48.2135294 258.111156,48.2135294 C260.311022,48.2135294 262.037366,49.1664706 262.142204,51.5082353 L261.492204,51.5082353" id="Fill-23"></path>
                <path d="M269.344624,59.3664706 C266.185484,59.3664706 264.324597,56.9064706 264.324597,53.79 C264.324597,50.6735294 266.185484,48.2135294 269.344624,48.2135294 C272.489785,48.2135294 274.350672,50.6735294 274.350672,53.79 C274.350672,56.9064706 272.489785,59.3664706 269.344624,59.3664706 M269.344624,58.8 C272.091398,58.8 273.700672,56.5182353 273.700672,53.79 C273.700672,51.0617647 272.091398,48.78 269.344624,48.78 C266.583871,48.78 264.974597,51.0617647 264.974597,53.79 C264.974597,56.5182353 266.583871,58.8 269.344624,58.8" id="Fill-24"></path>
                <path d="M277.272177,48.4658824 L277.272177,54.8488235 C277.272177,56.13 277.537769,58.8 280.579839,58.8 C283.164113,58.8 284.034274,57.2629412 284.034274,54.8488235 L284.034274,48.4658824 L284.684274,48.4658824 L284.684274,54.8488235 C284.684274,57.3829412 283.738978,59.3664706 280.579839,59.3664706 C276.830108,59.3664706 276.622177,56.2641176 276.622177,54.8488235 L276.622177,48.4658824 L277.272177,48.4658824" id="Fill-25"></path>
                <path d="M287.429301,48.4658824 L291.829032,48.4658824 C293.674194,48.4658824 295.164651,49.1523529 295.164651,51.21 C295.164651,52.6411765 294.308468,53.7 292.907124,53.9382353 L292.907124,53.9682353 C294.470968,54.1464706 294.855376,55.1470588 294.958468,56.25 C295.061559,57.3529412 294.885081,58.5458824 295.313172,59.1123529 L294.589785,59.1123529 C294.191398,58.3817647 294.427285,57.1588235 294.308468,56.13 C294.175672,55.1011765 293.674194,54.2664706 291.829032,54.2664706 L288.077554,54.2664706 L288.077554,59.1123529 L287.429301,59.1123529 L287.429301,48.4658824 L287.429301,48.4658824 Z M291.829032,53.7 C293.364919,53.7 294.516398,52.9694118 294.516398,51.2541176 C294.516398,49.6447059 293.246102,49.0323529 291.829032,49.0323529 L288.077554,49.0323529 L288.077554,53.7 L291.829032,53.7 L291.829032,53.7 Z" id="Fill-26"></path>
                <path d="M305.823253,51.6423529 C305.543683,49.8529412 303.99207,48.78 302.236022,48.78 C299.475269,48.78 297.865995,51.06 297.865995,53.79 C297.865995,56.5182353 299.475269,58.8 302.236022,58.8 C304.287366,58.8 305.882661,56.9505882 305.999731,54.9688235 L306.649731,54.9688235 C306.413844,57.5029412 304.552957,59.3664706 302.236022,59.3664706 C299.076882,59.3664706 297.215995,56.9064706 297.215995,53.79 C297.215995,50.6735294 299.076882,48.2135294 302.236022,48.2135294 C305.971774,48.2135294 306.457527,51.4941176 306.473253,51.6423529 L305.823253,51.6423529" id="Fill-27"></path>
                <path d="M316.053763,58.5458824 L316.053763,59.1123529 L308.89328,59.1123529 L308.89328,48.4676471 L315.980376,48.4676471 L315.980376,49.0323529 L309.541532,49.0323529 L309.541532,53.2976471 L315.595968,53.2976471 L315.595968,53.8641176 L309.541532,53.8641176 L309.541532,58.5458824 L316.053763,58.5458824" id="Fill-28"></path>
                <path d="M-0.279569892,0.0652941176 L29.059543,0.0652941176 L29.059543,7.85647059 L8.89731183,7.85647059 L8.89731183,17.5958824 L26.3704301,17.5958824 L26.3704301,24.7976471 L8.89731183,24.7976471 L8.89731183,42.21 L-0.279569892,42.21 L-0.279569892,0.0652941176" id="Fill-29"></path>
                <path d="M44.6630376,10.8688235 C54.1893817,10.8688235 60.3259409,17.2429412 60.3259409,26.9823529 C60.3259409,36.6635294 54.1893817,43.0376471 44.6630376,43.0376471 C35.1961022,43.0376471 29.059543,36.6635294 29.059543,26.9823529 C29.059543,17.2429412 35.1961022,10.8688235 44.6630376,10.8688235 M44.6630376,36.7217647 C50.3330645,36.7217647 52.027957,31.8229412 52.027957,26.9823529 C52.027957,22.0835294 50.3330645,17.1847059 44.6630376,17.1847059 C39.0524194,17.1847059 37.3575269,22.0835294 37.3575269,26.9823529 C37.3575269,31.8229412 39.0524194,36.7217647 44.6630376,36.7217647" id="Fill-30"></path>
                <path d="M62.9731183,11.6929412 L70.8639785,11.6929412 L70.8639785,17.3594118 L70.9810484,17.3594118 C72.4994624,13.5229412 76.5916667,10.8670588 80.6244624,10.8670588 C81.2080645,10.8670588 81.9087366,10.9852941 82.4364247,11.1617647 L82.4364247,18.9529412 C81.6745968,18.7764706 80.4479839,18.6582353 79.4555108,18.6582353 C73.3783602,18.6582353 71.2728495,23.0858824 71.2728495,28.4558824 L71.2728495,42.21 L62.9731183,42.21 L62.9731183,11.6929412" id="Fill-31"></path>
                <path d="M85.1185484,0.0652941176 L107.618683,0.0652941176 C115.100672,0.0652941176 119.83414,5.31882353 119.83414,11.6929412 C119.83414,16.6535294 117.845699,20.3717647 113.229301,22.26 L113.229301,22.3782353 C117.730376,23.5588235 119.016398,27.9847059 119.308199,32.2341176 C119.48293,34.8917647 119.425269,39.8488235 121.060753,42.21 L111.885618,42.21 C110.774328,39.5541176 110.893145,35.4811765 110.424866,32.1176471 C109.781855,27.69 108.086962,25.7417647 103.468817,25.7417647 L94.2936828,25.7417647 L94.2936828,42.21 L85.1185484,42.21 L85.1185484,0.0652941176 L85.1185484,0.0652941176 Z M94.2936828,19.1311765 L104.345968,19.1311765 C108.438172,19.1311765 110.659005,17.3611765 110.659005,13.11 C110.659005,9.03882353 108.438172,7.26705882 104.345968,7.26705882 L94.2936828,7.26705882 L94.2936828,19.1311765 L94.2936828,19.1311765 Z" id="Fill-32"></path>
                <path d="M130.711156,28.9870588 C130.943548,34.3005882 133.515591,36.72 138.133737,36.72 C141.462366,36.72 144.151478,34.6552941 144.679167,32.7652941 L151.98293,32.7652941 C149.646774,39.9670588 144.679167,43.0358824 137.840188,43.0358824 C128.313844,43.0358824 122.411425,36.4252941 122.411425,26.9805882 C122.411425,17.8323529 128.663306,10.8670588 137.840188,10.8670588 C148.126613,10.8670588 153.09422,19.6023529 152.508871,28.9870588 L130.711156,28.9870588 L130.711156,28.9870588 Z M144.20914,23.6752941 C143.450806,19.4258824 141.638844,17.1829412 137.606048,17.1829412 C132.34664,17.1829412 130.826478,21.3141176 130.711156,23.6752941 L144.20914,23.6752941 L144.20914,23.6752941 Z" id="Fill-33"></path>
                <path d="M154.852016,11.6929412 L162.741129,11.6929412 L162.741129,15.9441176 L162.917608,15.9441176 C165.021371,12.5205882 168.645296,10.8670588 172.152151,10.8670588 C180.976075,10.8670588 183.198656,15.8841176 183.198656,23.4388235 L183.198656,42.21 L174.897177,42.21 L174.897177,24.9741176 C174.897177,19.9570588 173.436425,17.4776471 169.57836,17.4776471 C165.079032,17.4776471 163.151747,20.0152941 163.151747,26.2129412 L163.151747,42.21 L154.852016,42.21 L154.852016,11.6929412" id="Fill-34"></path>
                <path d="M197.461962,11.6929412 L203.539113,11.6929412 L203.539113,17.3011765 L197.461962,17.3011765 L197.461962,32.4123529 C197.461962,35.2447059 198.160887,35.9523529 200.968817,35.9523529 C201.84422,35.9523529 202.661962,35.8941176 203.539113,35.7158824 L203.539113,42.2682353 C202.136022,42.5047059 200.325806,42.5647059 198.688575,42.5647059 C193.603898,42.5647059 189.162231,41.3841176 189.162231,35.3047059 L189.162231,17.3011765 L184.136962,17.3011765 L184.136962,11.6929412 L189.162231,11.6929412 L189.162231,2.54470588 L197.461962,2.54470588 L197.461962,11.6929412" id="Fill-35"></path>
                <path d="M258.841532,11.58 C267.548387,11.58 272.449597,18.7429412 272.449597,27.2435294 C272.449597,35.7458824 267.548387,42.9088235 258.841532,42.9088235 C250.136425,42.9088235 245.233468,35.7458824 245.233468,27.2435294 C245.233468,18.7429412 250.136425,11.58 258.841532,11.58 M258.841532,40.9870588 C266.279839,40.9870588 270.25672,34.4064706 270.25672,27.2435294 C270.25672,20.0805882 266.279839,13.5 258.841532,13.5 C251.403226,13.5 247.424597,20.0805882 247.424597,27.2435294 C247.424597,34.4064706 251.403226,40.9870588 258.841532,40.9870588" id="Fill-36"></path>
                <path d="M276.669355,12.2788235 L278.860484,12.2788235 L278.860484,18.3935294 L278.975806,18.3935294 C279.898387,14.6082353 283.819355,11.58 288.259274,11.58 C293.910081,11.58 296.5625,14.8411765 297.196774,17.9276471 L297.313844,17.9276471 C299.041935,13.8511765 301.925,11.58 306.70914,11.58 C312.07164,11.58 315.992608,14.7247059 315.992608,21.7711765 L315.992608,42.21 L313.801478,42.21 L313.801478,21.7129412 C313.801478,14.0841176 308.438978,13.5017647 306.70914,13.5017647 C301.34664,13.5017647 297.425672,17.3452941 297.425672,24.5082353 L297.425672,42.21 L295.234543,42.21 L295.234543,21.7129412 C295.234543,14.2005882 290.162097,13.5017647 288.259274,13.5017647 C284.048253,13.5017647 278.860484,16.8211765 278.860484,24.5082353 L278.860484,42.21 L276.669355,42.21 L276.669355,12.2788235" id="Fill-37"></path>
                <path d="M325.391398,11.8394118 C325.391398,14.1741176 323.525269,16.0588235 321.211828,16.0588235 C318.898387,16.0588235 317.032258,14.1741176 317.032258,11.8394118 C317.032258,9.50117647 318.898387,7.61647059 321.211828,7.61647059 C323.525269,7.61647059 325.391398,9.50117647 325.391398,11.8394118 L325.391398,11.8394118 Z M317.456855,11.8394118 C317.456855,13.9711765 319.088844,15.6864706 321.224059,15.6864706 C323.357527,15.6864706 324.966801,13.9605882 324.966801,11.8270588 C324.966801,9.67235294 323.368011,7.99058824 321.224059,7.99058824 C319.066129,7.99058824 317.456855,9.66 317.456855,11.8394118 L317.456855,11.8394118 Z M319.691667,9.34411765 L321.547312,9.34411765 C322.663844,9.34411765 323.156586,9.81882353 323.156586,10.7205882 C323.156586,11.5341176 322.586962,11.9276471 321.882796,12.0405882 L323.357527,14.3329412 L322.8875,14.3329412 L321.400538,12.03 L320.116263,12.03 L320.116263,14.3329412 L319.691667,14.3329412 L319.691667,9.34411765 L319.691667,9.34411765 Z M320.116263,11.6576471 L321.168145,11.6576471 C321.915995,11.6576471 322.730242,11.5782353 322.730242,10.71 C322.730242,9.94235294 322.073253,9.71647059 321.480914,9.71647059 L320.116263,9.71647059 L320.116263,11.6576471 L320.116263,11.6576471 Z" id="Fill-38"></path>
                <path d="M214.727151,38.5094118 C214.727151,40.4188235 213.193011,41.9664706 211.304167,41.9664706 C209.413575,41.9664706 207.881183,40.4188235 207.881183,38.5094118 C207.881183,36.6017647 209.413575,35.0541176 211.304167,35.0541176 C213.193011,35.0541176 214.727151,36.6017647 214.727151,38.5094118" id="Fill-39"></path>
                <path d="M239.638575,35.3470588 C237.938441,38.7864706 234.615054,40.9888235 230.426747,40.9888235 C222.759543,40.9888235 219.011559,35.0488235 219.011559,26.9541176 C219.011559,20.1405882 222.988441,13.5017647 230.426747,13.5017647 C235.125269,13.5017647 238.981586,15.6035294 240.134812,19.6870588 L242.33293,19.6870588 C240.994489,14.1617647 236.210349,11.5817647 230.426747,11.5817647 C221.665726,11.5817647 216.818683,18.6264706 216.818683,26.9541176 C216.818683,35.2817647 220.799059,42.9105882 230.426747,42.9105882 C235.633737,42.9105882 240.000269,40.2105882 241.978226,35.3470588 L239.638575,35.3470588" id="Fill-40"></path>
            </g>
        </g>
    </g>
</svg>