<?xml version="1.0" encoding="UTF-8" standalone="no"?>
<svg width="198px" height="184px" viewBox="0 0 198 184" version="1.1" xmlns="http://www.w3.org/2000/svg" xmlns:xlink="http://www.w3.org/1999/xlink" xmlns:sketch="http://www.bohemiancoding.com/sketch/ns">
    <!-- Generator: Sketch 3.2.1 (9977) - http://www.bohemiancoding.com/sketch -->
    <title>grizzlies</title>
    <desc>Created with Sketch.</desc>
    <defs></defs>
    <g id="Page-1" stroke="none" stroke-width="1" fill="none" fill-rule="evenodd" sketch:type="MSPage">
        <g id="1c" sketch:type="MSLayerGroup" transform="translate(-493.000000, -733.000000)" fill="#7F8C8D">
            <g id="grizzlies" transform="translate(493.000000, 733.000000)" sketch:type="MSShapeGroup">
                <path d="M184.203,44.618 C183.433,43.45 182.655,42.334 181.876,41.239 C201.353,9.312 155.396,-15.166 138.756,11.933 C118.273,8.157 101.142,15.649 98.837,16.725 C96.546,15.656 79.629,8.26 59.336,11.856 C39.246,-16.414 -2.218,12.808 16.065,40.872 C15.189,42.075 14.324,43.318 13.471,44.618 C-12.516,84.156 6.99,110.957 6.99,110.957 L10.986,106.96 C10.986,106.96 16.665,134.534 46.67,152.644 L47.749,146.696 C66.22,166.426 83.342,165.98 99.265,184 C114.009,166.925 135.411,166.925 152.085,145.614 L152.59,153.435 C183.404,138.435 185.743,105.747 185.743,105.747 L190.534,110.638 C190.534,110.638 210.186,84.156 184.203,44.618 Z M99.206,145.81 C99.206,145.81 84.799,146.029 82.67,147.359 C82.67,147.359 80.193,151.644 99.206,151.564 C117.293,151.482 114.622,148.185 114.753,147.698 C114.753,147.698 108.634,145.81 99.206,145.81 Z M146.437,25.023 C146.437,25.023 152.595,9.63 171.46,13.348 C171.46,13.348 154.144,1.95 142.09,22.554 C142.09,22.554 124.986,14.442 99.206,25.59 C99.206,25.59 74.792,17.073 56.377,21.893 C56.377,21.893 45.636,3.262 30.513,10.936 C15.39,18.608 23.279,36.361 25.913,40.963 C25.913,40.963 0.852,66.494 10.274,98.063 L15.317,91.773 C15.317,91.773 22.514,126.153 41.089,136.986 L42.204,128.535 C42.204,128.535 61.595,151.934 84.396,161.867 C86.567,162.888 98.653,168.891 99.027,171.853 L99.027,155.482 C99.027,155.482 83.203,156.799 79.029,149.497 C76.194,144.533 58.006,112.086 66.993,78.108 C66.993,78.108 58.242,76.8 56.594,62.04 C56.594,62.04 50.07,58.863 41.962,59.523 C41.962,59.523 56.465,54.969 70.057,60.233 C83.646,65.494 87.285,78.886 96.496,72.968 L99.206,35.234 L101.799,72.968 C111.008,78.886 114.65,65.494 128.238,60.233 C141.828,54.969 156.334,59.523 156.334,59.523 C156.334,59.523 150.537,55.431 141.208,53.568 C133.429,52.01 121.989,57.011 121.989,57.011 C121.989,57.011 123.57,46.306 128.761,40.599 C133.222,35.692 143.32,34.607 146.437,25.023 Z M98.691,80.849 C98.691,80.849 91.692,82.389 82.664,74.794 C77.42,70.367 67.357,63.175 63.205,64.03 C63.205,64.03 65.349,79.968 78.629,77.089 C75.051,86.048 67.625,111.153 81.022,144.328 C81.022,144.328 90.753,142.002 93.769,141.916 L99.027,141.641 L99.027,133.893 C99.027,133.274 94.69,127.472 91.36,124.619 C88.962,122.562 86.715,129.07 86.715,129.07 C72.672,111.278 98.789,113.319 98.789,113.319 C98.789,109.764 98.691,80.849 98.691,80.849 Z M111.409,129.075 C128.173,112.064 100.814,113.057 99.082,113.324 C101.892,113.48 123.1,113.599 111.409,129.075 Z M135.857,64.03 C127.778,64.804 120.739,70.916 118.181,73.241 C115.585,75.603 111.576,78.08 111.576,78.08 C111.576,78.08 114.779,78.235 117.446,77.969 C122.645,87.574 130.281,113.439 118.4,144.537 C118.4,144.537 137.681,118.361 122.548,77.606 C134.42,77.422 135.857,64.03 135.857,64.03 Z" id="Fill-3"></path>
                <path d="M130.096,65.592 C130.096,65.592 130.705,74.4 124.22,76.274 C122.847,73.604 120.354,72.075 118.91,72.635 C118.91,72.635 125.289,67.015 130.096,65.592" id="Fill-10"></path>
                <path d="M68.882,65.592 C68.882,65.592 68.273,74.4 74.757,76.274 C76.13,73.604 78.624,72.075 80.068,72.635 C80.068,72.635 73.689,67.015 68.882,65.592" id="Fill-11"></path>
                <path d="M51.097,23.996 C51.097,23.996 39.709,9.706 30.277,19.057 C30.277,19.057 37.901,18.779 41.5,23.187 C41.5,23.187 32.003,19.134 27.764,27.425 C27.764,27.425 32.436,25.03 35.11,27.794 C35.11,27.794 28.622,32.886 29.165,38.021 C29.165,38.021 40.956,26.293 51.097,23.996" id="Fill-12"></path>
            </g>
        </g>
    </g>
</svg>