<?xml version="1.0" encoding="UTF-8" standalone="no"?>
<svg width="338px" height="115px" viewBox="0 0 338 115" version="1.1" xmlns="http://www.w3.org/2000/svg" xmlns:xlink="http://www.w3.org/1999/xlink" xmlns:sketch="http://www.bohemiancoding.com/sketch/ns">
    <!-- Generator: Sketch 3.2.1 (9977) - http://www.bohemiancoding.com/sketch -->
    <title>hilton</title>
    <desc>Created with Sketch.</desc>
    <defs></defs>
    <g id="Page-1" stroke="none" stroke-width="1" fill="none" fill-rule="evenodd" sketch:type="MSPage">
        <g id="1c" sketch:type="MSLayerGroup" transform="translate(-423.000000, 0.000000)" fill="#7F8C8D">
            <g id="hilton" transform="translate(423.000000, 0.000000)" sketch:type="MSShapeGroup">
                <path d="M76.259,74.452 L76.795,74.452 L78.063,76.39 L79.316,74.452 L79.842,74.452 L79.842,77.988 L79.35,77.988 L79.35,75.283 L78.082,77.193 L78.014,77.193 L76.759,75.283 L76.759,77.988 L76.259,77.988 L76.259,74.452 Z M73.836,74.938 L72.699,74.938 L72.699,74.456 L75.477,74.456 L75.477,74.938 L74.338,74.938 L74.338,77.992 L73.836,77.992 L73.836,74.938 L73.836,74.938 Z" id="Shape"></path>
                <path d="M34.941,46.624 C11.032,46.624 2.058,69.189 2.058,69.189 L2.058,41.354 L67.845,41.354 L67.845,68.374 C67.846,68.374 58.851,46.624 34.941,46.624" id="Shape"></path>
                <path d="M34.941,31.374 C11.032,31.374 2.058,8.895 2.058,8.895 L2.058,36.073 L67.845,36.073 L67.845,8.895 C67.846,8.895 58.851,31.374 34.941,31.374" id="Shape"></path>
                <path d="M2.561,41.354 L2.561,69.189 C2.561,69.189 2.059,71.207 0.631,77.988 L0.242,77.988 L0.242,40.197" id="Shape"></path>
                <path d="M69.268,77.988 C67.846,71.499 67.345,69.666 67.345,69.666 L67.345,41.354 L69.655,40.2 L69.655,77.989" id="Shape"></path>
                <path d="M69.268,0.097 C67.846,6.624 67.345,8.186 67.345,8.186 L67.345,36.073 L69.655,37.885 L69.655,0.097" id="Shape"></path>
                <path d="M2.561,36.073 L2.561,7.437 C2.561,7.437 2.059,6.759 0.631,0.097 L0.242,0.097 L0.242,37.885" id="Shape"></path>
                <path d="M67.345,35.572 L2.561,35.572 L0.242,37.885 L69.655,37.885" id="Shape"></path>
                <path d="M0.242,40.197 L2.561,42.511 L67.348,42.511 L69.655,40.197" id="Shape"></path>
                <path d="M68.892,0.083 C67.437,6.99 59.228,29.789 34.943,29.789 C10.657,29.789 2.448,6.99 1.024,0.083 L0.62,0.083 C1.394,7.052 2.57,10.893 2.57,10.893 C2.57,10.893 11.027,32.112 34.943,32.112 C58.857,32.112 67.344,10.893 67.344,10.893 C67.344,10.893 68.49,7.053 69.263,0.083" id="Shape"></path>
                <path d="M2.571,67.18 C2.571,67.18 1.395,71.052 0.621,77.992 L1.024,77.992 C2.448,71.085 10.657,48.317 34.943,48.317 C59.228,48.317 67.437,71.085 68.892,77.992 L69.264,77.992 C68.491,71.054 67.345,67.18 67.345,67.18 C67.345,67.18 58.857,45.992 34.944,45.992 C11.028,45.99 2.571,67.18 2.571,67.18" id="Shape"></path>
                <path d="M136.158,77.395 L136.158,55.569 L106.812,55.569 L106.812,77.393 L103.404,77.393 L103.404,30.819 L106.812,30.819 L106.812,52.377 L136.158,52.377 L136.158,30.819 L139.564,30.819 L139.564,77.395 L136.158,77.395 L136.158,77.395 Z" id="Shape"></path>
                <path d="M153.643,77.395 L153.643,30.819 L157.05,30.819 L157.05,77.395 L153.643,77.395 L153.643,77.395 Z" id="Shape"></path>
                <path d="M171.129,77.395 L171.129,30.819 L174.535,30.819 L174.535,74.2 L201.459,74.2 L201.459,77.392 L171.129,77.392 L171.129,77.395 L171.129,77.395 Z" id="Shape"></path>
                <path d="M221.232,34.012 L221.232,77.392 L217.828,77.392 L217.828,34.012 L201.846,34.012 L201.846,30.819 L237.219,30.819 L237.219,34.012 L221.232,34.012 L221.232,34.012 Z" id="Shape"></path>
                <path d="M264.922,78.189 C251.037,78.189 241.93,66.947 241.93,54.236 L241.93,54.104 C241.93,41.395 251.166,30.018 265.055,30.018 C278.94,30.018 288.048,41.262 288.048,53.97 C288.113,54.038 288.113,54.038 288.048,54.104 C288.044,66.813 278.811,78.189 264.922,78.189 L264.922,78.189 Z M284.509,54.106 C284.509,42.594 276.254,33.147 264.922,33.147 C253.591,33.147 245.469,42.461 245.469,53.973 L245.469,54.106 C245.469,65.616 253.723,75.064 265.055,75.064 C276.386,75.064 284.509,65.751 284.509,54.237 L284.509,54.106 L284.509,54.106 Z" id="Shape"></path>
                <path d="M335.201,77.395 L302.908,36.009 L302.908,77.395 L299.633,77.395 L299.633,30.819 L302.846,30.819 L334.485,71.339 L334.485,30.819 L337.758,30.819 L337.758,77.395 L335.201,77.395 L335.201,77.395 Z" id="Shape"></path>
                <path d="M126.861,114.689 L125.592,114.689 L119.404,95.103 L113.217,114.689 L111.951,114.689 L104.286,91.978 L106.036,91.978 L112.673,112.047 L118.859,91.915 L120.066,91.915 L126.254,112.047 L132.895,91.98 L134.524,91.98 L126.861,114.689 L126.861,114.689 Z" id="Shape"></path>
                <path d="M147.786,114.917 C141.389,114.917 137.193,109.473 137.193,103.318 L137.193,103.255 C137.193,97.104 141.448,91.593 147.847,91.593 C154.243,91.593 158.439,97.038 158.439,103.19 C158.47,103.225 158.47,103.225 158.439,103.255 C158.439,109.407 154.184,114.917 147.786,114.917 L147.786,114.917 Z M156.809,103.256 C156.809,97.682 153.007,93.108 147.786,93.108 C142.565,93.108 138.823,97.619 138.823,103.19 L138.823,103.253 C138.823,108.825 142.625,113.4 147.846,113.4 C153.067,113.4 156.809,108.89 156.809,103.318 L156.809,103.256 L156.809,103.256 Z" id="Shape"></path>
                <path d="M179.003,114.529 L172.272,105.187 L165.362,105.187 L165.362,114.529 L163.793,114.529 L163.793,91.98 L172.666,91.98 C177.224,91.98 180.211,94.62 180.211,98.39 L180.211,98.453 C180.211,102.224 177.586,104.383 174.024,104.895 L180.998,114.528 L179.003,114.528 L179.003,114.529 L179.003,114.529 Z M178.641,98.454 C178.641,95.426 176.41,93.525 172.574,93.525 L165.362,93.525 L165.362,103.672 L172.485,103.672 C176.016,103.672 178.639,101.773 178.639,98.517 L178.639,98.454 L178.641,98.454 L178.641,98.454 Z" id="Shape"></path>
                <path d="M185.619,114.529 L185.619,91.98 L187.187,91.98 L187.187,112.982 L199.591,112.982 L199.591,114.529 L185.619,114.529 L185.619,114.529 Z" id="Shape"></path>
                <path d="M211.34,114.529 L204.305,114.529 L204.305,91.98 L211.34,91.98 C217.979,91.98 222.567,96.843 222.567,103.189 L222.567,103.254 C222.566,109.602 217.979,114.529 211.34,114.529 L211.34,114.529 Z M220.938,103.256 C220.938,97.907 217.225,93.526 211.342,93.526 L205.878,93.526 L205.878,112.983 L211.342,112.983 C217.225,112.983 220.938,108.699 220.938,103.319 L220.938,103.256 L220.938,103.256 Z" id="Shape"></path>
                <path d="M247.805,114.689 L246.535,114.689 L240.349,95.103 L234.161,114.689 L232.893,114.689 L225.225,91.978 L226.977,91.978 L233.618,112.047 L239.806,91.913 L241.013,91.913 L247.2,112.047 L253.841,91.978 L255.471,91.978 L247.805,114.689 L247.805,114.689 Z" id="Shape"></path>
                <path d="M260.341,114.529 L260.341,91.98 L261.912,91.98 L261.912,114.529 L260.341,114.529 L260.341,114.529 Z" id="Shape"></path>
                <path d="M275.436,114.529 L268.403,114.529 L268.403,91.98 L275.436,91.98 C282.075,91.98 286.663,96.843 286.663,103.189 L286.663,103.254 C286.661,109.602 282.073,114.529 275.436,114.529 L275.436,114.529 Z M285.031,103.256 C285.031,97.907 281.318,93.526 275.433,93.526 L269.97,93.526 L269.97,112.983 L275.433,112.983 C281.318,112.983 285.031,108.699 285.031,103.319 L285.031,103.256 L285.031,103.256 Z" id="Shape"></path>
                <path d="M292.011,114.529 L292.011,91.98 L307.042,91.98 L307.042,93.527 L293.58,93.527 L293.58,102.384 L305.684,102.384 L305.684,103.931 L293.58,103.931 L293.58,112.982 L307.191,112.982 L307.191,114.529 L292.011,114.529 L292.011,114.529 Z" id="Shape"></path>
            </g>
        </g>
    </g>
</svg>