<?xml version="1.0" encoding="UTF-8" standalone="no"?>
<svg width="334px" height="42px" viewBox="0 0 334 42" version="1.1" xmlns="http://www.w3.org/2000/svg" xmlns:xlink="http://www.w3.org/1999/xlink" xmlns:sketch="http://www.bohemiancoding.com/sketch/ns">
    <!-- Generator: Sketch 3.2.1 (9977) - http://www.bohemiancoding.com/sketch -->
    <title>oracle</title>
    <desc>Created with Sketch.</desc>
    <defs></defs>
    <g id="Page-1" stroke="none" stroke-width="1" fill="none" fill-rule="evenodd" sketch:type="MSPage">
        <g id="1c" sketch:type="MSLayerGroup" transform="translate(-877.000000, -804.000000)" fill="#7F8C8D">
            <g id="oracle" transform="translate(877.000000, 804.000000)" sketch:type="MSShapeGroup">
                <path d="M139.043986,27.2428152 L160.293848,27.2428152 L149.057679,9.1655 L128.435434,41.8500786 L119.049892,41.8500786 L144.133415,2.58893227 C145.224028,1.00261705 147.041624,0.0442436364 149.057679,0.0442436364 C151.007389,0.0442436364 152.825016,0.969585909 153.882598,2.52283864 L179.065245,41.8500786 L169.679677,41.8500786 L165.251184,34.5464495 L143.736759,34.5464495 L139.043986,27.2428152 L139.043986,27.2428152 Z M236.53592,34.5464495 L236.53592,0.440821136 L228.571334,0.440821136 L228.571334,37.8843193 C228.571334,38.9088125 228.96798,39.9002432 229.728025,40.6603409 C230.488018,41.4204648 231.512564,41.8500786 232.636218,41.8500786 L268.956145,41.8500786 L273.64893,34.5464495 L236.53592,34.5464495 L236.53592,34.5464495 Z M104.773118,28.432553 C112.506492,28.432553 118.785633,22.1864743 118.785633,14.4532052 C118.785633,6.71996227 112.506492,0.440821136 104.773118,0.440821136 L69.9303866,0.440821136 L69.9303866,41.8500786 L77.8918157,41.8500786 L77.8918157,7.74445545 L104.244327,7.74445545 C107.945853,7.74445545 110.920124,10.75181 110.920124,14.4532052 C110.920124,18.1545952 107.945853,21.1619811 104.244327,21.1619811 L81.7915389,21.1289186 L105.566168,41.8500786 L117.133198,41.8500786 L101.137926,28.432553 L104.773118,28.432553 L104.773118,28.432553 Z M20.9202825,41.8500786 C9.48881727,41.8500786 0.212154091,32.5966141 0.212154091,21.1619811 C0.212154091,9.72732205 9.48881727,0.440821136 20.9202825,0.440821136 L44.989035,0.440821136 C56.423668,0.440821136 65.6937291,9.72732205 65.6937291,21.1619811 C65.6937291,32.5966141 56.423668,41.8500786 44.989035,41.8500786 L20.9202825,41.8500786 L20.9202825,41.8500786 Z M44.453642,34.5464495 C51.8598564,34.5464495 57.8580839,28.564735 57.8580839,21.1619811 C57.8580839,13.7591959 51.8598564,7.74445545 44.453642,7.74445545 L21.4522411,7.74445545 C14.0494611,7.74445545 8.04779409,13.7591959 8.04779409,21.1619811 C8.04779409,28.564735 14.0494611,34.5464495 21.4522411,34.5464495 L44.453642,34.5464495 L44.453642,34.5464495 Z M195.688391,41.8500786 C184.253732,41.8500786 174.967325,32.5966141 174.967325,21.1619811 C174.967325,9.72732205 184.253732,0.440821136 195.688391,0.440821136 L224.274986,0.440821136 L219.615239,7.74445545 L196.217182,7.74445545 C188.81437,7.74445545 182.799766,13.7591959 182.799766,21.1619811 C182.799766,28.564735 188.81437,34.5464495 196.217182,34.5464495 L224.93587,34.5464495 L220.243139,41.8500786 L195.688391,41.8500786 L195.688391,41.8500786 Z M293.081211,34.5464495 C286.967236,34.5464495 281.778698,30.4484768 280.192325,24.7972514 L314.231959,24.7972514 L318.924743,17.4936223 L280.192325,17.4936223 C281.778698,11.8754541 286.967236,7.74445545 293.081211,7.74445545 L316.446232,7.74445545 L321.172052,0.440821136 L292.55242,0.440821136 C281.117761,0.440821136 271.831355,9.72732205 271.831355,21.1619811 C271.831355,32.5966141 281.117761,41.8500786 292.55242,41.8500786 L317.107168,41.8500786 L321.7999,34.5464495 L293.081211,34.5464495 L293.081211,34.5464495 Z" id="path16197"></path>
                <path d="M325.435364,4.83622045 C325.435364,2.82026523 327.054511,1.20091886 329.070566,1.20091886 C331.119657,1.20091886 332.738805,2.82026523 332.738805,4.83622045 C332.738805,6.88517545 331.119657,8.50455318 329.070566,8.50455318 C327.054511,8.50455318 325.435364,6.88517545 325.435364,4.83622045 L325.435364,4.83622045 Z M329.070566,9.52904114 C331.648186,9.52904114 333.730314,7.4469975 333.730314,4.86925159 C333.730314,2.29150568 331.648186,0.209488182 329.070566,0.209488182 C326.52572,0.209488182 324.443855,2.29150568 324.443855,4.86925159 C324.443855,7.4469975 326.52572,9.52904114 329.070566,9.52904114 L329.070566,9.52904114 Z M328.640884,2.09323 C329.367893,2.09323 329.66543,2.12626114 329.996002,2.25844318 C330.92123,2.55590114 331.020286,3.38208727 331.020286,3.71257636 C331.020286,3.77867 331.020286,3.94390932 330.954214,4.142185 C330.92123,4.34049205 330.789084,4.73706955 330.326366,5.03449614 C330.260293,5.06755341 330.227257,5.10058977 330.095111,5.16667818 L331.284839,7.31481545 L330.128148,7.31481545 L329.070566,5.33192273 L328.343609,5.33192273 L328.343609,7.31481545 L327.319064,7.31481545 L327.319064,2.09323 L328.640884,2.09323 L328.640884,2.09323 Z M329.004493,4.47267409 C329.334857,4.43964295 329.66543,4.43964295 329.863648,4.142185 C329.962705,4.01000295 329.996002,3.87782091 329.996002,3.67951386 C329.996002,3.41514977 329.830611,3.18381159 329.599357,3.05160341 C329.367893,2.95247864 329.136639,2.95247864 328.640884,2.95247864 L328.343609,2.95247864 L328.343609,4.47267409 L329.004493,4.47267409 L329.004493,4.47267409 Z" id="path16199"></path>
            </g>
        </g>
    </g>
</svg>