<?xml version="1.0" encoding="UTF-8" standalone="no"?>
<svg width="370px" height="101px" viewBox="0 0 370 101" version="1.1" xmlns="http://www.w3.org/2000/svg" xmlns:xlink="http://www.w3.org/1999/xlink" xmlns:sketch="http://www.bohemiancoding.com/sketch/ns">
    <!-- Generator: Sketch 3.2.1 (9977) - http://www.bohemiancoding.com/sketch -->
    <title>sonos</title>
    <desc>Created with Sketch.</desc>
    <defs>
        <path id="path-1" d="M0,0.0268934911 L369.975096,0.0268934911 L369.975096,100.964142 L0,100.964142"></path>
        <path id="path-3" d="M0,0.0268934911 L369.975096,0.0268934911 L369.975096,100.964142 L0,100.964142 L0,0.0268934911 Z"></path>
    </defs>
    <g id="Page-1" stroke="none" stroke-width="1" fill="none" fill-rule="evenodd" sketch:type="MSPage">
        <g id="1c" sketch:type="MSLayerGroup" transform="translate(-858.000000, -22.000000)">
            <g id="sonos" transform="translate(858.000000, 22.000000)">
                <path d="M157.688782,23.6142781 L157.688782,63.7871775 L148.403205,63.7871775 L148.403205,0.928721893 L189.956458,42.8801775 L189.956458,2.49272781 L199.247372,2.49272781 L199.247372,65.5800769 L157.688782,23.6142781" id="Fill-1" fill="#7F8C8D" sketch:type="MSShapeGroup"></path>
                <path d="M253.946298,57.0321302 C241.060929,57.0321302 230.569295,46.3613905 230.569295,33.2517101 C230.569295,20.1396391 241.060929,9.47188757 253.946298,9.47188757 C266.837003,9.47188757 277.315593,20.1396391 277.315593,33.2517101 C277.315593,46.3613905 266.837003,57.0321302 253.946298,57.0321302 L253.946298,57.0321302 Z M253.946298,0.0268934911 C235.767083,0.0268934911 220.9825,14.9252899 220.9825,33.2517101 C220.9825,51.5703609 235.767083,66.4669645 253.946298,66.4669645 C272.11899,66.4669645 286.910689,51.5703609 286.910689,33.2517101 C286.910689,14.9252899 272.11899,0.0268934911 253.946298,0.0268934911 L253.946298,0.0268934911 Z" id="Fill-2" fill="#7F8C8D" sketch:type="MSShapeGroup"></path>
                <path d="M93.6734455,57.0321302 C80.7827404,57.0321302 70.3047436,46.3613905 70.3047436,33.2517101 C70.3047436,20.1396391 80.7827404,9.47188757 93.6734455,9.47188757 C106.559407,9.47188757 117.048077,20.1396391 117.048077,33.2517101 C117.048077,46.3613905 106.559407,57.0321302 93.6734455,57.0321302 L93.6734455,57.0321302 Z M93.6734455,0.0268934911 C75.4948237,0.0268934911 60.7096474,14.9252899 60.7096474,33.2517101 C60.7096474,51.5703609 75.4948237,66.4669645 93.6734455,66.4669645 C111.856218,66.4669645 126.636058,51.5703609 126.636058,33.2517101 C126.636058,14.9252899 111.856218,0.0268934911 93.6734455,0.0268934911 L93.6734455,0.0268934911 Z" id="Fill-3" fill="#7F8C8D" sketch:type="MSShapeGroup"></path>
                <path d="M20.2758814,37.9192249 L20.2379327,37.9030888 C14.0321314,35.9171538 9.87793269,33.9599053 6.74775641,31.5484556 C2.27336538,28.1126627 0,23.7296213 0,18.5224438 C0,13.6457574 2.25024038,8.89397633 6.17081731,5.45818343 C10.1767788,1.95306509 15.6971314,0.0268934911 21.7090385,0.0268934911 C34.2925962,0.0268934911 41.4844712,8.47742604 41.7862821,8.84018935 L34.1508814,14.0395976 C32.3821154,12.7074734 27.7357692,9.71811243 21.7090385,9.71811243 C14.1388622,9.71811243 9.61407051,14.193787 9.61407051,18.5224438 C9.61407051,21.5416864 11.2577244,24.8621361 23.1463462,28.6756331 L23.1914103,28.6828047 C29.3817949,30.6633609 33.5508173,32.6271834 36.6780288,35.0308639 C41.1559776,38.474426 43.4263782,42.8568698 43.4263782,48.0640473 C43.4263782,52.9407337 41.1755449,57.7008817 37.2466667,61.1289053 C33.2495994,64.6262544 27.7316186,66.552426 21.7125962,66.552426 C9.13259615,66.552426 1.94072115,58.1102604 1.63950321,57.7468994 L9.28142628,52.5474911 C11.0472276,53.8808107 15.6941667,56.869574 21.7125962,56.869574 C29.2863301,56.869574 33.8140865,52.4016686 33.8140865,48.0640473 C33.8140865,45.0454024 32.1757692,41.7249527 20.2758814,37.9192249" id="Fill-4" fill="#7F8C8D" sketch:type="MSShapeGroup"></path>
                <path d="M324.475769,37.9192249 L324.434263,37.9030888 C318.233205,35.9171538 314.074263,33.9599053 310.950016,31.5484556 C306.47859,28.1126627 304.195737,23.7296213 304.195737,18.5224438 C304.195737,13.6457574 306.451907,8.89397633 310.374263,5.45818343 C314.367772,1.95306509 319.881603,0.0268934911 325.910112,0.0268934911 C338.494263,0.0268934911 345.689696,8.47742604 345.995064,8.84018935 L338.349583,14.0395976 C336.584968,12.7074734 331.938029,9.71811243 325.910112,9.71811243 C318.334599,9.71811243 313.808029,14.193787 313.808029,18.5224438 C313.808029,21.5416864 315.452869,24.8621361 327.350978,28.6756331 L327.396635,28.6828047 C333.594728,30.6633609 337.749519,32.6271834 340.880881,35.0308639 C345.347564,38.474426 347.622708,42.8568698 347.622708,48.0640473 C347.622708,52.9407337 345.37484,57.7008817 341.456635,61.1289053 C337.453045,64.6262544 331.932099,66.552426 325.910112,66.552426 C313.329519,66.552426 306.142981,58.1102604 305.838798,57.7468994 L313.476571,52.5474911 C315.248894,53.8808107 319.881603,56.869574 325.910112,56.869574 C333.492147,56.869574 338.006266,52.4016686 338.006266,48.0640473 C338.006266,45.0454024 336.369728,41.7249527 324.475769,37.9192249" id="Fill-5" fill="#7F8C8D" sketch:type="MSShapeGroup"></path>
                <path d="M14.2301763,84.6302308 C14.2301763,84.9302426 14.0777885,85.077858 13.8245994,85.077858 L10.1987179,85.077858 C9.96983974,85.077858 9.84769231,85.1710888 9.84769231,85.3701006 L9.82397436,100.176462 C9.82397436,100.43942 9.67929487,100.584047 9.41958333,100.584047 L7.42134615,100.584047 C7.11182692,100.584047 6.95469551,100.460935 6.95469551,100.198574 L6.98434295,85.3940059 C6.98434295,85.1932012 6.95469551,85.077858 6.63331731,85.077858 L3.16041667,85.077858 C2.87342949,85.077858 2.72815705,84.9302426 2.72815705,84.6302308 L2.72815705,82.9741893 C2.72815705,82.7136213 2.87342949,82.5588343 3.16041667,82.5588343 L13.8245994,82.5588343 C14.0777885,82.5588343 14.2301763,82.6837396 14.2301763,82.9443077 L14.2301763,84.6302308" id="Fill-6" fill="#7F8C8D" sketch:type="MSShapeGroup"></path>
                <path d="M27.6930769,82.9443077 C27.6930769,82.6837396 27.8460577,82.5588343 28.1093269,82.5588343 L30.1075641,82.5588343 C30.421234,82.5588343 30.5706571,82.6837396 30.5706571,82.9221953 L30.5706571,100.176462 C30.5706571,100.43942 30.421234,100.584047 30.1354327,100.584047 L28.1371955,100.584047 C27.8460577,100.584047 27.6930769,100.460935 27.6930769,100.198574 L27.6930769,92.9253787 C27.6930769,92.6731775 27.5863462,92.5494675 27.3260417,92.5494675 L21.8471955,92.5494675 C21.5335256,92.5494675 21.4641506,92.6970828 21.4641506,92.9253787 L21.4641506,100.176462 C21.4641506,100.43942 21.3224359,100.584047 21.0591667,100.584047 L19.0567788,100.584047 C18.743109,100.584047 18.6019872,100.460935 18.6019872,100.198574 L18.6019872,82.9443077 C18.6019872,82.6837396 18.743109,82.5588343 19.0336538,82.5588343 L21.0401923,82.5588343 C21.3224359,82.5588343 21.4641506,82.6837396 21.4641506,82.9221953 L21.4641506,89.6706686 C21.4641506,89.9312367 21.5833333,90.0400059 21.7967949,90.0400059 L27.3527244,90.0400059 C27.5863462,90.0400059 27.6930769,89.9312367 27.6930769,89.6706686 L27.6930769,82.9443077" id="Fill-7" fill="#7F8C8D" sketch:type="MSShapeGroup"></path>
                <path d="M46.4290705,98.3052722 C46.6810737,98.3052722 46.8233814,98.450497 46.8233814,98.7116627 L46.8233814,100.407746 C46.8233814,100.70716 46.6810737,100.852982 46.4290705,100.852982 L36.803734,100.852982 C36.5208974,100.852982 36.3673237,100.70716 36.3673237,100.43942 L36.3673237,83.2347574 C36.3673237,82.9741893 36.5208974,82.8211953 36.803734,82.8211953 L46.2802404,82.8211953 C46.5132692,82.8211953 46.7160577,82.9221953 46.7160577,83.2347574 L46.7160577,84.9009586 C46.7160577,85.1932012 46.5743429,85.3318521 46.3116667,85.3318521 L39.5544231,85.3318521 C39.3326603,85.3318521 39.2069551,85.4244852 39.2069551,85.6324615 L39.2069551,89.8631065 C39.2069551,90.1302485 39.3326603,90.2473846 39.5544231,90.2473846 L45.1233974,90.2473846 C45.382516,90.2473846 45.5271955,90.3944024 45.5271955,90.686645 L45.5271955,92.3504556 C45.5271955,92.6128166 45.4163141,92.7646154 45.1524519,92.7646154 L39.5544231,92.7646154 C39.3326603,92.7646154 39.2069551,92.8733846 39.2069551,93.1028757 L39.2069551,97.9562544 C39.2069551,98.1887337 39.3326603,98.3052722 39.5923718,98.3052722 L46.4290705,98.3052722" id="Fill-8" fill="#7F8C8D" sketch:type="MSShapeGroup"></path>
                <path d="M74.6652885,100.530858 C74.612516,100.731663 74.4287019,100.852982 74.1719551,100.852982 L71.9412821,100.852982 C71.7082532,100.852982 71.5392628,100.792621 71.4485417,100.554166 C70.7832532,97.4040414 70.1416827,94.2455503 69.4532692,91.0864615 L68.8763301,88.1431183 C68.8763301,88.1216036 68.8763301,88.1216036 68.8377885,88.1216036 C68.8152564,88.1216036 68.7802724,88.1216036 68.7802724,88.1431183 C68.5816346,89.1059053 68.4019712,90.1302485 68.207484,91.155787 C67.5961538,94.3077041 66.8739423,97.4040414 66.2590545,100.554166 C66.1707051,100.751385 66.0023077,100.852982 65.7348878,100.852982 L63.5380128,100.852982 C63.281859,100.852982 63.1318429,100.815331 63.0440865,100.584047 L59.0778526,83.3202189 C59.0778526,83.0913254 59.0482051,82.8211953 59.4828365,82.8211953 L61.628125,82.8211953 C61.9441667,82.8211953 62.0242147,82.9980947 62.0663141,83.2347574 C62.7238942,86.278503 63.281859,89.3144793 63.9465545,92.3504556 L64.646234,96.1167396 C64.669359,96.1466213 64.6960417,96.1723195 64.7262821,96.1723195 C64.7837981,96.1723195 64.8140385,96.1466213 64.8140385,96.1167396 C65.0126763,94.9232663 65.2806891,93.6287929 65.4745833,92.4723728 L67.420641,83.1212071 C67.4473237,82.9741893 67.5386378,82.8211953 67.9098237,82.8211953 L69.7888782,82.8211953 C70.0533333,82.8211953 70.2057212,82.9443077 70.2596795,83.1749941 L72.2851923,92.4723728 L73.0145192,96.1167396 C73.0145192,96.1723195 73.0412019,96.2022012 73.0720353,96.2022012 C73.156234,96.2022012 73.1935897,96.1723195 73.1935897,96.1167396 C73.4195032,94.8623077 73.6489744,93.6287929 73.8559135,92.3809349 L75.6478045,83.1749941 C75.7088782,82.9443077 75.85,82.8211953 76.1103045,82.8211953 L78.1120994,82.8211953 C78.5479167,82.8211953 78.6356731,83.0584556 78.5479167,83.3757988 L74.6652885,100.530858" id="Fill-9" fill="#7F8C8D" sketch:type="MSShapeGroup"></path>
                <path d="M83.8868269,100.852982 C83.5921314,100.852982 83.4545673,100.731663 83.4545673,100.460935 L83.4545673,83.2144379 C83.4545673,82.9443077 83.5921314,82.8211953 83.8868269,82.8211953 L85.9158974,82.8211953 C86.2022917,82.8211953 86.3481571,82.9443077 86.3481571,83.2144379 L86.3481571,100.43942 C86.3481571,100.70716 86.2022917,100.852982 85.9158974,100.852982 L83.8868269,100.852982" id="Fill-10" fill="#7F8C8D" sketch:type="MSShapeGroup"></path>
                <path d="M98.5219872,91.1778994 C98.720625,91.1778994 98.8973237,91.1259053 99.0420032,91.0099645 C100.055353,90.2772663 100.578333,89.0126746 100.578333,88.1986982 C100.578333,86.6801124 99.8833974,85.3318521 97.7428526,85.3318521 L95.3965545,85.3318521 C95.1558173,85.3318521 95.0407853,85.4537692 95.0407853,85.6623432 L95.0407853,90.8241006 C95.0407853,91.0625562 95.1558173,91.1778994 95.3663141,91.1778994 L98.5219872,91.1778994 L98.5219872,91.1778994 Z M98.0333974,82.8211953 C101.628446,82.8211953 103.474888,84.7868107 103.474888,87.9739882 C103.474888,90.0149053 102.175737,91.8574083 100.868878,93.0132308 C100.781122,93.1028757 100.753846,93.2289763 100.807804,93.3431243 C100.807804,93.4064734 101.628446,95.1545503 103.999054,100.198574 C104.204808,100.638432 103.941538,100.852982 103.627869,100.852982 L101.766603,100.852982 C101.07226,100.852982 100.952484,100.61632 100.753846,100.230249 L97.945641,93.9276095 C97.8566987,93.7758107 97.8003686,93.6676391 97.5329487,93.6676391 L95.3087981,93.6676391 C95.1558173,93.6676391 95.0722115,93.7507101 95.0722115,93.9533077 L95.0722115,100.43942 C95.0722115,100.70716 94.9340545,100.852982 94.6126763,100.852982 L92.6417147,100.852982 C92.3470192,100.852982 92.2064904,100.731663 92.2064904,100.460935 L92.2064904,83.2347574 C92.2064904,82.9741893 92.3470192,82.8211953 92.6073237,82.8211953 L98.0333974,82.8211953 L98.0333974,82.8211953 Z" id="Fill-11" fill="#7F8C8D" sketch:type="MSShapeGroup"></path>
                <path d="M118.943734,98.3052722 C119.204631,98.3052722 119.344567,98.450497 119.344567,98.7116627 L119.344567,100.407746 C119.344567,100.70716 119.204631,100.852982 118.943734,100.852982 L109.325513,100.852982 C109.02726,100.852982 108.889696,100.70716 108.889696,100.43942 L108.889696,83.2347574 C108.889696,82.9741893 109.02726,82.8211953 109.325513,82.8211953 L118.79016,82.8211953 C119.032083,82.8211953 119.223013,82.9221953 119.223013,83.2347574 L119.223013,84.9009586 C119.223013,85.1932012 119.089006,85.3318521 118.829888,85.3318521 L112.076795,85.3318521 C111.843173,85.3318521 111.732885,85.4244852 111.732885,85.6324615 L111.732885,89.8631065 C111.732885,90.1302485 111.843173,90.2473846 112.076795,90.2473846 L117.637468,90.2473846 C117.900144,90.2473846 118.053718,90.3944024 118.053718,90.686645 L118.053718,92.3504556 C118.053718,92.6128166 117.930978,92.7646154 117.666522,92.7646154 L112.076795,92.7646154 C111.843173,92.7646154 111.732885,92.8733846 111.732885,93.1028757 L111.732885,97.9562544 C111.732885,98.1887337 111.843173,98.3052722 112.09992,98.3052722 L118.943734,98.3052722" id="Fill-12" fill="#7F8C8D" sketch:type="MSShapeGroup"></path>
                <path d="M134.377596,98.3052722 C134.637901,98.3052722 134.78258,98.450497 134.78258,98.7116627 L134.78258,100.407746 C134.78258,100.70716 134.664583,100.852982 134.404279,100.852982 L124.962163,100.852982 C124.671026,100.852982 124.526939,100.70716 124.526939,100.43942 L124.526939,83.2144379 C124.526939,82.9443077 124.671026,82.8211953 124.936074,82.8211953 L126.961587,82.8211953 C127.224856,82.8211953 127.368349,82.9443077 127.368349,83.1749941 L127.368349,97.9562544 C127.368349,98.1887337 127.368349,98.3052722 127.679054,98.3052722 L134.377596,98.3052722" id="Fill-13" fill="#7F8C8D" sketch:type="MSShapeGroup"></path>
                <g id="Group-18">
                    <mask id="mask-2" sketch:name="Clip 15" fill="white">
                        <use xlink:href="#path-1"></use>
                    </mask>
                    <g id="Clip-15"></g>
                    <path d="M148.876971,98.3052722 C149.14024,98.3052722 149.292628,98.450497 149.292628,98.7116627 L149.292628,100.407746 C149.292628,100.70716 149.14024,100.852982 148.876971,100.852982 L139.261715,100.852982 C138.970577,100.852982 138.830641,100.70716 138.830641,100.43942 L138.830641,83.2347574 C138.830641,82.9741893 138.970577,82.8211953 139.261715,82.8211953 L148.731106,82.8211953 C148.967692,82.8211953 149.169888,82.9221953 149.169888,83.2347574 L149.169888,84.9009586 C149.169888,85.1932012 149.024615,85.3318521 148.76609,85.3318521 L142.014183,85.3318521 C141.78649,85.3318521 141.665529,85.4244852 141.665529,85.6324615 L141.665529,89.8631065 C141.665529,90.1302485 141.78649,90.2473846 142.014183,90.2473846 L147.580785,90.2473846 C147.837532,90.2473846 147.983397,90.3944024 147.983397,90.686645 L147.983397,92.3504556 C147.983397,92.6128166 147.871923,92.7646154 147.611619,92.7646154 L142.014183,92.7646154 C141.78649,92.7646154 141.665529,92.8733846 141.665529,93.1028757 L141.665529,97.9562544 C141.665529,98.1887337 141.78649,98.3052722 142.048574,98.3052722 L148.876971,98.3052722" id="Fill-14" fill="#7F8C8D" sketch:type="MSShapeGroup" mask="url(#mask-2)"></path>
                    <path d="M159.040705,101 C156.847388,101 154.727003,100.267899 153.485369,98.7744142 C153.222099,98.5048817 153.194824,98.3351538 153.507308,97.9873314 L154.609599,96.8488402 C154.933942,96.5858817 155.075657,96.6713432 155.391699,96.9952604 C156.350497,97.9269704 157.74274,98.4827692 158.992083,98.4827692 C161.162276,98.4827692 162.349359,97.4871124 162.349359,95.8543787 C162.349359,94.1051065 160.609054,93.4064734 158.785144,92.789716 C156.524231,92.0008402 153.836394,90.8545799 153.836394,87.6506686 C153.836394,84.483213 156.235465,82.5982781 159.274327,82.5982781 C160.92984,82.5982781 162.699199,82.9221953 164.230785,83.9985325 C164.608494,84.2602959 164.49109,84.4628935 164.29008,84.7868107 L163.567276,86.0400473 C163.360337,86.3645621 163.101811,86.3042012 162.783397,86.1571834 C161.537019,85.4854438 160.494022,85.0999704 159.487788,85.0999704 C157.976362,85.0999704 156.668317,85.7478047 156.668317,87.6739763 C156.668317,89.1692544 158.466731,89.7842189 159.890401,90.3226864 C162.437115,91.2633609 165.193734,92.2590178 165.193734,95.7701124 C165.193734,99.0433491 162.576458,101 159.040705,101" id="Fill-16" fill="#7F8C8D" sketch:type="MSShapeGroup" mask="url(#mask-2)"></path>
                    <path d="M174.816699,101 C172.619231,101 170.502997,100.267899 169.256026,98.7744142 C168.9975,98.5048817 168.96133,98.3351538 169.287452,97.9873314 L170.386779,96.8488402 C170.707564,96.5858817 170.845721,96.6713432 171.172436,96.9952604 C172.122933,97.9269704 173.512804,98.4827692 174.76274,98.4827692 C176.928189,98.4827692 178.129503,97.4871124 178.129503,95.8543787 C178.129503,94.1051065 176.382676,93.4064734 174.548093,92.789716 C172.297853,92.0008402 169.602901,90.8545799 169.602901,87.6506686 C169.602901,84.483213 172.011458,82.5982781 175.055657,82.5982781 C176.704054,82.5982781 178.481715,82.9221953 180.009744,83.9985325 C180.387452,84.2602959 180.277756,84.4628935 180.072003,84.7868107 L179.344455,86.0400473 C179.139295,86.3645621 178.891442,86.3042012 178.557612,86.1571834 C177.311234,85.4854438 176.268237,85.0999704 175.250737,85.0999704 C173.74524,85.0999704 172.447276,85.7478047 172.447276,87.6739763 C172.447276,89.1692544 174.236202,89.7842189 175.666394,90.3226864 C178.212516,91.2633609 180.969135,92.2590178 180.969135,95.7701124 C180.969135,99.0433491 178.358381,101 174.816699,101" id="Fill-17" fill="#7F8C8D" sketch:type="MSShapeGroup" mask="url(#mask-2)"></path>
                </g>
                <path d="M204.547147,83.2144379 C204.547147,82.9443077 204.695978,82.8211953 204.953317,82.8211953 L206.952147,82.8211953 C207.278269,82.8211953 207.414647,82.9443077 207.414647,83.1749941 L207.414647,100.43942 C207.414647,100.70716 207.278269,100.852982 206.981795,100.852982 L204.982965,100.852982 C204.695978,100.852982 204.547147,100.731663 204.547147,100.460935 L204.547147,93.1978994 C204.547147,92.9253787 204.43508,92.8201953 204.174776,92.8201953 L198.696522,92.8201953 C198.378702,92.8201953 198.314663,92.967213 198.314663,93.1978994 L198.314663,100.43942 C198.314663,100.70716 198.172949,100.852982 197.910865,100.852982 L195.910256,100.852982 C195.585913,100.852982 195.446571,100.731663 195.446571,100.460935 L195.446571,83.2144379 C195.446571,82.9443077 195.585913,82.8211953 195.880609,82.8211953 L197.884183,82.8211953 C198.172949,82.8211953 198.314663,82.9443077 198.314663,83.1749941 L198.314663,89.9312367 C198.314663,90.1852308 198.430288,90.3029645 198.638413,90.3029645 L204.202051,90.3029645 C204.43508,90.3029645 204.547147,90.1852308 204.547147,89.9312367 L204.547147,83.2144379" id="Fill-19" fill="#7F8C8D" sketch:type="MSShapeGroup"></path>
                <path d="M216.024856,100.499183 C216.024856,100.554166 216.024856,100.61632 216.001138,100.669509 C215.963782,100.792621 215.849343,100.852982 215.673237,100.852982 L213.654247,100.852982 C213.380897,100.852982 213.265865,100.731663 213.265865,100.499183 L213.265865,88.5734142 C213.265865,88.3134438 213.380897,88.1986982 213.622821,88.1986982 L215.651298,88.1986982 C215.912788,88.1986982 216.024856,88.3134438 216.024856,88.5734142 L216.024856,100.499183 L216.024856,100.499183 Z M214.695465,85.8410355 C213.762163,85.8410355 213.007933,85.1406095 213.007933,84.2065089 C213.007933,83.2981065 213.762163,82.5588343 214.661667,82.5588343 C215.585481,82.5588343 216.369359,83.2981065 216.369359,84.2065089 C216.369359,85.0999704 215.585481,85.8410355 214.695465,85.8410355 L214.695465,85.8410355 Z" id="Fill-20" fill="#7F8C8D" sketch:type="MSShapeGroup"></path>
                <path d="M224.745946,100.407746 C224.745946,100.70716 224.601859,100.852982 224.313093,100.852982 L222.314263,100.852982 C222.017788,100.852982 221.884375,100.70716 221.884375,100.43942 L221.884375,83.2347574 C221.884375,82.9741893 222.017788,82.8211953 222.314263,82.8211953 L231.557147,82.8211953 C231.811522,82.8211953 231.956795,82.9443077 231.956795,83.2144379 L231.956795,84.9009586 C231.956795,85.1932012 231.811522,85.3318521 231.557147,85.3318521 L225.064359,85.3318521 C224.833702,85.3318521 224.722228,85.4244852 224.722228,85.6324615 L224.722228,90.0149053 C224.722228,90.217503 224.833702,90.3226864 225.037676,90.3226864 L230.515929,90.3226864 C230.773269,90.3226864 230.884151,90.4798639 230.884151,90.7703136 L230.884151,92.4723728 C230.884151,92.7263669 230.773269,92.8733846 230.515929,92.8733846 L225.064359,92.8733846 C224.861571,92.8733846 224.745946,92.9893254 224.745946,93.2594556 L224.745946,100.407746" id="Fill-21" fill="#7F8C8D" sketch:type="MSShapeGroup"></path>
                <g id="Group-27">
                    <mask id="mask-4" sketch:name="Clip 23" fill="white">
                        <use xlink:href="#path-3"></use>
                    </mask>
                    <g id="Clip-23"></g>
                    <path d="M238.818397,100.499183 C238.818397,100.554166 238.818397,100.61632 238.795272,100.669509 C238.759103,100.792621 238.642292,100.852982 238.463814,100.852982 L236.438301,100.852982 C236.180962,100.852982 236.067708,100.731663 236.067708,100.499183 L236.067708,88.5734142 C236.067708,88.3134438 236.180962,88.1986982 236.408654,88.1986982 L238.434167,88.1986982 C238.707516,88.1986982 238.818397,88.3134438 238.818397,88.5734142 L238.818397,100.499183 L238.818397,100.499183 Z M237.48367,85.8410355 C236.555112,85.8410355 235.806218,85.1406095 235.806218,84.2065089 C235.806218,83.2981065 236.555112,82.5588343 237.455801,82.5588343 C238.391474,82.5588343 239.165272,83.2981065 239.165272,84.2065089 C239.165272,85.0999704 238.391474,85.8410355 237.48367,85.8410355 L237.48367,85.8410355 Z" id="Fill-22" fill="#7F8C8D" sketch:type="MSShapeGroup" mask="url(#mask-4)"></path>
                    <path d="M258.340641,101 C256.125978,101 254.021603,100.267899 252.774038,98.7744142 C252.513141,98.5048817 252.483494,98.3351538 252.806651,97.9873314 L253.901234,96.8488402 C254.224391,96.5858817 254.366699,96.6713432 254.691635,96.9952604 C255.637981,97.9269704 257.036747,98.4827692 258.281939,98.4827692 C260.456875,98.4827692 261.640401,97.4871124 261.640401,95.8543787 C261.640401,94.1051065 259.903654,93.4064734 258.076779,92.789716 C255.814087,92.0008402 253.117949,90.8545799 253.117949,87.6506686 C253.117949,84.483213 255.524135,82.5982781 258.564183,82.5982781 C260.22266,82.5982781 261.987869,82.9221953 263.525385,83.9985325 C263.900128,84.2602959 263.782724,84.4628935 263.587644,84.7868107 L262.860096,86.0400473 C262.655529,86.3645621 262.394631,86.3042012 262.073253,86.1571834 C260.834583,85.4854438 259.781506,85.0999704 258.776458,85.0999704 C257.261474,85.0999704 255.962917,85.7478047 255.962917,87.6739763 C255.962917,89.1692544 257.755401,89.7842189 259.185593,90.3226864 C261.722821,91.2633609 264.481218,92.2590178 264.481218,95.7701124 C264.481218,99.0433491 261.870465,101 258.340641,101" id="Fill-24" fill="#7F8C8D" sketch:type="MSShapeGroup" mask="url(#mask-4)"></path>
                    <path d="M270.030032,82.8211953 C270.409519,82.8211953 270.614679,82.8809586 270.756987,83.2347574 L273.618558,90.7703136 C273.732997,90.9089645 273.823718,90.9089645 273.879455,90.8079645 C274.841811,88.3206154 275.820176,85.7478047 276.725016,83.2981065 C276.931955,82.9443077 276.984728,82.8211953 277.530833,82.8211953 L279.387356,82.8211953 C279.938798,82.8211953 279.917452,83.0913254 279.794119,83.3518935 L275.335144,93.7507101 C275.211811,94.0680533 275.192837,94.1600888 275.192837,94.4840059 L275.192837,100.407746 C275.192837,100.70716 275.047564,100.852982 274.757019,100.852982 L272.754631,100.852982 C272.464087,100.852982 272.321779,100.70716 272.321779,100.43942 L272.321779,94.4224497 C272.321779,94.190568 272.261891,93.9909586 272.175913,93.8140592 L267.71101,83.3757988 C267.593606,83.0584556 267.62266,82.8211953 268.058478,82.8211953 L270.030032,82.8211953" id="Fill-25" fill="#7F8C8D" sketch:type="MSShapeGroup" mask="url(#mask-4)"></path>
                    <path d="M288.502163,101 C286.294022,101 284.183125,100.267899 282.93141,98.7744142 C282.674663,98.5048817 282.649167,98.3351538 282.960465,97.9873314 L284.065721,96.8488402 C284.384135,96.5858817 284.523478,96.6713432 284.850785,96.9952604 C285.806026,97.9269704 287.190561,98.4827692 288.436346,98.4827692 C290.617212,98.4827692 291.80133,97.4871124 291.80133,95.8543787 C291.80133,94.1051065 290.062212,93.4064734 288.238301,92.789716 C285.977388,92.0008402 283.279471,90.8545799 283.279471,87.6506686 C283.279471,84.483213 285.685657,82.5982781 288.725705,82.5982781 C290.38359,82.5982781 292.149391,82.9221953 293.681571,83.9985325 C294.058686,84.2602959 293.941282,84.4628935 293.745609,84.7868107 L293.014503,86.0400473 C292.812901,86.3645621 292.558526,86.3042012 292.234183,86.1571834 C290.99492,85.4854438 289.944808,85.0999704 288.929679,85.0999704 C287.424776,85.0999704 286.122067,85.7478047 286.122067,87.6739763 C286.122067,89.1692544 287.919295,89.7842189 289.334663,90.3226864 C291.884936,91.2633609 294.646891,92.2590178 294.646891,95.7701124 C294.646891,99.0433491 292.029615,101 288.502163,101" id="Fill-26" fill="#7F8C8D" sketch:type="MSShapeGroup" mask="url(#mask-4)"></path>
                </g>
                <path d="M309.531683,84.9009586 C309.531683,85.1932012 309.395304,85.3318521 309.135,85.3318521 L305.510304,85.3318521 C305.282612,85.3318521 305.165208,85.4244852 305.165208,85.6324615 L305.133782,100.43942 C305.133782,100.70716 304.992067,100.852982 304.728798,100.852982 L302.729375,100.852982 C302.412147,100.852982 302.26391,100.731663 302.26391,100.460935 L302.303638,85.6623432 C302.303638,85.4537692 302.26391,85.3318521 301.945497,85.3318521 L298.470224,85.3318521 C298.178494,85.3318521 298.035593,85.1932012 298.035593,84.9009586 L298.035593,83.2347574 C298.035593,82.9741893 298.178494,82.8211953 298.470224,82.8211953 L309.135,82.8211953 C309.395304,82.8211953 309.531683,82.9443077 309.531683,83.2144379 L309.531683,84.9009586" id="Fill-28" fill="#7F8C8D" sketch:type="MSShapeGroup"></path>
                <path d="M324.167436,98.3052722 C324.431298,98.3052722 324.573606,98.450497 324.573606,98.7116627 L324.573606,100.407746 C324.573606,100.70716 324.431298,100.852982 324.167436,100.852982 L314.539728,100.852982 C314.256298,100.852982 314.10391,100.70716 314.10391,100.43942 L314.10391,83.2347574 C314.10391,82.9741893 314.256298,82.8211953 314.539728,82.8211953 L324.018606,82.8211953 C324.252228,82.8211953 324.456202,82.9221953 324.456202,83.2347574 L324.456202,84.9009586 C324.456202,85.1932012 324.303814,85.3318521 324.052404,85.3318521 L317.299904,85.3318521 C317.065689,85.3318521 316.945321,85.4244852 316.945321,85.6324615 L316.945321,89.8631065 C316.945321,90.1302485 317.065689,90.2473846 317.299904,90.2473846 L322.859984,90.2473846 C323.120288,90.2473846 323.265561,90.3944024 323.265561,90.686645 L323.265561,92.3504556 C323.265561,92.6128166 323.146378,92.7646154 322.886074,92.7646154 L317.299904,92.7646154 C317.065689,92.7646154 316.945321,92.8733846 316.945321,93.1028757 L316.945321,97.9562544 C316.945321,98.1887337 317.065689,98.3052722 317.326587,98.3052722 L324.167436,98.3052722" id="Fill-29" fill="#7F8C8D" sketch:type="MSShapeGroup"></path>
                <path d="M344.821619,100.407746 C344.821619,100.70716 344.67516,100.852982 344.391138,100.852982 L342.506747,100.852982 C342.242292,100.852982 342.102949,100.731663 342.102949,100.460935 L342.102949,90.1619231 C342.102949,90.0782544 342.017564,90.0400059 341.985545,90.1302485 L340.766442,93.4267929 L338.307484,99.8226627 C338.223285,100.030041 338.045401,100.284633 337.69734,100.284633 L336.44859,100.284633 C336.135513,100.284633 335.927388,100.267899 335.784487,99.882426 L333.410913,93.6287929 L332.221458,90.217503 C332.192404,90.1852308 332.11117,90.1302485 332.11117,90.217503 L332.11117,100.43942 C332.11117,100.70716 331.961747,100.852982 331.698478,100.852982 L329.814679,100.852982 C329.532436,100.852982 329.37649,100.70716 329.37649,100.43942 L329.37649,83.4134497 C329.37649,83.0369408 329.588173,82.8211953 329.961138,82.8211953 L331.410897,82.8211953 C331.903045,82.8211953 332.023413,82.8606391 332.221458,83.2981065 C332.456266,83.7295976 335.520625,92.1741538 335.726378,92.6128166 L337.001811,96.1167396 C337.08601,96.2637574 337.170801,96.2858698 337.259151,96.1466213 C337.501667,95.3840414 338.223285,93.3431243 338.535176,92.5494675 L342.017564,83.2981065 C342.152756,82.9741893 342.453381,82.8211953 342.828125,82.8211953 L344.23875,82.8211953 C344.626538,82.8211953 344.821619,82.9980947 344.821619,83.3757988 L344.821619,100.407746" id="Fill-30" fill="#7F8C8D" sketch:type="MSShapeGroup"></path>
                <path d="M359.554022,6.1592071 L359.554022,9.61412426 L361.293141,9.61412426 C363.120609,9.61412426 363.966154,9.2017574 363.966154,7.93477515 C363.966154,6.64807101 363.101042,6.1592071 361.241554,6.1592071 L359.554022,6.1592071 L359.554022,6.1592071 Z M365.683333,7.81524852 C365.683333,9.2017574 364.811699,10.2231124 363.367276,10.4651538 L365.583125,15.0370473 L363.726603,15.0370473 L361.650096,10.7083905 L359.554022,10.7083905 L359.554022,15.0370473 L357.891987,15.0370473 L357.891987,5.06494083 L361.555817,5.06494083 C364.305321,5.06494083 365.683333,5.94346154 365.683333,7.81524852 L365.683333,7.81524852 Z M366.768429,4.77688166 C365.295545,3.29355621 363.412933,2.5160355 361.313301,2.5160355 C359.263478,2.5160355 357.406955,3.26606509 356.007003,4.70337278 C354.511587,6.21000592 353.718221,8.15470414 353.718221,10.1962189 C353.718221,12.214426 354.511587,14.1125089 355.961939,15.5958343 C357.406955,17.0779645 359.312099,17.8566805 361.293141,17.8566805 C363.338814,17.8566805 365.247516,17.0779645 366.739375,15.5958343 C368.167196,14.1860178 368.960561,12.3142308 368.960561,10.2452249 C368.960561,8.15470414 368.190321,6.21000592 366.768429,4.77688166 L366.768429,4.77688166 Z M367.491234,4.04418343 C369.105833,5.67392899 369.975096,7.86186391 369.975096,10.1962189 C369.975096,12.5789822 369.105833,14.716716 367.467516,16.3237515 C365.75508,18.0036982 363.582516,18.9270414 361.313301,18.9270414 C359.020962,18.9270414 356.874487,18.0036982 355.212452,16.3237515 C353.573542,14.6712959 352.679968,12.5066686 352.679968,10.1962189 C352.679968,7.8887574 353.594295,5.67392899 355.283606,3.97127219 C356.874487,2.34272189 358.975897,1.46778698 361.313301,1.46778698 C363.682724,1.46778698 365.823269,2.36901775 367.491234,4.04418343 L367.491234,4.04418343 Z" id="Fill-31" fill="#7F8C8D" sketch:type="MSShapeGroup"></path>
            </g>
        </g>
    </g>
</svg>