<?xml version="1.0" encoding="UTF-8" standalone="no"?>
<svg width="197px" height="199px" viewBox="0 0 197 199" version="1.1" xmlns="http://www.w3.org/2000/svg" xmlns:xlink="http://www.w3.org/1999/xlink" xmlns:sketch="http://www.bohemiancoding.com/sketch/ns">
    <!-- Generator: Sketch 3.2.1 (9977) - http://www.bohemiancoding.com/sketch -->
    <title>ssa</title>
    <desc>Created with Sketch.</desc>
    <defs></defs>
    <g id="Page-1" stroke="none" stroke-width="1" fill="none" fill-rule="evenodd" sketch:type="MSPage">
        <g id="1c" sketch:type="MSLayerGroup" transform="translate(-494.000000, -207.000000)" fill="#7F8C8D">
            <g id="ssa" transform="translate(494.000000, 207.000000)" sketch:type="MSShapeGroup">
                <path d="M9.44635664,98.9723224 L9.44635664,98.9723224 L9.47390909,98.9864627 L9.51558217,99.0002582 L9.57068706,99.0278492 L9.62613636,99.0695806 L9.70948252,99.0971716 L9.90338287,99.1806343 L10.0280577,99.2361612 L10.1665087,99.2775477 L10.3049598,99.319279 L10.4575315,99.3606655 L10.623535,99.4161924 L10.8036591,99.4441282 L10.9975594,99.4855147 L11.1914598,99.5134506 L11.413257,99.5410416 L11.6347098,99.5689775 L11.856507,99.582773 L12.091736,99.582773 L12.3410857,99.5689775 L12.6045559,99.555182 L12.8676818,99.5272461 L13.1445839,99.4996551 L13.4356066,99.4441282 L13.726285,99.3748059 L14.0173077,99.2913432 L14.3221066,99.1944298 L14.6269056,99.0833761 L14.7929091,99.0140537 L14.9454808,98.9447314 L15.2778322,98.8060867 L15.4300594,98.7226239 L15.5964073,98.6257106 C19.6273304,96.420156 21.511229,95.1161369 26.0959563,85.3509965 C30.8473759,75.1833726 35.8199038,62.629818 43.7157465,55.4861664 C51.4865699,48.467364 60.4207955,43.2378371 73.1782675,46.3590676 C73.1782675,46.3590676 73.012264,47.4271837 67.8038182,47.8155269 C65.3106661,48.0372894 57.3734948,49.771383 49.7273462,56.3601109 C40.9453479,63.9755685 35.6676766,77.6106898 32.7033776,83.7279567 C30.4592308,88.3332374 24.3508531,102.357047 15.9012063,102.662272 C12.8260087,102.787121 9.44635664,98.9723224 9.44635664,98.9723224" id="Fill-1"></path>
                <path d="M41.9840752,76.3346066 L42.3718759,75.4468666 L42.7737972,74.5867175 L43.1615979,73.7545043 L43.5631748,72.9360867 L43.9647517,72.1456049 L44.3666731,71.3689185 L44.7544738,70.6336187 L45.1560507,69.9124593 L45.557972,69.2047504 L45.959549,68.5253224 L46.3611259,67.8731404 L46.749271,67.2350988 L47.5524248,66.0145425 L48.3283706,64.8908995 L49.103972,63.8365789 L49.8795734,62.865721 L50.6276224,61.9503899 L51.3618951,61.1178319 L52.0820472,60.3549411 L52.7884231,59.6475771 L53.4672465,59.0095355 L54.1322937,58.4270208 L54.7694441,57.899688 L55.3786976,57.4144315 L55.960743,56.9981525 L56.500771,56.6236049 L57.0270227,56.2907886 L57.5119458,56.0134991 L57.9551958,55.7638007 L58.3571171,55.5554887 L58.7307972,55.3751127 L59.0497168,55.2364679 L59.3403951,55.1257591 L59.5621923,55.0422964 L59.7560927,54.972974 L59.8945437,54.9312426 L59.9637692,54.9174471 L59.9913217,54.9036516 C59.9913217,54.9036516 59.9637692,58.9402132 60.3377937,60.1887054 C60.3377937,60.1887054 52.9823234,61.8669272 44.8791486,83.0899151 C42.0670769,90.3446205 36.4573986,102.59295 26.7055542,102.59295 C26.7055542,102.59295 32.3710262,98.3480763 41.9840752,76.3346066" id="Fill-2"></path>
                <path d="M47.2617465,90.6081144 L47.2617465,90.5943189 L47.2755227,90.566383 L47.289299,90.5108562 L47.3171958,90.4556742 L47.3585245,90.3584159 L47.4139738,90.2611577 L47.4694231,90.1363085 L47.5248724,89.9838683 L47.6078741,89.8176326 L47.6912203,89.6231161 L47.7879983,89.415149 L47.8851206,89.1933865 L47.9956748,88.9295477 L48.1203497,88.6660537 L48.2591451,88.3608284 L48.3975962,88.0418076 L48.5498234,87.7089913 L48.7161713,87.3344437 L48.8821748,86.9461005 L49.062299,86.5439619 L49.2561993,86.1138873 L49.6718969,85.1706205 L49.9074703,84.6574281 L50.1426993,84.1300953 L50.392049,83.5755165 L50.6413986,82.9930017 L50.9186451,82.3825511 L51.1955472,81.758305 L51.4865699,81.0923276 L51.7913689,80.4128995 L52.1099441,79.6913951 C59.2711696,63.3233865 67.4022413,61.2564766 69.5492657,61.0764454 C71.8626381,60.8822738 73.2337168,62.2000884 73.2337168,62.2000884 C73.2337168,62.2000884 62.6232692,65.2516516 55.5450455,86.8350468 C55.5450455,86.8350468 50.0321451,88.6660537 47.2617465,90.6081144" id="Fill-3"></path>
                <path d="M61.7922185,84.920922 L61.7922185,84.9071265 L61.8059948,84.8791906 L61.819771,84.8236638 L61.8476678,84.7543414 L61.8752203,84.6712236 L61.9168934,84.5601698 L61.9585664,84.4353206 L62.0140157,84.2966759 L62.1383462,83.9638596 L62.2909178,83.5613761 L62.471042,83.117851 L62.6787185,82.6043137 L62.914292,82.0493899 L63.1911941,81.4530797 L63.4822168,80.8012426 L63.800792,80.1214697 L64.5347203,78.6788059 L64.9504178,77.9021196 L65.3798916,77.1254333 L65.8506941,76.3208111 L66.3493934,75.5023934 L66.8759895,74.6839757 L67.4297937,73.8655581 L68.0118392,73.0333449 L68.6210927,72.2149272 L69.2723636,71.410305 L69.9370664,70.6056828 L70.6434423,69.8289965 L71.377715,69.0799012 L72.1395402,68.3449463 L72.9289178,67.6375823 L73.7461923,66.9716049 L74.6051399,66.3473588 L75.4916399,65.764844 L76.4060367,65.2237158 L79.1760909,68.247688 C79.1760909,68.247688 71.1004685,74.6008579 67.8592675,83.8528059 C67.8592675,83.8528059 63.6898934,84.3384073 61.7922185,84.920922" id="Fill-4"></path>
                <path d="M80.007486,84.4632565 L80.0767115,84.1162998 L80.1734895,83.769688 L80.2843881,83.4089359 L80.4228392,83.0623241 L80.7276381,82.3408198 L80.9077622,81.994208 L81.0878864,81.6334558 L81.2817867,81.2864991 L81.6971399,80.5932756 L82.1403899,79.9272981 L82.3621871,79.6082773 L82.8054371,78.9978267 L83.2486871,78.415312 L83.4563636,78.151818 L83.6643846,77.9021196 L84.0521853,77.4306586 L84.2323094,77.2223466 L84.3983129,77.0419705 L84.5508846,76.8619393 L84.6893357,76.7229497 L84.7998899,76.584305 L84.8553392,76.5287782 L84.8970122,76.4732513 L84.9524615,76.4318648 L84.980014,76.3901334 L85.0216871,76.3484021 L85.0495839,76.3208111 L85.0771364,76.2928752 L85.0909126,76.2790797 L82.4451888,72.7005286 C82.4451888,72.7005286 77.1124126,76.4318648 74.2448916,84.060773 C74.2448916,84.060773 76.4335892,84.033182 77.444764,84.2135581 C78.4421626,84.4353206 80.007486,84.4632565 80.007486,84.4632565" id="Fill-5"></path>
                <path d="M77.444764,51.7272392 L77.444764,51.7410347 L77.4585402,51.7410347 L77.4585402,51.7548302 L77.4864371,51.782766 L77.5002133,51.810357 L77.5139895,51.8241525 L77.5694388,51.9076153 L77.6941136,52.073851 L77.7357867,52.1431733 L77.7771154,52.2124957 L77.8187885,52.2959584 L77.8742378,52.3790763 L77.9155664,52.4621941 L77.9710157,52.5456568 L78.026465,52.6425702 L78.0681381,52.725688 L78.1235874,52.8367418 L78.1649161,52.934 L78.2065892,53.0309133 L78.2482622,53.1419671 L78.2895909,53.2392253 L78.331264,53.3499341 L78.4421626,53.7938042 L78.469715,54.0159116 L78.469715,54.2380191 C78.469715,54.2380191 79.9103636,53.0171179 82.9855612,53.0726447 C82.9855612,53.0726447 78.8161871,51.9076153 77.444764,51.7272392" id="Fill-6"></path>
                <path d="M101.740857,70.9943709 L101.796306,70.9943709 L101.823858,70.9802305 L101.851755,70.9802305 L101.907205,70.966435 L101.948533,70.966435 L102.003983,70.9526395 L102.059432,70.9526395 L102.128657,70.938844 L102.336334,70.8971127 L102.516458,70.8695217 L102.696582,70.8277903 L102.890483,70.7860589 L103.11228,70.7446724 L103.333733,70.6891456 L103.569306,70.6336187 L103.804879,70.5780919 L104.054229,70.522565 L104.317355,70.4532426 L104.580481,70.3701248 L104.843607,70.3008024 L105.092956,70.2035442 L105.356082,70.1204263 L105.882678,69.9262548 L106.132028,69.815201 L106.60283,69.5930936 L106.838404,69.4685893 L107.04608,69.3433951 L107.253757,69.2047504 L107.614005,68.927461 L107.766233,68.7750208 L107.905028,68.6084402 C107.905028,68.6084402 118.847827,73.7131179 122.324601,82.4794645 C122.324601,82.4794645 117.781203,82.5074003 115.551177,83.0899151 C115.551177,83.0899151 112.268302,76.7370901 101.740857,70.9943709" id="Fill-7"></path>
                <path d="M135.068297,83.8803969 L135.054521,83.8803969 L135.040745,83.8666014 L135.012848,83.8666014 L134.985295,83.8528059 L134.943622,83.8528059 L134.902294,83.8390104 L134.860621,83.8252149 L134.805171,83.8110745 L134.749722,83.797279 L134.680497,83.7834835 L134.611271,83.7558925 L134.459044,83.7141612 L134.292696,83.6724298 L134.098795,83.6310433 L133.904895,83.5755165 L133.683098,83.5199896 L133.447524,83.4644627 L133.198519,83.4089359 L132.94917,83.353409 L132.685699,83.2978821 L132.408797,83.2423553 L132.131895,83.1871733 L131.259171,83.0205927 L130.66335,82.9233345 L130.372671,82.881948 L130.081649,82.8540121 L129.79097,82.8126256 L129.499948,82.7984853 L129.222701,82.7708943 L128.945799,82.7570988 L128.19775,82.7570988 L127.962521,82.7846898 C127.962177,82.7846898 127.907072,72.9222912 111.797156,65.6120589 C111.797156,65.6120589 114.457,62.2970017 115.1496,60.7712201 C115.1496,60.7712201 132.658147,66.6943154 135.068297,83.8803969" id="Fill-8"></path>
                <path d="M151.233318,91.2740919 L151.219542,91.2599515 L151.19199,91.2323605 L151.13654,91.1906291 L151.067315,91.1351023 L150.983969,91.0657799 L150.873414,90.982662 L150.74874,90.8854038 L150.596168,90.774695 L150.443941,90.6498458 L150.263816,90.5108562 L150.069916,90.3584159 L149.848119,90.2059757 L149.626666,90.0393951 L149.377316,89.8728146 L149.114191,89.678643 L148.836944,89.4982669 L148.546266,89.2902998 L148.241467,89.0961282 L147.922892,88.8881612 L147.57642,88.6660537 L147.230292,88.4580867 L146.870044,88.2359792 L146.496019,88.0004211 L146.108219,87.7783137 L145.706642,87.5565511 L145.30472,87.3206482 L144.875591,87.0847452 L144.446117,86.8629827 L144.002867,86.6270797 L143.545497,86.4049723 L142.603547,85.9614471 C142.603547,85.9614471 138.240273,59.4809965 116.562351,58.4132253 C116.562351,58.4132253 117.989224,55.5416932 119.027951,53.7662132 C119.304853,53.3223432 119.997453,52.9477955 120.274699,52.7953553 C120.274699,52.7953553 133.267745,49.3413085 144.03042,56.9150347 C148.947843,60.3687366 154.710093,70.078695 159.461512,82.1466482 C163.422865,92.0925095 168.395738,100.151492 169.587037,101.774532 C169.587037,101.774532 164.572836,101.191672 161.511414,98.0707868 C157.300367,93.8400537 150.651617,72.8947002 146.260446,66.8743466 C142.021846,60.9791872 138.088045,55.7913917 125.829273,56.4987556 C125.829273,56.4987556 134.431147,59.023331 139.916495,66.3473588 C146.163668,74.7257071 151.233318,91.2740919 151.233318,91.2740919" id="Fill-9"></path>
                <path d="M112.905453,47.3578614 L112.628551,48.0234939 L112.36508,48.675331 L111.838829,49.9238232 L111.575703,50.5204783 L111.326353,51.1167886 L110.800101,52.226636 L110.536631,52.7674194 L110.273505,53.2806118 L109.747253,54.2518146 L109.470351,54.7094801 L109.193105,55.1395546 L108.902082,55.5554887 L108.611404,55.9441768 L108.306605,56.3183795 L108.001806,56.6791317 L107.683231,56.9981525 L107.350879,57.3033778 L107.018528,57.5806672 L106.672056,57.8441612 L106.311808,58.0800641 L105.938128,58.2883761 L105.536206,58.4684073 L105.134629,58.6211924 L104.718932,58.7598371 L104.289458,58.8570953 L103.832432,58.9402132 L103.375406,58.9819445 L102.890483,59.0095355 L102.378007,58.99574 C91.975236,58.5101386 90.3685839,52.3373449 90.2714615,51.4913362 C90.1192343,50.2983709 92.321708,49.0084922 92.321708,49.0084922 C91.740007,49.0084922 87.2796101,49.2857816 81.642035,47.6072149 C73.8433147,45.3464783 73.8157622,50.7005095 73.8157622,50.7005095 C73.8157622,50.7005095 64.2302657,48.1900745 62.9556206,53.0726447 C62.3463671,55.3613172 62.8863951,58.6349879 62.8863951,58.6349879 C62.8863951,58.6349879 69.8402885,54.9312426 75.1868409,59.3285563 C79.7581364,63.1430104 80.7000857,66.2918319 87.2796101,73.8379671 C90.645486,77.6524211 99.1505822,90.2059757 109.913601,84.5463744 C109.913601,84.5463744 108.445056,81.7165737 101.255934,76.9171213 C98.1118549,74.8364159 93.2912098,72.7005286 90.2160122,70.2311352 C87.3488357,67.9010763 86.1854336,66.9716049 80.4645122,60.3687366 C78.0543619,57.5948076 70.7267885,53.8634714 66.4878444,55.2781993 C66.1000437,55.416844 66.0308182,55.7638007 65.6984668,55.9993588 C65.6984668,55.9993588 65.573792,54.1407608 65.8506941,53.405461 C66.2526154,52.3652808 70.5466643,52.0600555 75.6993164,53.5303102 C75.6993164,53.5303102 74.7022622,49.4385667 78.7469615,50.1459307 C82.8329895,50.8670901 86.8363601,52.254227 88.0831084,51.9076153 C88.0831084,51.9076153 88.1661101,61.3399393 102.987605,62.2970017 C110.273505,62.7546672 113.265701,54.8063934 115.09415,51.7686256 C115.647955,50.8670901 116.9226,49.1054055 118.238229,48.7587938 C127.809949,46.2062825 145.401843,46.3866586 156.109413,64.5442877 C160.555689,72.1869913 167.481685,88.0280121 170.404311,93.0078406 C177.662659,105.464137 183.092558,103.203055 187.733079,98.9309359 C187.733079,98.9309359 180.862531,102.759185 174.740033,88.6384627 C171.969635,82.229766 162.453364,61.3399393 155.278017,54.8760607 C151.690689,51.6023899 146.468467,46.636357 136.993869,44.6529099 C118.1969,40.7411976 112.905453,47.3578614 112.905453,47.3578614" id="Fill-10"></path>
                <path d="M6.42660839,74.4480728 L6.37115909,75.2664905 C4.50103671,75.2664905 2.82515909,75.696565 2.36778846,77.7496794 C1.97998776,79.5110191 2.79726224,81.0368007 4.62571154,81.4668752 C9.19700699,82.4794645 9.87548601,74.2125147 14.6820105,75.2944263 C17.7017587,75.9738544 19.4196538,78.4429029 18.6161556,81.9524766 C18.2559073,83.6031075 17.3973042,85.5868995 16.2752308,86.5994887 L12.2443077,85.9890381 L12.2164108,85.1288891 C13.5323846,85.2261473 14.6269056,85.1982114 15.3887308,84.9764489 C16.5104598,84.7129549 17.4665297,82.9374749 17.6742063,81.8969497 C18.1312325,79.9135026 17.4665297,78.1656135 15.3608339,77.7217435 C11.2744615,76.8064125 10.7898829,85.1012981 4.72283392,83.7279567 C2.16011189,83.1730329 0.567236014,80.7039844 1.32906119,77.3471958 C1.57841084,76.1542305 2.24311364,75.0861144 2.64503497,73.9628163 L6.42660839,74.4480728" id="Fill-11"></path>
                <path d="M20.5138304,53.8910624 L21.3173287,54.3073414 L21.6913531,54.5428995 L22.051257,54.7788024 L22.397729,55.0285009 L22.7300804,55.3057903 L23.0348794,55.5834246 L23.3255577,55.8745095 L23.6028042,56.1797348 L23.8521538,56.4849601 L24.0877273,56.8177764 L24.3091801,57.1509376 L24.5030804,57.4975494 L24.6832045,57.8441612 L24.8354318,58.2049133 L24.9880035,58.579461 L25.0989021,58.9540087 L25.1956801,59.3423518 L25.2786818,59.7448354 L25.3479073,60.146974 L25.3758042,60.5491127 L25.4033566,60.9653917 L25.4033566,61.3813258 L25.3758042,61.8114003 L25.3341311,62.2414749 L25.2649056,62.6715494 L25.1819038,63.1154194 L25.0710052,63.5592894 L24.9463304,64.0031594 L24.7941031,64.4470295 L24.613979,64.904695 L24.4200787,65.348565 C21.8298042,71.0636932 17.1200577,72.2149272 12.6458846,70.1618128 C7.54833741,67.8176135 5.66478322,63.3233865 7.92236189,58.4408163 C10.5405332,52.7398284 15.3887308,51.5468631 20.5138304,53.8910624 L20.5138304,53.8910624 Z M23.6303566,64.8633085 L23.7967045,64.4746205 L23.9351556,64.0862773 L24.0460542,63.72587 L24.1290559,63.3513224 L24.1982815,63.0043657 L24.2399545,62.6577539 L24.2537308,62.3107972 L24.2537308,61.9779809 L24.2261783,61.6451646 L24.170729,61.3261438 L24.1015035,61.0209185 L24.0181573,60.7156932 L23.9076031,60.4104679 L23.7829283,60.1190381 L23.6444773,59.8417487 L23.4781294,59.5644593 L23.1178811,59.0371265 L22.9102045,58.787773 L22.6884073,58.5380745 L22.4531783,58.3021716 L22.2038287,58.0662686 L21.954479,57.8441612 L21.6772325,57.6223986 L21.4003304,57.4144315 L21.1093077,57.22026 L20.5000542,56.8319168 L20.181479,56.6515407 L19.8629038,56.4849601 L19.1978566,56.1521438 C14.5022308,54.0159116 10.2081818,55.6665425 8.73963636,58.9402132 C7.18843357,62.2552704 8.61496154,65.4596187 12.6737815,67.332357 C17.618757,69.5930936 21.8573566,68.7332894 23.6303566,64.8633085 L23.6303566,64.8633085 Z" id="Fill-12"></path>
                <path d="M29.8083042,34.5963397 L29.2682762,35.2757678 C27.3706014,34.0552114 25.0293322,33.8334489 22.1067063,37.5230537 C19.3779808,40.9771005 19.3225315,44.3059532 22.8964283,47.1495494 C26.8577815,50.2983709 32.0386748,50.2707799 34.878299,46.6918839 C36.4573986,44.6529099 36.8589755,42.3225061 35.90325,39.9089844 L36.6650752,39.7286083 L38.1332762,43.2102461 C37.3990035,44.8884679 36.5266241,46.3590676 35.5430017,47.6072149 C32.0662273,52.0045286 27.3706014,53.7662132 22.2451573,49.7158562 C17.9235559,46.2897452 17.4248566,41.6151421 21.3448811,36.732227 C22.4390577,35.3592305 24.5309773,33.2505893 26.1514056,32.0300329 L29.8083042,34.5963397" id="Fill-13"></path>
                <path d="M33.922229,25.9269064 L43.7157465,36.8294853 L45.793201,35.5396066 L46.3473497,36.1638527 L40.9729003,40.9771005 L40.3911993,40.3666499 L41.9148497,38.4387296 L32.1354528,27.5496014 L30.0576538,28.8256846 L29.5035052,28.2155789 L34.878299,23.402331 L35.46,23.9986412 L33.922229,25.9269064" id="Fill-14"></path>
                <path d="M48.3421469,26.9115598 L49.5334458,32.1824731 L51.8051451,31.2671421 L52.2483951,31.9745061 L47.0399493,35.2757678 L46.6104755,34.5408128 L48.1344703,33.0705581 L44.906701,15.8841317 L45.9733252,15.2043588 L60.3377937,25.3857782 L62.3463671,24.6228873 L62.7758409,25.3164558 L56.7638969,29.1033189 L56.3347675,28.3959549 L58.1353199,26.7867106 L53.6335944,23.5823622 L48.3421469,26.9115598 L48.3421469,26.9115598 Z M48.1065734,25.5937452 L52.5252972,22.8056759 L46.7075979,18.6580607 L48.1065734,25.5937452 L48.1065734,25.5937452 Z" id="Fill-15"></path>
                <path d="M64.2023689,24.0403726 L66.3356171,22.8056759 L61.3351923,9.04536049 L58.9663706,9.47543501 L58.6615717,8.67115771 L65.4628934,6.20210919 L65.7260192,6.99259099 L63.6344441,8.21314731 L68.5105385,21.7792912 L74.3974633,19.6292634 L74.6051399,16.0365719 L75.366965,15.7592825 L75.9765629,20.6694437 L64.5071678,24.8308544 L64.2023689,24.0403726" id="Fill-16"></path>
                <path d="M100.189309,4.24590815 L99.3582587,4.37075737 C98.928785,2.56768631 98.083958,1.04190468 96.0340559,1.11122704 C94.2056066,1.1667539 92.9309615,2.31798787 92.9864108,4.19072617 C93.1110857,8.89292028 101.255934,7.51957886 101.408505,12.4576759 C101.463955,15.5789064 99.4829336,17.7982565 95.9093811,17.9231057 C94.2331591,17.9506967 92.0999108,17.6178804 90.8531626,16.7577314 L90.4653619,12.7073744 L91.2826364,12.4856118 C91.4903129,13.7754905 91.836785,14.8160156 92.1970332,15.5095841 C92.7508374,16.5221733 94.7039615,17.0074298 95.7430332,16.9798388 C97.737486,16.9105165 99.275257,15.8841317 99.2060315,13.7061681 C99.0951329,9.50337088 90.9778374,11.0846794 90.7980577,4.82876776 C90.7284878,2.23487002 92.723285,0.0986377816 96.1587308,0.00137954939 C97.3496853,-0.0262114385 98.5409843,0.348336222 99.7322832,0.431454073 L100.189309,4.24590815" id="Fill-17"></path>
                <path d="M110.121278,9.04536049 L114.609227,9.71133795 L115.343156,7.97724437 L116.049876,8.06070711 C115.703404,9.35058579 115.371052,11.6392582 115.301827,12.9850087 L114.58133,12.8601594 L114.429103,10.9318943 L109.941154,10.2662617 L108.929979,16.8825806 L115.675851,17.8951698 L117.047274,15.3985303 L117.933774,15.537175 L116.313002,19.5182097 L103.970883,17.6872028 L104.095558,16.8549896 L106.533605,16.7994627 L108.694406,2.29039688 L106.381378,1.52716118 L106.491932,0.708743501 L117.684425,2.38731023 L117.476404,6.17417331 L116.742476,6.04932409 L116.437677,3.58027556 L111.077003,2.78944887 L110.121278,9.04536049" id="Fill-18"></path>
                <path d="M139.15467,14.2610919 L138.364948,13.9558666 C138.90532,11.7641075 138.420397,9.47543501 134.001673,7.82480416 C129.887748,6.25729116 126.715773,7.24228943 125.095,11.514409 C123.322,16.244539 124.942773,21.1967764 129.208925,22.7780849 C131.619075,23.6934159 133.974121,23.3605997 135.982694,21.7099688 L136.384271,22.3756014 L133.544647,24.8587903 C131.716198,24.6784142 130.039976,24.2759307 128.544222,23.6934159 C123.294448,21.7375598 120.150024,17.7982565 122.449276,11.6947851 C124.4024,6.53492548 128.668897,4.64839168 134.514149,6.84015078 C136.162474,7.4502565 138.822318,8.82359792 140.456867,10.0165633 L139.15467,14.2610919" id="Fill-19"></path>
                <path d="M159.156713,22.750149 L154.557865,29.5609844 C151.870469,33.5282236 148.393694,35.1788544 143.822743,32.0855598 C139.514918,29.2002322 139.182222,25.6630676 141.37092,22.569773 L146.870044,14.4135321 L145.138717,12.7353102 L145.581967,12.0279463 L151.566014,16.0920988 L151.108643,16.7577314 L148.878617,15.7592825 L143.878192,23.1802236 C141.772497,26.17626 141.620269,28.9784697 144.736795,31.086766 C145.734194,31.766539 147.631869,32.4876984 149.432766,31.9469151 C150.859294,31.5168406 152.07849,29.7413605 152.812418,28.6177175 L157.535941,21.6544419 L155.776717,19.9344887 L156.26164,19.2409203 L161.871663,23.0553744 L161.38674,23.7627383 L159.156713,22.750149" id="Fill-20"></path>
                <path d="M155.776717,39.3261248 L166.52596,29.3806083 L165.12664,27.2305806 L165.736238,26.6897972 L171.207809,32.6125477 C172.842358,34.4159636 173.520837,36.9819255 171.360037,38.9657175 C169.82261,40.3942409 167.537135,40.5887574 165.556114,40.1169515 L164.572836,45.3185425 C164.309365,46.8167331 163.880236,48.7032669 164.461937,50.2983709 L163.755561,50.5898007 L162.841164,48.911234 C162.578038,48.3980416 162.107236,47.5520329 162.107236,47.3299255 C162.480916,44.4587383 163.021288,41.5596153 163.658439,38.8684593 C163.062962,38.3276759 162.453364,37.7172253 161.802437,37.0098614 L157.383713,41.1019497 L158.72724,43.1409237 L158.090089,43.737234 L153.117217,38.3276759 L153.726815,37.7451612 L155.776717,39.3261248 L155.776717,39.3261248 Z M162.633488,36.2745615 L162.66104,36.3162929 L162.688937,36.3576794 L162.730266,36.3994107 L162.771939,36.4411421 L162.813612,36.496669 L162.854941,36.5380555 L162.896614,36.5935823 L162.938287,36.6353137 L162.979615,36.6908406 L163.021288,36.732227 L163.118411,36.8294853 L163.215189,36.940539 L163.298191,37.0374523 C165.348437,39.2709428 166.442614,40.2418007 168.977439,37.8976014 C170.986012,36.0390035 171.207809,33.9582981 169.310135,31.9189792 C168.977439,31.5444315 168.631311,31.2395511 168.29896,31.0312392 L162.633488,36.2745615 L162.633488,36.2745615 Z" id="Fill-21"></path>
                <path d="M180.737857,46.7891421 L168.548309,54.8481248 L169.531587,57.1092062 L168.825212,57.5668718 L164.822185,51.5051317 L165.528561,51.0612617 L167.204439,52.8229463 L179.435659,44.7639636 L178.452381,42.5028821 L179.158757,42.0590121 L183.120455,48.0928163 L182.413734,48.5508267 L180.737857,46.7891421" id="Fill-22"></path>
                <path d="M173.673409,64.5442877 L186.901684,58.5932565 L185.65528,55.8193276 C185.281255,55.0285009 184.921007,54.293201 184.546983,53.613773 L181.721135,53.9603847 L181.34711,53.1699029 L185.40593,51.9076153 L191.999231,66.5970572 L188.245554,68.5253224 L187.87153,67.6927643 L190.129453,66.0562738 C189.852206,65.3071785 189.519855,64.4887608 189.159607,63.6286118 L187.87153,60.7988111 L174.642911,66.7498423 L175.377184,69.398922 L174.615358,69.7458787 L171.373813,62.5604957 L172.149759,62.2276794 L173.673409,64.5442877" id="Fill-23"></path>
                <path d="M179.214206,80.7039844 L185.045682,79.4003102 L192.359479,72.3397764 L192.234804,69.8845234 L193.065855,69.7179428 L194.686628,77.0419705 L193.883129,77.2223466 L192.94118,74.9336742 L186.957133,80.8288336 L194.769629,83.0899151 L194.644955,80.634662 L195.448453,80.4684263 L196.778203,86.4191127 L195.960928,86.5994887 L195.129878,84.7684818 L185.530605,81.7445095 L179.740458,83.0623241 L179.948135,85.9614471 L179.158757,86.1414783 L177.35786,78.1380225 L178.175135,77.9852374 L179.214206,80.7039844" id="Fill-24"></path>
                <path d="M7.70090909,119.238248 L2.28478671,118.752646 L2.49246329,121.194104 L1.67518881,121.416211 L0.137762238,115.479321 L0.968812937,115.271009 L1.88320979,117.199274 L19.2395297,119.293775 L19.530208,120.514331 L5.48465909,131.153761 L5.60933392,133.262057 L4.77828322,133.470024 L3.00493881,126.589867 L3.83633392,126.381899 L4.83338811,128.615045 L9.26623252,125.286192 L7.70090909,119.238248 L7.70090909,119.238248 Z M9.01688287,119.418624 L10.3049598,124.495366 L16.0258811,120.181515 L9.01688287,119.418624 L9.01688287,119.418624 Z" id="Fill-25"></path>
                <path d="M6.73106294,135.245504 L8.19960839,137.215156 L21.2064301,130.570901 L20.5138304,128.212906 L21.2481031,127.852154 L25.3895804,136.008395 C27.7442815,140.613676 28.1324266,145.524182 22.6191818,148.312251 C16.829035,151.266901 12.4936573,148.492627 9.95883217,143.512799 L5.96923776,135.633847 L6.73106294,135.245504 L6.73106294,135.245504 Z M9.41845979,139.26827 L9.50146154,139.54556 L9.59858392,139.823194 L9.76493182,140.350182 L9.86170979,140.59988 L9.94471154,140.863374 L10.1248357,141.362771 L10.4158584,142.111867 L10.526757,142.361565 L10.6373112,142.625059 L10.7482098,142.874757 L10.8728846,143.124456 L10.9975594,143.38795 C12.9231311,147.147222 16.427458,148.548154 20.5968322,146.411922 C25.6668269,143.845615 26.3039773,139.850785 23.9906049,135.301031 C23.5335787,134.3857 23.0348794,133.49796 22.494507,132.61022 L9.41845979,139.26827 L9.41845979,139.26827 Z" id="Fill-26"></path>
                <path d="M42.011972,160.824075 L32.0662273,171.699062 L33.2850787,173.682854 L32.6758252,174.223638 L27.9523024,168.952724 L28.5615559,168.397801 L30.4871276,169.895991 L39.8787238,159.755958 L39.8370507,159.728367 L39.7816014,159.755958 L24.6002028,165.041012 L24.4200787,164.791314 L31.0967255,150.434688 L31.0688287,150.420893 L31.0275,150.434688 L20.2369283,158.410553 L21.4278829,160.394345 L20.8186294,160.948924 L16.9399336,156.648868 L17.5770839,156.066354 L19.294979,157.342437 L31.1797273,148.700594 L29.7528549,146.481244 L30.3900052,145.89873 L33.9639021,149.89356 L28.159979,162.391588 L41.0975752,157.924951 L44.6022465,161.836664 L43.9926486,162.405383 L42.011972,160.824075" id="Fill-27"></path>
                <path d="M49.4779965,166.89961 L40.6959983,178.634747 L42.3718759,180.424023 L41.8594003,181.103795 L36.0971503,176.734418 L36.581729,176.096376 L38.7704266,177.192083 L47.5524248,165.471087 L45.8765472,163.667671 L46.3611259,163.029629 L52.165049,167.35762 L51.6387972,168.023253 L49.4779965,166.89961" id="Fill-28"></path>
                <path d="M48.8962955,184.002919 L55.309472,170.811322 L53.3150192,169.41039 L53.6890437,168.647499 L57.7475192,170.603355 L62.7479441,187.942222 L68.0531678,177.011707 L66.058715,175.610775 L66.4327395,174.847884 L72.0148654,177.566631 L71.6683934,178.329522 L69.3274685,177.649749 L62.2771416,192.089837 L61.1826206,191.534913 C60.5179178,189.163123 56.944021,176.886858 55.8219476,173.044468 L50.1843724,184.64096 L52.2483951,186.111215 L51.8881469,186.832719 L46.1951224,184.086036 L46.5553706,183.323146 L48.8962955,184.002919" id="Fill-29"></path>
                <path d="M78.5113881,180.465754 L74.785264,194.655799 L77.0152902,195.668733 L76.7938374,196.459215 L69.7848392,194.628208 L69.9925157,193.837726 L72.4443392,194.045693 L76.1566871,179.841508 L73.9263164,178.842714 L74.1481136,178.010501 L81.129215,179.841508 L80.9215385,180.673721 L78.5113881,180.465754" id="Fill-30"></path>
                <path d="M92.5986101,185.68114 L91.7675594,185.709076 C91.6153322,183.878069 90.9778374,182.227438 88.9003829,181.991536 C87.099486,181.769773 85.6726136,182.754426 85.4511608,184.585433 C84.9107885,189.260036 93.166535,189.065865 92.5986101,194.017757 C92.2245857,197.097256 89.9391101,199.025522 86.3652133,198.595447 C84.6893357,198.415071 82.6253129,197.735298 81.5311364,196.736504 L81.7388129,192.644761 L82.5560874,192.561298 C82.5977605,193.865317 82.7778846,194.961024 83.0131136,195.668388 C83.4425874,196.76444 85.2710367,197.527331 86.3376608,197.65218 C88.3462343,197.901879 89.9945594,197.069666 90.2714615,194.933433 C90.7701608,190.744432 82.4730857,191.118634 83.207014,184.91825 C83.5118129,182.324352 85.7972885,180.493345 89.2048374,180.923419 C90.3961364,181.034473 91.5598829,181.616988 92.723285,181.866686 L92.5986101,185.68114" id="Fill-31"></path>
                <path d="M104.248129,197.014139 L103.209058,182.504728 L100.161757,182.712695 C99.3028094,182.782362 98.485535,182.907211 97.737486,182.990329 L97.0452308,185.764603 L96.2279563,185.833925 L96.4356329,181.616988 L112.434306,180.465754 L112.988455,184.64096 L112.074402,184.696487 L111.28468,182.019471 C110.495302,182.019471 109.608802,182.047062 108.722302,182.102589 L105.577879,182.324352 L106.644503,196.819967 L109.387005,197.04173 L109.456231,197.901879 L101.616182,198.442662 L101.560733,197.624244 L104.248129,197.014139" id="Fill-32"></path>
                <path d="M120.898073,194.683735 L116.742476,180.64613 L114.179753,180.951355 L113.972077,180.160529 L121.687451,177.871856 C124.028376,177.164492 126.61865,177.719071 127.477598,180.521281 C128.059299,182.532664 127.228248,184.668551 125.912274,186.264 L130.16465,189.412477 C131.383846,190.314357 132.907497,191.521118 134.542045,191.687354 L134.514149,192.491976 L132.602698,192.561298 C132.020997,192.575438 131.079047,192.644761 130.885147,192.519912 C128.4471,190.896872 126.106175,189.163123 123.972927,187.387298 C123.238998,187.692523 122.380051,187.970158 121.493551,188.247447 L123.211101,194.017757 L125.621252,193.740468 L125.856825,194.54509 L118.820274,196.611655 L118.570925,195.821173 L120.898073,194.683735 L120.898073,194.683735 Z M121.188752,187.179331 L121.216649,187.179331 L121.244201,187.165536 L121.272098,187.165536 L121.285874,187.15174 L121.313427,187.15174 L121.341323,187.1376 L121.396428,187.123804 L121.465654,187.110009 L121.521103,187.082418 L121.576552,187.068277 L121.645778,187.054482 L121.715348,187.026891 L121.770453,187.013095 L121.909248,186.971364 L121.978474,186.957568 L122.047699,186.943428 L122.103149,186.915837 L122.172374,186.902042 C125.067448,186.041893 126.410974,185.501109 125.441472,182.199503 C124.679647,179.550078 122.87875,178.481962 120.21925,179.245198 C119.762224,179.397638 119.33275,179.564218 119.000399,179.75839 L121.188752,187.179331 L121.188752,187.179331 Z" id="Fill-33"></path>
                <path d="M138.780645,183.364877 L139.611696,188.733049 L141.925068,187.942222 L142.326645,188.705113 L136.896747,191.576645 L136.508946,190.841345 L138.143495,189.495939 L136.134921,172.115341 L137.270771,171.518686 L150.859294,182.685104 L152.90954,182.074653 L153.297341,182.809953 L147.022615,186.166742 L146.648591,185.431442 L148.573818,183.90566 L144.307666,180.396432 L138.780645,183.364877 L138.780645,183.364877 Z M138.628073,182.047062 L143.268594,179.564218 L137.741918,175.02826 L138.628073,182.047062 L138.628073,182.047062 Z" id="Fill-34"></path>
                <path d="M158.67179,176.248816 L149.557441,164.943754 L147.174843,166.872019 C146.496019,167.412802 145.900542,167.967726 145.346393,168.453328 L146.385121,171.144139 L145.706642,171.699062 L143.476271,168.092575 L155.984393,157.952887 L158.782689,161.101364 L158.090089,161.684224 L155.929288,159.908744 C155.278017,160.366409 154.557865,160.879601 153.85149,161.462116 L151.413442,163.417972 L160.555689,174.709239 L162.938287,173.349693 L163.450762,173.987735 L157.355816,178.939972 L156.802012,178.28779 L158.67179,176.248816" id="Fill-35"></path>
                <path d="M161.719091,153.500047 L172.717684,163.154478 L174.615358,161.614901 L175.252509,162.16948 L170.45976,167.606974 L169.863939,167.052395 L171.138584,164.985485 L160.126215,155.303463 L158.214764,156.829244 L157.605166,156.274321 L162.356586,150.850967 L162.965839,151.39175 L161.719091,153.500047" id="Fill-36"></path>
                <path d="M180.65451,140.114279 L181.042656,140.363977 L181.402559,140.627816 L181.749031,140.905106 L182.067607,141.182395 L182.386182,141.48762 L182.663084,141.792846 L182.94033,142.111867 L183.18968,142.430887 L183.424909,142.763704 L183.63293,143.11066 L183.82683,143.457272 L184.006955,143.818024 L184.159182,144.178776 L184.283857,144.553324 L184.394755,144.941667 L184.491533,145.33001 L184.560759,145.718354 L184.616208,146.106697 L184.644105,146.508835 L184.657881,146.925114 L184.657881,147.327598 L184.616208,147.743532 L184.560759,148.159811 L184.491533,148.575745 L184.394755,148.992024 L184.283857,149.422099 L184.145406,149.838033 L183.979058,150.268107 L183.798934,150.698182 L183.591257,151.114116 L183.369804,151.544191 L183.120455,151.974265 C179.795907,157.314501 175.016935,157.869425 170.805888,155.275527 C166.041037,152.307081 164.766736,147.632478 167.592584,143.055133 C170.889234,137.714553 175.862107,137.132038 180.65451,140.114279 L180.65451,140.114279 Z M182.386182,151.363815 L182.593858,151.003407 L182.787759,150.642655 L182.94033,150.281903 L183.078781,149.935291 L183.18968,149.588334 L183.272682,149.255518 L183.328131,148.922702 L183.355684,148.589886 L183.369804,148.256724 L183.369804,147.937704 L183.341907,147.618683 L183.286458,147.299662 L183.217233,146.994437 L183.134231,146.689211 L183.023332,146.398127 L182.898657,146.106697 L182.760206,145.815612 L182.607635,145.537977 L182.42751,145.260688 L182.233955,144.983054 L182.03971,144.71956 L181.818257,144.469861 L181.59646,144.206367 L181.34711,143.956669 L181.098105,143.720766 L180.834635,143.485208 L180.557733,143.249305 L180.28083,143.027198 L179.989808,142.819231 L179.685009,142.597468 L179.38021,142.403296 L179.061635,142.194984 C174.712136,139.476237 170.224187,140.613676 168.340288,143.637648 C166.387164,146.758879 167.426236,150.101527 171.235362,152.459867 C175.83421,155.331054 180.128259,155.025828 182.386182,151.363815 L182.386182,151.363815 Z" id="Fill-37"></path>
                <path d="M188.813479,136.75749 L174.89226,132.304995 L173.728858,134.468818 L172.939136,134.205324 L174.310559,129.93286 L190.711154,122.511919 L179.186309,118.808173 L178.064236,120.972341 L177.261082,120.694707 L179.186309,114.813343 L179.976031,115.049246 L179.643336,117.476563 L194.894304,122.345338 L194.534056,123.510712 C192.276477,124.523302 180.626958,129.80801 176.997612,131.486577 L189.242953,135.42588 L190.406355,133.164799 L191.196077,133.400702 L189.284281,139.448646 L188.494904,139.198948 L188.813479,136.75749" id="Fill-38"></path>
                <path d="M101.463955,171.518686 L104.095558,168.813735 L104.123455,117.102016 L98.8182308,117.102016 L98.8182308,168.758553 L101.463955,171.518686" id="Fill-39"></path>
                <path d="M72.3196643,161.559374 L72.3196643,117.102016 L67.041993,117.102016 L67.041993,153.73595 C67.041993,161.614901 72.3196643,161.559374 72.3196643,161.559374" id="Fill-40"></path>
                <path d="M83.3179126,164.943754 L83.3179126,117.102016 L78.026465,117.102016 L78.026465,163.695607 L83.3179126,164.943754" id="Fill-41"></path>
                <path d="M93.748236,167.63491 L93.748236,117.102016 L88.4430122,117.102016 L88.4709091,166.317095 L93.748236,167.63491" id="Fill-42"></path>
                <path d="M131.134497,161.462116 L131.134497,117.005102 L136.43972,117.005102 L136.43972,153.652832 C136.43972,161.614901 131.134497,161.462116 131.134497,161.462116" id="Fill-43"></path>
                <path d="M120.246802,164.916163 L120.150024,117.005102 L125.469024,117.005102 L125.496577,163.390381 L120.246802,164.916163" id="Fill-44"></path>
                <path d="M109.691804,167.454534 L109.733477,117.005102 L115.038701,117.005102 L115.010804,166.220182 L109.691804,167.454534" id="Fill-45"></path>
                <path d="M104.026332,89.7759012 L103.970883,89.7621057 L103.915434,89.7479653 L103.846208,89.7203744 L103.776983,89.7065789 L103.707757,89.6927834 L103.624755,89.678643 L103.541753,89.6648475 L103.458407,89.651052 L103.361629,89.6372565 L103.264507,89.6231161 L103.167729,89.6093206 L103.070607,89.5955251 L102.973829,89.5817296 L102.86293,89.5817296 L102.655253,89.5537938 L102.447233,89.5399983 L102.22578,89.5262028 L102.017759,89.5124073 L101.796306,89.4982669 L101.034481,89.4982669 C101.034481,89.4982669 98.1394073,89.3182357 96.0340559,91.0519844 C96.0340559,91.0519844 93.0835332,93.1326898 93.0143077,96.5174142 C93.0143077,96.5174142 93.4437815,100.761943 96.4631853,102.315315 C96.4631853,102.315315 96.5878601,102.717799 101.103706,104.770568 C101.103706,104.770568 104.095558,105.616922 104.054229,107.752809 C104.054229,107.752809 104.511255,110.499492 100.854357,110.596406 C100.854357,110.596406 97.8621608,110.998889 96.2555087,108.36326 C94.9119825,106.199437 95.2167815,104.36843 95.1196591,104.007678 L92.6816119,105.810749 L92.6540594,111.234447 C92.6540594,111.234447 96.1587308,113.495529 100.064635,113.440002 C100.064635,113.440002 104.511255,113.467938 106.644503,111.331705 C106.644503,111.331705 109.026757,109.930773 108.999205,106.019061 C108.971652,102.204262 107.558556,100.3736 104.178904,98.8474731 C104.178904,98.8474731 101.560733,97.987669 100.466556,97.7379705 C100.466556,97.7379705 97.9317308,96.891617 98.0147325,94.9361057 C98.083958,94.1035477 98.485535,92.0369827 101.560733,92.0645737 C105.854781,92.1201005 105.52243,96.7947036 105.52243,97.1413154 L108.057255,95.5186205 L107.627781,90.2890936 C107.627781,90.2890936 106.228806,90.5108562 104.026332,89.7759012" id="Fill-46"></path>
                <path d="M75.1148601,90.2915078 L64.5502185,90.3346187 L64.5502185,92.8867851 L64.5846591,92.8867851 C64.5846591,92.8867851 65.6695367,93.2106343 67.1246503,93.4558492 C67.1129406,95.0264662 67.0388934,106.092867 67.4001748,107.061655 C67.8017517,108.004922 67.903007,109.428272 69.5096591,110.898527 C69.5096591,110.898527 72.6489161,113.852142 77.4137675,113.588648 C77.4137675,113.588648 82.471708,113.769024 84.9648601,110.717461 C84.9648601,110.717461 87.1697448,108.98992 87.3498689,105.466551 L87.3498689,93.3954939 C88.9069266,93.2106343 89.941521,92.8867851 89.941521,92.8867851 L89.9156906,92.8867851 L89.9156906,90.2915078 L80.7286713,90.2915078 L80.7286713,92.8867851 C80.7286713,92.8867851 81.5779755,93.1551075 82.8984266,93.3437608 L82.8984266,105.509662 C82.8984266,105.509662 83.2886381,110.440861 77.7065122,110.898527 C77.7065122,110.898527 72.9278846,111.181334 72.9278846,105.466551 L72.9278846,93.4213605 C74.205285,93.1806291 75.0976399,92.8867851 75.0976399,92.8867851 L75.1148601,92.8867851 L75.1148601,90.2915078" id="Fill-47"></path>
                <path d="M122.074563,90.0155979 L114.101573,110.165641 C112.663336,110.358088 111.716565,110.665728 111.716565,110.665728 L111.742395,110.665728 L111.742395,113.192028 L120.894974,113.192028 L120.894974,110.665728 C120.894974,110.665728 120.004341,110.3674 118.613287,110.174263 L119.732605,107.449653 L126.990953,107.449653 L128.084441,110.165641 C126.939981,110.374298 126.157147,110.606752 126.104108,110.622617 L126.078278,110.622617 L126.078278,113.192028 L136.289904,113.192028 L136.289904,110.665728 L136.281294,110.665728 C136.250297,110.655381 135.080351,110.263589 133.491608,110.027686 L126.009397,90.0155979 L122.074563,90.0155979 L122.074563,90.0155979 Z M123.297203,98.0687175 L125.708042,104.337045 L120.929414,104.337045 L123.297203,98.0687175 L123.297203,98.0687175 Z" id="Fill-48"></path>
            </g>
        </g>
    </g>
</svg>