<?xml version="1.0" encoding="UTF-8" standalone="no"?>
<svg width="211px" height="212px" viewBox="0 0 211 212" version="1.1" xmlns="http://www.w3.org/2000/svg" xmlns:xlink="http://www.w3.org/1999/xlink" xmlns:sketch="http://www.bohemiancoding.com/sketch/ns">
    <!-- Generator: Sketch 3.2.1 (9977) - http://www.bohemiancoding.com/sketch -->
    <title>starbucks</title>
    <desc>Created with Sketch.</desc>
    <defs></defs>
    <g id="Page-1" stroke="none" stroke-width="1" fill="none" fill-rule="evenodd" sketch:type="MSPage">
        <g id="1c" sketch:type="MSLayerGroup" transform="translate(-938.000000, -474.000000)" fill="#7F8C8D">
            <g id="starbucks" transform="translate(938.000000, 475.000000)" sketch:type="MSShapeGroup">
                <g id="g4387">
                    <g id="g4381" transform="translate(0.429530, -0.284281)">
                        <path d="M104.182732,36.9668896 C107.925242,39.1269298 111.895047,41.9067826 114.917074,44.8526823 L113.729849,46.0472174 C107.766564,45.4123746 101.485923,46.2046756 95.8328456,46.2919933 C95.2024228,45.6550033 93.9322852,44.6973712 95.1152215,43.8971973 L104.182732,36.9668896 L104.182732,36.9668896 Z M209.625594,111.141866 C209.704933,113.837264 209.95796,116.1519 208.90797,118.910281 C198.01352,122.012923 190.857292,110.462649 180.286631,112.204709 L181.481718,118.191699 C191.261134,118.513773 197.369517,127.904007 207.472721,127.500341 C206.037473,130.37109 208.113151,137.934094 201.753886,134.910896 C195.15303,133.322716 190.380544,127.500341 183.147121,127.500341 C182.274393,129.104983 182.826906,131.326575 182.673946,133.224662 C190.304779,134.423492 195.792745,140.881425 203.421433,142.073813 C202.703809,144.69907 201.992617,147.638528 199.844034,149.239592 C193.637728,147.727278 188.790191,142.1461 182.182903,142.305706 L181.006399,147.803144 C187.285611,147.964896 191.342617,153.527465 196.985688,155.197237 C197.140792,157.516167 195.070832,159.588174 193.878604,161.658033 C188.868815,160.151445 185.048396,155.8421 179.324557,156.15988 C179.245218,154.000555 180.525362,151.548502 180.042181,149.239592 C173.613584,151.15414 169.302836,145.172876 164.538211,141.584977 C164.400977,129.843605 152.056983,122.141037 151.405117,111.141866 C151.280034,108.948903 151.613829,106.607786 152.611641,104.092033 C156.668648,94.6989365 155.394221,82.5037993 150.945523,73.7462609 C149.593903,71.4416455 147.198725,69.6222876 144.966513,68.2674314 C148.232275,75.1977391 152.212087,83.3862809 150.225755,91.9047692 C149.995601,98.4829431 146.11943,104.800595 146.075114,111.141866 C146.060104,113.402823 146.541856,115.663779 147.840584,117.946923 C153.012624,127.274174 162.317436,136.103284 158.818661,147.800997 C157.856587,151.393906 154.991809,154.172328 154.277044,157.828936 C160.32753,162.846843 166.04851,168.501023 174.076752,168.819518 C176.937242,166.99014 175.348319,158.877465 181.23298,162.619244 L189.825171,166.922863 C189.199037,169.226047 187.27346,171.290181 185.529433,172.876214 C182.269389,171.287318 179.089399,169.382789 175.02453,169.5381 C173.825869,170.811365 172.794463,172.240656 172.885953,174.067886 C175.746443,174.539545 178.370346,175.748395 180.759805,177.423177 C179.65049,179.815826 177.488326,181.315258 175.500564,183.147498 L168.835379,180.761291 C167.72249,182.355913 165.41094,184.031411 166.222198,185.781344 C167.726064,186.426207 169.394326,187.297953 170.501497,188.415191 C167.559523,191.599425 163.830594,193.647813 160.242473,195.809284 C157.151829,185.694027 146.96857,178.601967 147.842728,166.904254 L147.369554,166.431164 C144.975805,169.125846 145.775628,173.435191 145.930017,176.932194 C148.794795,184.25901 155.62795,189.918201 156.664359,197.952863 C155.467842,200.020575 152.770319,200.432829 150.701074,201.308154 C150.941235,186.822 128.997232,175.834997 143.069527,161.18208 C147.762674,154.006997 155.625805,147.159712 152.839651,137.281358 C149.979161,127.743686 139.861661,121.833993 139.951007,111.141866 L139.966732,110.308054 C142.271134,99.1578662 149.271544,87.2933913 143.544846,75.4317793 C141.948775,70.660796 138.382812,65.2392241 133.532416,63.2452308 C140.763695,71.5332575 143.630617,85.0560535 139.493557,96.208388 C137.408587,100.644415 134.538091,105.929284 134.25004,111.144013 L134.232886,111.144013 C134.079211,113.867324 134.634584,116.575605 136.389332,119.143605 C141.880158,128.064328 151.416554,137.863237 145.930732,149.488662 C139.72943,158.800167 128.915748,168.271993 134.954799,180.536555 C139.327732,187.861224 146.092268,195.170147 144.267473,204.174609 L137.111245,206.560816 C141.882302,189.765753 118.502336,179.897418 128.289614,163.096629 C134.332238,154.10004 145.139487,145.658849 139.021812,133.718508 C135.364359,126.32012 127.807148,121.941351 128.045879,112.695692 L128.306054,111.143298 C130.768419,98.0306087 140.722953,85.6186087 133.76257,71.6062609 C131.933487,67.468689 128.278178,63.2502408 124.221171,60.8597391 L123.976007,61.1052308 C132.090735,68.9874448 134.559534,81.9562742 130.184456,92.3814381 C128.143087,98.4979732 123.66294,104.59089 122.752329,111.145445 C122.319181,114.23592 122.684426,117.438763 124.467765,120.812662 C129.635517,129.00693 138.698023,137.699338 133.042802,148.293411 C127.087379,157.043793 117.144997,165.557987 121.116232,176.937204 C125.490594,186.892856 134.624577,196.376849 129.692698,208.721572 L122.30846,210.391344 C128.190262,198.360823 119.370775,186.423344 114.204453,175.989592 C107.919523,161.020328 127.707795,153.852401 128.025151,140.166421 C127.950101,131.333017 118.571668,126.317258 116.589624,118.196709 C112.530473,114.767699 108.323366,119.560154 103.470826,118.670515 C99.8884228,119.391244 94.3861611,113.732769 92.2475839,119.866482 C89.7008758,128.858776 78.0988087,135.469873 83.197943,146.135518 C88.0497685,155.613786 99.7261711,162.544809 95.825698,174.810803 C92.3333557,186.268033 80.797047,197.177023 87.9518456,210.391344 C85.0127315,209.438007 79.5240503,211.26309 79.6033893,206.561532 C75.0732081,190.558769 94.3918792,181.235813 88.4250201,165.241639 C85.6481577,155.444876 72.9961007,150.032609 75.7815403,138.249726 C77.8407785,128.550301 88.7102114,121.769579 87.1856174,111.144729 C87.0619631,110.25509 86.843245,109.344696 86.5308926,108.395652 C82.4738859,96.9305485 74.196906,85.4625819 79.1302148,72.0814983 C80.4846946,68.2595585 83.1900805,64.9958796 85.5673893,61.5797525 C77.6949664,65.7982007 73.7237315,74.7182074 73.886698,83.7928094 C73.5436107,93.6611438 80.8234933,102.114502 81.8591879,111.144729 C82.266604,114.789171 81.6704899,118.52093 79.1302148,122.479572 C73.9660369,129.496482 67.2122215,136.89487 70.3085839,146.134087 C73.2527013,155.453465 84.8604866,161.099057 84.1450067,171.931465 C84.0663826,184.744983 69.1971242,192.723104 73.4113792,207.053231 L66.0107013,204.64913 C63.072302,191.915057 76.5870805,185.399866 76.7421846,173.617699 C78.654896,160.068421 61.3968926,155.041211 62.4325872,141.833331 C62.3582517,131.798234 71.1798826,125.442649 75.0760671,117.001458 C75.7443725,114.947344 75.9666644,113.006314 75.8773188,111.145445 C75.3998557,101.812468 67.0013658,94.5157124 68.3951577,84.0225552 C68.8640436,76.2999465 71.4879463,69.5306756 76.4991644,63.7226154 C69.5852416,66.5038997 66.7290403,74.4734314 64.8191879,81.1625418 C61.5048221,91.8883077 69.416557,101.536201 70.2099463,111.146161 C70.5616107,115.389659 69.5259161,119.608823 65.5382416,123.922462 C59.8101141,130.681712 54.0012181,139.210221 58.136849,148.294843 C62.5162148,158.318488 76.2747282,166.120542 70.3071544,178.622722 C67.0513993,186.506368 59.2554564,192.474033 59.5756711,201.786254 C57.51,200.910214 55.3671342,200.037037 53.6116711,198.448856 C53.6116711,186.58796 70.4615436,179.179552 62.433302,166.679518 C61.7221107,169.145886 61.569151,172.497599 61.012349,175.283893 C58.2261946,182.532696 52.2650537,188.33503 50.0342718,195.828609 C46.3039128,194.387151 42.4034396,191.358227 39.3006443,188.173993 L43.5985268,185.540147 C43.1210638,183.944809 41.8509262,182.592816 40.7401812,181.239391 C37.9490235,180.846462 36.1163658,182.680134 33.8155369,183.398716 C31.8277752,181.643773 29.9093456,180.050582 28.3247114,177.901278 C29.7513826,173.832415 40.8988591,177.19701 35.2515,170.507184 C31.438943,168.120261 27.6120906,171.529946 24.2734228,173.121706 L19.7475302,167.397385 C23.6437148,165.011177 27.5298926,161.659465 32.376,162.620676 C33.5703725,164.774274 33.6532852,167.941331 35.9541141,169.065726 C44.1453221,168.90612 49.9492148,162.702268 56.2284262,157.843967 C51.8519195,151.32305 48.2895302,142.320736 52.1771376,134.434943 C55.2920839,126.532689 63.4082416,119.877217 63.7763456,111.141151 C63.8592584,109.152883 63.5497651,107.060836 62.6813255,104.809184 C58.3898758,93.7405886 56.8752886,78.7813445 65.0664966,68.9845819 C60.6127953,70.1826957 57.9867483,75.7409699 56.4735906,79.9615652 C51.5495738,90.7696388 57.7773221,100.782548 57.9924664,111.140435 C58.0217718,113.003452 57.8709564,114.870763 57.4199396,116.751672 C53.204255,125.270161 46.3739597,132.744415 45.2646443,142.546903 C40.4128188,145.645967 36.4294329,151.065391 29.5162248,149.236729 C29.2732047,151.066107 29.8300067,153.854548 30.4640034,155.926555 C24.981755,155.696094 21.2435336,159.742054 16.6275805,161.653023 C14.1687886,160.86287 13.5290738,157.680067 12.5770067,155.452749 C17.9799161,153.625518 21.8775302,148.201799 28.0809765,148.287686 C28.8000302,146.287251 27.677849,144.454294 27.3612081,142.545472 C19.644604,139.115746 7.41282886,159.499425 6.38428188,141.82689 C14.0951678,141.348789 19.0227584,134.181579 26.6593087,133.467291 L26.8873188,127.74297 C18.2207919,126.866214 12.6456242,135.787652 3.98267114,134.908033 L2.07210403,127.269164 C12.0931107,127.896134 18.0635436,118.903839 27.6070872,118.420013 C28.8750805,116.750241 29.0280403,114.281726 29.2724899,111.974963 C18.8555034,110.615813 11.7071376,122.175391 0.651151007,118.664789 C0.651151007,118.664789 0.270181208,113.853726 0.063614094,111.141151 L0.0786241611,111.141151 C0.0035738255,110.080455 -0.0679026846,109.341117 -0.0679026846,109.341117 C9.79085235,113.171645 18.4530906,106.081017 26.8873188,102.420829 C29.0323289,101.778114 32.3774295,102.892488 33.3395034,100.506281 C33.2558758,98.6747559 36.5916846,96.5333244 33.8148221,95.2550502 C21.4844094,93.5795518 13.2932013,108.471518 0.649721477,101.7001 L-0.298771812,99.7855518 C2.33156376,63.8027759 22.5980134,29.0145351 56.2284262,11.8952508 C69.8489899,4.10107023 86.7703389,0.128113712 103.835356,-0.0128829431 C124.429883,-0.183939799 145.239554,5.22546488 160.719936,16.1981538 C175.752876,25.4316455 190.13252,40.6485485 197.936326,56.095913 C205.399903,69.6301605 208.835064,84.8170033 209.860752,100.985097 C196.817718,110.853431 188.067564,91.6879064 174.785799,95.9772107 C175.501279,98.0513645 175.897258,100.19709 177.415419,101.948455 C189.186886,101.865431 197.293037,114.207291 209.614872,109.343264 L209.625594,111.141866 L209.625594,111.141866 Z M59.8022517,66.8259732 C51.5317047,61.4101271 41.0461007,66.5096254 33.3380738,69.4591037 C32.622594,62.210301 29.6827651,55.6063612 23.5529396,50.8296522 C22.958255,50.5333445 22.1362752,49.9099532 21.3957785,49.8641472 C20.9526242,49.8362341 20.5309128,50.0151639 20.2035503,50.5827291 C22.9818423,67.6977191 11.8708188,79.6402074 3.99696644,92.6233512 C6.61872483,94.7690769 10.8308356,94.4484348 14.0108255,93.8178863 C22.3578523,90.4754783 30.3088993,84.6581137 40.2477081,86.652107 C43.1868221,81.6363478 48.1251342,76.7780468 52.1742785,72.7972174 C54.6480805,70.6536388 58.0467886,69.2923411 59.8022517,66.8259732 L59.8022517,66.8259732 L59.8022517,66.8259732 Z M85.0920705,77.5746421 C84.9333926,78.6052776 85.1714094,80.4425284 86.7581879,79.7325351 C89.2269866,76.3092508 93.5977752,79.0175318 96.2995872,79.2587291 L96.2995872,78.2953712 C94.8171644,75.9642742 91.7672617,74.7933579 88.6701846,74.9100201 C87.9554195,74.9350702 87.2292181,75.0395652 86.5301779,75.2020334 C85.4937685,75.432495 84.7725705,76.3822542 85.0920705,77.5746421 L85.0920705,77.5746421 L85.0920705,77.5746421 Z M123.972433,67.3176722 C121.752372,62.3799264 116.663245,60.3816388 112.045148,59.1878194 C109.781487,58.908689 107.432054,58.7197391 105.101919,58.6975518 C104.665198,58.6932575 104.229191,58.6875318 103.794614,58.6975518 C97.2766711,58.8292441 91.0489228,60.5047425 87.2442282,65.8769298 C86.6981477,67.3935385 84.2972517,69.5235184 86.526604,70.8826689 C91.5363926,70.5620268 97.2530839,69.9329097 100.592466,74.2379599 C100.592466,78.0634783 103.059121,83.1529565 98.926349,84.9844816 C95.5019094,81.8095518 91.4463322,86.3357592 87.7202617,83.7877993 C85.9683725,82.7514381 84.8597718,83.9610033 84.1421477,85.4733177 C83.106453,95.3437993 88.2677718,106.237043 97.4896711,111.728756 C101.227178,113.078602 106.251262,114.362602 110.151735,112.447338 C119.533742,108.072863 123.419919,98.0470702 125.166805,88.81 C124.932362,87.052194 125.01599,83.6267625 122.552909,83.5437391 C119.771758,85.3051237 115.715466,84.2644682 112.767775,83.5437391 C111.025178,84.10701 110.945124,86.6599799 108.961651,87.143806 L107.752983,86.178301 C106.718003,81.8059732 106.079718,75.5935318 110.138869,72.5681873 C114.674768,70.7366622 120.001913,69.9364883 124.692916,71.3736522 C125.568503,69.8620535 124.216883,68.6718127 123.972433,67.3176722 L123.972433,67.3176722 L123.972433,67.3176722 Z M119.185651,75.1683946 C118.87044,75.1762676 118.563805,75.1920134 118.253597,75.2020334 C116.58748,76.3149766 111.732081,75.5148027 113.484685,79.2587291 C116.508141,76.8639331 120.722396,78.5422943 123.743708,79.7325351 C124.860886,79.1771371 124.618581,78.0620468 124.692201,77.1008361 C123.722265,75.2936455 121.404282,75.1240201 119.185651,75.1683946 L119.185651,75.1683946 Z M153.804584,41.5052642 C147.919208,41.192495 142.990903,44.5377659 137.58299,46.0515117 C137.11196,41.4437124 140.607876,36.5775385 141.405554,31.9518462 C132.661832,32.5151171 125.736473,37.7849565 118.50305,41.9948161 C116.82907,37.9445619 115.150087,33.8735518 113.487544,29.8082676 L123.028943,20.7293712 L123.273393,19.5334047 L110.385463,18.8148227 C108.165403,14.9198796 107.29053,10.2283411 104.666628,6.64545151 C102.519473,10.7057258 101.077077,15.002903 98.9320671,19.0595987 L86.0591477,19.7803278 L86.0591477,20.7293712 L95.8292718,29.5627759 C94.6348993,34.1032977 93.5248691,39.0367492 90.585755,42.4686221 C84.8612013,39.0353177 79.2181309,35.2985485 72.9417785,32.9144883 C71.4314799,32.4263679 69.2786074,31.6326355 67.9269866,32.6697124 C69.9118893,37.049913 72.6916107,41.7614916 72.2241544,46.542495 C69.5988221,46.0586689 67.5352953,44.3731505 65.0686409,43.6645886 C62.1188054,42.858689 58.6186007,41.284107 55.7566812,42.2417391 C60.528453,48.9258395 64.4232081,55.9212776 65.7705403,63.9652441 C81.600443,56.3149231 100.061396,52.1072107 119.224248,55.3766154 C128.206701,56.8080535 136.466527,60.4718194 144.498342,63.4900067 C144.812124,55.0552575 150.139268,48.277398 153.804584,41.5052642 L153.804584,41.5052642 L153.804584,41.5052642 Z M180.98853,87.3714047 C189.092537,89.5192776 197.222275,98.3605552 205.803745,92.6240669 C198.330161,80.2056254 187.206272,68.7376589 190.299775,52.4979933 C190.623564,51.3893445 189.908084,50.267097 188.878822,50.1096388 C184.03057,52.093612 180.275909,56.8767625 178.35748,61.5783211 C177.568379,64.3588896 177.100923,67.3148094 175.989463,69.9357726 C170.181282,66.9089967 163.983554,63.9766957 156.907379,64.6852575 C154.355668,65.0037525 150.6975,65.1712308 150.22647,67.7943411 C158.256856,72.0915184 164.86057,79.2630234 169.781728,86.8997458 C173.208312,86.3400535 177.410416,86.8181538 180.98853,87.3714047 L180.98853,87.3714047 L180.98853,87.3714047 Z M96.0701477,98.5945953 L96.2988725,100.033906 C99.4059564,102.106629 100.361597,105.619378 104.663054,105.300167 C108.477755,105.52705 111.339674,101.948455 113.240235,99.0841472 C108.078201,98.3705753 101.796846,99.4749298 96.0701477,98.5945953 L96.0701477,98.5945953 L96.0701477,98.5945953 Z M100.365886,92.1495452 C100.52099,92.7872508 99.9720503,93.7427358 100.83906,94.0648094 C103.383624,93.5115585 107.993144,95.4203813 109.414097,92.3950368 C108.422003,91.2820936 106.802346,90.776796 105.102634,90.776796 C103.403638,90.776796 101.640312,91.2727893 100.365886,92.1495452 L100.365886,92.1495452 Z" id="inner_artwork"></path>
                        <g id="g4377" transform="translate(98.778523, 91.464883)">
                            <path d="M0.518073826,1.75680936 C2.77101342,2.29073579 3.3285302,3.0909097 5.10901007,3.31421405 C7.00170805,3.28057525 6.72866779,2.89551839 10.0301678,1.75466221 C10.2467416,1.67808027 10.5447987,1.19926421 10.1752651,0.832100334 C8.12531879,-1.20555184 6.70865436,0.250220736 5.42350671,0.288869565 C3.71879195,0.307478261 2.11986242,-1.17262876 0.454459732,0.75122408 C0.170697987,1.14200669 0.0227416107,1.52563211 0.518073826,1.75680936 L0.518073826,1.75680936 L0.518073826,1.75680936 Z" id="path3032-6"></path>
                        </g>
                    </g>
                    <g id="text4354" transform="translate(178.406040, 197.969900)">
                        <path d="M3.68675839,12.6481873 L3.68675839,2.4327291 L0.042885906,2.4327291 L0.042885906,0.352849498 L9.80085906,0.352849498 L9.80085906,2.4327291 L6.16556376,2.4327291 L6.16556376,12.6481873 L3.68675839,12.6481873 L3.68675839,12.6481873 Z" id="path4430"></path>
                        <path d="M11.3762013,12.6481873 L11.3762013,0.352133779 L15.086547,0.352133779 L17.3144698,8.73964548 L19.5173758,0.352133779 L23.2362987,0.352133779 L23.2362987,12.6481873 L20.9326107,12.6481873 L20.9326107,2.96951839 L18.4952617,12.6481873 L16.1079463,12.6481873 L13.6791745,2.96951839 L13.6791745,12.6481873 L11.3762013,12.6481873 L11.3762013,12.6481873 Z" id="path4432"></path>
                    </g>
                </g>
            </g>
        </g>
    </g>
</svg>