<?xml version="1.0" encoding="utf-8"?>
<!-- Generator: Adobe Illustrator 16.2.1, SVG Export Plug-In . SVG Version: 6.00 Build 0)  -->
<!DOCTYPE svg PUBLIC "-//W3C//DTD SVG 1.1//EN" "http://www.w3.org/Graphics/SVG/1.1/DTD/svg11.dtd">
<svg version="1.1" id="Layer_1" xmlns="http://www.w3.org/2000/svg" xmlns:xlink="http://www.w3.org/1999/xlink" x="0px" y="0px"
	 width="256.014px" height="256.09px" viewBox="0 0 256.014 256.09" enable-background="new 0 0 256.014 256.09"
	 xml:space="preserve">
<g>
	<path fill="#276691" d="M80.839,196.273c-18.702-30.992-28.998-61.284-33.79-87.957c-1.097-6.092-1.904-11.999-2.459-17.679
		c-1.155-11.846-1.218-22.721-0.493-32.306c0-0.006,0-0.006,0-0.009c-0.651,0.71-1.292,1.426-1.929,2.14
		c-0.104,0.119-0.215,0.235-0.319,0.354c-0.655,0.735-1.303,1.476-1.947,2.218c-0.115,0.132-0.23,0.265-0.348,0.397
		c-2.164,2.503-4.278,5.04-6.326,7.619C19.362,88.492,8.214,107.653,0,128.006c0.689,1.703,1.407,3.393,2.129,5.076
		c7.973,18.471,18.388,35.898,31.098,51.881c2.67,3.363,5.444,6.662,8.314,9.895l17.743,1.334
		C64.107,196.553,71.478,196.814,80.839,196.273z"/>
	<path fill="#F68921" d="M108.338,208.994c-6.084,1.1-11.988,1.918-17.666,2.479c-11.811,1.168-22.654,1.248-32.231,0.547
		c-0.115-0.008-0.23-0.012-0.349-0.023c4.134,3.789,8.378,7.41,12.729,10.871c17.44,13.863,36.602,25.008,56.956,33.223
		c1.786-0.721,3.563-1.471,5.326-2.236c18.377-7.963,35.721-18.338,51.631-30.986c3.414-2.717,6.766-5.531,10.043-8.447
		l1.338-17.764c0.361-4.811,0.621-12.162,0.08-21.504C165.25,193.863,134.992,204.178,108.338,208.994z"/>
	<path fill="#CC2128" d="M175.116,59.808c18.695,30.939,28.998,61.182,33.812,87.825c1.098,6.094,1.912,11.998,2.471,17.678
		c1.166,11.785,1.244,22.609,0.549,32.168c-0.012,0.123-0.02,0.244-0.027,0.367c3.789-4.129,7.416-8.379,10.867-12.729
		c13.869-17.441,25.014-36.6,33.227-56.956c-0.67-1.667-1.369-3.32-2.08-4.97c-7.98-18.508-18.414-35.974-31.146-51.987
		c-2.689-3.384-5.48-6.704-8.363-9.955L196.508,59.9C191.711,59.54,184.404,59.284,175.116,59.808z"/>
	<path fill="#156E39" d="M184.967,33.223C167.528,19.36,148.362,8.215,128.007,0c-1.652,0.667-3.292,1.362-4.929,2.065
		c-18.525,7.983-36.001,18.419-52.031,31.158c-3.326,2.646-6.585,5.388-9.784,8.227L59.9,59.512
		c-0.355,4.775-0.615,12.053-0.092,21.297c30.928-18.663,61.163-28.946,87.791-33.741c6.097-1.096,11.999-1.911,17.681-2.468
		c11.807-1.158,22.65-1.228,32.22-0.517c0.066,0.004,0.129,0.006,0.191,0.013C193.559,40.306,189.314,36.683,184.967,33.223z"/>
</g>
</svg>
