<?xml version="1.0" encoding="UTF-8" standalone="no"?>
<svg width="393px" height="163px" viewBox="0 0 393 163" version="1.1" xmlns="http://www.w3.org/2000/svg" xmlns:xlink="http://www.w3.org/1999/xlink" xmlns:sketch="http://www.bohemiancoding.com/sketch/ns">
    <!-- Generator: Sketch 3.2 (9964) - http://www.bohemiancoding.com/sketch -->
    <title>illo-4</title>
    <desc>Created with Sketch.</desc>
    <defs>
        <path id="path-1" d="M332.338207,-0.327323285 L59.0531276,-0.327323285 L0,76.3420128 L0,89.4487055 L391.391335,89.4487055 L391.391335,76.3420128 L332.338207,-0.327323285"></path>
        <path id="path-3" d="M3.40736546,-0.440362858 L120.241026,6.44128975 C122.239974,6.55826113 123.864919,8.41014422 123.864919,10.5785381 L123.864919,71.7535891 C123.864919,73.921 122.239974,75.5055199 120.241026,75.2912362 L3.40736546,63.9725346 C1.69974586,63.7897054 0.319871108,62.0233392 0.319871108,60.0269621 L0.319871108,2.99407425 C0.319871108,0.9976971 1.69974586,-0.539641091 3.40736546,-0.440362858"></path>
    </defs>
    <g id="Page-1" stroke="none" stroke-width="1" fill="none" fill-rule="evenodd" sketch:type="MSPage">
        <g id="Artboard-3" sketch:type="MSArtboardGroup" transform="translate(-1118.000000, -1583.000000)">
            <g id="illo-4" sketch:type="MSLayerGroup" transform="translate(1118.761267, 1582.887045)">
                <path d="M119.37885,93.8179307 C116.923224,88.1718498 113.562117,80.4428919 113.562117,77.8921293 C113.562117,75.0523787 114.551257,73.7263753 115.92129,71.8902195 C117.228332,70.1405635 118.852293,67.9662719 118.852293,64.8011638 C118.852293,58.1446074 109.639021,55.7825718 101.751492,55.7825718 C93.6592446,55.7825718 84.20976,58.1446074 84.20976,64.8011638 C84.20976,68.0734137 86.0640282,70.3666426 87.4192975,72.0406113 C88.8838151,73.8521933 89.940866,75.1605035 89.940866,77.8921293 C89.940866,80.4428919 86.5797589,88.1718498 84.124133,93.8159648 C80.2659953,102.687114 76.2769565,111.857081 76.2769565,117.995621 C76.2769565,126.99652 85.8002576,132.370323 101.751492,132.370323 C117.702726,132.370323 127.225042,126.99652 127.225042,117.995621 C127.225042,111.857081 123.236988,102.687114 119.37885,93.8179307" id="Fill-1" fill="#F2E4A1" sketch:type="MSShapeGroup"></path>
                <path d="M0,149.080521 L391.391335,149.080521 L391.391335,162.187213 L0,162.187213 L0,149.080521 Z" id="Fill-2" fill="#F2E4A1" sketch:type="MSShapeGroup"></path>
                <path d="M229.311168,149.080521 L154.1513,149.080521 C153.088344,149.216168 152.027356,149.350833 150.977195,149.483531 C144.026641,150.364257 136.864481,151.272505 130.200336,152.627997 C134.742506,152.82852 139.338807,153.162724 144.142779,153.510689 C149.632752,153.906819 155.311694,154.317693 160.926662,154.513301 C164.850743,154.649931 168.805334,154.711857 172.786499,154.711857 C189.743604,154.711857 207.113098,153.603086 224.015087,152.524787 C232.987226,151.952709 242.213293,151.362937 251.285821,150.948131 C247.492642,150.460586 243.436676,150.186342 239.469291,149.917996 C236.214479,149.699781 232.849435,149.46977 229.752098,149.129668 C229.60545,149.112958 229.458801,149.097231 229.311168,149.080521 M76.3094357,162.187213 C76.9235883,162.175418 77.5367566,162.163622 78.1489407,162.149861 C82.5956412,162.050583 87.0561208,162.013231 91.5028213,162.013231 C98.1128347,162.013231 104.694306,162.096782 111.161607,162.187213 L76.3094357,162.187213 M0,161.213107 C1.93103727,161.116778 3.89947486,161.07746 5.88661261,161.07746 C11.0636035,161.07746 16.3527953,161.347772 21.3555794,161.604322 C25.9942026,161.842197 30.3798815,162.067293 34.3078987,162.067293 C34.3669518,162.067293 34.426005,162.067293 34.4850581,162.06631 L35.3373916,162.06631 C40.512414,162.06631 45.7455053,162.117424 50.8191532,162.168537 C51.4283846,162.174435 52.0405687,162.180333 52.6527528,162.187213 L0,162.187213 L0,161.213107 M294.229256,159.737695 C295.343391,159.737695 296.455559,159.729831 297.565757,159.710172 C300.048942,159.667905 302.530157,159.617775 305.013341,159.570593 C313.647893,159.404474 322.486177,159.234423 331.319541,159.234423 C335.391254,159.234423 339.460999,159.269809 343.512043,159.359258 C352.300133,159.551917 360.891379,160.769795 369.203107,161.945407 C369.771001,162.025026 370.340864,162.105628 370.913679,162.187213 L362.591125,162.187213 C356.29803,161.34384 349.867144,160.627267 343.365395,160.484739 C339.340924,160.39529 335.292832,160.359904 331.243756,160.359904 C322.423187,160.359904 313.592776,160.529955 304.963146,160.696074 C302.477993,160.743256 299.993825,160.792403 297.508673,160.83467 C296.383711,160.855312 295.254812,160.864159 294.126897,160.864159 C289.913456,160.864159 285.698047,160.740307 281.593855,160.621369 C277.502457,160.503415 273.326417,160.381529 269.137582,160.381529 C266.328621,160.381529 263.512771,160.436574 260.711685,160.583034 C250.402977,161.124641 240.33934,161.517822 229.945989,161.784203 C224.26311,161.930663 218.550704,162.063361 212.833377,162.187213 L152.811778,162.187213 C159.993623,162.050583 167.211884,161.921816 174.243143,161.797964 C192.520086,161.471624 211.419055,161.13742 229.982406,160.660688 C240.351151,160.393324 250.396088,160.002109 260.686095,159.461485 C263.543282,159.312076 266.407359,159.256048 269.260609,159.256048 C273.470113,159.256048 277.655011,159.377934 281.755267,159.495888 C285.844696,159.615809 290.044357,159.737695 294.229256,159.737695 M275.630473,149.080521 L243.756548,149.080521 C248.392218,149.423571 253.003283,149.869832 257.081886,150.741711 C257.400773,150.8115 257.607459,151.01104 257.611396,151.238102 L257.599585,151.349176 C257.528721,151.619488 257.189166,151.827874 256.794494,151.842618 C246.001551,152.247594 234.850352,152.957286 224.068235,153.645353 C207.127861,154.726601 189.722936,155.836355 172.695951,155.836355 C168.691164,155.836355 164.704094,155.775412 160.752456,155.637799 C155.091229,155.442191 149.391618,155.029351 143.879993,154.629289 C137.707957,154.183029 131.878429,153.761342 126.101065,153.614882 C125.735919,153.608001 125.436717,153.428121 125.374711,153.180417 C125.315658,152.93173 125.503644,152.677145 125.838278,152.557225 L126.769349,152.222038 L126.893361,152.185668 C132.749462,150.837057 139.040589,149.905218 145.304157,149.080521 L104.547657,149.080521 C94.3747717,150.646364 83.9459894,152.181737 73.5880708,153.137167 C72.1078057,153.27478 70.6275407,153.410428 69.149244,153.549024 C58.0915459,154.577193 46.661813,155.639765 35.2862122,156.223639 L11.3529638,157.444466 C10.2299701,157.50246 9.00953884,157.619432 7.71725956,157.741318 C5.73897979,157.928079 3.60617766,158.129584 1.58459226,158.129584 C1.0472088,158.129584 0.516714867,158.11484 0,158.082402 L0,156.947092 C0.53836768,156.989359 1.09838817,157.007052 1.67415617,157.007052 C3.55007719,157.007052 5.59134697,156.814393 7.59127956,156.624683 C8.91013274,156.500831 10.1551695,156.38386 11.3283583,156.3239 L35.2616067,155.101106 C46.5860282,154.521164 57.9941082,153.460558 69.0262167,152.434356 C70.507466,152.295759 71.9847784,152.158146 73.4679961,152.022498 C81.3151725,151.298062 89.2214021,150.23549 97.0292098,149.080521 L35.1464531,149.080521 C31.916247,149.39998 28.6279721,149.731235 25.3711921,150.090996 C23.0572937,150.345581 20.4638772,150.702393 17.7179067,151.080829 C12.2013604,151.838686 5.90432854,152.704668 0,152.971048 L0,151.84655 C5.79311182,151.585084 12.0310905,150.727949 17.4925206,149.976973 C19.9087778,149.644735 22.2079129,149.329208 24.3151253,149.080521 L0,149.080521 L0,162.187213 L391.391335,162.187213 L391.391335,160.073865 C385.293115,159.658076 379.210643,159.291434 373.222656,158.928725 C366.013254,158.49426 358.557796,158.04505 351.250956,157.521136 C326.658281,155.756736 304.382457,153.357348 283.15581,150.183394 C280.675579,149.81282 278.167789,149.444213 275.630473,149.080521 M329.40622,149.080521 L283.570166,149.080521 C283.575087,149.081503 283.580008,149.081503 283.58493,149.082486 C304.758428,152.247594 326.976183,154.640102 351.513742,156.402536 C358.806804,156.925467 366.253403,157.373693 373.4569,157.808159 C379.368118,158.16497 385.370869,158.526697 391.391335,158.935605 L391.391335,154.594886 C382.531398,154.377653 373.387021,154.139779 364.333192,153.448763 C355.483097,152.777406 346.714691,151.526107 338.234662,150.317075 C335.341059,149.904235 332.370687,149.479599 329.40622,149.080521 M391.391335,149.080521 L337.7209,149.080521 C338.031913,149.124753 338.341942,149.168986 338.650987,149.213219 C347.095584,150.418319 355.827573,151.663721 364.602868,152.330163 C373.548433,153.013315 382.606198,153.251189 391.391335,153.468422 L391.391335,149.080521" id="Fill-3" fill="#E3CD91" sketch:type="MSShapeGroup"></path>
                <path d="M332.338207,72.4111845 L59.0531276,72.4111845 L0,149.080521 L391.391335,149.080521 L332.338207,72.4111845" id="Fill-4" fill="#F2E4A1" sketch:type="MSShapeGroup"></path>
                <g id="Group-25" transform="translate(0.000000, 72.738508)">
                    <mask id="mask-2" sketch:name="Clip 6" fill="white">
                        <use xlink:href="#path-1"></use>
                    </mask>
                    <g id="Clip-6"></g>
                    <path d="M243.756548,76.3420128 L229.311168,76.3420128 C229.458801,76.358723 229.60545,76.3744502 229.752098,76.3911604 C232.849435,76.7312621 236.214479,76.961273 239.469291,77.1794886 C243.436676,77.4478347 247.492642,77.7220785 251.285821,78.2096231 C242.213293,78.6244292 232.987226,79.2142009 224.015087,79.7862794 C207.113098,80.8645786 189.743604,81.9733494 172.786499,81.9733494 C168.805334,81.9733494 164.850743,81.9114234 160.926662,81.7747929 C155.311694,81.5791853 149.632752,81.168311 144.142779,80.7721811 C139.338807,80.4242158 134.742506,80.0900118 130.200336,79.8894894 C136.864481,78.5339975 144.026641,77.6257491 150.977195,76.7450234 C152.027356,76.6123248 153.088344,76.4776602 154.1513,76.3420128 L145.304157,76.3420128 C139.040589,77.1667102 132.749462,78.0985494 126.893361,79.4471607 L126.769349,79.4835299 L125.838278,79.8187168 C125.503644,79.9386371 125.315658,80.1932219 125.374711,80.4419089 C125.436717,80.689613 125.735919,80.8694934 126.101065,80.8763741 C131.878429,81.022834 137.707957,81.4445208 143.879993,81.8907814 C149.391618,82.2908432 155.091229,82.7036833 160.752456,82.8992909 C164.704094,83.0369043 168.691164,83.0978474 172.695951,83.0978474 C189.722936,83.0978474 207.127861,81.9880937 224.068235,80.9068456 C234.850352,80.2187786 246.001551,79.5090867 256.794494,79.1041101 C257.189166,79.0893659 257.528721,78.8809799 257.599585,78.6106678 L257.611396,78.4995942 C257.607459,78.2725321 257.400773,78.0729927 257.081886,78.003203 C253.003283,77.1313239 248.392218,76.6850633 243.756548,76.3420128" id="Fill-5" fill="#E1BF85" sketch:type="MSShapeGroup" mask="url(#mask-2)"></path>
                    <path d="M189.594003,71.6887142 C179.736068,71.6887142 170.142887,72.9518085 161.073311,74.2728971 C157.727951,74.7594587 154.193622,75.2067023 150.777398,75.6392015 C148.963483,75.8692125 147.134804,76.1011893 145.304157,76.3420128 L154.1513,76.3420128 C156.559684,76.0333656 158.979878,75.7139059 161.315429,75.3738042 C170.298394,74.0654941 179.797089,72.8151781 189.507392,72.8151781 C191.231743,72.8151781 192.962,72.8544962 194.698162,72.9400131 C203.782501,73.3852907 212.900304,74.4468797 221.721857,75.4730825 C224.206025,75.7610876 226.772868,76.0599053 229.311168,76.3420128 L243.756548,76.3420128 C242.408168,76.2417516 241.058804,76.1513199 239.719282,76.0599053 C236.339475,75.8308773 233.149622,75.6156106 230.100512,75.2784578 C227.423437,74.983572 224.708961,74.6670612 222.082081,74.3623458 C213.225096,73.3322113 204.068909,72.2657075 194.908785,71.816498 C193.130301,71.7290152 191.357723,71.6887142 189.594003,71.6887142" id="Fill-7" fill="#EFD494" sketch:type="MSShapeGroup" mask="url(#mask-2)"></path>
                    <path d="M63.1858624,13.3376866 C59.2539083,13.3376866 54.9666512,13.7760836 51.1636298,14.16435 C49.9363089,14.2911509 48.74442,14.413037 47.6204421,14.5152641 L46.6913396,15.7213472 C48.1263306,15.6053588 49.6863174,15.4461204 51.3083099,15.2790184 C55.0611362,14.8956668 59.3060719,14.4612017 63.1209039,14.4612017 C65.6670779,14.4612017 68.0213293,14.6548434 69.9100452,15.184655 C65.1070574,16.247227 59.8158972,17.1682537 54.9814145,17.1682537 C51.9195098,17.1682537 49.0406698,16.7986635 46.5840597,15.8619095 L45.7986531,16.8812315 C48.4895073,17.8946559 51.5986545,18.2927518 54.8780715,18.2927518 C60.5766983,18.2927518 66.7881031,17.0906005 72.1963854,15.8284891 C72.4975564,15.7586994 72.7239267,15.579802 72.7810114,15.3674842 L72.7947904,15.2544446 C72.7898693,15.0814449 72.6727473,14.9212236 72.4680298,14.8239113 C70.1088573,13.7072769 66.7969611,13.3376866 63.1858624,13.3376866" id="Fill-8" fill="#EFD494" sketch:type="MSShapeGroup" mask="url(#mask-2)"></path>
                    <path d="M66.3146939,9.22108029 C60.8699955,9.22108029 55.3898653,9.65456248 50.9953284,10.1332605 L50.0426046,11.3707981 C54.5345792,10.8527819 60.4024916,10.3475442 66.2152878,10.3475442 C66.7369238,10.3475442 67.2585597,10.351476 67.7792115,10.3603226 C70.8371793,10.4094702 73.3479214,11.2361335 76.0062964,12.1080127 C76.6263542,12.3144328 77.2729859,12.5257676 77.9314283,12.7312048 C78.7089612,12.9730112 79.5927896,13.1548574 80.5287817,13.3484991 C82.0799105,13.6659929 83.674345,13.9952821 84.7067905,14.5948833 C82.743274,15.9179378 77.8202116,16.6236979 74.7799597,17.0561971 C74.2120655,17.1377822 73.6983033,17.2124866 73.265247,17.2803104 C68.5095018,18.0283374 64.5096366,18.6023819 60.4290655,18.9719721 C59.6033059,19.0437277 58.6368031,19.1479207 57.6132155,19.2540796 C54.4489521,19.5882836 50.3841285,20.0178339 46.8035405,20.0178339 C45.6352728,20.0178339 44.5191687,19.9716351 43.5024707,19.8625274 L42.6855691,20.9231335 C43.9217479,21.0843377 45.2868594,21.1501956 46.7129924,21.1501956 C50.3496808,21.1501956 54.3908832,20.723594 57.7657695,20.3667822 C58.780499,20.2606233 59.7361755,20.1583962 60.5452033,20.0856577 C64.6877802,19.7121356 68.7339037,19.1331764 73.5359072,18.3763027 C73.9581371,18.3094619 74.4610729,18.2377064 75.0161723,18.1580872 C78.802462,17.6164802 84.5237258,16.7986635 86.4665737,14.8406215 C86.5709009,14.7364285 86.6210961,14.6165082 86.6181434,14.4995369 C86.6142065,14.3786337 86.5561376,14.2626452 86.4449209,14.1692647 C85.1870893,13.1135734 83.004092,12.663381 81.0769916,12.267251 C80.1921789,12.0834389 79.3546087,11.913388 78.6695924,11.7010702 C78.0239449,11.4995649 77.3891238,11.289213 76.773987,11.0886906 C73.9610897,10.1627491 71.3056674,9.28890403 67.9140494,9.23385868 C67.3825713,9.22599505 66.8481405,9.22108029 66.3146939,9.22108029" id="Fill-9" fill="#EFD494" sketch:type="MSShapeGroup" mask="url(#mask-2)"></path>
                    <path d="M90.8040259,18.162019 C89.6150896,18.3753198 88.4369797,18.5925524 87.2765858,18.8068361 C82.7196528,19.6492266 78.0072132,20.5191399 73.2376889,20.9683493 C66.1867455,21.6318424 59.0797015,21.7763365 51.8171511,21.8716829 L42.1511383,21.6170981 L41.2988048,22.7229201 L51.6813289,22.9971639 L51.7285714,22.9971639 C59.0531276,22.9008345 66.2182405,22.7573234 73.3626847,22.0840007 C78.2365361,21.6239788 83.0011393,20.7442361 87.6092517,19.8939819 C88.4881591,19.7308117 89.3788771,19.5656756 90.2755004,19.4034884 C90.453644,18.9867164 90.6308034,18.5728933 90.8040259,18.162019 M112.921391,13.6070157 C113.078866,14.0218218 113.240278,14.4454745 113.404642,14.8769907 C113.782582,14.9398997 114.166427,14.9988769 114.544367,15.0558882 C115.2845,15.1689277 116.031522,15.2839332 116.735238,15.4244955 C115.72543,15.5119783 114.714637,15.5925804 113.706797,15.6682678 C113.845572,16.0280285 113.984347,16.391721 114.126074,16.7613113 C115.980343,16.6197661 117.849374,16.4644595 119.699705,16.2747496 C120.028435,16.2413292 120.306968,16.0732443 120.40539,15.8530629 L120.441806,15.6771143 C120.43787,15.5149271 120.333542,15.3615865 120.144572,15.2642741 C118.763713,14.5339402 116.841534,14.2410203 114.982345,13.955964 C114.248118,13.8448903 113.550306,13.7377484 112.921391,13.6070157 M62.4171875,5.87609188 C62.0205473,5.87609188 61.6229229,5.87707484 61.2223459,5.8800237 C58.7608147,5.89968275 56.4016422,5.96062583 54.1310494,6.06285292 L53.2314735,7.23060085 C55.7500894,7.10281699 58.3809062,7.02811257 61.1445926,7.00648761 C61.5402485,7.00353875 61.933936,7.00157285 62.3256551,7.00157285 C71.0940604,7.00157285 78.9363157,7.79088395 89.0560533,9.67520449 C90.637693,9.96812442 92.2380327,10.2246751 93.7881773,10.4723792 C93.9131731,10.0919765 94.0302951,9.71943736 94.137575,9.35967663 C92.6327044,9.1188532 91.0835441,8.86918318 89.5639102,8.58609277 C79.3004767,6.67424956 71.335194,5.87609188 62.4171875,5.87609188" id="Fill-10" fill="#EFD494" sketch:type="MSShapeGroup" mask="url(#mask-2)"></path>
                    <path d="M323.600313,36.2640779 C324.054038,36.8656451 324.395562,37.4721269 324.619964,38.0854895 C325.207542,38.3548186 325.7902,38.6310283 326.366952,38.9141187 C326.654344,39.054681 326.998821,39.2149023 327.378729,39.3908508 C329.320593,40.2941844 332.577373,41.8069488 332.603947,43.0611966 C332.609852,43.3609972 332.407103,43.6431047 331.98881,43.9252121 C330.559724,44.8835911 326.675997,45.322971 323.556023,45.6738852 C322.450745,45.7997031 321.391726,45.9196234 320.506913,46.0542879 C319.631943,46.6420937 318.634929,47.2151552 317.522762,47.7705235 C318.353443,47.6122681 319.175265,47.4510638 319.990198,47.2869107 C320.900601,47.1050644 322.271618,46.947792 323.724325,46.7865877 C327.25767,46.3865259 331.259504,45.9343677 333.084245,44.7115744 C333.85981,44.1915923 334.242671,43.6106672 334.229876,42.9786286 C334.191491,41.1640977 330.806763,39.5923561 328.338342,38.4452502 C327.971229,38.2751994 327.639547,38.1198928 327.355108,37.9822794 C326.128771,37.3807123 324.876845,36.8076508 323.600313,36.2640779" id="Fill-11" fill="#EFD494" sketch:type="MSShapeGroup" mask="url(#mask-2)"></path>
                    <path d="M349.022684,52.3677938 C348.435106,52.3677938 347.845559,52.3717256 347.256996,52.3786063 C340.592851,52.4562595 333.842094,52.9035031 327.314755,53.3369852 C321.226377,53.7409789 314.93033,54.1597167 308.740578,54.2727563 C303.906095,54.3612221 299.117871,54.4133186 294.369999,54.4290458 C292.063974,54.8330394 289.657559,55.2065615 287.153707,55.549612 C288.560156,55.5564927 289.969557,55.5594415 291.382895,55.5594415 C297.09038,55.5594415 302.856918,55.5053791 308.688414,55.3992202 C314.935251,55.2822489 321.257872,54.862528 327.373808,54.4565685 C333.87162,54.0260352 340.588914,53.5787916 347.189085,53.5040872 C347.777648,53.4972066 348.366211,53.4942577 348.955758,53.4942577 C357.999744,53.4942577 367.035857,54.2973301 375.607418,55.8494126 L374.559225,54.488023 C366.310488,53.0902641 357.670031,52.3677938 349.022684,52.3677938 M66.2753251,49.7777131 C65.1424893,49.821946 64.0096535,49.8720766 62.8778019,49.9300708 C57.6880162,50.1954681 52.3889822,50.5788197 47.2631707,50.9484099 C38.9711274,51.5480111 30.3946448,52.1662885 22.0652011,52.3039018 C20.8713437,52.3235609 19.6686284,52.3392881 18.4767394,52.3530495 L17.6027531,53.48836 C19.0593969,53.4716498 20.539662,53.4529737 22.006148,53.4293828 C30.404487,53.2898035 39.0114803,52.6695603 47.3379713,52.0689761 C52.4500037,51.6993859 57.7372271,51.3170172 62.9014231,51.0526029 C64.0598486,50.9936258 65.2182742,50.9415293 66.3776839,50.8972964 C66.3078044,50.5906151 66.2713883,50.280002 66.2713883,49.9664401 C66.2713883,49.9035311 66.2723725,49.8406221 66.2753251,49.7777131 M168.288619,48.197125 C159.979844,48.2158011 151.532294,48.6384708 143.28454,49.052294 C141.448972,49.1437086 139.598641,49.2361061 137.740436,49.3245719 C137.773899,49.5378726 137.790631,49.7511734 137.790631,49.9664401 C137.790631,50.1276443 137.780789,50.2888486 137.762089,50.4480869 C139.620294,50.3596212 141.470625,50.2662407 143.305209,50.1748261 C151.711422,49.7531393 160.321368,49.321623 168.759076,49.321623 C169.795458,49.321623 170.828888,49.3285037 171.859365,49.342265 C170.617281,48.968743 169.42736,48.5873573 168.288619,48.197125" id="Fill-12" fill="#EFD494" sketch:type="MSShapeGroup" mask="url(#mask-2)"></path>
                    <path d="M80.3289853,39.303368 C61.5402485,40.0700712 43.3184218,41.0864444 26.3150579,42.1765391 L25.4046555,43.3590313 C42.5556522,42.2541923 60.9723543,41.2211089 79.9648244,40.4426103 C80.0740726,40.0612246 80.1961158,39.6818048 80.3289853,39.303368 M128.396263,38.0550179 C126.437667,38.0550179 124.489898,38.0648475 122.563782,38.0884383 C122.711415,38.4590116 122.85019,38.8325336 122.979123,39.2080216 C124.761543,39.1883625 126.5479,39.179516 128.346068,39.179516 C133.198266,39.179516 138.130187,39.241442 143.24714,39.3053339 C146.54132,39.3476009 149.854201,39.3888849 153.174955,39.4134587 C152.919058,39.0389537 152.707451,38.6614998 152.540134,38.283063 C149.474292,38.2584892 146.41534,38.2191711 143.372136,38.1818189 C138.429389,38.1189099 133.377394,38.0550179 128.396263,38.0550179 M306.228851,26.9997477 C309.289772,27.9561608 312.028853,28.9666363 314.403773,30.0213447 C323.853257,32.2723066 333.379511,34.9813245 342.992376,37.803382 C350.739162,40.0799007 358.800898,42.1205108 366.462057,43.9753427 L365.309537,42.4802715 C358.20643,40.7463427 350.814947,38.8531756 343.701013,36.7644009 C331.076439,33.0586688 318.599497,29.5455955 306.228851,26.9997477" id="Fill-13" fill="#EFD494" sketch:type="MSShapeGroup" mask="url(#mask-2)"></path>
                    <path d="M83.8977627,32.138625 C72.0467842,32.6969422 60.3021013,33.5462134 48.9530744,34.4112119 C46.2149777,34.6215638 43.4788494,34.8328986 40.7446896,35.0481653 C37.6060159,35.2958694 34.4319103,35.5455394 31.2371361,35.7863629 L30.3178757,36.9806505 C33.8522054,36.7162362 37.3648823,36.4400265 40.8313009,36.1677486 C43.5644765,35.9524819 46.2986363,35.7391811 49.0347645,35.5298122 C60.1406894,34.6834898 71.6216016,33.8519117 83.2048726,33.2935945 C83.436164,32.8964816 83.6694239,32.5101812 83.8977627,32.138625 M119.730216,31.576376 C119.868007,31.9567787 120.004813,32.3361985 120.138667,32.7097206 C122.013604,32.7362603 123.884604,32.763783 125.727061,32.7913057 C132.49455,32.8935328 139.351602,32.9967428 146.222434,32.9967428 C148.557985,32.9967428 150.896489,32.9849474 153.23204,32.9574247 C153.50959,32.5730901 153.835366,32.1926874 154.208385,31.8191653 C151.571663,31.8555346 148.931988,31.8702789 146.293297,31.8702789 C139.446087,31.8702789 132.606751,31.7680518 125.858947,31.6668077 C123.83933,31.6363361 121.786249,31.6048816 119.730216,31.576376 M303.37068,19.6639709 C303.250605,20.0040726 303.069509,20.3795606 302.839202,20.7786394 C303.686614,20.8022303 304.537963,20.8268041 305.392265,20.8513779 C307.790807,20.9192017 310.200174,20.9899743 312.631195,21.0509173 C319.730365,21.2288318 327.120864,21.2917408 334.267276,21.3517009 C339.211992,21.3929849 344.184265,21.4352519 349.161459,21.5138881 L348.281568,20.3716969 C343.636055,20.3028902 338.9994,20.2645551 334.384398,20.225237 C327.246844,20.1652768 319.865203,20.1023679 312.78867,19.9254364 C310.360602,19.8644933 307.952218,19.7956866 305.555646,19.7258969 C304.825355,19.7052549 304.097033,19.6846129 303.37068,19.6639709" id="Fill-14" fill="#EFD494" sketch:type="MSShapeGroup" mask="url(#mask-2)"></path>
                    <path d="M87.1437162,26.3431352 C80.3280011,27.0213727 73.4394537,27.5334911 66.6217702,27.5334911 L66.3658733,27.5334911 C58.3700798,27.5157979 50.2925962,27.3005313 42.4818358,27.0931282 C41.0104287,27.0538101 39.5213057,27.014492 38.0233247,26.9751739 L37.1709912,28.0829617 C38.902232,28.1271946 40.6255992,28.1733934 42.3243608,28.2195922 C50.1489002,28.4269952 58.2421313,28.6432448 66.265483,28.6579891 L66.5351589,28.6579891 C73.2780419,28.6579891 80.062262,28.1674957 86.7697131,27.5089173 C86.8149872,27.4037413 86.8582928,27.3005313 86.9035668,27.1963383 C86.9212828,27.1334293 86.931125,27.0803499 86.931125,27.036117 C86.931125,26.8002083 87.0039572,26.5682314 87.1437162,26.3431352 M200.203882,17.6243438 C198.90176,17.7108437 197.602591,17.7973435 196.306375,17.8838434 C182.812736,18.7802963 168.857497,19.7072208 155.169967,20.4070832 C142.044425,21.0804059 128.595075,22.1891767 116.625006,23.2694418 C116.762797,23.6321514 116.901571,23.994861 117.039362,24.3585535 C128.911009,23.2881179 142.214695,22.1950744 155.192604,21.5296153 C168.898835,20.8297529 182.862931,19.9008625 196.366413,19.0024437 C199.76492,18.7763645 203.187049,18.5493024 206.621973,18.3242062 L200.203882,17.6243438 M303.539966,13.87143 L303.539966,14.9988769 C307.714037,15.0863597 311.878267,15.225939 316.005097,15.4323591 C325.678983,15.9149889 335.465071,16.1538464 345.150768,16.3062041 L344.270876,15.1649959 C334.937529,15.0116553 325.520524,14.7737807 316.219656,14.308844 C312.021963,14.0994751 307.783917,13.9579299 303.539966,13.87143" id="Fill-15" fill="#EFD494" sketch:type="MSShapeGroup" mask="url(#mask-2)"></path>
                    <path d="M336.97191,5.68736495 C333.175778,5.81219995 329.381614,5.9675065 325.598277,6.1611482 C318.254037,6.53565322 310.786769,6.83053906 303.539966,7.11362947 L303.539966,8.23812748 C310.79169,7.95405412 318.266831,7.65818532 325.624851,7.28269735 C329.678848,7.07529431 333.744656,6.91212414 337.815385,6.78434028 L336.97191,5.68736495 M110.117351,5.68736495 C110.223647,6.06678473 110.361438,6.5110794 110.526786,7.01435124 C112.381055,7.49698106 114.170364,8.02384377 115.894716,8.59493935 C126.110907,11.9782629 137.905785,14.1152023 150.001834,14.7718148 C156.238828,15.1119165 162.646093,15.2524787 169.124221,15.2524787 C171.975503,15.2524787 174.842532,15.224956 177.712514,15.1758084 L168.072091,14.1250318 C162.025051,14.1102876 156.046906,13.9677594 150.223283,13.6512486 C138.318172,13.0024997 126.712264,10.9019296 116.666343,7.57266843 C114.575862,6.88066965 112.393849,6.25157986 110.117351,5.68736495 M72.8745122,1.86859329 C71.6885285,1.86859329 70.4838447,1.87743986 69.2663661,1.89415006 C65.2891379,1.94722951 61.1938035,2.09762129 56.9961104,2.34237654 L56.0876764,3.52191991 C60.5826036,3.24571017 64.9594246,3.07664229 69.2004234,3.01864807 C70.4070756,3.00193787 71.5969962,2.99407425 72.7721534,2.99407425 C80.8545581,2.99407425 88.2037199,3.38037471 94.8875497,4.16182219 C94.8599916,3.75586268 94.8147175,3.36661337 94.7546802,2.99407425 C88.1161244,2.2411324 80.844716,1.86859329 72.8745122,1.86859329" id="Fill-16" fill="#EFD494" sketch:type="MSShapeGroup" mask="url(#mask-2)"></path>
                    <path d="M351.73716,26.1042777 C349.706717,26.1042777 347.7058,26.2084707 345.757047,26.4492941 C345.406665,26.4925441 345.122225,26.6852028 345.055299,26.9289751 C344.988372,27.1707815 345.150768,27.4047243 345.460797,27.5108832 C349.107327,28.7484208 352.811927,29.9063392 356.452552,30.9797236 L355.200626,29.3558856 C353.037313,28.7032049 350.860221,28.0210357 348.693955,27.3113438 C349.661442,27.2553155 350.639756,27.2297587 351.627912,27.2297587 C352.277496,27.2297587 352.932002,27.2405712 353.588475,27.2621961 L352.702679,26.1121413 C352.379855,26.1062436 352.058999,26.1042777 351.73716,26.1042777" id="Fill-17" fill="#EFD494" sketch:type="MSShapeGroup" mask="url(#mask-2)"></path>
                    <path d="M104.547657,76.3420128 L97.0292098,76.3420128 C89.2214021,77.4969823 81.3151725,78.5595543 73.4679961,79.2839905 C71.9847784,79.419638 70.507466,79.5572514 69.0262167,79.6958477 C57.9941082,80.7220505 46.5860282,81.7826565 35.2616067,82.3625987 L11.3283583,83.585392 C10.1551695,83.6453521 8.91013274,83.7623235 7.59127956,83.8861756 C5.59134697,84.0758854 3.55007719,84.2685442 1.67415617,84.2685442 C1.09838817,84.2685442 0.53836768,84.250851 0,84.2085841 L0,85.3438946 C0.516714867,85.376332 1.0472088,85.3910763 1.58459226,85.3910763 C3.60617766,85.3910763 5.73897979,85.189571 7.71725956,85.0028099 C9.00953884,84.8809238 10.2299701,84.7639524 11.3529638,84.7059582 L35.2862122,83.4851308 C46.661813,82.9012568 58.0915459,81.8386849 69.149244,80.8105162 C70.6275407,80.6719199 72.1078057,80.5362724 73.5880708,80.398659 C83.9459894,79.4432289 94.3747717,77.9078566 104.547657,76.3420128 M283.570166,76.3420128 L275.630473,76.3420128 C278.167789,76.7057053 280.675579,77.0743126 283.15581,77.4448858 C304.382457,80.6188404 326.658281,83.0182282 351.250956,84.7826285 C358.557796,85.3065424 366.013254,85.7557518 373.222656,86.1902169 C379.210643,86.5529265 385.293115,86.9195679 391.391335,87.335357 L391.391335,86.1970976 C385.370869,85.7881892 379.368118,85.4264626 373.4569,85.0696507 C366.253403,84.6351856 358.806804,84.1869591 351.513742,83.6640282 C326.976183,81.9015938 304.758428,79.5090867 283.58493,76.3439787 C283.580008,76.3429957 283.575087,76.3429957 283.570166,76.3420128" id="Fill-18" fill="#E1BF85" sketch:type="MSShapeGroup" mask="url(#mask-2)"></path>
                    <path d="M184.972112,67.9387492 C168.84175,67.9387492 153.375736,68.7693443 138.199082,70.4393811 C128.273235,71.5304588 118.234204,73.0864731 108.523901,74.5884249 C104.727769,75.1762307 100.891284,75.7709172 97.0292098,76.3420128 L104.547657,76.3420128 C105.965916,76.1237972 107.380239,75.9045988 108.787672,75.6863832 C118.473369,74.1863973 128.487795,72.6372636 138.35951,71.5491349 C154.360939,69.7886664 170.023797,69.0534177 185.237851,69.0534177 C217.83124,69.0534177 248.350881,72.4308435 275.630473,76.3420128 L283.570166,76.3420128 C256.03763,72.2263894 233.145685,69.7817857 211.531256,68.6523729 C202.447901,68.1776067 193.615521,67.9387492 184.972112,67.9387492" id="Fill-19" fill="#EFD494" sketch:type="MSShapeGroup" mask="url(#mask-2)"></path>
                    <path d="M35.1464531,76.3420128 L24.3151253,76.3420128 C22.2079129,76.5906998 19.9087778,76.9062277 17.4925206,77.2384657 C12.0310905,77.9894417 5.79311182,78.8465765 0,79.108042 L0,80.23254 C5.90432854,79.9661598 12.2013604,79.1001783 17.7179067,78.3423217 C20.4638772,77.9638849 23.0572937,77.607073 25.3711921,77.3524882 C28.6279721,76.9927275 31.916247,76.6614724 35.1464531,76.3420128 M337.7209,76.3420128 L329.40622,76.3420128 C332.370687,76.7410916 335.341059,77.1657272 338.234662,77.5785674 C346.714691,78.7875993 355.483097,80.0388983 364.333192,80.710255 C373.387021,81.4012709 382.531398,81.6391454 391.391335,81.856378 L391.391335,80.7299141 C382.606198,80.5126815 373.548433,80.2748069 364.602868,79.5916547 C355.827573,78.9252127 347.095584,77.6798115 338.650987,76.4747114 C338.341942,76.4304785 338.031913,76.3862456 337.7209,76.3420128" id="Fill-20" fill="#E1BF85" sketch:type="MSShapeGroup" mask="url(#mask-2)"></path>
                    <path d="M189.603845,62.0410324 C168.991351,62.0410324 147.628882,62.9797523 125.293021,64.8552262 C104.56931,66.5960357 84.115275,68.9649519 62.7626483,72.1015543 C54.4469837,73.3204158 46.0033706,74.150028 37.8363231,74.9511345 C33.706541,75.3551281 29.4360157,75.773866 25.2078118,76.2397857 C24.9145145,76.2722231 24.6172805,76.3066265 24.3151253,76.3420128 L35.1464531,76.3420128 C36.0932716,76.2486322 37.0361532,76.1562347 37.9711611,76.0638371 C46.1637983,75.2607647 54.6379221,74.4301695 63.0096872,73.2004956 C84.313103,70.0737227 104.718911,67.7087382 125.393411,65.9738265 C147.664314,64.1032674 168.956903,63.1665133 189.504439,63.1665133 C214.779178,63.1665133 238.926002,64.5839313 262.37403,67.422699 C275.261391,68.9816621 288.362328,70.7804658 301.032176,72.5202922 C309.549606,73.6900061 318.358364,74.899038 327.026379,76.0274679 C327.817691,76.129695 328.611955,76.2348709 329.40622,76.3420128 L337.7209,76.3420128 C334.337156,75.8593829 330.862864,75.3679065 327.416129,74.91968 C318.755988,73.7941991 309.952151,72.5841842 301.437674,71.4154533 C288.760936,69.6736609 275.651142,67.8748573 262.745081,66.3119623 C239.20552,63.4623821 214.971101,62.0410324 189.603845,62.0410324" id="Fill-21" fill="#EFD494" sketch:type="MSShapeGroup" mask="url(#mask-2)"></path>
                    <path d="M83.6615501,60.2294503 C80.3329222,60.4309557 76.9255567,60.6363928 73.5654338,60.8310175 C61.5471381,61.5298969 48.8635105,62.4469919 34.7980397,63.6353818 C24.6694441,64.4915337 15.8754491,65.3496515 7.74973878,66.2805078 L6.79406233,67.5209943 C15.2111015,66.5419733 24.3249675,65.6465033 34.8994142,64.7529992 C48.9452006,63.5665751 61.6081596,62.6504631 73.6057867,61.9555155 C77.5131353,61.7264875 81.4795371,61.485664 85.3189746,61.2527042 C86.4114575,61.1858634 87.5059087,61.1200056 88.6013443,61.0531648 C86.8838825,60.820205 85.2343318,60.5439952 83.6615501,60.2294503 M141.232444,57.8664318 C136.976682,57.8664318 132.707141,57.9263919 128.435632,58.0315679 C127.226027,58.4738966 125.917016,58.8867368 124.522378,59.2641907 C130.06845,59.0931569 135.612555,58.9928957 141.133038,58.9928957 C142.152689,58.9928957 143.175292,58.9958446 144.193959,59.0027252 C198.621258,59.3811621 247.729839,60.0220473 297.61989,64.067881 C299.324556,64.2084433 301.029223,64.3490056 302.737827,64.4944826 C311.089908,65.1972938 319.730365,65.923696 328.2911,66.0072469 C328.794036,66.0111788 329.297956,66.0141276 329.803844,66.0141276 C332.357892,66.0141276 334.934577,65.9590823 337.438429,65.9050198 C339.938345,65.8519404 342.479598,65.796895 345.025772,65.796895 C347.641826,65.796895 350.2628,65.8548893 352.848343,66.0288719 C363.341099,66.7405297 376.302277,68.5344186 387.220216,70.9269257 L386.122812,69.5026271 C375.444038,67.2605118 363.143272,65.5904749 353.098335,64.9102716 C350.443896,64.7303912 347.765837,64.6714141 345.098604,64.6714141 C342.539635,64.6714141 339.991493,64.7254765 337.484688,64.7795389 C334.987724,64.8326183 332.419898,64.8876637 329.883566,64.8876637 C329.390472,64.8876637 328.899347,64.8856978 328.409206,64.880783 C319.934098,64.8001809 311.338915,64.0757447 303.026203,63.3758823 C301.3176,63.2313882 299.610964,63.089843 297.904329,62.9492808 C247.935541,58.8965663 198.780701,58.2537152 144.30616,57.8772443 C143.282572,57.8693806 142.258,57.8664318 141.232444,57.8664318" id="Fill-22" fill="#EFD494" sketch:type="MSShapeGroup" mask="url(#mask-2)"></path>
                    <path d="M91.5028213,89.2747228 C87.0561208,89.2747228 82.5956412,89.3120751 78.1489407,89.4113533 C77.5367566,89.4251146 76.9235883,89.4369101 76.3094357,89.4487055 L111.161607,89.4487055 C104.694306,89.3582738 98.1128347,89.2747228 91.5028213,89.2747228 M5.88661261,88.3389518 C3.89947486,88.3389518 1.93103727,88.3782699 0,88.4745993 L0,89.4487055 L52.6527528,89.4487055 C52.0405687,89.4418248 51.4283846,89.4359271 50.8191532,89.4300294 C45.7455053,89.3789158 40.512414,89.3278023 35.3373916,89.3278023 L34.4850581,89.3278023 C34.426005,89.3287853 34.3669518,89.3287853 34.3078987,89.3287853 C30.3798815,89.3287853 25.9942026,89.1036891 21.3555794,88.8658145 C16.3527953,88.6092638 11.0636035,88.3389518 5.88661261,88.3389518 M331.319541,86.4959153 C322.486177,86.4959153 313.647893,86.6659661 305.013341,86.8320851 C302.530157,86.8792669 300.048942,86.9293974 297.565757,86.9716644 C296.455559,86.9913235 295.343391,86.9991871 294.229256,86.9991871 C290.044357,86.9991871 285.844696,86.877301 281.755267,86.7573807 C277.655011,86.6394264 273.470113,86.5175402 269.260609,86.5175402 C266.407359,86.5175402 263.543282,86.5735685 260.686095,86.7229774 C250.396088,87.2636014 240.351151,87.6548166 229.982406,87.9221798 C211.419055,88.3989119 192.520086,88.7331159 174.243143,89.0594562 C167.211884,89.1833082 159.993623,89.3120751 152.811778,89.4487055 L212.833377,89.4487055 C218.550704,89.3248534 224.26311,89.1921548 229.945989,89.0456948 C240.33934,88.7793146 250.402977,88.3861335 260.711685,87.8445265 C263.512771,87.6980665 266.328621,87.6430212 269.137582,87.6430212 C273.326417,87.6430212 277.502457,87.7649073 281.593855,87.8828617 C285.698047,88.001799 289.913456,88.125651 294.126897,88.125651 C295.254812,88.125651 296.383711,88.1168044 297.508673,88.0961624 C299.993825,88.0538955 302.477993,88.0047478 304.963146,87.9575661 C313.592776,87.7914471 322.423187,87.6213962 331.243756,87.6213962 C335.292832,87.6213962 339.340924,87.6567825 343.365395,87.7462312 C349.867144,87.8887594 356.29803,88.605332 362.591125,89.4487055 L370.913679,89.4487055 C370.340864,89.3671204 369.771001,89.2865183 369.203107,89.2068991 C360.891379,88.0312875 352.300133,86.813409 343.512043,86.6207503 C339.460999,86.5313016 335.391254,86.4959153 331.319541,86.4959153" id="Fill-23" fill="#E1BF85" sketch:type="MSShapeGroup" mask="url(#mask-2)"></path>
                    <path d="M333.245657,0.850254179 C326.538206,1.16185022 319.851424,1.52062799 313.261095,1.874491 C310.069273,2.04454184 306.788872,2.22049039 303.539966,2.38857532 L303.539966,3.51307333 C306.798714,3.34400545 310.088957,3.1680569 313.29259,2.99604016 C320.146689,2.62841581 327.1061,2.25489374 334.081259,1.93543408 L333.245657,0.850254179 M128.373626,-0.327323285 L115.881921,-0.327323285 C117.395649,-0.188726939 118.903472,-0.0501305932 120.400469,0.0884657527 C129.240722,0.902350677 138.380178,1.74375828 147.391685,2.33549587 C150.578586,2.54486482 153.783202,2.73654062 156.997661,2.91543803 L156.997661,1.78111049 C153.865877,1.60614489 150.743935,1.4184009 147.639709,1.21492967 C141.236381,0.795208821 134.760221,0.247704108 128.373626,-0.327323285" id="Fill-24" fill="#EFD494" sketch:type="MSShapeGroup" mask="url(#mask-2)"></path>
                </g>
                <path d="M124.522378,132.002698 C112.478492,132.374255 100.429686,133.0751 88.6013443,133.791673 C92.747858,134.353922 97.2811698,134.663552 102.03101,134.663552 C110.55336,134.663552 118.378884,133.666838 124.522378,132.002698 M137.762089,123.186595 C132.517187,123.437248 127.212248,123.655463 122.05002,123.731151 C121.725228,123.736065 121.402404,123.739997 121.077612,123.743929 C118.002912,126.525685 112.106458,128.39133 101.744602,128.39133 C90.8158366,128.39133 84.808165,126.365464 81.8328716,123.389083 C81.4667422,123.3881 81.1015971,123.387117 80.7354677,123.387117 C75.9629907,123.387117 71.1668926,123.451992 66.3776839,123.635804 C67.2910389,127.603002 73.9925847,131.027609 83.6615501,132.967958 C84.200902,132.934538 84.7373013,132.9021 85.2717321,132.869663 C99.4336563,132.009579 113.949899,131.126887 128.435632,130.770076 C133.944304,128.754039 137.416628,126.104982 137.762089,123.186595 M79.9303767,113.303004 C71.7495501,115.456654 66.4485477,118.778051 66.2753251,122.516221 C71.1472082,122.327494 76.0200754,122.261636 80.8644003,122.261636 L80.8781794,122.261636 C79.0121006,119.631254 79.0475324,116.444521 79.9303767,113.303004 M123.341315,113.100516 C123.962357,115.299381 124.183806,117.528718 123.648391,119.577192 C123.468279,120.470696 123.091323,121.271803 122.587403,121.987392 C122.451581,122.196761 122.303948,122.402198 122.145489,122.604687 C127.261458,122.528999 132.528013,122.311767 137.740436,122.06308 C137.159747,118.392734 131.630406,115.160785 123.341315,113.100516" id="Fill-26" fill="#E3CD91" sketch:type="MSShapeGroup"></path>
                <path d="M80.8644003,122.261636 C76.0200754,122.261636 71.1472082,122.327494 66.2753251,122.516221 C66.2723725,122.57913 66.2713883,122.642039 66.2713883,122.704948 C66.2713883,123.01851 66.3078044,123.329123 66.3776839,123.635804 C71.1668926,123.451992 75.9629907,123.387117 80.7354677,123.387117 C81.1015971,123.387117 81.4667422,123.3881 81.8328716,123.389083 C81.4706791,123.026373 81.1537607,122.649902 80.8781794,122.261636 L80.8644003,122.261636 M137.740436,122.06308 C132.528013,122.311767 127.261458,122.528999 122.145489,122.604687 C121.83546,122.998851 121.481142,123.379253 121.077612,123.743929 C121.402404,123.739997 121.725228,123.736065 122.05002,123.731151 C127.212248,123.655463 132.517187,123.437248 137.762089,123.186595 C137.780789,123.027356 137.790631,122.866152 137.790631,122.704948 C137.790631,122.489681 137.773899,122.27638 137.740436,122.06308" id="Fill-27" fill="#E0BE85" sketch:type="MSShapeGroup"></path>
                <path d="M128.435632,130.770076 C113.949899,131.126887 99.4336563,132.009579 85.2717321,132.869663 C84.7373013,132.9021 84.200902,132.934538 83.6615501,132.967958 C85.2343318,133.282503 86.8838825,133.558713 88.6013443,133.791673 C100.429686,133.0751 112.478492,132.374255 124.522378,132.002698 C125.917016,131.625245 127.226027,131.212404 128.435632,130.770076" id="Fill-28" fill="#E0BE85" sketch:type="MSShapeGroup"></path>
                <path d="M171.859365,122.080773 C187.614739,126.819588 211.400355,130.138037 238.066779,130.726826 C240.874755,130.789735 243.647299,130.819223 246.388349,130.819223 C261.41048,130.819223 275.334223,129.90606 287.153707,128.28812 C262.628943,128.173114 239.118909,127.058446 215.812608,124.911677 C203.562036,123.782264 191.035884,122.899572 178.587484,122.28621 C176.366103,122.177102 174.119131,122.111244 171.859365,122.080773 M223.383219,116.936981 C222.514153,117.324264 221.65493,117.741036 221.072273,118.131268 L221.900001,118.198109 C223.036774,118.067376 224.210947,118.01528 225.404804,118.01528 C227.928341,118.01528 230.544395,118.250206 233.102379,118.479234 C234.155493,118.57458 235.18597,118.666978 236.19381,118.742665 L223.383219,116.936981 M285.91556,112.351506 C282.528863,112.351506 279.037839,112.697505 275.616694,113.035641 C275.328318,113.063164 275.036989,113.093635 274.748613,113.123124 C276.96409,113.372794 279.392157,113.519254 281.867468,113.519254 C285.040589,113.519254 288.29048,113.27843 291.259868,112.705369 C289.525674,112.450784 287.736364,112.351506 285.91556,112.351506 M194.68832,110.230294 C182.994816,111.811865 170.810187,112.173591 158.653117,112.173591 C156.825423,112.173591 154.999697,112.164745 153.174955,112.151966 C155.339252,115.31904 160.631397,118.312132 168.288619,120.935633 C168.479557,120.935633 168.670496,120.93465 168.861434,120.93465 C172.204825,120.93465 175.522627,121.002474 178.797123,121.162695 C191.27997,121.778023 203.837618,122.664647 216.1187,123.797008 C240.675943,126.056817 265.463493,127.172468 291.432106,127.172468 C292.410419,127.172468 293.387749,127.170502 294.369999,127.167554 C304.230887,125.439523 312.200107,123.167919 317.522762,120.509031 C311.163724,121.719046 304.337183,122.712811 296.877789,122.712811 C295.302054,122.712811 293.697778,122.668579 292.064959,122.572249 C285.510061,122.189881 278.854774,121.817341 272.417983,121.457581 C269.088371,121.27082 265.753838,121.085042 262.413399,120.895332 L260.286502,120.774429 C257.46081,120.612241 254.593781,120.448088 251.707067,120.316373 C251.007287,120.462832 250.277981,120.541469 249.56836,120.541469 C249.165814,120.541469 248.769174,120.515912 248.388281,120.462832 L245.86376,120.107004 C244.303773,120.068668 242.742802,120.04606 241.184784,120.04606 C240.923966,120.04606 240.663148,120.047043 240.403314,120.048026 C240.337372,120.049009 240.271429,120.049009 240.205486,120.049009 C237.824661,120.049009 235.271597,119.817032 232.798256,119.595868 C230.293419,119.371755 227.729529,119.140761 225.301461,119.140761 C224.152878,119.140761 223.034805,119.192857 221.966928,119.320641 L221.733668,119.325556 L219.491617,119.146659 C219.252452,119.125034 219.043798,119.032636 218.924707,118.892074 C218.805617,118.750529 218.787901,118.57458 218.874512,118.415342 C219.216036,117.79215 220.11266,117.19648 221.219906,116.632265 L197.500233,113.28826 C195.382194,112.989442 194.477697,111.898365 195.251293,110.73848 C195.009175,110.589072 194.820205,110.417055 194.68832,110.230294 M281.77003,114.640803 C277.566432,114.640803 273.497671,114.235826 270.319629,113.619515 C270.037158,113.563487 269.829488,113.404248 269.781261,113.200777 C269.733034,112.998289 269.850156,112.787937 270.085385,112.652289 L270.377698,112.485187 C270.507614,112.411466 270.664105,112.363301 270.829454,112.351506 C272.350072,112.233552 273.87069,112.082177 275.480872,111.922938 C278.967959,111.576939 282.523942,111.225042 286.012013,111.225042 C288.521771,111.225042 290.996097,111.406888 293.383812,111.906228 C293.703683,111.974052 293.914306,112.173591 293.917258,112.405568 L293.916274,112.455699 L293.920211,112.774176 C293.974343,113.046454 293.728288,113.318731 293.345427,113.411129 C289.783539,114.283991 285.716747,114.640803 281.77003,114.640803 M285.118342,107.923304 C282.875308,107.923304 280.313386,108.308621 277.973898,108.663467 C276.505444,108.881683 275.120648,109.092034 273.831321,109.208023 C271.116846,109.454744 263.902522,110.111356 263.336596,112.877386 L263.31888,113.059232 C263.324786,113.373777 263.536393,113.651952 263.956654,113.910469 C265.240075,114.693882 268.05002,115.007444 269.720239,115.007444 C269.969247,115.007444 270.193649,115.000564 270.383603,114.986802 L270.641468,114.996632 L274.735818,115.635551 C276.028098,115.731881 277.330219,115.911761 278.586082,116.085744 C279.513216,116.213527 280.471845,116.346226 281.412759,116.443538 C282.259187,116.530038 283.127268,116.562476 284.006175,116.562476 C285.499235,116.562476 287.020837,116.467129 288.508976,116.373749 C289.215645,116.329516 289.919362,116.2843 290.62111,116.25088 L291.063024,116.230238 C293.677109,116.103437 301.235909,115.740727 303.304737,114.174883 C302.289023,113.791532 301.208351,113.482885 300.06961,113.160476 C298.624777,112.746653 297.128764,112.319068 295.740032,111.715535 C294.844393,111.32432 293.931037,110.845622 293.050162,110.382651 C291.297268,109.459659 289.486305,108.505212 287.618258,108.133655 C286.858441,107.984247 286.013982,107.923304 285.118342,107.923304 M269.614928,116.132925 C267.680938,116.132925 264.508801,115.791841 262.842518,114.772519 C261.952785,114.229929 261.568939,113.547759 261.727399,112.784988 C262.480326,109.113659 270.643437,108.370547 273.73782,108.090405 C274.934631,107.981298 276.283995,107.777826 277.718001,107.56256 C280.142132,107.197884 282.792633,106.798806 285.207906,106.798806 C286.24232,106.798806 287.234413,106.871544 288.145799,107.052407 C290.292381,107.475077 292.219481,108.49145 294.083591,109.471454 C294.975294,109.940323 295.818769,110.387566 296.662245,110.754208 C297.939761,111.309576 299.37672,111.718484 300.764469,112.114614 C302.150249,112.511727 303.584255,112.919653 304.896219,113.480919 C305.122589,113.576265 305.248569,113.74435 305.254475,113.922265 L305.183611,114.162105 C303.760431,116.444521 297.255729,117.055918 291.08074,117.35277 L290.643747,117.373412 C289.951841,117.407815 289.255998,117.453031 288.56114,117.495298 C287.033632,117.591627 285.473645,117.689923 283.916611,117.689923 C282.967824,117.689923 282.021006,117.653553 281.08403,117.558207 C280.102763,117.45598 279.12445,117.322298 278.178616,117.191566 C276.886336,117.011685 275.661968,116.840651 274.423821,116.752186 L274.333273,116.742356 L270.314708,116.116215 C270.108022,116.127028 269.872793,116.132925 269.614928,116.132925 M285.099642,105.224115 C284.085897,105.224115 283.040657,105.265399 281.939316,105.343052 C274.35591,105.879745 267.152413,107.055356 260.529604,108.83745 C259.918404,109.001603 259.309173,109.169688 258.699942,109.341704 C257.935204,112.098887 256.894884,114.781365 256.149831,116.561493 C256.806305,116.574271 257.458842,116.583118 258.101537,116.590981 C260.108359,116.619487 262.183092,116.645044 264.238141,116.789538 C268.499808,117.090321 273.546882,117.437304 278.686473,117.729241 C280.621447,117.840314 282.552484,118.022161 284.416594,118.198109 C287.415509,118.482183 290.303207,118.755443 293.2224,118.755443 C294.649517,118.755443 296.083524,118.690569 297.541152,118.529364 C300.419008,118.209905 303.431702,117.308537 306.090076,116.513328 C306.524117,116.383578 307.016226,116.247931 307.536878,116.101471 C309.5063,115.555932 311.959957,114.876712 313.233536,113.973378 C313.419554,113.841662 313.58195,113.733538 313.720725,113.643106 L313.841784,113.561521 C313.751236,113.485833 313.634114,113.393436 313.519944,113.302021 L313.259126,113.094618 C312.375298,112.380994 310.563351,111.862978 308.967932,111.405905 C308.171699,111.178843 307.419756,110.962594 306.784935,110.729634 L305.412934,110.223413 C302.600037,109.183449 299.692654,108.106133 296.761651,107.188055 C292.415341,105.82175 288.991243,105.224115 285.099642,105.224115 M277.184555,102.347012 C276.207225,102.347012 275.217101,102.35291 274.217135,102.366671 C269.458437,102.430563 264.538327,103.073414 259.688097,104.073077 C259.607391,105.320444 259.365273,106.6838 259.032607,108.060917 C259.362321,107.969502 259.69105,107.880054 260.020763,107.791588 C266.786283,105.972142 274.135445,104.771957 281.868452,104.224452 C283.042625,104.140901 284.154792,104.097651 285.23448,104.097651 C289.339657,104.097651 292.945834,104.724775 297.50572,106.156937 C300.479045,107.090742 303.411033,108.173956 306.24263,109.222767 L307.615616,109.728988 C308.182526,109.937374 308.900021,110.144777 309.660822,110.362992 C311.412732,110.862332 313.399869,111.432445 314.51991,112.331847 L314.77187,112.534335 C315.296459,112.948158 315.584835,113.178169 315.591725,113.520237 C315.600583,113.909486 315.233469,114.15031 314.810255,114.432417 C314.685259,114.514985 314.535658,114.615246 314.362435,114.736149 C312.828038,115.823295 310.186395,116.558544 308.063435,117.144384 C307.558531,117.284946 307.081185,117.416662 306.658955,117.544446 C304.042901,118.325893 300.790058,119.298033 297.704532,119.641084 C296.167183,119.811135 294.646565,119.878959 293.142678,119.878959 C290.063058,119.878959 287.050364,119.593902 284.104597,119.313761 C282.258203,119.139778 280.351771,118.957932 278.458134,118.849807 C273.306733,118.556887 268.246864,118.210888 263.978307,117.911087 C261.987232,117.769542 259.948915,117.743002 257.975557,117.717445 C257.216724,117.707616 256.446081,117.696803 255.6715,117.680093 C255.388045,118.32491 255.21187,118.697449 255.21187,118.697449 C254.984516,118.918614 254.709919,119.125034 254.398905,119.312778 C256.453954,119.418937 258.495224,119.535908 260.515825,119.650913 L262.640754,119.771817 C265.981192,119.961527 269.315725,120.148288 272.643369,120.336032 C279.082129,120.696775 285.7384,121.068331 292.295266,121.452666 C293.87789,121.545064 295.432955,121.588313 296.962431,121.588313 C305.206248,121.588313 312.691232,120.340946 319.621116,118.947119 C319.889808,118.893057 320.187042,118.841943 320.506913,118.792796 C323.334574,116.892748 324.885703,114.830513 324.93393,112.654255 C324.947709,112.03991 324.841413,111.428513 324.619964,110.823997 C312.058379,105.061928 296.864994,102.347012 277.184555,102.347012 M204.8553,101.316878 C195.520969,102.693012 186.091168,103.943328 176.870023,104.690372 C169.095678,105.319462 161.173701,105.600586 153.23204,105.695932 C152.498797,106.711323 152.107078,107.760133 152.083456,108.83745 C152.066725,109.571715 152.222231,110.300083 152.540134,111.021571 C154.595183,111.038281 156.655153,111.04811 158.715123,111.04811 C170.827903,111.04811 182.953479,110.689333 194.552497,109.114642 C194.646982,108.860058 194.824142,108.597609 195.088897,108.337127 C195.088897,108.337127 199.733425,104.68644 204.8553,101.316878 M299.331446,97.8136339 C299.148381,97.9895824 298.963348,98.1615992 298.779299,98.3267353 C301.258546,98.7543197 303.74173,99.22712 306.228851,99.7382555 C304.084239,99.0688646 301.779198,98.4260135 299.331446,97.8136339 M262.918303,97.1933907 C261.357332,97.3054473 259.795377,97.4469925 258.239327,97.6140945 C258.947965,99.3421255 259.429248,100.733004 259.587707,101.606849 C259.661523,102.015757 259.701876,102.454154 259.713687,102.916142 C264.571791,101.935155 269.501743,101.306065 274.282093,101.242173 C275.296823,101.228412 276.296789,101.221531 277.287898,101.221531 C296.27151,101.222514 311.173567,103.720197 323.600313,109.002586 C321.943873,106.812567 318.794373,104.710031 314.403773,102.759852 C308.77601,101.420088 303.172852,100.241527 297.598237,99.2998585 C297.183881,99.6094887 296.783304,99.873903 296.410285,100.077374 C295.857154,100.419442 295.208553,100.611118 294.510742,100.611118 C294.370983,100.611118 294.23024,100.603254 294.087528,100.587527 L262.918303,97.1933907 M209.069725,91.3290942 C181.694663,93.0512275 160.732771,98.0171051 154.208385,104.557673 C161.799664,104.452497 169.360433,104.171373 176.775538,103.571771 C186.773232,102.761818 197.043555,101.353247 207.175103,99.8355678 C208.87977,98.7818424 210.567706,97.8224805 212.090292,97.0990272 C213.855981,96.2605685 215.203376,94.4027876 216.272238,92.1134906 L209.069725,91.3290942" id="Fill-29" fill="#E3CD91" sketch:type="MSShapeGroup"></path>
                <path d="M281.867468,113.519254 C279.392157,113.519254 276.96409,113.372794 274.748613,113.123124 C275.036989,113.093635 275.328318,113.063164 275.616694,113.035641 C279.037839,112.697505 282.528863,112.351506 285.91556,112.351506 C287.736364,112.351506 289.525674,112.450784 291.259868,112.705369 C288.29048,113.27843 285.040589,113.519254 281.867468,113.519254 M286.012013,111.225042 C282.523942,111.225042 278.967959,111.576939 275.480872,111.922938 C273.87069,112.082177 272.350072,112.233552 270.829454,112.351506 C270.664105,112.363301 270.507614,112.411466 270.377698,112.485187 L270.085385,112.652289 C269.850156,112.787937 269.733034,112.998289 269.781261,113.200777 C269.829488,113.404248 270.037158,113.563487 270.319629,113.619515 C273.497671,114.235826 277.566432,114.640803 281.77003,114.640803 C285.716747,114.640803 289.783539,114.283991 293.345427,113.411129 C293.728288,113.318731 293.974343,113.046454 293.920211,112.774176 L293.916274,112.455699 L293.917258,112.405568 C293.914306,112.173591 293.703683,111.974052 293.383812,111.906228 C290.996097,111.406888 288.521771,111.225042 286.012013,111.225042" id="Fill-30" fill="#E0BE85" sketch:type="MSShapeGroup"></path>
                <path d="M269.720239,115.007444 C268.05002,115.007444 265.240075,114.693882 263.956654,113.910469 C263.536393,113.651952 263.324786,113.373777 263.31888,113.059232 L263.336596,112.877386 C263.902522,110.111356 271.116846,109.454744 273.831321,109.208023 C275.120648,109.092034 276.505444,108.881683 277.973898,108.663467 C280.313386,108.308621 282.875308,107.923304 285.118342,107.923304 C286.013982,107.923304 286.858441,107.984247 287.618258,108.133655 C289.486305,108.505212 291.297268,109.459659 293.050162,110.382651 C293.931037,110.845622 294.844393,111.32432 295.740032,111.715535 C297.128764,112.319068 298.624777,112.746653 300.06961,113.160476 C301.208351,113.482885 302.289023,113.791532 303.304737,114.174883 C301.235909,115.740727 293.677109,116.103437 291.063024,116.230238 L290.62111,116.25088 C289.919362,116.2843 289.215645,116.329516 288.508976,116.373749 C287.020837,116.467129 285.499235,116.562476 284.006175,116.562476 C283.127268,116.562476 282.259187,116.530038 281.412759,116.443538 C280.471845,116.346226 279.513216,116.213527 278.586082,116.085744 C277.330219,115.911761 276.028098,115.731881 274.735818,115.635551 L270.641468,114.996632 L270.383603,114.986802 C270.193649,115.000564 269.969247,115.007444 269.720239,115.007444 M285.207906,106.798806 C282.792633,106.798806 280.142132,107.197884 277.718001,107.56256 C276.283995,107.777826 274.934631,107.981298 273.73782,108.090405 C270.643437,108.370547 262.480326,109.113659 261.727399,112.784988 C261.568939,113.547759 261.952785,114.229929 262.842518,114.772519 C264.508801,115.791841 267.680938,116.132925 269.614928,116.132925 C269.872793,116.132925 270.108022,116.127028 270.314708,116.116215 L274.333273,116.742356 L274.423821,116.752186 C275.661968,116.840651 276.886336,117.011685 278.178616,117.191566 C279.12445,117.322298 280.102763,117.45598 281.08403,117.558207 C282.021006,117.653553 282.967824,117.689923 283.916611,117.689923 C285.473645,117.689923 287.033632,117.591627 288.56114,117.495298 C289.255998,117.453031 289.951841,117.407815 290.643747,117.373412 L291.08074,117.35277 C297.255729,117.055918 303.760431,116.444521 305.183611,114.162105 L305.254475,113.922265 C305.248569,113.74435 305.122589,113.576265 304.896219,113.480919 C303.584255,112.919653 302.150249,112.511727 300.764469,112.114614 C299.37672,111.718484 297.939761,111.309576 296.662245,110.754208 C295.818769,110.387566 294.975294,109.940323 294.083591,109.471454 C292.219481,108.49145 290.292381,107.475077 288.145799,107.052407 C287.234413,106.871544 286.24232,106.798806 285.207906,106.798806" id="Fill-31" fill="#E0BE85" sketch:type="MSShapeGroup"></path>
                <path d="M285.23448,104.097651 C284.154792,104.097651 283.042625,104.140901 281.868452,104.224452 C274.135445,104.771957 266.786283,105.972142 260.020763,107.791588 C259.69105,107.880054 259.362321,107.969502 259.032607,108.060917 C258.930249,108.487518 258.818048,108.915103 258.699942,109.341704 C259.309173,109.169688 259.918404,109.001603 260.529604,108.83745 C267.152413,107.055356 274.35591,105.879745 281.939316,105.343052 C283.040657,105.265399 284.085897,105.224115 285.099642,105.224115 C288.991243,105.224115 292.415341,105.82175 296.761651,107.188055 C299.692654,108.106133 302.600037,109.183449 305.412934,110.223413 L306.784935,110.729634 C307.419756,110.962594 308.171699,111.178843 308.967932,111.405905 C310.563351,111.862978 312.375298,112.380994 313.259126,113.094618 L313.519944,113.302021 C313.634114,113.393436 313.751236,113.485833 313.841784,113.561521 L313.720725,113.643106 C313.58195,113.733538 313.419554,113.841662 313.233536,113.973378 C311.959957,114.876712 309.5063,115.555932 307.536878,116.101471 C307.016226,116.247931 306.524117,116.383578 306.090076,116.513328 C303.431702,117.308537 300.419008,118.209905 297.541152,118.529364 C296.083524,118.690569 294.649517,118.755443 293.2224,118.755443 C290.303207,118.755443 287.415509,118.482183 284.416594,118.198109 C282.552484,118.022161 280.621447,117.840314 278.686473,117.729241 C273.546882,117.437304 268.499808,117.090321 264.238141,116.789538 C262.183092,116.645044 260.108359,116.619487 258.101537,116.590981 C257.458842,116.583118 256.806305,116.574271 256.149831,116.561493 C255.970703,116.99006 255.808307,117.367514 255.6715,117.680093 C256.446081,117.696803 257.216724,117.707616 257.975557,117.717445 C259.948915,117.743002 261.987232,117.769542 263.978307,117.911087 C268.246864,118.210888 273.306733,118.556887 278.458134,118.849807 C280.351771,118.957932 282.258203,119.139778 284.104597,119.313761 C287.050364,119.593902 290.063058,119.878959 293.142678,119.878959 C294.646565,119.878959 296.167183,119.811135 297.704532,119.641084 C300.790058,119.298033 304.042901,118.325893 306.658955,117.544446 C307.081185,117.416662 307.558531,117.284946 308.063435,117.144384 C310.186395,116.558544 312.828038,115.823295 314.362435,114.736149 C314.535658,114.615246 314.685259,114.514985 314.810255,114.432417 C315.233469,114.15031 315.600583,113.909486 315.591725,113.520237 C315.584835,113.178169 315.296459,112.948158 314.77187,112.534335 L314.51991,112.331847 C313.399869,111.432445 311.412732,110.862332 309.660822,110.362992 C308.900021,110.144777 308.182526,109.937374 307.615616,109.728988 L306.24263,109.222767 C303.411033,108.173956 300.479045,107.090742 297.50572,106.156937 C292.945834,104.724775 289.339657,104.097651 285.23448,104.097651" id="Fill-32" fill="#E0BE85" sketch:type="MSShapeGroup"></path>
                <path d="M320.506913,118.792796 C320.187042,118.841943 319.889808,118.893057 319.621116,118.947119 C312.691232,120.340946 305.206248,121.588313 296.962431,121.588313 C295.432955,121.588313 293.87789,121.545064 292.295266,121.452666 C285.7384,121.068331 279.082129,120.696775 272.643369,120.336032 C269.315725,120.148288 265.981192,119.961527 262.640754,119.771817 L260.515825,119.650913 C258.495224,119.535908 256.453954,119.418937 254.398905,119.312778 C253.660741,119.760021 252.713923,120.107004 251.707067,120.316373 C254.593781,120.448088 257.46081,120.612241 260.286502,120.774429 L262.413399,120.895332 C265.753838,121.085042 269.088371,121.27082 272.417983,121.457581 C278.854774,121.817341 285.510061,122.189881 292.064959,122.572249 C293.697778,122.668579 295.302054,122.712811 296.877789,122.712811 C304.337183,122.712811 311.163724,121.719046 317.522762,120.509031 C318.634929,119.953663 319.631943,119.380601 320.506913,118.792796 M221.219906,116.632265 C220.11266,117.19648 219.216036,117.79215 218.874512,118.415342 C218.787901,118.57458 218.805617,118.750529 218.924707,118.892074 C219.043798,119.032636 219.252452,119.125034 219.491617,119.146659 L221.733668,119.325556 L221.966928,119.320641 C223.034805,119.192857 224.152878,119.140761 225.301461,119.140761 C227.729529,119.140761 230.293419,119.371755 232.798256,119.595868 C235.271597,119.817032 237.824661,120.049009 240.205486,120.049009 C240.271429,120.049009 240.337372,120.049009 240.403314,120.048026 C240.663148,120.047043 240.923966,120.04606 241.184784,120.04606 C242.742802,120.04606 244.303773,120.068668 245.86376,120.107004 L236.19381,118.742665 C235.18597,118.666978 234.155493,118.57458 233.102379,118.479234 C230.544395,118.250206 227.928341,118.01528 225.404804,118.01528 C224.210947,118.01528 223.036774,118.067376 221.900001,118.198109 L221.072273,118.131268 C221.65493,117.741036 222.514153,117.324264 223.383219,116.936981 L221.219906,116.632265 M277.287898,101.221531 C276.296789,101.221531 275.296823,101.228412 274.282093,101.242173 C269.501743,101.306065 264.571791,101.935155 259.713687,102.916142 C259.723529,103.287698 259.713687,103.673999 259.688097,104.073077 C264.538327,103.073414 269.458437,102.430563 274.217135,102.366671 C275.217101,102.35291 276.207225,102.347012 277.184555,102.347012 C296.864994,102.347012 312.058379,105.061928 324.619964,110.823997 C324.395562,110.210635 324.054038,109.604153 323.600313,109.002586 C311.173567,103.720197 296.27151,101.222514 277.287898,101.221531" id="Fill-33" fill="#E0BE85" sketch:type="MSShapeGroup"></path>
                <path d="M168.861434,120.93465 C168.670496,120.93465 168.479557,120.935633 168.288619,120.935633 C169.42736,121.325865 170.617281,121.707251 171.859365,122.080773 C174.119131,122.111244 176.366103,122.177102 178.587484,122.28621 C191.035884,122.899572 203.562036,123.782264 215.812608,124.911677 C239.118909,127.058446 262.628943,128.173114 287.153707,128.28812 C289.657559,127.945069 292.063974,127.571547 294.369999,127.167554 C293.387749,127.170502 292.410419,127.172468 291.432106,127.172468 C265.463493,127.172468 240.675943,126.056817 216.1187,123.797008 C203.837618,122.664647 191.27997,121.778023 178.797123,121.162695 C175.522627,121.002474 172.204825,120.93465 168.861434,120.93465" id="Fill-34" fill="#E0BE85" sketch:type="MSShapeGroup"></path>
                <path d="M194.552497,109.114642 C182.953479,110.689333 170.827903,111.04811 158.715123,111.04811 C156.655153,111.04811 154.595183,111.038281 152.540134,111.021571 C152.707451,111.400008 152.919058,111.777461 153.174955,112.151966 C154.999697,112.164745 156.825423,112.173591 158.653117,112.173591 C170.810187,112.173591 182.994816,111.811865 194.68832,110.230294 C194.45506,109.897073 194.402896,109.514704 194.552497,109.114642 M298.779299,98.3267353 C298.381675,98.6825642 297.98405,99.0108704 297.598237,99.2998585 C303.172852,100.241527 308.77601,101.420088 314.403773,102.759852 C312.028853,101.705144 309.289772,100.694669 306.228851,99.7382555 C303.74173,99.22712 301.258546,98.7543197 298.779299,98.3267353 M257.830876,96.6390053 C257.974572,96.9751751 258.110394,97.2995496 258.239327,97.6140945 C259.795377,97.4469925 261.357332,97.3054473 262.918303,97.1933907 L257.830876,96.6390053" id="Fill-35" fill="#E0BE85" sketch:type="MSShapeGroup"></path>
                <path d="M207.175103,99.8355678 C197.043555,101.353247 186.773232,102.761818 176.775538,103.571771 C169.360433,104.171373 161.799664,104.452497 154.208385,104.557673 C153.835366,104.931195 153.50959,105.311598 153.23204,105.695932 C161.173701,105.600586 169.095678,105.319462 176.870023,104.690372 C186.091168,103.943328 195.520969,102.693012 204.8553,101.316878 C205.622006,100.812623 206.400523,100.314266 207.175103,99.8355678" id="Fill-36" fill="#E0BE85" sketch:type="MSShapeGroup"></path>
                <path d="M108.580986,77.8921293 C108.580986,70.275228 113.872146,68.4901857 113.872146,64.8011638 C113.872146,62.6593097 108.361505,60.7553301 101.751492,60.7553301 C95.1414782,60.7553301 89.1889229,62.6593097 89.1889229,64.8011638 C89.1889229,68.4901857 94.9210131,70.275228 94.9210131,77.8921293 C94.9210131,85.5080477 81.2571036,108.356786 81.2571036,117.995621 C81.2571036,124.541104 90.952643,127.397565 101.751492,127.397565 C112.55034,127.397565 122.244895,124.541104 122.244895,117.995621 C122.244895,108.356786 108.580986,85.5080477 108.580986,77.8921293" id="Fill-37" fill="#F2E4A1" sketch:type="MSShapeGroup"></path>
                <path d="M86.931125,99.7746247 C86.931125,102.028536 62.3227025,128.39133 101.744602,128.39133 C140.69014,128.39133 116.561032,102.028536 116.561032,99.7746247 C116.561032,97.520714 109.927397,95.6924217 101.744602,95.6924217 C93.5637754,95.6924217 86.931125,97.520714 86.931125,99.7746247" id="Fill-38" fill="#00BFF3" sketch:type="MSShapeGroup"></path>
                <path d="M86.931125,99.7746247 C86.931125,102.028536 93.5637754,103.855845 101.744602,103.855845 C109.927397,103.855845 116.561032,102.028536 116.561032,99.7746247 C116.561032,97.520714 109.927397,95.6924217 101.744602,95.6924217 C93.5637754,95.6924217 86.931125,97.520714 86.931125,99.7746247" id="Fill-39" fill="#6BDEFE" sketch:type="MSShapeGroup"></path>
                <path d="M114.16938,63.9528756 C114.16938,64.402085 114.052258,64.7942832 113.857383,65.1383167 C113.644791,67.5347556 111.206882,69.1851334 109.720711,72.4111845 L111.846624,72.4111845 C113.778645,68.943327 116.156518,65.0252771 114.16938,63.9528756" id="Fill-40" fill="#D9CD91" sketch:type="MSShapeGroup"></path>
                <path d="M119.868991,105.445279 C120.104219,105.846324 120.3424,106.262113 120.578613,106.688715 C120.433933,106.279806 120.288268,105.866966 120.138667,105.448228 C120.048119,105.447245 119.958555,105.446262 119.868991,105.445279 M117.039362,97.0970613 C116.502963,97.145226 115.968532,97.1933907 115.438038,97.2415554 C115.65555,97.7438442 115.874047,98.248099 116.090575,98.7503879 C116.397651,99.0777112 116.561032,99.4207617 116.561032,99.7746247 C116.561032,99.8031304 116.564969,99.8355678 116.572842,99.8719371 C116.663391,100.083272 116.752954,100.294607 116.842518,100.505942 C117.279511,101.321792 118.174166,102.654676 119.185943,104.308003 C119.368024,104.309969 119.54912,104.311935 119.730216,104.314884 C118.882804,101.97349 117.963544,99.5259377 117.039362,97.0970613 M114.126074,89.499819 C113.471569,89.5499496 112.819032,89.5981143 112.170432,89.6452961 C113.038513,91.7281731 113.996158,93.9270385 114.966597,96.1583414 C115.515791,96.1091937 116.068922,96.0580802 116.625006,96.0079496 C115.770704,93.7727149 114.920339,91.5699177 114.126074,89.499819 M111.159639,87.1574425 C111.339751,87.6145156 111.526753,88.0804352 111.720644,88.5532355 C112.379086,88.5050708 113.04245,88.4569061 113.706797,88.4067755 C113.604439,88.1394124 113.504048,87.876964 113.404642,87.6154985 C112.990286,87.5466918 112.583804,87.4729704 112.199958,87.3913853 C111.851545,87.3166809 111.5051,87.2380446 111.159639,87.1574425 M108.703029,79.2977519 C108.974673,81.044459 109.682327,83.2806766 110.639972,85.813746 C111.343688,85.9916605 112.05331,86.1607284 112.763916,86.3121031 C112.816079,86.3238985 112.868243,86.334711 112.921391,86.3455235 C111.916503,83.6984316 111.072044,81.4101174 110.526786,79.752859 C109.925429,79.5955866 109.31915,79.4442118 108.703029,79.2977519 M111.846624,72.4111845 L109.720711,72.4111845 C109.056363,73.8531762 108.580986,75.6116788 108.580986,77.8921293 C108.580986,77.9471747 108.58197,78.0022201 108.583938,78.0582484 C109.099669,78.1771857 109.610479,78.3000548 110.117351,78.4258727 C109.952987,77.8390499 109.863423,77.4085166 109.863423,77.1617954 C109.863423,76.0746496 110.788589,74.3102493 111.846624,72.4111845" id="Fill-41" fill="#D9CD91" sketch:type="MSShapeGroup"></path>
                <path d="M113.706797,88.4067755 C113.04245,88.4569061 112.379086,88.5050708 111.720644,88.5532355 C111.867292,88.9120133 112.017878,89.2776717 112.170432,89.6452961 C112.819032,89.5981143 113.471569,89.5499496 114.126074,89.499819 C113.984347,89.1302288 113.845572,88.7665362 113.706797,88.4067755 M110.639972,85.813746 C110.80532,86.2531259 110.979527,86.7013524 111.159639,87.1574425 C111.5051,87.2380446 111.851545,87.3166809 112.199958,87.3913853 C112.583804,87.4729704 112.990286,87.5466918 113.404642,87.6154985 C113.240278,87.1839822 113.078866,86.7603296 112.921391,86.3455235 C112.868243,86.334711 112.816079,86.3238985 112.763916,86.3121031 C112.05331,86.1607284 111.343688,85.9916605 110.639972,85.813746" id="Fill-42" fill="#D7BE85" sketch:type="MSShapeGroup"></path>
                <path d="M119.185943,104.308003 C119.409361,104.672679 119.6377,105.051115 119.868991,105.445279 C119.958555,105.446262 120.048119,105.447245 120.138667,105.448228 C120.004813,105.074706 119.868007,104.695286 119.730216,104.314884 C119.54912,104.311935 119.368024,104.309969 119.185943,104.308003" id="Fill-43" fill="#D7BE85" sketch:type="MSShapeGroup"></path>
                <path d="M116.625006,96.0079496 C116.068922,96.0580802 115.515791,96.1091937 114.966597,96.1583414 C115.124072,96.519085 115.280563,96.8798287 115.438038,97.2415554 C115.968532,97.1933907 116.502963,97.145226 117.039362,97.0970613 C116.901571,96.7333688 116.762797,96.3706592 116.625006,96.0079496" id="Fill-44" fill="#D7BE85" sketch:type="MSShapeGroup"></path>
                <path d="M108.583938,78.0582484 C108.592796,78.4376681 108.634134,78.8514913 108.703029,79.2977519 C109.31915,79.4442118 109.925429,79.5955866 110.526786,79.752859 C110.361438,79.2495872 110.223647,78.8052925 110.117351,78.4258727 C109.610479,78.3000548 109.099669,78.1771857 108.583938,78.0582484" id="Fill-45" fill="#D7BE85" sketch:type="MSShapeGroup"></path>
                <path d="M123.648391,119.577192 C123.428911,120.415651 123.08345,121.223638 122.587403,121.987392 C123.091323,121.271803 123.468279,120.470696 123.648391,119.577192" id="Fill-46" fill="#CCB882" sketch:type="MSShapeGroup"></path>
                <path d="M116.572842,99.8719371 C116.603353,100.021346 116.697838,100.23563 116.842518,100.505942 C116.752954,100.294607 116.663391,100.083272 116.572842,99.8719371 M113.857383,65.1383167 C112.877101,66.8624159 109.924444,67.3322673 109.924444,67.3322673 C108.264067,69.2981729 106.602706,72.1241623 106.602706,77.3456076 C106.602706,81.6932078 109.485483,89.2766888 112.417471,96.9427377 C114.157569,97.4410948 115.442959,98.060355 116.090575,98.7503879 C115.874047,98.248099 115.65555,97.7438442 115.438038,97.2415554 C115.280563,96.8798287 115.124072,96.519085 114.966597,96.1583414 C113.996158,93.9270385 113.038513,91.7281731 112.170432,89.6452961 C112.017878,89.2776717 111.867292,88.9120133 111.720644,88.5532355 C111.526753,88.0804352 111.339751,87.6145156 111.159639,87.1574425 C110.979527,86.7013524 110.80532,86.2531259 110.639972,85.813746 C109.682327,83.2806766 108.974673,81.044459 108.703029,79.2977519 C108.634134,78.8514913 108.592796,78.4376681 108.583938,78.0582484 C108.58197,78.0022201 108.580986,77.9471747 108.580986,77.8921293 C108.580986,75.6116788 109.056363,73.8531762 109.720711,72.4111845 C111.206882,69.1851334 113.644791,67.5347556 113.857383,65.1383167" id="Fill-47" fill="#D9CD91" sketch:type="MSShapeGroup"></path>
                <path d="M116.561032,99.7746247 C116.561032,100.568851 115.737241,101.309997 114.312092,101.937121 C116.61418,108.106133 118.536359,113.875083 118.536359,117.523804 C118.536359,125.572221 113.862304,127.108576 113.862304,127.108576 C113.862304,127.108576 119.961508,125.707869 122.587403,121.987392 C123.08345,121.223638 123.428911,120.415651 123.648391,119.577192 C123.72516,119.196789 123.765513,118.799676 123.765513,118.383887 C123.765513,116.381612 122.425992,111.945546 120.578613,106.688715 C120.3424,106.262113 120.104219,105.846324 119.868991,105.445279 C119.6377,105.051115 119.409361,104.672679 119.185943,104.308003 C118.174166,102.654676 117.279511,101.321792 116.842518,100.505942 C116.697838,100.23563 116.603353,100.021346 116.572842,99.8719371 C116.564969,99.8355678 116.561032,99.8031304 116.561032,99.7746247" id="Fill-48" fill="#00ACDA" sketch:type="MSShapeGroup"></path>
                <path d="M112.417471,96.9427377 C113.056229,98.6157234 113.697939,100.289692 114.312092,101.937121 C115.737241,101.309997 116.561032,100.568851 116.561032,99.7746247 C116.561032,99.4207617 116.397651,99.0777112 116.090575,98.7503879 C115.442959,98.060355 114.157569,97.4410948 112.417471,96.9427377" id="Fill-49" fill="#60C7E4" sketch:type="MSShapeGroup"></path>
                <path d="M93.0096602,61.0256421 C93.0096602,61.0256421 88.2115936,62.131464 88.2115936,63.9332165 C88.2115936,64.6763288 88.6663027,65.3093504 89.3444295,65.8411279 C89.2440391,65.5079069 89.1889229,65.1638734 89.1889229,64.8011638 C89.1889229,63.6560238 90.8906372,62.5787075 93.4850379,61.8237998 C93.3393735,61.5436582 93.1809143,61.2753121 93.0096602,61.0256421" id="Fill-50" fill="#D9CD91" sketch:type="MSShapeGroup"></path>
                <path d="M93.4850379,61.8237998 C90.8906372,62.5787075 89.1889229,63.6560238 89.1889229,64.8011638 C89.1889229,65.1638734 89.2440391,65.5079069 89.3444295,65.8411279 C91.3187724,67.3892786 95.1828153,68.0694819 95.1828153,68.0694819 C95.1828153,68.0694819 94.848181,64.4296077 93.4850379,61.8237998" id="Fill-51" fill="#D9CD91" sketch:type="MSShapeGroup"></path>
                <path d="M117.553124,94.6101907 C114.748101,88.1639862 111.569074,80.856715 111.569074,77.8921293 C111.569074,74.3908514 112.908596,72.5979455 114.325871,70.6988807 C115.514807,69.1074801 116.860234,67.3047446 116.860234,64.8011638 C116.860234,59.2514123 107.363507,57.7710854 101.751492,57.7710854 C95.9760957,57.7710854 86.2018188,59.2514123 86.2018188,64.8011638 C86.2018188,67.3696195 87.6702733,69.1870993 88.9694421,70.7902953 C90.4920286,72.6755988 91.9329249,74.4567093 91.9329249,77.8921293 C91.9329249,80.856715 88.7548824,88.1639862 85.9498588,94.6101907 C82.1743955,103.293596 78.2690154,112.27287 78.2690154,117.995621 C78.2690154,125.751119 87.0472628,130.381809 101.751492,130.381809 C116.454736,130.381809 125.232984,125.751119 125.232984,117.995621 C125.232984,112.27287 121.327603,103.293596 117.553124,94.6101907 L117.553124,94.6101907 Z M101.751492,127.396582 C90.952643,127.396582 81.2571036,124.541104 81.2571036,117.995621 C81.2571036,108.356786 94.9210131,85.5080477 94.9210131,77.8921293 C94.9210131,72.3423778 91.8837139,69.8889276 90.233179,67.5386874 C93.3433104,69.2097072 97.8106795,69.2814627 101.226903,68.7123331 C102.210138,68.5491629 102.222932,67.7175848 101.226903,67.7175848 C96.3077774,67.7175848 89.6485531,65.9522016 89.6485531,63.7887225 C89.6485531,61.6252433 96.2103398,60.7553301 101.751492,60.7553301 C108.361505,60.7553301 113.872146,62.6593097 113.872146,64.8011638 C113.872146,68.4901857 108.580986,70.276211 108.580986,77.8921293 C108.580986,85.5080477 122.244895,108.356786 122.244895,117.995621 C122.244895,124.541104 112.549356,127.396582 101.751492,127.396582 L101.751492,127.396582 Z" id="Fill-52" fill="#FFFFFF" sketch:type="MSShapeGroup"></path>
                <path d="M91.614038,94.936531 C88.8257462,101.407309 83.9863423,112.71225 83.9863423,116.807231 C83.9863423,120.903195 87.3366231,122.506391 89.8099649,121.394672 C93.0903662,119.920243 90.0550354,113.776787 92.8443115,98.4584509 C93.1326876,96.874914 93.9860053,89.4319953 91.614038,94.936531" id="Fill-53" fill="#FFFFFF" sketch:type="MSShapeGroup"></path>
                <path d="M99.6521529,45.5431524 C99.6521529,48.1666535 97.5223034,50.2937634 94.8954235,50.2937634 C92.2685435,50.2937634 90.138694,48.1666535 90.138694,45.5431524 C90.138694,42.9186684 92.2685435,40.7915586 94.8954235,40.7915586 C97.5223034,40.7915586 99.6521529,42.9186684 99.6521529,45.5431524" id="Fill-54" fill="#6BDEFE" sketch:type="MSShapeGroup"></path>
                <path d="M95.2359632,44.4235692 C95.2359632,45.2295905 94.5824419,45.8832541 93.773414,45.8832541 C92.9673388,45.8832541 92.3128333,45.2295905 92.3128333,44.4235692 C92.3128333,43.6165649 92.9673388,42.9629013 93.773414,42.9629013 C94.5824419,42.9629013 95.2359632,43.6165649 95.2359632,44.4235692" id="Fill-55" fill="#FFFFFF" sketch:type="MSShapeGroup"></path>
                <path d="M106.706049,56.2730653 C106.706049,57.9018181 105.383259,59.2219237 103.753393,59.2219237 C102.122542,59.2219237 100.800736,57.9018181 100.800736,56.2730653 C100.800736,54.6452954 102.122542,53.3242069 103.753393,53.3242069 C105.383259,53.3242069 106.706049,54.6452954 106.706049,56.2730653" id="Fill-56" fill="#6BDEFE" sketch:type="MSShapeGroup"></path>
                <path d="M103.965,55.5781176 C103.965,56.0784406 103.558517,56.4844001 103.056566,56.4844001 C102.556583,56.4844001 102.1501,56.0784406 102.1501,55.5781176 C102.1501,55.0777947 102.556583,54.6728181 103.056566,54.6728181 C103.558517,54.6728181 103.965,55.0777947 103.965,55.5781176" id="Fill-57" fill="#FFFFFF" sketch:type="MSShapeGroup"></path>
                <path d="M105.394085,31.700228 C105.394085,32.9662713 104.365577,33.9934569 103.096919,33.9934569 C101.829245,33.9934569 100.800736,32.9662713 100.800736,31.700228 C100.800736,30.4332019 101.829245,29.4060162 103.096919,29.4060162 C104.365577,29.4060162 105.394085,30.4332019 105.394085,31.700228" id="Fill-58" fill="#6BDEFE" sketch:type="MSShapeGroup"></path>
                <path d="M103.262267,31.159604 C103.262267,31.5488533 102.946333,31.8643812 102.555598,31.8643812 C102.166832,31.8643812 101.849913,31.5488533 101.849913,31.159604 C101.849913,30.7703547 102.166832,30.4548268 102.555598,30.4548268 C102.946333,30.4548268 103.262267,30.7703547 103.262267,31.159604" id="Fill-59" fill="#FFFFFF" sketch:type="MSShapeGroup"></path>
                <path d="M222.396047,77.5608742 L241.552882,68.2188908 C243.964218,68.5354016 258.561167,95.9401258 259.587707,101.606849 C260.614247,107.275538 255.21187,118.697449 255.21187,118.697449 C253.862506,120.013623 250.807491,120.802934 248.388281,120.462832 L197.500233,113.28826 C195.131218,112.954056 194.279869,111.628053 195.598722,110.323674 C195.598722,110.323674 205.767671,102.3362 212.601102,99.0924555 C219.453233,95.8418306 220.003411,77.2414146 222.396047,77.5608742" id="Fill-60" fill="#7E878B" sketch:type="MSShapeGroup"></path>
                <path d="M221.886222,75.5635141 L234.443869,66.2893544 C236.850284,66.6048822 257.007085,95.6570354 258.033625,101.321792 C259.060166,106.990481 254.703029,116.684362 254.703029,116.684362 C253.353665,118.001519 250.297666,118.792796 247.878456,118.452694 L196.990407,111.299746 C194.621393,110.967508 193.770043,109.640522 195.088897,108.337127 C195.088897,108.337127 205.256861,100.34572 212.090292,97.0990272 C218.943408,93.8454534 219.49457,75.2450374 221.886222,75.5635141" id="Fill-61" fill="#B3BABC" sketch:type="MSShapeGroup"></path>
                <path d="M167.710882,0.342067577 L299.391483,6.74403921 C301.680776,6.87280603 303.539966,8.9812398 303.539966,11.456315 L303.539966,91.5767983 C303.539966,94.0508905 297.173054,100.77822 294.888682,100.530515 L167.710882,82.2790477 C165.770987,82.0686958 164.200174,80.0585573 164.200174,77.7869534 L157.537013,5.59496738 C157.537013,3.32729525 165.770987,0.233942768 167.710882,0.342067577" id="Fill-62" fill="#F4F4F4" sketch:type="MSShapeGroup"></path>
                <path d="M294.732192,11.1801052 C300.801869,11.3039573 301.396337,7.98649156 301.234925,7.31316889 C302.601021,8.12213905 303.539966,9.69682945 303.539966,11.456315 L303.539966,91.5767983 C303.539966,94.0508905 297.173054,100.77822 294.888682,100.530515 L167.710882,82.2790477 C165.770987,82.0686958 164.200174,80.0585573 164.200174,77.7869534 L286.573018,67.3322673 C286.573018,65.0645952 288.662514,11.0582191 294.732192,11.1801052" id="Fill-63" fill="#B3BABC" sketch:type="MSShapeGroup"></path>
                <path d="M160.532975,3.4305053 L294.087528,10.9943272 C296.391584,11.1250599 298.264553,13.2541357 298.264553,15.7488699 L298.264553,96.5259657 C298.264553,99.0206999 296.391584,100.839163 294.087528,100.587527 L160.532975,86.042774 C158.579301,85.8294733 156.997661,83.8016416 156.997661,81.5113616 L156.997661,7.37607787 C156.997661,5.08579783 158.579301,3.31943163 160.532975,3.4305053" id="Fill-64" fill="#D8DBDC" sketch:type="MSShapeGroup"></path>
                <path d="M168.756123,11.3550708 L285.589783,18.2367234 C287.588732,18.3536948 289.213677,20.2055779 289.213677,22.3739718 L289.213677,83.5490227 C289.213677,85.7164337 287.588732,87.3009536 285.589783,87.0866699 L168.756123,75.7679683 C167.048503,75.5851391 165.668628,73.8187729 165.668628,71.8223957 L165.668628,14.7895079 C165.668628,12.7931308 167.048503,11.2557926 168.756123,11.3550708" id="Fill-65" fill="#FFFFFF" sketch:type="MSShapeGroup"></path>
                <g id="Group-93" transform="translate(165.348757, 11.795434)">
                    <mask id="mask-4" sketch:name="Clip 67" fill="white">
                        <use xlink:href="#path-3"></use>
                    </mask>
                    <g id="Clip-67"></g>
                    <path d="M96.1837659,96.8660674 C96.1837659,98.6068768 95.2103735,99.4826878 94.011595,99.3617846 L24.4145314,92.3818367 C23.283664,92.2687971 22.3673563,91.2327648 22.3673563,89.543069 L22.3673563,14.7688659 C22.3673563,14.1319125 23.283664,13.2502038 24.4145314,13.3268742 L94.011595,18.0076954 C95.2103735,18.0882976 96.1837659,19.1262957 96.1837659,19.7829082 L96.1837659,96.8660674" id="Fill-66" fill="#C6D6E0" sketch:type="MSShapeGroup" mask="url(#mask-4)"></path>
                    <path d="M95.0971883,97.3005325 C95.0971883,97.9001337 94.6109842,98.3365648 94.011595,98.2766047 L24.4145314,91.3271283 C23.8476214,91.2711 23.3909439,90.7530839 23.3909439,90.1711758 L23.3909439,31.1694335 C23.3909439,30.5875255 23.8476214,30.1491285 24.4145314,30.1913955 L94.011595,35.3627102 C94.6109842,35.4069431 95.0971883,35.929874 95.0971883,36.5284922 L95.0971883,97.3005325" id="Fill-68" fill="#FFFFFF" sketch:type="MSShapeGroup" mask="url(#mask-4)"></path>
                    <path d="M89.0885326,42.8223391 C89.0885326,43.4209573 88.6033127,43.8672179 88.0078603,43.8220021 L43.5743187,40.3580764 C42.9985507,40.3138435 42.532031,39.8017251 42.532031,39.2149023 L42.532031,38.2525915 C42.532031,37.6657686 42.9985507,37.2263887 43.5743187,37.2706216 L88.0078603,40.6765531 C88.6033127,40.7227519 89.0885326,41.2437169 89.0885326,41.8423351 L89.0885326,42.8223391" id="Fill-69" fill="#69808C" sketch:type="MSShapeGroup" mask="url(#mask-4)"></path>
                    <path d="M35.2419224,35.6418688 C33.4614706,35.5062213 34.2183348,36.5786228 32.5746894,35.6703744 C31.6436184,35.1572731 30.5235775,35.283091 29.8031293,35.9662432 C28.2854639,37.4062691 29.3966469,40.2420879 31.5432281,40.4101729 C33.3217115,40.5507351 32.5648472,39.4773507 34.2094768,40.386582 C35.1405478,40.9026322 36.2674783,40.7797631 36.9908792,40.095628 C38.5174025,38.6516703 37.4003142,35.8060219 35.2419224,35.6418688 C34.8738245,35.6133632 35.9249702,35.6939653 35.2419224,35.6418688" id="Fill-70" fill="#CE1E1F" sketch:type="MSShapeGroup" mask="url(#mask-4)"></path>
                    <path d="M74.5654,29.721544 C74.5654,30.3162305 74.0870697,30.7624911 73.4985069,30.7202241 L27.3002609,27.3457471 C26.7333509,27.3044631 26.2727365,26.7992253 26.2727365,26.2163343 L26.2727365,23.6773672 C26.2727365,23.0944762 26.7333509,22.6550963 27.3002609,22.6953974 L73.4985069,25.9804257 C74.0870697,26.0217097 74.5654,26.5377599 74.5654,27.1324463 L74.5654,29.721544" id="Fill-71" fill="#FCFCFC" sketch:type="MSShapeGroup" mask="url(#mask-4)"></path>
                    <path d="M92.0451258,30.9905361 C92.0451258,31.5901373 91.559906,32.0393468 90.9624852,31.9951139 L77.6400996,31.0219906 C77.0485841,30.9797236 76.5702537,30.4626905 76.5702537,29.868004 L76.5702537,27.2759575 C76.5702537,26.681271 77.0485841,26.2320616 77.6400996,26.2743285 L90.9624852,27.2218951 C91.559906,27.264162 92.0451258,27.7841441 92.0451258,28.3827623 L92.0451258,30.9905361" id="Fill-72" fill="#FCFCFC" sketch:type="MSShapeGroup" mask="url(#mask-4)"></path>
                    <path d="M29.1250025,18.4893423 C29.1250025,19.2403183 28.5325028,19.807482 27.8022125,19.7573514 C27.0709379,19.7052549 26.4784382,19.0565061 26.4784382,18.3055301 C26.4784382,17.5555371 27.0709379,16.9883734 27.8022125,17.038504 C28.5325028,17.0886346 29.1250025,17.7383664 29.1250025,18.4893423" id="Fill-73" fill="#C63710" sketch:type="MSShapeGroup" mask="url(#mask-4)"></path>
                    <path d="M33.6228824,18.8009384 C33.6228824,19.5538802 33.0274301,20.1220269 32.2932028,20.0699304 C31.5599598,20.0188169 30.9664759,19.3681021 30.9664759,18.6161432 C30.9664759,17.8651673 31.5599598,17.2970206 32.2932028,17.3471511 C33.0274301,17.3982647 33.6228824,18.0479965 33.6228824,18.8009384" id="Fill-74" fill="#F2E600" sketch:type="MSShapeGroup" mask="url(#mask-4)"></path>
                    <path d="M38.137494,19.1135173 C38.137494,19.8674421 37.5400732,20.4365718 36.8038776,20.3854583 C36.0676819,20.3343447 35.4712453,19.6816641 35.4712453,18.9287222 C35.4712453,18.1757804 36.0676819,17.6066507 36.8038776,17.6567813 C37.5400732,17.7078948 38.137494,18.3605755 38.137494,19.1135173" id="Fill-75" fill="#3EAF23" sketch:type="MSShapeGroup" mask="url(#mask-4)"></path>
                    <path d="M28.969496,44.8383753 L28.969496,61.3392041 L89.2056546,66.590138 L89.2056546,49.6735201 L28.969496,44.8383753 L57.8533649,47.1571609 L68.1935676,64.7579139 L28.969496,61.3392041 L28.969496,44.8383753" id="Fill-76" fill="#CCF2FD" sketch:type="MSShapeGroup" mask="url(#mask-4)"></path>
                    <path d="M28.969496,44.8383753 L28.969496,61.3392041 L68.1935676,64.7579139 L57.8533649,47.1571609 L28.969496,44.8383753" id="Fill-77" fill="#A3E8FB" sketch:type="MSShapeGroup" mask="url(#mask-4)"></path>
                    <path d="M45.7720792,68.7673784 L28.9704802,67.2614947 L28.9704802,65.9413891 L45.7720792,67.4384262 L45.7720792,68.7673784" id="Fill-78" fill="#69808C" sketch:type="MSShapeGroup" mask="url(#mask-4)"></path>
                    <path d="M43.1137043,71.2798058 L28.9704802,69.9950865 L28.9704802,68.6759638 L43.1137043,69.9508536 L43.1137043,71.2798058" id="Fill-79" fill="#69808C" sketch:type="MSShapeGroup" mask="url(#mask-4)"></path>
                    <path d="M45.7720792,74.2728971 L28.9704802,72.7296612 L28.9704802,71.4085726 L45.7720792,72.9439449 L45.7720792,74.2728971" id="Fill-80" fill="#69808C" sketch:type="MSShapeGroup" mask="url(#mask-4)"></path>
                    <path d="M44.0664281,76.8669096 L28.9704802,75.46227 L28.9704802,74.1431473 L44.0664281,75.5399233 L44.0664281,76.8669096" id="Fill-81" fill="#69808C" sketch:type="MSShapeGroup" mask="url(#mask-4)"></path>
                    <path d="M65.5607823,70.5406253 L50.1941743,69.1635084 L50.1941743,67.8325903 L65.5607823,69.2008606 L65.5607823,70.5406253" id="Fill-82" fill="#69808C" sketch:type="MSShapeGroup" mask="url(#mask-4)"></path>
                    <path d="M66.8491247,73.4334554 L50.1941743,71.921674 L50.1941743,70.5897729 L66.8491247,72.0927078 L66.8491247,73.4334554" id="Fill-83" fill="#69808C" sketch:type="MSShapeGroup" mask="url(#mask-4)"></path>
                    <path d="M64.3747987,75.983235 L50.1941743,74.6798396 L50.1941743,73.3479385 L64.3747987,74.6434703 L64.3747987,75.983235" id="Fill-84" fill="#69808C" sketch:type="MSShapeGroup" mask="url(#mask-4)"></path>
                    <path d="M86.4508262,72.4131504 L71.7958084,71.0999254 L71.7958084,69.7572119 L86.4508262,71.0615903 L86.4508262,72.4131504" id="Fill-85" fill="#69808C" sketch:type="MSShapeGroup" mask="url(#mask-4)"></path>
                    <path d="M87.4399661,75.3030316 L71.7958084,73.8826648 L71.7958084,72.5389683 L87.4399661,73.9504886 L87.4399661,75.3030316" id="Fill-86" fill="#69808C" sketch:type="MSShapeGroup" mask="url(#mask-4)"></path>
                    <path d="M89.2056546,78.2656514 L71.7958084,76.6654042 L71.7958084,75.3217077 L89.2056546,76.9121254 L89.2056546,78.2656514" id="Fill-87" fill="#69808C" sketch:type="MSShapeGroup" mask="url(#mask-4)"></path>
                    <path d="M89.2056546,66.590138 L56.4055791,63.7307282 L56.4055791,55.3599021 L89.2056546,56.3045198 L89.2056546,66.590138" id="Fill-88" fill="#7CB836" sketch:type="MSShapeGroup" mask="url(#mask-4)"></path>
                    <path d="M89.2056546,66.590138 L68.1935676,64.7579139 L68.1935676,59.3959064 L89.2056546,60.0328598 L89.2056546,66.590138" id="Fill-89" fill="#2C9B26" sketch:type="MSShapeGroup" mask="url(#mask-4)"></path>
                    <path d="M56.4055791,63.7307282 L68.1935676,64.7579139 L68.1935676,59.3959064 L56.4055791,55.3599021 L56.4055791,63.7307282" id="Fill-90" fill="#9ACC58" sketch:type="MSShapeGroup" mask="url(#mask-4)"></path>
                    <path d="M48.4776967,62.8460707 L48.4776967,63.4417401 C48.4776967,63.5302059 48.4501386,63.5990126 48.3969908,63.6501261 L48.1863679,63.714018 L34.8108345,62.5443042 L34.6011959,62.444043 L34.5214742,62.2238616 L34.5214742,61.631141 C34.5214742,61.0826534 34.7015862,60.6344269 35.0598419,60.2874446 C35.4190817,59.9394793 35.8531222,59.6809627 36.3619633,59.5109118 C36.8717887,59.341844 37.3806298,59.1816226 37.8904551,59.0331968 C38.4022489,58.8847709 38.8362894,58.6714701 39.1955292,58.3952604 C39.5557533,58.1190507 39.7358654,57.7661706 39.7358654,57.3376032 C39.6925597,57.2894385 39.6315382,57.215717 39.5518165,57.1154558 C39.4711105,57.0161776 39.3303672,56.7950132 39.131555,56.4539286 C38.9327428,56.111861 38.7545992,55.7550492 38.6000769,55.3785782 C38.4445703,55.0021073 38.3048112,54.5214434 38.1817839,53.9356035 C38.0577723,53.3477977 37.9967508,52.7521283 37.9967508,52.1485953 C37.9967508,51.1705573 38.3372905,50.3615871 39.0193541,49.718736 C39.7014177,49.0778507 40.5222562,48.7957433 41.4808853,48.8743795 C42.437546,48.9520328 43.2603529,49.3688048 43.9453691,50.1237125 C44.6313696,50.8796032 44.9728936,51.7465676 44.9728936,52.7275545 C44.9728936,53.3330534 44.9148247,53.9179104 44.7957342,54.4811423 C44.6766437,55.0424084 44.5299951,55.507345 44.358741,55.8730035 C44.1855185,56.237679 44.012296,56.5591046 43.8400577,56.8353143 C43.6678194,57.112507 43.5221551,57.3179441 43.4040488,57.4516257 L43.2259052,57.6344549 C43.2259052,58.0630223 43.4060172,58.4483398 43.7672255,58.7864756 C44.1274496,59.1255943 44.565427,59.4135995 45.0791892,59.6504911 C45.5919672,59.8873828 46.1057294,60.1360698 46.6185074,60.3945864 C47.1332538,60.6540859 47.5712312,60.9892729 47.9334237,61.4011301 C48.2966004,61.8129873 48.4776967,62.2946342 48.4776967,62.8460707" id="Fill-91" fill="#FFFFFF" sketch:type="MSShapeGroup" mask="url(#mask-4)"></path>
                    <path d="M128.440553,12.9012556 L-2.33751964,4.8656164 L-2.33751964,-3.93181123 L128.440553,3.80894213 L128.440553,12.9012556" id="Fill-92" fill="#1A3356" sketch:type="MSShapeGroup" mask="url(#mask-4)"></path>
                </g>
                <path d="M169.940138,74.6208624 C168.233503,74.4380332 166.852644,72.6726499 166.852644,70.6762728 L166.852644,13.643385 C166.852644,12.9042045 167.044566,12.2289159 167.369359,11.6755134 C166.363487,12.2131886 165.668628,13.3799536 165.668628,14.7895079 L165.668628,71.8223957 C165.668628,73.8187729 167.048503,75.5851391 168.756123,75.7679683 L285.589783,87.0876529 C286.887968,87.2252662 288.019819,86.5991253 288.659562,85.5532635 C288.108399,85.8609277 287.466688,86.0142684 286.773798,85.9405469 L169.940138,74.6208624" id="Fill-94" fill="#B3BABC" sketch:type="MSShapeGroup"></path>
            </g>
        </g>
    </g>
</svg>