<?xml version="1.0" encoding="UTF-8" standalone="no"?>
<svg width="282px" height="143px" viewBox="0 0 282 143" version="1.1" xmlns="http://www.w3.org/2000/svg" xmlns:xlink="http://www.w3.org/1999/xlink" xmlns:sketch="http://www.bohemiancoding.com/sketch/ns">
    <!-- Generator: Sketch 3.2 (9964) - http://www.bohemiancoding.com/sketch -->
    <title>illo-3</title>
    <desc>Created with Sketch.</desc>
    <defs></defs>
    <g id="Page-1" stroke="none" stroke-width="1" fill="none" fill-rule="evenodd" sketch:type="MSPage">
        <g id="Artboard-3" sketch:type="MSArtboardGroup" transform="translate(-1109.000000, -1410.000000)">
            <g id="illo-3" sketch:type="MSLayerGroup" transform="translate(1109.000000, 1410.187698)">
                <path d="M248.917576,124.044685 C214.757645,124.604832 77.7492462,129.432154 74.8223677,134.056742 C71.6694783,139.040245 82.2597027,141.865005 82.2597027,141.865005 C82.5555442,141.917566 83.1990369,141.942345 84.1556411,141.942345 C103.47394,141.942345 250.841297,131.69001 260.61608,129.800079 C270.875172,127.81704 274.90207,126.148614 274.817222,125.113169 C274.783433,124.694936 273.006883,124.444146 270.306015,124.287966 L253.608241,128.600194 L248.917576,124.044685" id="Fill-1" fill="#E5E5E5" sketch:type="MSShapeGroup"></path>
                <path d="M253.11342,117.357466 L278.862892,120.242296 L279.212045,121.988061 L253.608241,128.600194 L245.579223,120.803194 L253.11342,117.357466" id="Fill-2" fill="#F2E4A1" sketch:type="MSShapeGroup"></path>
                <path d="M280.443467,121.212416 L279.093408,121.395627 L279.212045,121.988061 L280.443467,121.212416" id="Fill-3" fill="#EFE5E5" sketch:type="MSShapeGroup"></path>
                <path d="M245.579223,120.803194 L253.608241,128.600194 L279.212045,121.988061 L279.093408,121.395627 L255.948692,124.543261 L245.579223,120.803194" id="Fill-4" fill="#E3CD91" sketch:type="MSShapeGroup"></path>
                <path d="M255.674626,120.270078 L110.414952,130.104931 L107.02554,127.209588 L253.11342,117.357466 C253.11342,117.357466 255.187314,117.836519 255.543224,118.407178 C255.899135,118.979338 255.674626,120.270078 255.674626,120.270078" id="Fill-5" fill="#F9AC58" sketch:type="MSShapeGroup"></path>
                <path d="M255.674626,120.270078 L110.414952,130.104931 L110.647721,135.99548 L256.264807,126.153119 C256.264807,126.153119 258.144227,125.164978 258.108185,123.382421 C258.071393,121.599863 255.674626,120.270078 255.674626,120.270078" id="Fill-6" fill="#F98900" sketch:type="MSShapeGroup"></path>
                <path d="M253.608241,128.600194 L107.520361,138.453067 L110.647721,135.99548 L256.264807,126.153119 C256.264807,126.153119 255.840568,127.508433 255.549231,127.795265 C255.257895,128.082846 253.608241,128.600194 253.608241,128.600194" id="Fill-7" fill="#D1620F" sketch:type="MSShapeGroup"></path>
                <path d="M95.1956347,133.618236 C95.3277872,136.614194 94.2938437,139.515543 92.8243975,139.589128 C91.3542005,139.661962 90.0334259,137.106763 89.8727404,133.882541 C89.7128058,130.657568 90.7745314,127.983732 92.2447284,127.910898 C93.7149255,127.837313 95.0627312,130.620776 95.1956347,133.618236" id="Fill-8" fill="#D8DBDC" sketch:type="MSShapeGroup"></path>
                <path d="M92.7778438,139.337588 L85.993012,139.767834 C85.993012,139.767834 88.3184463,139.056013 88.0826741,134.044728 C87.8476528,129.034195 85.3442632,128.598692 85.3442632,128.598692 L92.1290949,128.168445 C92.1290949,128.168445 94.6963083,128.959108 94.872762,133.722606 C95.0492156,138.486105 92.7778438,139.337588 92.7778438,139.337588" id="Fill-9" fill="#F8A59F" sketch:type="MSShapeGroup"></path>
                <path d="M113.342582,132.575282 C113.030221,127.720929 110.468264,126.758318 110.468264,126.758318 L104.980179,127.099962 C104.878812,127.293686 104.68659,127.437101 104.450818,127.446111 C104.226309,127.455873 104.031834,127.338738 103.913197,127.165287 L102.714063,127.239623 C102.614949,127.440855 102.419723,127.587274 102.180197,127.597787 C101.949681,127.606797 101.752954,127.485907 101.633566,127.30645 L100.448698,127.380035 C100.351836,127.587274 100.152106,127.73895 99.9080742,127.74796 C99.6738038,127.757721 99.4725715,127.632326 99.3554363,127.448364 L92.2672544,127.888372 C92.2672544,127.888372 94.889281,128.344148 95.1348144,133.592707 C95.3818496,138.840514 92.9467888,139.586125 92.9467888,139.586125 L99.6159871,139.147619 L100.158864,138.122685 L105.756575,137.608342 L107.045062,138.659555 L111.147798,138.389994 C111.147798,138.389994 113.655693,137.430386 113.342582,132.575282" id="Fill-10" fill="#D8DBDC" sketch:type="MSShapeGroup"></path>
                <path d="M106.602051,136.442246 C106.503688,136.265041 106.318974,136.141148 106.102725,136.146404 C105.866202,136.150909 105.668724,136.301083 105.589132,136.509073 L104.312658,136.593921 C104.216548,136.409958 104.026578,136.283062 103.805823,136.287567 C103.565546,136.292823 103.367317,136.448253 103.289978,136.661499 L102.030024,136.745596 C101.93166,136.569142 101.747698,136.447502 101.532199,136.452007 C101.297178,136.456512 101.0997,136.605935 101.020108,136.813174 L94.7593811,137.227652 C94.1256496,139.219702 92.9467888,139.586125 92.9467888,139.586125 L100.335317,139.100314 C100.438186,138.908843 100.627405,138.769182 100.860173,138.75942 C101.081679,138.751161 101.271648,138.863791 101.391787,139.031234 L102.605938,138.950891 C102.708056,138.75867 102.898776,138.617507 103.132296,138.608496 C103.353802,138.599486 103.544522,138.713618 103.665411,138.881061 L104.87731,138.80222 C104.978677,138.608496 105.170148,138.467333 105.403668,138.457572 C105.626675,138.448562 105.818146,138.563444 105.938285,138.732389 L111.147798,138.389994 C111.147798,138.389994 112.359697,137.955993 112.992678,136.018006 L106.602051,136.442246" id="Fill-11" fill="#B3BABC" sketch:type="MSShapeGroup"></path>
                <path d="M99.3614433,129.209897 C99.4553016,129.465192 99.3208965,129.686698 99.0618474,129.703968 L96.1409759,129.904449 C95.8819268,129.921719 95.5973483,129.728746 95.5049917,129.473452 C95.4103825,129.218157 95.5455385,128.996651 95.8030858,128.97863 L98.7239574,128.779651 C98.9837573,128.762381 99.2683358,128.954603 99.3614433,129.209897" id="Fill-12" fill="#FFFFFF" sketch:type="MSShapeGroup"></path>
                <path d="M111.295719,128.514595 C111.388827,128.77064 111.254421,128.991395 110.996123,129.009416 L108.075252,129.209897 C107.816203,129.227167 107.530873,129.034195 107.438517,128.7789 C107.343907,128.523605 107.479063,128.3021 107.737362,128.284079 L110.658233,128.084348 C110.917282,128.067829 111.201861,128.2593 111.295719,128.514595" id="Fill-13" fill="#FFFFFF" sketch:type="MSShapeGroup"></path>
                <path d="M105.774596,136.214733 C106.503688,134.963789 106.226618,133.299118 106.743965,133.386218 C107.263565,133.471817 107.127658,135.348233 106.771747,136.382927 C106.416587,137.41612 105.573364,138.286374 105.19793,138.197772 C104.822497,138.109921 105.046255,137.466428 105.774596,136.214733" id="Fill-14" fill="#B3BABC" sketch:type="MSShapeGroup"></path>
                <path d="M103.475442,136.36791 C104.203783,135.116966 103.927464,133.452294 104.445562,133.538644 C104.96366,133.624994 104.827753,135.50141 104.472593,136.535353 C104.117433,137.568546 103.273459,138.439551 102.898026,138.350949 C102.523343,138.262347 102.747101,137.619605 103.475442,136.36791" id="Fill-15" fill="#B3BABC" sketch:type="MSShapeGroup"></path>
                <path d="M101.176288,136.520336 C101.904629,135.269392 101.62831,133.605471 102.145657,133.691821 C102.664506,133.778171 102.528599,135.653836 102.173439,136.687779 C101.818279,137.721723 100.975056,138.591977 100.599622,138.503375 C100.224189,138.415524 100.447947,137.772031 101.176288,136.520336" id="Fill-16" fill="#B3BABC" sketch:type="MSShapeGroup"></path>
                <path d="M103.264449,127.161533 C103.937225,127.116481 104.541673,127.604544 105.363121,128.745862 C106.184569,129.886428 106.563006,130.891088 106.705671,130.877572 C107.314624,130.817503 106.716183,129.392358 106.012621,128.356913 C105.382644,127.431094 104.641538,127.120986 105.09356,127.061668 C105.465239,127.012111 104.043848,126.988834 104.043848,126.988834 L103.264449,127.161533" id="Fill-17" fill="#FFFFFF" sketch:type="MSShapeGroup"></path>
                <path d="M100.991575,127.301945 C101.663601,127.257644 102.268048,127.744956 103.088746,128.885523 C103.910945,130.02684 104.289382,131.0315 104.432046,131.017985 C105.040999,130.958666 104.441808,129.53277 103.738245,128.497325 C103.10977,127.571506 102.367914,127.262149 102.819935,127.20208 C103.191614,127.152523 101.770975,127.129997 101.770975,127.129997 L100.991575,127.301945" id="Fill-18" fill="#FFFFFF" sketch:type="MSShapeGroup"></path>
                <path d="M98.7171996,127.443108 C99.3899762,127.398056 99.993673,127.886119 100.815872,129.026686 C101.63732,130.167253 102.015757,131.172663 102.158422,131.158397 C102.767375,131.099078 102.168183,129.673182 101.464621,128.637737 C100.835395,127.711918 100.094289,127.402561 100.546311,127.342492 C100.91799,127.293686 99.4965993,127.270409 99.4965993,127.270409 L98.7171996,127.443108" id="Fill-19" fill="#FFFFFF" sketch:type="MSShapeGroup"></path>
                <path d="M87.8739332,137.006898 C88.0856776,136.121626 88.1855429,135.101949 88.13974,134.069507 C88.0135944,131.207954 86.7266088,128.550636 85.322488,128.619716 C83.9191181,128.689547 82.905448,131.242494 83.0586249,134.322549 C83.2110508,137.400352 84.4725069,139.839918 85.8758768,139.770838 L86.0643444,139.738551 L85.993012,139.767834 L92.7778438,139.337588 C92.7778438,139.337588 93.8966352,138.911096 94.5025847,137.00915 L88.2103215,137.420625 C88.2103215,137.420625 87.8363898,137.158573 87.8739332,137.006898" id="Fill-20" fill="#F88174" sketch:type="MSShapeGroup"></path>
                <path d="M276.198066,119.944202 L281.384303,120.538888 C281.384303,120.538888 282.116398,121.118558 281.526217,121.349825 C280.936035,121.580341 276.428582,122.706641 276.428582,122.706641 C276.428582,122.706641 276.879103,121.159855 276.713161,120.693567 C276.546469,120.22803 276.198066,119.944202 276.198066,119.944202" id="Fill-21" fill="#252728" sketch:type="MSShapeGroup"></path>
                <path d="M30.1075032,30.0361709 L0.237273886,33.9143975 C0.237273886,33.9143975 14.1718586,85.914171 40.9800534,105.959309 C31.0355745,61.6957156 30.1075032,30.0361709 30.1075032,30.0361709" id="Fill-22" fill="#F2F2F2" sketch:type="MSShapeGroup"></path>
                <path d="M28.7206523,15.2050512 C28.345219,44.4888536 35.8538863,102.493308 44.301137,115.445759 C36.6918535,91.0621133 30.4101025,38.4819198 30.7855359,16.8945014 C30.7855359,16.8945014 66.0409813,12.2015843 96.2813879,9.94898415 C126.521044,7.69638396 174.384292,8.41646515 206.907334,7.36074654 C237.183782,6.37711112 249.136079,3.40217714 249.136079,3.40217714 C249.136079,3.40217714 251.164921,75.0866728 259.987605,94.2337744 C256.045554,73.0217893 251.540354,9.76126746 251.728071,0.187716682 C251.728071,0.187716682 228.451202,3.94205032 204.611183,5.06835041 C180.771165,6.19465051 128.550636,5.2560671 96.2813879,7.50866728 C64.0113886,9.76126746 28.7206523,15.2050512 28.7206523,15.2050512" id="Fill-23" fill="#D3DEE2" sketch:type="MSShapeGroup"></path>
                <path d="M52.3188919,25.4896728 C53.2507175,25.8966426 53.8191236,24.1906734 53.2304441,23.956403 C52.6274981,23.2806229 51.1445363,24.97608 52.3188919,25.4896728 C52.4315219,25.5384792 52.0696041,25.3807971 52.3188919,25.4896728 L52.3188919,25.4896728 Z M52.6657923,24.5383247 C53.0284609,24.2950439 52.8264778,25.0556718 52.5591692,24.9385366 C52.4202589,24.818398 52.4555496,24.6847437 52.6657923,24.5383247 C52.7115952,24.5075391 52.5449028,24.6186674 52.6657923,24.5383247 L52.6657923,24.5383247 Z" id="Fill-24" fill="#485B60" sketch:type="MSShapeGroup"></path>
                <path d="M97.6569758,29.2657816 C99.5499108,31.1421975 101.396292,28.5119114 101.601279,26.7180908 C102.341633,26.7180908 102.941576,26.5881908 103.588072,26.1879789 C103.28322,27.1333201 102.796659,30.5925631 103.88917,28.1988 C104.136205,27.6566742 105.208442,25.1315094 106.121496,25.4964306 C106.939941,25.8200542 106.045659,28.3917727 106.885879,29.1674181 C107.946853,30.1465483 109.19179,28.1942948 109.587497,27.4426772 C110.31734,30.3380193 112.998685,26.5348793 113.492004,25.5947942 C114.037133,29.4106989 117.383746,28.3317034 118.444721,25.3620255 C118.572368,26.1624494 118.874968,27.0800085 119.679146,27.4404246 C120.094375,27.6273904 122.569983,27.0664929 122.265882,26.7210943 C123.633961,28.2513606 125.671063,26.9095618 126.160628,25.3853023 C126.268752,25.0474123 127.036138,23.0268299 127.567752,24.0037076 C128.100867,24.9798343 126.481248,25.6278323 126.061513,26.2825881 C125.506623,27.1468357 128.499578,26.9771398 128.823201,26.8780254 C130.030595,26.5108516 130.969929,25.5662612 131.583387,24.4940235 C132.06244,25.7885178 133.453796,26.8750219 134.892457,26.6369972 C135.994729,26.4545366 137.20813,24.6749824 135.838549,23.9946972 C135.270894,24.6134113 136.131387,24.9805852 135.485642,25.6751369 C134.697982,26.5228654 133.281848,25.871864 132.65112,25.1592915 C129.938989,22.0972569 135.360247,24.0044584 135.313693,22.7482584 C134.351082,22.5132371 133.293111,22.5147388 132.310226,22.575559 C132.344766,22.4163753 132.496441,19.9377642 131.895748,20.783991 C131.503795,21.330622 131.347615,22.023672 131.319082,22.6851856 C130.740164,22.7790439 130.020083,22.9254629 129.583078,23.3609656 C130.06964,24.0675312 130.608762,23.4135263 131.335601,23.2866298 C131.503044,25.3049596 128.496574,26.7909249 126.834906,26.3103702 C127.576011,25.6308358 128.733097,24.8837234 128.09486,23.7153747 C127.412322,22.468936 126.264247,23.567454 125.862534,24.4106773 C125.455564,25.2659145 125.427782,26.4642978 124.290219,26.6760422 C123.948574,26.7398659 123.482286,26.7353607 123.158662,26.6159729 C122.154754,26.2472973 123.082825,25.66913 123.293068,25.0016094 C123.498805,24.3498571 123.236753,22.435147 122.30793,23.6410389 C121.444434,24.7613321 122.433325,26.1399234 121.130571,26.8224613 C119.662627,27.5920997 119.082207,25.9326842 118.983843,24.8214014 C118.805137,22.7933104 119.76925,23.9211122 121.213918,23.1312004 C120.999921,22.2113887 119.704676,22.9232103 118.992103,22.9652589 C119.092719,22.1918661 119.148283,21.4034561 119.130262,20.6225547 C119.121252,20.2358583 118.531071,20.2411144 118.529569,20.6285616 C118.527316,21.049047 118.525064,22.9877849 118.212703,23.0238265 C116.891178,23.167242 115.59368,23.4788517 114.2684,23.5989904 C114.36376,23.2310657 114.911142,21.1939643 114.280414,21.0370331 C113.665454,20.8861089 113.521288,22.5890746 113.485246,22.8721514 C113.234457,24.8657026 111.354287,22.3833372 111.073462,23.8310082 C111.789789,24.198182 112.61349,24.2537462 113.4019,24.2469884 C113.4019,24.8904812 111.540502,28.2911566 110.575638,27.8488961 C109.799993,27.4937361 110.146893,26.2112557 110.236246,25.6150676 C110.439731,24.2635075 109.567224,25.2486446 109.506404,26.0956223 C109.237593,26.9260809 106.840076,30.4619123 106.934685,27.6761967 C106.960215,26.9245791 107.263565,25.8553449 106.720688,25.2073469 C105.806132,24.114085 104.559694,25.7735004 104.130198,26.4642978 C105.1281,23.409772 103.080486,26.4695539 101.747698,26.1354182 C101.757459,26.1376708 101.158267,25.0136233 101.044886,25.8425802 C100.912734,26.8367277 100.959288,27.7895776 100.264736,28.6170327 C99.5746894,29.4399827 98.2877038,29.5158202 97.7928827,28.4248109 C97.407688,27.5770823 98.3718009,26.0017639 98.0541843,25.4678977 C98.2989668,24.5570963 97.3949233,25.5895381 97.4009302,25.5812786 C97.0780575,26.7541324 96.6650808,28.282897 97.6569758,29.2657816 C98.0646964,29.6697479 96.658323,28.2768901 97.6569758,29.2657816 L97.6569758,29.2657816 Z M122.408547,24.9730765 C122.4551,24.6081553 122.585751,24.2777739 122.799748,23.9826833 C122.865824,24.5300651 122.677357,25.0526684 122.401038,25.5174549 C122.403291,25.336496 122.406294,25.1547863 122.408547,24.9730765 C122.453599,24.5563455 122.387522,25.1683019 122.408547,24.9730765 L122.408547,24.9730765 Z M116.755271,23.8527834 C117.241833,23.770188 117.786962,23.6200147 118.282534,23.6200147 C118.073042,24.7380552 116.939984,28.4998975 115.053056,27.5613141 C114.260892,27.1671091 114.105462,25.8958917 114.03413,25.1360146 C113.895971,23.6703227 115.583919,24.0525139 116.755271,23.8527834 C117.31767,23.7574233 115.9143,23.9961989 116.755271,23.8527834 L116.755271,23.8527834 Z" id="Fill-25" fill="#485B60" sketch:type="MSShapeGroup"></path>
                <path d="M109.058887,23.1589825 C109.83228,23.1589825 110.572634,21.5190896 109.611525,21.651993 C109.457597,21.6730172 108.919226,21.7053045 108.814104,21.7623704 C108.16085,22.1227864 108.194639,23.1589825 109.058887,23.1589825 C109.186534,23.1589825 108.899703,23.1589825 109.058887,23.1589825 L109.058887,23.1589825 Z M108.941752,22.4441574 C109.112199,22.0882465 109.353978,22.3698216 109.360735,21.8870143 C109.492888,22.3638146 108.916222,22.4982198 108.941752,22.4441574 C108.995063,22.33378 108.925233,22.4794481 108.941752,22.4441574 L108.941752,22.4441574 Z" id="Fill-26" fill="#485B60" sketch:type="MSShapeGroup"></path>
                <path d="M48.7079738,32.4224253 C49.6953635,32.1566185 50.6009088,31.336672 51.129519,30.4686701 C51.1903392,32.3075427 52.9796546,33.8993802 54.3762667,31.9869226 C54.9799636,31.1594675 55.5881656,27.8511487 57.0103072,28.0726544 C57.8632918,28.2108138 56.6934414,32.1798954 57.4570729,31.6542887 C58.2192026,31.1294328 57.6860873,28.0666474 59.0466578,27.9885573 C59.9687221,27.9457579 58.4617326,31.2090247 59.2171045,31.3209038 C59.6083061,31.3824749 60.4830658,29.0164938 60.7023189,28.7176489 C62.3767517,26.4282562 61.90746,30.1675725 62.4067864,31.0445849 C63.7012806,33.3159567 64.977754,30.1916003 65.4485475,29.0923314 C65.3704573,30.5497637 64.6278502,31.8622787 64.5782929,33.3895417 C64.5715351,33.5885213 64.3680503,36.5108947 65.0821245,35.8065817 C65.5994717,35.2959923 65.6054786,32.2587364 65.749645,31.4508038 C66.0071923,30.0106414 66.2917708,29.0630476 67.5704969,28.1950456 C68.7200738,27.4148951 69.1405592,28.6740986 68.5428693,29.5879034 C68.2673012,30.0083888 67.8670892,30.4146077 67.3955449,30.6128365 C67.0298728,30.7667642 66.3781205,29.9843611 66.2009159,30.4671684 C65.7346277,31.7413892 68.865742,31.3667067 69.3132585,31.212779 C70.4312991,30.8290861 71.5688622,30.1675725 72.5367294,29.5090624 C72.1973376,31.9215972 75.8090066,31.4432951 75.2406005,29.0923314 C76.195703,29.0878262 76.9105281,28.6455657 77.5863081,27.9983186 C77.6080833,28.6140293 78.0285686,28.4060392 78.48885,28.3362086 C78.3799743,29.4752734 77.7184607,31.5026136 79.621157,31.505617 C81.2625516,31.505617 82.3062564,30.0369217 83.0638809,28.7837252 C83.9318829,30.4889435 87.5458044,30.6954318 88.4536023,28.9226355 C87.8596667,28.3587346 87.7102442,29.060795 87.1478451,29.297318 C86.2483067,29.6742531 85.0416639,29.5894052 84.1999423,29.0968366 C83.1629953,28.4893854 83.6090102,27.8744255 83.9731805,26.9936589 C84.156392,26.5506475 86.0988842,26.4605435 86.6289961,26.2375361 C86.4810754,25.2058452 84.91702,26.0918679 84.1999423,26.1992419 C84.2998076,25.691656 84.7105317,24.0149706 84.4462266,23.5682049 C83.9889487,22.7970647 83.3439542,25.0061146 83.2861375,25.1780631 C82.8874272,26.3764464 82.9257214,26.4192458 81.7175769,26.7488763 C81.0095096,26.9418491 80.2961862,26.6159729 80.0957047,27.420902 C80.9419316,27.7948337 82.0359444,27.2654726 82.8528874,27.0469704 C82.6884476,28.5802403 81.5223515,30.9049237 79.6241604,30.9049237 C77.5525191,30.9049237 80.4741416,27.342061 78.1704825,27.7805672 C78.0503438,26.5769278 77.5067163,27.2827426 76.894009,27.8203631 C76.4862884,28.1777757 76.0387718,28.4435825 75.4883865,28.4826276 C74.8629145,28.5269287 74.5437962,27.5785841 74.0159369,27.7775637 C73.8747739,27.314279 71.8594476,29.2417539 71.4307027,29.4872873 C70.4613338,30.0406761 69.3110059,30.7502451 68.1749446,30.8486087 C69.0759846,30.1728286 70.1489732,28.4976449 68.9693616,27.5500511 C67.9624493,26.7406168 66.6551903,28.0899243 66.0612547,28.8009951 C66.1438501,25.4048249 64.1788318,31.2292981 63.4579998,31.2720975 C62.5396898,31.1917548 62.7334134,29.1831863 62.6831053,28.6583304 C62.4698592,26.4230002 60.6812946,27.5898471 59.924421,28.7889812 C59.9559574,27.156597 58.6351828,27.0679947 57.9196068,28.3474716 C57.3804845,26.0235391 55.2667947,28.6485691 54.8553197,29.5278341 C54.4716268,30.3477805 54.2463668,31.4568107 53.5075139,32.0432376 C52.6064738,32.7580627 51.8811366,31.714358 51.7655031,30.886152 C51.7061846,30.4559054 52.0823689,28.0396162 51.5327344,27.9202284 C51.0709514,27.8271209 50.605414,30.2434101 50.2487523,30.6563868 C49.7907236,31.1872496 49.2516013,31.5011118 48.6989634,31.7736765 C48.4181392,31.9118359 48.1831179,32.5703461 48.7079738,32.4224253 C48.7079738,32.4224253 48.5720669,32.4607195 48.7079738,32.4224253 L48.7079738,32.4224253 Z M73.3424094,28.87458 C73.5053475,28.6861125 73.6675347,28.4968941 73.8304728,28.3076756 C73.9408502,28.8986078 75.5259298,29.6720005 74.3162835,30.4341302 C73.0660904,31.2225403 73.0300488,29.5796439 73.3424094,28.87458 C73.536133,28.6921194 73.1441806,29.3228475 73.3424094,28.87458 L73.3424094,28.87458 Z" id="Fill-27" fill="#485B60" sketch:type="MSShapeGroup"></path>
                <path d="M49.968679,53.0742638 C50.6271891,54.1765362 51.9509672,53.3693544 52.3098815,52.4998508 C52.7363738,51.4659073 52.7468859,50.1631535 52.4773248,49.0886632 C52.1822341,47.9128059 50.5235695,47.4758015 52.340667,47.089856 C53.9167363,46.7549694 55.5874147,45.726282 56.6408808,44.5121305 C56.7302339,45.2547377 57.7469075,44.6187536 58.0802923,44.4850993 C57.9211085,45.3793816 56.6183548,47.0830982 58.1801576,47.4495211 C59.5182021,47.7626326 61.1160465,46.5665019 62.0531281,45.760071 C61.4899781,48.2461907 64.6270993,47.2918391 63.5225743,44.9926852 C64.3943306,44.864287 65.0896332,44.2928774 65.8089635,43.8363505 C65.7308734,44.458819 65.0047852,48.5818282 66.1393449,46.1287466 C66.2309506,45.9297669 66.989326,44.1479601 67.4375934,44.3259156 C68.1569238,44.5819611 66.7257718,46.4005603 67.41732,46.6663671 C67.8873626,46.8503295 68.9843789,44.3724693 69.840367,44.2132855 C70.3787384,47.3068565 73.4054822,48.0652319 75.8803389,46.227861 C75.5146668,45.3230666 74.9004579,46.2015806 74.2749859,46.4268407 C73.2860944,46.7835024 72.1868255,46.718177 71.3030554,46.120487 C70.5266592,45.5948803 70.5544412,44.6780721 70.3839945,43.8536204 C70.1647414,42.7813827 68.3146058,44.6457848 68.1681868,44.8365049 C68.256789,43.2476709 66.8556717,43.748499 66.2647396,44.6375252 C67.0388832,41.4718711 64.6518779,44.3867358 63.2222276,44.4175213 C63.3483732,44.1727387 63.2049577,43.3708131 62.8062475,43.8768973 C62.5877453,44.1532162 62.5013956,44.4595698 62.2551113,44.729131 C61.5230162,45.5303058 60.572419,46.2256084 59.5685101,46.6408377 C58.3460991,47.146171 57.7716861,46.8225474 58.3093066,45.6038907 C58.9865884,44.0713717 58.6532036,43.743243 57.2355672,44.2102821 C57.2888788,43.5645367 57.6830838,41.8848478 56.6851819,43.4481524 C55.6354702,45.0925505 53.6314069,46.2601482 51.7399736,46.5920313 C52.2738399,45.1954192 53.0907829,44.1967665 53.8131167,42.9105318 C54.2538754,42.1236234 54.6811186,41.2631302 54.8192781,40.3620901 C54.8545688,40.1345775 54.7419388,38.4729094 54.1337368,39.0623398 C52.8970593,40.2659792 52.4457884,43.0118988 51.8488493,44.605238 C51.2278825,45.3230666 49.4663492,47.3481541 48.4369109,46.2999442 C47.9781313,46.8458243 48.5044889,47.146171 48.9872962,47.1747039 C49.8740698,47.2265137 50.7022758,46.5785157 51.3157339,46.0206218 C51.2616715,47.0147693 48.7958252,47.0087624 50.605414,47.9646157 C50.16015,49.2823868 49.1494834,51.7031812 49.968679,53.0742638 C50.1413784,53.3633475 49.5031416,52.2941133 49.968679,53.0742638 L49.968679,53.0742638 Z M62.8835867,45.0835401 C63.1734213,45.4852538 62.9684347,47.2122473 62.6132747,46.7474608 C62.335454,46.3847921 62.7634481,45.4101671 62.8835867,45.0835401 C63.0209954,45.2735094 62.645562,45.7300363 62.8835867,45.0835401 L62.8835867,45.0835401 Z M53.6727046,41.4538503 C53.8694317,40.9380049 53.9903212,40.3883704 54.256128,39.8995562 C54.2884153,40.9124754 53.6486769,42.0477859 53.1358349,42.8744902 C53.3137903,42.4006933 53.4924966,41.9268964 53.6727046,41.4538503 C53.7357774,41.2879088 53.4924966,41.9268964 53.6727046,41.4538503 L53.6727046,41.4538503 Z M51.1475398,48.2386821 C52.3489265,48.9047009 52.5291346,53.2049146 50.8186602,52.9841598 C49.4640966,52.8144639 50.9936121,48.6989634 51.1475398,48.2386821 C51.3675437,48.3603225 50.1120946,51.3367582 51.1475398,48.2386821 L51.1475398,48.2386821 Z" id="Fill-28" fill="#485B60" sketch:type="MSShapeGroup"></path>
                <path d="M85.1437818,45.6857352 C85.5620145,45.6113994 85.9412022,45.4477104 86.2820957,45.1946684 C87.1666167,44.5331548 86.5486534,44.9716609 87.5187732,44.8845604 C88.3477301,44.8102246 89.114365,44.2981335 89.7616121,43.8153262 C90.3983471,46.4088199 92.8056259,44.8965743 93.9552028,43.5953222 C94.1083796,45.2494816 95.9277297,45.1060661 96.9579189,44.3619572 C97.3956742,44.0458423 98.4694136,41.7354253 98.962733,41.8202733 C99.4282704,42.3729112 98.4176038,44.909339 99.0468301,44.9791696 C99.3193947,45.0189655 100.52829,42.667251 100.88345,42.3616482 C102.415218,41.044628 102.211733,42.0485368 102.11337,43.3723148 C101.933162,45.8066247 104.107672,44.7689269 104.759424,43.3047368 C105.297796,45.1053152 107.307115,43.9339631 107.889037,42.8970162 C108.137574,44.4715837 109.769958,43.7582603 110.262526,42.7964 C110.549358,43.7740285 111.744737,44.6300166 112.717861,43.9091845 C113.643679,43.2236432 113.39289,41.7752213 114.254885,41.0701574 C114.359255,41.461359 113.981569,43.331768 114.543218,43.3843287 C115.003499,43.4248755 115.296337,41.5454561 115.695798,41.1775314 C115.695798,41.5146705 115.457022,42.8947636 115.925563,43.0134005 C116.357312,43.1222762 116.813839,41.9058721 117.028587,41.6603387 C117.571463,42.9548329 119.771503,44.4070092 121.157603,43.1778403 C120.692816,42.4097037 119.385557,42.9916254 118.527316,42.6477284 C117.411529,42.199461 117.519653,39.7974383 116.291986,41.6438196 C116.310758,40.3695988 115.680781,39.940103 114.898378,41.2345972 C114.533456,38.5509996 112.830491,42.8354451 112.557175,43.2153837 C111.059196,45.2907793 110.751341,40.8238731 110.673251,40.7435304 C110.106346,40.1608578 109.507154,44.40776 108.579834,43.0787259 C108.124058,42.4254719 109.294659,39.8732759 108.057231,40.9139771 C107.856749,41.5154214 106.470649,44.9739135 105.411176,43.2934738 C105.334588,43.1718334 105.803129,38.8340763 104.814988,41.3787637 C104.466586,42.2745477 104.296139,43.5029656 103.440151,44.0916451 C102.95359,44.4257808 102.719319,44.4370438 102.700548,43.8573747 C102.678022,43.1575669 103.229909,41.7136502 102.473786,41.2233342 C101.565988,40.6339039 100.176134,42.1408934 99.6978316,42.7318255 C99.8187211,40.3365606 98.196849,41.4666151 97.4609996,42.7656145 C97.0014691,43.5803049 94.5694118,45.5092815 94.5438823,43.3850795 C94.5341211,42.5869082 95.0912642,42.030516 95.0597278,41.2285903 C95.0176792,40.1871382 94.0603242,42.3421257 94.0265352,42.5215828 C93.2606511,43.725973 90.6979429,46.0371408 90.2902223,43.3940899 C91.2933803,42.5313441 91.9308661,41.3870232 92.4009087,40.1668648 C92.5886254,39.6795522 93.1893188,36.6355385 91.6507928,37.5380803 C90.6754169,38.1102408 90.2564333,39.7576424 89.9440728,40.7592986 C89.6782659,41.6160375 89.9395676,42.9495768 89.2397598,43.4534084 C88.7389317,43.8138244 87.8003482,44.4888536 87.1170595,44.2553341 C87.5172715,43.613343 88.0819233,42.6544862 87.9783037,41.8600692 C87.835639,40.7735651 86.77091,41.506411 86.5246257,42.0628032 C86.2858501,42.5996729 85.9472092,43.6058344 86.2295351,44.1870052 C86.7160967,45.202177 83.8770696,45.0497511 83.5264148,44.9581453 C84.4387179,44.0465931 84.483019,41.8495571 82.8739116,41.6896225 C81.93683,41.5957641 82.195879,41.9764536 82.1898721,42.6349637 C82.1831143,43.5029656 81.6635145,44.3454381 81.068828,44.9408754 C81.221254,44.7876986 78.8304943,46.6903949 80.0296285,46.3104563 C81.0432986,45.9905871 81.1964754,45.2614955 82.2251628,45.4034093 C83.1284555,45.5280532 84.2307278,45.8516767 85.1437818,45.6857352 C85.7805167,45.5701017 84.3966694,45.8216421 85.1437818,45.6857352 L85.1437818,45.6857352 Z M90.4411465,41.191047 C90.522991,40.9132263 91.7581668,37.5958971 92.1110741,38.1718119 C92.7785947,39.2613195 90.9479816,41.9253946 90.2376616,42.6259533 C90.241416,42.1386408 90.308994,41.6603387 90.4411465,41.191047 C90.91194,39.5864448 90.3119975,41.6325566 90.4411465,41.191047 L90.4411465,41.191047 Z M87.1027931,42.2317483 C87.0532359,42.3361187 87.2837519,41.8247785 87.3828663,41.9163842 C87.5728356,42.3436274 86.9278411,43.3633044 86.7513874,43.6884297 C86.7686574,43.1996155 86.8917995,42.672507 87.1027931,42.2317483 C87.2244335,41.9779553 86.8812874,42.6927804 87.1027931,42.2317483 L87.1027931,42.2317483 Z M82.7732955,44.7546605 C82.5502881,44.7096085 82.3272807,44.6653073 82.1042732,44.6202553 C82.5577968,43.9444753 82.8844238,43.1087606 82.7672886,42.2813055 C84.0204851,42.3473817 83.6578165,44.3987496 82.7732955,44.7546605 C82.5532916,44.6990963 82.8844238,44.7103593 82.7732955,44.7546605 L82.7732955,44.7546605 Z" id="Fill-29" fill="#485B60" sketch:type="MSShapeGroup"></path>
                <path d="M106.656114,37.4569867 C105.871458,37.0447609 105.209193,38.2911997 105.788862,38.7687509 C106.385801,39.2613195 107.315375,37.8038872 106.656114,37.4569867 C106.575771,37.4149382 106.735705,37.4990353 106.656114,37.4569867" id="Fill-30" fill="#485B60" sketch:type="MSShapeGroup"></path>
                <path d="M135.219084,41.6032728 C135.204817,40.3252976 135.710151,36.9020962 133.830731,39.5038494 C133.746634,38.1763171 132.430365,38.3955701 131.791377,39.1426825 C132.000869,37.3330937 130.926379,39.2868489 130.722894,39.731362 C130.491627,40.2366954 129.365327,42.7077978 128.428245,41.7511935 C127.911649,41.224836 128.561899,38.8558514 128.014518,38.7274532 C127.605295,38.6260862 126.31005,41.4320752 125.626011,41.7136502 C125.901579,41.5920098 125.556931,41.9268964 125.324162,41.9772044 C125.457066,43.1342901 127.36727,40.7285131 127.545977,40.4386785 C127.492665,42.6462267 129.366078,43.0869855 130.539682,41.3359642 C130.10418,42.4006933 130.639548,42.8061613 131.121604,41.4989023 C131.235736,41.2270886 132.647365,38.2844419 133.166214,39.2680773 C133.454547,39.8169609 132.241897,42.1251252 132.870373,42.2685407 C133.24055,42.3548904 134.341321,39.714843 134.761055,39.3296483 C134.719757,40.2089133 134.572588,41.0851748 134.631906,41.968194 C134.691975,42.9030231 136.317602,41.5747399 136.492554,41.348729 C136.219238,42.7183099 136.129134,44.1254341 136.119373,45.5197937 C136.117871,45.816386 136.628461,46.8435717 136.718565,46.0544108 C136.893517,44.526397 137.299736,43.0359265 137.584314,41.5266844 C137.789301,40.4454363 137.517487,38.571273 138.965158,38.2791858 C140.040399,38.0614344 140.463888,39.1276652 139.948043,39.9498643 C139.592883,40.5152669 137.859882,40.5505576 137.853875,40.9973234 C137.846367,41.6670965 139.749063,41.2571232 140.05842,41.1730262 C141.144924,40.8764338 141.928078,40.0031758 142.705976,39.247053 C142.261463,40.503253 142.834374,43.0434352 144.577887,41.5011549 C145.180082,40.9680395 145.665893,40.0459752 145.652377,39.2282813 C145.649374,39.1194057 147.72552,38.4248539 148.081431,38.2206182 C147.659444,39.4422784 149.74385,38.8040416 150.228159,38.7139376 C148.577754,42.8887566 153.073944,39.7140921 154.285092,38.2927014 C154.454037,39.8462447 155.959525,40.7585477 157.369652,39.9656325 C157.920789,39.6547736 160.141852,37.3233325 158.56353,36.9351344 C158.446395,38.5232175 155.813856,41.2210816 154.977391,38.6824012 C154.555404,37.4006717 155.428662,36.0010561 156.650322,35.8358655 C157.857716,35.6721765 159.441294,35.5527887 160.288271,34.5451256 C159.830243,33.8588334 159.527643,34.5008244 158.975756,34.7253336 C158.025159,35.1105282 156.970942,35.173601 155.967784,35.326027 C156.442332,33.8002658 155.768804,33.5885213 155.056232,34.9888878 C154.584688,35.9162082 153.19183,36.204541 152.148125,36.3704826 C151.970921,36.3990155 151.592484,36.3967629 151.510639,36.6302825 C151.208791,37.5042913 154.32714,36.3532126 154.533629,36.2886381 C154.131164,37.6221774 153.500436,38.4241031 152.368129,39.3056206 C152.271267,39.3814582 150.400858,40.5025022 150.390346,40.3883704 C150.095255,39.8267221 151.126946,38.9865023 150.953496,38.5104527 C151.275618,37.6769907 148.950184,38.4654007 148.667107,38.3670372 C148.670861,38.3565251 149.890269,36.2308214 149.008751,36.8893315 C148.19331,37.4990353 147.278754,38.0832096 146.288361,38.3595285 C145.575038,38.5585082 145.331757,38.2213691 144.694271,38.2108569 C144.101086,38.2003448 145.117009,39.1847311 144.99612,39.6630332 C144.574883,41.3359642 142.528771,41.9133808 143.197794,39.6818048 C143.224074,39.5947043 144.249007,37.3556197 143.417798,37.8729669 C142.285491,38.5817851 141.563157,39.8432412 140.3445,40.4274155 C141.669029,38.7642457 139.710018,36.7429125 138.029578,38.0772026 C137.489705,38.5051967 137.257687,38.537484 136.916043,39.3078732 C136.570644,40.0872729 136.139646,41.326203 135.219084,41.6032728 C135.214579,41.1707736 136.00374,41.3667498 135.219084,41.6032728" id="Fill-31" fill="#485B60" sketch:type="MSShapeGroup"></path>
                <path d="M128.756374,36.2255653 C129.110032,36.6941061 129.673933,35.6488996 129.224915,35.3463004 C128.651253,34.9626075 128.099366,36.3314375 128.756374,36.2255653 C128.802177,36.2863855 128.663266,36.2405826 128.756374,36.2255653" id="Fill-32" fill="#485B60" sketch:type="MSShapeGroup"></path>
                <path d="M194.976812,36.8773176 C196.436497,36.7947223 196.173694,34.7268353 197.25344,34.2567927 C197.309755,35.20739 197.414126,37.1145915 198.746914,37.1498822 C200.818556,37.2046955 200.24189,35.004656 200.126256,33.7687294 C201.460547,33.7019022 201.033303,33.8085253 201.564166,34.8206936 C201.999669,35.6511522 202.881186,36.4230432 203.841545,36.5364241 C204.713301,36.6400437 205.456659,36.1181914 205.968,35.4641864 C206.233806,35.1157843 206.454561,34.7418526 206.630264,34.3401389 C207.088293,34.4512672 207.554581,34.1802043 207.966056,34.0315327 C206.869791,37.7242953 211.486119,35.4957228 212.199443,33.4330919 C211.399019,32.9217517 210.167597,35.263705 209.096861,35.5280101 C207.766325,35.8591423 208.660608,34.2117407 208.629071,33.6328225 C208.592279,32.9262569 207.185155,33.7409473 206.855524,33.7627224 C207.02522,33.2588909 207.104061,31.2262946 206.412513,32.5658409 C205.975508,33.4135694 206.161723,34.1726957 205.563282,34.9971473 C204.892758,35.9207134 203.913628,36.2285688 202.942758,35.5099893 C202.495992,35.1803588 202.098032,34.7065619 201.941852,34.1644361 C201.724852,33.4068116 202.429165,33.6268155 202.940505,33.2746591 C203.882843,32.6281628 203.337713,31.6535378 202.327047,32.0387324 C201.838233,32.2241965 201.510855,32.6612009 201.362183,33.1500152 C200.836576,33.1747938 200.312471,33.139503 199.786865,33.1920637 C199.30631,33.2393683 200.349264,37.6214265 198.504384,36.4733513 C197.884919,36.0881567 197.903691,34.8792613 197.854885,34.255291 C197.754268,32.9247552 196.509331,34.0217714 196.181203,34.6232157 C195.897375,35.1428155 195.435592,36.6400437 194.56759,36.2075445 C193.647027,35.7487649 194.138094,34.2500349 194.302534,33.5419676 C194.377621,33.2168423 194.008194,32.767824 193.774675,33.1988215 C193.273847,34.1208859 193.39774,35.5490344 192.360042,36.1684994 C191.440981,36.7188847 191.920785,35.2164004 191.968089,34.9408323 C192.173076,33.742449 190.865817,34.4400042 190.267376,34.6900428 C190.223826,32.5410623 189.246948,35.1758536 188.78892,35.8726579 C188.403725,36.4590848 187.043905,37.7828629 186.809635,36.4485727 C186.57161,35.0992652 187.043155,33.5442202 187.369782,32.2542312 C187.866855,30.2959707 186.947044,30.9852664 186.63168,32.520038 C186.414679,33.5757566 186.482257,33.9279131 185.440054,34.3183638 C184.649391,34.6149562 183.795656,34.8191919 182.953934,34.880763 C182.656591,34.9025381 181.381619,34.4445094 181.296021,34.5000736 C181.056494,34.660759 181.632409,35.9492463 181.187896,36.5003825 C180.692324,37.1168441 179.891149,36.8645529 179.677903,36.154233 C180.413752,35.2734663 180.958131,34.2252563 181.244962,33.1132227 C181.299775,32.8999766 181.805108,30.4341302 181.004684,30.8876537 C180.141938,31.370461 179.650121,32.5478201 179.352027,33.4315902 C179.080964,34.2372702 178.892496,35.1383103 179.0254,35.990544 C178.327844,36.7534246 177.334448,37.5425855 176.248694,37.5816306 C175.297346,37.6161705 175.01427,36.8427777 175.228267,36.0235821 C176.07149,35.7442597 176.592591,35.2216565 177.159496,34.570655 C177.712134,33.9361726 177.277382,33.2100845 176.434909,33.4195763 C175.769642,33.5855179 175.328132,34.3153603 175.036796,34.8792613 C174.627573,35.6706748 173.812883,36.0100665 173.075532,35.3192692 C172.33743,34.6284718 172.094149,35.8839209 172.550676,36.0348451 C173.260996,36.2713682 170.875492,38.8228133 170.10285,38.9391977 C168.996824,39.1066409 170.316847,36.2428352 169.597517,36.0528659 C168.850405,35.8628967 168.756546,38.4368678 167.65052,38.2761823 C166.549749,38.1162477 167.718848,36.5086421 167.965884,36.1512295 C168.011686,36.0543677 168.309781,35.6008442 168.212919,35.9394851 C168.389372,35.4123766 167.742125,35.4138784 167.534886,35.7164777 C167.257065,36.1226966 166.973989,36.5281646 166.779514,36.9831898 C165.995609,38.8168064 168.092029,39.3859634 169.063651,37.9202715 C169.016346,39.5631679 170.225242,39.9295909 171.406355,38.9414503 C171.88691,38.5382348 172.319409,38.058431 172.685832,37.5500942 C172.895324,37.26927 173.068774,36.9681725 173.206933,36.6468015 C173.49827,35.9274712 173.841416,36.3036554 174.583272,36.1812642 C174.071932,39.4077385 178.052276,37.8181536 179.226632,36.6468015 C179.715446,37.6304369 180.973899,37.7212918 181.654935,36.8780685 C181.97105,36.4868669 182.150507,35.9635128 182.10996,35.4596812 C182.996734,35.5933355 183.960847,35.3860963 184.811579,35.1503241 C184.599083,35.4243905 183.346638,37.6702329 184.416623,37.7272988 C185.270358,37.7685964 185.859789,37.1573909 186.213447,36.4463201 C186.447717,38.1350194 188.041056,37.7505756 188.886532,36.7489194 C189.947507,35.4919685 189.730507,35.2719646 191.367396,34.8860191 C191.268282,35.4018645 190.937149,36.148226 191.395178,36.5927391 C192.206865,37.3811492 193.168725,36.3404479 193.535899,35.6661696 C193.712353,36.3712334 194.210928,36.9156118 194.976812,36.8773176 C195.742696,36.8345182 194.469977,36.9020962 194.976812,36.8773176 L194.976812,36.8773176 Z M202.128818,32.925506 C202.249708,32.745298 202.597359,32.4674773 202.845145,32.5861143 C202.930744,32.508775 201.803693,33.4150711 202.128818,32.925506 C202.265476,32.722772 202.103289,32.9645511 202.128818,32.925506 L202.128818,32.925506 Z M176.663173,33.9932385 C177.070894,33.9992454 175.727593,35.1375594 175.526361,35.2419299 C175.69906,34.8882717 176.138317,33.9864807 176.663173,33.9932385 C176.680443,33.9939894 176.312518,33.9887333 176.663173,33.9932385 L176.663173,33.9932385 Z M179.593806,35.2103935 C179.662885,34.0397922 180.104395,32.7407928 180.849255,31.8232337 C180.773417,33.0050979 179.647117,34.458025 179.593806,35.2103935 C179.668892,33.9541934 179.591553,35.2359229 179.593806,35.2103935 L179.593806,35.2103935 Z M184.652395,37.117595 C184.508979,36.2503439 185.474594,35.0114138 186.196928,34.632977 C186.001702,35.4371552 185.673574,36.9621656 184.652395,37.117595 C184.523997,36.3389462 185.460327,36.9944528 184.652395,37.117595 L184.652395,37.117595 Z" id="Fill-33" fill="#485B60" sketch:type="MSShapeGroup"></path>
                <path d="M194.044236,30.8290861 C194.650936,30.8373457 195.160775,30.0902333 194.711006,29.7117964 C193.803208,29.3956815 193.552418,30.8223283 194.044236,30.8290861 C194.05625,30.8290861 193.965395,30.8275844 194.044236,30.8290861" id="Fill-34" fill="#485B60" sketch:type="MSShapeGroup"></path>
                <path d="M64.955228,65.6017243 C67.4894033,66.6146435 69.6594081,64.3214965 70.0078103,61.9450033 C71.0049613,62.195042 70.8074833,63.4309686 70.3209217,64.059444 C70.0588692,64.3980849 68.2943324,64.6819126 68.657001,65.1369378 C68.9198044,65.4665683 70.6317805,65.6460254 71.10783,65.6790636 C72.3490127,65.766915 73.502344,65.2015123 74.5272771,64.5655282 C74.2494564,63.6517234 73.6254862,64.4311231 73.0510731,64.6864178 C72.144777,65.0896332 71.2557508,65.1782355 70.3081569,64.9026674 C71.1025739,64.3320087 71.6079073,63.1351271 71.186671,62.1965437 C71.0019578,61.7843179 70.0423501,60.938091 69.547529,61.372092 C69.0587147,61.8023387 68.9963928,63.3806605 68.4903086,64.0279076 C67.7694765,64.9484702 66.6611973,65.4815856 65.4920978,65.1504534 C65.8893063,64.4431369 66.4922522,63.7305644 66.4186673,62.8625625 C66.3916361,62.5464476 66.1250784,61.5477948 65.6174925,61.6942138 C65.2270418,61.8136017 65.2781007,62.8670677 65.2075193,63.1719196 C64.7952934,64.955228 61.9878027,67.8295459 61.9067091,64.4461404 C61.9007022,64.2043613 62.0899206,63.05103 61.7783109,62.8670677 C62.8505486,61.6236324 62.0463703,61.513255 61.1213025,62.634299 C60.7826616,63.0450231 56.6986975,68.5961808 56.2744578,66.0687634 C55.9305608,64.014392 58.6306776,61.9157195 59.4596345,60.0881099 C59.6300812,59.7096731 60.1624457,58.0968114 59.1134849,58.2972928 C58.0164686,58.5067846 57.3857406,60.5536473 56.9885321,61.4111371 C56.5259982,62.4105407 56.3074959,63.7636025 55.4965599,64.5062097 C54.5564747,65.3674539 53.4752266,66.16112 52.2881063,66.6446782 C49.439318,67.8070199 50.5340817,63.4775223 52.2100162,63.0495283 C52.68982,63.8424436 53.0119419,62.5622158 52.5907056,62.459347 C51.2481559,62.1342217 50.3005621,64.1247694 50.0392605,65.1196679 C48.8799223,69.5265047 54.4273257,66.2564801 55.7135604,65.118917 C55.2089779,68.4347445 58.4835077,67.0020907 59.7291956,65.479333 C59.5121951,66.9495301 61.0041673,65.9726525 61.366836,65.2916163 C61.5004902,66.1979125 62.031353,67.0261185 63.0667982,66.6889793 C63.6344535,66.5042661 64.5940611,65.4560562 64.955228,65.6017243 C65.9786594,66.0109467 64.8831448,65.5724405 64.955228,65.6017243 L64.955228,65.6017243 Z M58.515795,59.7021644 C58.6599614,59.4333541 58.8807162,59.0594225 59.1713016,58.9092492 C59.2711669,60.2067469 57.7469075,61.9878027 56.9930373,62.915874 C57.4330452,61.8143525 57.9571501,60.7473709 58.515795,59.7021644 C58.7846053,59.1990837 57.87906,60.8945408 58.515795,59.7021644 L58.515795,59.7021644 Z M60.4545329,65.5273885 C60.2728231,65.6850705 61.0582297,63.8033985 61.3142753,63.451242 C61.2376869,64.1390359 60.9989113,65.0535916 60.4545329,65.5273885 C60.4042248,65.5716896 60.9245754,65.1181661 60.4545329,65.5273885 L60.4545329,65.5273885 Z" id="Fill-35" fill="#485B60" sketch:type="MSShapeGroup"></path>
                <path d="M126.954294,60.775153 C129.394611,63.2282346 131.347615,60.6392461 132.505452,58.4775008 C132.359783,58.8566885 131.288297,61.2962545 131.949059,61.4922307 C132.576033,61.66493 133.451544,58.4549748 133.611478,57.9766727 C134.101043,56.5094791 135.806262,51.9937666 137.946232,52.3909751 C139.35636,52.6530276 138.146713,54.6233019 137.702951,55.1781924 C136.828191,56.2707035 135.56223,56.4862022 134.447944,57.2325637 C134.350331,57.2978892 133.462807,57.9541467 134.119064,58.1005657 C134.539549,58.1936732 135.556974,57.422533 135.932407,57.2258059 C136.725323,56.8098258 138.789455,56.1257862 139.067276,57.5434226 C139.295539,58.7065151 138.54242,59.614313 137.630868,60.2014908 C136.605184,60.8630044 134.770816,59.9687221 133.65653,59.6541089 C132.489683,59.3259802 133.063345,61.1798701 133.70834,61.524518 C135.096693,62.2686269 136.469277,61.056728 137.825342,61.2339325 C138.848023,61.3675868 139.909748,61.411888 140.925671,61.2061505 C141.621724,61.0657384 141.665275,60.8960425 142.350065,61.0807557 C143.049873,61.2692233 143.820262,61.0327003 144.344367,60.5461386 C146.057094,58.9558029 146.355188,54.8793474 145.297217,52.898561 C146.181738,52.8437477 147.130083,52.7221073 147.921496,52.2948641 C149.021516,51.7001777 149.006499,50.3245898 147.498007,50.9072624 C147.847911,51.4080905 147.425924,51.3803085 148.100953,51.4035853 C146.482836,53.3723579 143.242095,51.6678904 141.295097,52.0132891 C139.770087,52.2828503 140.342248,54.1615188 141.70432,54.1615188 C142.37184,54.1615188 142.950008,53.7935941 143.431313,53.3656001 C144.063543,52.8047027 144.178426,52.9503708 145.059943,52.9113257 C144.66724,53.1335823 145.228888,56.1588243 145.136532,56.9457327 C144.987109,58.2252096 144.310578,61.1633511 142.370339,60.4575363 C142.763793,59.9003932 142.226923,60.2247677 141.950604,59.980736 C141.786915,60.5446369 141.041304,58.7350481 141.02854,58.5112898 C141.662271,58.6261724 143.747428,58.8011243 143.326192,57.7491601 C142.793077,57.8107311 140.938436,57.6447896 140.581774,57.8738039 C139.844423,58.3333344 140.951951,60.1143902 141.319125,60.4748063 C140.29269,60.8494888 139.084546,60.7849142 138.020568,60.6527617 C139.732544,59.512946 140.713927,56.0131562 137.668411,56.1055128 C138.572455,55.2525282 140.059922,53.078769 138.613752,52.0425729 C137.009901,50.8959994 135.21608,53.5075139 134.493747,54.5932672 C134.602622,53.9685461 134.676207,53.3370672 134.691975,52.7025848 C134.715252,51.7542401 133.810458,53.3130394 133.767658,53.5615763 C133.536392,54.9063786 133.167716,55.9215504 132.526476,57.1447123 C131.611169,58.8889757 130.125955,62.5487002 127.666115,60.6092114 C125.303889,58.7470619 127.618811,54.9461746 129.523009,53.6561855 C130.466097,53.0171979 132.005374,52.8054535 131.590896,54.4235713 C131.354373,55.3471374 129.925473,56.3255167 130.35572,57.1011621 C131.661477,56.667912 133.177477,53.60813 131.62093,52.678557 C130.001311,51.7121916 127.974722,54.1224738 127.233616,55.2667947 C126.668964,56.1393018 126.212437,57.1311967 126.090046,58.1733998 C125.972911,59.1735542 126.825145,60.1549371 126.090046,60.7653917 C125.31365,61.4103862 124.32626,61.7880722 123.309587,61.7249994 C122.270387,61.659674 121.31979,60.8389766 120.288099,61.3307943 C120.411992,59.9259227 119.765496,59.2298692 118.714282,60.5070935 C118.817902,58.5060337 117.322175,59.0646786 116.610354,60.4552837 C116.395606,60.8742674 116.074235,62.0606368 115.487808,62.1199553 C114.361508,62.2445992 115.100361,60.3336433 115.155925,59.9334314 C115.258794,59.1938276 114.70991,58.9588064 114.453864,59.71568 C114.183552,60.5153531 114.188058,61.8481415 113.0122,61.9480068 C110.972846,62.1199553 113.317052,59.1660456 112.459562,58.9235156 C111.602073,58.6914978 111.56528,62.60051 110.245256,62.3084228 C109.302168,62.0996819 110.838441,59.4438663 109.920882,59.3860495 C109.331452,59.3582675 109.20906,63.3258472 108.113546,62.7424238 C107.611967,62.4728626 108.163103,60.5453878 108.093272,60.082103 C107.899549,58.786107 106.728948,59.8313135 106.411331,60.4462733 C106.36703,59.7584794 106.061427,58.7350481 105.133356,59.130004 C104.282624,59.4919217 103.995042,60.7593848 103.654899,61.5125041 C102.635973,63.7681077 101.788245,61.9675293 102.030024,60.397467 C102.094598,59.9769816 102.610444,58.8461763 102.439246,58.4549748 C102.07057,57.6102497 101.495406,59.4896691 101.463119,59.5857801 C101.180042,60.4192421 100.89171,61.3465625 100.208421,61.9502594 C99.5596721,62.5224198 98.0797138,62.3587309 98.8598643,61.3660851 C99.030311,60.5859346 100.054493,59.5925379 100.379619,58.7808509 C100.800104,57.7311393 101.031371,56.600334 101.002087,55.4672761 C100.945021,53.315292 99.3929797,54.3034326 98.9296949,55.7007956 C98.433372,57.1980239 98.0917276,58.8236503 98.0143883,60.3997196 C97.9573225,61.5628122 97.7057821,62.0929241 96.653067,62.7844723 C95.689705,63.417453 94.6001973,63.073556 94.1279022,62.0351073 C94.9298278,61.6544179 96.038858,60.9320841 95.7355078,59.8748638 C95.5680645,59.2891877 95.0987728,58.8259029 94.4740517,59.1405161 C93.7622301,59.4979287 93.340243,60.3561693 93.3312326,61.1250569 C93.3207204,62.0396125 92.5548364,62.0223426 91.6605541,62.1672599 C91.6237616,60.1414215 88.5189277,59.5031847 89.2547771,57.8017207 C89.7158093,56.73549 90.0003878,55.5806569 89.9410693,54.4130592 C89.8885086,53.3806174 88.6375646,55.3786738 88.5767444,55.5386084 C88.3049307,56.2549353 88.1224701,57.0516049 88.1389891,57.8212433 C88.1607643,58.8732075 87.717002,59.4401119 87.0614954,60.3261347 C86.7506366,60.7541287 86.4240095,61.1701089 86.083116,61.574826 C85.5732775,61.4779642 84.9267813,61.4787151 84.6407011,62.0065744 C84.2419908,62.7409221 84.489026,63.3911726 83.4340582,63.6382078 C83.6172697,63.6021662 83.7036194,63.7883811 83.7036194,63.924288 C83.5301692,63.8311806 83.3161721,63.8071528 83.1344624,63.7313153 C82.8851746,64.4686664 83.8650557,64.1052469 84.1128417,63.9625822 C84.8802275,63.5203217 84.6376976,63.879236 85.2286297,64.3928289 C86.4908367,65.4913469 88.6555854,65.3561909 90.0589554,64.6195906 C90.7895487,64.2373995 91.4067611,63.608924 91.5967304,62.7852232 C92.2717596,62.6876105 92.9355258,62.515662 93.5722608,62.2723812 C94.6069551,64.5782929 96.8970987,63.6502217 98.1848351,62.1905368 C98.8012967,63.9535718 100.767066,62.4826239 101.337724,61.4704556 C101.347486,62.7942336 102.608191,64.0647001 103.696948,62.656825 C103.909443,62.3812569 105.279024,59.1697999 105.662717,59.7359534 C106.236379,60.5814294 105.20619,62.2588656 105.809887,62.9436561 C106.177811,63.3618888 107.013526,60.3907092 107.491077,60.1181446 C107.669784,61.0191847 107.030045,62.0816611 107.494081,62.9384 C108.097027,64.0526862 109.169264,62.8655659 109.48613,62.24535 C109.933647,63.6554777 111.256674,62.5134094 111.673405,61.7895739 C112.18925,62.9736907 113.690984,62.5704753 114.340484,61.7858196 C115.20398,64.9702454 117.409276,59.7697424 118.148129,59.7374552 C118.136115,60.18347 117.841775,61.5140058 118.164648,61.8729201 C118.522811,62.2708795 119.337502,60.6152184 119.704676,60.4350103 C119.737714,60.8164506 119.43962,61.9044565 119.82106,62.1162009 C120.164206,62.3061702 121.249208,61.7512797 121.909971,62.0155848 C123.691027,62.7259047 125.658298,62.1312183 126.954294,60.775153 C127.232114,61.0544754 125.579457,62.2138136 126.954294,60.775153 L126.954294,60.775153 Z M134.324802,61.1115413 C133.875783,61.0161812 133.59571,60.7331044 133.596461,60.2615601 C134.424667,60.498834 135.255876,60.7323536 136.096847,60.9223228 C135.544209,61.0980257 134.905972,61.2346834 134.324802,61.1115413 C133.832233,61.0071708 134.802353,61.2129083 134.324802,61.1115413 L134.324802,61.1115413 Z M141.821455,53.5548185 C141.359672,53.602874 140.76874,53.3746105 141.054069,52.8324847 C141.367931,52.2377983 142.658671,52.7611524 143.109191,52.8475021 C142.746523,53.1808869 142.332044,53.5022578 141.821455,53.5548185 C141.486568,53.5893584 142.317778,53.5037596 141.821455,53.5548185 L141.821455,53.5548185 Z M89.3163482,55.3358744 C89.2450158,56.0176614 89.0565483,56.7234761 88.7471912,57.4608272 C88.7982501,56.791805 89.0227593,55.935066 89.3163482,55.3358744 L89.3163482,55.3358744 Z M85.1047367,62.5239216 C85.1392766,62.2250766 85.2729308,62.121457 85.5837897,62.121457 C85.2241245,62.6635828 85.0641899,62.7979879 85.1047367,62.5239216 C85.1325188,62.2783882 85.1024841,62.5434441 85.1047367,62.5239216 L85.1047367,62.5239216 Z M90.190357,63.8319314 C88.979209,64.7329715 85.818811,65.1557095 85.1753182,63.2958126 C85.9900086,62.6665863 86.015538,62.4360702 86.8902978,62.3940216 C88.2178301,62.7183961 89.5791515,62.9519156 90.9502342,62.8550538 C90.7925522,63.2560166 90.5395101,63.5818928 90.190357,63.8319314 C89.0670604,64.668397 90.4831951,63.6141801 90.190357,63.8319314 L90.190357,63.8319314 Z M87.0337133,61.8098473 C86.933848,61.7843179 86.8347336,61.7580375 86.7348684,61.732508 C87.4106484,60.910309 88.0443799,60.0408053 88.5812496,59.1217444 C89.4094556,60.2210133 91.0801341,60.6234779 91.0598607,62.2423466 C89.7007919,62.3617344 88.3499827,62.13272 87.0337133,61.8098473 C87.0337133,61.8098473 88.4468445,62.1559969 87.0337133,61.8098473 L87.0337133,61.8098473 Z M93.9559537,61.450933 C93.8853722,60.9718801 94.1421686,59.6353373 94.8817724,59.6353373 C96.0035672,59.6353373 94.1707016,61.3450608 93.9559537,61.450933 C93.9184103,61.1978909 94.4650413,61.1993927 93.9559537,61.450933 L93.9559537,61.450933 Z M99.53189,55.79991 C99.6415165,55.5363558 99.932102,54.8320428 100.250469,54.6713573 C101.478887,55.8997753 99.3419207,59.7231887 98.6083239,60.7083258 C98.6511233,59.1232462 98.9184319,57.2768649 99.53189,55.79991 C99.8374928,55.0625589 99.2848549,56.3953473 99.53189,55.79991 L99.53189,55.79991 Z" id="Fill-36" fill="#485B60" sketch:type="MSShapeGroup"></path>
                <path d="M110.739327,56.2992364 C109.845045,55.9868758 109.634051,57.6545508 110.217474,57.6545508 C110.945815,57.6545508 111.252169,56.5560328 110.739327,56.2992364" id="Fill-37" fill="#485B60" sketch:type="MSShapeGroup"></path>
                <path d="M153.158792,61.7152381 C150.294986,60.0468122 152.307309,54.2816575 153.258657,51.9554724 C153.83307,50.5506007 154.653767,48.7755518 156.099937,48.0734914 C156.520422,46.999752 154.996913,48.0404533 154.50885,48.5990981 C152.62042,50.7600926 151.741906,53.9610374 151.348452,56.7535108 C151.142715,58.2177009 151.021074,59.94094 151.843273,61.2512025 C153.097221,63.2492588 155.895701,62.8505486 157.68802,61.9014531 C157.489791,61.0079217 156.863568,61.6574214 156.274138,61.8391311 C155.280741,62.1454847 154.095873,62.26262 153.158792,61.7152381 C151.542927,60.7736512 154.42175,62.4525892 153.158792,61.7152381" id="Fill-38" fill="#485B60" sketch:type="MSShapeGroup"></path>
                <path d="M190.914623,54.9784618 C191.094831,56.2023746 188.984896,55.6332176 188.629736,54.9649462 C187.941942,53.6697011 190.141231,53.6441717 191.044523,53.3002747 C190.924385,52.1897428 189.370841,53.2807522 188.720591,53.4752266 C188.961619,52.8610177 189.157595,52.2272861 189.298758,51.5830425 C189.512755,50.6009088 188.219763,52.1904937 188.144676,52.3834664 C187.68064,53.5653306 187.985492,53.8071097 186.547583,53.9047224 C186.022727,53.940764 185.573708,53.9610374 185.167489,53.6464243 C183.990881,54.8095168 187.261657,54.4340835 187.655862,54.357495 C186.982334,55.6467332 185.819993,57.1732453 184.171089,56.9524905 C184.608845,56.3885895 185.801972,55.1038566 184.434644,54.6811186 C183.135644,54.2794049 183.075575,55.0715693 182.870588,56.047696 C182.669356,56.9892829 181.616641,57.8430184 180.684815,57.2055325 C179.532986,56.4163716 181.387626,55.2885698 181.023456,54.0473871 C180.679559,52.8722807 179.487183,54.955185 179.45039,55.3201062 C179.387317,55.9433256 179.701931,56.3067451 179.169566,56.73549 C178.726555,57.0914008 178.062788,57.3902458 177.60476,56.8766529 C176.787817,55.9590938 177.758687,54.4746303 177.962172,53.4654654 C178.927787,53.5322925 181.116563,53.8228779 181.556571,52.5937091 C181.130079,52.3556843 181.109806,52.419508 180.786933,52.6297507 C180.07361,53.0952881 178.864714,52.9203361 178.070297,52.8700281 C178.110093,52.628249 178.47126,51.4711633 178.312827,51.230886 C178.363135,50.875726 177.836027,50.7570891 177.728653,51.0994843 C177.438067,52.0245521 177.542438,52.8054535 176.486719,52.7543946 C175.643496,52.7145986 174.78075,52.887298 173.954797,53.033717 C174.198828,52.2287879 174.421085,50.0790564 173.574858,52.0005244 C172.998192,53.310036 172.641531,53.2912643 171.295227,53.5758428 C170.712554,53.6982341 169.921891,53.5946144 170.314595,54.3875297 C171.096247,54.2373564 171.874145,54.0654079 172.652794,53.9017189 C172.135447,54.8725896 171.30649,57.2363181 170.017252,57.3699724 C169.460859,57.4277891 170.107356,52.9834089 169.073412,55.4117119 C168.850405,55.935066 167.204505,58.9347786 167.437273,56.9036841 C167.504101,56.3217624 167.827724,55.3621547 167.315633,54.8891087 C166.584289,54.2118269 165.533075,55.1706837 165.144877,55.7420933 C164.993953,53.2499666 162.532612,56.8676425 162.199227,57.366218 C161.841064,57.9030877 161.034633,58.5473314 160.679473,57.6800803 C160.351344,56.8766529 161.566997,55.4612691 161.051903,54.8418041 C160.756061,54.4866441 159.471328,57.1785013 158.851863,57.4165261 C158.034169,57.7296375 157.970346,56.9119437 158.13028,56.3435375 C158.324755,55.6527402 159.053846,55.2735525 158.366052,54.7329284 C156.521924,56.3262676 158.031166,59.6120604 160.014205,57.2505845 C159.967651,58.8664497 161.46563,59.0278861 162.412473,58.0765379 C162.724834,57.7611739 163.9082,55.2758051 164.472852,55.4725321 C165.13887,56.0146579 163.850383,57.546426 164.076394,58.0630223 C163.940487,58.4151788 164.473602,58.639688 164.629783,58.295791 C164.876067,57.7566687 165.041258,57.18601 165.310068,56.6536455 C165.559356,56.1595752 165.932537,55.4650235 166.529476,55.3261131 C167.319387,55.1436525 166.889141,56.4148699 166.840334,56.8391096 C166.58504,59.0353948 168.381113,58.1756524 169.038121,56.9224558 C169.099692,58.3340852 170.580402,58.0750362 171.296728,57.2963874 C171.994284,56.5395138 172.414769,55.5656396 172.914846,54.6781151 C172.715116,55.7128095 172.488354,57.2956366 173.470488,58.0352403 C174.758224,59.0053601 176.102275,57.5501804 176.770547,56.5507768 C176.940994,57.1424597 177.391514,57.6770768 178.03801,57.7514127 C178.420201,57.7791947 178.776863,57.6958485 179.108746,57.4998723 C180.131426,56.9322171 179.414349,56.9667569 180.222281,57.608748 C181.871935,58.921263 183.458517,57.0853939 183.482545,55.4725321 C183.489302,55.022763 184.473689,55.0986005 184.45792,55.5483697 C184.439149,56.1122706 183.091343,56.7122131 183.474285,57.3256712 C183.900026,58.0089599 185.589477,57.4105192 186.06853,57.1221863 C186.895234,56.6243617 187.511695,55.8269412 187.989998,55.0039913 C188.532874,56.4449045 191.813411,56.9667569 191.50931,54.8913613 C191.323846,54.9183925 191.085821,54.9056278 190.914623,54.9784618 C190.970938,55.3584004 190.914623,54.9784618 190.914623,54.9784618 L190.914623,54.9784618 Z M176.653412,55.5791552 C176.195383,56.4884548 173.958551,59.1307548 173.421681,56.8346044 C173.224954,55.9921319 173.431443,55.0542994 173.627419,54.2328512 C173.886468,53.1485996 176.000158,53.3137903 177.009322,53.3918804 C176.818602,54.1029512 176.660169,54.8395515 176.653412,55.5791552 C176.649657,55.5874147 176.659419,54.8891087 176.653412,55.5791552 L176.653412,55.5791552 Z M180.030059,55.7405916 C180.026305,55.4027015 180.052585,54.5955198 180.479078,54.4363361 C180.447541,54.910133 180.297368,55.3448848 180.030059,55.7405916 C180.025554,55.3291166 180.310883,55.2855663 180.030059,55.7405916 L180.030059,55.7405916 Z" id="Fill-39" fill="#485B60" sketch:type="MSShapeGroup"></path>
                <path d="M169.632057,52.2385491 C170.337872,52.2670821 170.833444,50.8937468 170.109608,50.8599578 C169.388025,50.8554526 168.930747,52.2100162 169.632057,52.2385491 C169.635811,52.2385491 169.494648,52.2325422 169.632057,52.2385491" id="Fill-40" fill="#485B60" sketch:type="MSShapeGroup"></path>
                <path d="M195.092446,55.5310997 C194.097547,54.825285 192.537997,55.7924014 193.677813,56.5237456 C194.486496,57.0425945 195.334225,56.2196445 195.092446,55.5310997 C195.092446,55.5310997 195.119477,55.6091899 195.092446,55.5310997 L195.092446,55.5310997 Z M194.459465,55.9478308 C194.317551,56.0506995 194.165125,56.0747273 194.002187,56.0191631 C193.451802,55.6662558 195.01811,55.5078229 194.459465,55.9478308 C194.322807,56.0559556 194.475233,55.9358169 194.459465,55.9478308 L194.459465,55.9478308 Z" id="Fill-41" fill="#485B60" sketch:type="MSShapeGroup"></path>
                <path d="M197.317264,49.8267652 C197.070229,50.0325027 195.453613,50.5678707 195.367263,49.9897033 C198.210045,49.2598608 201.243546,50.1571466 204.032265,49.0758985 C203.918884,48.0472111 202.554559,48.8964413 201.856253,48.9790367 C200.262914,49.1675042 198.654558,49.0218361 197.057464,49.1314626 C196.483802,49.1697568 193.918841,49.2500996 194.943774,50.4612476 C195.539962,51.1670623 197.098762,50.791629 197.702459,50.2885482 C197.577064,50.137624 197.463683,49.9559143 197.317264,49.8267652 C196.989886,50.1000807 197.317264,49.8267652 197.317264,49.8267652" id="Fill-42" fill="#485B60" sketch:type="MSShapeGroup"></path>
                <path d="M200.385305,50.4409742 C200.299707,51.7189494 200.243392,53.0885303 199.750823,54.2884153 C199.163645,55.7225708 197.250437,55.7135604 196.632474,54.2366055 C196.843467,54.2253425 197.342043,54.3342182 197.534264,54.2636367 C198.559198,54.250872 199.269517,53.0164471 198.020826,53.4414376 C196.905038,53.8213762 194.796604,53.6787115 196.723328,55.3343727 C198.45708,56.8248431 200.08571,55.57465 200.56251,53.7312722 C200.75323,52.9939211 201.588194,49.6127682 200.429607,49.8275161 C200.414589,50.0317518 200.399572,50.2359876 200.385305,50.4409742 C200.291447,51.8428424 200.400323,50.216465 200.385305,50.4409742" id="Fill-43" fill="#485B60" sketch:type="MSShapeGroup"></path>
                <path d="M211.931383,55.016756 C210.803581,55.4259784 210.365075,54.1615188 210.470947,53.2845065 C210.680439,51.5507552 211.727898,52.3369127 213.078707,52.0005244 C213.092974,50.9891069 211.652061,51.5162153 210.943243,51.5252257 C211.195534,50.7886255 211.525164,50.0167345 211.536427,49.2245701 C211.541683,48.8558945 210.986793,48.8198529 210.937986,49.180269 C210.827609,50.0159836 210.522757,50.8291723 210.154082,51.5822916 C209.832711,51.6288454 208.346745,51.6753991 208.54122,51.6521222 C208.154523,51.6708939 207.981073,52.3466739 208.461628,52.3759577 C208.924913,52.4037398 209.345398,52.2310405 209.793666,52.2490613 C209.005255,53.5863549 207.698747,55.1218774 205.987522,55.0640606 C206.491354,54.4558586 207.369117,54.2583806 207.748305,53.5187769 C208.23787,52.5644253 207.227954,51.7459806 206.344935,51.7159459 C205.414611,51.6851604 205.347784,52.6289998 205.211126,53.3250533 C205.039928,54.1923044 204.156909,55.0475416 203.30017,55.2810611 C201.374197,55.8044152 203.520925,53.5285382 203.59451,53.4008908 C203.92414,52.8324847 204.093836,51.6626344 203.056138,52.3767086 C202.724255,52.6049721 201.588194,53.9279993 201.577682,54.2478685 C201.580685,54.1667749 201.949361,55.1143687 201.938098,55.073071 C202.119808,55.7090552 202.782823,56.019914 203.400035,55.8757476 C204.207968,55.6857783 205.121022,54.9356624 205.533999,54.2328512 C205.810318,53.7635595 205.728473,52.2775942 206.351692,52.318141 C208.79276,52.4803282 205.29222,54.6698556 205.262185,55.3065906 C205.228396,56.0131562 206.915593,55.5731483 207.216691,55.4650235 C208.319714,55.0685658 209.201232,54.1930552 209.869503,53.2574753 C209.593184,55.7653702 213.15905,56.5733028 213.098981,54.2275951 C212.298557,54.0098437 212.56136,54.7907451 211.931383,55.016756 C211.582981,55.1436525 212.106335,54.9536832 211.931383,55.016756" id="Fill-44" fill="#485B60" sketch:type="MSShapeGroup"></path>
                <path d="M227.954879,54.2215882 C227.64402,54.2936714 227.345926,54.2606332 227.059095,54.120972 C227.650778,53.6674485 228.482738,51.2481559 227.155957,52.1732237 C226.632603,52.5388958 226.132526,53.2469632 226.246657,53.9212415 C225.549853,54.2748997 224.747176,54.4273257 223.973784,54.4821389 C224.803491,53.7650612 223.787569,51.3622877 222.848234,51.7977904 C222.264811,52.0658498 222.336143,54.0105946 221.644595,54.5294435 C220.400409,55.4680269 220.607648,53.5217804 220.658707,52.8009483 C221.833063,51.4343709 220.291533,52.0741093 219.581964,52.7528928 C218.415868,53.8694317 217.681521,54.9679497 215.936506,55.2495247 C213.931692,55.5761517 213.900156,54.0226085 214.359686,52.520875 C214.70959,51.3825611 215.16837,50.2006968 215.923742,49.2658678 C216.278151,48.8288633 216.740685,48.4158866 217.315098,48.3190248 C218.092245,48.1853705 218.162826,49.0195835 218.722222,49.3439579 C219.840262,48.2709693 217.262537,47.4900679 216.353988,48.0659827 C214.946864,48.9587633 214.25081,50.8269197 213.786024,52.3451722 C213.277687,54.0015842 213.351272,56.0514504 215.60162,55.8945192 C216.609283,55.8231869 217.554624,55.4102102 218.388086,54.8560706 C218.792052,56.0379348 219.822242,54.65634 220.058014,54.2133286 C220.216447,55.5160824 221.430598,55.8096713 222.258053,54.7517001 C222.300853,55.7556089 226.079214,54.6833712 226.522976,54.4566095 C227.688321,55.6249581 230.412466,54.1532593 230.989132,52.9173327 C230.263794,52.3842173 228.95203,54.048138 227.954879,54.2215882 C227.679311,54.2696436 228.970051,54.0443836 227.954879,54.2215882 L227.954879,54.2215882 Z M218.954991,54.6585926 C218.94598,54.3402251 219.120181,54.1232246 219.478345,54.008342 C219.367216,54.2809066 219.193015,54.4971563 218.954991,54.6585926 C218.927208,54.6067828 219.081136,54.6428244 218.954991,54.6585926 L218.954991,54.6585926 Z M222.923321,54.3019309 C222.770144,54.3507372 222.616968,54.3995436 222.464542,54.4475991 C222.794172,53.8972137 223.034449,53.2687383 223.186875,52.6462698 C223.955012,53.3062816 223.933988,54.0188542 222.923321,54.3019309 C222.768643,54.3454812 223.41589,54.1645223 222.923321,54.3019309 L222.923321,54.3019309 Z M227.284355,52.8527581 C227.211521,53.0855268 227.075614,53.2965204 226.875884,53.4879914 C226.950219,53.2627314 227.109403,53.0314644 227.284355,52.8527581 L227.284355,52.8527581 Z" id="Fill-45" fill="#485B60" sketch:type="MSShapeGroup"></path>
                <path d="M230.167683,43.1342901 C229.802011,43.2739513 229.754707,43.5360038 230.02577,43.9204475 C232.108674,42.0477859 234.412333,48.7582819 234.661621,49.8327721 C235.062584,51.557513 235.27583,53.4774792 234.878621,55.2187392 C234.702918,55.9883776 234.365028,56.7302339 233.755325,57.253588 C232.981181,57.9173542 232.294889,57.1124251 231.797064,57.8392641 C233.032991,59.3177207 234.821555,57.2280585 235.248799,56.0747273 C235.926831,54.2456159 235.733108,52.059092 235.353169,50.1849286 C234.850088,47.7033141 233.428698,42.9953797 230.167683,43.1342901 C230.047545,43.1395461 233.501532,42.9923762 230.167683,43.1342901" id="Fill-46" fill="#485B60" sketch:type="MSShapeGroup"></path>
                <path d="M240.103152,49.5827335 C240.892313,49.7606889 241.411162,48.5367762 240.757157,48.487219 C240.19701,48.4391635 239.395085,49.4243006 240.103152,49.5827335 C240.181242,49.6007543 239.958985,49.5504463 240.103152,49.5827335" id="Fill-47" fill="#485B60" sketch:type="MSShapeGroup"></path>
                <path d="M240.93286,53.1380875 C240.759409,52.3654456 239.567033,53.2687383 239.684168,53.9377605 C239.813317,54.6766134 241.105559,53.9144837 240.93286,53.1380875 C240.908081,53.0314644 241.005694,53.467718 240.93286,53.1380875" id="Fill-48" fill="#485B60" sketch:type="MSShapeGroup"></path>
                <path d="M76.7370779,81.9540999 C75.9133771,82.0539652 74.2434495,81.9323248 74.933496,83.0443584 C75.4170542,83.8245089 75.6655911,85.0116292 75.3930264,85.902908 C74.8959527,87.525531 74.2299339,85.8893924 74.1983975,85.1715638 C74.1195565,83.379245 74.3748511,81.8527329 75.3359606,80.3690202 C76.0845747,79.2134363 76.770116,77.9317068 76.9555801,76.5486103 C77.1560615,75.0558873 76.2144746,75.6678437 75.6903697,76.4427381 C74.6894643,77.9241982 74.3665916,82.9580087 71.9803372,82.8311122 C74.1758715,80.8082773 71.8767175,78.708103 70.9764283,81.2355204 C70.5003788,82.5698106 71.3548652,82.8588943 69.7998202,83.5977472 C68.8477212,84.0505198 67.8520719,84.0985753 67.2078282,83.1156907 C65.9208427,81.1529251 68.1066157,79.2066785 68.1374012,77.1387916 C68.1591764,75.6130304 67.265645,76.9705974 67.0103503,77.5502665 C66.5290447,78.6412759 66.6048822,80.263148 66.0312201,81.2077384 C65.6955826,79.446205 61.8714184,81.3428944 62.6748458,83.3041583 C63.4384773,85.1663078 65.6114856,82.9197145 66.2076737,82.0457056 C66.4156638,83.4753559 67.5652408,84.8697154 69.1450644,84.4755104 C69.975523,84.2682712 70.7549227,83.8057373 71.4307027,83.2906427 C72.3092168,83.7426644 73.2110077,83.0173272 73.7876734,82.4166338 C73.6705382,83.2275699 72.9917546,87.4632091 74.7990908,87.176378 C76.7213097,86.8677718 76.144644,83.874817 75.4568501,82.7492678 C77.1425459,82.4046199 79.2614918,82.5923366 80.5462248,81.2242574 C80.2158434,80.674623 80.1017117,80.8938761 79.677472,81.1739494 C78.8222348,81.7401029 77.7267202,81.8347121 76.7370779,81.9540999 C76.0958377,82.0314392 78.0120496,81.8001722 76.7370779,81.9540999 L76.7370779,81.9540999 Z M76.3496306,76.5471086 C76.1724261,77.7237168 75.5492067,78.9100862 74.9425064,79.8704447 C75.3261993,78.460317 75.8225222,77.2048678 76.3496306,76.5471086 L76.3496306,76.5471086 Z M65.5454093,81.9435878 C65.1992597,82.4218899 62.8978532,84.4785138 63.1614074,82.5645546 C63.3558819,81.1529251 65.0355708,81.0470529 65.8990675,81.4209845 C65.7811814,81.5951856 65.6632954,81.7686358 65.5454093,81.9435878 C65.1512043,82.4894679 65.6602919,81.784404 65.5454093,81.9435878 L65.5454093,81.9435878 Z M71.4735021,82.4939731 C71.2962976,82.0614738 71.5973951,80.4989202 72.2521509,80.5146884 C73.1637031,80.5349618 71.5951425,82.3858483 71.4735021,82.4939731 C71.4479726,82.4316511 71.8128939,82.1928755 71.4735021,82.4939731 L71.4735021,82.4939731 Z" id="Fill-49" fill="#485B60" sketch:type="MSShapeGroup"></path>
                <path d="M101.171783,76.4247173 C100.391632,76.4562537 99.6692986,76.6304548 98.9319475,76.888753 C99.0873769,76.3969352 99.2240346,75.8638199 99.2000069,75.3427184 C99.1782318,74.8486481 98.6571303,75.1429878 98.5542615,75.4298189 C98.3387628,76.0327649 98.123264,76.6357109 97.943056,77.2506707 C97.5075533,77.4143597 96.2491007,78.0458386 95.8346222,77.7454919 C95.0522191,77.1785875 93.914656,78.5496702 93.6908977,79.3260664 C93.4048175,80.3172104 93.6653683,80.5274531 92.4842549,81.0080078 C91.7251286,81.316614 90.9164452,81.3286279 90.1197756,81.1784546 C90.9337151,80.5950311 91.0516012,79.3996513 90.4644234,78.6149956 C89.6242035,77.4924498 89.5476151,78.6878296 89.4004452,79.3530976 C89.2915696,79.8471679 88.6683502,80.7947617 88.6893745,81.2190014 C88.1667712,81.9698681 87.5037559,81.192721 87.277745,82.0539652 C87.9828089,82.4819592 88.7209109,82.2169033 89.176687,81.5711579 C90.3638073,81.9007884 91.5974813,82.0396987 92.7620756,81.5456284 C94.0956149,80.9802258 93.4799042,80.9592015 94.630232,81.3023476 C95.8556465,81.6665179 96.9098634,80.6040415 97.5398406,79.7045032 C97.6261902,82.2687131 101.479638,81.9300722 100.833142,80.2849232 C100.133334,80.5161901 98.7006805,82.0059097 98.2171224,80.2496324 C97.3326014,77.0366737 100.32856,77.4984567 102.29508,76.8865004 C102.282315,76.094336 101.740189,76.4021913 101.171783,76.4247173 C100.893211,76.4359803 101.517933,76.4112017 101.171783,76.4247173 L101.171783,76.4247173 Z M89.5896637,80.7940108 C89.8126711,80.246629 89.9568375,79.666209 90.0589554,79.085789 C90.4058558,79.6684616 90.2279004,80.5004219 89.5896637,80.7940108 C89.8321936,80.2000752 89.8644809,80.6671143 89.5896637,80.7940108 L89.5896637,80.7940108 Z M94.7774019,78.6487846 C94.6174673,78.8192313 95.3075138,78.1239287 95.3217803,78.2252957 C95.6821963,78.4956078 94.353913,79.6992471 94.2119992,79.8321505 C94.2262657,79.3816305 94.4778061,78.9679029 94.7774019,78.6487846 C95.1716069,78.2282992 94.3862003,79.0662665 94.7774019,78.6487846 L94.7774019,78.6487846 Z M96.0170829,80.4561208 C95.6867015,80.6588548 94.6835435,81.057565 94.4057229,80.4681346 C94.929077,80.0108568 95.4764588,79.4927588 95.8015841,78.8687885 C96.1612493,78.1772403 96.9954622,78.2358079 97.7583428,77.9602398 C97.5503527,78.8500168 96.816005,79.9650539 96.0170829,80.4561208 C95.3503132,80.8653431 96.5486965,80.1287429 96.0170829,80.4561208 L96.0170829,80.4561208 Z" id="Fill-50" fill="#485B60" sketch:type="MSShapeGroup"></path>
                <path d="M113.898974,80.42083 C113.379374,80.5567369 112.798954,80.5762595 112.26659,80.5206953 C113.326063,80.1445111 114.860083,78.5466667 114.24212,77.3047331 C113.307291,75.4260646 111.309235,78.4062546 110.901514,79.1608757 C110.946566,76.7918911 109.814259,79.2802635 109.376504,80.0791857 C108.575329,81.5411232 107.442271,81.5125903 107.337901,79.7390431 C107.241039,78.0961467 107.619476,76.4419873 108.008424,74.8599111 C107.998663,74.8974544 108.44618,73.3889631 107.726849,73.8079468 C107.263565,74.0782588 107.193734,75.5920061 107.04281,76.049284 C106.769494,76.8797426 104.152724,82.7522712 103.195369,80.3389856 C102.777887,79.288523 103.145812,77.8671323 103.401857,76.8219258 C103.576058,76.110855 104.598739,74.544547 103.651145,74.2862489 C102.786897,75.8172661 102.244771,78.1877524 102.480544,79.9237563 C102.617201,80.9314194 103.266701,81.6409885 104.350953,81.3751817 C105.610907,81.063572 106.305459,79.4221773 106.772498,78.3634552 C106.688401,79.3943952 106.52321,81.6357324 107.975386,81.869252 C109.19104,82.0622247 109.876581,80.4808994 110.283551,79.6121466 C110.247509,80.2721584 109.089673,85.7429734 109.90211,85.7797659 C110.424714,85.7917797 110.729566,81.1319008 110.975099,80.4561208 C111.128276,81.4329984 113.242716,81.1544268 113.863683,81.0417968 C115.22125,80.7947617 117.134459,79.8058702 117.560951,78.3904864 C116.907697,77.9609906 116.903192,78.5549262 116.52025,78.9596434 C115.842968,79.6744685 114.844315,80.1737949 113.898974,80.42083 C113.470229,80.5327092 114.959198,80.1445111 113.898974,80.42083 L113.898974,80.42083 Z M111.264183,80.1077186 C110.887998,80.1152273 111.698934,78.9596434 111.907675,78.651788 C112.196008,78.2260466 112.747895,77.3520377 113.35835,77.3655533 C114.019113,77.3805707 113.662451,78.2981298 113.512278,78.5947222 C113.065512,79.4844992 112.296624,80.0821891 111.264183,80.1077186 C111.197355,80.1084695 111.800301,80.094203 111.264183,80.1077186 L111.264183,80.1077186 Z" id="Fill-51" fill="#485B60" sketch:type="MSShapeGroup"></path>
                <path d="M122.571485,82.9204654 C120.659027,80.7437027 121.081014,77.3753146 121.743279,74.7968382 C122.101442,73.3994753 122.612782,72.0126244 123.395185,70.7947186 C123.78864,70.1820113 125.30464,69.237421 124.503465,68.6464889 C120.050825,72.1087354 117.9499,84.9500581 126.106565,85.0011171 C126.350597,84.1188487 125.513381,84.4079324 124.909684,84.2765307 C124.004889,84.0805545 123.184192,83.6172697 122.571485,82.9204654 C121.442181,81.6349815 123.429725,83.8958413 122.571485,82.9204654" id="Fill-52" fill="#485B60" sketch:type="MSShapeGroup"></path>
                <path d="M140.511193,78.5977256 C139.888724,78.8259891 139.206186,78.8582764 138.576209,79.0730243 C138.937376,77.4263735 140.011115,76.3969352 140.575016,74.809603 C140.722937,74.3943737 141.322879,72.6028057 140.766487,72.2926977 C140.065929,71.8992435 139.221954,73.7689017 139.067276,74.1691137 C138.291631,76.1754296 138.40351,78.0188074 136.464772,79.3989004 C135.590763,80.0213689 135.160516,79.508527 135.12898,78.595473 C135.099696,77.8018069 136.430232,76.2948174 136.712558,75.4230611 C136.843959,75.0190948 137.481445,73.018035 136.858226,72.7694981 C136.287567,72.5359785 135.593766,74.1255634 135.442091,74.4627026 C134.676207,76.173177 135.011845,78.9874255 132.745729,79.508527 C130.163498,80.1032134 134.816619,76.7122993 132.633099,76.7370779 C131.8109,76.7520952 131.274781,77.7237168 131.148635,78.4220228 C130.954912,79.4897553 129.164845,79.654946 128.260802,79.265997 C128.892281,78.93937 129.543282,78.1727351 129.425396,77.4083527 C129.378842,77.1050026 128.573162,76.1739278 128.422989,76.871483 C128.280324,77.5269897 127.943185,78.2343061 127.475395,78.7208678 C126.979072,79.2397167 126.936273,78.572947 126.696746,78.8334978 C125.810724,79.7848459 129.321026,80.1249886 130.029844,79.9522892 C130.464596,79.8411609 130.876071,79.6722159 131.264269,79.446205 C131.422702,79.7465517 131.660726,79.9530401 131.980596,80.0664209 C132.950715,80.4035601 133.923088,79.6579494 134.563577,79.018211 C134.933754,81.5598949 137.24267,79.61515 138.070876,78.567691 C138.077633,79.2554849 137.470933,79.558835 137.430386,80.1490163 C137.347791,81.3406418 137.313251,82.6876967 137.329019,83.9153638 C137.347791,85.4906822 138.826998,88.5602254 138.887819,85.1520413 C138.905089,84.1924336 138.911846,83.1089329 138.607745,82.1876195 C138.19627,80.9419316 137.861384,79.8231401 139.389398,79.4724854 C140.894885,79.1270867 143.304417,78.5984765 143.200797,76.5846519 C142.5971,76.4427381 142.678194,76.6725033 142.54454,77.1155147 C142.286242,77.9707519 141.257554,78.3236593 140.511193,78.5977256 C140.339995,78.6607984 141.64425,78.1809946 140.511193,78.5977256 L140.511193,78.5977256 Z M140.321223,73.164454 C140.244635,74.3035188 139.723533,75.440331 139.085297,76.3684023 C139.327076,75.1752751 139.691997,73.8507462 140.321223,73.164454 L140.321223,73.164454 Z M136.440744,73.8650126 C136.337875,74.9162261 135.887355,76.1198654 135.253624,77.1568124 C135.452603,76.020751 135.873089,74.7179972 136.440744,73.8650126 L136.440744,73.8650126 Z M128.837468,77.5615295 C128.821699,77.8581219 128.702312,78.1186727 128.477802,78.3431818 C128.617464,78.0916415 128.736851,77.8310907 128.837468,77.5615295 C128.838969,77.6223497 128.746613,77.8048104 128.837468,77.5615295 L128.837468,77.5615295 Z M131.836429,78.1862507 C131.937045,77.9234473 132.265174,77.3340169 132.633099,77.2979753 C132.68641,77.5772977 131.67274,78.6142447 131.836429,78.1862507 C132.098482,77.5007093 131.813903,78.2448183 131.836429,78.1862507 L131.836429,78.1862507 Z M138.264599,85.7624959 C137.768276,84.7390646 137.900429,83.4085288 138.018315,82.3190211 C138.378731,83.3762415 138.323918,84.6632271 138.264599,85.7624959 C137.874149,84.9575668 138.324669,84.6459571 138.264599,85.7624959 L138.264599,85.7624959 Z" id="Fill-53" fill="#485B60" sketch:type="MSShapeGroup"></path>
                <path d="M143.829273,68.6014369 C143.260867,69.2817221 145.578041,70.5341678 146.121669,71.203941 C147.202917,72.5367294 147.997334,74.1563489 148.42758,75.8165153 C148.88636,77.5855573 148.76472,79.5445686 147.736783,81.1003644 C147.289267,81.779148 146.72086,82.4459176 145.999277,82.843877 C145.461657,83.1404693 144.726558,82.9031954 144.947313,83.728398 C148.452359,83.7862147 149.652244,78.6600476 149.107866,76.0860764 C148.492155,73.1772187 146.639767,69.8651456 143.829273,68.6014369 C143.829273,68.6014369 146.82448,69.9484918 143.829273,68.6014369" id="Fill-54" fill="#485B60" sketch:type="MSShapeGroup"></path>
                <path d="M154.357926,74.4619517 C155.023945,74.319287 155.334804,73.1817239 154.490078,73.2778349 C153.944949,73.3777001 153.769246,74.5880973 154.357926,74.4619517 C154.610968,74.4078893 154.334649,74.4672078 154.357926,74.4619517" id="Fill-55" fill="#485B60" sketch:type="MSShapeGroup"></path>
                <path d="M155.141831,76.9818604 C154.539636,76.589908 154.220517,77.5134741 154.206251,77.9272016 C154.176216,78.7771828 156.097684,77.6020763 155.141831,76.9818604" id="Fill-56" fill="#485B60" sketch:type="MSShapeGroup"></path>
            </g>
        </g>
    </g>
</svg>