<?xml version="1.0" encoding="UTF-8" standalone="no"?>
<svg width="324px" height="232px" viewBox="0 0 324 232" version="1.1" xmlns="http://www.w3.org/2000/svg" xmlns:xlink="http://www.w3.org/1999/xlink" xmlns:sketch="http://www.bohemiancoding.com/sketch/ns">
    <!-- Generator: Sketch 3.2 (9964) - http://www.bohemiancoding.com/sketch -->
    <title>illo-2</title>
    <desc>Created with Sketch.</desc>
    <defs></defs>
    <g id="Page-1" stroke="none" stroke-width="1" fill="none" fill-rule="evenodd" sketch:type="MSPage">
        <g id="Artboard-3" sketch:type="MSArtboardGroup" transform="translate(-1487.000000, -1371.000000)">
            <g id="illo-2" sketch:type="MSLayerGroup" transform="translate(1487.436831, 1371.142628)">
                <path d="M314.655397,73.5695136 L266.662898,213.884959 C265.742563,216.575007 263.937851,217.895276 262.068026,217.895276 C261.617091,217.895276 261.162269,217.818584 260.716193,217.66617 L183.279781,191.237496 C182.625731,191.982089 181.742326,192.441271 180.736469,192.570385 L162.778763,194.877943 L265.382009,231.129999 C265.841691,231.293091 266.310119,231.374637 266.775631,231.374637 C268.629907,231.374637 270.427816,230.073784 271.367587,227.41286 L323.499164,80.1931855 C323.941352,78.9389301 322.742099,76.4255656 320.449522,75.6159302 L314.655397,73.5695136" id="Fill-1" fill="#E5E5E5" sketch:type="MSShapeGroup"></path>
                <path d="M266.662898,213.884959 C265.520983,217.223492 263.017516,218.451536 260.716193,217.66617 L123.199505,170.732557 C120.900125,169.948162 119.67366,167.447418 120.815575,164.108885 L171.358189,16.3368336 C171.787743,15.0806367 174.29121,13.8516218 176.590589,14.6369876 L314.107278,61.5696297 C316.407629,62.3540246 317.635066,64.854769 317.20454,66.1138782 L266.662898,213.884959" id="Fill-2" fill="#C6D6E0" sketch:type="MSShapeGroup"></path>
                <path d="M264.222601,214.214056 C263.832892,215.364437 262.580187,215.977974 261.428554,215.585776 L123.913809,168.652163 C122.762176,168.259966 122.148943,167.009594 122.542539,165.860183 L162.405576,49.3066628 C162.799172,48.1582231 164.051877,47.5456572 165.202538,47.9378547 L302.716312,94.8685552 C303.868917,95.2626943 304.483121,96.5120957 304.087581,97.6624769 L264.222601,214.214056" id="Fill-3" fill="#FFFFFF" sketch:type="MSShapeGroup"></path>
                <path d="M288.0998,106.682048 C287.70426,107.83243 286.454471,108.444995 285.301865,108.051827 L197.98959,78.2535553 C196.838928,77.8603871 196.226667,76.6109857 196.61832,75.4615752 L197.264595,73.5743675 C197.658191,72.4249571 198.908953,71.8114204 200.059614,72.2045887 L287.37189,102.00286 C288.524495,102.396029 289.137728,103.648342 288.74316,104.795811 L288.0998,106.682048" id="Fill-4" fill="#69808C" sketch:type="MSShapeGroup"></path>
                <path d="M183.996029,64.5499422 C182.490645,64.0354257 181.763707,64.179102 181.222391,64.3227783 C180.472128,64.5217894 180.07756,64.7208005 178.455555,63.1694847 C176.874367,61.6570004 174.466141,61.2978096 172.512738,62.256946 C168.38921,64.2752098 168.786694,70.4639696 173.129858,71.9463596 C174.635242,72.4599054 175.361208,72.3162291 175.901553,72.1725528 C176.650843,71.9735417 177.045411,71.7735598 178.667417,73.3248756 C180.250548,74.8383307 182.65683,75.1975215 184.615093,74.2393558 C188.731818,72.2162381 188.339193,66.0313614 183.996029,64.5499422 C183.659772,64.4344187 183.905648,64.5188771 184.151524,64.6023647 C184.450851,64.7042972 184.750179,64.8072005 183.996029,64.5499422" id="Fill-5" fill="#CE1E1F" sketch:type="MSShapeGroup"></path>
                <path d="M267.859236,73.9092886 C267.467583,75.0596699 266.214878,75.6722358 265.064217,75.2810091 L173.127914,43.9032687 C171.974337,43.5101004 171.363048,42.2597282 171.754701,41.1103178 L173.467087,36.1010628 C173.861655,34.9526231 175.113388,34.3400573 176.263078,34.7322547 L268.199381,66.1080535 C269.351014,66.5012218 269.96619,67.7525648 269.574538,68.9010044 L267.859236,73.9092886" id="Fill-6" fill="#FCFCFC" sketch:type="MSShapeGroup"></path>
                <path d="M301.71337,85.4635819 C301.322689,86.6139631 300.070956,87.2274998 298.918351,86.8343315 L273.138284,78.0360993 C271.986651,77.642931 271.37439,76.3915881 271.765071,75.2421776 L273.476486,70.2338934 C273.872997,69.0854537 275.125702,68.4719171 276.275392,68.8650853 L302.055459,77.6633175 C303.20612,78.055515 303.820325,79.3049164 303.4277,80.4543269 L301.71337,85.4635819" id="Fill-7" fill="#FCFCFC" sketch:type="MSShapeGroup"></path>
                <path d="M182.885213,27.4503901 C182.380827,28.9288969 180.769512,29.7191166 179.285508,29.2133372 C177.802477,28.7065869 177.014312,27.0989656 177.520642,25.6175464 C178.026001,24.1380687 179.636344,23.3468783 181.118403,23.8526577 C182.601435,24.3594079 183.391543,25.9699416 182.885213,27.4503901" id="Fill-8" fill="#C63710" sketch:type="MSShapeGroup"></path>
                <path d="M191.974856,30.5520509 C191.47047,32.0324993 189.859155,32.8207774 188.378067,32.3169395 C186.895035,31.8092185 186.106871,30.2006264 186.612229,28.7221195 C187.115644,27.2407003 188.728902,26.4514514 190.212906,26.9572308 C191.69205,27.4630103 192.48313,29.0725732 191.974856,30.5520509" id="Fill-9" fill="#F2E600" sketch:type="MSShapeGroup"></path>
                <path d="M201.068387,33.6546824 C200.563029,35.1351309 198.952686,35.9253506 197.469654,35.4186003 C195.989538,34.9137917 195.198458,33.3051995 195.704788,31.8237803 C196.210146,30.3443027 197.822433,29.554083 199.302549,30.0598624 C200.783637,30.5646711 201.574717,32.1752048 201.068387,33.6546824" id="Fill-10" fill="#3EAF23" sketch:type="MSShapeGroup"></path>
                <path d="M242.441667,105.788925 L238.652453,140.811967 L272.702899,152.433244 L283.825637,119.912889 L242.441667,105.788925" id="Fill-11" fill="#CCF2FD" sketch:type="MSShapeGroup"></path>
                <path d="M183.482896,135.017346 L149.687073,123.482468 L150.578252,120.881733 L184.374076,132.414669 L183.482896,135.017346" id="Fill-12" fill="#69808C" sketch:type="MSShapeGroup"></path>
                <path d="M176.326248,138.590808 L147.844459,128.87033 L148.734667,126.269594 L177.215484,135.990073 L176.326248,138.590808" id="Fill-13" fill="#69808C" sketch:type="MSShapeGroup"></path>
                <path d="M179.799613,145.792098 L146.002818,134.259162 L146.891082,131.655514 L180.687877,143.191363 L179.799613,145.792098" id="Fill-14" fill="#69808C" sketch:type="MSShapeGroup"></path>
                <path d="M174.548748,150.015987 L144.159232,139.646053 L145.050412,137.043376 L175.439928,147.416223 L174.548748,150.015987" id="Fill-15" fill="#69808C" sketch:type="MSShapeGroup"></path>
                <path d="M164.426036,152.578862 L142.316619,145.031973 L143.205855,142.431237 L165.3143,149.976185 L164.426036,152.578862" id="Fill-16" fill="#69808C" sketch:type="MSShapeGroup"></path>
                <path d="M222.691883,148.398658 L192.302367,138.025811 L193.192575,135.425076 L223.582091,145.796952 L222.691883,148.398658" id="Fill-17" fill="#69808C" sketch:type="MSShapeGroup"></path>
                <path d="M223.378976,154.649548 L190.460726,143.414643 L191.349962,140.812937 L224.270155,152.047842 L223.378976,154.649548" id="Fill-18" fill="#69808C" sketch:type="MSShapeGroup"></path>
                <path d="M216.675206,158.379307 L188.616168,148.802505 L189.506376,146.200799 L217.566385,155.77663 L216.675206,158.379307" id="Fill-19" fill="#69808C" sketch:type="MSShapeGroup"></path>
                <path d="M217.163071,164.561272 L186.775499,154.189396 L187.664735,151.587689 L218.053278,161.959566 L217.163071,164.561272" id="Fill-20" fill="#69808C" sketch:type="MSShapeGroup"></path>
                <path d="M212.122124,168.856028 L184.931913,159.577257 L185.821149,156.975551 L213.011359,166.255293 L212.122124,168.856028" id="Fill-21" fill="#69808C" sketch:type="MSShapeGroup"></path>
                <path d="M263.395563,162.288662 L234.915718,152.570125 L235.804954,149.968419 L264.285771,159.687927 L263.395563,162.288662" id="Fill-22" fill="#69808C" sketch:type="MSShapeGroup"></path>
                <path d="M263.46262,168.329862 L233.071161,157.957015 L233.961369,155.35628 L264.352828,165.728156 L263.46262,168.329862" id="Fill-23" fill="#69808C" sketch:type="MSShapeGroup"></path>
                <path d="M265.025343,174.878784 L231.229519,163.344877 L232.120699,160.743171 L265.915551,172.277078 L265.025343,174.878784" id="Fill-24" fill="#69808C" sketch:type="MSShapeGroup"></path>
                <path d="M259.776422,179.104615 L229.387878,168.732738 L230.278086,166.131032 L260.667601,176.502908 L259.776422,179.104615" id="Fill-25" fill="#69808C" sketch:type="MSShapeGroup"></path>
                <path d="M251.833553,182.40917 L227.544293,174.119629 L228.435472,171.518894 L252.72376,179.808434 L251.833553,182.40917" id="Fill-26" fill="#69808C" sketch:type="MSShapeGroup"></path>
                <path d="M272.702899,152.433244 L208.626406,130.564351 L214.204782,114.252236 L279.465951,132.661248 L272.702899,152.433244" id="Fill-27" fill="#7CB836" sketch:type="MSShapeGroup"></path>
                <path d="M272.702899,152.433244 L231.853442,138.491788 L235.410386,128.093701 L277.015936,139.829531 L272.702899,152.433244" id="Fill-28" fill="#2C9B26" sketch:type="MSShapeGroup"></path>
                <path d="M208.626406,130.564351 L231.853442,138.491788 L235.410386,128.093701 L214.204782,114.252236 L208.626406,130.564351" id="Fill-29" fill="#9ACC58" sketch:type="MSShapeGroup"></path>
                <path d="M193.005009,124.810503 L192.606554,125.974476 C192.547271,126.148246 192.445228,126.270565 192.299452,126.340462 C192.157563,126.413271 191.99818,126.420066 191.825193,126.359878 L165.014001,117.20925 C164.841013,117.150032 164.717589,117.0481 164.64956,116.902482 C164.578616,116.758805 164.570841,116.600567 164.629151,116.426797 L165.027607,115.262824 C165.394963,114.186223 166.067478,113.396974 167.049039,112.899932 C168.025741,112.402889 169.100599,112.11942 170.269725,112.049523 C171.435936,111.978656 172.599232,111.928175 173.752809,111.900993 C174.909302,111.874782 175.950145,111.681595 176.879226,111.325317 C177.808308,110.968068 178.417653,110.369093 178.705318,109.526451 C178.64798,109.411898 178.571204,109.236186 178.473048,108.996402 C178.371005,108.75953 178.232031,108.25278 178.049325,107.481005 C177.869534,106.707289 177.741251,105.913186 177.675165,105.093843 C177.602277,104.27547 177.638235,103.258087 177.776237,102.040721 C177.916182,100.823356 178.18927,99.6244351 178.594528,98.4381348 C179.24955,96.5169496 180.498368,95.1083393 182.337094,94.2055085 C184.176792,93.3046192 186.057307,93.1823002 187.97864,93.8375806 C189.898029,94.4938319 191.311088,95.7403209 192.212958,97.576077 C193.114828,99.4147454 193.23728,101.292245 192.581286,103.211489 C192.175056,104.397789 191.660951,105.511281 191.041887,106.550992 C190.419908,107.590704 189.809591,108.423638 189.210936,109.050766 C188.612281,109.675952 188.039866,110.215709 187.501465,110.669066 C186.958205,111.122423 186.520876,111.448607 186.19045,111.649559 L185.699669,111.914584 C185.412004,112.756255 185.525709,113.602781 186.042729,114.453189 C186.560722,115.302627 187.266279,116.091876 188.162318,116.818023 C189.059329,117.546113 189.946621,118.295559 190.831969,119.065393 C191.710515,119.835226 192.387889,120.71767 192.854374,121.706901 C193.324746,122.699044 193.373338,123.733902 193.005009,124.810503" id="Fill-30" fill="#FFFFFF" sketch:type="MSShapeGroup"></path>
                <path d="M170.775083,172.202327 C170.381487,173.351738 169.130726,173.964303 167.980064,173.571135 L138.333036,163.453605 C137.183347,163.061407 136.567199,161.812006 136.962738,160.661625 L139.096905,154.41753 C139.490501,153.269091 140.742234,152.655554 141.892896,153.048722 L171.53798,163.165282 C172.688641,163.557479 173.302846,164.808822 172.910221,165.959203 L170.775083,172.202327" id="Fill-31" fill="#7CB836" sketch:type="MSShapeGroup"></path>
                <path d="M213.387463,186.744699 C212.994838,187.89411 211.744077,188.508617 210.592443,188.115449 L180.947359,177.997919 C179.797669,177.60475 179.180549,176.355349 179.573174,175.204968 L181.710256,168.960873 C182.103852,167.812433 183.355585,167.198897 184.504303,167.591094 L214.151331,177.709595 C215.303936,178.102764 215.917169,179.352165 215.524544,180.501575 L213.387463,186.744699" id="Fill-32" fill="#7CB836" sketch:type="MSShapeGroup"></path>
                <path d="M256.002757,201.289013 C255.608189,202.437452 254.355484,203.050989 253.206766,202.658792 L223.558766,192.541262 C222.408105,192.148093 221.794872,190.898692 222.186525,189.748311 L224.323606,183.504216 C224.716231,182.355776 225.969908,181.74224 227.118626,182.134437 L256.766625,192.253909 C257.918259,192.645136 258.53052,193.896479 258.138867,195.044918 L256.002757,201.289013" id="Fill-33" fill="#7CB836" sketch:type="MSShapeGroup"></path>
                <path d="M234.961395,174.927323 C234.582376,178.435743 232.410308,180.182187 229.991392,179.922016 L85.5133953,164.325371 C83.096423,164.064229 81.3490501,161.894523 81.7280687,158.387074 L98.5234512,3.13220443 C98.6653402,1.81096488 100.83838,0.062579558 103.255352,0.324691738 L247.733349,15.9203665 C250.151293,16.1805371 251.898666,18.3512143 251.757749,19.6734246 L234.961395,174.927323" id="Fill-34" fill="#C6D6E0" sketch:type="MSShapeGroup"></path>
                <path d="M232.653269,175.783556 C232.525957,176.992184 231.438466,177.864921 230.228522,177.735806 L85.7505249,162.139161 C84.540581,162.008105 83.6668946,160.923737 83.7990651,159.71705 L97.0443069,37.2611519 C97.1755056,36.0534943 98.2620255,35.1817286 99.4709976,35.3108431 L243.948022,50.9074886 C245.15991,51.0366032 246.032625,52.1219417 245.901426,53.3305701 L232.653269,175.783556" id="Fill-35" fill="#FFFFFF" sketch:type="MSShapeGroup"></path>
                <path d="M232.288828,65.6401347 C232.155685,66.8487631 231.070137,67.719558 229.861165,67.5894727 L138.127006,57.6884278 C136.919006,57.5573717 136.045319,56.4730039 136.174574,55.2653463 L136.390323,53.2820308 C136.52055,52.075344 137.606098,51.2026075 138.81507,51.331722 L230.548258,61.2347085 C231.760145,61.3647938 232.633832,62.4511032 232.501661,63.6568192 L232.288828,65.6401347" id="Fill-36" fill="#69808C" sketch:type="MSShapeGroup"></path>
                <path d="M121.459907,47.3922731 C120.004086,47.234035 119.31505,47.4757606 118.827185,47.7165155 C118.050683,48.1009467 117.78537,48.4844071 115.751304,47.261217 C113.876619,46.1331638 111.447985,46.3117884 109.753092,47.6767133 C106.173796,50.5502394 107.925056,56.5001859 112.486885,56.9923744 C113.942705,57.1496417 114.630769,56.907916 115.117662,56.6661903 C115.893193,56.2817591 116.158506,55.8982987 118.192572,57.1214889 C120.070172,58.249542 122.496863,58.0718882 124.195643,56.7089049 C127.767165,53.8314956 126.023679,47.8834907 121.459907,47.3922731 C121.105184,47.3534416 121.367582,47.3806236 121.627063,47.4087764 C121.940969,47.4427539 122.250015,47.4767314 121.459907,47.3922731" id="Fill-37" fill="#CE1E1F" sketch:type="MSShapeGroup"></path>
                <path d="M205.33186,38.1105895 C205.202605,39.3192179 204.116085,40.1919544 202.907113,40.0628399 L106.315685,29.635629 C105.103797,29.5055437 104.232054,28.4192343 104.362281,27.2125475 L104.930809,21.9499174 C105.062008,20.7432306 106.147556,19.8695233 107.3575,20.0005794 L203.947956,30.4258487 C205.158872,30.5569048 206.032558,31.6422434 205.902331,32.8489302 L205.33186,38.1105895" id="Fill-38" fill="#FCFCFC" sketch:type="MSShapeGroup"></path>
                <path d="M240.901296,41.9510183 C240.773013,43.1586759 239.686493,44.0323832 238.475577,43.9022979 L211.389354,40.9782909 C210.180382,40.8482056 209.307668,39.7618962 209.435951,38.5542386 L210.004479,33.2925793 C210.136649,32.0849217 211.224141,31.2112145 212.433113,31.3422705 L239.517392,34.2662775 C240.727336,34.3963628 241.601995,35.4807306 241.471768,36.689359 L240.901296,41.9510183" id="Fill-39" fill="#FCFCFC" sketch:type="MSShapeGroup"></path>
                <path d="M112.214769,11.4421313 C112.047612,12.9963595 110.650102,14.1205295 109.091267,13.9525835 C107.532431,13.7846376 106.409953,12.3876768 106.578082,10.8324778 C106.745239,9.27922045 108.141777,8.15310886 109.700612,8.32105481 C111.257504,8.49094234 112.382897,9.88693239 112.214769,11.4421313" id="Fill-40" fill="#C63710" sketch:type="MSShapeGroup"></path>
                <path d="M121.764093,12.4731059 C121.597908,14.0283048 120.200399,15.1515041 118.643507,14.9845289 C117.084672,14.8146414 115.962193,13.4196221 116.12935,11.865394 C116.295535,10.3092242 117.69596,9.18505422 119.254796,9.35300018 C120.809744,9.52191691 121.933194,10.9188778 121.764093,12.4731059" id="Fill-41" fill="#F2E600" sketch:type="MSShapeGroup"></path>
                <path d="M131.318277,13.5040805 C131.152092,15.0583086 129.753611,16.1834494 128.195747,16.0145327 C126.640799,15.8475575 125.515405,14.4505967 125.682562,12.8953978 C125.849719,11.3411696 127.248201,10.2160288 128.80412,10.3849455 C130.361012,10.5519207 131.486406,11.9488815 131.318277,13.5040805" id="Fill-42" fill="#3EAF23" sketch:type="MSShapeGroup"></path>
                <path d="M174.276632,107.924654 L174.276632,107.924654 L227.334375,113.652291 L174.276632,107.924654 M169.763395,72.8724894 L170.807154,80.9756389 L175.16684,89.9602619 L229.582246,92.8784442 L231.028348,79.4854826 L169.763395,72.8724894" id="Fill-43" fill="#CCF2FD" sketch:type="MSShapeGroup"></path>
                <path d="M170.807154,80.9756389 L171.941295,89.7874621 L175.16684,89.9602619 L170.807154,80.9756389" id="Fill-44" fill="#A3E8FB" sketch:type="MSShapeGroup"></path>
                <path d="M136.464183,116.248172 L100.955973,112.414539 L101.251413,109.681777 L136.760595,113.514439 L136.464183,116.248172" id="Fill-45" fill="#69808C" sketch:type="MSShapeGroup"></path>
                <path d="M130.268687,121.305966 L100.343712,118.076162 L100.640124,115.342429 L130.562184,118.573204 L130.268687,121.305966" id="Fill-46" fill="#69808C" sketch:type="MSShapeGroup"></path>
                <path d="M135.240634,127.569477 L99.7324233,123.736814 L100.026892,121.00211 L135.536074,124.836715 L135.240634,127.569477" id="Fill-47" fill="#69808C" sketch:type="MSShapeGroup"></path>
                <path d="M131.048105,132.842785 L99.1191907,129.396496 L99.4156026,126.662763 L131.344517,130.109052 L131.048105,132.842785" id="Fill-48" fill="#69808C" sketch:type="MSShapeGroup"></path>
                <path d="M121.73591,137.564688 L98.505958,135.056177 L98.80237,132.323415 L122.029406,134.830955 L121.73591,137.564688" id="Fill-49" fill="#69808C" sketch:type="MSShapeGroup"></path>
                <path d="M177.657672,120.695342 L145.727786,117.248081 L146.026142,114.514349 L177.953112,117.961609 L177.657672,120.695342" id="Fill-50" fill="#69808C" sketch:type="MSShapeGroup"></path>
                <path d="M179.703401,126.642376 L145.116497,122.909705 L145.411937,120.175972 L179.999813,123.909614 L179.703401,126.642376" id="Fill-51" fill="#69808C" sketch:type="MSShapeGroup"></path>
                <path d="M173.985079,131.752593 L144.504236,128.570357 L144.800648,125.835653 L174.280519,129.017889 L173.985079,131.752593" id="Fill-52" fill="#69808C" sketch:type="MSShapeGroup"></path>
                <path d="M175.819918,137.676328 L143.892947,134.229068 L144.188388,131.496305 L176.11633,134.942595 L175.819918,137.676328" id="Fill-53" fill="#69808C" sketch:type="MSShapeGroup"></path>
                <path d="M171.846054,142.972936 L143.280687,139.88972 L143.575155,137.155987 L172.142466,140.241144 L171.846054,142.972936" id="Fill-54" fill="#69808C" sketch:type="MSShapeGroup"></path>
                <path d="M220.422631,125.310458 L190.500571,122.080653 L190.796011,119.346921 L220.719043,122.577696 L220.422631,125.310458" id="Fill-55" fill="#69808C" sketch:type="MSShapeGroup"></path>
                <path d="M221.816253,131.188566 L189.887339,127.741306 L190.181807,125.007573 L222.112665,128.454833 L221.816253,131.188566" id="Fill-56" fill="#69808C" sketch:type="MSShapeGroup"></path>
                <path d="M224.782316,137.23365 L189.275078,133.401958 L189.572462,130.668225 L225.0797,134.501858 L224.782316,137.23365" id="Fill-57" fill="#69808C" sketch:type="MSShapeGroup"></path>
                <path d="M220.590759,142.5089 L188.663789,139.06261 L188.959229,136.328877 L220.888143,139.775167 L220.590759,142.5089" id="Fill-58" fill="#69808C" sketch:type="MSShapeGroup"></path>
                <path d="M213.569197,147.476411 L188.049584,144.723263 L188.34794,141.98953 L213.864637,144.74462 L213.569197,147.476411" id="Fill-59" fill="#69808C" sketch:type="MSShapeGroup"></path>
                <path d="M227.334375,113.652291 L160.011928,106.384988 L161.866203,89.2477051 L229.582246,92.8784442 L227.334375,113.652291" id="Fill-60" fill="#7CB836" sketch:type="MSShapeGroup"></path>
                <path d="M227.334375,113.652291 L184.415865,109.01873 L185.597626,98.0944766 L228.76687,100.40883 L227.334375,113.652291" id="Fill-61" fill="#2C9B26" sketch:type="MSShapeGroup"></path>
                <path d="M160.011928,106.384988 L184.415865,109.019701 L185.596654,98.0944766 L161.866203,89.2477051 L160.011928,106.384988" id="Fill-62" fill="#9ACC58" sketch:type="MSShapeGroup"></path>
                <path d="M143.507126,104.20169 L143.374955,105.42391 C143.355519,105.606418 143.280687,105.748152 143.155319,105.848143 C143.032867,105.950076 142.879316,105.990849 142.696609,105.971433 L114.528726,102.930932 C114.345047,102.910545 114.203158,102.838707 114.105002,102.711534 C114.003931,102.586303 113.962141,102.43486 113.981578,102.251382 L114.113749,101.028191 C114.235229,99.8962552 114.717263,98.9808041 115.56471,98.2798967 C116.409241,97.5799601 117.394689,97.0673852 118.520083,96.7431427 C119.641589,96.4179294 120.765039,96.1131027 121.884602,95.8335164 C123.00708,95.55393 123.980866,95.1364921 124.807904,94.5850857 C125.635914,94.0336794 126.099483,93.3143271 126.194723,92.4299412 C126.113089,92.3299502 125.999383,92.176566 125.850691,91.9639639 C125.700055,91.755245 125.453207,91.2912093 125.104316,90.5786525 C124.757368,89.8641541 124.458041,89.116649 124.213136,88.3332249 C123.964345,87.5498007 123.772892,86.5489205 123.640721,85.331555 C123.509522,84.1132187 123.511466,82.8822623 123.647524,81.6357733 C123.863273,79.619451 124.771946,77.9710567 126.366739,76.686707 C127.962505,75.4033281 129.770132,74.8723082 131.788649,75.0897642 C133.806194,75.3072203 135.458326,76.2139343 136.743102,77.8060231 C138.027878,79.401995 138.559476,81.2057151 138.341783,83.2230081 C138.206697,84.4685264 137.949159,85.6684177 137.574999,86.8187989 C137.195981,87.9701509 136.784891,88.9166672 136.338816,89.6583475 C135.891768,90.4009987 135.452495,91.052396 135.025856,91.6135103 C134.597274,92.1755953 134.241579,92.58915 133.962661,92.8580577 L133.542825,93.224044 C133.448556,94.1084299 133.74594,94.9093282 134.43692,95.6247974 C135.1279,96.3402666 135.989924,96.954774 137.023965,97.4683197 C138.059949,97.9799239 139.090102,98.5157977 140.12317,99.0739995 C141.150408,99.6322014 142.003686,100.343787 142.678144,101.206816 C143.354547,102.070815 143.63055,103.070725 143.507126,104.20169" id="Fill-63" fill="#FFFFFF" sketch:type="MSShapeGroup"></path>
                <path d="M132.247359,155.314536 C132.115188,156.522194 131.030612,157.39396 129.820668,157.263874 L98.6731149,153.902043 C97.4660865,153.771958 96.5904564,152.688561 96.7216552,151.478961 L97.4311002,144.919361 C97.5622989,143.711704 98.647847,142.838967 99.8558473,142.969053 L131.004372,146.330884 C132.2114,146.460969 133.086059,147.546308 132.955832,148.754936 L132.247359,155.314536" id="Fill-64" fill="#7CB836" sketch:type="MSShapeGroup"></path>
                <path d="M177.017228,160.147108 C176.887001,161.354766 175.801453,162.227502 174.591509,162.097417 L143.444928,158.734615 C142.2379,158.6055 141.361298,157.520162 141.492496,156.312504 L142.20097,149.751933 C142.33314,148.545247 143.41966,147.671539 144.625717,147.801625 L175.775213,151.163456 C176.985157,151.294512 177.857872,152.37888 177.728617,153.587508 L177.017228,160.147108" id="Fill-65" fill="#7CB836" sketch:type="MSShapeGroup"></path>
                <path d="M221.790985,164.97968 C221.658814,166.187338 220.571322,167.061045 219.364294,166.929989 L188.215769,163.568158 C187.006797,163.437102 186.132139,162.352734 186.262366,161.145076 L186.972783,154.584505 C187.10301,153.377819 188.191473,152.504111 189.399474,152.634197 L220.547998,155.996999 C221.757942,156.127084 222.629685,157.212423 222.499458,158.42008 L221.790985,164.97968" id="Fill-66" fill="#7CB836" sketch:type="MSShapeGroup"></path>
                <path d="M154.670681,34.8555445 L155.508409,41.3607805 L165.849786,42.4762135 L165.012057,35.9719483 L154.670681,34.8555445" id="Fill-67" fill="#B2C0C9" sketch:type="MSShapeGroup"></path>
                <path d="M157.885536,59.8212443 L159.422019,71.7560856 L166.715697,72.5433929 L169.763395,72.8724894 L168.226912,60.9376481 L157.885536,59.8212443 M155.508409,41.3607805 L157.045864,53.3004758 L167.38724,54.4159087 L165.849786,42.4762135 L155.508409,41.3607805" id="Fill-68" fill="#E5E5E5" sketch:type="MSShapeGroup"></path>
                <path d="M157.045864,53.3004758 L157.885536,59.8212443 L168.226912,60.9376481 L167.38724,54.4159087 L157.045864,53.3004758" id="Fill-69" fill="#5E737E" sketch:type="MSShapeGroup"></path>
                <path d="M160.250029,28.9250138 C160.058576,28.9250138 159.864207,28.9366632 159.668867,28.9619036 L154.004969,29.689993 L154.670681,34.8555445 L165.012057,35.9719483 L164.459079,31.6742793 C164.300669,30.4617678 162.425013,28.9250138 160.250029,28.9250138" id="Fill-70" fill="#E2E2E2" sketch:type="MSShapeGroup"></path>
                <path d="M166.715697,72.5433929 L170.807154,80.9756389 L169.763395,72.8724894 L166.715697,72.5433929" id="Fill-71" fill="#B7D9E3" sketch:type="MSShapeGroup"></path>
                <path d="M159.422019,71.7560856 L159.422019,71.7560856 L166.715697,72.5433929 L159.422019,71.7560856" id="Fill-72" fill="#B7D9E3" sketch:type="MSShapeGroup"></path>
                <path d="M159.422019,71.7560856 L161.778737,90.0544282 L161.866203,89.2477051 L171.941295,89.7874621 L170.807154,80.9756389 L166.715697,72.5433929 L159.422019,71.7560856" id="Fill-73" fill="#92D0E1" sketch:type="MSShapeGroup"></path>
                <path d="M144.729704,188.500851 L31.1358907,203.096616 L31.535318,206.198277 C31.9522384,209.427111 33.861909,211.125986 36.0495265,211.125986 C36.2322329,211.125986 36.4178548,211.114336 36.6044486,211.090067 L162.778763,194.877943 L144.729704,188.500851" id="Fill-74" fill="#E5E5E5" sketch:type="MSShapeGroup"></path>
                <path d="M166.911038,185.650624 L144.729704,188.500851 L162.778763,194.877943 L180.736469,192.570385 C181.742326,192.441271 182.625731,191.982089 183.279781,191.237496 L166.911038,185.650624" id="Fill-75" fill="#CECECE" sketch:type="MSShapeGroup"></path>
                <path d="M171.16868,184.780799 C170.69928,185.054561 170.171569,185.232215 169.604985,185.305024 L166.911038,185.650624 L183.279781,191.237496 C183.740435,190.714243 184.087382,190.049254 184.285638,189.257093 L171.16868,184.780799" id="Fill-76" fill="#B2C0C9" sketch:type="MSShapeGroup"></path>
                <path d="M172.552583,173.720636 L173.269803,179.290035 C173.614807,181.967462 172.69836,183.887676 171.16868,184.780799 L184.285638,189.257093 C184.48195,188.47561 184.532486,187.569867 184.401287,186.556367 L183.407093,178.837648 L180.947359,177.997919 C179.797669,177.60475 179.180549,176.355349 179.573174,175.204968 L179.813219,174.505031 L172.552583,173.720636" id="Fill-77" fill="#E5E5E5" sketch:type="MSShapeGroup"></path>
                <path d="M179.813219,174.505031 L179.573174,175.204968 C179.180549,176.355349 179.797669,177.60475 180.947359,177.997919 L183.407093,178.837648 L182.892016,174.83704 L179.813219,174.505031" id="Fill-78" fill="#6FA530" sketch:type="MSShapeGroup"></path>
                <path d="M172.263946,171.478121 L172.552583,173.720636 L182.892016,174.83704 L182.603379,172.594525 L172.263946,171.478121" id="Fill-79" fill="#B2C0C9" sketch:type="MSShapeGroup"></path>
                <path d="M166.303636,125.196876 L166.690429,128.198546 L174.280519,129.017889 L173.985079,131.752593 L167.051955,131.004117 L167.438748,134.005787 L176.11633,134.942595 L175.819918,137.676328 L167.799302,136.810387 L168.186095,139.813999 L172.142466,140.241144 L171.846054,142.972936 L168.54762,142.616657 L169.561252,150.492643 L175.775213,151.163456 C176.985157,151.294512 177.857872,152.37888 177.728617,153.587508 L177.017228,160.147108 C176.895748,161.274191 175.94237,162.110037 174.831554,162.110037 C174.752835,162.110037 174.672172,162.106154 174.591509,162.097417 L171.006382,161.710074 L172.263946,171.478121 L182.603379,172.594525 L176.64404,126.312309 L166.303636,125.196876 M165.556289,119.388664 L165.943082,122.392276 L176.283487,123.507709 L175.896694,120.505068 L165.556289,119.388664 M163.936228,106.80825 L165.194764,116.584064 L175.535168,117.700468 L174.276632,107.924654 L163.936228,106.80825" id="Fill-80" fill="#E5E5E5" sketch:type="MSShapeGroup"></path>
                <path d="M163.936228,106.80825 L163.936228,106.80825 L174.276632,107.924654 L163.936228,106.80825" id="Fill-81" fill="#B7D9E3" sketch:type="MSShapeGroup"></path>
                <path d="M165.194764,116.584064 L165.556289,119.388664 L175.896694,120.505068 L175.535168,117.700468 L165.194764,116.584064" id="Fill-82" fill="#5E737E" sketch:type="MSShapeGroup"></path>
                <path d="M165.943082,122.392276 L166.303636,125.196876 L176.64404,126.312309 L176.283487,123.507709 L165.943082,122.392276" id="Fill-83" fill="#5E737E" sketch:type="MSShapeGroup"></path>
                <path d="M166.690429,128.198546 L167.051955,131.004117 L173.985079,131.752593 L174.280519,129.017889 L166.690429,128.198546" id="Fill-84" fill="#5E737E" sketch:type="MSShapeGroup"></path>
                <path d="M167.438748,134.005787 L167.799302,136.810387 L175.819918,137.676328 L176.11633,134.942595 L167.438748,134.005787" id="Fill-85" fill="#5E737E" sketch:type="MSShapeGroup"></path>
                <path d="M168.186095,139.813999 L168.54762,142.616657 L171.846054,142.972936 L172.142466,140.241144 L168.186095,139.813999" id="Fill-86" fill="#5E737E" sketch:type="MSShapeGroup"></path>
                <path d="M163.936228,106.80825 L163.936228,106.80825 L174.276632,107.924654 L163.936228,106.80825 M161.866203,89.2477051 L172.37668,93.1657968 L171.941295,89.7874621 L161.866203,89.2477051" id="Fill-87" fill="#6FA530" sketch:type="MSShapeGroup"></path>
                <path d="M161.866203,89.2477051 L161.778737,90.0544282 L163.936228,106.80825 L174.276632,107.924654 L172.37668,93.1657968 L161.866203,89.2477051" id="Fill-88" fill="#8AB74F" sketch:type="MSShapeGroup"></path>
                <path d="M169.561252,150.492643 L171.006382,161.710074 L174.591509,162.097417 C174.672172,162.106154 174.752835,162.110037 174.831554,162.110037 C175.94237,162.110037 176.895748,161.274191 177.017228,160.147108 L177.728617,153.587508 C177.857872,152.37888 176.985157,151.294512 175.775213,151.163456 L169.561252,150.492643" id="Fill-89" fill="#6FA530" sketch:type="MSShapeGroup"></path>
                <path d="M173.269803,179.290035 C173.720738,182.790688 172.016126,184.995343 169.604985,185.305024 L25.4719925,203.824705 C23.0598794,204.134386 20.8537968,202.432599 20.4038337,198.933886 L0.459681513,44.0498574 C0.288637229,42.732501 1.99324901,40.5268755 4.40341847,40.2171948 L148.536411,21.6975131 C150.948524,21.3868616 153.154607,23.08962 153.324679,24.408918 L173.269803,179.290035" id="Fill-90" fill="#C6D6E0" sketch:type="MSShapeGroup"></path>
                <path d="M171.225047,180.661755 C171.383457,181.865529 170.531151,182.968342 169.323151,183.123668 L25.1921019,201.64432 C23.9860453,201.799646 22.8810603,200.947296 22.7284811,199.742551 L6.99532247,77.5827423 C6.84079951,76.3770263 7.6931054,75.2751843 8.89916197,75.1198586 L153.030211,56.5992061 C154.237239,56.4448511 155.340281,57.2952595 155.495775,58.5009756 L171.225047,180.661755" id="Fill-91" fill="#FFFFFF" sketch:type="MSShapeGroup"></path>
                <path d="M145.13399,73.6442641 C145.288513,74.8499801 144.436207,75.9508513 143.229179,76.106177 L51.7165998,87.8662769 C50.5105432,88.019661 49.4084738,87.1692526 49.2520072,85.9654782 L48.9973844,83.9870166 C48.8438333,82.7832421 49.6941955,81.6804294 50.8992802,81.5260744 L142.413803,69.7659746 C143.620832,69.6116197 144.724845,70.4639696 144.878396,71.6667733 L145.13399,73.6442641" id="Fill-92" fill="#69808C" sketch:type="MSShapeGroup"></path>
                <path d="M33.1029,81.7396473 C29.3389539,82.2230987 31.2078071,84.1083648 27.5216084,82.9443926 C25.4360343,82.2832874 23.1162462,83.0230262 21.7867657,84.7461711 C18.9771689,88.3749686 22.0705437,93.7521515 26.6216822,93.1667676 C30.3856283,92.6833163 28.5148314,90.7980501 32.1990864,91.9629932 C34.2885479,92.6221568 36.608336,91.8824179 37.9397602,90.1621854 C40.7415822,86.5304755 37.6559822,81.1542635 33.1029,81.7396473 C32.3215386,81.8386675 34.5431706,81.5542272 33.1029,81.7396473" id="Fill-93" fill="#CE1E1F" sketch:type="MSShapeGroup"></path>
                <path d="M112.490772,53.1606826 C112.646267,54.3663986 111.793961,55.4682406 110.587904,55.6235663 L14.2277745,68.0049691 C13.0197743,68.1602948 11.9186767,67.3089156 11.76221,66.1041704 L11.0858076,60.8541605 C10.9322565,59.6513568 11.7835906,58.5485441 12.9896471,58.3932183 L109.349777,46.0108448 C110.555833,45.8555191 111.659847,46.707869 111.816313,47.9116435 L112.490772,53.1606826" id="Fill-94" fill="#FCFCFC" sketch:type="MSShapeGroup"></path>
                <path d="M147.975658,48.6009014 C148.131153,49.8066175 147.279819,50.9084594 146.07279,51.0647559 L119.050709,54.5362862 C117.844652,54.6906411 116.741611,53.8392619 116.584173,52.6354875 L115.90777,47.3854776 C115.754219,46.1807323 116.606525,45.0788904 117.813553,44.9235646 L144.833691,41.4520344 C146.041691,41.2976795 147.143761,42.1471171 147.298284,43.3518623 L147.975658,48.6009014" id="Fill-95" fill="#FCFCFC" sketch:type="MSShapeGroup"></path>
                <path d="M15.7137217,48.9387349 C15.9139213,50.4890799 14.8176829,51.9073981 13.2627349,52.1083507 C11.7077869,52.3073618 10.2898686,51.2113446 10.0896691,49.6609996 C9.8894695,48.1106546 10.984736,46.6903949 12.5387122,46.490413 C14.0936603,46.2914019 15.514494,47.3874191 15.7137217,48.9387349" id="Fill-96" fill="#C63710" sketch:type="MSShapeGroup"></path>
                <path d="M25.240694,47.714574 C25.4408935,49.264919 24.3446552,50.6842079 22.7916508,50.8841898 C21.2367028,51.0832009 19.8197564,49.9871836 19.618585,48.4378094 C19.4174136,46.8855228 20.5155956,45.4662339 22.0705437,45.266252 C23.6225762,45.0672409 25.0414663,46.1632582 25.240694,47.714574" id="Fill-97" fill="#F2E600" sketch:type="MSShapeGroup"></path>
                <path d="M34.7715536,46.4894422 C34.9717532,48.0397872 33.8755148,49.4600469 32.3215386,49.659058 C30.7695061,49.8590399 29.3486723,48.7639935 29.1494446,47.2117069 C28.9482732,45.6613619 30.0454834,44.242073 31.5975159,44.0420911 C33.1514921,43.8421092 34.571354,44.9390972 34.7715536,46.4894422" id="Fill-98" fill="#3EAF23" sketch:type="MSShapeGroup"></path>
                <path d="M147.145704,87.4012704 L22.3951391,103.430886 L82.9875766,95.6451839 L108.720023,126.987005 L26.7830081,137.515178 L22.3951391,103.430886 L26.7830081,137.515178 L151.535517,121.485562 L147.145704,87.4012704" id="Fill-99" fill="#CCF2FD" sketch:type="MSShapeGroup"></path>
                <path d="M82.9875766,95.6451839 L22.3951391,103.430886 L26.7830081,137.515178 L108.720023,126.987005 L82.9875766,95.6451839" id="Fill-100" fill="#A3E8FB" sketch:type="MSShapeGroup"></path>
                <path d="M63.7810529,145.196035 L28.3603085,149.74805 L28.0085015,147.021113 L63.4311896,142.469098 L63.7810529,145.196035" id="Fill-101" fill="#69808C" sketch:type="MSShapeGroup"></path>
                <path d="M58.9383616,151.558566 L29.0872467,155.395112 L28.7344678,152.668174 L58.5865546,148.832599 L58.9383616,151.558566" id="Fill-102" fill="#69808C" sketch:type="MSShapeGroup"></path>
                <path d="M65.236873,156.489187 L29.8151567,161.041202 L29.4614061,158.314265 L64.8860378,153.764191 L65.236873,156.489187" id="Fill-103" fill="#69808C" sketch:type="MSShapeGroup"></path>
                <path d="M62.3922899,162.59543 L30.5420949,166.689234 L30.1902879,163.961326 L62.0433984,159.868493 L62.3922899,162.59543" id="Fill-104" fill="#69808C" sketch:type="MSShapeGroup"></path>
                <path d="M54.4416462,169.357925 L31.2670895,172.335325 L30.9162543,169.609358 L54.0878956,166.630987 L54.4416462,169.357925" id="Fill-105" fill="#69808C" sketch:type="MSShapeGroup"></path>
                <path d="M104.876386,139.91496 L73.0242471,144.008764 L72.6734119,141.281827 L104.525551,137.188994 L104.876386,139.91496" id="Fill-106" fill="#69808C" sketch:type="MSShapeGroup"></path>
                <path d="M108.256454,145.222247 L73.7521571,149.656796 L73.3993783,146.929859 L107.904647,142.495309 L108.256454,145.222247" id="Fill-107" fill="#69808C" sketch:type="MSShapeGroup"></path>
                <path d="M103.888022,151.524588 L74.4800672,155.302887 L74.1272884,152.575949 L103.537187,148.79668 L103.888022,151.524588" id="Fill-108" fill="#69808C" sketch:type="MSShapeGroup"></path>
                <path d="M107.0572,156.857115 L75.2079772,160.948977 L74.8542266,158.22204 L106.706365,154.129207 L107.0572,156.857115" id="Fill-109" fill="#69808C" sketch:type="MSShapeGroup"></path>
                <path d="M104.431282,162.933264 L75.9329718,166.596039 L75.5821366,163.869101 L104.081419,160.207297 L104.431282,162.933264" id="Fill-110" fill="#69808C" sketch:type="MSShapeGroup"></path>
                <path d="M147.538329,134.432933 L117.688186,138.269478 L117.335407,135.542541 L147.188465,131.706966 L147.538329,134.432933" id="Fill-111" fill="#69808C" sketch:type="MSShapeGroup"></path>
                <path d="M150.267263,139.823707 L118.415124,143.91751 L118.063317,141.189602 L149.917399,137.09774 L150.267263,139.823707" id="Fill-112" fill="#69808C" sketch:type="MSShapeGroup"></path>
                <path d="M154.563778,145.011586 L119.143034,149.56263 L118.791227,146.836664 L154.213915,142.284649 L154.563778,145.011586" id="Fill-113" fill="#69808C" sketch:type="MSShapeGroup"></path>
                <path d="M151.722111,151.117829 L119.870944,155.209692 L119.518165,152.483725 L151.371276,148.389921 L151.722111,151.117829" id="Fill-114" fill="#69808C" sketch:type="MSShapeGroup"></path>
                <path d="M146.054325,157.585204 L120.59691,160.856753 L120.246075,158.129815 L145.704462,154.859238 L146.054325,157.585204" id="Fill-115" fill="#69808C" sketch:type="MSShapeGroup"></path>
                <path d="M151.535517,121.485562 L84.3753678,130.114877 L82.1731726,113.018368 L148.867809,100.761225 L151.535517,121.485562" id="Fill-116" fill="#7CB836" sketch:type="MSShapeGroup"></path>
                <path d="M151.535517,121.485562 L108.720023,126.987005 L107.317654,116.088963 L149.835764,108.274137 L151.535517,121.485562" id="Fill-117" fill="#2C9B26" sketch:type="MSShapeGroup"></path>
                <path d="M84.3753678,130.114877 L108.720023,126.987005 L107.317654,116.088963 L82.1731726,113.018368 L84.3753678,130.114877" id="Fill-118" fill="#9ACC58" sketch:type="MSShapeGroup"></path>
                <path d="M67.8151712,131.839964 L67.9726097,133.060241 C67.9959339,133.241778 67.9570602,133.397104 67.8589041,133.524277 C67.7626917,133.65145 67.6237182,133.726201 67.4410118,133.749499 L39.3401853,137.360823 C39.1574789,137.384122 39.0019841,137.346261 38.8775882,137.24627 C38.749305,137.149191 38.6725295,137.010369 38.6492053,136.827861 L38.4917668,135.608554 C38.3469622,134.47856 38.601585,133.475738 39.261466,132.597177 C39.9184316,131.719586 40.7571317,130.991497 41.7756226,130.412908 C42.7911981,129.836262 43.8116327,129.277089 44.8359547,128.745098 C45.8612486,128.210195 46.7096671,127.578214 47.3860695,126.850124 C48.0624719,126.120093 48.3443063,125.31337 48.2306007,124.429955 C48.1295291,124.352292 47.9808371,124.229003 47.7874405,124.057173 C47.5921001,123.889228 47.2432087,123.496059 46.7378506,122.884464 C46.2334643,122.269957 45.7689236,121.612735 45.3471439,120.907944 C44.9224487,120.204124 44.5026128,119.276053 44.0895797,118.12276 C43.6765466,116.970437 43.3908249,115.772487 43.2304709,114.52891 C42.9709889,112.517442 43.4676005,110.702072 44.7203055,109.08086 C45.9710668,107.46256 47.6057059,106.52381 49.6193636,106.26461 C51.6320495,106.005411 53.449395,106.502453 55.0704283,107.750883 C56.6924335,109.003197 57.6322052,110.634117 57.8907153,112.645586 C58.0500975,113.888192 58.0821683,115.114294 57.9859559,116.320981 C57.8858561,117.527668 57.7070371,118.545051 57.4465833,119.37119 C57.1861295,120.197329 56.9110981,120.932214 56.6282919,121.576816 C56.3415984,122.223359 56.0928067,122.708752 55.8838605,123.034936 L55.5621807,123.489264 C55.6768581,124.371708 56.1520891,125.080382 56.9927329,125.615285 C57.831433,126.150188 58.8139657,126.546268 59.9393594,126.804497 C61.064753,127.060785 62.1920903,127.341342 63.3262306,127.643256 C64.4555116,127.947112 65.4535939,128.439301 66.3097871,129.120792 C67.1688959,129.804226 67.6713385,130.71094 67.8151712,131.839964" id="Fill-119" fill="#FFFFFF" sketch:type="MSShapeGroup"></path>
                <path d="M68.8093661,184.167263 C68.9648609,185.372008 68.1135268,186.472879 66.9055266,186.628205 L35.8328056,190.621047 C34.6286927,190.776373 33.5237078,189.925964 33.3691848,188.720248 L32.5275692,182.176181 C32.3711026,180.971436 33.2234085,179.869594 34.429465,179.714268 L65.5012141,175.721426 C66.7082425,175.5661 67.810312,176.417479 67.9658068,177.622225 L68.8093661,184.167263" id="Fill-120" fill="#7CB836" sketch:type="MSShapeGroup"></path>
                <path d="M113.473305,178.427006 C113.6288,179.631751 112.776494,180.733593 111.570437,180.88989 L80.4967442,184.881761 C79.2926314,185.036116 78.1866746,184.186678 78.0331235,182.980962 L77.1895641,176.436895 C77.0350412,175.233121 77.8873471,174.130308 79.0924318,173.974982 L110.165153,169.98214 C111.374125,169.826814 112.474251,170.678193 112.630717,171.883909 L113.473305,178.427006" id="Fill-121" fill="#7CB836" sketch:type="MSShapeGroup"></path>
                <path d="M158.138215,172.68772 C158.291766,173.892465 157.43946,174.995278 156.235348,175.149633 L125.160683,179.142475 C123.955598,179.297801 122.851585,178.447392 122.69609,177.242647 L121.852531,170.69858 C121.698008,169.493835 122.551286,168.391022 123.75637,168.235696 L154.831035,164.243825 C156.037092,164.087528 157.139161,164.938907 157.294656,166.143653 L158.138215,172.68772" id="Fill-122" fill="#7CB836" sketch:type="MSShapeGroup"></path>
            </g>
        </g>
    </g>
</svg>