<?xml version="1.0" encoding="UTF-8" standalone="no"?>
<svg width="332px" height="340px" viewBox="0 0 332 340" version="1.1" xmlns="http://www.w3.org/2000/svg" xmlns:xlink="http://www.w3.org/1999/xlink" xmlns:sketch="http://www.bohemiancoding.com/sketch/ns">
    <!-- Generator: Sketch 3.2 (9964) - http://www.bohemiancoding.com/sketch -->
    <title>illo-1</title>
    <desc>Created with Sketch.</desc>
    <defs></defs>
    <g id="Page-1" stroke="none" stroke-width="1" fill="none" fill-rule="evenodd" sketch:type="MSPage">
        <g id="Artboard-3" sketch:type="MSArtboardGroup" transform="translate(-1224.000000, -1031.000000)">
            <g id="illo-1" sketch:type="MSLayerGroup" transform="translate(1224.633476, 1031.000000)">
                <path d="M314.693352,143.761408 C314.671276,143.761408 314.649201,143.761408 314.627125,143.762635 L243.719451,145.154412 L243.719451,151.674307 L314.771842,147.315039 C315.676937,147.278252 316.379673,146.515533 316.344107,145.610572 L316.335522,145.338347 C316.29873,144.454231 315.571465,143.761408 314.693352,143.761408" id="Fill-1" fill="#B5EEFE" sketch:type="MSShapeGroup"></path>
                <path d="M267.807481,187.577258 C267.184462,187.577258 266.631348,188.024834 266.520971,188.660025 L266.032858,191.450937 C265.90899,192.162153 266.384839,192.840262 267.09616,192.964111 L329.16383,202.473568 C329.239868,202.487057 329.317132,202.494414 329.391943,202.494414 C330.014962,202.494414 330.566849,202.046838 330.677227,201.411648 L330.714019,201.197057 C330.837887,200.485841 330.363264,199.808959 329.651943,199.683882 L268.033142,187.596878 C267.957104,187.58339 267.882292,187.577258 267.807481,187.577258" id="Fill-2" fill="#A7CAE7" sketch:type="MSShapeGroup"></path>
                <path d="M243.719451,221.448338 L243.719451,228.678223 L298.62608,264.351869 C298.877495,264.523542 299.16325,264.6057 299.446552,264.6057 C299.913817,264.6057 300.373722,264.381299 300.657024,263.965605 L300.79193,263.766955 C301.245704,263.09743 301.072779,262.188789 300.406836,261.733856 L243.719451,221.448338" id="Fill-3" fill="#A7CAE7" sketch:type="MSShapeGroup"></path>
                <path d="M220.638309,261.159978 C220.480101,261.159978 220.31944,261.193086 220.166139,261.264208 L217.968402,262.284436 C217.409156,262.544398 217.165099,263.210244 217.4251,263.770633 L241.063035,311.998479 C241.253129,312.406816 241.655394,312.645931 242.078507,312.645931 C242.235488,312.645931 242.396149,312.612823 242.549451,312.541701 L242.716243,312.464449 C243.276715,312.202034 243.520772,311.537414 243.260772,310.978251 L221.652554,261.80743 C221.463686,261.40032 221.060196,261.159978 220.638309,261.159978" id="Fill-4" fill="#B5EEFE" sketch:type="MSShapeGroup"></path>
                <path d="M172.007249,280.404519 C171.994984,280.404519 171.981494,280.405745 171.968003,280.405745 L169.39253,280.49526 C168.735172,280.517333 168.220077,281.069139 168.243379,281.725175 L171.402626,338.753713 C171.423475,339.397487 171.950833,339.902696 172.591022,339.902696 L172.632721,339.902696 L172.828947,339.895339 C173.486306,339.870814 173.998948,339.322687 173.978099,338.665424 L173.198098,281.554728 C173.174796,280.910954 172.646211,280.404519 172.007249,280.404519" id="Fill-5" fill="#7FDFF9" sketch:type="MSShapeGroup"></path>
                <path d="M132.094777,267.31568 C131.717041,267.31568 131.356475,267.53395 131.193362,267.900595 L112.862127,311.51289 C112.640146,312.009515 112.863354,312.591977 113.361278,312.812699 L113.510901,312.878916 C113.640901,312.937776 113.777033,312.964753 113.911939,312.964753 C114.288449,312.964753 114.649015,312.746483 114.812128,312.379838 L134.944967,269.570728 C135.165722,269.074102 134.942515,268.490414 134.445816,268.269692 L132.494589,267.401517 C132.364589,267.342658 132.228457,267.31568 132.094777,267.31568" id="Fill-6" fill="#A7CAE7" sketch:type="MSShapeGroup"></path>
                <path d="M96.214761,253.830768 L87.1356059,253.830768 L44.5826619,310.913261 C43.9436994,311.732386 44.0896428,312.915703 44.9125677,313.554572 L45.1578509,313.747091 C45.5024737,314.015637 45.9108701,314.145618 46.3155872,314.145618 C46.8760592,314.145618 47.4316255,313.895466 47.802003,313.419686 L96.214761,253.830768" id="Fill-7" fill="#B5EEFE" sketch:type="MSShapeGroup"></path>
                <path d="M54.5166287,224.019754 C54.4013457,224.019754 54.2823833,224.043053 54.1695531,224.093328 L16.9441587,241.565959 C16.5124604,241.757252 16.3174603,242.263687 16.5100076,242.696548 L16.5664227,242.826529 C16.7086869,243.145351 17.0226493,243.335417 17.3501023,243.335417 C17.4666118,243.335417 17.5843477,243.310892 17.6971779,243.261843 L55.6191764,227.355115 C56.0496483,227.162596 56.2458748,226.656161 56.054554,226.223299 L55.3003083,224.528642 C55.1580441,224.208594 54.8453081,224.019754 54.5166287,224.019754" id="Fill-8" fill="#7FDFF9" sketch:type="MSShapeGroup"></path>
                <path d="M72.0212594,178.121756 L1.36500062,193.767296 C0.463585118,193.946326 -0.118962319,194.819406 0.0600943671,195.721915 L0.114056656,195.992913 C0.273490691,196.783835 0.966415537,197.32951 1.74518948,197.32951 C1.85188764,197.32951 1.96103863,197.3197 2.07018963,197.297628 L72.0212594,184.839074 L72.0212594,178.121756" id="Fill-9" fill="#A7CAE7" sketch:type="MSShapeGroup"></path>
                <path d="M59.9901218,142.792682 L59.9864426,142.792682 L13.3973646,143.887711 C12.8601946,143.887711 12.4272698,144.323024 12.4297227,144.860115 L12.4297227,145.019526 C12.4321755,145.556617 12.8663266,145.989478 13.4022703,145.989478 L59.9974803,146.835581 C60.5321975,146.834355 60.9663487,146.397815 60.9651223,145.863176 L60.9589902,143.761408 C60.9589902,143.22677 60.524839,142.792682 59.9901218,142.792682" id="Fill-10" fill="#B5EEFE" sketch:type="MSShapeGroup"></path>
                <path d="M12.6492511,73.7372248 C12.2408547,73.7372248 11.8459488,73.9579473 11.6423638,74.3478902 L11.5552883,74.513432 C11.2646278,75.0701429 11.4780241,75.7556086 12.0348168,76.0474527 L59.8392727,102.325681 C60.0072916,102.412744 60.1875747,102.454436 60.365405,102.454436 C60.7750278,102.454436 61.1711601,102.233714 61.3735187,101.846223 L62.5128588,99.6647502 C62.8047457,99.1092655 62.590123,98.4213473 62.0345567,98.1307295 L13.1753834,73.8659796 C13.0073644,73.7789169 12.8270813,73.7372248 12.6492511,73.7372248" id="Fill-11" fill="#A7CAE7" sketch:type="MSShapeGroup"></path>
                <path d="M56.6395542,23.109636 C56.3979503,23.109636 56.1538936,23.1770789 55.9355916,23.3193223 L55.7540821,23.4345884 C55.151912,23.8245313 54.9814403,24.6264894 55.3689876,25.2285711 L82.9694719,69.8954287 L89.003437,69.8954287 L57.7298378,23.703134 C57.4808754,23.3193223 57.0651205,23.109636 56.6395542,23.109636" id="Fill-12" fill="#7FDFF9" sketch:type="MSShapeGroup"></path>
                <path d="M126.480247,0.2170437 C126.441001,0.2170437 126.401756,0.219496171 126.361284,0.224401113 L126.199397,0.244020883 C125.658548,0.309011369 125.273454,0.79827937 125.338454,1.33904927 L130.028267,48.3995188 C130.089588,48.8985967 130.513928,49.2664674 131.00572,49.2664674 C131.044966,49.2664674 131.084211,49.2640149 131.124683,49.25911 L133.241476,49.0028267 C133.782325,48.9390625 134.168646,48.447342 134.103646,47.9077983 L127.456473,1.08399226 C127.396379,0.583688142 126.973266,0.2170437 126.480247,0.2170437" id="Fill-13" fill="#A7CAE7" sketch:type="MSShapeGroup"></path>
                <path d="M194.561032,2.43653012 C193.980938,2.43653012 193.474428,2.8595814 193.3849,3.45062696 L183.717065,59.8169984 C183.618952,60.4681295 184.06782,61.0763424 184.719047,61.173215 L187.269991,61.5545742 C187.330086,61.5643841 187.39018,61.5680628 187.450275,61.5680628 C188.029143,61.5680628 188.538105,61.1437853 188.625181,60.5551922 L195.934618,3.83321246 C196.033958,3.18453383 195.587542,2.57754721 194.935089,2.4806746 L194.740089,2.45001871 C194.679995,2.44020883 194.6199,2.43653012 194.561032,2.43653012" id="Fill-14" fill="#B5EEFE" sketch:type="MSShapeGroup"></path>
                <path d="M257.692005,22.5173642 C257.22474,22.5173642 256.767287,22.7540276 256.504834,23.1819839 L226.603594,69.8954287 L232.756522,69.8954287 L259.06927,24.749113 C259.470307,24.0955294 259.266722,23.2420694 258.609364,22.8435428 L258.414364,22.7209193 C258.188703,22.5835809 257.938514,22.5173642 257.692005,22.5173642" id="Fill-15" fill="#A7CAE7" sketch:type="MSShapeGroup"></path>
                <path d="M319.004203,84.2031456 C318.87175,84.2031456 318.736844,84.2252179 318.605618,84.2718148 L264.330593,102.227583 C263.711253,102.447079 263.385026,103.12764 263.605781,103.748115 L264.466725,106.177287 C264.639649,106.666555 265.099555,106.971888 265.587669,106.971888 C265.720122,106.971888 265.855027,106.949816 265.986254,106.903219 L319.466561,86.7022138 C320.085901,86.4827176 320.410901,85.8033831 320.191373,85.1829079 L320.126373,84.9965201 C319.952222,84.507252 319.493543,84.2031456 319.004203,84.2031456" id="Fill-16" fill="#7FDFF9" sketch:type="MSShapeGroup"></path>
                <path d="M243.719451,247.69959 C243.719451,251.63458 241.524167,253.830768 238.815015,253.830768 L76.9281484,253.830768 C74.2189962,253.830768 72.0212594,251.63458 72.0212594,247.69959 L72.0212594,73.5741355 C72.0212594,72.0916167 74.2189962,69.8954287 76.9281484,69.8954287 L238.815015,69.8954287 C241.524167,69.8954287 243.719451,72.0916167 243.719451,73.5741355 L243.719451,247.69959" id="Fill-17" fill="#C6D6E0" sketch:type="MSShapeGroup"></path>
                <path d="M241.267846,248.925825 C241.267846,250.279589 240.168978,251.378296 238.815015,251.378296 L76.9281484,251.378296 C75.5729591,251.378296 74.4753171,250.279589 74.4753171,248.925825 L74.4753171,111.587439 C74.4753171,110.233675 75.5729591,109.134968 76.9281484,109.134968 L238.815015,109.134968 C240.168978,109.134968 241.267846,110.233675 241.267846,111.587439 L241.267846,248.925825" id="Fill-18" fill="#FFFFFF" sketch:type="MSShapeGroup"></path>
                <path d="M227.663217,126.863882 C227.663217,128.217646 226.565575,129.316353 225.210386,129.316353 L122.42449,129.316353 C121.069301,129.316353 119.971659,128.217646 119.971659,126.863882 L119.971659,124.640717 C119.971659,123.286953 121.069301,122.188246 122.42449,122.188246 L225.210386,122.188246 C226.565575,122.188246 227.663217,123.286953 227.663217,124.640717 L227.663217,126.863882" id="Fill-19" fill="#69808C" sketch:type="MSShapeGroup"></path>
                <path d="M102.729481,119.895185 C98.5007998,119.895185 100.298725,122.245879 96.3925913,120.434729 C94.1801375,119.408369 91.511457,119.896411 89.7957015,121.611915 C86.1790017,125.226857 88.8280595,131.613092 93.93976,131.613092 C98.1696676,131.613092 96.3692894,129.262399 100.277876,131.073549 C102.489104,132.099908 105.157784,131.611866 106.873539,129.896362 C110.48656,126.280194 107.843634,119.895185 102.729481,119.895185 C101.85382,119.895185 104.347123,119.895185 102.729481,119.895185" id="Fill-20" fill="#CE1E1F" sketch:type="MSShapeGroup"></path>
                <path d="M194.511976,99.5715563 C194.511976,100.92532 193.413107,102.024027 192.059145,102.024027 L83.8279629,102.024027 C82.4727736,102.024027 81.3751316,100.92532 81.3751316,99.5715563 L81.3751316,93.6696844 C81.3751316,92.3159203 82.4727736,91.2172132 83.8279629,91.2172132 L192.059145,91.2172132 C193.413107,91.2172132 194.511976,92.3159203 194.511976,93.6696844 L194.511976,99.5715563" id="Fill-21" fill="#FCFCFC" sketch:type="MSShapeGroup"></path>
                <path d="M234.368032,99.5715563 C234.368032,100.92532 233.269163,102.024027 231.915201,102.024027 L201.563866,102.024027 C200.208677,102.024027 199.111035,100.92532 199.111035,99.5715563 L199.111035,93.6696844 C199.111035,92.3159203 200.208677,91.2172132 201.563866,91.2172132 L231.915201,91.2172132 C233.269163,91.2172132 234.368032,92.3159203 234.368032,93.6696844 L234.368032,99.5715563" id="Fill-22" fill="#FCFCFC" sketch:type="MSShapeGroup"></path>
                <path d="M88.1817385,81.1485928 C88.1817385,82.8922998 86.7689077,84.3061494 85.0237182,84.3061494 C83.2797551,84.3061494 81.8656979,82.8922998 81.8656979,81.1485928 C81.8656979,79.4036595 83.2797551,77.9910361 85.0237182,77.9910361 C86.7689077,77.9910361 88.1817385,79.4036595 88.1817385,81.1485928" id="Fill-23" fill="#C63710" sketch:type="MSShapeGroup"></path>
                <path d="M98.8846679,81.1485928 C98.8846679,82.8922998 97.4718371,84.3061494 95.7266476,84.3061494 C93.9826845,84.3061494 92.5686273,82.8922998 92.5686273,81.1485928 C92.5686273,79.4036595 93.9826845,77.9910361 95.7266476,77.9910361 C97.4718371,77.9910361 98.8846679,79.4036595 98.8846679,81.1485928" id="Fill-24" fill="#F2E600" sketch:type="MSShapeGroup"></path>
                <path d="M109.588824,81.1485928 C109.588824,82.8922998 108.174767,84.3061494 106.430803,84.3061494 C104.685614,84.3061494 103.272783,82.8922998 103.272783,81.1485928 C103.272783,79.4036595 104.685614,77.9910361 106.430803,77.9910361 C108.174767,77.9910361 109.588824,79.4036595 109.588824,81.1485928" id="Fill-25" fill="#3EAF23" sketch:type="MSShapeGroup"></path>
                <path d="M227.930576,142.3635 L155.866392,142.3635 L179.841592,180.683362 L87.8125874,180.683362 L87.8125874,142.3635 L87.8125874,180.683362 L227.930576,180.683362 L227.930576,142.3635" id="Fill-26" fill="#CCF2FD" sketch:type="MSShapeGroup"></path>
                <path d="M155.866392,142.3635 L87.8125874,142.3635 L87.8125874,180.683362 L179.841592,180.683362 L155.866392,142.3635" id="Fill-27" fill="#A3E8FB" sketch:type="MSShapeGroup"></path>
                <path d="M87.8125874,191.370005 L127.597511,191.370005 L127.597511,194.435594 L87.8125874,194.435594 L87.8125874,191.370005 Z" id="Fill-28" fill="#69808C" sketch:type="MSShapeGroup"></path>
                <path d="M87.8125874,197.718227 L121.340339,197.718227 L121.340339,200.783816 L87.8125874,200.783816 L87.8125874,197.718227 Z" id="Fill-29" fill="#69808C" sketch:type="MSShapeGroup"></path>
                <path d="M87.8125874,204.066448 L127.597511,204.066448 L127.597511,207.132037 L87.8125874,207.132037 L87.8125874,204.066448 Z" id="Fill-30" fill="#69808C" sketch:type="MSShapeGroup"></path>
                <path d="M87.8125874,210.41467 L123.588358,210.41467 L123.588358,213.480259 L87.8125874,213.480259 L87.8125874,210.41467 Z" id="Fill-31" fill="#69808C" sketch:type="MSShapeGroup"></path>
                <path d="M87.8125874,216.762892 L113.83958,216.762892 L113.83958,219.828481 L87.8125874,219.828481 L87.8125874,216.762892 Z" id="Fill-32" fill="#69808C" sketch:type="MSShapeGroup"></path>
                <path d="M137.977893,191.370005 L173.753664,191.370005 L173.753664,194.435594 L137.977893,194.435594 L137.977893,191.370005 Z" id="Fill-33" fill="#69808C" sketch:type="MSShapeGroup"></path>
                <path d="M137.977893,197.718227 L176.732628,197.718227 L176.732628,200.783816 L137.977893,200.783816 L137.977893,197.718227 Z" id="Fill-34" fill="#69808C" sketch:type="MSShapeGroup"></path>
                <path d="M137.977893,204.066448 L171.010173,204.066448 L171.010173,207.132037 L137.977893,207.132037 L137.977893,204.066448 Z" id="Fill-35" fill="#69808C" sketch:type="MSShapeGroup"></path>
                <path d="M137.977893,210.41467 L173.753664,210.41467 L173.753664,213.480259 L137.977893,213.480259 L137.977893,210.41467 Z" id="Fill-36" fill="#69808C" sketch:type="MSShapeGroup"></path>
                <path d="M137.977893,216.762892 L169.987342,216.762892 L169.987342,219.828481 L137.977893,219.828481 L137.977893,216.762892 Z" id="Fill-37" fill="#69808C" sketch:type="MSShapeGroup"></path>
                <path d="M188.144426,191.370005 L221.672177,191.370005 L221.672177,194.435594 L188.144426,194.435594 L188.144426,191.370005 Z" id="Fill-38" fill="#69808C" sketch:type="MSShapeGroup"></path>
                <path d="M188.144426,197.718227 L223.920197,197.718227 L223.920197,200.783816 L188.144426,200.783816 L188.144426,197.718227 Z" id="Fill-39" fill="#69808C" sketch:type="MSShapeGroup"></path>
                <path d="M188.144426,204.066448 L227.92935,204.066448 L227.92935,207.132037 L188.144426,207.132037 L188.144426,204.066448 Z" id="Fill-40" fill="#69808C" sketch:type="MSShapeGroup"></path>
                <path d="M188.144426,210.41467 L223.920197,210.41467 L223.920197,213.480259 L188.144426,213.480259 L188.144426,210.41467 Z" id="Fill-41" fill="#69808C" sketch:type="MSShapeGroup"></path>
                <path d="M188.144426,216.762892 L216.739533,216.762892 L216.739533,219.828481 L188.144426,219.828481 L188.144426,216.762892 Z" id="Fill-42" fill="#69808C" sketch:type="MSShapeGroup"></path>
                <path d="M227.930576,180.683362 L152.496202,180.683362 L152.496202,161.462119 L227.930576,157.384886 L227.930576,180.683362" id="Fill-43" fill="#7CB836" sketch:type="MSShapeGroup"></path>
                <path d="M227.930576,180.683362 L179.841592,180.683362 L179.841592,168.430816 L227.930576,165.82997 L227.930576,180.683362" id="Fill-44" fill="#2C9B26" sketch:type="MSShapeGroup"></path>
                <path d="M152.496202,180.683362 L179.841592,180.683362 L179.841592,168.430816 L152.496202,161.462119 L152.496202,180.683362" id="Fill-45" fill="#9ACC58" sketch:type="MSShapeGroup"></path>
                <path d="M133.95525,180.237012 L133.95525,181.607944 C133.95525,181.812725 133.89025,181.977041 133.763929,182.104569 C133.637608,182.232098 133.472042,182.295862 133.268457,182.295862 L101.705424,182.295862 C101.501839,182.295862 101.337499,182.232098 101.208726,182.104569 C101.082405,181.977041 101.019858,181.812725 101.019858,181.607944 L101.019858,180.237012 C101.019858,178.966632 101.445424,177.893676 102.297783,177.015691 C103.147689,176.140159 104.177878,175.453467 105.384671,174.958068 C106.591464,174.463895 107.798257,173.991794 109.00505,173.547897 C110.213069,173.104 111.243258,172.525217 112.093165,171.814 C112.944297,171.10401 113.369863,170.251776 113.369863,169.259751 C113.269297,169.157974 113.123354,169.001016 112.932033,168.783972 C112.741938,168.569381 112.410806,168.085018 111.939863,167.337014 C111.470145,166.585331 111.050711,165.793183 110.684013,164.954438 C110.314862,164.114467 109.98373,163.029248 109.691843,161.695104 C109.399956,160.36096 109.254012,158.996159 109.254012,157.598251 C109.254012,155.335846 110.060994,153.39962 111.674957,151.784668 C113.287693,150.172168 115.22543,149.365305 117.488167,149.365305 C119.749677,149.365305 121.686188,150.172168 123.301377,151.784668 C124.914114,153.39962 125.721095,155.335846 125.721095,157.598251 C125.721095,158.996159 125.581284,160.356055 125.301661,161.67671 C125.020812,162.997366 124.678642,164.096073 124.272698,164.972832 C123.865528,165.84959 123.458358,166.624571 123.052415,167.296548 C122.645245,167.970978 122.303075,168.472508 122.023452,168.803592 L121.604018,169.259751 C121.604018,170.251776 122.029584,171.10401 122.881943,171.814 C123.731849,172.525217 124.760812,173.104 125.968831,173.547897 C127.175624,173.991794 128.382417,174.463895 129.58921,174.958068 C130.79723,175.453467 131.827419,176.140159 132.677325,177.015691 C133.528457,177.893676 133.95525,178.966632 133.95525,180.237012" id="Fill-46" fill="#FFFFFF" sketch:type="MSShapeGroup"></path>
                <path d="M127.607323,238.247766 C127.607323,239.602756 126.509681,240.701463 125.154491,240.701463 L90.2543809,240.701463 C88.8991916,240.701463 87.8015496,239.602756 87.8015496,238.247766 L87.8015496,230.890352 C87.8015496,229.536588 88.8991916,228.439107 90.2543809,228.439107 L125.154491,228.439107 C126.509681,228.439107 127.607323,229.536588 127.607323,230.890352 L127.607323,238.247766" id="Fill-47" fill="#7CB836" sketch:type="MSShapeGroup"></path>
                <path d="M177.773855,238.247766 C177.773855,239.602756 176.676213,240.701463 175.321024,240.701463 L140.420913,240.701463 C139.065724,240.701463 137.968082,239.602756 137.968082,238.247766 L137.968082,230.890352 C137.968082,229.536588 139.065724,228.439107 140.420913,228.439107 L175.321024,228.439107 C176.676213,228.439107 177.773855,229.536588 177.773855,230.890352 L177.773855,238.247766" id="Fill-48" fill="#7CB836" sketch:type="MSShapeGroup"></path>
                <path d="M227.939161,238.247766 C227.939161,239.602756 226.841519,240.701463 225.48633,240.701463 L190.586219,240.701463 C189.23103,240.701463 188.133388,239.602756 188.133388,238.247766 L188.133388,230.890352 C188.133388,229.536588 189.23103,228.439107 190.586219,228.439107 L225.48633,228.439107 C226.841519,228.439107 227.939161,229.536588 227.939161,230.890352 L227.939161,238.247766" id="Fill-49" fill="#7CB836" sketch:type="MSShapeGroup"></path>
            </g>
        </g>
    </g>
</svg>