<?xml version="1.0" encoding="UTF-8" standalone="no"?>
<svg width="1440px" height="905px" viewBox="0 0 1440 905" version="1.1" xmlns="http://www.w3.org/2000/svg" xmlns:xlink="http://www.w3.org/1999/xlink" xmlns:sketch="http://www.bohemiancoding.com/sketch/ns">
    <!-- Generator: Sketch 3.1.1 (8761) - http://www.bohemiancoding.com/sketch -->
    <title>Imported Layers 2</title>
    <desc>Created with Sketch.</desc>
    <defs></defs>
    <g id="Page-1" stroke="none" stroke-width="1" fill="none" fill-rule="evenodd" sketch:type="MSPage">
        <g id="Desktop-HD-3" sketch:type="MSArtboardGroup" transform="translate(0.000000, -125.000000)" fill="#F78E1E" opacity="0.220499067">
            <g id="header-2" sketch:type="MSLayerGroup">
                <g id="Imported-Layers-2" transform="translate(-30.000000, 125.000000)" sketch:type="MSShapeGroup">
                    <path d="M1078.46667,86.3362726 C1118.65152,126.558799 1118.65152,191.763132 1078.46667,231.958373 L1005.68182,304.775487 L932.912121,231.958373 C892.718182,191.763132 892.724242,126.558799 932.912121,86.3362726 C973.106061,46.1410318 1038.26667,46.138 1078.46667,86.3362726 L1078.46667,86.3362726 Z M1047.22121,109.9174 L1054.59697,100.858463 C1040.71212,89.4013946 1022.75152,81.7764866 1000.1,83.2438645 L1000.13636,157.255497 L969.133333,157.258528 C955.881818,157.255497 945.1,168.042543 945.1,181.288358 C945.1,187.879431 947.70303,194.018771 952.372727,198.527017 L966.327273,212.482266 C968.336364,214.489299 969.430303,217.151196 969.430303,219.991967 C969.430303,222.826674 968.330303,225.482507 966.327273,227.486508 L974.6,235.745057 C978.80303,231.539988 981.124242,225.931209 981.124242,219.994998 C981.118182,214.010279 978.8,208.4015 974.593939,204.202495 L960.569697,190.189642 C958.130303,187.812732 956.8,184.686975 956.8,181.288358 C956.8,174.488092 962.321212,168.933885 969.133333,168.930853 L1000.13636,168.946012 C1000.13636,168.946012 1000.13636,251.983231 1000.1303,252.034771 C1000.13636,254.845224 998.945455,256.7704 997.20303,258.349953 L1005.69394,266.84498 C1009.58485,263.124995 1012.02121,257.837584 1012.02121,252.040834 C1012.02121,251.983231 1012.00909,168.946012 1012.00909,168.946012 L1041.0303,168.946012 L1041.0303,157.279751 L1012.00909,157.279751 L1012.00909,95.2496839 C1024.97576,96.4927107 1037.10606,101.683105 1047.22121,109.9174 L1047.22121,109.9174 Z" id="Fill-1"></path>
                    <path d="M779.942424,239.364993 C820.139394,199.154594 885.315152,199.157625 925.49697,239.364993 L998.275758,312.185139 L925.490909,384.987094 C885.315152,425.200525 820.139394,425.200525 779.936364,384.987094 C739.766667,344.776694 739.763636,279.581457 779.942424,239.364993" id="Fill-2"></path>
                    <path d="M997.306061,548.830147 C936.278788,487.745993 936.278788,388.728301 997.306061,327.689624 L1107.81515,217.108751 L1218.34545,327.689624 C1279.37273,388.728301 1279.37273,487.745993 1218.34545,548.830147 C1157.3,609.868824 1058.34242,609.868824 997.306061,548.830147" id="Fill-3"></path>
                    <path d="M1051.8303,922.935724 C968.993939,898.636067 921.512121,811.75456 945.790909,728.908343 L989.742424,578.832569 L1139.72727,622.817525 C1222.55152,647.077769 1270.02424,733.956244 1245.7697,816.847938 C1221.48485,899.697187 1134.66061,947.195968 1051.8303,922.935724" id="Fill-4"></path>
                    <path d="M658.390909,634.786963 C639.145455,550.594639 691.748485,466.717619 775.863636,447.465863 L928.236364,412.570161 L963.09697,565.001622 C982.375758,649.157565 929.769697,733.028522 845.621212,752.322722 C761.493939,771.571446 677.672727,718.94897 658.390909,634.786963" id="Fill-5"></path>
                    <path d="M648.648485,332.358554 C683.690909,311.58788 728.936364,323.166219 749.690909,358.216542 L787.287879,421.70186 L723.839394,459.310998 C688.812121,480.090768 643.569697,468.512428 622.79697,433.449978 C602.042424,398.396624 613.615152,353.138323 648.648485,332.358554" id="Fill-6"></path>
                    <path d="M784,842.345145 C778.939394,801.910395 807.60303,765.016754 848.00303,759.959758 L921.187879,750.785614 L930.351515,823.996858 C935.424242,864.425545 906.760606,901.313122 866.345455,906.388309 C825.936364,911.442274 789.069697,882.773833 784,842.345145" id="Fill-7"></path>
                    <path d="M560.530303,808.765232 C576.9,754.299438 634.3,723.420834 688.718182,739.795438 L787.293939,769.443142 L757.648485,868.051545 C741.306061,922.505212 683.906061,953.383816 629.460606,937.018308 C575.045455,920.640672 544.178788,863.224963 560.530303,808.765232" id="Fill-8"></path>
                    <path d="M601.090909,488.203791 C608.778788,472.53559 627.709091,466.068819 643.360606,473.760426 L671.724242,487.68839 L657.8,516.056686 C650.118182,531.721855 631.187879,538.191657 615.524242,530.50005 C599.872727,522.808443 593.406061,503.871992 601.090909,488.203791" id="Fill-9"></path>
                    <path d="M415.412121,471.450216 C496.218182,441.071855 586.354545,481.967435 616.712121,562.782365 L671.724242,709.16544 L525.421212,764.183017 C444.648485,794.5826 354.518182,753.68702 324.121212,672.841773 C293.766667,592.023811 334.636364,501.858895 415.412121,471.450216" id="Fill-10"></path>
                    <path d="M1330.31818,668.266828 C1299.93939,695.407256 1253.30909,692.775677 1226.19394,662.385189 L1177.06364,607.343358 L1232.0697,558.201356 C1262.44242,531.054865 1309.06364,533.689475 1336.20303,564.082995 C1363.32727,594.473483 1360.69091,641.117304 1330.31818,668.266828" id="Fill-11"></path>
                    <path d="M1222.83939,246.228926 C1202.40909,265.680779 1170.07273,264.87736 1150.63333,244.437149 L1115.42121,207.413142 L1152.42727,172.190008 C1172.85152,152.735124 1205.18485,153.541575 1224.63939,173.984818 C1244.0697,194.425028 1243.26667,226.77101 1222.83939,246.228926" id="Fill-12"></path>
                    <path d="M1163.62424,127.947351 C1169.32727,141.056736 1163.33333,156.312615 1150.2303,162.018411 L1126.50909,172.359788 L1116.17879,148.621008 C1110.46667,135.514656 1116.46667,120.258776 1129.5697,114.546916 C1142.6697,108.838089 1157.91515,114.837967 1163.62424,127.947351" id="Fill-13"></path>
                    <path d="M1431.49394,476.81039 C1421.74242,517.65443 1380.73939,542.869682 1339.9303,533.11647 L1265.99697,515.468522 L1283.64848,441.514493 C1293.37273,400.670453 1334.37879,375.458232 1375.20606,385.199318 C1416.01818,394.95253 1441.21818,435.963318 1431.49394,476.81039" id="Fill-14"></path>
                    <path d="M1342.05152,289.777308 C1359.59091,315.198721 1353.21818,350.042883 1327.80909,367.581687 L1281.79697,399.366791 L1250.03939,353.335388 C1232.49394,327.920038 1238.8697,293.08194 1264.28485,275.521913 C1289.68485,257.980077 1324.50606,264.358926 1342.05152,289.777308" id="Fill-15"></path>
                    <path d="M1386.74545,362.300339 C1383.82727,372.441619 1373.24848,378.302035 1363.11515,375.38547 L1344.75152,370.110186 L1350.02727,351.743707 C1352.94242,341.596365 1363.52121,335.73898 1373.66061,338.649482 C1383.8,341.566047 1389.65758,352.152997 1386.74545,362.300339" id="Fill-16"></path>
                    <path d="M1227.96667,300.964548 C1217.91515,306.533915 1205.23939,302.889724 1199.67576,292.830303 L1189.59091,274.609349 L1207.80303,264.525674 C1217.85758,258.953276 1230.52727,262.591403 1236.09394,272.656888 C1241.66364,282.719341 1238.02424,295.392151 1227.96667,300.964548" id="Fill-17"></path>
                    <path d="M1287.70606,232.510156 C1292.06061,245.762033 1284.84848,260.050778 1271.60606,264.404403 L1247.61212,272.299139 L1239.71818,248.293564 C1235.36061,235.041686 1242.57273,220.755973 1255.82424,216.396284 C1269.07273,212.039627 1283.34848,219.252214 1287.70606,232.510156" id="Fill-18"></path>
                    <path d="M576.966667,1447.43844 C474.442424,1339.77717 478.539394,1169.33394 586.106061,1066.79636 L780.927273,881.027532 L966.569697,1075.94322 C1069.10909,1183.53174 1065.00909,1353.96889 957.421212,1456.59136 C849.845455,1559.12894 679.515152,1555.02999 576.966667,1447.43844" id="Fill-19"></path>
                    <path d="M908.918182,1005.81226 C880.848485,982.258418 877.178788,940.398734 900.712121,912.333615 L943.339394,861.481694 L994.151515,904.126607 C1022.21818,927.668321 1025.89091,969.524973 1002.34848,997.614346 C978.818182,1025.67946 936.981818,1029.35397 908.918182,1005.81226" id="Fill-20"></path>
                    <path d="M1339.37273,1055.0058 C1297.94545,1080.74555 1243.50909,1068.0212 1217.8,1026.59203 L1171.20909,951.555657 L1246.19394,904.957313 C1287.59394,879.208468 1342.03636,891.932818 1367.77576,933.371085 C1393.49697,974.800258 1380.77576,1029.25999 1339.37273,1055.0058" id="Fill-22"></path>
                    <path d="M1494.37576,812.388201 C1477.91212,870.952952 1417.11818,905.084647 1358.59697,888.622122 L1252.6,858.810702 L1282.40606,752.78052 C1298.84242,694.221833 1359.63636,660.090137 1418.18182,676.543567 C1476.69697,693.012156 1510.80909,753.826482 1494.37576,812.388201" id="Fill-23"></path>
                    <path d="M1427.02121,660.93297 C1395.31515,661.330132 1369.27879,635.936005 1368.88485,604.226696 L1368.16364,546.786732 L1425.5697,546.068202 C1457.2697,545.661945 1483.3,571.056072 1483.70303,602.78054 C1484.09091,634.486818 1458.72121,660.523681 1427.02121,660.93297" id="Fill-24"></path>
                    <path d="M1462.47879,528.956878 C1457.40909,539.934926 1444.39697,544.728159 1433.42121,539.656003 L1413.54545,530.466701 L1422.7303,510.581304 C1427.8,499.600224 1440.80606,494.813055 1451.78788,499.885211 C1462.76364,504.960398 1467.54848,517.975798 1462.47879,528.956878" id="Fill-25"></path>
                    <path d="M1490.05758,683.49239 C1483.21818,691.532651 1471.15758,692.508881 1463.1303,685.669202 L1448.57273,673.287443 L1460.95152,658.731903 C1467.78182,650.691642 1479.83636,649.715411 1487.87576,656.55509 C1495.91212,663.391737 1496.88788,675.455161 1490.05758,683.49239" id="Fill-26"></path>
                    <path d="M452.554545,928.502059 C484.948485,894.609873 538.669697,893.406259 572.533333,925.803781 L633.872727,984.486771 L575.221212,1045.84682 C542.848485,1079.73597 489.127273,1080.93958 455.242424,1048.536 C421.384848,1016.13544 420.175758,962.397276 452.554545,928.502059" id="Fill-27"></path>
                    <path d="M422.669697,834.028993 C425.966667,801.676948 454.848485,778.123107 487.163636,781.421676 L545.712121,787.388204 L539.745455,845.949923 C536.460606,878.289841 507.581818,901.843682 475.245455,898.554209 C442.930303,895.258672 419.387879,866.368911 422.669697,834.028993" id="Fill-28"></path>
                    <path d="M369.987879,860.68737 C409.636364,870.031293 434.212121,909.762672 424.872727,949.412194 L407.966667,1021.24398 L336.184848,1004.32972 C296.545455,995.000958 271.969697,955.269579 281.3,915.595803 C290.639394,875.943249 330.345455,851.358605 369.987879,860.68737" id="Fill-32"></path>
                    <path d="M324.030303,782.59194 C336.557576,760.838972 364.336364,753.365652 386.063636,765.895968 L425.433333,788.585754 L402.754545,827.965448 C390.236364,849.712353 362.457576,857.188704 340.712121,844.658388 C318.984848,832.134135 311.512121,804.338844 324.030303,782.59194" id="Fill-33"></path>
                    <path d="M136.306061,641.723659 C181.521212,607.255436 246.106061,615.977846 280.548485,661.199766 L342.942424,743.103102 L261.078788,805.515172 C215.890909,839.99249 151.306061,831.27008 116.836364,786.039065 C82.4,740.814114 91.1090909,676.20704 136.306061,641.723659" id="Fill-34"></path>
                    <path d="M257.381818,823.67549 C270.206061,811.845513 290.193939,812.658028 302.012121,825.48849 L323.424242,848.723995 L300.2,870.143468 C287.381818,881.976477 267.39697,881.163962 255.566667,868.3335 C243.748485,855.503038 244.560606,835.508498 257.381818,823.67549" id="Fill-35"></path>
                    <path d="M90.5060606,978.599069 C76.5030303,932.519157 102.478788,883.792508 148.515152,869.788751 L231.915152,844.397656 L257.281818,927.829005 C271.30303,973.893758 245.324242,1022.61737 199.266667,1036.64235 C153.224242,1050.64914 104.530303,1024.66988 90.5060606,978.599069" id="Fill-36"></path>
                    <path d="M24.2181818,793.542702 C48.4848485,771.853401 85.7393939,773.945324 107.406061,798.214664 L146.669697,842.175366 L102.736364,881.448948 C78.4818182,903.144313 41.230303,901.049358 19.5424242,876.770923 C-2.13030303,852.501584 -0.0393939394,815.241099 24.2181818,793.542702" id="Fill-50"></path>
                    <path d="M271.587879,321.08036 C337.384848,351.831629 365.809091,430.133219 335.081818,495.940875 L279.433333,615.14714 L160.306061,559.462574 C94.5121212,528.741622 66.0818182,450.446095 96.8090909,384.602059 C127.542424,318.797435 205.787879,290.353344 271.587879,321.08036" id="Fill-51"></path>
                    <path d="M549.712121,90.2381639 C631.360606,132.877013 663.021212,233.671324 620.418182,315.332119 L543.272727,463.270493 L395.430303,386.0755 C313.787879,343.482127 282.127273,242.69388 324.724242,160.975482 C367.330303,79.3146873 468.060606,47.6417592 549.712121,90.2381639" id="Fill-52"></path>
                    <path d="M611.172727,453.850776 C605.981818,463.037047 594.330303,466.281043 585.145455,461.087617 L568.512121,451.689122 L577.912121,435.050754 C583.093939,425.861452 594.751515,422.620487 603.936364,427.807849 C613.118182,433.001276 616.357576,444.661473 611.172727,453.850776" id="Fill-53"></path>
                    <path d="M26.0090909,565.062258 C45.1454545,538.528184 82.1636364,532.53437 108.672727,551.676982 L156.706061,586.345301 L122.054545,634.386769 C102.933333,660.926906 65.9151515,666.914657 39.3848485,647.778109 C12.8727273,628.632465 6.88484848,591.602395 26.0090909,565.062258" id="Fill-54"></path>
                    <path d="M58.1030303,483.910801 C70.5636364,481.418684 82.6969697,489.50139 85.1878788,501.965007 L89.7121212,524.545649 L67.1454545,529.066022 C54.6878788,531.567234 42.5606061,523.484528 40.0606061,511.014848 C37.5666667,498.551231 45.6454545,486.415045 58.1030303,483.910801" id="Fill-55"></path>
                    <path d="M3.73030303,710.587341 C4.02424242,687.236629 23.1878788,668.533624 46.5242424,668.839833 L88.8,669.367361 L88.2636364,711.654525 C87.9757576,734.999174 68.8090909,753.696115 45.4636364,753.405065 C22.130303,753.110983 3.44242424,733.941085 3.73030303,710.587341" id="Fill-56"></path>
                    <path d="M4.74242424,756.345885 C11.3060606,750.082242 21.7060606,750.321753 27.9636364,756.88554 L39.3060606,768.770089 L27.4242424,780.114982 C20.8666667,786.381656 10.469697,786.139114 4.20606061,779.575326 C-2.05151515,773.01457 -1.81212121,762.612559 4.74242424,756.345885" id="Fill-57"></path>
                    <path d="M23.1909091,938.088523 C21.769697,921.622967 33.9575758,907.115935 50.4121212,905.697065 L80.2151515,903.120059 L82.7848485,932.93451 C84.2151515,949.397035 72.0242424,963.894972 55.5636364,965.322936 C39.1151515,966.744838 24.6181818,954.551048 23.1909091,938.088523" id="Fill-58"></path>
                    <path d="M255.890909,210.581344 C280.384848,213.355416 298.006061,235.469166 295.230303,259.96892 L290.221212,304.348007 L245.866667,299.330423 C221.375758,296.565446 203.760606,274.451697 206.524242,249.942848 C209.29697,225.443094 231.39697,207.8194 255.890909,210.581344" id="Fill-60"></path>
                    <path d="M295.778788,168.582199 C304.469697,174.563886 306.678788,186.460562 300.7,195.158717 L289.887879,210.908776 L274.142424,200.082316 C265.448485,194.109724 263.242424,182.213048 269.215152,173.511861 C275.190909,164.813706 287.084848,162.609607 295.778788,168.582199" id="Fill-61"></path>
                    <path d="M172.790909,273.460308 C181.654545,267.742385 193.478788,270.289074 199.193939,279.163072 L209.551515,295.222371 L193.49697,305.578906 C184.636364,311.302893 172.812121,308.753172 167.093939,299.882206 C161.375758,291.011239 163.927273,279.184294 172.790909,273.460308" id="Fill-62"></path>
                    <path d="M368.757576,403.056458 C385.015152,391.365943 407.669697,395.064706 419.354545,411.327134 L440.527273,440.774741 L411.090909,461.951672 C394.845455,473.648251 372.187879,469.943425 360.493939,453.680997 C348.809091,437.424632 352.506061,414.7591 368.757576,403.056458" id="Fill-63"></path>
                    <path d="M724.533333,131.670368 C756.233333,142.081475 773.493939,176.231361 763.087879,207.928543 L744.248485,265.353348 L686.866667,246.504818 C655.169697,236.105838 637.909091,201.955952 648.309091,170.237547 C658.715152,138.540365 692.839394,121.268356 724.533333,131.670368" id="Fill-64"></path>
                    <path d="M724.442424,275.449151 C735.654545,276.598192 743.818182,286.624264 742.666667,297.838791 L740.590909,318.154699 L720.287879,316.074903 C709.075758,314.928893 700.915152,304.902821 702.060606,293.685263 C703.212121,282.470736 713.227273,274.306172 724.442424,275.449151" id="Fill-65"></path>
                    <path d="M695.663636,287.615654 C695.557576,303.526396 682.578788,316.347763 666.678788,316.238619 L637.869697,316.053681 L638.060606,287.239714 C638.163636,271.32594 651.142424,258.510637 667.051515,258.613717 C682.948485,258.716798 695.760606,271.70188 695.663636,287.615654" id="Fill-66"></path>
                    <path d="M681.251515,26.0737291 C704.445455,50.0641455 703.809091,88.3251154 679.839394,111.518176 L636.421212,153.541575 L594.430303,110.108401 C571.233333,86.130112 571.866667,47.8661104 595.845455,24.6548595 C619.815152,1.46179933 658.051515,2.09240803 681.251515,26.0737291" id="Fill-67"></path>
                    <path d="M840.806061,60.4237124 C877.178788,65.7232508 902.369697,99.5244833 897.075758,135.896659 L887.484848,201.795268 L821.633333,192.196676 C785.269697,186.909264 760.078788,153.114095 765.366667,116.714634 C770.663636,80.3424582 804.439394,55.1332692 840.806061,60.4237124" id="Fill-68"></path>
                    <path d="M781.00303,192.184548 C787.687879,187.870336 796.612121,189.795512 800.924242,196.486634 L808.733333,208.601597 L796.624242,216.414475 C789.942424,220.731719 781.021212,218.806543 776.709091,212.115421 C772.393939,205.427331 774.318182,196.501793 781.00303,192.184548" id="Fill-69"></path>
                    <path d="M546.536364,30.1575268 C559.9,31.527888 569.627273,43.4730719 568.254545,56.8401572 L565.781818,81.051893 L541.584848,78.571903 C528.227273,77.2045736 518.5,65.2593896 519.866667,51.8862408 C521.233333,38.5252191 533.175758,28.7932291 546.536364,30.1575268" id="Fill-70"></path>
                    <path d="M744.30303,62.6763194 C758.545455,69.0369783 764.933333,85.7390134 758.572727,99.9822809 L747.060606,125.776602 L721.281818,114.258898 C707.048485,107.904303 700.654545,91.1992358 707.009091,76.9499047 C713.369697,62.7157324 730.066667,56.3156605 744.30303,62.6763194" id="Fill-71"></path>
                    <path d="M810.430303,19.3068127 C817.033333,33.7865585 810.660606,50.8796923 796.184848,57.482893 L769.981818,69.4462676 L758.027273,43.2305301 C751.424242,28.7568478 757.8,11.663714 772.275758,5.05444983 C786.742424,-1.54875084 803.830303,4.83313043 810.430303,19.3068127" id="Fill-72"></path>
                    <path d="M938.984848,37.2033662 C945.590909,51.6800803 939.212121,68.7762458 924.742424,75.3764147 L898.542424,87.3428211 L886.584848,61.1240518 C879.981818,46.6503696 886.354545,29.5572358 900.830303,22.9479716 C915.3,16.3447709 932.387879,22.7266522 938.984848,37.2033662" id="Fill-73"></path>
                    <path d="M855.145455,7.7891087 C867.59697,10.0629381 875.857576,21.9990268 873.581818,34.4535485 L869.478788,57.0099365 L846.936364,52.8988528 C834.487879,50.6371505 826.230303,38.6980301 828.5,26.2374448 C830.763636,13.7889866 842.70303,5.52740635 855.145455,7.7891087" id="Fill-74"></path>
                    <path d="M976.293939,40.3715686 C978.257576,48.0874298 973.606061,55.9397207 965.890909,57.9073411 L951.933333,61.4696739 L948.366667,47.5053294 C946.39697,39.7955318 951.054545,31.940209 958.766667,29.9725886 C966.475758,28.0019365 974.321212,32.6587391 976.293939,40.3715686" id="Fill-75"></path>
                    <path d="M725.730303,0.333979933 C738.7,1.66492809 748.142424,13.2614582 746.809091,26.2313813 L744.412121,49.7336823 L720.924242,47.3264548 C707.957576,46.0015702 698.515152,34.4080719 699.839394,21.4260217 C701.169697,8.45609866 712.760606,-0.990904682 725.730303,0.333979933" id="Fill-76"></path>
                </g>
            </g>
        </g>
    </g>
</svg>