<?xml version="1.0" encoding="UTF-8" standalone="no"?>
<svg width="343px" height="153px" viewBox="0 0 343 153" version="1.1" xmlns="http://www.w3.org/2000/svg" xmlns:xlink="http://www.w3.org/1999/xlink" xmlns:sketch="http://www.bohemiancoding.com/sketch/ns">
    <!-- Generator: Sketch 3.2.1 (9977) - http://www.bohemiancoding.com/sketch -->
    <title>cbt</title>
    <desc>Created with Sketch.</desc>
    <defs></defs>
    <g id="Page-1" stroke="none" stroke-width="1" fill="none" fill-rule="evenodd" sketch:type="MSPage">
        <g id="cbt" sketch:type="MSLayerGroup" fill="#FFFFFF">
            <path d="M0,137.744 C0,131.804 4.47,127.795 10.267,127.795 C14.477,127.795 16.929,130.073 18.284,132.495 L14.766,134.226 C13.958,132.669 12.228,131.429 10.267,131.429 C6.749,131.429 4.21,134.111 4.21,137.744 C4.21,141.378 6.749,144.06 10.267,144.06 C12.228,144.06 13.958,142.821 14.766,141.263 L18.284,142.964 C16.929,145.358 14.477,147.694 10.267,147.694 C4.47,147.694 0,143.656 0,137.744" id="Fill-1" sketch:type="MSShapeGroup"></path>
            <path d="M20.851,147.348 L20.851,133.418 L24.513,133.418 L24.513,135.293 C25.523,134.082 27.224,133.073 28.955,133.073 L28.955,136.649 C28.695,136.591 28.377,136.562 27.945,136.562 C26.734,136.562 25.119,137.254 24.513,138.149 L24.513,147.348 L20.851,147.348" id="Fill-2" sketch:type="MSShapeGroup"></path>
            <path d="M41.558,140.368 C41.558,138.206 40.289,136.331 37.981,136.331 C35.703,136.331 34.434,138.206 34.434,140.368 C34.434,142.561 35.703,144.435 37.981,144.435 C40.289,144.435 41.558,142.561 41.558,140.368 L41.558,140.368 Z M30.627,140.368 C30.627,136.418 33.396,133.073 37.981,133.073 C42.596,133.073 45.364,136.418 45.364,140.368 C45.364,144.32 42.596,147.694 37.981,147.694 C33.396,147.694 30.627,144.32 30.627,140.368 L30.627,140.368 Z" id="Fill-3" sketch:type="MSShapeGroup"></path>
            <path d="M47.199,145.531 L48.785,142.878 C49.823,143.859 51.871,144.81 53.601,144.81 C55.188,144.81 55.937,144.204 55.937,143.339 C55.937,141.061 47.689,142.936 47.689,137.456 C47.689,135.12 49.708,133.073 53.399,133.073 C55.735,133.073 57.61,133.88 58.994,134.976 L57.523,137.572 C56.687,136.706 55.101,135.956 53.399,135.956 C52.073,135.956 51.208,136.533 51.208,137.312 C51.208,139.36 59.484,137.629 59.484,143.253 C59.484,145.82 57.293,147.694 53.428,147.694 C51.006,147.694 48.669,146.886 47.199,145.531" id="Fill-4" sketch:type="MSShapeGroup"></path>
            <path d="M61.379,145.531 L62.966,142.878 C64.004,143.859 66.051,144.81 67.782,144.81 C69.368,144.81 70.118,144.204 70.118,143.339 C70.118,141.061 61.87,142.936 61.87,137.456 C61.87,135.12 63.889,133.073 67.58,133.073 C69.916,133.073 71.79,133.88 73.175,134.976 L71.704,137.572 C70.868,136.706 69.281,135.956 67.58,135.956 C66.253,135.956 65.388,136.533 65.388,137.312 C65.388,139.36 73.665,137.629 73.665,143.253 C73.665,145.82 71.473,147.694 67.609,147.694 C65.187,147.694 62.85,146.886 61.379,145.531" id="Fill-5" sketch:type="MSShapeGroup"></path>
            <path d="M88.812,141.551 C88.812,140.34 87.946,139.36 86.36,139.36 L81.054,139.36 L81.054,143.743 L86.36,143.743 C87.889,143.743 88.812,142.936 88.812,141.551 L88.812,141.551 Z M88.437,133.736 C88.437,132.553 87.571,131.717 86.187,131.717 L81.054,131.717 L81.054,135.754 L86.187,135.754 C87.571,135.754 88.437,134.976 88.437,133.736 L88.437,133.736 Z M76.959,147.348 L76.959,128.113 L87.081,128.113 C90.744,128.113 92.618,130.448 92.618,133.015 C92.618,135.408 91.119,137.052 89.302,137.427 C91.378,137.744 92.993,139.735 92.993,142.128 C92.993,145.04 91.09,147.348 87.398,147.348 L76.959,147.348 L76.959,147.348 Z" id="Fill-6" sketch:type="MSShapeGroup"></path>
            <path d="M96.508,147.348 L96.508,133.418 L100.171,133.418 L100.171,135.293 C101.18,134.082 102.882,133.073 104.612,133.073 L104.612,136.649 C104.353,136.591 104.035,136.562 103.603,136.562 C102.392,136.562 100.776,137.254 100.171,138.149 L100.171,147.348 L96.508,147.348" id="Fill-7" sketch:type="MSShapeGroup"></path>
            <path d="M117.216,140.368 C117.216,138.206 115.947,136.331 113.64,136.331 C111.361,136.331 110.092,138.206 110.092,140.368 C110.092,142.561 111.361,144.435 113.64,144.435 C115.947,144.435 117.216,142.561 117.216,140.368 L117.216,140.368 Z M106.286,140.368 C106.286,136.418 109.054,133.073 113.64,133.073 C118.254,133.073 121.022,136.418 121.022,140.368 C121.022,144.32 118.254,147.694 113.64,147.694 C109.054,147.694 106.286,144.32 106.286,140.368 L106.286,140.368 Z" id="Fill-8" sketch:type="MSShapeGroup"></path>
            <path d="M136.168,147.348 L133.227,137.86 L130.286,147.348 L126.363,147.348 L122.124,133.418 L125.931,133.418 L128.526,142.791 L131.583,133.418 L134.842,133.418 L137.899,142.791 L140.495,133.418 L144.33,133.418 L140.091,147.348 L136.168,147.348" id="Fill-9" sketch:type="MSShapeGroup"></path>
            <path d="M145.344,145.531 L146.931,142.878 C147.969,143.859 150.016,144.81 151.747,144.81 C153.333,144.81 154.083,144.204 154.083,143.339 C154.083,141.061 145.834,142.936 145.834,137.456 C145.834,135.12 147.854,133.073 151.545,133.073 C153.881,133.073 155.755,133.88 157.14,134.976 L155.669,137.572 C154.833,136.706 153.246,135.956 151.545,135.956 C150.218,135.956 149.353,136.533 149.353,137.312 C149.353,139.36 157.63,137.629 157.63,143.253 C157.63,145.82 155.438,147.694 151.574,147.694 C149.151,147.694 146.815,146.886 145.344,145.531" id="Fill-10" sketch:type="MSShapeGroup"></path>
            <path d="M167.008,136.072 C164.73,136.072 163.75,137.657 163.606,139.042 L170.469,139.042 C170.354,137.716 169.431,136.072 167.008,136.072 L167.008,136.072 Z M159.799,140.368 C159.799,136.331 162.798,133.073 167.008,133.073 C171.19,133.073 173.988,136.187 173.988,140.715 L173.988,141.58 L163.634,141.58 C163.894,143.281 165.278,144.695 167.643,144.695 C168.826,144.695 170.441,144.204 171.334,143.339 L172.978,145.762 C171.594,147.031 169.402,147.694 167.24,147.694 C163,147.694 159.799,144.839 159.799,140.368 L159.799,140.368 Z" id="Fill-11" sketch:type="MSShapeGroup"></path>
            <path d="M177.021,147.348 L177.021,133.418 L180.684,133.418 L180.684,135.293 C181.694,134.082 183.395,133.073 185.125,133.073 L185.125,136.649 C184.866,136.591 184.548,136.562 184.116,136.562 C182.905,136.562 181.29,137.254 180.684,138.149 L180.684,147.348 L177.021,147.348" id="Fill-12" sketch:type="MSShapeGroup"></path>
            <path d="M189.807,147.348 L189.807,131.717 L184.183,131.717 L184.183,128.113 L199.526,128.113 L199.526,131.717 L193.931,131.717 L193.931,147.348 L189.807,147.348" id="Fill-13" sketch:type="MSShapeGroup"></path>
            <path d="M206.492,136.072 C204.213,136.072 203.233,137.657 203.088,139.042 L209.953,139.042 C209.836,137.716 208.914,136.072 206.492,136.072 L206.492,136.072 Z M199.282,140.368 C199.282,136.331 202.281,133.073 206.492,133.073 C210.673,133.073 213.47,136.187 213.47,140.715 L213.47,141.58 L203.118,141.58 C203.376,143.281 204.761,144.695 207.126,144.695 C208.308,144.695 209.923,144.204 210.818,143.339 L212.461,145.762 C211.077,147.031 208.885,147.694 206.722,147.694 C202.483,147.694 199.282,144.839 199.282,140.368 L199.282,140.368 Z" id="Fill-14" sketch:type="MSShapeGroup"></path>
            <path d="M215.261,145.531 L216.847,142.878 C217.886,143.859 219.933,144.81 221.664,144.81 C223.25,144.81 224,144.204 224,143.339 C224,141.061 215.751,142.936 215.751,137.456 C215.751,135.12 217.77,133.073 221.461,133.073 C223.797,133.073 225.672,133.88 227.056,134.976 L225.585,137.572 C224.75,136.706 223.164,135.956 221.461,135.956 C220.135,135.956 219.27,136.533 219.27,137.312 C219.27,139.36 227.546,137.629 227.546,143.253 C227.546,145.82 225.355,147.694 221.491,147.694 C219.068,147.694 216.732,146.886 215.261,145.531" id="Fill-15" sketch:type="MSShapeGroup"></path>
            <path d="M231.538,143.859 L231.538,136.619 L229.231,136.619 L229.231,133.418 L231.538,133.418 L231.538,129.612 L235.201,129.612 L235.201,133.418 L238.027,133.418 L238.027,136.619 L235.201,136.619 L235.201,142.878 C235.201,143.772 235.662,144.435 236.469,144.435 C237.017,144.435 237.537,144.234 237.738,144.002 L238.517,146.8 C237.969,147.29 236.989,147.694 235.46,147.694 C232.893,147.694 231.538,146.367 231.538,143.859" id="Fill-16" sketch:type="MSShapeGroup"></path>
            <path d="M241.117,133.418 L244.78,133.418 L244.78,147.348 L241.117,147.348 L241.117,133.418 Z M240.771,129.727 C240.771,128.516 241.751,127.565 242.934,127.565 C244.145,127.565 245.125,128.516 245.125,129.727 C245.125,130.939 244.145,131.919 242.934,131.919 C241.751,131.919 240.771,130.939 240.771,129.727 L240.771,129.727 Z" id="Fill-17" sketch:type="MSShapeGroup"></path>
            <path d="M258.123,147.348 L258.123,138.927 C258.123,136.994 257.113,136.331 255.555,136.331 C254.114,136.331 253.018,137.139 252.383,137.947 L252.383,147.348 L248.72,147.348 L248.72,133.418 L252.383,133.418 L252.383,135.206 C253.277,134.168 255.007,133.073 257.257,133.073 C260.343,133.073 261.814,134.803 261.814,137.514 L261.814,147.348 L258.123,147.348" id="Fill-18" sketch:type="MSShapeGroup"></path>
            <path d="M275.391,142.416 L275.391,137.889 C274.756,136.994 273.43,136.331 272.248,136.331 C270.142,136.331 268.701,137.774 268.701,140.167 C268.701,142.561 270.142,144.002 272.248,144.002 C273.43,144.002 274.756,143.311 275.391,142.416 L275.391,142.416 Z M265.528,150.924 L267.171,148.3 C268.296,149.511 269.796,150.001 271.527,150.001 C273.286,150.001 275.391,149.251 275.391,146.425 L275.391,145.07 C274.295,146.454 272.795,147.233 271.065,147.233 C267.604,147.233 264.922,144.81 264.922,140.167 C264.922,135.611 267.546,133.073 271.065,133.073 C272.738,133.073 274.266,133.765 275.391,135.206 L275.391,133.418 L279.053,133.418 L279.053,146.425 C279.053,151.702 274.958,153 271.527,153 C269.162,153 267.288,152.452 265.528,150.924 L265.528,150.924 Z" id="Fill-19" sketch:type="MSShapeGroup"></path>
            <path d="M282.635,145.329 C282.635,144.06 283.703,142.993 284.971,142.993 C286.24,142.993 287.307,144.06 287.307,145.329 C287.307,146.598 286.24,147.665 284.971,147.665 C283.703,147.665 282.635,146.598 282.635,145.329" id="Fill-20" sketch:type="MSShapeGroup"></path>
            <path d="M289.584,140.368 C289.584,136.101 292.699,133.073 296.967,133.073 C299.823,133.073 301.552,134.313 302.475,135.581 L300.082,137.831 C299.418,136.851 298.41,136.331 297.14,136.331 C294.919,136.331 293.363,137.947 293.363,140.368 C293.363,142.791 294.919,144.435 297.14,144.435 C298.41,144.435 299.418,143.859 300.082,142.906 L302.475,145.156 C301.552,146.425 299.823,147.694 296.967,147.694 C292.699,147.694 289.584,144.666 289.584,140.368" id="Fill-21" sketch:type="MSShapeGroup"></path>
            <path d="M314.884,140.368 C314.884,138.206 313.616,136.331 311.308,136.331 C309.031,136.331 307.761,138.206 307.761,140.368 C307.761,142.561 309.031,144.435 311.308,144.435 C313.616,144.435 314.884,142.561 314.884,140.368 L314.884,140.368 Z M303.955,140.368 C303.955,136.418 306.723,133.073 311.308,133.073 C315.922,133.073 318.691,136.418 318.691,140.368 C318.691,144.32 315.922,147.694 311.308,147.694 C306.723,147.694 303.955,144.32 303.955,140.368 L303.955,140.368 Z" id="Fill-22" sketch:type="MSShapeGroup"></path>
            <path d="M339.09,147.348 L339.09,138.552 C339.09,137.254 338.513,136.331 337.013,136.331 C335.716,136.331 334.649,137.197 334.129,137.947 L334.129,147.348 L330.438,147.348 L330.438,138.552 C330.438,137.254 329.862,136.331 328.362,136.331 C327.093,136.331 326.026,137.197 325.478,137.947 L325.478,147.348 L321.815,147.348 L321.815,133.418 L325.478,133.418 L325.478,135.206 C326.083,134.399 327.901,133.073 330.035,133.073 C332.083,133.073 333.409,134.025 333.899,135.581 C334.707,134.341 336.552,133.073 338.686,133.073 C341.253,133.073 342.782,134.428 342.782,137.283 L342.782,147.348 L339.09,147.348" id="Fill-23" sketch:type="MSShapeGroup"></path>
            <path d="M152.707,78.654 C145.296,66.379 141.22,54.384 139.324,43.822 C138.89,41.409 138.569,39.07 138.349,36.821 C137.89,32.13 137.867,27.823 138.152,24.027 L138.152,24.024 C137.895,24.304 137.642,24.588 137.389,24.871 C137.347,24.918 137.304,24.965 137.263,25.012 C137.003,25.303 136.747,25.596 136.492,25.89 C136.446,25.942 136.4,25.994 136.354,26.047 C135.497,27.039 134.66,28.043 133.848,29.064 C128.357,35.971 123.943,43.558 120.691,51.619 C120.963,52.293 121.246,52.961 121.534,53.628 C124.692,60.944 128.816,67.845 133.847,74.175 C134.906,75.506 136.003,76.812 137.14,78.092 L144.167,78.62 C146.076,78.764 148.996,78.867 152.707,78.654" id="Fill-24" sketch:type="MSShapeGroup"></path>
            <path d="M163.593,83.691 C161.183,84.127 158.845,84.45 156.597,84.673 C151.921,85.136 147.625,85.166 143.833,84.889 C143.789,84.887 143.742,84.884 143.696,84.88 C145.332,86.381 147.013,87.816 148.737,89.185 C155.643,94.675 163.23,99.089 171.292,102.342 C172,102.057 172.701,101.759 173.401,101.456 C180.678,98.303 187.546,94.194 193.847,89.185 C195.199,88.11 196.525,86.995 197.824,85.84 L198.354,78.805 C198.498,76.901 198.599,73.989 198.387,70.289 C186.13,77.699 174.15,81.784 163.593,83.691" id="Fill-25" sketch:type="MSShapeGroup"></path>
            <path d="M190.039,24.613 C197.441,36.865 201.521,48.84 203.427,59.392 C203.863,61.804 204.185,64.143 204.408,66.392 C204.869,71.059 204.9,75.346 204.623,79.131 C204.619,79.179 204.617,79.228 204.613,79.276 C206.114,77.64 207.548,75.958 208.917,74.236 C214.409,67.329 218.822,59.742 222.075,51.681 C221.809,51.021 221.533,50.366 221.25,49.713 C218.09,42.383 213.959,35.466 208.918,29.125 C207.853,27.785 206.748,26.47 205.604,25.183 L198.507,24.649 C196.611,24.506 193.716,24.404 190.039,24.613" id="Fill-26" sketch:type="MSShapeGroup"></path>
            <path d="M193.939,14.084 C187.033,8.594 179.445,4.18 171.383,0.927 C170.728,1.192 170.078,1.466 169.43,1.745 C162.095,4.906 155.173,9.04 148.828,14.084 C147.51,15.132 146.217,16.218 144.951,17.342 L144.412,24.495 C144.27,26.385 144.167,29.267 144.374,32.928 C156.624,25.537 168.595,21.466 179.141,19.567 C181.554,19.133 183.893,18.81 186.142,18.589 C190.82,18.131 195.114,18.103 198.903,18.384 C198.928,18.386 198.954,18.387 198.978,18.389 C197.343,16.888 195.662,15.454 193.939,14.084" id="Fill-27" sketch:type="MSShapeGroup"></path>
        </g>
    </g>
</svg>