<?xml version="1.0" encoding="UTF-8" standalone="no"?>
<svg width="356px" height="91px" viewBox="0 0 356 91" version="1.1" xmlns="http://www.w3.org/2000/svg" xmlns:xlink="http://www.w3.org/1999/xlink" xmlns:sketch="http://www.bohemiancoding.com/sketch/ns">
    <!-- Generator: Sketch 3.2.1 (9977) - http://www.bohemiancoding.com/sketch -->
    <title>dmm-logo</title>
    <desc>Created with Sketch.</desc>
    <defs></defs>
    <g id="Page-1" stroke="none" stroke-width="1" fill="none" fill-rule="evenodd" sketch:type="MSPage">
        <g id="dmm" sketch:type="MSLayerGroup">
            <g id="Page-1" sketch:type="MSShapeGroup">
                <g id="Artboard-4">
                    <g id="dmm-logo">
                        <path d="M5.5604053,30.6122449 C5.5604053,36.7346939 5.5604053,41.7729592 5.24084178,44.4515306 C4.98519096,46.3010204 4.66562744,47.7040816 3.38737334,47.9591837 C2.812159,48.0867347 2.04520655,48.2142857 1.46999221,48.2142857 C1.08651598,48.2142857 0.958690569,48.4056122 0.958690569,48.5969388 C0.958690569,48.9795918 1.27825409,49.1071429 1.98129384,49.1071429 C2.93998441,49.1071429 4.40997662,48.9795918 5.68823071,48.9795918 C7.03039751,48.9158163 8.11691348,48.9158163 8.24473889,48.9158163 C8.56430242,48.9158163 10.7373344,49.1071429 13.5494934,49.2984694 C16.2977397,49.4897959 19.685113,49.6811224 22.4333593,49.6811224 C33.2985191,49.6811224 39.0506625,45.2168367 41.7989088,42.3469388 C45.3780203,38.5841837 48.7014809,32.3979592 48.7014809,24.3622449 C48.7014809,16.7729592 45.6975838,11.4795918 42.5019486,8.16326531 C34.8963367,0.318877551 23.2003118,0.892857143 16.872954,0.892857143 C13.0381917,0.892857143 9.01169135,1.08418367 8.24473889,1.08418367 C7.92517537,1.08418367 3.89867498,0.892857143 1.02260327,0.892857143 C0.319563523,0.892857143 0,1.02040816 0,1.40306122 C0,1.65816327 0.255650818,1.78571429 0.511301637,1.78571429 C1.08651598,1.78571429 2.17303196,1.8494898 2.68433359,1.97704082 C4.79345284,2.42346939 5.30475448,3.44387755 5.43257989,5.6122449 C5.5604053,7.65306122 5.5604053,9.43877551 5.5604053,19.3877551 L5.5604053,30.6122449 L5.5604053,30.6122449 Z M10.9290725,18.3673469 C10.9290725,13.4566327 10.9290725,6.95153061 10.9929852,4.78316327 C10.9929852,4.08163265 11.1847233,3.7627551 11.7599376,3.50765306 C12.2712393,3.25255102 14.6360094,3.06122449 15.9142634,3.06122449 C23.5198753,3.06122449 30.8059236,3.95408163 36.8137178,10.2678571 C39.4341387,13.0102041 42.9493375,18.2397959 42.9493375,26.3392857 C42.9493375,32.2066327 41.1597818,38.3290816 37.8363211,41.5816327 C34.0654716,45.3443878 28.568979,47.5127551 22.6250974,47.5127551 C15.0833983,47.5127551 12.5908028,46.1734694 11.7599376,44.9617347 C11.248636,44.2602041 11.1208106,41.7091837 11.0568979,40.1147959 C10.9929852,38.9030612 10.9290725,33.0357143 10.9290725,26.2755102 L10.9290725,18.3673469 L10.9290725,18.3673469 Z M51.8823071,24.9362245 C51.8823071,36.4158163 59.1683554,50 76.6804365,50 C92.0833983,50 102.181606,38.2015306 102.181606,23.9158163 C102.181606,9.05612245 91.4442712,0 77.0639127,0 C59.4240062,0 51.8823071,14.6045918 51.8823071,24.9362245 L51.8823071,24.9362245 L51.8823071,24.9362245 Z M57.954014,23.1505102 C57.954014,9.18367347 65.9431021,2.16836735 76.6165238,2.16836735 C86.7147311,2.16836735 96.045986,10.3954082 96.045986,25.7015306 C96.045986,44.2602041 84.1582229,47.5765306 78.4060795,47.5765306 C66.9017927,47.5765306 57.954014,38.0102041 57.954014,23.1505102 L57.954014,23.1505102 L57.954014,23.1505102 Z M151.278254,1.72193878 C151.150429,0.510204082 150.958691,0 150.511302,0 C150.063913,0 149.808262,0.446428571 149.552611,1.02040816 L130.762276,41.0714286 L111.204988,0.956632653 C110.885425,0.255102041 110.629774,0 110.246298,0 C109.862822,0 109.607171,0.446428571 109.543258,1.14795918 L104.941543,42.7295918 C104.685892,45.1530612 104.494154,47.6403061 102.385035,48.0229592 C101.426345,48.2142857 100.978956,48.2142857 100.467654,48.2142857 C100.14809,48.2142857 99.8285269,48.3418367 99.8285269,48.5331633 C99.8285269,48.9795918 100.275916,49.1071429 100.915043,49.1071429 C102.640686,49.1071429 105.708496,48.9158163 106.28371,48.9158163 C106.795012,48.9158163 109.862822,49.1071429 112.227592,49.1071429 C112.994544,49.1071429 113.37802,48.9795918 113.37802,48.5331633 C113.37802,48.3418367 113.122369,48.2142857 112.866719,48.2142857 C112.483242,48.2142857 111.524552,48.1505102 110.438036,47.8954082 C109.479345,47.7040816 108.776306,46.875 108.776306,45.9183673 C108.776306,44.8341837 108.776306,43.6862245 108.840218,42.6658163 L111.396726,13.0739796 L111.652377,13.0739796 C112.355417,14.7959184 119.51364,30.1020408 120.088854,31.25 C120.408418,31.8877551 125.90491,42.9209184 127.566641,46.0459184 C128.780982,48.3418367 129.100546,48.9795918 129.547935,48.9795918 C130.123149,48.9795918 130.314887,48.4056122 131.657054,45.5994898 L147.315666,12.4362245 L147.507405,12.4362245 L150.575214,45.5357143 C150.70304,46.6836735 150.639127,47.7678571 150.319564,47.8316327 C150,47.8954082 149.872175,48.0229592 149.872175,48.2780612 C149.872175,48.5969388 150.191738,48.7882653 151.66173,48.9158163 C154.0265,49.1071429 160.929072,49.1709184 162.335152,49.1709184 C163.102104,49.1709184 163.677319,48.9795918 163.677319,48.5969388 C163.677319,48.3418367 163.485581,48.2780612 163.166017,48.2780612 C162.52689,48.2780612 160.86516,48.2780612 159.011691,47.7040816 C156.263445,46.8112245 155.816056,43.2397959 155.560405,40.9438776 L151.278254,1.72193878 L151.278254,1.72193878 Z M174.48636,19.3877551 C174.48636,9.43877551 174.48636,7.65306122 174.614186,5.6122449 C174.742011,3.38010204 175.253313,2.29591837 176.978956,1.97704082 C177.745908,1.8494898 178.129384,1.78571429 178.576773,1.78571429 C178.832424,1.78571429 179.088075,1.65816327 179.088075,1.40306122 C179.088075,1.02040816 178.768511,0.892857143 178.065472,0.892857143 C176.14809,0.892857143 172.12159,1.08418367 171.802027,1.08418367 C171.482463,1.08418367 167.455963,0.892857143 165.346843,0.892857143 C164.643804,0.892857143 164.32424,1.02040816 164.32424,1.40306122 C164.32424,1.65816327 164.579891,1.78571429 164.835542,1.78571429 C165.282931,1.78571429 166.113796,1.8494898 166.816836,2.04081633 C168.222915,2.35969388 168.862042,3.44387755 168.989867,5.6122449 C169.117693,7.65306122 169.117693,9.43877551 169.117693,19.3877551 L169.117693,30.6122449 C169.117693,36.7346939 169.117693,41.7729592 168.798129,44.4515306 C168.542479,46.3010204 168.222915,47.7040816 166.944661,47.9591837 C166.369447,48.0867347 165.602494,48.2142857 165.02728,48.2142857 C164.643804,48.2142857 164.515978,48.4056122 164.515978,48.5969388 C164.515978,48.9795918 164.835542,49.1071429 165.538581,49.1071429 C167.455963,49.1071429 171.482463,48.9158163 171.802027,48.9158163 C172.12159,48.9158163 176.14809,49.1071429 179.663289,49.1071429 C180.366329,49.1071429 180.685892,48.9158163 180.685892,48.5969388 C180.685892,48.4056122 180.558067,48.2142857 180.174591,48.2142857 C179.599376,48.2142857 178.193297,48.0867347 177.298519,47.9591837 C175.381138,47.7040816 174.997662,46.3010204 174.805924,44.4515306 C174.48636,41.7729592 174.48636,36.7346939 174.48636,30.6122449 L174.48636,19.3877551 L174.48636,19.3877551 Z M192.134061,9.88520408 C194.179267,12.1811224 201.401403,20.2168367 208.815277,28.1887755 C215.590023,35.4591837 224.793453,44.8341837 225.496493,45.4719388 C228.883866,48.8520408 229.650818,49.5535714 230.16212,49.5535714 C230.609509,49.5535714 230.737334,49.2346939 230.737334,45.0255102 L230.86516,7.65306122 C230.86516,3.82653061 231.120811,2.42346939 233.22993,1.97704082 C233.996882,1.78571429 234.444271,1.78571429 234.763835,1.78571429 C235.211224,1.78571429 235.466875,1.59438776 235.466875,1.33928571 C235.466875,0.956632653 235.019486,0.892857143 234.316446,0.892857143 C231.696025,0.892857143 229.586906,1.08418367 228.883866,1.08418367 C228.180826,1.08418367 225.113016,0.892857143 222.236945,0.892857143 C221.469992,0.892857143 220.958691,0.956632653 220.958691,1.33928571 C220.958691,1.59438776 221.022603,1.78571429 221.469992,1.78571429 C221.981294,1.78571429 223.451286,1.8494898 224.601715,2.10459184 C226.583009,2.61479592 227.030398,4.01785714 227.09431,8.16326531 L227.79735,40.5612245 C225.752143,38.4566327 218.785659,30.6760204 212.458301,23.9158163 C202.615744,13.3928571 193.092751,3.125 192.134061,2.04081633 C191.494934,1.40306122 190.408418,0 189.897116,0 C189.385814,0 189.194076,0.701530612 189.194076,3.18877551 L189.130164,39.7321429 C189.130164,45.5357143 188.8106,47.3852041 187.212783,47.8316327 C186.254092,48.1505102 185.103663,48.2142857 184.592362,48.2142857 C184.272798,48.2142857 184.08106,48.3418367 184.08106,48.5969388 C184.08106,49.0433673 184.464536,49.1071429 185.103663,49.1071429 C187.979735,49.1071429 190.664069,48.9158163 191.239283,48.9158163 C191.814497,48.9158163 194.371005,49.1071429 198.01403,49.1071429 C198.780982,49.1071429 199.164458,48.9795918 199.164458,48.5969388 C199.164458,48.3418367 198.97272,48.2142857 198.653157,48.2142857 C198.077942,48.2142857 196.671863,48.1505102 195.457521,47.8316327 C193.731878,47.3214286 193.092751,45.6632653 192.964926,40.4336735 L192.134061,9.88520408 L192.134061,9.88520408 Z M249.133281,19.3877551 C249.133281,9.43877551 249.133281,7.65306122 249.261107,5.6122449 C249.388932,3.38010204 249.900234,2.29591837 251.625877,1.97704082 C252.392829,1.8494898 252.776306,1.78571429 253.223694,1.78571429 C253.479345,1.78571429 253.734996,1.65816327 253.734996,1.40306122 C253.734996,1.02040816 253.415433,0.892857143 252.712393,0.892857143 C250.795012,0.892857143 246.768511,1.08418367 246.448948,1.08418367 C246.129384,1.08418367 242.102884,0.892857143 239.993765,0.892857143 C239.290725,0.892857143 238.971161,1.02040816 238.971161,1.40306122 C238.971161,1.65816327 239.226812,1.78571429 239.482463,1.78571429 C239.929852,1.78571429 240.760717,1.8494898 241.463757,2.04081633 C242.869836,2.35969388 243.508963,3.44387755 243.636789,5.6122449 C243.764614,7.65306122 243.764614,9.43877551 243.764614,19.3877551 L243.764614,30.6122449 C243.764614,36.7346939 243.764614,41.7729592 243.445051,44.4515306 C243.1894,46.3010204 242.869836,47.7040816 241.591582,47.9591837 C241.016368,48.0867347 240.249415,48.2142857 239.674201,48.2142857 C239.290725,48.2142857 239.162899,48.4056122 239.162899,48.5969388 C239.162899,48.9795918 239.482463,49.1071429 240.185503,49.1071429 C242.102884,49.1071429 246.129384,48.9158163 246.448948,48.9158163 C246.768511,48.9158163 250.795012,49.1071429 254.31021,49.1071429 C255.01325,49.1071429 255.332814,48.9158163 255.332814,48.5969388 C255.332814,48.4056122 255.204988,48.2142857 254.821512,48.2142857 C254.246298,48.2142857 252.840218,48.0867347 251.94544,47.9591837 C250.028059,47.7040816 249.644583,46.3010204 249.452845,44.4515306 C249.133281,41.7729592 249.133281,36.7346939 249.133281,30.6122449 L249.133281,19.3877551 L249.133281,19.3877551 Z M255.002338,24.9362245 C255.002338,36.4158163 262.288387,50 279.800468,50 C295.203429,50 305.301637,38.2015306 305.301637,23.9158163 C305.301637,9.05612245 294.564302,0 280.183944,0 C262.544037,0 255.002338,14.6045918 255.002338,24.9362245 L255.002338,24.9362245 L255.002338,24.9362245 Z M261.074045,23.1505102 C261.074045,9.18367347 269.063133,2.16836735 279.736555,2.16836735 C289.834762,2.16836735 299.166017,10.3954082 299.166017,25.7015306 C299.166017,44.2602041 287.278254,47.5765306 281.526111,47.5765306 C270.021824,47.5765306 261.074045,38.0102041 261.074045,23.1505102 L261.074045,23.1505102 L261.074045,23.1505102 Z M311.745908,9.88520408 C313.791115,12.1811224 321.01325,20.2168367 328.427124,28.1887755 C335.201871,35.4591837 344.4053,44.8341837 345.10834,45.4719388 C348.495713,48.8520408 349.262666,49.5535714 349.773967,49.5535714 C350.221356,49.5535714 350.349182,49.2346939 350.349182,45.0255102 L350.477007,7.65306122 C350.477007,3.82653061 350.732658,2.42346939 352.841777,1.97704082 C353.60873,1.78571429 354.056118,1.78571429 354.375682,1.78571429 C354.823071,1.78571429 355.078722,1.59438776 355.078722,1.33928571 C355.078722,0.956632653 354.631333,0.892857143 353.928293,0.892857143 C351.307872,0.892857143 349.198753,1.08418367 348.495713,1.08418367 C347.792673,1.08418367 344.724864,0.892857143 341.848792,0.892857143 C341.081839,0.892857143 340.570538,0.956632653 340.570538,1.33928571 C340.570538,1.59438776 340.634451,1.78571429 341.081839,1.78571429 C341.593141,1.78571429 343.063133,1.8494898 344.213562,2.10459184 C346.194856,2.61479592 346.642245,4.01785714 346.706157,8.16326531 L347.409197,40.5612245 C345.363991,38.4566327 338.397506,30.6760204 332.070148,23.9158163 C322.227592,13.3928571 312.704599,3.125 311.745908,2.04081633 C311.106781,1.40306122 310.020265,0 309.508963,0 C308.997662,0 308.805924,0.701530612 308.805924,3.18877551 L308.742011,39.7321429 C308.742011,45.5357143 308.422447,47.3852041 306.82463,47.8316327 C305.865939,48.1505102 304.715511,48.2142857 304.204209,48.2142857 C303.884645,48.2142857 303.692907,48.3418367 303.692907,48.5969388 C303.692907,49.0433673 304.076383,49.1071429 304.715511,49.1071429 C307.591582,49.1071429 310.275916,48.9158163 310.85113,48.9158163 C311.426345,48.9158163 313.982853,49.1071429 317.625877,49.1071429 C318.392829,49.1071429 318.776306,48.9795918 318.776306,48.5969388 C318.776306,48.3418367 318.584567,48.2142857 318.265004,48.2142857 C317.68979,48.2142857 316.28371,48.1505102 315.069369,47.8316327 C313.343726,47.3214286 312.704599,45.6632653 312.576773,40.4336735 L311.745908,9.88520408 L311.745908,9.88520408 Z" id="DOMINION" fill="#FFFFFF"></path>
                        <path d="M1.5,59 L354.501404,59" id="Line" stroke="#FFFFFF" stroke-width="2"></path>
                        <path d="M1.02295833,88.9992222 C0.931125,89.4277778 1.11479167,89.7338889 1.57395833,89.7338889 L2.79840278,89.7338889 C3.04329167,89.7338889 3.31879167,89.5196111 3.34940278,89.3053333 L6.01256944,73.5406111 L6.13501389,73.5406111 L11.8286806,89.7032778 C11.8899028,89.8869444 12.1654028,90.04 12.3490694,90.04 L12.9000694,90.04 C13.0837361,90.04 13.3592361,89.8869444 13.4204583,89.7032778 L19.0529028,73.5406111 L19.1753472,73.5406111 L21.8997361,89.3053333 C21.9609583,89.5196111 22.2058472,89.7338889 22.4507361,89.7338889 L23.6751806,89.7338889 C24.1343472,89.7338889 24.3180139,89.4277778 24.2261806,88.9992222 L20.2773472,68.4285556 C20.216125,68.1836667 19.9712361,68 19.7263472,68 L19.2365694,68 C19.0222917,68 18.7774028,68.1530556 18.7161806,68.3367222 L12.7470139,85.2034444 L12.5939583,85.2034444 L6.53295833,68.3367222 C6.47173611,68.1530556 6.22684722,68 6.01256944,68 L5.52279167,68 C5.27790278,68 5.03301389,68.1836667 4.97179167,68.4285556 L1.02295833,88.9992222 L1.02295833,88.9992222 Z M39.5220139,89.7338889 L40.7464583,89.7338889 C41.0219583,89.7338889 41.205625,89.5502222 41.2668472,89.3971667 L43.5014583,84.3463333 L54.3684028,84.3463333 L56.633625,89.3971667 C56.6948472,89.5502222 56.8785139,89.7338889 57.1540139,89.7338889 L58.3784583,89.7338889 C58.837625,89.7338889 59.0825139,89.3359444 58.8988472,88.938 L49.6542917,68.3367222 C49.5624583,68.1530556 49.4094028,68 49.1339028,68 L48.8277917,68 C48.5522917,68 48.3992361,68.1530556 48.3074028,68.3367222 L39.001625,88.938 C38.8179583,89.3359444 39.0628472,89.7338889 39.5220139,89.7338889 L39.5220139,89.7338889 L39.5220139,89.7338889 Z M44.3585694,82.4484444 L48.8277917,72.408 L49.0726806,72.408 C50.572625,75.7446111 52.0419583,79.1118333 53.5419028,82.4484444 L44.3585694,82.4484444 L44.3585694,82.4484444 Z M73.2354583,89.1522778 C73.2354583,89.4583889 73.4803472,89.7338889 73.8170694,89.7338889 L75.0109028,89.7338889 C75.3170139,89.7338889 75.5925139,89.4583889 75.5925139,89.1522778 L75.5925139,81.3464444 L81.4392361,81.3464444 L85.5105139,89.4583889 C85.5717361,89.5808333 85.7247917,89.7338889 86.0002917,89.7338889 L87.5614583,89.7338889 C88.0818472,89.7338889 88.296125,89.2441111 88.0818472,88.8461667 L83.888125,81.0709444 C86.5512917,79.9995556 88.4185694,77.6425 88.4185694,74.8262778 C88.4185694,71.1835556 85.4186806,68.3061111 81.7453472,68.3061111 L73.8170694,68.3061111 C73.4803472,68.3061111 73.2354583,68.5816111 73.2354583,68.8877222 L73.2354583,89.1522778 L73.2354583,89.1522778 Z M75.6537361,79.3261111 L75.6537361,70.5407222 L81.5922917,70.5407222 C83.9493472,70.5407222 86.0002917,72.5304444 86.0002917,74.8568889 C86.0002917,77.367 83.9493472,79.3261111 81.5922917,79.3261111 L75.6537361,79.3261111 L75.6537361,79.3261111 Z M104.469403,89.1522778 C104.469403,89.4583889 104.744903,89.7338889 105.051014,89.7338889 L106.275458,89.7338889 C106.581569,89.7338889 106.857069,89.4583889 106.857069,89.1522778 L106.857069,68.8877222 C106.857069,68.5816111 106.581569,68.3061111 106.275458,68.3061111 L105.051014,68.3061111 C104.744903,68.3061111 104.469403,68.5816111 104.469403,68.8877222 L104.469403,89.1522778 L104.469403,89.1522778 Z M123.101736,89.1522778 C123.101736,89.4583889 123.377236,89.7338889 123.683347,89.7338889 L124.754736,89.7338889 C125.091458,89.7338889 125.336347,89.4583889 125.336347,89.1522778 L125.336347,72.4998333 L125.366958,72.4998333 L139.417458,90.04 L139.968458,90.04 C140.274569,90.04 140.550069,89.7951111 140.550069,89.489 L140.550069,68.8877222 C140.550069,68.5816111 140.274569,68.3061111 139.968458,68.3061111 L138.897069,68.3061111 C138.560347,68.3061111 138.315458,68.5816111 138.315458,68.8877222 L138.315458,85.2034444 L138.254236,85.2034444 L124.448625,68 L123.683347,68 C123.377236,68 123.101736,68.2448889 123.101736,68.551 L123.101736,89.1522778 L123.101736,89.1522778 Z M156.794736,89.1522778 C156.794736,89.4583889 157.039625,89.7338889 157.376347,89.7338889 L169.437125,89.7338889 C169.773847,89.7338889 170.018736,89.4583889 170.018736,89.1522778 L170.018736,88.2645556 C170.018736,87.9584444 169.773847,87.6829444 169.437125,87.6829444 L159.151792,87.6829444 L159.151792,79.8771111 L167.937181,79.8771111 C168.243292,79.8771111 168.518792,79.6322222 168.518792,79.2955 L168.518792,78.4077778 C168.518792,78.1016667 168.243292,77.8261667 167.937181,77.8261667 L159.151792,77.8261667 L159.151792,70.3570556 L169.437125,70.3570556 C169.773847,70.3570556 170.018736,70.0815556 170.018736,69.7754444 L170.018736,68.8877222 C170.018736,68.5816111 169.773847,68.3061111 169.437125,68.3061111 L157.376347,68.3061111 C157.039625,68.3061111 156.794736,68.5816111 156.794736,68.8877222 L156.794736,89.1522778 L156.794736,89.1522778 Z M216.181625,88.9992222 C216.089792,89.4277778 216.273458,89.7338889 216.732625,89.7338889 L217.957069,89.7338889 C218.201958,89.7338889 218.477458,89.5196111 218.508069,89.3053333 L221.171236,73.5406111 L221.293681,73.5406111 L226.987347,89.7032778 C227.048569,89.8869444 227.324069,90.04 227.507736,90.04 L228.058736,90.04 C228.242403,90.04 228.517903,89.8869444 228.579125,89.7032778 L234.211569,73.5406111 L234.334014,73.5406111 L237.058403,89.3053333 C237.119625,89.5196111 237.364514,89.7338889 237.609403,89.7338889 L238.833847,89.7338889 C239.293014,89.7338889 239.476681,89.4277778 239.384847,88.9992222 L235.436014,68.4285556 C235.374792,68.1836667 235.129903,68 234.885014,68 L234.395236,68 C234.180958,68 233.936069,68.1530556 233.874847,68.3367222 L227.905681,85.2034444 L227.752625,85.2034444 L221.691625,68.3367222 C221.630403,68.1530556 221.385514,68 221.171236,68 L220.681458,68 C220.436569,68 220.191681,68.1836667 220.130458,68.4285556 L216.181625,88.9992222 L216.181625,88.9992222 Z M254.098958,89.1522778 C254.098958,89.4583889 254.343847,89.7338889 254.680569,89.7338889 L266.741347,89.7338889 C267.078069,89.7338889 267.322958,89.4583889 267.322958,89.1522778 L267.322958,88.2645556 C267.322958,87.9584444 267.078069,87.6829444 266.741347,87.6829444 L256.456014,87.6829444 L256.456014,79.8771111 L265.241403,79.8771111 C265.547514,79.8771111 265.823014,79.6322222 265.823014,79.2955 L265.823014,78.4077778 C265.823014,78.1016667 265.547514,77.8261667 265.241403,77.8261667 L256.456014,77.8261667 L256.456014,70.3570556 L266.741347,70.3570556 C267.078069,70.3570556 267.322958,70.0815556 267.322958,69.7754444 L267.322958,68.8877222 C267.322958,68.5816111 267.078069,68.3061111 266.741347,68.3061111 L254.680569,68.3061111 C254.343847,68.3061111 254.098958,68.5816111 254.098958,68.8877222 L254.098958,89.1522778 L254.098958,89.1522778 Z M284.220736,89.1522778 C284.220736,89.4583889 284.465625,89.7338889 284.771736,89.7338889 L291.628625,89.7338889 C297.536569,89.7338889 302.373125,84.9279444 302.373125,78.9893889 C302.373125,73.1120556 297.536569,68.3061111 291.628625,68.3061111 L284.771736,68.3061111 C284.465625,68.3061111 284.220736,68.5816111 284.220736,68.8877222 L284.220736,89.1522778 L284.220736,89.1522778 Z M286.547181,87.6217222 L286.547181,70.3876667 L291.138847,70.3876667 C296.159069,70.3876667 299.801792,73.9691667 299.801792,78.9893889 C299.801792,84.0402222 296.159069,87.6217222 291.138847,87.6217222 L286.547181,87.6217222 L286.547181,87.6217222 Z M318.087236,89.1522778 C318.087236,89.4583889 318.362736,89.7338889 318.668847,89.7338889 L319.893292,89.7338889 C320.199403,89.7338889 320.474903,89.4583889 320.474903,89.1522778 L320.474903,68.8877222 C320.474903,68.5816111 320.199403,68.3061111 319.893292,68.3061111 L318.668847,68.3061111 C318.362736,68.3061111 318.087236,68.5816111 318.087236,68.8877222 L318.087236,89.1522778 L318.087236,89.1522778 Z M335.301292,89.7338889 L336.525736,89.7338889 C336.801236,89.7338889 336.984903,89.5502222 337.046125,89.3971667 L339.280736,84.3463333 L350.147681,84.3463333 L352.412903,89.3971667 C352.474125,89.5502222 352.657792,89.7338889 352.933292,89.7338889 L354.157736,89.7338889 C354.616903,89.7338889 354.861792,89.3359444 354.678125,88.938 L345.433569,68.3367222 C345.341736,68.1530556 345.188681,68 344.913181,68 L344.607069,68 C344.331569,68 344.178514,68.1530556 344.086681,68.3367222 L334.780903,88.938 C334.597236,89.3359444 334.842125,89.7338889 335.301292,89.7338889 L335.301292,89.7338889 L335.301292,89.7338889 Z M340.137847,82.4484444 L344.607069,72.408 L344.851958,72.408 C346.351903,75.7446111 347.821236,79.1118333 349.321181,82.4484444 L340.137847,82.4484444 L340.137847,82.4484444 Z" id="MARINE-MEDIA" fill="#FFFFFF"></path>
                    </g>
                </g>
            </g>
        </g>
    </g>
</svg>