<?xml version="1.0" encoding="UTF-8" standalone="no"?>
<svg width="48px" height="47px" viewBox="0 0 48 47" version="1.1" xmlns="http://www.w3.org/2000/svg" xmlns:xlink="http://www.w3.org/1999/xlink" xmlns:sketch="http://www.bohemiancoding.com/sketch/ns">
    <!-- Generator: Sketch 3.2.1 (9977) - http://www.bohemiancoding.com/sketch -->
    <title>oca</title>
    <desc>Created with Sketch.</desc>
    <defs></defs>
    <g id="Page-1" stroke="none" stroke-width="1" fill="none" fill-rule="evenodd" sketch:type="MSPage">
        <g id="oca" sketch:type="MSLayerGroup" fill="#FFFFFF">
            <path d="M8.671,6.269 C9.075,6.263 9.318,6.128 9.507,5.723 C9.692,5.315 9.782,4.626 9.782,3.577 C9.765,1.777 9.456,1.313 8.671,1.307 L8.512,1.307 L8.512,6.269 L8.671,6.269 L8.671,6.269 Z M9.978,13.239 C9.777,13.008 9.694,12.701 9.694,12.385 L9.694,8.605 C9.691,7.87 9.25,7.356 8.707,7.355 L8.512,7.355 L8.512,12.244 C8.512,12.446 8.544,12.566 8.638,12.662 L9.179,13.189 C9.185,13.221 9.295,13.247 9.32,13.404 C9.32,13.5 9.241,13.613 9.111,13.613 L6.352,13.613 C6.222,13.613 6.142,13.5 6.142,13.404 C6.167,13.247 6.278,13.221 6.297,13.172 L6.823,12.663 C6.919,12.566 6.95,12.447 6.951,12.244 L6.951,1.591 C6.95,1.388 6.919,1.268 6.824,1.172 L6.283,0.646 C6.278,0.614 6.167,0.587 6.142,0.43 C6.142,0.334 6.222,0.222 6.352,0.222 L8.549,0.222 C9.479,0.22 10.21,0.469 10.7,1.026 C11.19,1.581 11.429,2.421 11.429,3.577 C11.433,5.409 10.823,6.266 10.22,6.7 C10.786,7.062 11.254,7.748 11.254,8.675 L11.254,12.35 C11.253,12.431 11.302,12.514 11.384,12.595 L11.945,13.191 C12.011,13.268 12.101,13.319 12.115,13.457 C12.114,13.557 12.018,13.602 11.977,13.605 C11.928,13.614 11.88,13.613 11.836,13.613 L10.917,13.613 C10.493,13.613 10.178,13.47 9.978,13.239 L9.978,13.239 Z" id="Fill-1" sketch:type="MSShapeGroup"></path>
            <path d="M16.134,13.613 L13.409,13.613 C13.346,13.614 13.279,13.59 13.242,13.54 C13.205,13.491 13.201,13.441 13.2,13.404 C13.217,13.26 13.313,13.225 13.355,13.172 L13.881,12.663 C13.972,12.572 13.991,12.453 13.991,12.244 L13.991,1.272 L13.507,1.272 C13.473,1.27 13.447,1.294 13.413,1.388 L12.563,4.885 C12.54,5 12.427,5.075 12.323,5.069 C12.274,5.072 12.203,5.052 12.166,4.995 C12.132,4.94 12.132,4.893 12.131,4.843 L12.131,0.395 C12.134,0.288 12.225,0.222 12.323,0.222 L17.347,0.222 C17.444,0.222 17.409,0.289 17.412,0.395 L17.412,4.843 C17.411,4.893 17.411,4.94 17.377,4.995 C17.34,5.052 17.269,5.072 17.221,5.069 C17.117,5.075 17.003,5 16.98,4.886 L16.132,1.394 C16.096,1.294 16.07,1.27 16.036,1.272 L15.552,1.272 L15.552,12.244 C15.553,12.453 15.571,12.572 15.661,12.662 L16.189,13.173 C16.23,13.225 16.326,13.26 16.343,13.404 C16.342,13.441 16.339,13.491 16.302,13.54 C16.264,13.589 16.2,13.613 16.139,13.613 L16.134,13.613" id="Fill-2" sketch:type="MSShapeGroup"></path>
            <path d="M23.76,0.413 L23.76,0.412 L23.76,0.413 Z M21.114,13.613 C20.983,13.613 20.905,13.5 20.905,13.404 C20.93,13.247 21.041,13.221 21.05,13.181 L21.467,12.663 C21.562,12.566 21.593,12.446 21.594,12.245 L21.594,7.372 L20.008,7.372 L20.008,12.245 C20.008,12.446 20.04,12.566 20.144,12.671 L20.557,13.189 C20.562,13.221 20.673,13.247 20.698,13.404 C20.698,13.5 20.619,13.613 20.489,13.613 L17.848,13.613 C17.718,13.613 17.639,13.5 17.639,13.404 C17.663,13.247 17.775,13.221 17.794,13.172 L18.32,12.663 C18.415,12.566 18.446,12.446 18.447,12.245 L18.447,1.591 C18.446,1.388 18.415,1.268 18.321,1.173 L17.78,0.646 C17.775,0.613 17.663,0.587 17.639,0.43 C17.639,0.334 17.718,0.222 17.848,0.221 L20.489,0.221 C20.619,0.222 20.698,0.334 20.698,0.43 C20.673,0.587 20.561,0.613 20.552,0.653 L20.136,1.171 C20.04,1.268 20.008,1.388 20.008,1.591 L20.008,6.233 L21.594,6.233 L21.594,1.591 C21.593,1.388 21.562,1.268 21.459,1.163 L21.046,0.646 C21.041,0.613 20.929,0.587 20.905,0.43 C20.905,0.334 20.984,0.222 21.114,0.221 L23.755,0.221 C23.884,0.222 23.963,0.334 23.963,0.43 C23.939,0.587 23.828,0.613 23.809,0.663 L23.283,1.171 C23.187,1.268 23.156,1.388 23.154,1.591 L23.154,12.245 C23.156,12.446 23.187,12.566 23.282,12.661 L23.823,13.189 C23.828,13.221 23.939,13.247 23.963,13.404 C23.963,13.5 23.884,13.613 23.755,13.613 L21.114,13.613 L21.114,13.613 Z" id="Fill-3" sketch:type="MSShapeGroup"></path>
            <path d="M32.339,12.528 C32.638,12.519 32.911,12.418 33.165,11.595 C33.408,10.775 33.573,9.268 33.572,6.583 C33.573,4.233 33.408,2.894 33.166,2.159 C32.914,1.422 32.64,1.315 32.339,1.307 L32.126,1.307 L32.126,12.528 L32.339,12.528 L32.339,12.528 Z M32.287,13.613 L29.966,13.613 C29.837,13.613 29.758,13.5 29.757,13.404 C29.791,13.237 29.893,13.236 29.891,13.2 L29.899,13.184 L30.438,12.663 C30.534,12.566 30.564,12.446 30.566,12.244 L30.566,1.591 C30.564,1.388 30.534,1.268 30.439,1.172 L29.897,0.646 C29.893,0.613 29.782,0.587 29.757,0.43 C29.758,0.334 29.837,0.222 29.966,0.221 L32.287,0.221 C33.209,0.217 33.967,0.68 34.46,1.701 C34.957,2.722 35.22,4.299 35.22,6.583 C35.219,9.455 34.959,11.196 34.461,12.24 C33.97,13.278 33.21,13.614 32.311,13.614 C32.303,13.614 32.295,13.613 32.287,13.613 L32.287,13.613 Z" id="Fill-4" sketch:type="MSShapeGroup"></path>
            <path d="M39.242,11.362 C39.403,10.42 39.5,8.892 39.5,6.579 C39.5,4.605 39.403,3.246 39.243,2.388 C39.087,1.52 38.837,1.205 38.689,1.23 C38.552,1.206 38.303,1.52 38.151,2.388 C37.993,3.246 37.896,4.605 37.896,6.579 C37.896,8.892 37.993,10.42 38.152,11.363 C38.303,12.317 38.554,12.625 38.689,12.604 C38.835,12.628 39.087,12.317 39.242,11.362 M36.628,11.367 C36.303,10.011 36.248,8.248 36.248,6.561 C36.248,5.275 36.303,3.688 36.629,2.411 C36.948,1.142 37.557,0.136 38.689,0.133 C39.828,0.136 40.442,1.141 40.765,2.411 C41.092,3.688 41.148,5.275 41.148,6.561 C41.148,8.248 41.092,10.011 40.766,11.367 C40.444,12.714 39.828,13.699 38.689,13.701 C37.559,13.699 36.947,12.713 36.628,11.367" id="Fill-5" sketch:type="MSShapeGroup"></path>
            <path d="M27.439,11.362 C27.601,10.42 27.698,8.892 27.698,6.579 C27.698,4.605 27.601,3.246 27.44,2.388 C27.285,1.52 27.035,1.205 26.886,1.23 C26.749,1.206 26.501,1.52 26.349,2.388 C26.191,3.246 26.094,4.605 26.094,6.579 C26.094,8.892 26.191,10.42 26.349,11.363 C26.501,12.317 26.751,12.625 26.886,12.604 C27.033,12.628 27.285,12.317 27.439,11.362 M24.826,11.367 C24.501,10.011 24.446,8.248 24.445,6.561 C24.446,5.275 24.501,3.688 24.827,2.411 C25.146,1.142 25.755,0.136 26.886,0.133 C28.026,0.136 28.64,1.141 28.963,2.411 C29.29,3.688 29.346,5.275 29.346,6.561 C29.346,8.248 29.29,10.011 28.963,11.367 C28.642,12.714 28.026,13.699 26.886,13.701 C25.756,13.699 25.145,12.713 24.826,11.367" id="Fill-6" sketch:type="MSShapeGroup"></path>
            <path d="M3.728,11.362 C3.888,10.42 3.986,8.892 3.986,6.579 C3.986,4.605 3.888,3.246 3.728,2.388 C3.573,1.52 3.323,1.205 3.175,1.23 C3.038,1.206 2.788,1.52 2.637,2.388 C2.478,3.246 2.381,4.605 2.381,6.579 C2.381,8.892 2.478,10.42 2.637,11.363 C2.789,12.317 3.039,12.625 3.175,12.604 C3.321,12.628 3.573,12.317 3.728,11.362 M1.114,11.367 C0.79,10.011 0.734,8.248 0.734,6.561 C0.734,5.275 0.79,3.688 1.114,2.411 C1.435,1.142 2.043,0.136 3.175,0.133 C4.314,0.136 4.928,1.141 5.251,2.411 C5.578,3.688 5.633,5.275 5.634,6.561 C5.633,8.248 5.578,10.011 5.251,11.367 C4.929,12.714 4.313,13.699 3.175,13.701 C2.044,13.699 1.433,12.713 1.114,11.367" id="Fill-7" sketch:type="MSShapeGroup"></path>
            <path d="M41.713,1.616 C41.683,1.496 41.6,1.345 41.527,1.258 L40.939,0.65 C40.895,0.587 40.817,0.523 40.813,0.395 C40.808,0.331 40.861,0.263 40.91,0.246 C40.959,0.225 41.006,0.222 41.057,0.221 L43.716,0.221 C43.787,0.222 43.934,0.245 43.942,0.395 C43.943,0.503 43.884,0.586 43.827,0.64 L43.393,1.123 C43.281,1.218 43.224,1.317 43.226,1.386 C43.226,1.4 43.228,1.411 43.231,1.424 L44.032,4.419 L44.929,1.425 C44.933,1.412 44.933,1.4 44.933,1.388 C44.936,1.319 44.879,1.222 44.745,1.117 L44.296,0.653 C44.213,0.595 44.147,0.504 44.149,0.395 C44.189,0.205 44.337,0.233 44.41,0.221 L46.84,0.221 C46.912,0.225 47.06,0.222 47.085,0.395 C47.081,0.518 47.008,0.6 46.949,0.661 L46.351,1.259 C46.289,1.318 46.215,1.487 46.184,1.62 L44.663,6.707 L46.097,12.023 C46.144,12.198 46.244,12.366 46.319,12.456 L46.914,13.102 C47.004,13.202 47.108,13.293 47.12,13.439 C47.096,13.611 46.947,13.61 46.876,13.613 L44.182,13.613 C44.084,13.613 43.959,13.556 43.956,13.422 C43.963,13.284 44.054,13.199 44.133,13.114 L44.562,12.531 C44.591,12.497 44.61,12.436 44.61,12.37 C44.61,12.337 44.605,12.303 44.596,12.271 L43.833,9.428 L43.072,12.221 C43.054,12.279 43.046,12.33 43.046,12.373 C43.047,12.445 43.066,12.489 43.106,12.531 L43.561,13.102 C43.649,13.199 43.741,13.284 43.748,13.422 C43.744,13.556 43.619,13.613 43.522,13.613 L41.022,13.613 C40.971,13.613 40.924,13.61 40.875,13.589 C40.825,13.571 40.773,13.502 40.777,13.439 C40.785,13.306 40.869,13.207 40.965,13.086 L41.541,12.493 C41.638,12.381 41.754,12.195 41.801,12.022 L43.217,7.145 L41.713,1.617" id="Fill-8" sketch:type="MSShapeGroup"></path>
            <path d="M9.336,29.058 C9.206,29.057 9.127,28.944 9.126,28.849 C9.152,28.691 9.262,28.665 9.272,28.626 L9.688,28.108 C9.784,28.011 9.815,27.891 9.817,27.689 L9.817,22.816 L8.23,22.816 L8.23,27.689 C8.231,27.891 8.262,28.011 8.365,28.116 L8.779,28.633 C8.784,28.665 8.895,28.691 8.92,28.849 C8.92,28.944 8.84,29.057 8.711,29.058 L6.07,29.058 C5.94,29.057 5.861,28.944 5.861,28.849 C5.885,28.691 5.997,28.665 6.015,28.616 L6.542,28.108 C6.637,28.011 6.668,27.891 6.669,27.689 L6.669,17.035 C6.668,16.832 6.637,16.712 6.542,16.617 L6.002,16.091 C5.997,16.058 5.885,16.031 5.861,15.875 C5.861,15.779 5.94,15.666 6.07,15.666 L8.711,15.666 C8.84,15.666 8.92,15.779 8.92,15.875 C8.895,16.031 8.783,16.058 8.774,16.097 L8.358,16.616 C8.262,16.712 8.231,16.832 8.23,17.035 L8.23,21.678 L9.817,21.678 L9.817,17.035 C9.815,16.832 9.784,16.712 9.681,16.607 L9.267,16.091 C9.262,16.058 9.152,16.031 9.126,15.875 C9.127,15.779 9.206,15.666 9.336,15.666 L11.977,15.666 C12.106,15.666 12.186,15.779 12.186,15.875 C12.161,16.031 12.049,16.058 12.031,16.107 L11.505,16.616 C11.409,16.712 11.378,16.832 11.377,17.035 L11.377,27.689 C11.378,27.891 11.409,28.011 11.503,28.106 L12.045,28.633 C12.05,28.665 12.161,28.691 12.186,28.849 C12.186,28.944 12.106,29.057 11.977,29.058 L9.336,29.058" id="Fill-9" sketch:type="MSShapeGroup"></path>
            <path d="M13.875,28.488 C13.498,28.129 13.308,27.623 13.309,27.055 L13.309,17.035 C13.31,16.834 13.271,16.685 13.201,16.618 L12.654,16.106 C12.595,16.046 12.538,15.976 12.535,15.875 C12.535,15.779 12.615,15.666 12.744,15.666 L15.315,15.666 C15.444,15.666 15.524,15.779 15.524,15.875 C15.522,15.976 15.465,16.046 15.412,16.099 L14.986,16.609 C14.92,16.686 14.869,16.841 14.869,17.035 L14.869,26.598 C14.869,26.982 14.889,27.341 14.999,27.585 C15.111,27.826 15.279,27.966 15.662,27.971 C15.947,27.968 16.106,27.833 16.226,27.584 C16.34,27.335 16.386,26.977 16.386,26.598 L16.386,17.035 C16.387,16.834 16.348,16.685 16.269,16.609 L15.849,16.106 C15.79,16.046 15.733,15.976 15.73,15.875 C15.731,15.779 15.811,15.666 15.94,15.666 L18.229,15.666 C18.359,15.666 18.438,15.779 18.438,15.875 C18.436,15.976 18.379,16.046 18.318,16.108 L17.781,16.609 C17.716,16.686 17.663,16.841 17.665,17.035 L17.665,27.055 C17.662,28.203 16.764,29.056 15.522,29.058 C14.808,29.058 14.252,28.849 13.875,28.488" id="Fill-10" sketch:type="MSShapeGroup"></path>
            <path d="M21.318,21.713 C21.721,21.707 21.965,21.573 22.153,21.168 C22.338,20.76 22.428,20.07 22.428,19.022 C22.411,17.221 22.101,16.757 21.318,16.752 L21.157,16.751 L21.157,21.713 L21.318,21.713 L21.318,21.713 Z M24.587,28.846 L24.587,28.845 L24.587,28.846 L24.587,28.846 Z M22.624,28.684 C22.423,28.453 22.34,28.145 22.34,27.829 L22.34,24.05 C22.337,23.315 21.896,22.8 21.353,22.799 L21.157,22.799 L21.157,27.689 C21.158,27.891 21.189,28.011 21.293,28.116 L21.707,28.633 C21.711,28.666 21.822,28.691 21.847,28.849 C21.847,28.944 21.768,29.057 21.638,29.058 L18.998,29.058 C18.868,29.057 18.788,28.944 18.788,28.849 C18.813,28.691 18.924,28.666 18.943,28.616 L19.469,28.107 C19.565,28.011 19.596,27.891 19.596,27.689 L19.596,17.035 C19.596,16.832 19.565,16.712 19.47,16.617 L18.929,16.091 C18.924,16.058 18.813,16.031 18.788,15.875 C18.788,15.779 18.868,15.666 18.998,15.666 L21.195,15.666 C22.125,15.665 22.857,15.914 23.347,16.47 C23.837,17.025 24.076,17.866 24.076,19.022 C24.079,20.853 23.469,21.71 22.866,22.145 C23.432,22.507 23.9,23.192 23.9,24.12 L23.9,27.794 C23.898,27.875 23.948,27.958 24.03,28.04 L24.591,28.635 C24.658,28.713 24.747,28.764 24.761,28.902 C24.761,29.002 24.664,29.046 24.623,29.049 C24.574,29.058 24.526,29.057 24.482,29.058 L23.563,29.058 C23.139,29.058 22.825,28.914 22.624,28.684 L22.624,28.684 Z" id="Fill-11" sketch:type="MSShapeGroup"></path>
            <path d="M27.574,29.152 C26.46,29.145 25.874,28.061 25.558,26.667 C25.241,25.262 25.185,23.497 25.185,22.005 C25.185,20.906 25.206,19.319 25.506,17.995 C25.802,16.679 26.393,15.577 27.574,15.572 C27.895,15.573 28.208,15.748 28.484,15.97 C28.555,16.033 28.691,16.054 28.767,16.053 C28.845,16.055 28.95,16.03 28.971,15.996 C29.089,15.866 29.204,15.709 29.385,15.692 C29.485,15.686 29.567,15.773 29.584,15.847 C29.608,15.923 29.61,16.005 29.611,16.098 L29.611,20.222 C29.6,20.387 29.473,20.479 29.342,20.486 C29.15,20.492 29.057,20.32 29.048,20.2 C28.943,19.454 28.791,18.554 28.556,17.847 C28.324,17.133 27.997,16.656 27.644,16.67 C27.359,16.656 27.131,17.003 26.999,17.899 C26.869,18.781 26.833,20.143 26.833,22.023 C26.833,24.694 26.931,26.226 27.123,27.073 C27.33,27.927 27.561,28.044 27.908,28.054 C28.266,28.086 28.614,27.336 28.795,26.506 C28.987,25.685 29.065,24.832 29.082,24.702 C29.124,24.524 29.281,24.46 29.417,24.45 C29.558,24.451 29.698,24.562 29.7,24.733 C29.7,26.06 29.582,27.148 29.261,27.921 C28.946,28.69 28.394,29.152 27.586,29.152 L27.574,29.152" id="Fill-12" sketch:type="MSShapeGroup"></path>
            <path d="M3.119,29.152 C2.005,29.145 1.418,28.061 1.104,26.667 C0.787,25.262 0.73,23.497 0.73,22.005 C0.73,20.906 0.751,19.319 1.051,17.995 C1.347,16.679 1.938,15.577 3.119,15.572 C3.439,15.573 3.754,15.748 4.029,15.97 C4.099,16.033 4.237,16.054 4.312,16.053 C4.389,16.055 4.495,16.03 4.515,15.996 C4.634,15.866 4.749,15.709 4.929,15.692 C5.029,15.686 5.112,15.773 5.128,15.847 C5.152,15.923 5.156,16.005 5.156,16.098 L5.156,20.222 C5.144,20.387 5.019,20.479 4.887,20.486 C4.695,20.492 4.602,20.32 4.593,20.2 C4.488,19.454 4.336,18.554 4.101,17.847 C3.869,17.133 3.542,16.656 3.189,16.67 C2.903,16.656 2.676,17.003 2.544,17.899 C2.413,18.781 2.378,20.143 2.378,22.023 C2.378,24.694 2.476,26.226 2.668,27.073 C2.874,27.927 3.105,28.044 3.452,28.054 C3.81,28.086 4.159,27.336 4.341,26.506 C4.533,25.685 4.609,24.832 4.627,24.702 C4.669,24.524 4.826,24.46 4.962,24.45 C5.103,24.451 5.242,24.562 5.244,24.733 C5.244,26.06 5.127,27.148 4.805,27.921 C4.491,28.69 3.938,29.152 3.13,29.152 L3.119,29.152" id="Fill-13" sketch:type="MSShapeGroup"></path>
            <path d="M33.787,29.058 C33.657,29.057 33.578,28.944 33.578,28.849 C33.603,28.691 33.714,28.665 33.724,28.626 L34.14,28.108 C34.235,28.011 34.267,27.891 34.268,27.689 L34.268,22.816 L32.681,22.816 L32.681,27.689 C32.683,27.891 32.713,28.011 32.817,28.116 L33.231,28.633 C33.236,28.665 33.347,28.691 33.371,28.849 C33.371,28.944 33.292,29.057 33.163,29.058 L30.521,29.058 C30.391,29.057 30.313,28.944 30.313,28.849 C30.337,28.691 30.448,28.665 30.467,28.616 L30.993,28.108 C31.089,28.011 31.12,27.891 31.121,27.689 L31.121,17.035 C31.12,16.832 31.089,16.712 30.994,16.617 L30.453,16.091 C30.449,16.058 30.337,16.031 30.313,15.875 C30.313,15.779 30.392,15.666 30.521,15.666 L33.163,15.666 C33.292,15.666 33.371,15.779 33.371,15.875 C33.347,16.031 33.235,16.058 33.225,16.097 L32.809,16.616 C32.713,16.712 32.683,16.832 32.681,17.035 L32.681,21.678 L34.268,21.678 L34.268,17.035 C34.267,16.832 34.235,16.712 34.132,16.607 L33.719,16.091 C33.714,16.058 33.603,16.031 33.578,15.875 C33.578,15.779 33.658,15.666 33.787,15.666 L36.429,15.666 C36.558,15.666 36.637,15.779 36.637,15.875 C36.613,16.031 36.501,16.058 36.483,16.107 L35.956,16.616 C35.86,16.712 35.83,16.832 35.828,17.035 L35.828,27.689 C35.83,27.891 35.86,28.011 35.955,28.106 L36.497,28.633 C36.502,28.665 36.612,28.691 36.637,28.849 C36.637,28.944 36.558,29.057 36.429,29.058 L33.787,29.058" id="Fill-14" sketch:type="MSShapeGroup"></path>
            <path d="M38.927,17.113 C38.929,16.672 39.234,16.237 39.681,16.23 C40.114,16.239 40.416,16.673 40.417,17.113 C40.415,17.54 40.117,17.985 39.681,17.995 C39.232,17.987 38.93,17.54 38.927,17.113 M38.539,29.058 C38.478,29.057 38.336,29.029 38.331,28.884 C38.338,28.787 38.386,28.739 38.426,28.692 L38.976,28.073 C38.974,28.07 38.983,28.062 38.981,27.987 L38.981,20.024 C38.977,19.968 38.978,19.981 38.961,19.959 L38.417,19.448 C38.384,19.391 38.338,19.347 38.331,19.25 C38.336,19.105 38.478,19.076 38.539,19.076 L40.227,19.076 C40.276,19.075 40.332,19.095 40.368,19.138 C40.405,19.18 40.417,19.233 40.417,19.285 L40.417,27.987 C40.417,28.022 40.418,28.049 40.421,28.063 C40.421,28.073 40.423,28.072 40.427,28.077 L40.968,28.687 C41.013,28.739 41.061,28.787 41.068,28.884 C41.072,28.931 41.043,28.998 40.994,29.027 C40.946,29.055 40.903,29.057 40.859,29.058 L38.539,29.058" id="Fill-15" sketch:type="MSShapeGroup"></path>
            <path d="M44.526,29.058 C44.482,29.057 44.44,29.055 44.392,29.027 C44.341,28.998 44.314,28.931 44.317,28.884 C44.324,28.787 44.372,28.739 44.405,28.701 L44.844,28.072 C44.841,28.07 44.851,28.062 44.849,27.987 L44.849,20.955 C44.839,20.293 44.675,20.04 44.354,20.039 C44.193,20.038 43.999,20.154 43.844,20.399 C43.689,20.643 43.578,21.006 43.578,21.465 L43.578,27.987 C43.577,28.047 43.581,28.087 43.579,28.089 L43.995,28.689 C44.058,28.739 44.104,28.794 44.11,28.884 C44.104,29.029 43.963,29.057 43.902,29.058 L41.7,29.058 C41.656,29.057 41.614,29.055 41.565,29.027 C41.516,28.998 41.488,28.931 41.491,28.884 C41.491,28.82 41.52,28.74 41.596,28.683 L42.136,28.072 C42.135,28.07 42.144,28.062 42.141,27.987 L42.141,20.024 C42.138,19.968 42.139,19.981 42.121,19.958 L41.578,19.448 C41.545,19.391 41.498,19.347 41.491,19.25 C41.497,19.105 41.638,19.077 41.7,19.076 L43.387,19.076 C43.437,19.075 43.502,19.092 43.541,19.144 C43.576,19.195 43.577,19.242 43.578,19.285 L43.578,19.576 C43.857,19.301 44.184,19.073 44.724,19.076 C45.186,19.075 45.586,19.241 45.862,19.567 C46.137,19.894 46.286,20.367 46.286,20.973 L46.286,27.987 C46.286,28.022 46.287,28.049 46.289,28.063 C46.289,28.072 46.291,28.072 46.296,28.077 L46.836,28.688 C46.88,28.739 46.929,28.786 46.936,28.884 C46.93,29.029 46.789,29.057 46.728,29.058 L44.526,29.058" id="Fill-16" sketch:type="MSShapeGroup"></path>
            <path d="M4.358,41.857 C4.42,41.857 4.46,41.796 4.437,41.713 L3.598,36.215 L3.556,36.215 L2.737,41.734 C2.714,41.816 2.753,41.857 2.795,41.857 L4.358,41.857 L4.358,41.857 Z M4.676,43.137 C4.653,43.033 4.589,42.951 4.486,42.951 L2.642,42.951 C2.58,42.951 2.537,43.012 2.514,43.095 L2.235,45.364 C2.21,45.508 2.248,45.632 2.328,45.735 L2.769,46.21 C2.849,46.313 2.971,46.396 2.968,46.458 C2.967,46.519 2.924,46.581 2.821,46.581 L0.357,46.581 C0.274,46.581 0.234,46.519 0.236,46.458 C0.237,46.396 0.322,46.313 0.386,46.251 L0.979,45.674 C1.106,45.55 1.133,45.344 1.158,45.158 L3.267,31.297 C3.288,31.194 3.329,31.112 3.432,31.112 L4.195,31.112 C4.298,31.112 4.36,31.215 4.381,31.338 L6.539,45.179 C6.565,45.385 6.632,45.612 6.779,45.735 L7.267,46.272 C7.33,46.333 7.393,46.396 7.394,46.458 C7.396,46.519 7.356,46.581 7.253,46.581 L4.375,46.581 C4.272,46.581 4.229,46.519 4.228,46.458 C4.226,46.396 4.308,46.333 4.368,46.272 L4.912,45.715 C4.992,45.632 5.03,45.488 5.005,45.302 L4.676,43.137 L4.676,43.137 Z" id="Fill-17" sketch:type="MSShapeGroup"></path>
            <path d="M44.128,41.857 C44.191,41.857 44.23,41.796 44.208,41.713 L43.368,36.215 L43.327,36.215 L42.508,41.734 C42.484,41.816 42.524,41.857 42.566,41.857 L44.128,41.857 L44.128,41.857 Z M44.447,43.137 C44.424,43.033 44.36,42.951 44.257,42.951 L42.412,42.951 C42.35,42.951 42.308,43.012 42.285,43.095 L42.006,45.364 C41.981,45.508 42.019,45.632 42.098,45.735 L42.539,46.21 C42.619,46.313 42.741,46.396 42.739,46.458 C42.737,46.519 42.694,46.581 42.591,46.581 L40.127,46.581 C40.044,46.581 40.005,46.519 40.006,46.458 C40.008,46.396 40.093,46.313 40.156,46.251 L40.75,45.674 C40.877,45.55 40.903,45.344 40.929,45.158 L43.038,31.297 C43.058,31.194 43.099,31.112 43.202,31.112 L43.966,31.112 C44.069,31.112 44.13,31.215 44.151,31.338 L46.31,45.179 C46.335,45.385 46.402,45.612 46.55,45.735 L47.037,46.272 C47.1,46.333 47.163,46.396 47.164,46.458 C47.166,46.519 47.126,46.581 47.023,46.581 L44.146,46.581 C44.042,46.581 44,46.519 43.999,46.458 C43.997,46.396 44.078,46.333 44.139,46.272 L44.682,45.715 C44.763,45.632 44.801,45.488 44.776,45.302 L44.447,43.137 L44.447,43.137 Z" id="Fill-18" sketch:type="MSShapeGroup"></path>
            <path d="M9.952,31.112 C10.138,31.112 10.221,31.256 10.241,31.462 L11.942,41.16 L11.984,41.16 L13.64,31.462 C13.661,31.256 13.723,31.112 13.867,31.112 L16.417,31.112 C16.5,31.112 16.541,31.173 16.541,31.215 C16.541,31.297 16.458,31.359 16.396,31.421 L15.88,32.019 C15.757,32.184 15.716,32.349 15.716,32.597 L15.716,45.097 C15.716,45.344 15.757,45.508 15.88,45.674 L16.396,46.272 C16.458,46.333 16.541,46.396 16.541,46.478 C16.541,46.519 16.5,46.581 16.417,46.581 L13.529,46.581 C13.426,46.581 13.406,46.519 13.406,46.478 C13.406,46.396 13.488,46.333 13.55,46.251 L13.984,45.694 C14.107,45.529 14.128,45.344 14.128,45.097 L14.128,35.113 L14.086,35.113 L12.087,46.416 C12.066,46.519 12.025,46.581 11.921,46.581 L11.468,46.581 C11.406,46.581 11.385,46.499 11.365,46.396 L9.262,35.113 L9.221,35.113 L9.221,45.097 C9.221,45.344 9.241,45.529 9.365,45.694 L9.798,46.251 C9.861,46.333 9.943,46.396 9.943,46.478 C9.943,46.519 9.902,46.581 9.819,46.581 L7.527,46.581 C7.444,46.581 7.402,46.519 7.402,46.478 C7.402,46.396 7.506,46.333 7.547,46.272 L7.939,45.674 C8.064,45.508 8.125,45.344 8.125,45.097 L8.125,32.597 C8.125,32.349 8.064,32.184 7.939,32.019 L7.424,31.421 C7.383,31.359 7.279,31.297 7.279,31.215 C7.279,31.173 7.321,31.112 7.403,31.112 L9.952,31.112" id="Fill-19" sketch:type="MSShapeGroup"></path>
            <path d="M19.677,38.186 L20.252,38.186 C20.355,38.186 20.438,38.145 20.479,38.042 L21.201,36.11 C21.242,36.028 21.263,35.986 21.325,35.986 C21.387,35.986 21.407,36.028 21.407,36.11 L21.407,41.459 C21.407,41.52 21.387,41.562 21.325,41.562 C21.242,41.562 21.221,41.5 21.181,41.417 L20.479,39.424 C20.438,39.32 20.355,39.28 20.252,39.28 L19.677,39.28 L19.677,45.55 L20.852,45.55 C21.12,45.55 21.326,45.426 21.409,45.179 L22.523,41.219 C22.543,41.136 22.605,41.094 22.668,41.094 C22.729,41.094 22.771,41.157 22.771,41.219 L22.771,46.396 C22.771,46.499 22.708,46.581 22.605,46.581 L17.263,46.581 C17.181,46.581 17.139,46.519 17.139,46.458 C17.139,46.396 17.243,46.355 17.284,46.271 L17.902,45.674 C18.047,45.529 18.088,45.344 18.088,45.096 L18.088,32.597 C18.088,32.349 18.047,32.163 17.902,32.019 L17.284,31.421 C17.243,31.359 17.139,31.297 17.139,31.235 C17.139,31.173 17.181,31.112 17.263,31.112 L22.605,31.112 C22.688,31.112 22.771,31.194 22.771,31.297 L22.771,36.433 C22.771,36.516 22.729,36.556 22.668,36.556 C22.585,36.556 22.523,36.495 22.502,36.412 L21.389,32.535 C21.306,32.267 21.12,32.143 20.852,32.143 L19.677,32.143 L19.677,38.186" id="Fill-20" sketch:type="MSShapeGroup"></path>
            <path d="M26.177,38.207 L26.486,38.207 C27.497,38.207 27.909,37.403 27.909,34.927 C27.909,32.824 27.497,32.143 26.486,32.143 L26.177,32.143 L26.177,38.207 L26.177,38.207 Z M26.177,45.097 C26.177,45.344 26.218,45.529 26.362,45.674 L26.981,46.272 C27.022,46.333 27.126,46.396 27.126,46.458 C27.126,46.519 27.084,46.581 27.001,46.581 L23.763,46.581 C23.681,46.581 23.639,46.519 23.639,46.458 C23.639,46.396 23.743,46.333 23.783,46.272 L24.403,45.674 C24.547,45.529 24.588,45.344 24.588,45.097 L24.588,32.597 C24.588,32.349 24.547,32.164 24.403,32.019 L23.783,31.421 C23.743,31.359 23.639,31.297 23.639,31.235 C23.639,31.173 23.681,31.112 23.763,31.112 L26.342,31.112 C28.487,31.112 29.601,32.246 29.601,34.927 C29.601,37.217 28.796,38.145 28.074,38.599 C28.776,38.97 29.394,39.774 29.394,40.909 L29.394,45.22 C29.394,45.364 29.477,45.488 29.58,45.592 L30.146,46.293 C30.228,46.375 30.31,46.458 30.31,46.519 C30.31,46.581 30.208,46.581 30.104,46.581 L29.126,46.581 C28.177,46.581 27.806,45.962 27.806,45.261 L27.806,40.827 C27.806,39.919 27.25,39.238 26.527,39.238 L26.177,39.238 L26.177,45.097 L26.177,45.097 Z" id="Fill-21" sketch:type="MSShapeGroup"></path>
            <path d="M31.603,32.597 C31.603,32.349 31.561,32.163 31.417,32.019 L30.798,31.421 C30.757,31.359 30.654,31.297 30.654,31.235 C30.654,31.173 30.695,31.112 30.777,31.112 L34.015,31.112 C34.098,31.112 34.14,31.173 34.14,31.235 C34.14,31.297 34.036,31.359 33.995,31.421 L33.377,32.019 C33.232,32.163 33.191,32.349 33.191,32.597 L33.191,45.097 C33.191,45.344 33.232,45.529 33.377,45.674 L33.995,46.272 C34.036,46.333 34.14,46.396 34.14,46.458 C34.14,46.519 34.098,46.581 34.015,46.581 L30.872,46.581 C30.789,46.581 30.748,46.519 30.748,46.458 C30.748,46.396 30.851,46.333 30.892,46.272 L31.417,45.674 C31.561,45.529 31.603,45.344 31.603,45.097 L31.603,32.597" id="Fill-22" sketch:type="MSShapeGroup"></path>
            <path d="M40.161,36.335 C40.161,36.44 40,36.523 39.917,36.523 C39.814,36.523 39.654,36.419 39.634,36.293 C39.386,34.535 38.907,32.044 37.855,32.044 C36.947,32.044 36.783,34.033 36.783,38.448 C36.783,44.728 37.236,45.648 38.164,45.648 C39.299,45.648 39.613,41.797 39.613,41.609 C39.613,41.505 39.794,41.442 39.897,41.442 C40,41.442 40.161,41.505 40.161,41.63 C40.161,44.728 39.587,46.695 37.773,46.695 C35.359,46.695 35.091,41.923 35.091,38.428 C35.091,35.853 35.194,30.998 37.773,30.998 C38.103,30.998 38.453,31.187 38.763,31.438 C38.886,31.542 39.01,31.563 39.114,31.563 C39.216,31.563 39.361,31.48 39.505,31.312 C39.629,31.165 39.913,30.998 40.016,30.998 C40.14,30.998 40.161,31.144 40.161,31.354 L40.161,36.335" id="Fill-23" sketch:type="MSShapeGroup"></path>
        </g>
    </g>
</svg>