<?xml version="1.0" encoding="UTF-8" standalone="no"?>
<svg width="154px" height="36px" viewBox="0 0 154 36" version="1.1" xmlns="http://www.w3.org/2000/svg" xmlns:xlink="http://www.w3.org/1999/xlink" xmlns:sketch="http://www.bohemiancoding.com/sketch/ns">
    <!-- Generator: Sketch 3.1.1 (8761) - http://www.bohemiancoding.com/sketch -->
    <title>SF_wordmark</title>
    <desc>Created with Sketch.</desc>
    <defs></defs>
    <g id="Page-2" stroke="none" stroke-width="1" fill="none" fill-rule="evenodd" sketch:type="MSPage">
        <g id="Desktop-HD-2" sketch:type="MSArtboardGroup" transform="translate(-49.000000, -42.000000)">
            <g id="header-2" sketch:type="MSLayerGroup">
                <g id="SF_wordmark" transform="translate(50.000000, 42.000000)" sketch:type="MSShapeGroup">
                    <path d="M-0.142458101,24.5142857 L1.33910615,22.0285714 C2.36480447,22.7142857 3.58994413,23.0857143 4.8150838,23.0857143 C6.15418994,23.0857143 7.15139665,22.5714286 7.15139665,21.5428571 C7.15139665,20.4571429 5.78379888,19.8857143 4.13128492,19.1428571 C2.05139665,18.2285714 0.455865922,17.1428571 0.455865922,14.6 C0.455865922,11.6857143 3.21955307,10.3714286 5.44189944,10.3714286 C7.80670391,10.3714286 9.28826816,11.0571429 10.2,11.8285714 L8.66145251,14.1714286 C7.94916201,13.6571429 6.72402235,13.1714286 5.47039106,13.1714286 C4.41620112,13.1714286 3.58994413,13.6571429 3.58994413,14.4857143 C3.58994413,15.5714286 4.58715084,15.8857143 5.78379888,16.4571429 C7.74972067,17.3714286 10.427933,18.3142857 10.427933,21.4571429 C10.427933,24.4 7.69273743,25.9714286 4.84357542,25.9714286 C2.96312849,26 1.11117318,25.4571429 -0.142458101,24.5142857 L-0.142458101,24.5142857 Z" id="Shape" fill="#D9531E"></path>
                    <path d="M12.2798883,5.51428571 C12.2798883,4.37142857 13.2201117,3.4 14.3882682,3.4 C15.5849162,3.4 16.5251397,4.34285714 16.5251397,5.51428571 C16.5251397,6.65714286 15.5849162,7.62857143 14.3882682,7.62857143 C13.2486034,7.62857143 12.2798883,6.68571429 12.2798883,5.51428571 L12.2798883,5.51428571 Z" id="Shape" fill="#D9531E"></path>
                    <rect id="Rectangle-path" fill="#D9531E" x="12.8212291" y="10.5714286" width="3.27653631" height="15.2"></rect>
                    <path d="M19.0893855,10.5714286 L22.3659218,10.5714286 L22.3659218,12.2857143 C23.7905028,11 25.5569832,10.3714286 26.924581,10.3714286 C28.6625698,10.3714286 29.9731844,11.2285714 30.6,12.4857143 C31.1698324,11.8857143 32.9648045,10.4 35.6430168,10.4 C38.4921788,10.4 39.9167598,12.4 39.9167598,14.7428571 L39.9167598,25.7714286 L36.6402235,25.7714286 L36.6402235,15.0857143 C36.6402235,13.7714286 35.8139665,13.3714286 34.9307263,13.3714286 C33.4776536,13.3714286 31.796648,14.4285714 31.1698324,15.0857143 L31.1698324,25.7714286 L27.8648045,25.7714286 L27.8648045,15.0857143 C27.8648045,13.8 27.0100559,13.3714286 26.1553073,13.3714286 C24.6167598,13.3714286 22.9072626,14.5714286 22.3659218,15.0857143 L22.3659218,25.7714286 L19.0893855,25.7714286 L19.0893855,10.5714286 L19.0893855,10.5714286 Z" id="Shape" fill="#D9531E"></path>
                    <path d="M42.9368715,10.5714286 L46.2134078,10.5714286 L46.2134078,12 C47.1536313,11.4 48.7206704,10.3714286 50.5156425,10.3714286 C54.9603352,10.3714286 57.0972067,14.0285714 57.0972067,18.1142857 C57.0972067,22 54.7893855,25.9714286 50.3162011,25.9714286 C48.6636872,25.9714286 47.096648,25.1714286 46.2134078,24.4857143 L46.2134078,33.6571429 L42.9368715,33.6571429 L42.9368715,10.5714286 L42.9368715,10.5714286 Z M53.8206704,18.1428571 C53.8206704,15.5714286 52.6240223,13.3142857 50.173743,13.3142857 C48.4357542,13.3142857 47.0396648,14.3142857 46.2134078,14.9714286 L46.2134078,21.3428571 C47.2675978,22.2 48.2932961,23 50.0882682,23 C52.4530726,23 53.8206704,20.7428571 53.8206704,18.1428571 L53.8206704,18.1428571 Z" id="Shape" fill="#D9531E"></path>
                    <path d="M59.4905028,2 L62.7670391,2 L62.7670391,25.7714286 L59.4905028,25.7714286 L59.4905028,2 L59.4905028,2 Z" id="Shape" fill="#D9531E"></path>
                    <path d="M65.1603352,18.3142857 C65.1603352,13.9142857 67.6960894,10.3714286 72.226257,10.3714286 C76.3005587,10.3714286 78.2094972,13.5142857 78.2094972,17.3428571 L78.2094972,19.1142857 L68.550838,19.1142857 C68.7217877,21.3142857 70.2603352,23.0857143 72.596648,23.0857143 C74.0212291,23.0857143 75.3318436,22.7142857 76.3860335,22.2857143 C76.3860335,22.2571429 77.4972067,24.8285714 77.4972067,24.8285714 C76.1865922,25.4857143 74.4486034,26.0285714 72.4541899,26.0285714 C67.6960894,26 65.1603352,22.8857143 65.1603352,18.3142857 L65.1603352,18.3142857 Z M74.9614525,16.7142857 C74.9614525,14.9142857 74.1067039,13.0857143 72.0268156,13.0857143 C69.7759777,13.0857143 68.8072626,15.1428571 68.5793296,16.7142857 L74.9614525,16.7142857 L74.9614525,16.7142857 Z" id="Shape" fill="#D9531E"></path>
                    <path d="M92.027933,3.37142857 C92.027933,3.37142857 90.9452514,2.88571429 89.777095,2.88571429 C89.0078212,2.88571429 87.8111732,3.22857143 87.4977654,4.85714286 L86.5290503,10.5714286 L89.8625698,10.5714286 L89.3782123,13.4285714 L86.0446927,13.4285714 L83.5659218,27.6 C82.9391061,31.2 80.8022346,34.2 77.0413408,36 L75.4743017,33.6571429 C78.750838,31.9714286 79.8620112,29.7428571 80.2893855,27.2857143 L82.7681564,13.4 L79.947486,13.4 L80.4318436,10.5142857 L83.252514,10.5142857 L84.2782123,4.6 C84.7340782,2.11428571 86.5860335,0 89.7486034,0 C92.1418994,0 93.0251397,0.657142857 93.452514,0.828571429 L92.027933,3.37142857 L92.027933,3.37142857 Z" id="Shape" fill="#F78E1E"></path>
                    <path d="M89.8055866,18.2285714 C89.8055866,14.6571429 92.0564246,10.3714286 97.3273743,10.3714286 C102.683799,10.3714286 104.735196,14.6571429 104.735196,18.2 C104.735196,21.7714286 102.541341,25.9428571 97.3273743,25.9428571 C92.5122905,25.9428571 89.8055866,22.4571429 89.8055866,18.2285714 L89.8055866,18.2285714 Z M101.344693,18.2 C101.344693,14.6285714 99.0938547,13.3428571 97.3273743,13.3428571 C95.6463687,13.3428571 93.224581,14.5714286 93.224581,18.2285714 C93.224581,21.2285714 94.9910615,23 97.2988827,23 C99.4072626,23 101.344693,21.5428571 101.344693,18.2 L101.344693,18.2 Z" id="Shape" fill="#F78E1E"></path>
                    <path d="M106.587151,18.3428571 C106.587151,13.5714286 109.721229,10.3714286 114.023464,10.3714286 C115.732961,10.3714286 117.356983,10.8571429 118.639106,11.6571429 L117.100559,14.2285714 C116.302793,13.7428571 115.220112,13.3428571 114.194413,13.3428571 C111.573184,13.3428571 109.92067,15.4285714 109.92067,18.2285714 C109.92067,21.1714286 111.772626,23 114.30838,23 C115.505028,23 116.559218,22.6 117.328492,22.1428571 L118.838547,24.6285714 C117.641899,25.4 116.017877,25.9714286 114.080447,25.9714286 C109.464804,25.9714286 106.587151,22.8285714 106.587151,18.3428571 L106.587151,18.3428571 Z" id="Shape" fill="#F78E1E"></path>
                    <path d="M120.718994,21.6285714 L120.718994,10.5714286 L123.995531,10.5714286 L123.995531,20.8571429 C123.995531,22.4857143 124.850279,23 126.132402,23 C127.841899,23 129.494413,21.5714286 130.235196,20.9142857 L130.235196,10.5714286 L133.511732,10.5714286 L133.511732,25.7714286 L130.235196,25.7714286 L130.235196,24.0285714 C129.010056,25.0857143 127.32905,25.9714286 125.648045,25.9714286 C122.627933,25.9714286 120.718994,24.3142857 120.718994,21.6285714 L120.718994,21.6285714 Z" id="Shape" fill="#F78E1E"></path>
                    <path d="M135.477654,24.5142857 L136.959218,22.0285714 C137.984916,22.7142857 139.210056,23.0857143 140.435196,23.0857143 C141.774302,23.0857143 142.771508,22.5714286 142.771508,21.5428571 C142.771508,20.4571429 141.403911,19.8857143 139.751397,19.1428571 C137.671508,18.2285714 136.075978,17.1428571 136.075978,14.6 C136.075978,11.6857143 138.839665,10.3714286 141.062011,10.3714286 C143.426816,10.3714286 144.90838,11.0571429 145.820112,11.8285714 L144.281564,14.1714286 C143.569274,13.6571429 142.344134,13.1714286 141.090503,13.1714286 C140.036313,13.1714286 139.210056,13.6571429 139.210056,14.4857143 C139.210056,15.5714286 140.207263,15.8857143 141.403911,16.4571429 C143.369832,17.3714286 146.048045,18.3142857 146.048045,21.4571429 C146.048045,24.4 143.312849,25.9714286 140.463687,25.9714286 C138.58324,26 136.731285,25.4571429 135.477654,24.5142857 L135.477654,24.5142857 Z" id="Shape" fill="#F78E1E"></path>
                    <path d="M148.013966,12.8285714 C148.013966,11.4571429 149.096648,10.3714286 150.435754,10.3714286 C151.77486,10.3714286 152.857542,11.4571429 152.857542,12.8285714 C152.857542,14.1714286 151.77486,15.2571429 150.435754,15.2571429 C149.096648,15.2285714 148.013966,14.1428571 148.013966,12.8285714 L148.013966,12.8285714 Z M152.259218,12.8285714 C152.259218,11.7714286 151.432961,10.9428571 150.435754,10.9428571 C149.438547,10.9428571 148.612291,11.7714286 148.612291,12.8285714 C148.612291,13.8571429 149.438547,14.6857143 150.435754,14.6857143 C151.461453,14.6857143 152.259218,13.8285714 152.259218,12.8285714 L152.259218,12.8285714 Z M150.350279,13.0571429 L150.150838,13.0571429 L150.150838,14 L149.66648,14 L149.66648,11.4285714 L150.293296,11.4285714 C150.777654,11.4285714 151.347486,11.6 151.347486,12.1714286 C151.347486,12.5714286 151.205028,12.8 150.89162,12.9428571 C151.119553,13.2857143 151.262011,13.5428571 151.489944,13.8571429 L151.005587,14.0857143 L150.350279,13.0571429 L150.350279,13.0571429 Z M150.321788,12.6 C150.777654,12.6 150.806145,12.3142857 150.806145,12.1714286 C150.806145,11.9714286 150.606704,11.8285714 150.407263,11.8285714 L150.150838,11.8285714 L150.150838,12.6 L150.321788,12.6 L150.321788,12.6 Z" id="Shape" fill="#F78E1E"></path>
                </g>
            </g>
        </g>
    </g>
</svg>