<?xml version="1.0" encoding="UTF-8" standalone="no"?>
<svg width="209px" height="237px" viewBox="0 0 209 237" version="1.1" xmlns="http://www.w3.org/2000/svg" xmlns:xlink="http://www.w3.org/1999/xlink" xmlns:sketch="http://www.bohemiancoding.com/sketch/ns">
    <!-- Generator: Sketch 3.2.1 (9977) - http://www.bohemiancoding.com/sketch -->
    <title>robot</title>
    <desc>Created with Sketch.</desc>
    <defs>
        <path id="path-1" d="M0.176525896,91.3550548 C0.176525896,71.4357411 25.4351335,0.116470187 67.8625498,0.116470187 C110.289966,0.116470187 135.548574,71.6017111 135.548574,91.3550548 C135.548574,111.108814 78.1443506,114.830869 67.8625498,114.830869 C57.5803327,114.830869 0.176525896,111.2752 0.176525896,91.3550548"></path>
        <path id="path-3" d="M100.620594,6.9977784 L98.741259,0.070298077 C98.741259,0.070298077 79.4037629,7.54061266 50.4406096,7.54061266 C21.4778725,7.54061266 1.94719721,0.240011778 1.94719721,0.240011778 L0.123651394,6.96158944 C0.123651394,6.96158944 15.1845578,14.6972897 50.4406096,14.6972897 C85.6970777,14.6972897 100.620594,6.9977784 100.620594,6.9977784"></path>
        <path id="path-5" d="M12.3101833,2.79195676 C5.78163944,1.23583187 1.93096016,-0.175953175 1.93096016,-0.175953175 L0.0836832669,6.54562449 C0.0836832669,6.54562449 3.42976494,8.28227817 10.7156215,10.1100282 C11.0849104,7.53936476 11.2410359,6.18747867 12.3101833,2.79195676"></path>
    </defs>
    <g id="Page-1" stroke="none" stroke-width="1" fill="none" fill-rule="evenodd" sketch:type="MSPage">
        <g id="Desktop-HD" sketch:type="MSArtboardGroup" transform="translate(-616.000000, -35.000000)">
            <g id="robot" sketch:type="MSLayerGroup" transform="translate(616.000000, 35.000000)">
                <path d="M56.1947709,110.203675 C35.2660438,101.221328 16.0447052,122.539115 16.1716873,132.825097 C16.1966673,134.850014 19.434502,137.57708 20.9636992,135.769713 C26.0196673,129.792712 36.3593386,120.906037 44.1431315,128.912114 C44.7551434,129.541053 58.3226574,111.11755 56.1947709,110.203675" id="Fill-1" fill="#BABEB7" sketch:type="MSShapeGroup"></path>
                <path d="M6.12511554,147.478294 L8.48073705,144.537006 C8.48073705,144.537006 3.71245618,140.794569 4.56594223,139.314982 C6.42654183,136.090838 11.2002351,135.357075 15.2291056,137.677744 C19.2575598,139.998828 21.015741,144.49333 19.1551414,147.717474 C18.4323845,148.970776 16.0896693,147.755327 16.0896693,147.755327 L13.7344641,150.696615 L13.7586116,153.204052 C17.2866315,153.549303 20.6093984,152.553067 22.789743,150.35594 C23.3043327,149.838063 25.4247251,147.324803 25.7998426,146.67465 C26.5596534,145.357705 22.6444422,135.60707 18.0014781,132.932832 C14.520504,130.927881 5.02349402,130.822225 5.02349402,130.822225 C5.02349402,130.822225 2.65413347,133.240646 1.35808367,135.487688 C-1.04416733,139.649834 0.420081673,145.167193 4.5547012,149.000726 L6.12511554,147.478294" id="Fill-2" fill="#BABEB7" sketch:type="MSShapeGroup"></path>
                <path d="M8.48073705,144.537006 C6.21421116,142.116922 5.48229482,138.866988 6.92114741,136.373694 C8.78174701,133.149549 13.5554402,132.416203 17.5843108,134.736872 C21.6127649,137.057124 23.3709462,141.552457 21.5103466,144.776186 C20.4382849,146.634717 18.396996,147.659655 16.0896693,147.755327 L16.1138167,150.262348 C20.473257,150.689544 24.5204462,149.06728 26.4851295,145.662191 C29.3890637,140.629431 26.6454183,133.613766 20.3570996,129.991543 C14.0687809,126.369321 6.61680677,127.51364 3.71328884,132.545984 C1.31103785,136.708545 2.77528685,142.225905 6.90990637,146.059438 L8.48073705,144.537006" id="Fill-3" fill="#DCE0DA" sketch:type="MSShapeGroup"></path>
                <path d="M152.805229,110.203675 C173.734373,101.221328 192.955295,122.539115 192.827896,132.825097 C192.803749,134.850014 189.565498,137.57708 188.036717,135.769713 C182.980333,129.792712 172.640661,120.906037 164.856869,128.912114 C164.244857,129.541053 150.677343,111.11755 152.805229,110.203675" id="Fill-4" fill="#DCE0DA" sketch:type="MSShapeGroup"></path>
                <path d="M202.874468,147.478294 L200.519679,144.537006 C200.519679,144.537006 205.28796,140.794569 204.434058,139.314982 C202.573875,136.090838 197.799765,135.357075 193.770894,137.677744 C189.742024,139.998828 187.984259,144.49333 189.844859,147.717474 C190.568032,148.970776 192.910331,147.755327 192.910331,147.755327 L195.265536,150.696615 L195.241388,153.204052 C191.713369,153.549303 188.390602,152.553067 186.210257,150.35594 C185.695667,149.838063 183.575275,147.324803 183.200157,146.67465 C182.43993,145.357705 186.355141,135.60707 190.998522,132.932832 C194.479496,130.927881 203.976506,130.822225 203.976506,130.822225 C203.976506,130.822225 206.345867,133.240646 207.641916,135.487688 C210.044167,139.649834 208.579918,145.167193 204.445299,149.000726 L202.874468,147.478294" id="Fill-5" fill="#BABEB7" sketch:type="MSShapeGroup"></path>
                <path d="M200.519679,144.537006 C202.785789,142.116922 203.517705,138.866988 202.078853,136.373694 C200.218253,133.149549 195.44456,132.416203 191.415689,134.736872 C187.387235,137.057124 185.629054,141.552457 187.489653,144.776186 C188.561715,146.634717 190.60342,147.659655 192.910331,147.755327 L192.886183,150.262348 C188.526327,150.689544 184.479554,149.06728 182.514871,145.662191 C179.610936,140.629431 182.354582,133.613766 188.643317,129.991543 C194.931635,126.369321 202.383193,127.51364 205.287127,132.545984 C207.688962,136.708545 206.224713,142.225905 202.089677,146.059438 L200.519679,144.537006" id="Fill-6" fill="#DCE0DA" sketch:type="MSShapeGroup"></path>
                <path d="M36.8139761,149.590148 C36.8139761,129.670834 62.0725837,58.3515635 104.5,58.3515635 C146.927416,58.3515635 172.186024,129.836804 172.186024,149.590148 C172.186024,169.343908 114.781801,173.066378 104.5,173.066378 C94.2177829,173.066378 36.8139761,169.510294 36.8139761,149.590148" id="Fill-7" fill="#DCE0DA" sketch:type="MSShapeGroup"></path>
                <path d="M118.044199,107.41463 C118.044199,110.326384 112.010677,112.687401 104.569112,112.687401 C97.1267131,112.687401 91.0940239,110.326384 91.0940239,107.41463 C91.0940239,104.502459 97.1267131,102.141442 104.569112,102.141442 C112.010677,102.141442 118.044199,104.502459 118.044199,107.41463" id="Fill-8" fill="#545C63" sketch:type="MSShapeGroup"></path>
                <path d="M118.044199,102.584029 C118.044199,105.495783 112.010677,107.856384 104.569112,107.856384 C97.1267131,107.856384 91.0940239,105.495783 91.0940239,102.584029 C91.0940239,99.672274 97.1267131,97.311257 104.569112,97.311257 C112.010677,97.311257 118.044199,99.672274 118.044199,102.584029" id="Fill-9" fill="#7B868E" sketch:type="MSShapeGroup"></path>
                <path d="M118.044199,97.7534277 C118.044199,100.665182 112.010677,103.026199 104.569112,103.026199 C97.1267131,103.026199 91.0940239,100.665182 91.0940239,97.7534277 C91.0940239,94.8412571 97.1267131,92.480656 104.569112,92.480656 C112.010677,92.480656 118.044199,94.8412571 118.044199,97.7534277" id="Fill-10" fill="#545C63" sketch:type="MSShapeGroup"></path>
                <path d="M118.044199,92.9232427 C118.044199,95.8354133 112.010677,98.1960144 104.569112,98.1960144 C97.1267131,98.1960144 91.0940239,95.8354133 91.0940239,92.9232427 C91.0940239,90.0106561 97.1267131,87.6504709 104.569112,87.6504709 C112.010677,87.6504709 118.044199,90.0106561 118.044199,92.9232427" id="Fill-11" fill="#7B868E" sketch:type="MSShapeGroup"></path>
                <path d="M118.044199,88.0926417 C118.044199,91.0043963 112.010677,93.3654134 104.569112,93.3654134 C97.1267131,93.3654134 91.0940239,91.0043963 91.0940239,88.0926417 C91.0940239,85.180471 97.1267131,82.8198699 104.569112,82.8198699 C112.010677,82.8198699 118.044199,85.180471 118.044199,88.0926417" id="Fill-12" fill="#545C63" sketch:type="MSShapeGroup"></path>
                <path d="M118.044199,83.2616247 C118.044199,86.1737953 112.010677,88.5348124 104.569112,88.5348124 C97.1267131,88.5348124 91.0940239,86.1737953 91.0940239,83.2616247 C91.0940239,80.350286 97.1267131,77.9892689 104.569112,77.9892689 C112.010677,77.9892689 118.044199,80.350286 118.044199,83.2616247" id="Fill-13" fill="#7B868E" sketch:type="MSShapeGroup"></path>
                <path d="M104.5,210.79024 C84.0425637,210.79024 67.4582888,216.493535 67.4582888,223.529166 C67.4582888,230.564798 84.0425637,236.268093 104.5,236.268093 C124.957436,236.268093 141.541711,230.564798 141.541711,223.529166 C141.541711,216.493535 124.957436,210.79024 104.5,210.79024" id="Fill-14" fill-opacity="0.400000006" fill="#ABADAD" sketch:type="MSShapeGroup"></path>
                <g id="Group-20" transform="translate(36.637450, 58.235093)">
                    <mask id="mask-2" sketch:name="Clip 19" fill="white">
                        <use xlink:href="#path-1"></use>
                    </mask>
                    <g id="Clip-19"></g>
                    <path d="M132.672118,47.0040396 C132.672118,47.0040396 116.726916,72.5871321 67.3146534,72.5871321 C39.1354582,72.5871321 31.363739,78.7563083 27.061753,88.8779835 C22.7597669,98.9996587 27.6312988,117.302117 67.3146534,117.302117 C106.998008,117.302117 68.0707171,126.421316 68.0707171,126.421316 C68.0707171,126.421316 -14.7103526,108.705785 -14.7103526,108.28982 C-14.7103526,107.873855 7.91035857,18.8569392 7.91035857,18.8569392 L132.672118,47.0040396" id="Fill-18" fill="#BABEB7" sketch:type="MSShapeGroup" mask="url(#mask-2)"></path>
                </g>
                <path d="M153.739068,28.816388 C136.945793,27.9295508 115.95753,27.4536869 104.501249,27.4536869 C93.0449681,27.4536869 72.1245677,27.9295508 55.3312928,28.816388 C41.1463546,29.5659569 38.1695618,35.902351 38.1695618,57.8266158 C38.1695618,79.7508805 39.4810159,94.5608967 48.4322112,102.675541 C63.3498984,116.198978 90.58901,122.570729 104.501249,122.570729 C118.586683,122.570729 145.742944,116.198978 160.661048,102.675541 C169.612243,94.5608967 170.968245,79.7508805 170.968245,57.8266158 C170.968245,35.902351 167.92359,29.5659569 153.739068,28.816388" id="Fill-21" fill="#9AB2B0" sketch:type="MSShapeGroup"></path>
                <path d="M48.0371096,78.1868523 C48.0371096,101.158101 92.6028207,110.088452 104.5,110.088452 C116.397179,110.088452 160.962474,101.158101 160.962474,78.1868523 C160.962474,36.57871 135.683882,26.9008694 104.5,26.9008694 C73.3169502,26.9008694 48.0371096,36.57871 48.0371096,78.1868523" id="Fill-22" fill="#A4BCB9" sketch:type="MSShapeGroup"></path>
                <path d="M104.5,30.3654415 C115.965857,30.3654415 137.281775,30.8479609 154.203281,31.7418696 C160.796773,32.0896163 161.721869,33.7031443 162.275177,34.6669351 C164.367675,38.3153637 164.635795,46.7989689 164.635795,53.7821885 C164.635795,74.5613018 164.570847,87.7823318 157.854952,93.8703949 C144.682956,105.811917 117.881412,112.58757 104.5,112.58757 C91.1573068,112.58757 64.8253884,105.811917 51.6529761,93.8703949 C44.9753845,87.8172729 44.502012,74.5879235 44.502012,53.7821885 C44.502012,46.7839942 44.7676335,38.2845823 46.8393147,34.6482167 C47.4201016,33.6291025 48.2977351,32.0887843 54.8658307,31.7418696 C71.7869203,30.8479609 93.0674502,30.3654415 104.5,30.3654415 M104.5,18.5104404 C70.9850598,18.5104404 37.8406574,21.4916612 37.8406574,43.7990297 C37.8406574,66.1068141 38.3423406,91.1591353 47.4500777,99.4156236 C62.6288068,113.175744 90.3446215,119.658974 104.5,119.658974 C118.831904,119.658974 146.463203,113.175744 161.641932,99.4156236 C170.749669,91.1591353 171.297149,66.1068141 171.297149,43.7990297 C171.297149,21.4916612 138.01494,18.5104404 104.5,18.5104404" id="Fill-23" fill="#EBECE8" sketch:type="MSShapeGroup"></path>
                <path d="M78.4095558,62.6721915 C78.4095558,66.5776864 77.229247,69.7435957 75.7729084,69.7435957 C74.3165697,69.7435957 73.1358446,66.5776864 73.1358446,62.6721915 C73.1358446,58.7671125 74.3165697,55.6007873 75.7729084,55.6007873 C77.229247,55.6007873 78.4095558,58.7671125 78.4095558,62.6721915" id="Fill-24" fill="#2C3332" sketch:type="MSShapeGroup"></path>
                <path d="M135.864155,62.6721915 C135.864155,66.5776864 134.68343,69.7435957 133.227092,69.7435957 C131.770753,69.7435957 130.590028,66.5776864 130.590028,62.6721915 C130.590028,58.7671125 131.770753,55.6007873 133.227092,55.6007873 C134.68343,55.6007873 135.864155,58.7671125 135.864155,62.6721915" id="Fill-25" fill="#2C3332" sketch:type="MSShapeGroup"></path>
                <path d="M104.5,34.1091261 C115.965857,34.1091261 137.281775,34.5916454 154.203281,35.4855541 C160.796773,35.8333008 161.721869,37.4468289 162.275177,38.4106197 C164.367675,42.0590483 164.635795,50.5426535 164.635795,57.5258731 C164.635795,78.3049863 163.321843,91.5260164 156.605948,97.6140794 C143.433952,109.555601 117.881412,115.915289 104.5,115.915289 C91.1573068,115.915289 65.6580578,109.555601 52.4856454,97.6140794 C45.8080538,91.5609574 44.502012,78.3316081 44.502012,57.5258731 C44.502012,50.5276787 44.7676335,42.0282669 46.8393147,38.3919013 C47.4201016,37.3727871 48.2977351,35.8324689 54.8658307,35.4855541 C71.7869203,34.5916454 93.0674502,34.1091261 104.5,34.1091261 M104.5,26.621757 C92.8430458,26.621757 71.5571036,27.1059402 54.4703127,28.0081681 C40.0368227,28.7706319 37.007988,35.2180887 37.007988,57.5258731 C37.007988,79.8336575 38.3423406,94.9028199 47.4500777,103.159308 C62.6288068,116.919429 90.3446215,123.402659 104.5,123.402659 C118.831904,123.402659 146.463203,116.919429 161.641932,103.159308 C170.749669,94.9028199 172.129819,79.8336575 172.129819,57.5258731 C172.129819,35.2180887 169.031873,28.7706319 154.598799,28.0081681 C137.512008,27.1059402 116.156538,26.621757 104.5,26.621757" id="Fill-26" fill="#DCE0DA" sketch:type="MSShapeGroup"></path>
                <path d="M127.120711,22.6006238 C127.120711,10.1566162 117.023763,0.0686342172 104.569112,0.0686342172 C92.1140438,0.0686342172 82.0170956,10.1566162 82.0170956,22.6006238 C82.0170956,24.5419322 92.1140438,24.5419322 104.569112,24.5419322 C117.023763,24.5419322 127.120711,24.5419322 127.120711,22.6006238" id="Fill-27" fill="#DCE0DA" sketch:type="MSShapeGroup"></path>
                <path d="M108.039677,17.0545631 C108.039677,18.9118466 106.532962,20.4172237 104.674028,20.4172237 C102.81551,20.4172237 101.307962,18.9118466 101.307962,17.0545631 C101.307962,15.1976955 102.81551,13.6919024 104.674028,13.6919024 C106.532962,13.6919024 108.039677,15.1976955 108.039677,17.0545631" id="Fill-28" fill="#F0C419" sketch:type="MSShapeGroup"></path>
                <path d="M118.136625,16.6385981 C118.136625,18.4958816 116.62991,20.0012588 114.770976,20.0012588 C112.912042,20.0012588 111.405327,18.4958816 111.405327,16.6385981 C111.405327,14.7817306 112.912042,13.2759374 114.770976,13.2759374 C116.62991,13.2759374 118.136625,14.7817306 118.136625,16.6385981" id="Fill-29" fill="#E64C3C" sketch:type="MSShapeGroup"></path>
                <path d="M97.5946733,16.6385981 C97.5946733,18.4958816 96.0875418,20.0012588 94.2290239,20.0012588 C92.370506,20.0012588 90.8637908,18.4958816 90.8637908,16.6385981 C90.8637908,14.7817306 92.370506,13.2759374 94.2290239,13.2759374 C96.0875418,13.2759374 97.5946733,14.7817306 97.5946733,16.6385981" id="Fill-30" fill="#4EBA64" sketch:type="MSShapeGroup"></path>
                <path d="M156.617606,149.237826 L154.668327,140.414793 C154.668327,140.414793 134.609323,148.552732 104.566614,148.552732 C74.5239044,148.552732 54.2650598,140.616536 54.2650598,140.616536 L52.3736514,149.200389 C52.3736514,149.200389 67.9957769,157.540902 104.566614,157.540902 C141.13745,157.540902 156.617606,149.237826 156.617606,149.237826" id="Fill-31" fill="#EBECE8" sketch:type="MSShapeGroup"></path>
                <path d="M154.7441,148.009897 L152.864765,141.082417 C152.864765,141.082417 133.527269,148.552732 104.564116,148.552732 C75.6013785,148.552732 56.0707032,141.252131 56.0707032,141.252131 L54.2471574,147.973708 C54.2471574,147.973708 69.3080637,155.709409 104.564116,155.709409 C139.820584,155.709409 154.7441,148.009897 154.7441,148.009897" id="Fill-32" fill="#4C4C4C" sketch:type="MSShapeGroup"></path>
                <g id="Group-35" transform="translate(54.123506, 141.012119)">
                    <mask id="mask-4" sketch:name="Clip 34" fill="white">
                        <use xlink:href="#path-3"></use>
                    </mask>
                    <g id="Clip-34"></g>
                    <path d="M80.3525896,20.3822827 L-7.91035857,20.3822827 L-7.91035857,-8.735264 L77.438247,-8.735264 L80.3525896,20.3822827" id="Fill-33" fill="#84D3E8" sketch:type="MSShapeGroup" mask="url(#mask-4)"></path>
                </g>
                <path d="M152.864765,141.082417 L154.668327,140.414793 L156.617606,149.237826 L154.7441,148.009897 L152.864765,141.082417" id="Fill-36" fill="#BABEB7" sketch:type="MSShapeGroup"></path>
                <path d="M56.0707032,141.252131 L54.2650598,140.616536 L52.3736514,149.200389 L54.2471574,147.973708 L56.0707032,141.252131" id="Fill-37" fill="#8F918D" sketch:type="MSShapeGroup"></path>
                <path d="M66.4336892,144.220041 C59.9051454,142.663916 56.0544661,141.252131 56.0544661,141.252131 L54.2071892,147.973708 C54.2071892,147.973708 57.5532709,149.710362 64.8391275,151.538112 C65.2084163,148.967449 65.3645418,147.615563 66.4336892,144.220041" id="Fill-38" fill="#6DADBC" sketch:type="MSShapeGroup"></path>
                <g id="Group-41" transform="translate(54.123506, 141.428084)">
                    <mask id="mask-6" sketch:name="Clip 40" fill="white">
                        <use xlink:href="#path-5"></use>
                    </mask>
                    <g id="Clip-40"></g>
                    <path d="M80.3525896,19.9663177 L-7.91035857,19.9663177 L-7.91035857,-9.15122895 L77.438247,-9.15122895 L80.3525896,19.9663177" id="Fill-39" fill="#6DADBC" sketch:type="MSShapeGroup" mask="url(#mask-6)"></path>
                </g>
                <path d="M64.8391275,151.538112 L62.4302151,152.768952 C62.4302151,152.768952 59.047496,151.906657 56.3092629,150.873816 C53.5710299,149.840975 52.3736514,149.200389 52.3736514,149.200389 L54.2471574,147.973708 C54.2471574,147.973708 55.9287331,148.885919 58.9571514,149.83016 C61.9855697,150.774816 64.8391275,151.538112 64.8391275,151.538112" id="Fill-42" fill="#BABEB7" sketch:type="MSShapeGroup"></path>
            </g>
        </g>
    </g>
</svg>